<svg xmlns="http://www.w3.org/2000/svg" xmlns:xlink="http://www.w3.org/1999/xlink" xmlns:lucid="lucid" width="1250.34" height="2043.96"><g transform="translate(-1875.2127317903396 1020.5)" lucid:page-tab-id="0_0"><path d="M2580-660c0 22.1-17.9 40-40 40s-40-17.9-40-40 17.9-40 40-40 40 17.9 40 40z" stroke="#3a414a" fill-opacity="0"/><use xlink:href="#a" transform="matrix(1,0,0,1,2502,-698) translate(27.634629629629636 43.88888888888888)"/><path d="M1895.7-832a8 8 0 0 1 8-8H2152a8 8 0 0 1 8 8v64a8 8 0 0 1-8 8h-248.3a8 8 0 0 1-8-8z" stroke="#3a414a" fill="#fff"/><use xlink:href="#b" transform="matrix(1,0,0,1,1907.7127317903396,-828) translate(74.85185185185185 31.77777777777778)"/><path d="M1900-914a6 6 0 0 1 6-6h252.3a6 6 0 0 1 6 6v68a6 6 0 0 1-6 6H1906a6 6 0 0 1-6-6z" stroke="#000" stroke-opacity="0" fill="#fff" fill-opacity="0"/><use xlink:href="#c" transform="matrix(1,0,0,1,1905,-915) translate(28.8888888888889 39.65277777777778)"/><use xlink:href="#d" transform="matrix(1,0,0,1,1905,-915) translate(79.38271604938274 39.65277777777778)"/><use xlink:href="#e" transform="matrix(1,0,0,1,1905,-915) translate(97.90123456790126 39.65277777777778)"/><use xlink:href="#f" transform="matrix(1,0,0,1,1905,-915) translate(170.74074074074076 39.65277777777778)"/><path d="M2180-692a8 8 0 0 1 8-8h248.3a8 8 0 0 1 8 8v64a8 8 0 0 1-8 8H2188a8 8 0 0 1-8-8z" stroke="#3a414a" fill="#fff"/><use xlink:href="#g" transform="matrix(1,0,0,1,2192,-688) translate(38.61728395061729 31.77777777777778)"/><use xlink:href="#h" transform="matrix(1,0,0,1,2192,-688) translate(50.96296296296297 31.77777777777778)"/><path d="M2027.86-759v93a6 6 0 0 0 6 6h129.26" stroke="#3a414a" fill="none"/><path d="M2028.36-759h-1v-.5h1z" stroke="#3a414a" stroke-width=".05" fill="#3a414a"/><path d="M2177.88-660l-14.26 4.63v-9.26z" stroke="#3a414a" fill="#3a414a"/><path d="M2180-452.5a8 8 0 0 1 8-8h248.3a8 8 0 0 1 8 8v64a8 8 0 0 1-8 8H2188a8 8 0 0 1-8-8z" stroke="#3a414a" fill="#fff"/><use xlink:href="#g" transform="matrix(1,0,0,1,2192,-448.4999500000001) translate(38.61728395061729 31.77777777777778)"/><use xlink:href="#i" transform="matrix(1,0,0,1,2192,-448.4999500000001) translate(50.96296296296297 31.77777777777778)"/><path d="M2027.86-659.5v233a6 6 0 0 0 6 6h129.26M2027.86-659.5v-.5" stroke="#3a414a" fill="none"/><path d="M2177.88-420.5l-14.26 4.63v-9.26z" stroke="#3a414a" fill="#3a414a"/><path d="M2297.6-222.28a6 6 0 0 1-6-6v-177.3a6 6 0 0 1 6-6h34.12a6 6 0 0 1 6 6v177.3a6 6 0 0 1-6 6z" stroke="#000" stroke-opacity="0" fill-opacity="0"/><use xlink:href="#j" transform="matrix(6.123233995736766e-17,-1,1,6.123233995736766e-17,2296.5913897354026,-227.28285847915095) translate(71.4814814814815 21.33333333333333)"/><use xlink:href="#k" transform="matrix(6.123233995736766e-17,-1,1,6.123233995736766e-17,2296.5913897354026,-227.28285847915095) translate(86.2962962962963 21.33333333333333)"/><use xlink:href="#l" transform="matrix(6.123233995736766e-17,-1,1,6.123233995736766e-17,2296.5913897354026,-227.28285847915095) translate(101.11111111111111 21.33333333333333)"/><path d="M2180-212.5a8 8 0 0 1 8-8h248.3a8 8 0 0 1 8 8v64a8 8 0 0 1-8 8H2188a8 8 0 0 1-8-8z" stroke="#3a414a" fill="#fff"/><use xlink:href="#g" transform="matrix(1,0,0,1,2192,-208.49995000000013) translate(36.796296296296305 31.77777777777778)"/><use xlink:href="#m" transform="matrix(1,0,0,1,2192,-208.49995000000013) translate(49.14197530864198 31.77777777777778)"/><path d="M2027.86-463.55v277.05a6 6 0 0 0 6 6h129.26M2027.86-463.54v-.5" stroke="#3a414a" fill="none"/><path d="M2177.88-180.5l-14.26 4.63v-9.26z" stroke="#3a414a" fill="#3a414a"/><path d="M2445.3-660h38.32" stroke="#3a414a" fill="none"/><path d="M2445.3-659.5h-.5v-1h.5z" stroke="#3a414a" stroke-width=".05" fill="#3a414a"/><path d="M2498.38-660l-14.26 4.63v-9.26z" stroke="#3a414a" fill="#3a414a"/><path d="M2540-716.88v-42.62" stroke="#3a414a" fill="none"/><path d="M2540-702.12l-4.64-14.26h9.28z" stroke="#3a414a" fill="#3a414a"/><path d="M2540-759.5v-.5" stroke="#3a414a" fill="none"/><path d="M2400-834a6 6 0 0 1 6-6h252.3a6 6 0 0 1 6 6v68a6 6 0 0 1-6 6H2406a6 6 0 0 1-6-6z" stroke="#000" stroke-opacity="0" fill="#fff" fill-opacity="0"/><use xlink:href="#n" transform="matrix(1,0,0,1,2405,-835) translate(39.41358024691357 26.52777777777778)"/><use xlink:href="#o" transform="matrix(1,0,0,1,2405,-835) translate(189.72222222222223 26.52777777777778)"/><use xlink:href="#p" transform="matrix(1,0,0,1,2405,-835) translate(59.1358024691358 53.19444444444445)"/><path d="M2580-420.5c0 22.1-17.9 40-40 40s-40-17.9-40-40 17.9-40 40-40 40 17.9 40 40z" stroke="#3a414a" fill-opacity="0"/><use xlink:href="#a" transform="matrix(1,0,0,1,2502,-458.4999500000001) translate(27.634629629629636 43.88888888888888)"/><path d="M2445.3-420.5h38.32M2445.3-420.5h-.5" stroke="#3a414a" fill="none"/><path d="M2498.38-420.5l-14.26 4.63v-9.26z" stroke="#3a414a" fill="#3a414a"/><path d="M2540-477.38V-520" stroke="#3a414a" fill="none"/><path d="M2540-462.62l-4.64-14.26h9.28z" stroke="#3a414a" fill="#3a414a"/><path d="M2540-520v-.5" stroke="#3a414a" fill="none"/><path d="M2407.86-594a6 6 0 0 1 6-6h252.28a6 6 0 0 1 6 6v68a6 6 0 0 1-6 6h-252.28a6 6 0 0 1-6-6z" stroke="#000" stroke-opacity="0" fill="#fff" fill-opacity="0"/><use xlink:href="#n" transform="matrix(1,0,0,1,2412.85636589517,-595) translate(39.41358024691357 26.52777777777778)"/><use xlink:href="#o" transform="matrix(1,0,0,1,2412.85636589517,-595) translate(189.72222222222223 26.52777777777778)"/><use xlink:href="#q" transform="matrix(1,0,0,1,2412.85636589517,-595) translate(59.1358024691358 53.19444444444445)"/><path d="M2580-180.5c0 22.1-17.9 40-40 40s-40-17.9-40-40 17.9-40 40-40 40 17.9 40 40z" stroke="#3a414a" fill-opacity="0"/><use xlink:href="#a" transform="matrix(1,0,0,1,2502,-218.49995000000013) translate(27.634629629629636 43.88888888888888)"/><path d="M2445.3-180.5h38.32M2445.3-180.5h-.5" stroke="#3a414a" fill="none"/><path d="M2498.38-180.5l-14.26 4.63v-9.26z" stroke="#3a414a" fill="#3a414a"/><path d="M2540-237.38V-280" stroke="#3a414a" fill="none"/><path d="M2540-222.62l-4.64-14.26h9.28z" stroke="#3a414a" fill="#3a414a"/><path d="M2540-280v-.5" stroke="#3a414a" fill="none"/><path d="M2407.86-354a6 6 0 0 1 6-6h252.28a6 6 0 0 1 6 6v68a6 6 0 0 1-6 6h-252.28a6 6 0 0 1-6-6z" stroke="#000" stroke-opacity="0" fill="#fff" fill-opacity="0"/><use xlink:href="#n" transform="matrix(1,0,0,1,2412.85636589517,-355) translate(39.41358024691357 26.52777777777778)"/><use xlink:href="#o" transform="matrix(1,0,0,1,2412.85636589517,-355) translate(189.72222222222223 26.52777777777778)"/><use xlink:href="#r" transform="matrix(1,0,0,1,2412.85636589517,-355) translate(57.31481481481481 53.19444444444445)"/><path d="M2960-420c0 44.18-35.82 80-80 80s-80-35.82-80-80 35.82-80 80-80 80 35.82 80 80z" stroke="#3a414a" fill-opacity="0"/><path d="M2581-420.5h202.13" stroke="#3a414a" fill="none"/><path d="M2581-420h-.53l.03-.5-.02-.5h.53z" stroke="#3a414a" stroke-width=".05" fill="#3a414a"/><path d="M2797.9-420.5l-14.27 4.63v-9.26z" stroke="#3a414a" fill="#3a414a"/><path d="M2581-660h293a6 6 0 0 1 6 6v137.12" stroke="#3a414a" fill="none"/><path d="M2581-659.5h-.53l.03-.5-.02-.5h.53z" stroke="#3a414a" stroke-width=".05" fill="#3a414a"/><path d="M2880-502.12l-4.64-14.26h9.28z" stroke="#3a414a" fill="#3a414a"/><path d="M2581-180.5h293a6 6 0 0 0 6-6v-136.62" stroke="#3a414a" fill="none"/><path d="M2581-180h-.53l.03-.5-.02-.5h.53z" stroke="#3a414a" stroke-width=".05" fill="#3a414a"/><path d="M2880-337.88l4.64 14.26h-9.28z" stroke="#3a414a" fill="#3a414a"/><path d="M2860-445.6h45.05v50.2H2860z" fill="#fff" fill-opacity="0"/><path d="M2901.8-418.3h-17.16v17.14h-4.33v-17.15h-17.15v-4.35h17.16v-17.15h4.34v17.15h17.16v4.34"/><path d="M2961-420h33.5a6 6 0 0 1 6 6v555.4a6 6 0 0 1-6 6h-121.9" stroke="#3a414a" fill="none"/><path d="M2961-419.5h-.5v-1h.5z" stroke="#3a414a" stroke-width=".05" fill="#3a414a"/><path d="M2857.83 147.4l14.27-4.63v9.27z" stroke="#3a414a" fill="#3a414a"/><path d="M2400-994a6 6 0 0 1 6-6h252.3a6 6 0 0 1 6 6v78a6 6 0 0 1-6 6H2406a6 6 0 0 1-6-6z" stroke="#000" stroke-opacity="0" fill="#fff" fill-opacity="0"/><use xlink:href="#s" transform="matrix(1,0,0,1,2405,-995) translate(25.185185185185176 20.27777777777778)"/><use xlink:href="#t" transform="matrix(1,0,0,1,2405,-995) translate(85.679012345679 20.27777777777778)"/><use xlink:href="#u" transform="matrix(1,0,0,1,2405,-995) translate(11.20370370370371 46.94444444444444)"/><use xlink:href="#v" transform="matrix(1,0,0,1,2405,-995) translate(83.98148148148148 46.94444444444444)"/><use xlink:href="#w" transform="matrix(1,0,0,1,2405,-995) translate(138.24074074074076 46.94444444444444)"/><use xlink:href="#x" transform="matrix(1,0,0,1,2405,-995) translate(169.10493827160496 46.94444444444444)"/><use xlink:href="#y" transform="matrix(1,0,0,1,2405,-995) translate(188.24074074074076 46.94444444444444)"/><use xlink:href="#z" transform="matrix(1,0,0,1,2405,-995) translate(206.75925925925924 46.94444444444444)"/><use xlink:href="#v" transform="matrix(1,0,0,1,2405,-995) translate(43.672839506172835 73.61111111111111)"/><use xlink:href="#A" transform="matrix(1,0,0,1,2405,-995) translate(97.9320987654321 73.61111111111111)"/><use xlink:href="#B" transform="matrix(1,0,0,1,2405,-995) translate(126.20370370370371 73.61111111111111)"/><use xlink:href="#C" transform="matrix(1,0,0,1,2405,-995) translate(174.29012345679013 73.61111111111111)"/><use xlink:href="#D" transform="matrix(1,0,0,1,2405,-995) translate(198.9814814814815 73.61111111111111)"/><path d="M2544-900a6 6 0 0 1 6 6v21a5 5 0 0 0 5 5 1.92 1.92 0 0 1 1.28 3.34L2544.46-854a6.67 6.67 0 0 1-8.92 0l-11.82-10.66A1.92 1.92 0 0 1 2525-868a5 5 0 0 0 5-5v-21a6 6 0 0 1 6-6z" stroke="#3a414a" fill="#fff"/><path d="M2855.7 147.4c0 22.1-17.9 40-40 40-22.08 0-40-17.9-40-40 0-22.08 17.92-40 40-40 22.1 0 40 17.92 40 40z" stroke="#3a414a" fill-opacity="0"/><use xlink:href="#a" transform="matrix(1,0,0,1,2777.712732,109.40865598227583) translate(27.634629629629636 43.88888888888888)"/><path d="M2607.8 147.4h166.9" stroke="#3a414a" fill="none"/><path d="M2593.04 147.4l14.27-4.63v9.27z" stroke="#3a414a" fill="#3a414a"/><path d="M2775.2 147.4l.03.5h-.53v-1h.54z" stroke="#3a414a" stroke-width=".05" fill="#3a414a"/><path d="M2845.2-8.3h-59v23.14h59zM2845.2 84.27h-59v23.14h59z" fill="none"/><path d="M2815.7 26.4V-8.3zm0 57.87v23.14zm29.5-57.86l-29.5 46.3-29.5-46.3zm-29.5 57.87c-2.35 0-4.7-2.32-4.7-5.8 0-3.46 2.35-5.78 4.7-5.78 2.37 0 4.73 2.3 4.73 5.78 0 3.47-2.36 5.8-4.72 5.8" stroke="#3a414a" fill="#fff"/><path d="M2335.7 133.4a6 6 0 0 1 6-6h88a6 6 0 0 1 6 6v28a6 6 0 0 1-6 6h-88a6 6 0 0 1-6-6z" stroke="#000" stroke-opacity="0" fill-opacity="0"/><use xlink:href="#j" transform="matrix(-1,1.2246467991473532e-16,-1.2246467991473532e-16,-1,2430.712732,162.40865598227583) translate(26.48148148148149 21.33333333333333)"/><use xlink:href="#k" transform="matrix(-1,1.2246467991473532e-16,-1.2246467991473532e-16,-1,2430.712732,162.40865598227583) translate(41.2962962962963 21.33333333333333)"/><use xlink:href="#l" transform="matrix(-1,1.2246467991473532e-16,-1.2246467991473532e-16,-1,2430.712732,162.40865598227583) translate(56.11111111111111 21.33333333333333)"/><path d="M2590.93 147.4c0 22.1-17.9 40-40 40s-40-17.9-40-40c0-22.08 17.9-40 40-40s40 17.92 40 40z" stroke="#3a414a" fill-opacity="0"/><use xlink:href="#a" transform="matrix(1,0,0,1,2512.925513999999,109.40865598227583) translate(27.634629629629636 43.88888888888888)"/><path d="M2472.1 147.4h38.33" stroke="#3a414a" fill="none"/><path d="M2457.33 147.4l14.27-4.63v9.27z" stroke="#3a414a" fill="#3a414a"/><path d="M2510.4 147.4h.53" stroke="#3a414a" fill="none"/><path d="M2580.43-7.3h-59v23.14h59zM2580.43 85.27h-59v23.14h59z" fill="none"/><path d="M2550.93 27.4V-7.3zm0 57.87v23.14zm29.5-57.86l-29.5 46.3-29.5-46.3zm-29.5 57.87c-2.36 0-4.72-2.32-4.72-5.8 0-3.46 2.37-5.78 4.73-5.78 2.36 0 4.72 2.3 4.72 5.78 0 3.47-2.36 5.8-4.72 5.8" stroke="#3a414a" fill="#fff"/><path d="M2292.6 147.4h42.6" stroke="#3a414a" fill="none"/><path d="M2277.83 147.4l14.27-4.63v9.27z" stroke="#3a414a" fill="#3a414a"/><path d="M2335.2 147.4h.5" stroke="#3a414a" fill="none"/><path d="M2275.7 147.4c0 22.1-17.9 40-40 40-22.08 0-40-17.9-40-40 0-22.08 17.92-40 40-40 22.1 0 40 17.92 40 40z" stroke="#3a414a" fill-opacity="0"/><use xlink:href="#a" transform="matrix(1,0,0,1,2197.712732,109.40865598227583) translate(27.634629629629636 43.88888888888888)"/><path d="M2170.42 417.7H2026a6 6 0 0 1-6-6V153.4a6 6 0 0 1 6-6h168.7" stroke="#3a414a" fill="none"/><path d="M2185.2 417.7l-14.28 4.65v-9.27z" stroke="#3a414a" fill="#3a414a"/><path d="M2195.2 147.4l.03.5h-.53v-1h.54z" stroke="#3a414a" stroke-width=".05" fill="#3a414a"/><path d="M2265.2-7.3h-59v23.14h59zM2265.2 85.27h-59v23.14h59z" fill="none"/><path d="M2235.7 27.4V-7.3zm0 57.87v23.14zm29.5-57.86l-29.5 46.3-29.5-46.3zm-29.5 57.87c-2.35 0-4.7-2.32-4.7-5.8 0-3.46 2.35-5.78 4.7-5.78 2.37 0 4.73 2.3 4.73 5.78 0 3.47-2.36 5.8-4.72 5.8" stroke="#3a414a" fill="#fff"/><path d="M2740.5-81.3a6 6 0 0 1 6-6h135.36a6 6 0 0 1 6 6v68a6 6 0 0 1-6 6H2746.5a6 6 0 0 1-6-6z" stroke="#000" stroke-opacity="0" fill="#fff" fill-opacity="0"/><use xlink:href="#E" transform="matrix(1,0,0,1,2745.4999500000004,-82.30412152574183) translate(-6.802469135802468 26.111111111111114)"/><use xlink:href="#F" transform="matrix(1,0,0,1,2745.4999500000004,-82.30412152574183) translate(33.29012345679013 52.77777777777778)"/><use xlink:href="#G" transform="matrix(1,0,0,1,2745.4999500000004,-82.30412152574183) translate(59.15432098765432 52.77777777777778)"/><use xlink:href="#H" transform="matrix(1,0,0,1,2745.4999500000004,-82.30412152574183) translate(85.01851851851852 52.77777777777778)"/><path d="M2477.25-82.3a6 6 0 0 1 6-6h135.35a6 6 0 0 1 6 6v68a6 6 0 0 1-6 6h-135.35a6 6 0 0 1-6-6z" stroke="#000" stroke-opacity="0" fill="#fff" fill-opacity="0"/><use xlink:href="#I" transform="matrix(1,0,0,1,2482.247305947584,-83.30407580806377) translate(-6.802469135802468 26.111111111111114)"/><use xlink:href="#F" transform="matrix(1,0,0,1,2482.247305947584,-83.30407580806377) translate(33.29012345679013 52.77777777777778)"/><use xlink:href="#G" transform="matrix(1,0,0,1,2482.247305947584,-83.30407580806377) translate(59.15432098765432 52.77777777777778)"/><use xlink:href="#H" transform="matrix(1,0,0,1,2482.247305947584,-83.30407580806377) translate(85.01851851851852 52.77777777777778)"/><path d="M2162.03-81.3a6 6 0 0 1 6-6h135.36a6 6 0 0 1 6 6v68a6 6 0 0 1-6 6h-135.37a6 6 0 0 1-6-6z" stroke="#000" stroke-opacity="0" fill="#fff" fill-opacity="0"/><use xlink:href="#J" transform="matrix(1,0,0,1,2167.0345239475846,-82.30412152574183) translate(-8.037037037037038 26.111111111111114)"/><use xlink:href="#F" transform="matrix(1,0,0,1,2167.0345239475846,-82.30412152574183) translate(33.29012345679013 52.77777777777778)"/><use xlink:href="#G" transform="matrix(1,0,0,1,2167.0345239475846,-82.30412152574183) translate(59.15432098765432 52.77777777777778)"/><use xlink:href="#H" transform="matrix(1,0,0,1,2167.0345239475846,-82.30412152574183) translate(85.01851851851852 52.77777777777778)"/><path d="M2847.3 417.7c0 22.1-17.9 40-40 40s-40-17.9-40-40c0-22.08 17.9-40 40-40s40 17.92 40 40z" stroke="#3a414a" fill-opacity="0"/><use xlink:href="#a" transform="matrix(1,0,0,1,2769.3041217354025,379.7126403549835) translate(27.634629629629636 43.88888888888888)"/><path d="M2661 417.7h89.42M2661 417.7h-.5" stroke="#3a414a" fill="none"/><path d="M2765.2 417.7l-14.28 4.65v-9.27z" stroke="#3a414a" fill="#3a414a"/><path d="M2560.5 403.7a6 6 0 0 1 6-6h88a6 6 0 0 1 6 6v28a6 6 0 0 1-6 6h-88a6 6 0 0 1-6-6z" stroke="#000" stroke-opacity="0" fill-opacity="0"/><use xlink:href="#j" transform="matrix(-1,1.2246467991473532e-16,-1.2246467991473532e-16,-1,2655.499950000001,432.7126403549835) translate(26.48148148148149 21.33333333333333)"/><use xlink:href="#k" transform="matrix(-1,1.2246467991473532e-16,-1.2246467991473532e-16,-1,2655.499950000001,432.7126403549835) translate(41.2962962962963 21.33333333333333)"/><use xlink:href="#l" transform="matrix(-1,1.2246467991473532e-16,-1.2246467991473532e-16,-1,2655.499950000001,432.7126403549835) translate(56.11111111111111 21.33333333333333)"/><path d="M2495.7 417.7c0 22.1-17.9 40-40 40-22.08 0-40-17.9-40-40 0-22.08 17.92-40 40-40 22.1 0 40 17.92 40 40z" stroke="#3a414a" fill-opacity="0"/><use xlink:href="#a" transform="matrix(1,0,0,1,2417.712732,379.7126403549835) translate(27.634629629629636 43.88888888888888)"/><path d="M2268.3 417.7h130.53" stroke="#3a414a" fill="none"/><path d="M2268.32 418.2h-.55l.03-.48v-.5h.52z" stroke="#3a414a" stroke-width=".05" fill="#3a414a"/><path d="M2413.6 417.7l-14.27 4.65v-9.27z" stroke="#3a414a" fill="#3a414a"/><path d="M2267.3 417.7c0 22.1-17.9 40-40 40s-40-17.9-40-40c0-22.08 17.9-40 40-40s40 17.92 40 40z" stroke="#3a414a" fill-opacity="0"/><use xlink:href="#a" transform="matrix(1,0,0,1,2189.3041217354025,379.7126403549835) translate(27.634629629629636 43.88888888888888)"/><path d="M2141.02 258.6a6 6 0 0 1 6-6h177.4a6 6 0 0 1 6 6v68a6 6 0 0 1-6 6H2147a6 6 0 0 1-6-6z" stroke="#000" stroke-opacity="0" fill="#fff" fill-opacity="0"/><use xlink:href="#K" transform="matrix(1,0,0,1,2146.017261973793,257.59134401772417) translate(3.7037037037036953 39.65277777777778)"/><use xlink:href="#L" transform="matrix(1,0,0,1,2146.017261973793,257.59134401772417) translate(22.222222222222214 39.65277777777778)"/><use xlink:href="#M" transform="matrix(1,0,0,1,2146.017261973793,257.59134401772417) translate(35.74074074074073 39.65277777777778)"/><path d="M2455.7 322.06V361.32M2455.7 322.07v-.5" stroke="#3a414a" fill="none"/><path d="M2455.7 376.1l-4.62-14.27h9.27z" stroke="#3a414a" fill="#3a414a"/><path d="M2807.3 322.06V361.32M2807.3 322.07v-.5" stroke="#3a414a" fill="none"/><path d="M2807.3 376.1l-4.63-14.27h9.27z" stroke="#3a414a" fill="#3a414a"/><path d="M2848.3 417.7h33.5a6 6 0 0 1 6 6v92.9a6 6 0 0 1-6 6h-847.94a6 6 0 0 0-6 6v154.74a6 6 0 0 0 6 6h144.2" stroke="#3a414a" fill="none"/><path d="M2848.32 418.2h-.55l.03-.48v-.5h.52z" stroke="#3a414a" stroke-width=".05" fill="#3a414a"/><path d="M2192.84 689.34l-14.27 4.64v-9.27z" stroke="#3a414a" fill="#3a414a"/><path d="M2905.05 443.7a6 6 0 0 1 6-6h188a6 6 0 0 1 6 6v72.13a6 6 0 0 1-6 6h-188a6 6 0 0 1-6-6z" stroke="#000" stroke-opacity="0" fill="#fff" fill-opacity="0"/><g><use xlink:href="#N" transform="matrix(1,0,0,1,2910.0491068633105,442.71264035498353) translate(6.234567901234556 29.49652777777778)"/><use xlink:href="#O" transform="matrix(1,0,0,1,2910.0491068633105,442.71264035498353) translate(91.23456790123456 29.49652777777778)"/><use xlink:href="#P" transform="matrix(1,0,0,1,2910.0491068633105,442.71264035498353) translate(4.382716049382736 56.16319444444445)"/><use xlink:href="#Q" transform="matrix(1,0,0,1,2910.0491068633105,442.71264035498353) translate(27.777777777777796 56.16319444444445)"/><use xlink:href="#R" transform="matrix(1,0,0,1,2910.0491068633105,442.71264035498353) translate(68.45679012345681 56.16319444444445)"/><use xlink:href="#S" transform="matrix(1,0,0,1,2910.0491068633105,442.71264035498353) translate(143.64197530864197 56.16319444444445)"/></g><path d="M2496.7 417.7h47.42" stroke="#3a414a" fill="none"/><path d="M2496.73 418.2h-.55l.03-.48v-.5h.53z" stroke="#3a414a" stroke-width=".05" fill="#3a414a"/><path d="M2558.88 417.7l-14.26 4.65v-9.27z" stroke="#3a414a" fill="#3a414a"/><path d="M2227.3 360.83V313.1" stroke="#3a414a" fill="none"/><path d="M2227.3 375.6l-4.63-14.27h9.27z" stroke="#3a414a" fill="#3a414a"/><path d="M2227.3 313.1v-.5" stroke="#3a414a" fill="none"/><path d="M2360 258.6a6 6 0 0 1 6-6h177.4a6 6 0 0 1 6 6v68a6 6 0 0 1-6 6H2366a6 6 0 0 1-6-6z" stroke="#000" stroke-opacity="0" fill="#fff" fill-opacity="0"/><g><use xlink:href="#K" transform="matrix(1,0,0,1,2365,257.59134401772417) translate(3.7037037037036953 39.65277777777778)"/><use xlink:href="#L" transform="matrix(1,0,0,1,2365,257.59134401772417) translate(22.222222222222214 39.65277777777778)"/><use xlink:href="#T" transform="matrix(1,0,0,1,2365,257.59134401772417) translate(35.74074074074073 39.65277777777778)"/></g><path d="M2719.48 258.6a6 6 0 0 1 6-6h177.4a6 6 0 0 1 6 6v68a6 6 0 0 1-6 6h-177.4a6 6 0 0 1-6-6z" stroke="#000" stroke-opacity="0" fill="#fff" fill-opacity="0"/><g><use xlink:href="#K" transform="matrix(1,0,0,1,2724.482688026208,257.59134401772417) translate(0.6481481481481381 39.65277777777778)"/><use xlink:href="#L" transform="matrix(1,0,0,1,2724.482688026208,257.59134401772417) translate(19.166666666666657 39.65277777777778)"/><use xlink:href="#U" transform="matrix(1,0,0,1,2724.482688026208,257.59134401772417) translate(32.685185185185176 39.65277777777778)"/></g><path d="M2274.96 689.34c0 22.1-17.9 40-40 40s-40-17.9-40-40 17.9-40 40-40 40 17.9 40 40z" stroke="#3a414a" fill-opacity="0"/><g><use xlink:href="#V" transform="matrix(1,0,0,1,2196.957051311994,651.3423240606801) translate(27.634629629629636 43.88888888888888)"/></g><path d="M2234.96 593.68v39.28M2234.96 593.7v-.52" stroke="#3a414a" fill="none"/><path d="M2234.96 647.72l-4.64-14.26h9.27z" stroke="#3a414a" fill="#3a414a"/><path d="M2275.96 689.34h337.6" stroke="#3a414a" fill="none"/><path d="M2275.97 689.84h-.54l.03-.5-.02-.5h.53z" stroke="#3a414a" stroke-width=".05" fill="#3a414a"/><path d="M2628.32 689.34l-14.27 4.64v-9.27z" stroke="#3a414a" fill="#3a414a"/><path d="M2191.94 560.5a6 6 0 0 1 6-6h72.8a6 6 0 0 1 6 6v37.72a6 6 0 0 1-6 6h-72.8a6 6 0 0 1-6-6z" stroke="#000" stroke-opacity="0" fill="#fff" fill-opacity="0"/><g><use xlink:href="#W" transform="matrix(1,0,0,1,2196.9401432942714,559.5023015012625) translate(10.370370370370374 25.27777777777778)"/></g><path d="M2719.74 689.34c0 24.43-19.96 44.23-44.58 44.23-24.62 0-44.6-19.8-44.6-44.23 0-24.42 19.98-44.22 44.6-44.22s44.6 19.8 44.6 44.22z" stroke="#3a414a" fill-opacity="0"/><path d="M2664 676.9h25.12v27.97h-25.1z" fill="#fff" fill-opacity="0"/><path d="M2687.3 692.1h-9.55v9.56h-2.42v-9.56h-9.56v-2.4h9.56v-9.57h2.42v9.56h9.56v2.4"/><path d="M2422.76 826.43c0 22.1-17.9 40-40 40s-40-17.9-40-40 17.9-40 40-40 40 17.9 40 40z" stroke="#3a414a" fill-opacity="0"/><g><use xlink:href="#V" transform="matrix(1,0,0,1,2344.76148490724,788.4309013941094) translate(27.634629629629636 43.88888888888888)"/></g><path d="M2280.24 826.34h30.72a.04.04 0 0 1 .04.05.04.04 0 0 0 .05.03h14.83M2280.26 826.34h-.52" stroke="#3a414a" fill="none"/><path d="M2340.64 826.43l-14.26 4.64v-9.27z" stroke="#3a414a" fill="#3a414a"/><path d="M2423.76 826.43h245.4a6 6 0 0 0 6-6v-69.98" stroke="#3a414a" fill="none"/><path d="M2423.78 826.93h-.55l.03-.5-.02-.5h.54z" stroke="#3a414a" stroke-width=".05" fill="#3a414a"/><path d="M2675.16 735.68l4.64 14.27h-9.28z" stroke="#3a414a" fill="#3a414a"/><path d="M2159.74 809.07a6 6 0 0 1 6-6h102.55a6 6 0 0 1 6 6v34.72a6 6 0 0 1-6 6h-102.56a6 6 0 0 1-6-6z" stroke="#000" stroke-opacity="0" fill="#fff" fill-opacity="0"/><g><use xlink:href="#X" transform="matrix(1,0,0,1,2164.7445768895172,808.0706222124156) translate(2.0061728395061778 22.40277777777778)"/><use xlink:href="#L" transform="matrix(1,0,0,1,2164.7445768895172,808.0706222124156) translate(27.870370370370374 22.40277777777778)"/><use xlink:href="#Y" transform="matrix(1,0,0,1,2164.7445768895172,808.0706222124156) translate(41.38888888888889 22.40277777777778)"/></g><path d="M2499.24 939.62h-110.48a6 6 0 0 1-6-6v-50.3M2499.23 939.62h.5" stroke="#3a414a" fill="none"/><path d="M2382.76 868.55l4.64 14.27h-9.27z" stroke="#3a414a" fill="#3a414a"/><path d="M2499.74 892.3a6 6 0 0 1 6-6h177.4a6 6 0 0 1 6 6v104.66a6 6 0 0 1-6 6h-177.4a6 6 0 0 1-6-6z" stroke="#000" stroke-opacity="0" fill="#fff" fill-opacity="0"/><g><use xlink:href="#Z" transform="matrix(1,0,0,1,2504.744576889517,891.2902645051885) translate(9.259259259259267 44.52777777777778)"/><use xlink:href="#aa" transform="matrix(1,0,0,1,2504.744576889517,891.2902645051885) translate(99.25925925925927 44.52777777777778)"/><use xlink:href="#ab" transform="matrix(1,0,0,1,2504.744576889517,891.2902645051885) translate(3.055555555555557 71.19444444444446)"/><use xlink:href="#ac" transform="matrix(1,0,0,1,2504.744576889517,891.2902645051885) translate(101.75925925925927 71.19444444444446)"/></g><path d="M2720.74 689.34h142.62" stroke="#3a414a" fill="none"/><path d="M2720.76 689.84h-.54l.03-.48v-.07l-.03-.46h.54z" stroke="#3a414a" stroke-width=".05" fill="#3a414a"/><path d="M2878.13 689.34l-14.27 4.64v-9.27z" stroke="#3a414a" fill="#3a414a"/><path d="M2905.05 637a6 6 0 0 1 6-6h177.4a6 6 0 0 1 6 6V741.7a6 6 0 0 1-6 6h-177.4a6 6 0 0 1-6-6z" stroke="#000" stroke-opacity="0" fill="#fff" fill-opacity="0"/><g><use xlink:href="#ad" transform="matrix(1,0,0,1,2910.049106863311,636.0089907273467) translate(12.28395061728395 31.15277777777778)"/><use xlink:href="#ae" transform="matrix(1,0,0,1,2910.049106863311,636.0089907273467) translate(98.70370370370371 31.15277777777778)"/><use xlink:href="#af" transform="matrix(1,0,0,1,2910.049106863311,636.0089907273467) translate(4.907407407407405 57.81944444444445)"/><use xlink:href="#ag" transform="matrix(1,0,0,1,2910.049106863311,636.0089907273467) translate(82.56172839506172 57.81944444444445)"/><use xlink:href="#ac" transform="matrix(1,0,0,1,2910.049106863311,636.0089907273467) translate(52.40740740740741 84.48611111111111)"/></g><defs><path fill="#3a414a" d="M195 0l-74-108L45 0H8l94-129-87-119h37l69 98 67-98h37l-84 118L233 0h-38" id="ah"/><use transform="matrix(0.0864197530864197,0,0,0.0864197530864197,0,0)" xlink:href="#ah" id="a"/><path fill="#3a414a" d="M66-151c12-25 30-51 66-40l-6 26C45-176 58-65 38 0H6l36-190h30" id="ai"/><path fill="#3a414a" d="M111-194c62-3 86 47 72 106H45c-7 38 6 69 45 68 27-1 43-14 53-32l24 11C152-15 129 4 87 4 38 3 12-23 12-71c0-70 32-119 99-123zm44 81c14-66-71-72-95-28-4 8-8 17-11 28h106" id="aj"/><path fill="#3a414a" d="M55-144c13 50 104 24 104 88C159 21 15 23 1-39l26-10c6 40 102 42 102-4-13-50-104-23-104-87 0-71 143-71 148-8l-29 4c-5-35-85-37-89 0" id="ak"/><path fill="#3a414a" d="M67-162c32-53 139-36 121 50C175-51 163 2 97 4 68 4 52-11 42-31 38 6 28 39 22 75H-9l50-265h29c-1 10 0 20-3 28zm89 36c0-26-10-43-35-43-54 0-67 50-69 103-1 29 14 45 42 46 53 0 62-58 62-106" id="al"/><path fill="#3a414a" d="M30-147c31-64 166-65 159 27C183-49 158 1 86 4 9 8 1-88 30-147zM88-20c53 0 68-48 68-100 0-31-11-51-44-50-52 1-68 46-68 97 0 32 13 53 44 53" id="am"/><path fill="#3a414a" d="M67-158c22-48 132-52 116 29L158 0h-32l25-140c3-38-53-32-70-12C52-117 51-52 38 0H6l36-190h30" id="an"/><g id="b"><use transform="matrix(0.06172839506172839,0,0,0.06172839506172839,0,0)" xlink:href="#ai"/><use transform="matrix(0.06172839506172839,0,0,0.06172839506172839,7.345679012345679,0)" xlink:href="#aj"/><use transform="matrix(0.06172839506172839,0,0,0.06172839506172839,19.691358024691358,0)" xlink:href="#ak"/><use transform="matrix(0.06172839506172839,0,0,0.06172839506172839,30.80246913580247,0)" xlink:href="#al"/><use transform="matrix(0.06172839506172839,0,0,0.06172839506172839,43.148148148148145,0)" xlink:href="#am"/><use transform="matrix(0.06172839506172839,0,0,0.06172839506172839,55.49382716049382,0)" xlink:href="#an"/><use transform="matrix(0.06172839506172839,0,0,0.06172839506172839,67.8395061728395,0)" xlink:href="#ak"/><use transform="matrix(0.06172839506172839,0,0,0.06172839506172839,78.95061728395062,0)" xlink:href="#aj"/></g><path fill="#3a414a" d="M76-167L44 0H12l33-167H18l4-23h27c3-47 25-81 82-69l-4 24c-35-8-44 15-46 45h37l-5 23H76" id="ao"/><path fill="#3a414a" d="M248-111c6-24 9-61-24-58-72 9-57 108-77 169h-31l26-142c3-37-50-30-64-10C52-115 50-51 37 0H6l36-190h30c-1 10-6 24-4 32 13-43 101-52 105 5 13-22 29-41 61-41 90 0 28 129 23 194h-31" id="ap"/><g id="c"><use transform="matrix(0.06172839506172839,0,0,0.06172839506172839,0,0)" xlink:href="#ao"/><use transform="matrix(0.06172839506172839,0,0,0.06172839506172839,6.172839506172839,0)" xlink:href="#ai"/><use transform="matrix(0.06172839506172839,0,0,0.06172839506172839,13.518518518518519,0)" xlink:href="#am"/><use transform="matrix(0.06172839506172839,0,0,0.06172839506172839,25.864197530864196,0)" xlink:href="#ap"/></g><path fill="#3a414a" d="M165-48c-4 18 1 34 23 27l-3 20c-29 8-62 0-52-35h-2C116-14 99 4 63 4 30 4 8-16 8-49c0-68 71-67 138-67 10-26 0-56-31-54-26 1-42 9-47 31l-32-5c8-67 160-71 144 15-5 28-9 54-15 81zM42-50c3 52 80 24 89-6 7-12 7-24 11-38-47 1-103-4-100 44" id="aq"/><use transform="matrix(0.06172839506172839,0,0,0.06172839506172839,0,0)" xlink:href="#aq" id="d"/><path fill="#3a414a" d="M67 3c-93-2-31-127-26-193h32L48-50c-3 39 53 32 70 12 30-34 30-101 43-152h32L157 0h-30c1-10 6-24 4-33-14 20-29 37-64 36" id="ar"/><path fill="#3a414a" d="M68-162c25-46 127-43 121 31C183-60 169 1 98 4 69 5 53-11 43-31L36 0H5l52-261h31zm88 36c2-27-9-43-34-43-55 0-70 51-70 103 0 29 15 45 43 46 52 0 58-58 61-106" id="as"/><path fill="#3a414a" d="M51-54c-9 22 5 41 31 30L79-1C43 14 10-4 19-52l22-115H19l5-23h22l19-43h21l-9 43h35l-4 23H73" id="at"/><g id="e"><use transform="matrix(0.06172839506172839,0,0,0.06172839506172839,0,0)" xlink:href="#ak"/><use transform="matrix(0.06172839506172839,0,0,0.06172839506172839,11.11111111111111,0)" xlink:href="#ar"/><use transform="matrix(0.06172839506172839,0,0,0.06172839506172839,23.45679012345679,0)" xlink:href="#as"/><use transform="matrix(0.06172839506172839,0,0,0.06172839506172839,35.80246913580247,0)" xlink:href="#an"/><use transform="matrix(0.06172839506172839,0,0,0.06172839506172839,48.148148148148145,0)" xlink:href="#aj"/><use transform="matrix(0.06172839506172839,0,0,0.06172839506172839,60.49382716049382,0)" xlink:href="#at"/></g><path fill="#3a414a" d="M50-231l6-30h32l-6 30H50zM6 0l37-190h31L37 0H6" id="au"/><g id="f"><use transform="matrix(0.06172839506172839,0,0,0.06172839506172839,0,0)" xlink:href="#ap"/><use transform="matrix(0.06172839506172839,0,0,0.06172839506172839,18.456790123456788,0)" xlink:href="#au"/><use transform="matrix(0.06172839506172839,0,0,0.06172839506172839,23.33333333333333,0)" xlink:href="#an"/><use transform="matrix(0.06172839506172839,0,0,0.06172839506172839,35.679012345679006,0)" xlink:href="#aj"/><use transform="matrix(0.06172839506172839,0,0,0.06172839506172839,48.02469135802468,0)" xlink:href="#ai"/></g><use transform="matrix(0.06172839506172839,0,0,0.06172839506172839,0,0)" xlink:href="#ao" id="g"/><path fill="#3a414a" d="M17-49c1-102 45-165 103-212h30C92-210 49-145 49-46 49 4 63 43 85 75H54C30 43 18 2 17-49" id="av"/><path fill="#3a414a" d="M188 0h-37l-8-164L71 0H34L18-190h31l8 164 75-164h34l8 164 74-164h31" id="aw"/><path fill="#3a414a" d="M133-28C103 26-5 8 13-77c13-62 24-115 90-117 29-1 46 15 56 35l19-102h32L160 0h-30zM45-64c-2 27 10 43 35 43 54-1 69-50 69-103 0-29-15-46-42-46-53-1-58 58-62 106" id="ax"/><path fill="#3a414a" d="M18-82l6-28h88l-6 28H18" id="ay"/><path fill="#3a414a" d="M44-68c0 29 11 47 38 47 30 0 42-19 51-41l28 9C148-21 126 4 82 4 31 4 10-29 12-85c3-77 74-140 146-93 12 8 15 23 18 40l-31 5c-1-22-13-36-36-36-52 0-65 49-65 101" id="az"/><path fill="#3a414a" d="M9 0l6-27h63l36-188-63 39 6-31 66-41h29L110-27h60l-5 27H9" id="aA"/><path fill="#3a414a" d="M98-137C97-35 54 29-4 75h-31C23 23 67-41 67-140c0-50-15-89-37-121h31c24 32 36 73 37 124" id="aB"/><g id="h"><use transform="matrix(0.06172839506172839,0,0,0.06172839506172839,0,0)" xlink:href="#av"/><use transform="matrix(0.06172839506172839,0,0,0.06172839506172839,7.345679012345679,0)" xlink:href="#ai"/><use transform="matrix(0.06172839506172839,0,0,0.06172839506172839,14.691358024691358,0)" xlink:href="#aj"/><use transform="matrix(0.06172839506172839,0,0,0.06172839506172839,27.037037037037038,0)" xlink:href="#aw"/><use transform="matrix(0.06172839506172839,0,0,0.06172839506172839,43.02469135802469,0)" xlink:href="#aq"/><use transform="matrix(0.06172839506172839,0,0,0.06172839506172839,55.37037037037037,0)" xlink:href="#ai"/><use transform="matrix(0.06172839506172839,0,0,0.06172839506172839,62.716049382716044,0)" xlink:href="#ax"/><use transform="matrix(0.06172839506172839,0,0,0.06172839506172839,75.06172839506172,0)" xlink:href="#ay"/><use transform="matrix(0.06172839506172839,0,0,0.06172839506172839,82.4074074074074,0)" xlink:href="#ao"/><use transform="matrix(0.06172839506172839,0,0,0.06172839506172839,88.58024691358024,0)" xlink:href="#ar"/><use transform="matrix(0.06172839506172839,0,0,0.06172839506172839,100.92592592592592,0)" xlink:href="#an"/><use transform="matrix(0.06172839506172839,0,0,0.06172839506172839,113.27160493827161,0)" xlink:href="#az"/><use transform="matrix(0.06172839506172839,0,0,0.06172839506172839,124.38271604938272,0)" xlink:href="#ay"/><use transform="matrix(0.06172839506172839,0,0,0.06172839506172839,131.7283950617284,0)" xlink:href="#aA"/><use transform="matrix(0.06172839506172839,0,0,0.06172839506172839,144.07407407407408,0)" xlink:href="#aB"/></g><path fill="#3a414a" d="M123-251c66 0 92 69 53 113C138-94 73-75 39-27h128l-5 27H-2c17-92 123-93 159-163 14-28-1-64-36-62-29 2-46 17-54 41l-30-6c13-36 37-61 86-61" id="aC"/><g id="i"><use transform="matrix(0.06172839506172839,0,0,0.06172839506172839,0,0)" xlink:href="#av"/><use transform="matrix(0.06172839506172839,0,0,0.06172839506172839,7.345679012345679,0)" xlink:href="#ai"/><use transform="matrix(0.06172839506172839,0,0,0.06172839506172839,14.691358024691358,0)" xlink:href="#aj"/><use transform="matrix(0.06172839506172839,0,0,0.06172839506172839,27.037037037037038,0)" xlink:href="#aw"/><use transform="matrix(0.06172839506172839,0,0,0.06172839506172839,43.02469135802469,0)" xlink:href="#aq"/><use transform="matrix(0.06172839506172839,0,0,0.06172839506172839,55.37037037037037,0)" xlink:href="#ai"/><use transform="matrix(0.06172839506172839,0,0,0.06172839506172839,62.716049382716044,0)" xlink:href="#ax"/><use transform="matrix(0.06172839506172839,0,0,0.06172839506172839,75.06172839506172,0)" xlink:href="#ay"/><use transform="matrix(0.06172839506172839,0,0,0.06172839506172839,82.4074074074074,0)" xlink:href="#ao"/><use transform="matrix(0.06172839506172839,0,0,0.06172839506172839,88.58024691358024,0)" xlink:href="#ar"/><use transform="matrix(0.06172839506172839,0,0,0.06172839506172839,100.92592592592592,0)" xlink:href="#an"/><use transform="matrix(0.06172839506172839,0,0,0.06172839506172839,113.27160493827161,0)" xlink:href="#az"/><use transform="matrix(0.06172839506172839,0,0,0.06172839506172839,124.38271604938272,0)" xlink:href="#ay"/><use transform="matrix(0.06172839506172839,0,0,0.06172839506172839,131.7283950617284,0)" xlink:href="#aC"/><use transform="matrix(0.06172839506172839,0,0,0.06172839506172839,144.07407407407408,0)" xlink:href="#aB"/></g><path fill="#3a414a" d="M24 0v-54h51V0H24" id="aD"/><use transform="matrix(0.07407407407407404,0,0,0.07407407407407404,0,0)" xlink:href="#aD" id="j"/><use transform="matrix(0.07407407407407404,0,0,0.07407407407407404,0,0)" xlink:href="#aD" id="k"/><use transform="matrix(0.07407407407407404,0,0,0.07407407407407404,0,0)" xlink:href="#aD" id="l"/><path fill="#3a414a" d="M173 0L80-213 41 0H11l48-248h37l94 214 40-214h30L212 0h-39" id="aE"/><g id="m"><use transform="matrix(0.06172839506172839,0,0,0.06172839506172839,0,0)" xlink:href="#av"/><use transform="matrix(0.06172839506172839,0,0,0.06172839506172839,7.345679012345679,0)" xlink:href="#ai"/><use transform="matrix(0.06172839506172839,0,0,0.06172839506172839,14.691358024691358,0)" xlink:href="#aj"/><use transform="matrix(0.06172839506172839,0,0,0.06172839506172839,27.037037037037038,0)" xlink:href="#aw"/><use transform="matrix(0.06172839506172839,0,0,0.06172839506172839,43.02469135802469,0)" xlink:href="#aq"/><use transform="matrix(0.06172839506172839,0,0,0.06172839506172839,55.37037037037037,0)" xlink:href="#ai"/><use transform="matrix(0.06172839506172839,0,0,0.06172839506172839,62.716049382716044,0)" xlink:href="#ax"/><use transform="matrix(0.06172839506172839,0,0,0.06172839506172839,75.06172839506172,0)" xlink:href="#ay"/><use transform="matrix(0.06172839506172839,0,0,0.06172839506172839,82.4074074074074,0)" xlink:href="#ao"/><use transform="matrix(0.06172839506172839,0,0,0.06172839506172839,88.58024691358024,0)" xlink:href="#ar"/><use transform="matrix(0.06172839506172839,0,0,0.06172839506172839,100.92592592592592,0)" xlink:href="#an"/><use transform="matrix(0.06172839506172839,0,0,0.06172839506172839,113.27160493827161,0)" xlink:href="#az"/><use transform="matrix(0.06172839506172839,0,0,0.06172839506172839,124.38271604938272,0)" xlink:href="#ay"/><use transform="matrix(0.06172839506172839,0,0,0.06172839506172839,131.7283950617284,0)" xlink:href="#aE"/><use transform="matrix(0.06172839506172839,0,0,0.06172839506172839,147.71604938271605,0)" xlink:href="#aB"/></g><path fill="#3a414a" d="M-28 44V31h207v13H-28" id="aF"/><path fill="#3a414a" d="M103-194c29 0 47 14 56 36 2-11 5-23 8-32h30L160-5C157 61 82 97 21 62 9 55 4 45 1 30l28-7c7 42 83 31 92-3 4-16 9-38 13-55-13 20-29 36-62 36-40 0-60-25-60-64 0-71 23-131 91-131zm4 24c-53 0-58 54-61 104-2 27 10 44 36 44 49 0 65-50 67-102 1-29-15-46-42-46" id="aG"/><path fill="#3a414a" d="M67-158c15-20 31-36 64-36 94 0 33 127 27 194h-32l25-140c3-38-53-32-70-12C52-117 51-51 37 0H6l51-261h31" id="aH"/><g id="n"><use transform="matrix(0.06172839506172839,0,0,0.06172839506172839,0,0)" xlink:href="#ai"/><use transform="matrix(0.06172839506172839,0,0,0.06172839506172839,7.345679012345679,0)" xlink:href="#aj"/><use transform="matrix(0.06172839506172839,0,0,0.06172839506172839,19.691358024691358,0)" xlink:href="#aw"/><use transform="matrix(0.06172839506172839,0,0,0.06172839506172839,35.67901234567901,0)" xlink:href="#aq"/><use transform="matrix(0.06172839506172839,0,0,0.06172839506172839,48.02469135802469,0)" xlink:href="#ai"/><use transform="matrix(0.06172839506172839,0,0,0.06172839506172839,55.37037037037037,0)" xlink:href="#ax"/><use transform="matrix(0.06172839506172839,0,0,0.06172839506172839,67.71604938271605,0)" xlink:href="#aF"/><use transform="matrix(0.06172839506172839,0,0,0.06172839506172839,80.06172839506173,0)" xlink:href="#aw"/><use transform="matrix(0.06172839506172839,0,0,0.06172839506172839,96.0493827160494,0)" xlink:href="#aj"/><use transform="matrix(0.06172839506172839,0,0,0.06172839506172839,108.39506172839508,0)" xlink:href="#au"/><use transform="matrix(0.06172839506172839,0,0,0.06172839506172839,113.27160493827162,0)" xlink:href="#aG"/><use transform="matrix(0.06172839506172839,0,0,0.06172839506172839,125.6172839506173,0)" xlink:href="#aH"/><use transform="matrix(0.06172839506172839,0,0,0.06172839506172839,137.962962962963,0)" xlink:href="#at"/></g><g id="o"><use transform="matrix(0.06172839506172839,0,0,0.06172839506172839,0,0)" xlink:href="#ao"/><use transform="matrix(0.06172839506172839,0,0,0.06172839506172839,6.172839506172839,0)" xlink:href="#am"/><use transform="matrix(0.06172839506172839,0,0,0.06172839506172839,18.51851851851852,0)" xlink:href="#ai"/></g><g id="p"><use transform="matrix(0.06172839506172839,0,0,0.06172839506172839,0,0)" xlink:href="#ai"/><use transform="matrix(0.06172839506172839,0,0,0.06172839506172839,7.345679012345679,0)" xlink:href="#aj"/><use transform="matrix(0.06172839506172839,0,0,0.06172839506172839,19.691358024691358,0)" xlink:href="#aw"/><use transform="matrix(0.06172839506172839,0,0,0.06172839506172839,35.67901234567901,0)" xlink:href="#aq"/><use transform="matrix(0.06172839506172839,0,0,0.06172839506172839,48.02469135802469,0)" xlink:href="#ai"/><use transform="matrix(0.06172839506172839,0,0,0.06172839506172839,55.37037037037037,0)" xlink:href="#ax"/><use transform="matrix(0.06172839506172839,0,0,0.06172839506172839,67.71604938271605,0)" xlink:href="#ay"/><use transform="matrix(0.06172839506172839,0,0,0.06172839506172839,75.06172839506173,0)" xlink:href="#ao"/><use transform="matrix(0.06172839506172839,0,0,0.06172839506172839,81.23456790123457,0)" xlink:href="#ar"/><use transform="matrix(0.06172839506172839,0,0,0.06172839506172839,93.58024691358025,0)" xlink:href="#an"/><use transform="matrix(0.06172839506172839,0,0,0.06172839506172839,105.92592592592594,0)" xlink:href="#az"/><use transform="matrix(0.06172839506172839,0,0,0.06172839506172839,117.03703703703705,0)" xlink:href="#ay"/><use transform="matrix(0.06172839506172839,0,0,0.06172839506172839,124.38271604938274,0)" xlink:href="#aA"/></g><g id="q"><use transform="matrix(0.06172839506172839,0,0,0.06172839506172839,0,0)" xlink:href="#ai"/><use transform="matrix(0.06172839506172839,0,0,0.06172839506172839,7.345679012345679,0)" xlink:href="#aj"/><use transform="matrix(0.06172839506172839,0,0,0.06172839506172839,19.691358024691358,0)" xlink:href="#aw"/><use transform="matrix(0.06172839506172839,0,0,0.06172839506172839,35.67901234567901,0)" xlink:href="#aq"/><use transform="matrix(0.06172839506172839,0,0,0.06172839506172839,48.02469135802469,0)" xlink:href="#ai"/><use transform="matrix(0.06172839506172839,0,0,0.06172839506172839,55.37037037037037,0)" xlink:href="#ax"/><use transform="matrix(0.06172839506172839,0,0,0.06172839506172839,67.71604938271605,0)" xlink:href="#ay"/><use transform="matrix(0.06172839506172839,0,0,0.06172839506172839,75.06172839506173,0)" xlink:href="#ao"/><use transform="matrix(0.06172839506172839,0,0,0.06172839506172839,81.23456790123457,0)" xlink:href="#ar"/><use transform="matrix(0.06172839506172839,0,0,0.06172839506172839,93.58024691358025,0)" xlink:href="#an"/><use transform="matrix(0.06172839506172839,0,0,0.06172839506172839,105.92592592592594,0)" xlink:href="#az"/><use transform="matrix(0.06172839506172839,0,0,0.06172839506172839,117.03703703703705,0)" xlink:href="#ay"/><use transform="matrix(0.06172839506172839,0,0,0.06172839506172839,124.38271604938274,0)" xlink:href="#aC"/></g><g id="r"><use transform="matrix(0.06172839506172839,0,0,0.06172839506172839,0,0)" xlink:href="#ai"/><use transform="matrix(0.06172839506172839,0,0,0.06172839506172839,7.345679012345679,0)" xlink:href="#aj"/><use transform="matrix(0.06172839506172839,0,0,0.06172839506172839,19.691358024691358,0)" xlink:href="#aw"/><use transform="matrix(0.06172839506172839,0,0,0.06172839506172839,35.67901234567901,0)" xlink:href="#aq"/><use transform="matrix(0.06172839506172839,0,0,0.06172839506172839,48.02469135802469,0)" xlink:href="#ai"/><use transform="matrix(0.06172839506172839,0,0,0.06172839506172839,55.37037037037037,0)" xlink:href="#ax"/><use transform="matrix(0.06172839506172839,0,0,0.06172839506172839,67.71604938271605,0)" xlink:href="#ay"/><use transform="matrix(0.06172839506172839,0,0,0.06172839506172839,75.06172839506173,0)" xlink:href="#ao"/><use transform="matrix(0.06172839506172839,0,0,0.06172839506172839,81.23456790123457,0)" xlink:href="#ar"/><use transform="matrix(0.06172839506172839,0,0,0.06172839506172839,93.58024691358025,0)" xlink:href="#an"/><use transform="matrix(0.06172839506172839,0,0,0.06172839506172839,105.92592592592594,0)" xlink:href="#az"/><use transform="matrix(0.06172839506172839,0,0,0.06172839506172839,117.03703703703705,0)" xlink:href="#ay"/><use transform="matrix(0.06172839506172839,0,0,0.06172839506172839,124.38271604938274,0)" xlink:href="#aE"/></g><g id="s"><use transform="matrix(0.06172839506172839,0,0,0.06172839506172839,0,0)" xlink:href="#at"/><use transform="matrix(0.06172839506172839,0,0,0.06172839506172839,6.172839506172839,0)" xlink:href="#aH"/><use transform="matrix(0.06172839506172839,0,0,0.06172839506172839,18.51851851851852,0)" xlink:href="#aj"/><use transform="matrix(0.06172839506172839,0,0,0.06172839506172839,30.864197530864196,0)" xlink:href="#ak"/><use transform="matrix(0.06172839506172839,0,0,0.06172839506172839,41.9753086419753,0)" xlink:href="#aj"/></g><g id="t"><use transform="matrix(0.06172839506172839,0,0,0.06172839506172839,0,0)" xlink:href="#ai"/><use transform="matrix(0.06172839506172839,0,0,0.06172839506172839,7.345679012345679,0)" xlink:href="#aj"/><use transform="matrix(0.06172839506172839,0,0,0.06172839506172839,19.691358024691358,0)" xlink:href="#aw"/><use transform="matrix(0.06172839506172839,0,0,0.06172839506172839,35.67901234567901,0)" xlink:href="#aq"/><use transform="matrix(0.06172839506172839,0,0,0.06172839506172839,48.02469135802469,0)" xlink:href="#ai"/><use transform="matrix(0.06172839506172839,0,0,0.06172839506172839,55.37037037037037,0)" xlink:href="#ax"/><use transform="matrix(0.06172839506172839,0,0,0.06172839506172839,67.71604938271605,0)" xlink:href="#aF"/><use transform="matrix(0.06172839506172839,0,0,0.06172839506172839,80.06172839506173,0)" xlink:href="#aw"/><use transform="matrix(0.06172839506172839,0,0,0.06172839506172839,96.0493827160494,0)" xlink:href="#aj"/><use transform="matrix(0.06172839506172839,0,0,0.06172839506172839,108.39506172839508,0)" xlink:href="#au"/><use transform="matrix(0.06172839506172839,0,0,0.06172839506172839,113.27160493827162,0)" xlink:href="#aG"/><use transform="matrix(0.06172839506172839,0,0,0.06172839506172839,125.6172839506173,0)" xlink:href="#aH"/><use transform="matrix(0.06172839506172839,0,0,0.06172839506172839,137.962962962963,0)" xlink:href="#at"/></g><g id="u"><use transform="matrix(0.06172839506172839,0,0,0.06172839506172839,0,0)" xlink:href="#ao"/><use transform="matrix(0.06172839506172839,0,0,0.06172839506172839,6.172839506172839,0)" xlink:href="#aq"/><use transform="matrix(0.06172839506172839,0,0,0.06172839506172839,18.51851851851852,0)" xlink:href="#az"/><use transform="matrix(0.06172839506172839,0,0,0.06172839506172839,29.62962962962963,0)" xlink:href="#at"/><use transform="matrix(0.06172839506172839,0,0,0.06172839506172839,35.80246913580247,0)" xlink:href="#am"/><use transform="matrix(0.06172839506172839,0,0,0.06172839506172839,48.148148148148145,0)" xlink:href="#ai"/><use transform="matrix(0.06172839506172839,0,0,0.06172839506172839,55.49382716049382,0)" xlink:href="#ak"/></g><g id="v"><use transform="matrix(0.06172839506172839,0,0,0.06172839506172839,0,0)" xlink:href="#ap"/><use transform="matrix(0.06172839506172839,0,0,0.06172839506172839,18.456790123456788,0)" xlink:href="#ar"/><use transform="matrix(0.06172839506172839,0,0,0.06172839506172839,30.80246913580247,0)" xlink:href="#ak"/><use transform="matrix(0.06172839506172839,0,0,0.06172839506172839,41.91358024691358,0)" xlink:href="#at"/></g><g id="w"><use transform="matrix(0.06172839506172839,0,0,0.06172839506172839,0,0)" xlink:href="#as"/><use transform="matrix(0.06172839506172839,0,0,0.06172839506172839,12.345679012345679,0)" xlink:href="#aj"/></g><path fill="#3a414a" d="M23-27v-27l151-64-151-65v-27l175 74v36" id="aI"/><use transform="matrix(0.06172839506172839,0,0,0.06172839506172839,0,0)" xlink:href="#aI" id="x"/><path fill="#3a414a" d="M16-82c0-90 25-169 113-169 48 0 68 33 68 82C197-79 170 4 84 4 37 4 16-31 16-82zm30 5c0 32 11 55 40 55 69 0 76-79 80-149 2-32-10-55-39-55-69 0-81 81-81 149" id="aJ"/><use transform="matrix(0.06172839506172839,0,0,0.06172839506172839,0,0)" xlink:href="#aJ" id="y"/><g id="z"><use transform="matrix(0.06172839506172839,0,0,0.06172839506172839,0,0)" xlink:href="#aq"/><use transform="matrix(0.06172839506172839,0,0,0.06172839506172839,12.345679012345679,0)" xlink:href="#an"/><use transform="matrix(0.06172839506172839,0,0,0.06172839506172839,24.691358024691358,0)" xlink:href="#ax"/></g><path fill="#3a414a" d="M6 0l50-261h32L37 0H6" id="aK"/><g id="A"><use transform="matrix(0.06172839506172839,0,0,0.06172839506172839,0,0)" xlink:href="#aq"/><use transform="matrix(0.06172839506172839,0,0,0.06172839506172839,12.345679012345679,0)" xlink:href="#aK"/><use transform="matrix(0.06172839506172839,0,0,0.06172839506172839,17.22222222222222,0)" xlink:href="#aK"/></g><g id="B"><use transform="matrix(0.06172839506172839,0,0,0.06172839506172839,0,0)" xlink:href="#ak"/><use transform="matrix(0.06172839506172839,0,0,0.06172839506172839,11.11111111111111,0)" xlink:href="#ar"/><use transform="matrix(0.06172839506172839,0,0,0.06172839506172839,23.45679012345679,0)" xlink:href="#ap"/></g><g id="C"><use transform="matrix(0.06172839506172839,0,0,0.06172839506172839,0,0)" xlink:href="#at"/><use transform="matrix(0.06172839506172839,0,0,0.06172839506172839,6.172839506172839,0)" xlink:href="#am"/></g><use transform="matrix(0.06172839506172839,0,0,0.06172839506172839,0,0)" xlink:href="#aA" id="D"/><path fill="#3a414a" d="M127 0L80-88 50-66 37 0H6l51-261h31L57-100l99-90h39l-93 82L161 0h-34" id="aL"/><g id="E"><use transform="matrix(0.06172839506172839,0,0,0.06172839506172839,0,0)" xlink:href="#ap"/><use transform="matrix(0.06172839506172839,0,0,0.06172839506172839,18.456790123456788,0)" xlink:href="#aq"/><use transform="matrix(0.06172839506172839,0,0,0.06172839506172839,30.80246913580247,0)" xlink:href="#ak"/><use transform="matrix(0.06172839506172839,0,0,0.06172839506172839,41.91358024691358,0)" xlink:href="#aL"/><use transform="matrix(0.06172839506172839,0,0,0.06172839506172839,53.0246913580247,0)" xlink:href="#au"/><use transform="matrix(0.06172839506172839,0,0,0.06172839506172839,57.90123456790124,0)" xlink:href="#an"/><use transform="matrix(0.06172839506172839,0,0,0.06172839506172839,70.24691358024693,0)" xlink:href="#aG"/><use transform="matrix(0.06172839506172839,0,0,0.06172839506172839,82.59259259259261,0)" xlink:href="#ay"/><use transform="matrix(0.06172839506172839,0,0,0.06172839506172839,89.9382716049383,0)" xlink:href="#ao"/><use transform="matrix(0.06172839506172839,0,0,0.06172839506172839,96.11111111111113,0)" xlink:href="#ar"/><use transform="matrix(0.06172839506172839,0,0,0.06172839506172839,108.45679012345681,0)" xlink:href="#an"/><use transform="matrix(0.06172839506172839,0,0,0.06172839506172839,120.8024691358025,0)" xlink:href="#az"/><use transform="matrix(0.06172839506172839,0,0,0.06172839506172839,131.9135802469136,0)" xlink:href="#ay"/><use transform="matrix(0.06172839506172839,0,0,0.06172839506172839,139.25925925925927,0)" xlink:href="#aA"/></g><g id="F"><use transform="matrix(0.06172839506172839,0,0,0.06172839506172839,0,0)" xlink:href="#av"/><use transform="matrix(0.06172839506172839,0,0,0.06172839506172839,7.345679012345679,0)" xlink:href="#aA"/></g><g id="G"><use transform="matrix(0.06172839506172839,0,0,0.06172839506172839,0,0)" xlink:href="#am"/><use transform="matrix(0.06172839506172839,0,0,0.06172839506172839,12.345679012345679,0)" xlink:href="#ai"/></g><g id="H"><use transform="matrix(0.06172839506172839,0,0,0.06172839506172839,0,0)" xlink:href="#aJ"/><use transform="matrix(0.06172839506172839,0,0,0.06172839506172839,12.345679012345679,0)" xlink:href="#aB"/></g><g id="I"><use transform="matrix(0.06172839506172839,0,0,0.06172839506172839,0,0)" xlink:href="#ap"/><use transform="matrix(0.06172839506172839,0,0,0.06172839506172839,18.456790123456788,0)" xlink:href="#aq"/><use transform="matrix(0.06172839506172839,0,0,0.06172839506172839,30.80246913580247,0)" xlink:href="#ak"/><use transform="matrix(0.06172839506172839,0,0,0.06172839506172839,41.91358024691358,0)" xlink:href="#aL"/><use transform="matrix(0.06172839506172839,0,0,0.06172839506172839,53.0246913580247,0)" xlink:href="#au"/><use transform="matrix(0.06172839506172839,0,0,0.06172839506172839,57.90123456790124,0)" xlink:href="#an"/><use transform="matrix(0.06172839506172839,0,0,0.06172839506172839,70.24691358024693,0)" xlink:href="#aG"/><use transform="matrix(0.06172839506172839,0,0,0.06172839506172839,82.59259259259261,0)" xlink:href="#ay"/><use transform="matrix(0.06172839506172839,0,0,0.06172839506172839,89.9382716049383,0)" xlink:href="#ao"/><use transform="matrix(0.06172839506172839,0,0,0.06172839506172839,96.11111111111113,0)" xlink:href="#ar"/><use transform="matrix(0.06172839506172839,0,0,0.06172839506172839,108.45679012345681,0)" xlink:href="#an"/><use transform="matrix(0.06172839506172839,0,0,0.06172839506172839,120.8024691358025,0)" xlink:href="#az"/><use transform="matrix(0.06172839506172839,0,0,0.06172839506172839,131.9135802469136,0)" xlink:href="#ay"/><use transform="matrix(0.06172839506172839,0,0,0.06172839506172839,139.25925925925927,0)" xlink:href="#aC"/></g><path fill="#3a414a" d="M180 0L97-118 63-96 45 0H11l48-248h34L69-126c44-43 94-81 141-122h43L121-137 219 0h-39" id="aM"/><g id="J"><use transform="matrix(0.06172839506172839,0,0,0.06172839506172839,0,0)" xlink:href="#ap"/><use transform="matrix(0.06172839506172839,0,0,0.06172839506172839,18.456790123456788,0)" xlink:href="#aq"/><use transform="matrix(0.06172839506172839,0,0,0.06172839506172839,30.80246913580247,0)" xlink:href="#ak"/><use transform="matrix(0.06172839506172839,0,0,0.06172839506172839,41.91358024691358,0)" xlink:href="#aL"/><use transform="matrix(0.06172839506172839,0,0,0.06172839506172839,53.0246913580247,0)" xlink:href="#au"/><use transform="matrix(0.06172839506172839,0,0,0.06172839506172839,57.90123456790124,0)" xlink:href="#an"/><use transform="matrix(0.06172839506172839,0,0,0.06172839506172839,70.24691358024693,0)" xlink:href="#aG"/><use transform="matrix(0.06172839506172839,0,0,0.06172839506172839,82.59259259259261,0)" xlink:href="#ay"/><use transform="matrix(0.06172839506172839,0,0,0.06172839506172839,89.9382716049383,0)" xlink:href="#ao"/><use transform="matrix(0.06172839506172839,0,0,0.06172839506172839,96.11111111111113,0)" xlink:href="#ar"/><use transform="matrix(0.06172839506172839,0,0,0.06172839506172839,108.45679012345681,0)" xlink:href="#an"/><use transform="matrix(0.06172839506172839,0,0,0.06172839506172839,120.8024691358025,0)" xlink:href="#az"/><use transform="matrix(0.06172839506172839,0,0,0.06172839506172839,131.9135802469136,0)" xlink:href="#ay"/><use transform="matrix(0.06172839506172839,0,0,0.06172839506172839,139.25925925925927,0)" xlink:href="#aM"/></g><use transform="matrix(0.06172839506172839,0,0,0.06172839506172839,0,0)" xlink:href="#aA" id="K"/><use transform="matrix(0.06172839506172839,0,0,0.06172839506172839,0,0)" xlink:href="#ay" id="L"/><path fill="#3a414a" d="M198-190L69 30C53 58 25 83-20 72c4-11-1-27 19-22 33-1 43-29 59-52L20-190h32L79-34l84-156h35" id="aN"/><g id="M"><use transform="matrix(0.06172839506172839,0,0,0.06172839506172839,0,0)" xlink:href="#al"/><use transform="matrix(0.06172839506172839,0,0,0.06172839506172839,12.345679012345679,0)" xlink:href="#aj"/><use transform="matrix(0.06172839506172839,0,0,0.06172839506172839,24.691358024691358,0)" xlink:href="#an"/><use transform="matrix(0.06172839506172839,0,0,0.06172839506172839,37.03703703703704,0)" xlink:href="#aq"/><use transform="matrix(0.06172839506172839,0,0,0.06172839506172839,49.382716049382715,0)" xlink:href="#aK"/><use transform="matrix(0.06172839506172839,0,0,0.06172839506172839,54.25925925925926,0)" xlink:href="#at"/><use transform="matrix(0.06172839506172839,0,0,0.06172839506172839,60.4320987654321,0)" xlink:href="#aN"/><use transform="matrix(0.06172839506172839,0,0,0.06172839506172839,71.54320987654322,0)" xlink:href="#ay"/><use transform="matrix(0.06172839506172839,0,0,0.06172839506172839,78.8888888888889,0)" xlink:href="#ao"/><use transform="matrix(0.06172839506172839,0,0,0.06172839506172839,85.06172839506173,0)" xlink:href="#ar"/><use transform="matrix(0.06172839506172839,0,0,0.06172839506172839,97.40740740740742,0)" xlink:href="#an"/><use transform="matrix(0.06172839506172839,0,0,0.06172839506172839,109.7530864197531,0)" xlink:href="#az"/><use transform="matrix(0.06172839506172839,0,0,0.06172839506172839,120.86419753086422,0)" xlink:href="#ay"/><use transform="matrix(0.06172839506172839,0,0,0.06172839506172839,128.2098765432099,0)" xlink:href="#aA"/></g><g id="N"><use transform="matrix(0.06172839506172839,0,0,0.06172839506172839,0,0)" xlink:href="#ai"/><use transform="matrix(0.06172839506172839,0,0,0.06172839506172839,7.345679012345679,0)" xlink:href="#aj"/><use transform="matrix(0.06172839506172839,0,0,0.06172839506172839,19.691358024691358,0)" xlink:href="#aw"/><use transform="matrix(0.06172839506172839,0,0,0.06172839506172839,35.67901234567901,0)" xlink:href="#aq"/><use transform="matrix(0.06172839506172839,0,0,0.06172839506172839,48.02469135802469,0)" xlink:href="#ai"/><use transform="matrix(0.06172839506172839,0,0,0.06172839506172839,55.37037037037037,0)" xlink:href="#ax"/><use transform="matrix(0.06172839506172839,0,0,0.06172839506172839,67.71604938271605,0)" xlink:href="#ak"/></g><g id="O"><use transform="matrix(0.06172839506172839,0,0,0.06172839506172839,0,0)" xlink:href="#al"/><use transform="matrix(0.06172839506172839,0,0,0.06172839506172839,12.345679012345679,0)" xlink:href="#ai"/><use transform="matrix(0.06172839506172839,0,0,0.06172839506172839,19.691358024691358,0)" xlink:href="#am"/><use transform="matrix(0.06172839506172839,0,0,0.06172839506172839,32.03703703703704,0)" xlink:href="#ax"/><use transform="matrix(0.06172839506172839,0,0,0.06172839506172839,44.382716049382715,0)" xlink:href="#ar"/><use transform="matrix(0.06172839506172839,0,0,0.06172839506172839,56.72839506172839,0)" xlink:href="#az"/><use transform="matrix(0.06172839506172839,0,0,0.06172839506172839,67.8395061728395,0)" xlink:href="#aj"/><use transform="matrix(0.06172839506172839,0,0,0.06172839506172839,80.18518518518519,0)" xlink:href="#ax"/></g><g id="P"><use transform="matrix(0.06172839506172839,0,0,0.06172839506172839,0,0)" xlink:href="#au"/><use transform="matrix(0.06172839506172839,0,0,0.06172839506172839,4.876543209876543,0)" xlink:href="#an"/></g><g id="Q"><use transform="matrix(0.06172839506172839,0,0,0.06172839506172839,0,0)" xlink:href="#at"/><use transform="matrix(0.06172839506172839,0,0,0.06172839506172839,6.172839506172839,0)" xlink:href="#aH"/><use transform="matrix(0.06172839506172839,0,0,0.06172839506172839,18.51851851851852,0)" xlink:href="#au"/><use transform="matrix(0.06172839506172839,0,0,0.06172839506172839,23.395061728395063,0)" xlink:href="#ak"/></g><g id="R"><use transform="matrix(0.06172839506172839,0,0,0.06172839506172839,0,0)" xlink:href="#al"/><use transform="matrix(0.06172839506172839,0,0,0.06172839506172839,12.345679012345679,0)" xlink:href="#ai"/><use transform="matrix(0.06172839506172839,0,0,0.06172839506172839,19.691358024691358,0)" xlink:href="#am"/><use transform="matrix(0.06172839506172839,0,0,0.06172839506172839,32.03703703703704,0)" xlink:href="#ap"/><use transform="matrix(0.06172839506172839,0,0,0.06172839506172839,50.49382716049382,0)" xlink:href="#al"/><use transform="matrix(0.06172839506172839,0,0,0.06172839506172839,62.8395061728395,0)" xlink:href="#at"/></g><g id="S"><use transform="matrix(0.06172839506172839,0,0,0.06172839506172839,0,0)" xlink:href="#ak"/><use transform="matrix(0.06172839506172839,0,0,0.06172839506172839,11.11111111111111,0)" xlink:href="#at"/><use transform="matrix(0.06172839506172839,0,0,0.06172839506172839,17.28395061728395,0)" xlink:href="#aj"/><use transform="matrix(0.06172839506172839,0,0,0.06172839506172839,29.629629629629626,0)" xlink:href="#al"/></g><g id="T"><use transform="matrix(0.06172839506172839,0,0,0.06172839506172839,0,0)" xlink:href="#al"/><use transform="matrix(0.06172839506172839,0,0,0.06172839506172839,12.345679012345679,0)" xlink:href="#aj"/><use transform="matrix(0.06172839506172839,0,0,0.06172839506172839,24.691358024691358,0)" xlink:href="#an"/><use transform="matrix(0.06172839506172839,0,0,0.06172839506172839,37.03703703703704,0)" xlink:href="#aq"/><use transform="matrix(0.06172839506172839,0,0,0.06172839506172839,49.382716049382715,0)" xlink:href="#aK"/><use transform="matrix(0.06172839506172839,0,0,0.06172839506172839,54.25925925925926,0)" xlink:href="#at"/><use transform="matrix(0.06172839506172839,0,0,0.06172839506172839,60.4320987654321,0)" xlink:href="#aN"/><use transform="matrix(0.06172839506172839,0,0,0.06172839506172839,71.54320987654322,0)" xlink:href="#ay"/><use transform="matrix(0.06172839506172839,0,0,0.06172839506172839,78.8888888888889,0)" xlink:href="#ao"/><use transform="matrix(0.06172839506172839,0,0,0.06172839506172839,85.06172839506173,0)" xlink:href="#ar"/><use transform="matrix(0.06172839506172839,0,0,0.06172839506172839,97.40740740740742,0)" xlink:href="#an"/><use transform="matrix(0.06172839506172839,0,0,0.06172839506172839,109.7530864197531,0)" xlink:href="#az"/><use transform="matrix(0.06172839506172839,0,0,0.06172839506172839,120.86419753086422,0)" xlink:href="#ay"/><use transform="matrix(0.06172839506172839,0,0,0.06172839506172839,128.2098765432099,0)" xlink:href="#aC"/></g><path fill="#3a414a" d="M222 0l43-216c-8 16-17 34-26 49L143 0h-22L81-216 41 0H11l48-248h42l38 208 116-208h45L252 0h-30" id="aO"/><g id="U"><use transform="matrix(0.06172839506172839,0,0,0.06172839506172839,0,0)" xlink:href="#al"/><use transform="matrix(0.06172839506172839,0,0,0.06172839506172839,12.345679012345679,0)" xlink:href="#aj"/><use transform="matrix(0.06172839506172839,0,0,0.06172839506172839,24.691358024691358,0)" xlink:href="#an"/><use transform="matrix(0.06172839506172839,0,0,0.06172839506172839,37.03703703703704,0)" xlink:href="#aq"/><use transform="matrix(0.06172839506172839,0,0,0.06172839506172839,49.382716049382715,0)" xlink:href="#aK"/><use transform="matrix(0.06172839506172839,0,0,0.06172839506172839,54.25925925925926,0)" xlink:href="#at"/><use transform="matrix(0.06172839506172839,0,0,0.06172839506172839,60.4320987654321,0)" xlink:href="#aN"/><use transform="matrix(0.06172839506172839,0,0,0.06172839506172839,71.54320987654322,0)" xlink:href="#ay"/><use transform="matrix(0.06172839506172839,0,0,0.06172839506172839,78.8888888888889,0)" xlink:href="#ao"/><use transform="matrix(0.06172839506172839,0,0,0.06172839506172839,85.06172839506173,0)" xlink:href="#ar"/><use transform="matrix(0.06172839506172839,0,0,0.06172839506172839,97.40740740740742,0)" xlink:href="#an"/><use transform="matrix(0.06172839506172839,0,0,0.06172839506172839,109.7530864197531,0)" xlink:href="#az"/><use transform="matrix(0.06172839506172839,0,0,0.06172839506172839,120.86419753086422,0)" xlink:href="#ay"/><use transform="matrix(0.06172839506172839,0,0,0.06172839506172839,128.2098765432099,0)" xlink:href="#aO"/></g><use transform="matrix(0.0864197530864197,0,0,0.0864197530864197,0,0)" xlink:href="#ah" id="V"/><g id="W"><use transform="matrix(0.06172839506172839,0,0,0.06172839506172839,0,0)" xlink:href="#aq"/><use transform="matrix(0.06172839506172839,0,0,0.06172839506172839,12.345679012345679,0)" xlink:href="#aK"/><use transform="matrix(0.06172839506172839,0,0,0.06172839506172839,17.22222222222222,0)" xlink:href="#al"/><use transform="matrix(0.06172839506172839,0,0,0.06172839506172839,29.5679012345679,0)" xlink:href="#aH"/><use transform="matrix(0.06172839506172839,0,0,0.06172839506172839,41.913580246913575,0)" xlink:href="#aq"/></g><g id="X"><use transform="matrix(0.06172839506172839,0,0,0.06172839506172839,0,0)" xlink:href="#av"/><use transform="matrix(0.06172839506172839,0,0,0.06172839506172839,7.345679012345679,0)" xlink:href="#aA"/></g><g id="Y"><use transform="matrix(0.06172839506172839,0,0,0.06172839506172839,0,0)" xlink:href="#aq"/><use transform="matrix(0.06172839506172839,0,0,0.06172839506172839,12.345679012345679,0)" xlink:href="#aK"/><use transform="matrix(0.06172839506172839,0,0,0.06172839506172839,17.22222222222222,0)" xlink:href="#al"/><use transform="matrix(0.06172839506172839,0,0,0.06172839506172839,29.5679012345679,0)" xlink:href="#aH"/><use transform="matrix(0.06172839506172839,0,0,0.06172839506172839,41.913580246913575,0)" xlink:href="#aq"/><use transform="matrix(0.06172839506172839,0,0,0.06172839506172839,54.25925925925925,0)" xlink:href="#aB"/></g><path fill="#3a414a" d="M89 0H52L20-190h33L74-25l89-165h34" id="aP"/><g id="Z"><use transform="matrix(0.06172839506172839,0,0,0.06172839506172839,0,0)" xlink:href="#al"/><use transform="matrix(0.06172839506172839,0,0,0.06172839506172839,12.345679012345679,0)" xlink:href="#ai"/><use transform="matrix(0.06172839506172839,0,0,0.06172839506172839,19.691358024691358,0)" xlink:href="#aj"/><use transform="matrix(0.06172839506172839,0,0,0.06172839506172839,32.03703703703704,0)" xlink:href="#aP"/><use transform="matrix(0.06172839506172839,0,0,0.06172839506172839,43.14814814814815,0)" xlink:href="#au"/><use transform="matrix(0.06172839506172839,0,0,0.06172839506172839,48.0246913580247,0)" xlink:href="#am"/><use transform="matrix(0.06172839506172839,0,0,0.06172839506172839,60.370370370370374,0)" xlink:href="#ar"/><use transform="matrix(0.06172839506172839,0,0,0.06172839506172839,72.71604938271605,0)" xlink:href="#ak"/></g><g id="aa"><use transform="matrix(0.06172839506172839,0,0,0.06172839506172839,0,0)" xlink:href="#ap"/><use transform="matrix(0.06172839506172839,0,0,0.06172839506172839,18.456790123456788,0)" xlink:href="#am"/><use transform="matrix(0.06172839506172839,0,0,0.06172839506172839,30.80246913580247,0)" xlink:href="#aP"/><use transform="matrix(0.06172839506172839,0,0,0.06172839506172839,41.91358024691358,0)" xlink:href="#au"/><use transform="matrix(0.06172839506172839,0,0,0.06172839506172839,46.79012345679013,0)" xlink:href="#an"/><use transform="matrix(0.06172839506172839,0,0,0.06172839506172839,59.135802469135804,0)" xlink:href="#aG"/></g><g id="ab"><use transform="matrix(0.06172839506172839,0,0,0.06172839506172839,0,0)" xlink:href="#aq"/><use transform="matrix(0.06172839506172839,0,0,0.06172839506172839,12.345679012345679,0)" xlink:href="#aP"/><use transform="matrix(0.06172839506172839,0,0,0.06172839506172839,23.45679012345679,0)" xlink:href="#aj"/><use transform="matrix(0.06172839506172839,0,0,0.06172839506172839,35.80246913580247,0)" xlink:href="#ai"/><use transform="matrix(0.06172839506172839,0,0,0.06172839506172839,43.148148148148145,0)" xlink:href="#aq"/><use transform="matrix(0.06172839506172839,0,0,0.06172839506172839,55.49382716049382,0)" xlink:href="#aG"/><use transform="matrix(0.06172839506172839,0,0,0.06172839506172839,67.8395061728395,0)" xlink:href="#aj"/><use transform="matrix(0.06172839506172839,0,0,0.06172839506172839,80.18518518518519,0)" xlink:href="#ax"/></g><g id="ac"><use transform="matrix(0.06172839506172839,0,0,0.06172839506172839,0,0)" xlink:href="#aw"/><use transform="matrix(0.06172839506172839,0,0,0.06172839506172839,15.987654320987653,0)" xlink:href="#aj"/><use transform="matrix(0.06172839506172839,0,0,0.06172839506172839,28.333333333333332,0)" xlink:href="#au"/><use transform="matrix(0.06172839506172839,0,0,0.06172839506172839,33.20987654320987,0)" xlink:href="#aG"/><use transform="matrix(0.06172839506172839,0,0,0.06172839506172839,45.55555555555555,0)" xlink:href="#aH"/><use transform="matrix(0.06172839506172839,0,0,0.06172839506172839,57.90123456790123,0)" xlink:href="#at"/><use transform="matrix(0.06172839506172839,0,0,0.06172839506172839,64.07407407407406,0)" xlink:href="#ak"/></g><g id="ad"><use transform="matrix(0.06172839506172839,0,0,0.06172839506172839,0,0)" xlink:href="#ar"/><use transform="matrix(0.06172839506172839,0,0,0.06172839506172839,12.345679012345679,0)" xlink:href="#al"/><use transform="matrix(0.06172839506172839,0,0,0.06172839506172839,24.691358024691358,0)" xlink:href="#ax"/><use transform="matrix(0.06172839506172839,0,0,0.06172839506172839,37.03703703703704,0)" xlink:href="#aq"/><use transform="matrix(0.06172839506172839,0,0,0.06172839506172839,49.382716049382715,0)" xlink:href="#at"/><use transform="matrix(0.06172839506172839,0,0,0.06172839506172839,55.55555555555556,0)" xlink:href="#aj"/><use transform="matrix(0.06172839506172839,0,0,0.06172839506172839,67.90123456790124,0)" xlink:href="#ax"/></g><g id="ae"><use transform="matrix(0.06172839506172839,0,0,0.06172839506172839,0,0)" xlink:href="#az"/><use transform="matrix(0.06172839506172839,0,0,0.06172839506172839,11.11111111111111,0)" xlink:href="#ar"/><use transform="matrix(0.06172839506172839,0,0,0.06172839506172839,23.45679012345679,0)" xlink:href="#ai"/><use transform="matrix(0.06172839506172839,0,0,0.06172839506172839,30.80246913580247,0)" xlink:href="#ai"/><use transform="matrix(0.06172839506172839,0,0,0.06172839506172839,38.148148148148145,0)" xlink:href="#aj"/><use transform="matrix(0.06172839506172839,0,0,0.06172839506172839,50.49382716049382,0)" xlink:href="#an"/><use transform="matrix(0.06172839506172839,0,0,0.06172839506172839,62.8395061728395,0)" xlink:href="#at"/></g><g id="af"><use transform="matrix(0.06172839506172839,0,0,0.06172839506172839,0,0)" xlink:href="#ap"/><use transform="matrix(0.06172839506172839,0,0,0.06172839506172839,18.456790123456788,0)" xlink:href="#am"/><use transform="matrix(0.06172839506172839,0,0,0.06172839506172839,30.80246913580247,0)" xlink:href="#aP"/><use transform="matrix(0.06172839506172839,0,0,0.06172839506172839,41.91358024691358,0)" xlink:href="#au"/><use transform="matrix(0.06172839506172839,0,0,0.06172839506172839,46.79012345679013,0)" xlink:href="#an"/><use transform="matrix(0.06172839506172839,0,0,0.06172839506172839,59.135802469135804,0)" xlink:href="#aG"/></g><g id="ag"><use transform="matrix(0.06172839506172839,0,0,0.06172839506172839,0,0)" xlink:href="#aq"/><use transform="matrix(0.06172839506172839,0,0,0.06172839506172839,12.345679012345679,0)" xlink:href="#aP"/><use transform="matrix(0.06172839506172839,0,0,0.06172839506172839,23.45679012345679,0)" xlink:href="#aj"/><use transform="matrix(0.06172839506172839,0,0,0.06172839506172839,35.80246913580247,0)" xlink:href="#ai"/><use transform="matrix(0.06172839506172839,0,0,0.06172839506172839,43.148148148148145,0)" xlink:href="#aq"/><use transform="matrix(0.06172839506172839,0,0,0.06172839506172839,55.49382716049382,0)" xlink:href="#aG"/><use transform="matrix(0.06172839506172839,0,0,0.06172839506172839,67.8395061728395,0)" xlink:href="#aj"/><use transform="matrix(0.06172839506172839,0,0,0.06172839506172839,80.18518518518519,0)" xlink:href="#ax"/></g></defs></g></svg>