<svg xmlns="http://www.w3.org/2000/svg" xmlns:xlink="http://www.w3.org/1999/xlink" xmlns:lucid="lucid" width="1917.61" height="882.43"><g transform="translate(660.5 40.5)" lucid:page-tab-id="0_0"><path d="M376.6-14a6 6 0 0 1 6-6h848a6 6 0 0 1 6 6v625.4a6 6 0 0 1-6 6h-848a6 6 0 0 1-6-6z" fill-opacity="0"/><path d="M377.5-17.13l.26-.4.6-.7.73-.62.4-.25m1.72-.72l.46-.1.93-.08h1.5m2 0h3m2 0h3m1.98 0h3m2 0h2.98m2 0h3m2 0h2.98m2 0h3m1.98 0h3m2 0h3m1.98 0h3m2 0h2.98m2 0h3m1.98 0h3m2 0h3m1.98 0h3m2 0h2.98m2 0h3m2 0h2.98m2 0h3m1.98 0h3m2 0h2.98m2 0h3m2 0h2.98m2 0h3m1.98 0h3m2 0h2.98m2 0h3m2 0h2.98m2 0h3m2 0h2.98m2 0h3m1.98 0h3m2 0h2.98m2 0h3m2 0h2.98m2 0h3m1.98 0h3m2 0h2.98m2 0h3m2 0h2.98m2 0h3m1.98 0h3m2 0h3m1.98 0h3m2 0h2.98m2 0h3m2 0h2.98m2 0h3m1.98 0h3m2 0h2.98m2 0h3m2 0h2.98m2 0h3m1.98 0h3m2 0h2.98m2 0h3m2 0h2.98m2 0h3m1.98 0h3m2 0h3m1.98 0h3m2 0h2.98m2 0h3m2 0h2.98m2 0h3m1.98 0h3m2 0h2.98m2 0h3m2 0h2.98m2 0h3m1.98 0h3m2 0h2.98m2 0h3m2 0h2.98m2 0h3m1.98 0h3m2 0h3m1.98 0h3m2 0h2.98m2 0h3m2 0h2.98m2 0h3m1.98 0h3m2 0h2.98m2 0h3m2 0h2.98m2 0h3m1.98 0h3m2 0h2.98m2 0h3m2 0h2.98m2 0h3m1.98 0h3m2 0h3m1.98 0h3m2 0h2.98m2 0h3m2 0h2.98m2 0h3m1.98 0h3m2 0h2.98m2 0h3m2 0h2.98m2 0h3m1.98 0h3m2 0h2.98m2 0h3m2 0h2.98m2 0h3m1.98 0h3m2 0h2.98m2 0h3m2 0h2.98m2 0h3m2 0h2.98m2 0h3m1.98 0h3m2 0h2.98m2 0h3m2 0h2.98m2 0h3m1.98 0h3m2 0h2.98m2 0h3m2 0h2.98m2 0h3m1.98 0h3m2 0h3m1.98 0h3m2 0h2.98m2 0h3m2 0h2.98m2 0h3m1.98 0h3m2 0h2.98m2 0h3m2 0h2.98m2 0h3m1.98 0h3m2 0h2.98m2 0h3m2 0h2.98m2 0h3m1.98 0h3m2 0h2.98m2 0h3m2 0h2.98m2 0h3m1.98 0h3m2 0h3m1.98 0h3m2 0h2.98m2 0h3m2 0h2.98m2 0h3m1.98 0h3m2 0h2.98m2 0h3m2 0h2.98m2 0h3m1.98 0h3m2 0h2.98m2 0h3m2 0h2.98m2 0h3m1.98 0h3m2 0h3m1.98 0h3m2 0h2.98m2 0h1.5l.93.07.46.1m1.74.73l.4.25.72.6.6.72.25.4m.73 1.73l.1.46.08.94v1.5m0 2v3m0 2v3m0 2v3m0 2v3m0 2.02v3m0 2v3m0 2v3m0 2v3m0 2v3m0 2v3m0 2v3.02m0 2v3m0 2v3m0 2v3m0 2v3m0 2v3m0 2.02v3m0 2v3m0 2v3m0 2v3m0 2v3m0 2v3m0 2v3.02m0 2v3m0 2v3m0 2v3m0 2v3m0 2v3m0 2v3.02m0 2v3m0 2v3m0 2v3m0 2v3m0 2v3m0 2v3.02m0 2v3m0 2v3m0 2v3m0 2v3m0 2v3m0 2v3m0 2.02v3m0 2v3m0 2v3m0 2v3m0 2v3m0 2v3.02m0 2v3m0 2v3m0 2v3m0 2v3m0 2v3m0 2v3m0 2.02v3m0 2v3m0 2v3m0 2v3m0 2v3m0 2v3m0 2v3.02m0 2v3m0 2v3m0 2v3m0 2v3m0 2v3m0 2v3.02m0 2v3m0 2v3m0 2v3m0 2v3m0 2v3m0 2v3.02m0 2v3m0 2v3m0 2v3m0 2v3m0 2v3m0 2v3.02m0 2v3m0 2v3m0 2v3m0 2v3m0 2v3m0 2v3.02m0 2v3m0 2v3m0 2v3m0 2v3m0 2v3m0 2v3.02m0 2v3m0 2v3m0 2v3m0 2v3m0 2v3m0 2v3m0 2.02v3m0 2v3m0 2v3m0 2v3m0 2v3m0 2v3m0 2.02v3m0 2v3m0 2v3m0 2v3m0 2v3m0 2v3m0 2.02v3m0 2v3m0 2v3m0 2v3m0 2v3m0 2v3m0 2v3.02m0 2v3m0 2v3m0 2v3m0 2v3m0 2v3m0 2v3.02m0 2v3m0 2v3m0 2v3m0 2v1.5l-.06.95-.1.45m-.73 1.73l-.23.4-.6.72-.73.6-.4.26m-1.73.73l-.45.1-.94.08h-1.48m-2 0h-3m-2 0h-2.98m-2 0h-3m-1.98 0h-3m-2 0h-2.98m-2 0h-3m-2 0h-2.98m-2 0h-3m-1.98 0h-3m-2 0h-2.98m-2 0h-3m-2 0h-2.98m-2 0h-3m-1.98 0h-3m-2 0h-3m-1.98 0h-3m-2 0h-2.98m-2 0h-3m-2 0h-2.98m-2 0h-3m-1.98 0h-3m-2 0h-2.98m-2 0h-3m-2 0h-2.98m-2 0h-3m-1.98 0h-3m-2 0h-2.98m-2 0h-3m-2 0h-2.98m-2 0h-3m-1.98 0h-3m-2 0h-3m-1.98 0h-3m-2 0h-2.98m-2 0h-3m-2 0h-2.98m-2 0h-3m-1.98 0h-3m-2 0h-2.98m-2 0h-3m-2 0h-2.98m-2 0h-3m-1.98 0h-3m-2 0h-2.98m-2 0h-3m-2 0h-2.98m-2 0h-3m-1.98 0h-3m-2 0h-3m-1.98 0h-3m-2 0h-2.98m-2 0h-3m-2 0h-2.98m-2 0h-3m-1.98 0h-3m-2 0h-2.98m-2 0h-3m-2 0h-2.98m-2 0h-3m-1.98 0h-3m-2 0h-2.98m-2 0h-3m-2 0h-2.98m-2 0h-3m-1.98 0h-3m-2 0h-3m-1.98 0h-3m-2 0h-2.98m-2 0h-3m-2 0h-2.98m-2 0h-3m-1.98 0h-3m-2 0H865m-2 0h-3m-2 0H855m-2 0h-3m-1.98 0h-3m-2 0h-2.98m-2 0h-3m-2 0h-2.98m-2 0h-3m-1.98 0h-3m-2 0h-3m-1.98 0h-3m-2 0h-2.98m-2 0h-3m-2 0h-2.98m-2 0h-3m-1.98 0h-3m-2 0h-2.98m-2 0h-3m-2 0h-2.98m-2 0h-3m-1.98 0h-3m-2 0h-2.98m-2 0h-3m-2 0h-2.98m-2 0h-3m-1.98 0h-3m-2 0h-3m-1.98 0h-3m-2 0h-2.98m-2 0h-3m-2 0h-2.98m-2 0h-3m-1.98 0h-3m-2 0h-2.98m-2 0h-3m-2 0h-2.98m-2 0h-3m-1.98 0h-3m-2 0h-2.98m-2 0h-3m-2 0h-2.98m-2 0h-3m-1.98 0h-3m-2 0h-3m-1.98 0h-3m-2 0h-2.98m-2 0h-3m-2 0h-2.98m-2 0h-3m-1.98 0h-3m-2 0h-2.98m-2 0h-3m-2 0h-2.98m-2 0h-3m-1.98 0h-3m-2 0h-2.98m-2 0h-3m-2 0h-2.98m-2 0h-3m-1.98 0h-3m-2 0h-3m-1.98 0h-3m-2 0h-2.98m-2 0h-3m-2 0h-2.98m-2 0h-3m-1.98 0h-3m-2 0h-2.98m-2 0h-3m-2 0h-2.98m-2 0h-3m-1.98 0h-3m-2 0h-2.98m-2 0h-3m-2 0h-2.98m-2 0h-3m-1.98 0h-3m-2 0h-3m-1.98 0h-3m-2 0h-2.98m-2 0h-3m-2 0h-2.98m-2 0h-3m-1.98 0h-3m-2 0H441m-2 0h-3m-2 0H431m-2 0h-3m-1.98 0h-3m-2 0h-2.98m-2 0h-3m-2 0h-2.98m-2 0h-3m-1.98 0h-3m-2 0h-3m-1.98 0h-3m-2 0h-1.5l-.92-.06-.46-.12m-1.73-.7l-.4-.26-.73-.6-.6-.72-.26-.4m-.7-1.74l-.1-.45-.08-.94v-1.5m0-2v-3m0-2v-3m0-2v-3m0-2v-3m0-2v-3m0-2v-3m0-2v-3m0-2.02v-3m0-2v-3m0-2v-3m0-2v-3m0-2v-3m0-2v-3m0-2.02v-3m0-2v-3m0-2v-3m0-2v-3m0-2v-3m0-2v-3m0-2v-3.02m0-2v-3m0-2v-3m0-2v-3m0-2v-3m0-2v-3m0-2v-3.02m0-2v-3m0-2v-3m0-2v-3m0-2v-3m0-2v-3m0-2v-3.02m0-2v-3m0-2v-3m0-2v-3m0-2v-3m0-2v-3m0-2v-3.02m0-2v-3m0-2v-3m0-2v-3m0-2v-3m0-2v-3m0-2v-3.02m0-2v-3m0-2v-3m0-2v-3m0-2v-3m0-2v-3m0-2v-3.02m0-2v-3m0-2v-3m0-2v-3m0-2v-3m0-2v-3m0-2v-3m0-2.02v-3m0-2v-3m0-2v-3m0-2v-3m0-2v-3m0-2v-3.02m0-2v-3m0-2v-3m0-2v-3m0-2v-3m0-2v-3m0-2v-3m0-2.02v-3m0-2v-3m0-2v-3m0-2v-3m0-2v-3m0-2v-3m0-2.02v-3m0-2v-3m0-2v-3m0-2v-3m0-2v-3m0-2v-3m0-2v-3.02m0-2v-3m0-2v-3m0-2v-3m0-2v-3m0-2v-3m0-2v-3.02m0-2v-3m0-2v-3m0-2v-3m0-2v-3m0-2v-3m0-2v-3.02m0-2v-3m0-2v-3m0-2v-3m0-2v-3m0-2v-3m0-2v-3.02m0-2v-3m0-2v-3m0-2v-3m0-2v-3m0-2v-3m0-2v-3.02m0-2v-3m0-2v-3m0-2v-3m0-2v-3m0-2v-3m0-2v-3.02m0-2v-3m0-2v-3m0-2v-3m0-2v-3m0-2v-3m0-2V24.5m0-2v-3m0-2v-3m0-2v-3m0-2v-3m0-2v-3m0-2v-3m0-2.02v-3m0-2V-14l.07-.94.1-.46" stroke="#000" fill="none"/><use xlink:href="#a" transform="matrix(1,0,0,1,381.6144010237231,-15) translate(0 17.77777777777778)"/><path d="M580.14 458.7c22 0 39.86 17.85 39.86 39.87 0 22-17.85 39.86-39.86 39.86h-40.28c-22 0-39.86-17.85-39.86-39.86 0-22.02 17.85-39.87 39.86-39.87z" stroke="#3a414a" fill="#fff"/><use xlink:href="#b" transform="matrix(1,0,0,1,505,463.70454545454544) translate(21.671666666666667 26.52777777777778)"/><use xlink:href="#c" transform="matrix(1,0,0,1,505,463.70454545454544) translate(13.122283950617275 53.19444444444445)"/><path d="M740.14 458.7c22 0 39.86 17.85 39.86 39.87 0 22-17.85 39.86-39.86 39.86h-40.28c-22 0-39.86-17.85-39.86-39.86 0-22.02 17.85-39.87 39.86-39.87z" stroke="#3a414a" fill="#fff"/><use xlink:href="#b" transform="matrix(1,0,0,1,665,463.70454545454544) translate(21.671666666666667 26.52777777777778)"/><use xlink:href="#c" transform="matrix(1,0,0,1,665,463.70454545454544) translate(13.122283950617275 53.19444444444445)"/><path d="M900.14 458.7c22 0 39.86 17.85 39.86 39.87 0 22-17.85 39.86-39.86 39.86h-40.28c-22 0-39.86-17.85-39.86-39.86 0-22.02 17.85-39.87 39.86-39.87z" stroke="#3a414a" fill="#fff"/><use xlink:href="#b" transform="matrix(1,0,0,1,825,463.70454545454544) translate(21.671666666666667 26.52777777777778)"/><use xlink:href="#c" transform="matrix(1,0,0,1,825,463.70454545454544) translate(13.122283950617275 53.19444444444445)"/><path d="M580.14 100c22 0 39.86 17.85 39.86 39.86 0 22.02-17.85 39.87-39.86 39.87h-40.28c-22 0-39.86-17.85-39.86-39.87 0-22 17.85-39.86 39.86-39.86z" stroke="#3a414a" fill="#fff"/><use xlink:href="#b" transform="matrix(1,0,0,1,505,105.00000000000001) translate(21.671666666666667 26.52777777777778)"/><use xlink:href="#d" transform="matrix(1,0,0,1,505,105.00000000000001) translate(27.31981481481482 53.19444444444445)"/><path d="M840.14 100c22 0 39.86 17.85 39.86 39.86 0 22.02-17.85 39.87-39.86 39.87h-40.28c-22 0-39.86-17.85-39.86-39.87 0-22 17.85-39.86 39.86-39.86z" stroke="#3a414a" fill="#fff"/><use xlink:href="#b" transform="matrix(1,0,0,1,765,105.00000000000001) translate(21.671666666666667 26.52777777777778)"/><use xlink:href="#d" transform="matrix(1,0,0,1,765,105.00000000000001) translate(27.31981481481482 53.19444444444445)"/><path d="M1080.14 100c22 0 39.86 17.85 39.86 39.86 0 22.02-17.85 39.87-39.86 39.87h-40.28c-22 0-39.86-17.85-39.86-39.87 0-22 17.85-39.86 39.86-39.86z" stroke="#3a414a" fill="#fff"/><use xlink:href="#b" transform="matrix(1,0,0,1,1005,105.00000000000001) translate(21.671666666666667 26.52777777777778)"/><use xlink:href="#d" transform="matrix(1,0,0,1,1005,105.00000000000001) translate(27.31981481481482 53.19444444444445)"/><path d="M876.6 727.43a6 6 0 0 1 6-6h348a6 6 0 0 1 6 6v88a6 6 0 0 1-6 6h-348a6 6 0 0 1-6-6z" stroke="#3a414a" fill="#fff"/><use xlink:href="#e" transform="matrix(1,0,0,1,888.6144010237231,733.4318181818182) translate(0 71.13585777777777)"/><path d="M1080.14 458.7c22 0 39.86 17.85 39.86 39.87 0 22-17.85 39.86-39.86 39.86h-40.28c-22 0-39.86-17.85-39.86-39.86 0-22.02 17.85-39.87 39.86-39.87z" stroke="#3a414a" fill="#fff"/><use xlink:href="#b" transform="matrix(1,0,0,1,1005,463.7045454545454) translate(21.671666666666667 26.52777777777778)"/><use xlink:href="#c" transform="matrix(1,0,0,1,1005,463.7045454545454) translate(13.122283950617275 53.19444444444445)"/><path d="M560 196.6v245.22" stroke="#3a414a" fill="none"/><path d="M560 181.84l4.63 14.27h-9.26zM560 456.6l-4.63-14.28h9.26z" stroke="#3a414a" fill="#3a414a"/><path d="M594.87 194.3l118.1 249.1" stroke="#3a414a" fill="none"/><path d="M588.54 180.96l10.3 10.9-8.38 3.97zM719.3 456.74l-10.3-10.9 8.38-3.97z" stroke="#3a414a" fill="#3a414a"/><path d="M613 185.73l260.9 260.9" stroke="#3a414a" fill="none"/><path d="M602.56 175.28l13.36 6.8-6.55 6.57zM884.33 457.06l-13.36-6.8 6.55-6.56z" stroke="#3a414a" fill="#3a414a"/><path d="M626.52 172.54l419.8 276.65" stroke="#3a414a" fill="none"/><path d="M614.2 164.42l14.45 3.98-5.1 7.74zM1058.65 457.3l-14.46-3.97 5.1-7.74z" stroke="#3a414a" fill="#3a414a"/><path d="M769.95 187.9l-199.9 257.37" stroke="#3a414a" fill="none"/><path d="M779 176.25l-5.08 14.1-7.32-5.67zM561 456.93l5.08-14.1 7.32 5.67z" stroke="#3a414a" fill="#3a414a"/><path d="M793.36 196.03L738 442.23" stroke="#3a414a" fill="none"/><path d="M796.6 181.63l1.4 14.93-9.05-2.03zM734.75 456.63l-1.4-14.94 9.06 2.03z" stroke="#3a414a" fill="#3a414a"/><path d="M823.46 196.24l53.08 245.95" stroke="#3a414a" fill="none"/><path d="M820.34 181.8l7.54 12.98-9.06 1.95zM879.66 456.62l-7.54-12.96 9.06-1.96z" stroke="#3a414a" fill="#3a414a"/><path d="M843.2 192.42l206.44 253.1" stroke="#3a414a" fill="none"/><path d="M833.86 180.98l12.6 8.13-7.17 5.87zM1058.98 456.95l-12.6-8.12 7.17-5.86z" stroke="#3a414a" fill="#3a414a"/><path d="M1000.4 179.9L600.2 449.63" stroke="#3a414a" fill="none"/><path d="M1012.65 171.65l-9.24 11.8-5.17-7.67zM587.97 457.88l9.24-11.8 5.2 7.67z" stroke="#3a414a" fill="#3a414a"/><path d="M1016.26 191.58l-256 256" stroke="#3a414a" fill="none"/><path d="M1026.7 181.14l-6.8 13.36-6.56-6.55zM749.8 458.03l6.82-13.36 6.55 6.55z" stroke="#3a414a" fill="#3a414a"/><path d="M1028.2 194.92L918.97 445.17" stroke="#3a414a" fill="none"/><path d="M1034.12 181.4l-1.46 14.92-8.5-3.7zM913.05 458.7l1.46-14.93 8.5 3.7z" stroke="#3a414a" fill="#3a414a"/><path d="M1052.84 196.6v245.22" stroke="#3a414a" fill="none"/><path d="M1052.84 181.84l4.64 14.27h-9.27zM1052.84 456.6l-4.63-14.28h9.28z" stroke="#3a414a" fill="#3a414a"/><path d="M560 540.43v115a6 6 0 0 0 6 6h334.72a6 6 0 0 1 6 6v32.88" stroke="#3a414a" stroke-width="3" fill="none"/><path d="M561.5 540.47h-3v-1.54h3z" stroke="#3a414a" stroke-width=".05" fill="#3a414a"/><path d="M906.72 716.08l-4.64-14.27h9.27z" stroke="#3a414a" stroke-width="3" fill="#3a414a"/><path d="M749.28 539.33V584a6 6 0 0 0 6 6h211.34a6 6 0 0 1 6 6v104.3" stroke="#3a414a" stroke-width="3" fill="none"/><path d="M750.78 539.36h-3v-1.15h.07l2.93-.76z" stroke="#3a414a" stroke-width=".05" fill="#3a414a"/><path d="M972.62 716.08L968 701.8h9.26z" stroke="#3a414a" stroke-width="3" fill="#3a414a"/><path d="M917.8 536.34V564a6 6 0 0 0 6 6h137.23a6 6 0 0 1 6 6v124.3" stroke="#3a414a" stroke-width="3" fill="none"/><path d="M919.3 536.38h-3v-.87l1.08-.42 1.92-1.07z" stroke="#3a414a" stroke-width=".05" fill="#3a414a"/><path d="M1067.03 716.08l-4.64-14.27h9.26z" stroke="#3a414a" stroke-width="3" fill="#3a414a"/><path d="M1122 498.57h22.28a6 6 0 0 1 6 6V700.3" stroke="#3a414a" stroke-width="3" fill="none"/><path d="M1122.04 500.07h-1.63l.1-1.5-.05-1.5h1.6z" stroke="#3a414a" stroke-width=".05" fill="#3a414a"/><path d="M1150.28 716.08l-4.63-14.27h9.27z" stroke="#3a414a" stroke-width="3" fill="#3a414a"/><path d="M-379.86 458.7c22 0 39.86 17.85 39.86 39.87 0 22-17.85 39.86-39.86 39.86h-40.28c-22 0-39.86-17.85-39.86-39.86 0-22.02 17.85-39.87 39.86-39.87z" stroke="#3a414a" fill="#fff"/><use xlink:href="#f" transform="matrix(1,0,0,1,-455,463.7045454545455) translate(30.308641975308642 39.65277777777778)"/><path d="M-219.86 458.7c22 0 39.86 17.85 39.86 39.87 0 22-17.85 39.86-39.86 39.86h-40.28c-22 0-39.86-17.85-39.86-39.86 0-22.02 17.85-39.87 39.86-39.87zM-59.86 458.7c22 0 39.86 17.85 39.86 39.87 0 22-17.85 39.86-39.86 39.86h-40.28c-22 0-39.86-17.85-39.86-39.86 0-22.02 17.85-39.87 39.86-39.87zM-379.86 100c22 0 39.86 17.85 39.86 39.86 0 22.02-17.85 39.87-39.86 39.87h-40.28c-22 0-39.86-17.85-39.86-39.87 0-22 17.85-39.86 39.86-39.86z" stroke="#3a414a" fill="#fff"/><use xlink:href="#f" transform="matrix(1,0,0,1,-455,105.00000000000001) translate(30.308641975308642 39.65277777777778)"/><path d="M-119.86 100c22 0 39.86 17.85 39.86 39.86 0 22.02-17.85 39.87-39.86 39.87h-40.28c-22 0-39.86-17.85-39.86-39.87 0-22 17.85-39.86 39.86-39.86zM120.14 100c22 0 39.86 17.85 39.86 39.86 0 22.02-17.85 39.87-39.86 39.87H79.86c-22 0-39.86-17.85-39.86-39.87 0-22 17.85-39.86 39.86-39.86zM120.14 458.7c22 0 39.86 17.85 39.86 39.87 0 22-17.85 39.86-39.86 39.86H79.86c-22 0-39.86-17.85-39.86-39.86 0-22.02 17.85-39.87 39.86-39.87z" stroke="#3a414a" fill="#fff"/><path d="M-400 196.6v261.1" stroke="#3a414a" fill="none"/><path d="M-400 181.84l4.63 14.27h-9.26z" stroke="#3a414a" fill="#3a414a"/><path d="M-399.5 458.2h-1v-.5h1z" stroke="#3a414a" stroke-width=".05" fill="#3a414a"/><path d="M-365.13 194.3l124.92 263.45" stroke="#3a414a" fill="none"/><path d="M-371.46 180.96l10.3 10.9-8.38 3.97z" stroke="#3a414a" fill="#3a414a"/><path d="M-239.45 458.2h-1.1l-.12-.25.9-.42z" stroke="#3a414a" stroke-width=".05" fill="#3a414a"/><path d="M-347.1 185.84l266.75 272" stroke="#3a414a" fill="none"/><path d="M-357.45 175.3l13.3 6.94-6.62 6.5z" stroke="#3a414a" fill="#3a414a"/><path d="M-79.3 458.2h-1.42l.72-.7z" stroke="#3a414a" stroke-width=".05" fill="#3a414a"/><path d="M-333.48 172.54l433.06 285.4" stroke="#3a414a" fill="none"/><path d="M-345.8 164.42l14.45 3.98-5.1 7.74z" stroke="#3a414a" fill="#3a414a"/><path d="M100.9 458.2h-1.5l.45-.7z" stroke="#3a414a" stroke-width=".05" fill="#3a414a"/><path d="M-190.05 187.9L-399.7 457.8" stroke="#3a414a" fill="none"/><path d="M-181 176.25l-5.08 14.1-7.32-5.67z" stroke="#3a414a" fill="#3a414a"/><path d="M-399.3 458.1l-.07.1h-1.26l.55-.7z" stroke="#3a414a" stroke-width=".05" fill="#3a414a"/><path d="M-166.64 196.03l-58.85 261.7" stroke="#3a414a" fill="none"/><path d="M-163.4 181.63l1.4 14.93-9.05-2.03z" stroke="#3a414a" fill="#3a414a"/><path d="M-225 457.8l-.1.4h-1l.13-.6z" stroke="#3a414a" stroke-width=".05" fill="#3a414a"/><path d="M-136.54 196.24l56.43 261.48" stroke="#3a414a" fill="none"/><path d="M-139.66 181.8l7.54 12.98-9.06 1.95z" stroke="#3a414a" fill="#3a414a"/><path d="M-79.5 458.2h-1l-.1-.4.98-.2z" stroke="#3a414a" stroke-width=".05" fill="#3a414a"/><path d="M-116.8 192.42l216.48 265.4" stroke="#3a414a" fill="none"/><path d="M-126.14 180.98l12.6 8.13-7.17 5.87z" stroke="#3a414a" fill="#3a414a"/><path d="M100.64 458.2h-1.28l-.07-.08.76-.63z" stroke="#3a414a" stroke-width=".05" fill="#3a414a"/><path d="M40.4 179.9l-413.36 278.6" stroke="#3a414a" fill="none"/><path d="M52.65 171.65l-9.24 11.8-5.17-7.67z" stroke="#3a414a" fill="#3a414a"/><path d="M-372.67 458.92l-1.4-.27.84-.56z" stroke="#3a414a" stroke-width=".05" fill="#3a414a"/><path d="M56.26 191.58l-267.24 267.24" stroke="#3a414a" fill="none"/><path d="M66.7 181.14l-6.8 13.36-6.56-6.55z" stroke="#3a414a" fill="#3a414a"/><path d="M-210.62 459.17l-.12.12-1.2-.24.6-.6z" stroke="#3a414a" stroke-width=".05" fill="#3a414a"/><path d="M68.2 194.92l-115.6 264.8" stroke="#3a414a" fill="none"/><path d="M74.12 181.4l-1.46 14.92-8.5-3.7z" stroke="#3a414a" fill="#3a414a"/><path d="M-46.94 459.9l-.18.44-.96-.3.23-.53z" stroke="#3a414a" stroke-width=".05" fill="#3a414a"/><path d="M92.84 196.6v261.1" stroke="#3a414a" fill="none"/><path d="M92.84 181.84l4.64 14.27H88.2z" stroke="#3a414a" fill="#3a414a"/><path d="M93.34 458.2h-1v-.5h1z" stroke="#3a414a" stroke-width=".05" fill="#3a414a"/><path d="M-400 555.32V659.5" stroke="#3a414a" fill="none"/><path d="M-400 540.55l4.63 14.27h-9.26z" stroke="#3a414a" fill="#3a414a"/><path d="M-400 659.5v.5M-240 555.32V659.5" stroke="#3a414a" fill="none"/><path d="M-240 540.55l4.63 14.27h-9.26z" stroke="#3a414a" fill="#3a414a"/><path d="M-240 659.5v.5M-80 555.32V659.5" stroke="#3a414a" fill="none"/><path d="M-80 540.55l4.64 14.27h-9.28z" stroke="#3a414a" fill="#3a414a"/><path d="M-80 659.5v.5M96.6 555.32V659.5" stroke="#3a414a" fill="none"/><path d="M96.6 540.55l4.65 14.27h-9.27z" stroke="#3a414a" fill="#3a414a"/><path d="M96.6 659.5v.5" stroke="#3a414a" fill="none"/><path d="M-263.4 666a6 6 0 0 1 6-6h228a6 6 0 0 1 6 6v48a6 6 0 0 1-6 6h-228a6 6 0 0 1-6-6z" stroke="#000" stroke-opacity="0" fill="#fff" fill-opacity="0"/><use xlink:href="#g" transform="matrix(1,0,0,1,-258.3855989762769,665) translate(84.75308641975309 30.27777777777778)"/><path d="M-640 115.86a6 6 0 0 1 6-6h128a6 6 0 0 1 6 6v48a6 6 0 0 1-6 6h-128a6 6 0 0 1-6-6z" stroke="#000" stroke-opacity="0" fill="#fff" fill-opacity="0"/><use xlink:href="#h" transform="matrix(1,0,0,1,-635,114.86363636363637) translate(29.876543209876544 30.27777777777778)"/><path d="M-640 464.7a6 6 0 0 1 6-6h128a6 6 0 0 1 6 6v48a6 6 0 0 1-6 6h-128a6 6 0 0 1-6-6z" stroke="#000" stroke-opacity="0" fill="#fff" fill-opacity="0"/><use xlink:href="#i" transform="matrix(1,0,0,1,-635,463.7045454545455) translate(40.308641975308646 30.27777777777778)"/><path d="M-599.75 318.22a.25.25 0 0 1 .25-.25h809a.25.25 0 0 1 .25.25.25.25 0 0 1-.25.25h-809a.25.25 0 0 1-.25-.25z" fill="none"/><path d="M-589.5 317.97h9.98m5 0h9.98m5 0h9.98m5 0h9.98m5 0h9.98m5 0h9.98m5 0h9.98m5 0h10m4.98 0h10m4.98 0h10m4.98 0h10m4.98 0h10m5 0h9.97m5 0h10m4.98 0h10m4.98 0h10m5 0h9.98m5 0h9.98m5 0h9.98m5 0h9.98m5 0h10m4.98 0h10m4.98 0h10m4.98 0h10m4.98 0h10m5 0h9.97m5 0h10m5 0h9.97m5 0h10m4.98 0h10m4.98 0h10m4.98 0h10m5 0h9.98m5 0h9.98m5 0h10m4.98 0h10m4.98 0h10m4.98 0h10m4.98 0h10m5 0h9.97m5 0h9.98m5 0h10m4.98 0h10m5 0h9.98m5 0h9.98m5 0h9.98m5 0h9.98m5 0h9.98m5 0h10m4.98 0h10m4.98 0h10m4.98 0h10m5 0h9.97m5 0h5.08l.03.02h.05l.03.04.02.03.02.03.02.04v.15l-.02.03-.02.03-.02.03-.03.02-.04.02h-.02l-.04.02h-5.04m-5 0h-9.97m-5 0h-10m-4.98 0h-10m-4.98 0h-10m-4.98 0h-10m-5 0h-9.98m-5 0h-9.98m-5 0h-10m-4.98 0h-10m-4.98 0h-10m-4.98 0h-10m-4.98 0h-10m-4.98 0h-10m-5 0h-9.97m-5 0h-10m-4.98 0h-10m-5 0h-9.98m-5 0h-9.98m-5 0h-9.98m-5 0h-9.98m-5 0h-9.98m-5 0h-10m-4.98 0h-10m-4.98 0h-10m-4.98 0h-10m-5 0H-185m-5 0h-10m-5 0h-9.97m-5 0h-10m-4.98 0h-10m-4.98 0h-10m-4.98 0h-10m-5 0h-9.98m-5 0h-9.98m-5 0h-10m-4.98 0h-10m-4.98 0h-10m-4.98 0h-10m-4.98 0h-10m-5 0h-9.97m-5 0h-10m-4.98 0h-10m-4.98 0h-10m-5 0h-9.98m-5 0h-9.98m-5 0h-9.98m-5 0h-9.98m-5 0h-10m-4.98 0h-10m-4.98 0h-10m-4.98 0h-10m-4.98 0h-10m-5 0h-9.97m-5 0h-5.08l-.03-.02-.05-.02-.03-.03-.02-.04-.02-.03-.02-.04v-.16l.02-.04.02-.03.02-.03.03-.03h.04l.02-.02h5.08" stroke="#3a414a" stroke-width=".5" fill="none"/><path d="M400 727.43a6 6 0 0 1 6-6h348a6 6 0 0 1 6 6v88a6 6 0 0 1-6 6H406a6 6 0 0 1-6-6z" stroke="#3a414a" fill="#fff"/><use xlink:href="#j" transform="matrix(1,0,0,1,412.00000000000006,733.4318181818182) translate(0 71.13585777777777)"/><use xlink:href="#k" transform="matrix(1,0,0,1,412.00000000000006,733.4318181818182) translate(57.8395061728395 71.13585777777777)"/><use xlink:href="#l" transform="matrix(1,0,0,1,412.00000000000006,733.4318181818182) translate(94.87654320987653 71.13585777777777)"/><use xlink:href="#m" transform="matrix(1,0,0,1,412.00000000000006,733.4318181818182) translate(179.93827160493825 71.13585777777777)"/><path d="M483.12 498.57H436.1a6 6 0 0 0-6 6v215.86" stroke="#3a414a" fill="none"/><path d="M497.88 498.57l-14.26 4.63v-9.27z" stroke="#3a414a" fill="#3a414a"/><path d="M430.6 720.93h-1v-.5h1z" stroke="#3a414a" stroke-width=".05" fill="#3a414a"/><path d="M720 555.32V584a6 6 0 0 1-6 6H565c0-2.76-2.24-5-5-5s-5 2.24-5 5h-53a6 6 0 0 0-6 6v124.43" stroke="#3a414a" fill="none"/><path d="M720 540.55l4.63 14.27h-9.26z" stroke="#3a414a" fill="#3a414a"/><path d="M496.5 720.93h-1v-.5h1z" stroke="#3a414a" stroke-width=".05" fill="#3a414a"/><path d="M880 555.32V585c-2.76 0-5 2.24-5 5s2.24 5 5 5v28.38a6 6 0 0 1-6 6H596.4a6 6 0 0 0-6 6v21.05c-2.75 0-5 2.24-5 5s2.25 5 5 5v54" stroke="#3a414a" fill="none"/><path d="M880 540.55l4.63 14.27h-9.26z" stroke="#3a414a" fill="#3a414a"/><path d="M590.9 720.93h-1v-.5h1z" stroke="#3a414a" stroke-width=".05" fill="#3a414a"/><path d="M1060 555.32V565c-2.76 0-5 2.24-5 5s2.24 5 5 5v99a6 6 0 0 1-6 6h-76.38c0-2.76-2.24-5-5-5s-5 2.24-5 5h-55.9c0-2.76-2.24-5-5-5s-5 2.24-5 5H679.67a6 6 0 0 0-6 6v34.43" stroke="#3a414a" fill="none"/><path d="M1060 540.55l4.63 14.27h-9.27z" stroke="#3a414a" fill="#3a414a"/><path d="M674.17 720.93h-1v-.5h1z" stroke="#3a414a" stroke-width=".05" fill="#3a414a"/><defs><path fill="#3a414a" d="M137-138c1-29-70-34-71-4 15 46 118 7 119 86 1 83-164 76-172 9l43-7c4 19 20 25 44 25 33 8 57-30 24-41C81-84 22-81 20-136c-2-80 154-74 161-7" id="n"/><path fill="#3a414a" d="M85 4C-2 5 27-109 22-190h50c7 57-23 150 33 157 60-5 35-97 40-157h50l1 190h-47c-2-12 1-28-3-38-12 25-28 42-61 42" id="o"/><path fill="#3a414a" d="M135-194c52 0 70 43 70 98 0 56-19 99-73 100-30 1-46-15-58-35L72 0H24l1-261h50v104c11-23 29-37 60-37zM114-30c31 0 40-27 40-66 0-37-7-63-39-63s-41 28-41 65c0 36 8 64 40 64" id="p"/><path fill="#3a414a" d="M135-194c87-1 58 113 63 194h-50c-7-57 23-157-34-157-59 0-34 97-39 157H25l-1-190h47c2 12-1 28 3 38 12-26 28-41 61-42" id="q"/><path fill="#3a414a" d="M185-48c-13 30-37 53-82 52C43 2 14-33 14-96s30-98 90-98c62 0 83 45 84 108H66c0 31 8 55 39 56 18 0 30-7 34-22zm-45-69c5-46-57-63-70-21-2 6-4 13-4 21h74" id="r"/><path fill="#3a414a" d="M115-3C79 11 28 4 28-45v-112H4v-33h27l15-45h31v45h36v33H77v99c-1 23 16 31 38 25v30" id="s"/><g id="a"><use transform="matrix(0.06172839506172839,0,0,0.06172839506172839,0,0)" xlink:href="#n"/><use transform="matrix(0.06172839506172839,0,0,0.06172839506172839,12.345679012345679,0)" xlink:href="#o"/><use transform="matrix(0.06172839506172839,0,0,0.06172839506172839,25.864197530864196,0)" xlink:href="#p"/><use transform="matrix(0.06172839506172839,0,0,0.06172839506172839,39.382716049382715,0)" xlink:href="#q"/><use transform="matrix(0.06172839506172839,0,0,0.06172839506172839,52.901234567901234,0)" xlink:href="#r"/><use transform="matrix(0.06172839506172839,0,0,0.06172839506172839,65.24691358024691,0)" xlink:href="#s"/></g><path fill="#3a414a" d="M135-143c-3-34-86-38-87 0 15 53 115 12 119 90S17 21 10-45l28-5c4 36 97 45 98 0-10-56-113-15-118-90-4-57 82-63 122-42 12 7 21 19 24 35" id="t"/><path fill="#3a414a" d="M84 4C-5 8 30-112 23-190h32v120c0 31 7 50 39 49 72-2 45-101 50-169h31l1 190h-30c-1-10 1-25-2-33-11 22-28 36-60 37" id="u"/><path fill="#3a414a" d="M115-194c53 0 69 39 70 98 0 66-23 100-70 100C84 3 66-7 56-30L54 0H23l1-261h32v101c10-23 28-34 59-34zm-8 174c40 0 45-34 45-75 0-40-5-75-45-74-42 0-51 32-51 76 0 43 10 73 51 73" id="v"/><path fill="#3a414a" d="M117-194c89-4 53 116 60 194h-32v-121c0-31-8-49-39-48C34-167 62-67 57 0H25l-1-190h30c1 10-1 24 2 32 11-22 29-35 61-36" id="w"/><path fill="#3a414a" d="M100-194c63 0 86 42 84 106H49c0 40 14 67 53 68 26 1 43-12 49-29l28 8c-11 28-37 45-77 45C44 4 14-33 15-96c1-61 26-98 85-98zm52 81c6-60-76-77-97-28-3 7-6 17-6 28h103" id="x"/><path fill="#3a414a" d="M59-47c-2 24 18 29 38 22v24C64 9 27 4 27-40v-127H5v-23h24l9-43h21v43h35v23H59v120" id="y"/><g id="b"><use transform="matrix(0.06172839506172839,0,0,0.06172839506172839,0,0)" xlink:href="#t"/><use transform="matrix(0.06172839506172839,0,0,0.06172839506172839,11.11111111111111,0)" xlink:href="#u"/><use transform="matrix(0.06172839506172839,0,0,0.06172839506172839,23.45679012345679,0)" xlink:href="#v"/><use transform="matrix(0.06172839506172839,0,0,0.06172839506172839,35.80246913580247,0)" xlink:href="#w"/><use transform="matrix(0.06172839506172839,0,0,0.06172839506172839,48.148148148148145,0)" xlink:href="#x"/><use transform="matrix(0.06172839506172839,0,0,0.06172839506172839,60.49382716049382,0)" xlink:href="#y"/></g><path fill="#3a414a" d="M108 0H70L1-190h34L89-25l56-165h34" id="z"/><path fill="#3a414a" d="M141-36C126-15 110 5 73 4 37 3 15-17 15-53c-1-64 63-63 125-63 3-35-9-54-41-54-24 1-41 7-42 31l-33-3c5-37 33-52 76-52 45 0 72 20 72 64v82c-1 20 7 32 28 27v20c-31 9-61-2-59-35zM48-53c0 20 12 33 32 33 41-3 63-29 60-74-43 2-92-5-92 41" id="A"/><path fill="#3a414a" d="M24 0v-261h32V0H24" id="B"/><path fill="#3a414a" d="M24-231v-30h32v30H24zM24 0v-190h32V0H24" id="C"/><path fill="#3a414a" d="M85-194c31 0 48 13 60 33l-1-100h32l1 261h-30c-2-10 0-23-3-31C134-8 116 4 85 4 32 4 16-35 15-94c0-66 23-100 70-100zm9 24c-40 0-46 34-46 75 0 40 6 74 45 74 42 0 51-32 51-76 0-42-9-74-50-73" id="D"/><path fill="#3a414a" d="M100-194c62-1 85 37 85 99 1 63-27 99-86 99S16-35 15-95c0-66 28-99 85-99zM99-20c44 1 53-31 53-75 0-43-8-75-51-75s-53 32-53 75 10 74 51 75" id="E"/><path fill="#3a414a" d="M114-163C36-179 61-72 57 0H25l-1-190h30c1 12-1 29 2 39 6-27 23-49 58-41v29" id="F"/><g id="c"><use transform="matrix(0.06172839506172839,0,0,0.06172839506172839,0,0)" xlink:href="#z"/><use transform="matrix(0.06172839506172839,0,0,0.06172839506172839,11.11111111111111,0)" xlink:href="#A"/><use transform="matrix(0.06172839506172839,0,0,0.06172839506172839,23.45679012345679,0)" xlink:href="#B"/><use transform="matrix(0.06172839506172839,0,0,0.06172839506172839,28.333333333333336,0)" xlink:href="#C"/><use transform="matrix(0.06172839506172839,0,0,0.06172839506172839,33.20987654320988,0)" xlink:href="#D"/><use transform="matrix(0.06172839506172839,0,0,0.06172839506172839,45.55555555555556,0)" xlink:href="#A"/><use transform="matrix(0.06172839506172839,0,0,0.06172839506172839,57.901234567901234,0)" xlink:href="#y"/><use transform="matrix(0.06172839506172839,0,0,0.06172839506172839,64.07407407407408,0)" xlink:href="#E"/><use transform="matrix(0.06172839506172839,0,0,0.06172839506172839,76.41975308641976,0)" xlink:href="#F"/></g><path fill="#3a414a" d="M210-169c-67 3-38 105-44 169h-31v-121c0-29-5-50-35-48C34-165 62-65 56 0H25l-1-190h30c1 10-1 24 2 32 10-44 99-50 107 0 11-21 27-35 58-36 85-2 47 119 55 194h-31v-121c0-29-5-49-35-48" id="G"/><g id="d"><use transform="matrix(0.06172839506172839,0,0,0.06172839506172839,0,0)" xlink:href="#G"/><use transform="matrix(0.06172839506172839,0,0,0.06172839506172839,18.456790123456788,0)" xlink:href="#C"/><use transform="matrix(0.06172839506172839,0,0,0.06172839506172839,23.33333333333333,0)" xlink:href="#w"/><use transform="matrix(0.06172839506172839,0,0,0.06172839506172839,35.679012345679006,0)" xlink:href="#x"/><use transform="matrix(0.06172839506172839,0,0,0.06172839506172839,48.02469135802468,0)" xlink:href="#F"/></g><path fill="#3a414a" d="M160-131c35 5 61 23 61 61C221 17 115-2 30 0v-248c76 3 177-17 177 60 0 33-19 50-47 57zm-97-11c50-1 110 9 110-42 0-47-63-36-110-37v79zm0 115c55-2 124 14 124-45 0-56-70-42-124-44v89" id="H"/><path fill="#3a414a" d="M96-169c-40 0-48 33-48 73s9 75 48 75c24 0 41-14 43-38l32 2c-6 37-31 61-74 61-59 0-76-41-82-99-10-93 101-131 147-64 4 7 5 14 7 22l-32 3c-4-21-16-35-41-35" id="I"/><path fill="#3a414a" d="M143 0L79-87 56-68V0H24v-261h32v163l83-92h37l-77 82L181 0h-38" id="J"/><path fill="#3a414a" d="M106-169C34-169 62-67 57 0H25v-261h32l-1 103c12-21 28-36 61-36 89 0 53 116 60 194h-32v-121c2-32-8-49-39-48" id="K"/><g id="e"><use transform="matrix(0.06172839506172839,0,0,0.06172839506172839,0,0)" xlink:href="#H"/><use transform="matrix(0.06172839506172839,0,0,0.06172839506172839,14.814814814814813,0)" xlink:href="#B"/><use transform="matrix(0.06172839506172839,0,0,0.06172839506172839,19.691358024691354,0)" xlink:href="#E"/><use transform="matrix(0.06172839506172839,0,0,0.06172839506172839,32.03703703703703,0)" xlink:href="#I"/><use transform="matrix(0.06172839506172839,0,0,0.06172839506172839,43.14814814814814,0)" xlink:href="#J"/><use transform="matrix(0.06172839506172839,0,0,0.06172839506172839,54.25925925925925,0)" xlink:href="#I"/><use transform="matrix(0.06172839506172839,0,0,0.06172839506172839,65.37037037037037,0)" xlink:href="#K"/><use transform="matrix(0.06172839506172839,0,0,0.06172839506172839,77.71604938271605,0)" xlink:href="#A"/><use transform="matrix(0.06172839506172839,0,0,0.06172839506172839,90.06172839506173,0)" xlink:href="#C"/><use transform="matrix(0.06172839506172839,0,0,0.06172839506172839,94.93827160493828,0)" xlink:href="#w"/></g><g id="f"><use transform="matrix(0.06172839506172839,0,0,0.06172839506172839,0,0)" xlink:href="#w"/><use transform="matrix(0.06172839506172839,0,0,0.06172839506172839,12.345679012345679,0)" xlink:href="#E"/><use transform="matrix(0.06172839506172839,0,0,0.06172839506172839,24.691358024691358,0)" xlink:href="#D"/><use transform="matrix(0.06172839506172839,0,0,0.06172839506172839,37.03703703703704,0)" xlink:href="#x"/></g><path fill="#3a414a" d="M33 0v-248h34V0H33" id="L"/><path fill="#3a414a" d="M115-194c55 1 70 41 70 98S169 2 115 4C84 4 66-9 55-30l1 105H24l-1-265h31l2 30c10-21 28-34 59-34zm-8 174c40 0 45-34 45-75s-6-73-45-74c-42 0-51 32-51 76 0 43 10 73 51 73" id="M"/><g id="g"><use transform="matrix(0.06172839506172839,0,0,0.06172839506172839,0,0)" xlink:href="#L"/><use transform="matrix(0.06172839506172839,0,0,0.06172839506172839,6.172839506172839,0)" xlink:href="#w"/><use transform="matrix(0.06172839506172839,0,0,0.06172839506172839,18.51851851851852,0)" xlink:href="#M"/><use transform="matrix(0.06172839506172839,0,0,0.06172839506172839,30.864197530864196,0)" xlink:href="#u"/><use transform="matrix(0.06172839506172839,0,0,0.06172839506172839,43.20987654320987,0)" xlink:href="#y"/><use transform="matrix(0.06172839506172839,0,0,0.06172839506172839,49.382716049382715,0)" xlink:href="#t"/></g><path fill="#3a414a" d="M197 0v-115H63V0H30v-248h33v105h134v-105h34V0h-34" id="N"/><g id="h"><use transform="matrix(0.06172839506172839,0,0,0.06172839506172839,0,0)" xlink:href="#N"/><use transform="matrix(0.06172839506172839,0,0,0.06172839506172839,15.987654320987653,0)" xlink:href="#C"/><use transform="matrix(0.06172839506172839,0,0,0.06172839506172839,20.864197530864196,0)" xlink:href="#D"/><use transform="matrix(0.06172839506172839,0,0,0.06172839506172839,33.20987654320987,0)" xlink:href="#D"/><use transform="matrix(0.06172839506172839,0,0,0.06172839506172839,45.55555555555555,0)" xlink:href="#x"/><use transform="matrix(0.06172839506172839,0,0,0.06172839506172839,57.90123456790123,0)" xlink:href="#w"/></g><g id="i"><use transform="matrix(0.06172839506172839,0,0,0.06172839506172839,0,0)" xlink:href="#L"/><use transform="matrix(0.06172839506172839,0,0,0.06172839506172839,6.172839506172839,0)" xlink:href="#w"/><use transform="matrix(0.06172839506172839,0,0,0.06172839506172839,18.51851851851852,0)" xlink:href="#M"/><use transform="matrix(0.06172839506172839,0,0,0.06172839506172839,30.864197530864196,0)" xlink:href="#u"/><use transform="matrix(0.06172839506172839,0,0,0.06172839506172839,43.20987654320987,0)" xlink:href="#y"/></g><path fill="#3a414a" d="M63-220v92h138v28H63V0H30v-248h175v28H63" id="O"/><g id="j"><use transform="matrix(0.06172839506172839,0,0,0.06172839506172839,0,0)" xlink:href="#O"/><use transform="matrix(0.06172839506172839,0,0,0.06172839506172839,13.518518518518517,0)" xlink:href="#F"/><use transform="matrix(0.06172839506172839,0,0,0.06172839506172839,20.864197530864196,0)" xlink:href="#E"/><use transform="matrix(0.06172839506172839,0,0,0.06172839506172839,33.20987654320987,0)" xlink:href="#G"/></g><g id="k"><use transform="matrix(0.06172839506172839,0,0,0.06172839506172839,0,0)" xlink:href="#y"/><use transform="matrix(0.06172839506172839,0,0,0.06172839506172839,6.172839506172839,0)" xlink:href="#K"/><use transform="matrix(0.06172839506172839,0,0,0.06172839506172839,18.51851851851852,0)" xlink:href="#x"/></g><path fill="#3a414a" d="M141 0L90-78 38 0H4l68-98-65-92h35l48 74 47-74h35l-64 92 68 98h-35" id="P"/><g id="l"><use transform="matrix(0.06172839506172839,0,0,0.06172839506172839,0,0)" xlink:href="#x"/><use transform="matrix(0.06172839506172839,0,0,0.06172839506172839,12.345679012345679,0)" xlink:href="#P"/><use transform="matrix(0.06172839506172839,0,0,0.06172839506172839,23.45679012345679,0)" xlink:href="#y"/><use transform="matrix(0.06172839506172839,0,0,0.06172839506172839,29.62962962962963,0)" xlink:href="#x"/><use transform="matrix(0.06172839506172839,0,0,0.06172839506172839,41.97530864197531,0)" xlink:href="#F"/><use transform="matrix(0.06172839506172839,0,0,0.06172839506172839,49.32098765432099,0)" xlink:href="#w"/><use transform="matrix(0.06172839506172839,0,0,0.06172839506172839,61.666666666666664,0)" xlink:href="#A"/><use transform="matrix(0.06172839506172839,0,0,0.06172839506172839,74.01234567901234,0)" xlink:href="#B"/></g><path fill="#3a414a" d="M206 0h-36l-40-164L89 0H53L-1-190h32L70-26l43-164h34l41 164 42-164h31" id="Q"/><g id="m"><use transform="matrix(0.06172839506172839,0,0,0.06172839506172839,0,0)" xlink:href="#Q"/><use transform="matrix(0.06172839506172839,0,0,0.06172839506172839,15.987654320987653,0)" xlink:href="#E"/><use transform="matrix(0.06172839506172839,0,0,0.06172839506172839,28.333333333333332,0)" xlink:href="#F"/><use transform="matrix(0.06172839506172839,0,0,0.06172839506172839,35.67901234567901,0)" xlink:href="#B"/><use transform="matrix(0.06172839506172839,0,0,0.06172839506172839,40.55555555555556,0)" xlink:href="#D"/></g></defs></g></svg>