<svg xmlns="http://www.w3.org/2000/svg" xmlns:xlink="http://www.w3.org/1999/xlink" xmlns:lucid="lucid" width="1129.73" height="824.05"><g transform="translate(80.49999999999999 161)" lucid:page-tab-id="0_0"><path d="M660 66a6 6 0 0 1 6-6h128a6 6 0 0 1 6 6v68a6 6 0 0 1-6 6H666a6 6 0 0 1-6-6z" stroke="#282c33" stroke-width="2" fill="#fff"/><use xlink:href="#a" transform="matrix(1,0,0,1,665,65) translate(22.407407407407412 39.65277777777778)"/><use xlink:href="#b" transform="matrix(1,0,0,1,665,65) translate(95.24691358024691 39.65277777777778)"/><path d="M760 166a6 6 0 0 1 6-6h128a6 6 0 0 1 6 6v68a6 6 0 0 1-6 6H766a6 6 0 0 1-6-6z" stroke="#282c33" stroke-width="2" fill="#fff"/><use xlink:href="#a" transform="matrix(1,0,0,1,765,165) translate(22.407407407407412 39.65277777777778)"/><use xlink:href="#c" transform="matrix(1,0,0,1,765,165) translate(95.24691358024691 39.65277777777778)"/><path d="M800 346a6 6 0 0 1 6-6h128a6 6 0 0 1 6 6v68a6 6 0 0 1-6 6H806a6 6 0 0 1-6-6z" stroke="#282c33" stroke-width="2" fill="#fff"/><use xlink:href="#a" transform="matrix(1,0,0,1,805,345) translate(22.407407407407412 39.65277777777778)"/><use xlink:href="#d" transform="matrix(1,0,0,1,805,345) translate(95.24691358024691 39.65277777777778)"/><path d="M760 526a6 6 0 0 1 6-6h128a6 6 0 0 1 6 6v68a6 6 0 0 1-6 6H766a6 6 0 0 1-6-6z" stroke="#282c33" stroke-width="2" fill="#fff"/><use xlink:href="#a" transform="matrix(1,0,0,1,765,525) translate(16.234567901234577 39.65277777777778)"/><use xlink:href="#e" transform="matrix(1,0,0,1,765,525) translate(89.07407407407408 39.65277777777778)"/><path d="M809.7 320a6 6 0 0 1-6-6v-48a6 6 0 0 1 6-6h40.6a6 6 0 0 1 6 6v48a6 6 0 0 1-6 6z" stroke="#000" stroke-opacity="0" fill="#fff" fill-opacity="0"/><use xlink:href="#f" transform="matrix(6.123233995736766e-17,-1,1,6.123233995736766e-17,808.7131970522087,315) translate(6.481481481481492 26.708333333333325)"/><use xlink:href="#g" transform="matrix(6.123233995736766e-17,-1,1,6.123233995736766e-17,808.7131970522087,315) translate(21.296296296296298 26.708333333333325)"/><use xlink:href="#h" transform="matrix(6.123233995736766e-17,-1,1,6.123233995736766e-17,808.7131970522087,315) translate(36.11111111111111 26.708333333333325)"/><path d="M809.7 500a6 6 0 0 1-6-6v-48a6 6 0 0 1 6-6h40.6a6 6 0 0 1 6 6v48a6 6 0 0 1-6 6z" stroke="#000" stroke-opacity="0" fill="#fff" fill-opacity="0"/><use xlink:href="#f" transform="matrix(6.123233995736766e-17,-1,1,6.123233995736766e-17,808.7131970522087,495) translate(6.481481481481492 26.708333333333325)"/><use xlink:href="#g" transform="matrix(6.123233995736766e-17,-1,1,6.123233995736766e-17,808.7131970522087,495) translate(21.296296296296298 26.708333333333325)"/><use xlink:href="#h" transform="matrix(6.123233995736766e-17,-1,1,6.123233995736766e-17,808.7131970522087,495) translate(36.11111111111111 26.708333333333325)"/><path d="M340 286a6 6 0 0 1 6-6h148a6 6 0 0 1 6 6v48a6 6 0 0 1-6 6H346a6 6 0 0 1-6-6z" stroke="#3a414a" fill="#fff"/><path d="M356 280v60m128-60v60" stroke="#3a414a" fill="none"/><use xlink:href="#i" transform="matrix(1,0,0,1,365,285) translate(20.46296296296297 29.444444444444443)"/><path d="M325 366.26a6 6 0 0 1 6-6h168a6 6 0 0 1 6 6v94a6 6 0 0 1-6 6H331a6 6 0 0 1-6-6z" stroke="#000" stroke-opacity="0" stroke-width="2" fill="#fff" fill-opacity="0"/><use xlink:href="#j" transform="matrix(1,0,0,1,330,365.2610062861221) translate(40.41666666666667 19)"/><use xlink:href="#k" transform="matrix(1,0,0,1,330,365.2610062861221) translate(14.472222222222229 42.99999999999999)"/><use xlink:href="#l" transform="matrix(1,0,0,1,330,365.2610062861221) translate(96.63888888888889 42.99999999999999)"/><use xlink:href="#m" transform="matrix(1,0,0,1,330,365.2610062861221) translate(28.444444444444457 66.99999999999999)"/><use xlink:href="#n" transform="matrix(1,0,0,1,330,365.2610062861221) translate(88.33333333333334 66.99999999999999)"/><use xlink:href="#o" transform="matrix(1,0,0,1,330,365.2610062861221) translate(113.77777777777777 66.99999999999999)"/><use xlink:href="#p" transform="matrix(1,0,0,1,330,365.2610062861221) translate(57.80555555555556 90.99999999999999)"/><path d="M520.34 259.63l108.6-118.55M520.35 259.62l-.35.38" stroke="#3a414a" fill="none"/><path d="M638.9 130.2l-6.2 13.64-6.85-6.26z" stroke="#3a414a" fill="#3a414a"/><path d="M520.47 299.83L724.6 225.6M520.48 299.82l-.48.18" stroke="#3a414a" fill="none"/><path d="M738.48 220.55l-11.82 9.23-3.17-8.7z" stroke="#3a414a" fill="#3a414a"/><path d="M520.48 320.13l183.7 49.68M520.5 320.13l-.5-.13" stroke="#3a414a" fill="none"/><path d="M718.44 373.66l-14.98.75 2.42-8.94z" stroke="#3a414a" fill="#3a414a"/><path d="M520.4 360.32l206.92 169.3M520.4 360.32l-.4-.32" stroke="#3a414a" fill="none"/><path d="M738.75 538.98l-13.98-5.45 5.87-7.18z" stroke="#3a414a" fill="#3a414a"/><path d="M560.28 479.58l1.12-1.66m2.23-3.34l2.24-3.33m2.23-3.34l2.24-3.32m2.23-3.34l2.24-3.33m2.24-3.33l2.24-3.33m2.23-3.34l2.25-3.33m2.23-3.34l2.24-3.33m2.23-3.34l2.24-3.33m2.22-3.34l2.24-3.34m2.05-3.45l1.95-3.5m1.8-3.6l1.75-3.6m1.62-3.68l1.52-3.7m1.53-3.73l1.52-3.72m1.48-3.73l.95-2.52.42-1.25m1.28-3.8l1.27-3.8m1.28-3.82l1.27-3.8m1.28-3.8l.23-.7.82-3.2m1-3.88l1-3.9m1-3.88l.7-2.8.2-1.1m.7-3.96l.7-3.95m.65-3.97l.4-4m.37-4l.1-4m-.03-4.02l-.1-4m-.12-4l-.12-4.02m-.1-4.02l-.12-4m-.1-4.03l-.12-4m-.1-4.02l-.13-4m-.1-4.02l-.03-.62-.15-.96-.45-2.38m-.87-3.92l-.07-.3-.84-3.04-.16-.52m-1.3-3.8l-.5-1.4-.98-2.33m-1.72-3.62l-.98-1.88-.94-1.65m-2.1-3.4l-1.6-2.3-.74-.98m-2.5-3.15l-.55-.67-2.1-2.34m-2.8-2.85l-2.23-2.1-.73-.62m-3.05-2.6l-2.43-1.93-.73-.54m-3.26-2.36l-3.34-2.22m-3.4-2.13l-2.78-1.68-.68-.37m-3.5-1.94l-2.58-1.42-.97-.48m-3.6-1.8l-3.6-1.78m-3.63-1.72l-3.65-1.66m-3.65-1.67l-3.65-1.66m-3.65-1.67l-3.66-1.67m-3.64-1.66l-3.65-1.67m-3.65-1.66l-3.65-1.67m-3.65-1.67l-3.65-1.66m-3.66-1.67l-1.82-.83" stroke="#3a414a" stroke-linejoin="round" fill="none"/><path d="M560.3 479.57l-.3.43" stroke="#3a414a" fill="none"/><path d="M506.42 185.78l14.72 2.87-4.5 8.1z" stroke="#3a414a" fill="#3a414a"/><path d="M325 126a6 6 0 0 1 6-6h168a6 6 0 0 1 6 6v118a6 6 0 0 1-6 6H331a6 6 0 0 1-6-6z" stroke="#000" stroke-opacity="0" stroke-width="2" fill="#fff" fill-opacity="0"/><use xlink:href="#q" transform="matrix(1,0,0,1,330,125) translate(15.722222222222229 27.25)"/><use xlink:href="#r" transform="matrix(1,0,0,1,330,125) translate(58.94444444444444 27.25)"/><use xlink:href="#s" transform="matrix(1,0,0,1,330,125) translate(139.88888888888889 27.25)"/><use xlink:href="#t" transform="matrix(1,0,0,1,330,125) translate(5.111111111111114 51.25)"/><use xlink:href="#u" transform="matrix(1,0,0,1,330,125) translate(94.94444444444444 51.25)"/><use xlink:href="#v" transform="matrix(1,0,0,1,330,125) translate(116 51.25)"/><use xlink:href="#w" transform="matrix(1,0,0,1,330,125) translate(15.0277777777778 75.25)"/><use xlink:href="#x" transform="matrix(1,0,0,1,330,125) translate(31.694444444444464 75.25)"/><use xlink:href="#y" transform="matrix(1,0,0,1,330,125) translate(107.25 75.25)"/><use xlink:href="#z" transform="matrix(1,0,0,1,330,125) translate(10.055555555555571 99.25)"/><use xlink:href="#A" transform="matrix(1,0,0,1,330,125) translate(46.66666666666668 99.25)"/><use xlink:href="#B" transform="matrix(1,0,0,1,330,125) translate(101.05555555555556 99.25)"/><path d="M159.78 118.45l-12.74 26.76" stroke="#3a414a" fill="none"/><path d="M160.2 118.67l-.85-.4.12-.27h1.06z" stroke="#3a414a" stroke-width=".05" fill="#3a414a"/><path d="M140.7 158.54l1.94-14.87 8.37 3.98z" stroke="#3a414a" fill="#3a414a"/><path d="M660 322.08a6 6 0 0 1 6-6h108a6 6 0 0 1 6 6v46a6 6 0 0 1-6 6H666a6 6 0 0 1-6-6z" stroke="#000" stroke-opacity="0" stroke-width="2" fill="#fff" fill-opacity="0"/><path d="M683.6-59.5l.4 1.97m.83 3.97l.82 3.97m.8 3.97l.83 3.97m.82 3.97l.82 3.97m.82 3.97l.8 3.97m.83 3.97l.82 3.97m.8 3.96l.83 3.97m.8 3.97l.83 3.96m.82 3.97l.4 1.98" stroke="#3a414a" stroke-linejoin="round" fill="none"/><path d="M683.6-59.5l-.1-.5" stroke="#3a414a" fill="none"/><path d="M699.67 18.41L692.25 5.4l9.08-1.87z" stroke="#3a414a" fill="#3a414a"/><path d="M799.78-59.55l-.9 1.8m-1.8 3.6l-1.8 3.6m-1.8 3.62l-1.82 3.6m-1.8 3.6l-1.8 3.6m-1.8 3.62l-1.8 3.6m-1.8 3.6l-1.8 3.6m-1.82 3.6l-1.8 3.62m-1.8 3.6l-1.8 3.6m-1.8 3.6l-1.8 3.62m-1.8 3.6l-.9 1.8" stroke="#3a414a" stroke-linejoin="round" fill="none"/><path d="M799.77-59.54L800-60" stroke="#3a414a" fill="none"/><path d="M760.72 18.55l2.24-14.83 8.3 4.15z" stroke="#3a414a" fill="#3a414a"/><path d="M879.58.28l-1.64 1.1m-3.28 2.18l-3.28 2.2m-3.28 2.18l-3.3 2.18m-3.27 2.2l-3.28 2.18m-3.28 2.2l-3.3 2.18m-3.27 2.2l-3.28 2.17m-3.28 2.2l-3.28 2.18m-3.3 2.2l-1.63 1.08" stroke="#3a414a" stroke-linejoin="round" fill="none"/><path d="M879.57.28L880 0" stroke="#3a414a" fill="none"/><path d="M821.35 39.1l9.3-11.77 5.14 7.72z" stroke="#3a414a" fill="#3a414a"/><path d="M951.1 70.37l-1.27 1.58m-2.55 3.14l-2.55 3.14m-2.55 3.15l-2.55 3.14m-2.55 3.14l-2.55 3.15m-2.55 3.15l-2.55 3.14m-2.55 3.15l-2.55 3.15m-2.55 3.14l-2.54 3.15m-2.55 3.16l-2.56 3.14m-2.55 3.15l-1.3 1.57" stroke="#3a414a" stroke-linejoin="round" fill="none"/><path d="M951.1 70.38l.32-.4" stroke="#3a414a" fill="none"/><path d="M901.02 132.2l5.38-14 7.2 5.83z" stroke="#3a414a" fill="#3a414a"/><path d="M999.5 160.1l-1.97.4m-3.97.8l-3.97.82m-3.97.8l-3.97.8m-3.96.82l-3.97.8m-3.97.8l-3.96.82m-3.97.8l-3.96.8m-3.97.82l-3.96.8m-3.97.8l-3.97.82m-3.96.8l-2 .4" stroke="#3a414a" stroke-linejoin="round" fill="none"/><path d="M999.5 160.1l.5-.1" stroke="#3a414a" fill="none"/><path d="M921.6 175.95l13.04-7.4 1.85 9.1z" stroke="#3a414a" fill="#3a414a"/><path d="M988.5 239.85l-1.9-.57m-3.77-1.15l-3.77-1.16m-3.77-1.15l-3.8-1.15m-3.76-1.15l-3.77-1.15m-3.78-1.15l-3.78-1.16m-3.77-1.15l-3.77-1.14m-3.78-1.15l-3.77-1.14m-3.77-1.15l-1.9-.57" stroke="#3a414a" stroke-linejoin="round" fill="none"/><path d="M988.48 239.85l.5.15" stroke="#3a414a" fill="none"/><path d="M921.55 219.42l15-.27-2.7 8.87z" stroke="#3a414a" fill="#3a414a"/><path d="M1039.52 320.14l-2 .6m-3.98 1.16l-4 1.17m-3.98 1.17l-3.98 1.16m-4 1.18l-3.98 1.17m-4 1.16l-3.97 1.18m-4 1.17l-3.98 1.17m-4 1.17l-3.97 1.16m-4 1.17l-3.98 1.17m-4 1.17l-1.98.6" stroke="#3a414a" stroke-linejoin="round" fill="none"/><path d="M1039.5 320.14l.5-.14" stroke="#3a414a" fill="none"/><path d="M961.55 343l12.4-8.45 2.6 8.9z" stroke="#3a414a" fill="#3a414a"/><path d="M1046.74 365.23l-1.96.44m-3.93.9l-3.94.88m-3.92.9l-3.93.88m-3.93.9l-3.93.9m-3.94.88l-3.93.9m-3.94.9l-3.94.88m-3.93.9l-3.93.88m-3.93.9l-3.93.88m-3.93.9l-3.92.9m-3.94.88l-1.96.44" stroke="#3a414a" stroke-linejoin="round" fill="none"/><path d="M1046.73 365.23l.5-.12" stroke="#3a414a" fill="none"/><path d="M961.58 384.53l12.9-7.68 2.04 9.04z" stroke="#3a414a" fill="#3a414a"/><path d="M1028.5 440.9l-1.9-.57m-3.77-1.15l-3.77-1.15m-3.77-1.15l-3.8-1.16m-3.76-1.15l-3.77-1.15m-3.78-1.15l-3.78-1.15m-3.77-1.15l-3.77-1.16m-3.78-1.14l-3.77-1.15m-3.77-1.14l-1.9-.58" stroke="#3a414a" stroke-linejoin="round" fill="none"/><path d="M1028.48 440.9l.5.15" stroke="#3a414a" fill="none"/><path d="M961.55 420.47l15-.27-2.7 8.87z" stroke="#3a414a" fill="#3a414a"/><path d="M1019.5 540.12l-1.97.5m-3.98 1l-3.98 1m-3.97.98l-3.98 1m-3.98 1l-3.97.98m-3.98 1l-3.98 1m-3.98 1l-3.98.98m-3.97 1l-4 1m-3.96.98l-3.98 1m-3.98 1l-2 .5" stroke="#3a414a" stroke-linejoin="round" fill="none"/><path d="M1019.5 540.13l.5-.13" stroke="#3a414a" fill="none"/><path d="M941.57 559.6l12.7-7.95 2.26 9z" stroke="#3a414a" fill="#3a414a"/><path d="M999.5 609.8l-2.16-.34m-4.34-.72l-4.33-.7m-4.33-.73l-4.34-.7m-4.33-.72l-4.33-.7m-4.34-.73l-4.33-.7m-4.34-.73l-2.16-.35" stroke="#3a414a" stroke-linejoin="round" fill="none"/><path d="M999.5 609.8l.5.1" stroke="#3a414a" fill="none"/><path d="M941.6 600.26l14.83-2.25-1.5 9.16z" stroke="#3a414a" fill="#3a414a"/><path d="M988.54 660.8l-1.7-1.02m-3.4-2.02l-3.4-2.03m-3.4-2.02l-3.42-2.02m-3.4-2.03l-3.4-2.02m-3.4-2.03l-3.4-2.02m-3.42-2.03l-3.4-2.03m-3.4-2.02l-3.4-2.03m-3.4-2.02l-3.42-2.03m-3.4-2.03l-1.7-1.02" stroke="#3a414a" stroke-linejoin="round" fill="none"/><path d="M988.53 660.8l.44.25" stroke="#3a414a" fill="none"/><path d="M921.4 620.83l14.62 3.3-4.74 7.98z" stroke="#3a414a" fill="#3a414a"/><path d="M660-134a6 6 0 0 1 6-6h148a6 6 0 0 1 6 6v46a6 6 0 0 1-6 6H666a6 6 0 0 1-6-6z" stroke="#000" stroke-opacity="0" stroke-width="2" fill="#fff" fill-opacity="0"/><use xlink:href="#C" transform="matrix(1,0,0,1,665,-135) translate(19.472222222222236 19)"/><use xlink:href="#D" transform="matrix(1,0,0,1,665,-135) translate(70.52777777777777 19)"/><use xlink:href="#E" transform="matrix(1,0,0,1,665,-135) translate(32.30555555555556 42.99999999999999)"/><path d="M60-54a6 6 0 0 1 6-6h188a6 6 0 0 1 6 6v166a6 6 0 0 1-6 6H66a6 6 0 0 1-6-6z" stroke="#000" stroke-opacity="0" stroke-width="2" fill="#fff" fill-opacity="0"/><g><use xlink:href="#F" transform="matrix(1,0,0,1,65.00000000000001,-55) translate(95 21.25)"/><use xlink:href="#G" transform="matrix(1,0,0,1,65.00000000000001,-55) translate(95 45.24999999999999)"/><use xlink:href="#H" transform="matrix(1,0,0,1,65.00000000000001,-55) translate(0.11111111111112848 69.24999999999999)"/><use xlink:href="#I" transform="matrix(1,0,0,1,65.00000000000001,-55) translate(96.66666666666667 69.24999999999999)"/><use xlink:href="#J" transform="matrix(1,0,0,1,65.00000000000001,-55) translate(150 69.24999999999999)"/><use xlink:href="#K" transform="matrix(1,0,0,1,65.00000000000001,-55) translate(30.611111111111114 93.24999999999999)"/><use xlink:href="#L" transform="matrix(1,0,0,1,65.00000000000001,-55) translate(81.66666666666666 93.24999999999999)"/><use xlink:href="#M" transform="matrix(1,0,0,1,65.00000000000001,-55) translate(89.16666666666667 117.24999999999999)"/><use xlink:href="#N" transform="matrix(1,0,0,1,65.00000000000001,-55) translate(2.6666666666666856 141.24999999999997)"/><use xlink:href="#O" transform="matrix(1,0,0,1,65.00000000000001,-55) translate(97.3888888888889 141.24999999999997)"/><use xlink:href="#P" transform="matrix(1,0,0,1,65.00000000000001,-55) translate(139.55555555555554 141.24999999999997)"/><use xlink:href="#Q" transform="matrix(1,0,0,1,65.00000000000001,-55) translate(17.333333333333343 165.24999999999997)"/><use xlink:href="#O" transform="matrix(1,0,0,1,65.00000000000001,-55) translate(62.77777777777778 165.24999999999997)"/><use xlink:href="#R" transform="matrix(1,0,0,1,65.00000000000001,-55) translate(104.94444444444443 165.24999999999997)"/></g><path d="M-60 295.9a6 6 0 0 1 6-6H94a6 6 0 0 1 6 6v34.9a6 6 0 0 1-6 6H-54a6 6 0 0 1-6-6z" stroke="#3a414a" fill="#f2f3f5"/><path d="M-44 289.9v46.9m128-46.9v46.9" stroke="#3a414a" fill="none"/><g><use xlink:href="#S" transform="matrix(1,0,0,1,-34.999999999999986,294.9025157153054) translate(14.938271604938272 22.944444444444443)"/></g><path d="M60 206a6 6 0 0 1 6-6h148a6 6 0 0 1 6 6v34.9a6 6 0 0 1-6 6H66a6 6 0 0 1-6-6z" stroke="#3a414a" fill="#f2f3f5"/><path d="M76 200v46.9M204 200v46.9" stroke="#3a414a" fill="none"/><g><use xlink:href="#S" transform="matrix(1,0,0,1,85.00000000000001,205) translate(14.938271604938272 22.944444444444443)"/></g><path d="M60 366.26a6 6 0 0 1 6-6h148a6 6 0 0 1 6 6v34.9a6 6 0 0 1-6 6H66a6 6 0 0 1-6-6z" stroke="#3a414a" fill="#f2f3f5"/><path d="M76 360.26v46.9m128-46.9v46.9" stroke="#3a414a" fill="none"/><g><use xlink:href="#S" transform="matrix(1,0,0,1,85.00000000000001,365.2610062861221) translate(14.938271604938272 22.944444444444443)"/></g><path d="M209.45 247.6l115.25 44.25" stroke="#3a414a" fill="none"/><path d="M209.3 248.03l-1.64-.62h1.87z" stroke="#3a414a" stroke-width=".05" fill="#3a414a"/><path d="M338.5 297.14l-15-.8 3.33-8.64z" stroke="#3a414a" fill="#3a414a"/><path d="M220.96 383.5l104.14-47.7" stroke="#3a414a" fill="none"/><path d="M221.16 383.93l-.66.3v-1.04l.27-.13z" stroke="#3a414a" stroke-width=".05" fill="#3a414a"/><path d="M338.53 329.66l-11.04 10.16-3.87-8.43z" stroke="#3a414a" fill="#3a414a"/><path d="M101 313.36h222.62" stroke="#3a414a" fill="none"/><path d="M101 313.83h-.5v-.95h.5z" stroke="#3a414a" stroke-width=".05" fill="#3a414a"/><path d="M338.38 313.36L324.12 318v-9.28z" stroke="#3a414a" fill="#3a414a"/><path d="M60 426a6 6 0 0 1 6-6h148a6 6 0 0 1 6 6v46a6 6 0 0 1-6 6H66a6 6 0 0 1-6-6z" stroke="#000" stroke-opacity="0" stroke-width="2" fill="#fff" fill-opacity="0"/><g><use xlink:href="#T" transform="matrix(1,0,0,1,65,425) translate(9.333333333333343 19)"/><use xlink:href="#U" transform="matrix(1,0,0,1,65,425) translate(104.05555555555556 19)"/><use xlink:href="#V" transform="matrix(1,0,0,1,65,425) translate(41.13888888888889 42.99999999999999)"/></g><path d="M305-114a6 6 0 0 1 6-6h208a6 6 0 0 1 6 6V34a6 6 0 0 1-6 6H311a6 6 0 0 1-6-6z" stroke="#000" stroke-opacity="0" stroke-width="2" fill="#fff" fill-opacity="0"/><g><use xlink:href="#W" transform="matrix(1,0,0,1,310,-115) translate(42.861111111111114 30.0625)"/><use xlink:href="#X" transform="matrix(1,0,0,1,310,-115) translate(124.97222222222223 30.0625)"/><use xlink:href="#Y" transform="matrix(1,0,0,1,310,-115) translate(32.3888888888889 54.0625)"/><use xlink:href="#Z" transform="matrix(1,0,0,1,310,-115) translate(50.111111111111114 54.0625)"/><use xlink:href="#aa" transform="matrix(1,0,0,1,310,-115) translate(91.11111111111111 54.0625)"/><use xlink:href="#ab" transform="matrix(1,0,0,1,310,-115) translate(160.94444444444446 54.0625)"/><use xlink:href="#ac" transform="matrix(1,0,0,1,310,-115) translate(25.722222222222243 78.0625)"/><use xlink:href="#ad" transform="matrix(1,0,0,1,310,-115) translate(95.55555555555556 78.0625)"/><use xlink:href="#ae" transform="matrix(1,0,0,1,310,-115) translate(10.777777777777786 102.0625)"/><use xlink:href="#af" transform="matrix(1,0,0,1,310,-115) translate(118.27777777777777 102.0625)"/><use xlink:href="#ag" transform="matrix(1,0,0,1,310,-115) translate(141.55555555555554 102.0625)"/><use xlink:href="#ah" transform="matrix(1,0,0,1,310,-115) translate(169.33333333333331 102.0625)"/><use xlink:href="#ai" transform="matrix(1,0,0,1,310,-115) translate(16.80555555555557 126.0625)"/><use xlink:href="#aj" transform="matrix(1,0,0,1,310,-115) translate(98.80555555555556 126.0625)"/><use xlink:href="#ak" transform="matrix(1,0,0,1,310,-115) translate(134.36111111111111 126.0625)"/><use xlink:href="#al" transform="matrix(1,0,0,1,310,-115) translate(157.63888888888889 126.0625)"/></g><path d="M415 40.5v63.12" stroke="#3a414a" fill="none"/><path d="M415.48 40.5h-.96V40h.96z" stroke="#3a414a" stroke-width=".05" fill="#3a414a"/><path d="M415 118.38l-4.63-14.26h9.26z" stroke="#3a414a" fill="#3a414a"/><defs><path fill="#3a414a" d="M135-143c-3-34-86-38-87 0 15 53 115 12 119 90S17 21 10-45l28-5c4 36 97 45 98 0-10-56-113-15-118-90-4-57 82-63 122-42 12 7 21 19 24 35" id="am"/><path fill="#3a414a" d="M84 4C-5 8 30-112 23-190h32v120c0 31 7 50 39 49 72-2 45-101 50-169h31l1 190h-30c-1-10 1-25-2-33-11 22-28 36-60 37" id="an"/><path fill="#3a414a" d="M115-194c53 0 69 39 70 98 0 66-23 100-70 100C84 3 66-7 56-30L54 0H23l1-261h32v101c10-23 28-34 59-34zm-8 174c40 0 45-34 45-75 0-40-5-75-45-74-42 0-51 32-51 76 0 43 10 73 51 73" id="ao"/><path fill="#3a414a" d="M117-194c89-4 53 116 60 194h-32v-121c0-31-8-49-39-48C34-167 62-67 57 0H25l-1-190h30c1 10-1 24 2 32 11-22 29-35 61-36" id="ap"/><path fill="#3a414a" d="M100-194c63 0 86 42 84 106H49c0 40 14 67 53 68 26 1 43-12 49-29l28 8c-11 28-37 45-77 45C44 4 14-33 15-96c1-61 26-98 85-98zm52 81c6-60-76-77-97-28-3 7-6 17-6 28h103" id="aq"/><path fill="#3a414a" d="M59-47c-2 24 18 29 38 22v24C64 9 27 4 27-40v-127H5v-23h24l9-43h21v43h35v23H59v120" id="ar"/><g id="a"><use transform="matrix(0.06172839506172839,0,0,0.06172839506172839,0,0)" xlink:href="#am"/><use transform="matrix(0.06172839506172839,0,0,0.06172839506172839,11.11111111111111,0)" xlink:href="#an"/><use transform="matrix(0.06172839506172839,0,0,0.06172839506172839,23.45679012345679,0)" xlink:href="#ao"/><use transform="matrix(0.06172839506172839,0,0,0.06172839506172839,35.80246913580247,0)" xlink:href="#ap"/><use transform="matrix(0.06172839506172839,0,0,0.06172839506172839,48.148148148148145,0)" xlink:href="#aq"/><use transform="matrix(0.06172839506172839,0,0,0.06172839506172839,60.49382716049382,0)" xlink:href="#ar"/></g><path fill="#3a414a" d="M27 0v-27h64v-190l-56 39v-29l58-41h29v221h61V0H27" id="as"/><use transform="matrix(0.06172839506172839,0,0,0.06172839506172839,0,0)" xlink:href="#as" id="b"/><path fill="#3a414a" d="M101-251c82-7 93 87 43 132L82-64C71-53 59-42 53-27h129V0H18c2-99 128-94 128-182 0-28-16-43-45-43s-46 15-49 41l-32-3c6-41 34-60 81-64" id="at"/><use transform="matrix(0.06172839506172839,0,0,0.06172839506172839,0,0)" xlink:href="#at" id="c"/><path fill="#3a414a" d="M134-131c28 9 52 24 51 62-1 50-34 73-85 73S17-19 16-69c0-36 21-54 49-61-75-25-45-126 34-121 46 3 78 18 79 63 0 33-17 51-44 57zm-34-11c31 1 46-15 46-44 0-28-17-43-47-42-29 0-46 13-45 42 1 28 16 44 46 44zm1 122c35 0 51-18 51-52 0-30-18-46-53-46-33 0-51 17-51 47 0 34 19 51 53 51" id="au"/><use transform="matrix(0.06172839506172839,0,0,0.06172839506172839,0,0)" xlink:href="#au" id="d"/><path fill="#3a414a" d="M126-127c33 6 58 20 58 59 0 88-139 92-164 29-3-8-5-16-6-25l32-3c6 27 21 44 54 44 32 0 52-15 52-46 0-38-36-46-79-43v-28c39 1 72-4 72-42 0-27-17-43-46-43-28 0-47 15-49 41l-32-3c6-42 35-63 81-64 48-1 79 21 79 65 0 36-21 52-52 59" id="av"/><g id="e"><use transform="matrix(0.06172839506172839,0,0,0.06172839506172839,0,0)" xlink:href="#av"/><use transform="matrix(0.06172839506172839,0,0,0.06172839506172839,12.345679012345679,0)" xlink:href="#at"/></g><path fill="#3a414a" d="M8 0l10-54h51L59 0H8" id="aw"/><use transform="matrix(0.07407407407407404,0,0,0.07407407407407404,0,0)" xlink:href="#aw" id="f"/><use transform="matrix(0.07407407407407404,0,0,0.07407407407407404,0,0)" xlink:href="#aw" id="g"/><use transform="matrix(0.07407407407407404,0,0,0.07407407407407404,0,0)" xlink:href="#aw" id="h"/><path fill="#3a414a" d="M197 0v-115H63V0H30v-248h33v105h134v-105h34V0h-34" id="ax"/><path fill="#3a414a" d="M100-194c62-1 85 37 85 99 1 63-27 99-86 99S16-35 15-95c0-66 28-99 85-99zM99-20c44 1 53-31 53-75 0-43-8-75-51-75s-53 32-53 75 10 74 51 75" id="ay"/><path fill="#3a414a" d="M143 0L79-87 56-68V0H24v-261h32v163l83-92h37l-77 82L181 0h-38" id="az"/><path fill="#3a414a" d="M179-190L93 31C79 59 56 82 12 73V49c39 6 53-20 64-50L1-190h34L92-34l54-156h33" id="aA"/><g id="i"><use transform="matrix(0.06172839506172839,0,0,0.06172839506172839,0,0)" xlink:href="#ax"/><use transform="matrix(0.06172839506172839,0,0,0.06172839506172839,15.987654320987653,0)" xlink:href="#ay"/><use transform="matrix(0.06172839506172839,0,0,0.06172839506172839,28.333333333333332,0)" xlink:href="#ar"/><use transform="matrix(0.06172839506172839,0,0,0.06172839506172839,34.50617283950617,0)" xlink:href="#az"/><use transform="matrix(0.06172839506172839,0,0,0.06172839506172839,45.61728395061728,0)" xlink:href="#aq"/><use transform="matrix(0.06172839506172839,0,0,0.06172839506172839,57.962962962962955,0)" xlink:href="#aA"/></g><path fill="#3a414a" d="M108 0H70L1-190h34L89-25l56-165h34" id="aB"/><path fill="#3a414a" d="M141-36C126-15 110 5 73 4 37 3 15-17 15-53c-1-64 63-63 125-63 3-35-9-54-41-54-24 1-41 7-42 31l-33-3c5-37 33-52 76-52 45 0 72 20 72 64v82c-1 20 7 32 28 27v20c-31 9-61-2-59-35zM48-53c0 20 12 33 32 33 41-3 63-29 60-74-43 2-92-5-92 41" id="aC"/><path fill="#3a414a" d="M24 0v-261h32V0H24" id="aD"/><path fill="#3a414a" d="M24-231v-30h32v30H24zM24 0v-190h32V0H24" id="aE"/><path fill="#3a414a" d="M85-194c31 0 48 13 60 33l-1-100h32l1 261h-30c-2-10 0-23-3-31C134-8 116 4 85 4 32 4 16-35 15-94c0-66 23-100 70-100zm9 24c-40 0-46 34-46 75 0 40 6 74 45 74 42 0 51-32 51-76 0-42-9-74-50-73" id="aF"/><path fill="#3a414a" d="M114-163C36-179 61-72 57 0H25l-1-190h30c1 12-1 29 2 39 6-27 23-49 58-41v29" id="aG"/><path fill="#3a414a" d="M47-170H22l-4-78h33" id="aH"/><g id="j"><use transform="matrix(0.055555555555555546,0,0,0.055555555555555546,0,0)" xlink:href="#aB"/><use transform="matrix(0.055555555555555546,0,0,0.055555555555555546,9.999999999999998,0)" xlink:href="#aC"/><use transform="matrix(0.055555555555555546,0,0,0.055555555555555546,21.111111111111107,0)" xlink:href="#aD"/><use transform="matrix(0.055555555555555546,0,0,0.055555555555555546,25.499999999999996,0)" xlink:href="#aE"/><use transform="matrix(0.055555555555555546,0,0,0.055555555555555546,29.888888888888882,0)" xlink:href="#aF"/><use transform="matrix(0.055555555555555546,0,0,0.055555555555555546,40.99999999999999,0)" xlink:href="#aC"/><use transform="matrix(0.055555555555555546,0,0,0.055555555555555546,52.1111111111111,0)" xlink:href="#ar"/><use transform="matrix(0.055555555555555546,0,0,0.055555555555555546,57.66666666666666,0)" xlink:href="#ay"/><use transform="matrix(0.055555555555555546,0,0,0.055555555555555546,68.77777777777777,0)" xlink:href="#aG"/><use transform="matrix(0.055555555555555546,0,0,0.055555555555555546,75.38888888888889,0)" xlink:href="#aH"/><use transform="matrix(0.055555555555555546,0,0,0.055555555555555546,79.16666666666666,0)" xlink:href="#am"/></g><path fill="#3a414a" d="M177-190C167-65 218 103 67 71c-23-6-38-20-44-43l32-5c15 47 100 32 89-28v-30C133-14 115 1 83 1 29 1 15-40 15-95c0-56 16-97 71-98 29-1 48 16 59 35 1-10 0-23 2-32h30zM94-22c36 0 50-32 50-73 0-42-14-75-50-75-39 0-46 34-46 75s6 73 46 73" id="aI"/><g id="k"><use transform="matrix(0.055555555555555546,0,0,0.055555555555555546,0,0)" xlink:href="#aF"/><use transform="matrix(0.055555555555555546,0,0,0.055555555555555546,11.111111111111109,0)" xlink:href="#aq"/><use transform="matrix(0.055555555555555546,0,0,0.055555555555555546,22.222222222222218,0)" xlink:href="#aD"/><use transform="matrix(0.055555555555555546,0,0,0.055555555555555546,26.611111111111107,0)" xlink:href="#aq"/><use transform="matrix(0.055555555555555546,0,0,0.055555555555555546,37.722222222222214,0)" xlink:href="#aI"/><use transform="matrix(0.055555555555555546,0,0,0.055555555555555546,48.83333333333332,0)" xlink:href="#aC"/><use transform="matrix(0.055555555555555546,0,0,0.055555555555555546,59.944444444444436,0)" xlink:href="#ar"/><use transform="matrix(0.055555555555555546,0,0,0.055555555555555546,65.49999999999999,0)" xlink:href="#aq"/></g><path fill="#3a414a" d="M106-169C34-169 62-67 57 0H25v-261h32l-1 103c12-21 28-36 61-36 89 0 53 116 60 194h-32v-121c2-32-8-49-39-48" id="aJ"/><g id="l"><use transform="matrix(0.055555555555555546,0,0,0.055555555555555546,0,0)" xlink:href="#aJ"/><use transform="matrix(0.055555555555555546,0,0,0.055555555555555546,11.111111111111109,0)" xlink:href="#ay"/><use transform="matrix(0.055555555555555546,0,0,0.055555555555555546,22.222222222222218,0)" xlink:href="#ar"/><use transform="matrix(0.055555555555555546,0,0,0.055555555555555546,27.77777777777777,0)" xlink:href="#az"/><use transform="matrix(0.055555555555555546,0,0,0.055555555555555546,37.77777777777777,0)" xlink:href="#aq"/><use transform="matrix(0.055555555555555546,0,0,0.055555555555555546,48.88888888888888,0)" xlink:href="#aA"/></g><path fill="#3a414a" d="M87 75C49 33 22-17 22-94c0-76 28-126 65-167h31c-38 41-64 92-64 168S80 34 118 75H87" id="aK"/><g id="m"><use transform="matrix(0.055555555555555546,0,0,0.055555555555555546,0,0)" xlink:href="#aK"/><use transform="matrix(0.055555555555555546,0,0,0.055555555555555546,6.61111111111111,0)" xlink:href="#aJ"/><use transform="matrix(0.055555555555555546,0,0,0.055555555555555546,17.722222222222218,0)" xlink:href="#ay"/><use transform="matrix(0.055555555555555546,0,0,0.055555555555555546,28.83333333333333,0)" xlink:href="#aD"/><use transform="matrix(0.055555555555555546,0,0,0.055555555555555546,33.222222222222214,0)" xlink:href="#aF"/><use transform="matrix(0.055555555555555546,0,0,0.055555555555555546,44.33333333333332,0)" xlink:href="#am"/></g><g id="n"><use transform="matrix(0.055555555555555546,0,0,0.055555555555555546,0,0)" xlink:href="#aC"/><use transform="matrix(0.055555555555555546,0,0,0.055555555555555546,11.111111111111109,0)" xlink:href="#aD"/><use transform="matrix(0.055555555555555546,0,0,0.055555555555555546,15.499999999999996,0)" xlink:href="#aD"/></g><g id="o"><use transform="matrix(0.055555555555555546,0,0,0.055555555555555546,0,0)" xlink:href="#ar"/><use transform="matrix(0.055555555555555546,0,0,0.055555555555555546,5.5555555555555545,0)" xlink:href="#aJ"/><use transform="matrix(0.055555555555555546,0,0,0.055555555555555546,16.666666666666664,0)" xlink:href="#aq"/></g><path fill="#3a414a" d="M33-261c38 41 65 92 65 168S71 34 33 75H2C39 34 66-17 66-93S39-220 2-261h31" id="aL"/><g id="p"><use transform="matrix(0.055555555555555546,0,0,0.055555555555555546,0,0)" xlink:href="#am"/><use transform="matrix(0.055555555555555546,0,0,0.055555555555555546,9.999999999999998,0)" xlink:href="#ar"/><use transform="matrix(0.055555555555555546,0,0,0.055555555555555546,15.555555555555554,0)" xlink:href="#aC"/><use transform="matrix(0.055555555555555546,0,0,0.055555555555555546,26.666666666666664,0)" xlink:href="#az"/><use transform="matrix(0.055555555555555546,0,0,0.055555555555555546,36.666666666666664,0)" xlink:href="#aq"/><use transform="matrix(0.055555555555555546,0,0,0.055555555555555546,47.77777777777777,0)" xlink:href="#aL"/></g><path fill="#3a414a" d="M127-220V0H93v-220H8v-28h204v28h-85" id="aM"/><g id="q"><use transform="matrix(0.055555555555555546,0,0,0.055555555555555546,0,0)" xlink:href="#aM"/><use transform="matrix(0.055555555555555546,0,0,0.055555555555555546,12.166666666666664,0)" xlink:href="#aJ"/><use transform="matrix(0.055555555555555546,0,0,0.055555555555555546,23.27777777777777,0)" xlink:href="#aE"/><use transform="matrix(0.055555555555555546,0,0,0.055555555555555546,27.66666666666666,0)" xlink:href="#am"/></g><g id="r"><use transform="matrix(0.055555555555555546,0,0,0.055555555555555546,0,0)" xlink:href="#aB"/><use transform="matrix(0.055555555555555546,0,0,0.055555555555555546,9.999999999999998,0)" xlink:href="#aC"/><use transform="matrix(0.055555555555555546,0,0,0.055555555555555546,21.111111111111107,0)" xlink:href="#aD"/><use transform="matrix(0.055555555555555546,0,0,0.055555555555555546,25.499999999999996,0)" xlink:href="#aE"/><use transform="matrix(0.055555555555555546,0,0,0.055555555555555546,29.888888888888882,0)" xlink:href="#aF"/><use transform="matrix(0.055555555555555546,0,0,0.055555555555555546,40.99999999999999,0)" xlink:href="#aC"/><use transform="matrix(0.055555555555555546,0,0,0.055555555555555546,52.1111111111111,0)" xlink:href="#ar"/><use transform="matrix(0.055555555555555546,0,0,0.055555555555555546,57.66666666666666,0)" xlink:href="#ay"/><use transform="matrix(0.055555555555555546,0,0,0.055555555555555546,68.77777777777777,0)" xlink:href="#aG"/></g><g id="s"><use transform="matrix(0.055555555555555546,0,0,0.055555555555555546,0,0)" xlink:href="#aE"/><use transform="matrix(0.055555555555555546,0,0,0.055555555555555546,4.388888888888888,0)" xlink:href="#am"/></g><g id="t"><use transform="matrix(0.055555555555555546,0,0,0.055555555555555546,0,0)" xlink:href="#aB"/><use transform="matrix(0.055555555555555546,0,0,0.055555555555555546,9.999999999999998,0)" xlink:href="#aC"/><use transform="matrix(0.055555555555555546,0,0,0.055555555555555546,21.111111111111107,0)" xlink:href="#aD"/><use transform="matrix(0.055555555555555546,0,0,0.055555555555555546,25.499999999999996,0)" xlink:href="#aE"/><use transform="matrix(0.055555555555555546,0,0,0.055555555555555546,29.888888888888882,0)" xlink:href="#aF"/><use transform="matrix(0.055555555555555546,0,0,0.055555555555555546,40.99999999999999,0)" xlink:href="#aC"/><use transform="matrix(0.055555555555555546,0,0,0.055555555555555546,52.1111111111111,0)" xlink:href="#ar"/><use transform="matrix(0.055555555555555546,0,0,0.055555555555555546,57.66666666666666,0)" xlink:href="#aE"/><use transform="matrix(0.055555555555555546,0,0,0.055555555555555546,62.05555555555554,0)" xlink:href="#ap"/><use transform="matrix(0.055555555555555546,0,0,0.055555555555555546,73.16666666666666,0)" xlink:href="#aI"/></g><g id="u"><use transform="matrix(0.055555555555555546,0,0,0.055555555555555546,0,0)" xlink:href="#aE"/><use transform="matrix(0.055555555555555546,0,0,0.055555555555555546,4.388888888888888,0)" xlink:href="#ap"/></g><g id="v"><use transform="matrix(0.055555555555555546,0,0,0.055555555555555546,0,0)" xlink:href="#ar"/><use transform="matrix(0.055555555555555546,0,0,0.055555555555555546,5.5555555555555545,0)" xlink:href="#aJ"/><use transform="matrix(0.055555555555555546,0,0,0.055555555555555546,16.666666666666664,0)" xlink:href="#aq"/><use transform="matrix(0.055555555555555546,0,0,0.055555555555555546,27.77777777777777,0)" xlink:href="#am"/><use transform="matrix(0.055555555555555546,0,0,0.055555555555555546,37.77777777777777,0)" xlink:href="#aq"/></g><path fill="#3a414a" d="M155-56V0h-30v-56H8v-25l114-167h33v167h35v25h-35zm-30-156c-27 46-58 90-88 131h88v-131" id="aN"/><use transform="matrix(0.055555555555555546,0,0,0.055555555555555546,0,0)" xlink:href="#aN" id="w"/><g id="x"><use transform="matrix(0.055555555555555546,0,0,0.055555555555555546,0,0)" xlink:href="#am"/><use transform="matrix(0.055555555555555546,0,0,0.055555555555555546,9.999999999999998,0)" xlink:href="#an"/><use transform="matrix(0.055555555555555546,0,0,0.055555555555555546,21.111111111111107,0)" xlink:href="#ao"/><use transform="matrix(0.055555555555555546,0,0,0.055555555555555546,32.222222222222214,0)" xlink:href="#ap"/><use transform="matrix(0.055555555555555546,0,0,0.055555555555555546,43.33333333333332,0)" xlink:href="#aq"/><use transform="matrix(0.055555555555555546,0,0,0.055555555555555546,54.44444444444443,0)" xlink:href="#ar"/><use transform="matrix(0.055555555555555546,0,0,0.055555555555555546,59.999999999999986,0)" xlink:href="#am"/></g><g id="y"><use transform="matrix(0.055555555555555546,0,0,0.055555555555555546,0,0)" xlink:href="#an"/><use transform="matrix(0.055555555555555546,0,0,0.055555555555555546,11.111111111111109,0)" xlink:href="#am"/><use transform="matrix(0.055555555555555546,0,0,0.055555555555555546,21.111111111111107,0)" xlink:href="#aE"/><use transform="matrix(0.055555555555555546,0,0,0.055555555555555546,25.499999999999996,0)" xlink:href="#ap"/><use transform="matrix(0.055555555555555546,0,0,0.055555555555555546,36.61111111111111,0)" xlink:href="#aI"/></g><g id="z"><use transform="matrix(0.055555555555555546,0,0,0.055555555555555546,0,0)" xlink:href="#ar"/><use transform="matrix(0.055555555555555546,0,0,0.055555555555555546,5.5555555555555545,0)" xlink:href="#aJ"/><use transform="matrix(0.055555555555555546,0,0,0.055555555555555546,16.666666666666664,0)" xlink:href="#aE"/><use transform="matrix(0.055555555555555546,0,0,0.055555555555555546,21.055555555555554,0)" xlink:href="#am"/></g><path fill="#3a414a" d="M210-169c-67 3-38 105-44 169h-31v-121c0-29-5-50-35-48C34-165 62-65 56 0H25l-1-190h30c1 10-1 24 2 32 10-44 99-50 107 0 11-21 27-35 58-36 85-2 47 119 55 194h-31v-121c0-29-5-49-35-48" id="aO"/><g id="A"><use transform="matrix(0.055555555555555546,0,0,0.055555555555555546,0,0)" xlink:href="#am"/><use transform="matrix(0.055555555555555546,0,0,0.055555555555555546,9.999999999999998,0)" xlink:href="#aC"/><use transform="matrix(0.055555555555555546,0,0,0.055555555555555546,21.111111111111107,0)" xlink:href="#aO"/><use transform="matrix(0.055555555555555546,0,0,0.055555555555555546,37.722222222222214,0)" xlink:href="#aq"/></g><g id="B"><use transform="matrix(0.055555555555555546,0,0,0.055555555555555546,0,0)" xlink:href="#aJ"/><use transform="matrix(0.055555555555555546,0,0,0.055555555555555546,11.111111111111109,0)" xlink:href="#ay"/><use transform="matrix(0.055555555555555546,0,0,0.055555555555555546,22.222222222222218,0)" xlink:href="#ar"/><use transform="matrix(0.055555555555555546,0,0,0.055555555555555546,27.77777777777777,0)" xlink:href="#az"/><use transform="matrix(0.055555555555555546,0,0,0.055555555555555546,37.77777777777777,0)" xlink:href="#aq"/><use transform="matrix(0.055555555555555546,0,0,0.055555555555555546,48.88888888888888,0)" xlink:href="#aA"/></g><g id="C"><use transform="matrix(0.055555555555555546,0,0,0.055555555555555546,0,0)" xlink:href="#ay"/><use transform="matrix(0.055555555555555546,0,0,0.055555555555555546,11.111111111111109,0)" xlink:href="#ar"/><use transform="matrix(0.055555555555555546,0,0,0.055555555555555546,16.666666666666664,0)" xlink:href="#aJ"/><use transform="matrix(0.055555555555555546,0,0,0.055555555555555546,27.77777777777777,0)" xlink:href="#aq"/><use transform="matrix(0.055555555555555546,0,0,0.055555555555555546,38.88888888888888,0)" xlink:href="#aG"/></g><g id="D"><use transform="matrix(0.055555555555555546,0,0,0.055555555555555546,0,0)" xlink:href="#am"/><use transform="matrix(0.055555555555555546,0,0,0.055555555555555546,9.999999999999998,0)" xlink:href="#an"/><use transform="matrix(0.055555555555555546,0,0,0.055555555555555546,21.111111111111107,0)" xlink:href="#ao"/><use transform="matrix(0.055555555555555546,0,0,0.055555555555555546,32.222222222222214,0)" xlink:href="#ap"/><use transform="matrix(0.055555555555555546,0,0,0.055555555555555546,43.33333333333332,0)" xlink:href="#aq"/><use transform="matrix(0.055555555555555546,0,0,0.055555555555555546,54.44444444444443,0)" xlink:href="#ar"/></g><g id="E"><use transform="matrix(0.055555555555555546,0,0,0.055555555555555546,0,0)" xlink:href="#aB"/><use transform="matrix(0.055555555555555546,0,0,0.055555555555555546,9.999999999999998,0)" xlink:href="#aC"/><use transform="matrix(0.055555555555555546,0,0,0.055555555555555546,21.111111111111107,0)" xlink:href="#aD"/><use transform="matrix(0.055555555555555546,0,0,0.055555555555555546,25.499999999999996,0)" xlink:href="#aE"/><use transform="matrix(0.055555555555555546,0,0,0.055555555555555546,29.888888888888882,0)" xlink:href="#aF"/><use transform="matrix(0.055555555555555546,0,0,0.055555555555555546,40.99999999999999,0)" xlink:href="#aC"/><use transform="matrix(0.055555555555555546,0,0,0.055555555555555546,52.1111111111111,0)" xlink:href="#ar"/><use transform="matrix(0.055555555555555546,0,0,0.055555555555555546,57.66666666666666,0)" xlink:href="#ay"/><use transform="matrix(0.055555555555555546,0,0,0.055555555555555546,68.77777777777777,0)" xlink:href="#aG"/><use transform="matrix(0.055555555555555546,0,0,0.055555555555555546,75.38888888888889,0)" xlink:href="#am"/></g><path fill="#3a414a" d="M30-248c118-7 216 8 213 122C240-48 200 0 122 0H30v-248zM63-27c89 8 146-16 146-99s-60-101-146-95v194" id="aP"/><g id="H"><use transform="matrix(0.055555555555555546,0,0,0.055555555555555546,0,0)" xlink:href="#aP"/><use transform="matrix(0.055555555555555546,0,0,0.055555555555555546,14.388888888888886,0)" xlink:href="#aq"/><use transform="matrix(0.055555555555555546,0,0,0.055555555555555546,25.499999999999993,0)" xlink:href="#aD"/><use transform="matrix(0.055555555555555546,0,0,0.055555555555555546,29.888888888888882,0)" xlink:href="#aq"/><use transform="matrix(0.055555555555555546,0,0,0.055555555555555546,40.99999999999999,0)" xlink:href="#aI"/><use transform="matrix(0.055555555555555546,0,0,0.055555555555555546,52.1111111111111,0)" xlink:href="#aC"/><use transform="matrix(0.055555555555555546,0,0,0.055555555555555546,63.222222222222214,0)" xlink:href="#ar"/><use transform="matrix(0.055555555555555546,0,0,0.055555555555555546,68.77777777777776,0)" xlink:href="#aq"/><use transform="matrix(0.055555555555555546,0,0,0.055555555555555546,79.88888888888887,0)" xlink:href="#aF"/></g><g id="I"><use transform="matrix(0.055555555555555546,0,0,0.055555555555555546,0,0)" xlink:href="#am"/><use transform="matrix(0.055555555555555546,0,0,0.055555555555555546,9.999999999999998,0)" xlink:href="#ar"/><use transform="matrix(0.055555555555555546,0,0,0.055555555555555546,15.555555555555554,0)" xlink:href="#aC"/><use transform="matrix(0.055555555555555546,0,0,0.055555555555555546,26.666666666666664,0)" xlink:href="#az"/><use transform="matrix(0.055555555555555546,0,0,0.055555555555555546,36.666666666666664,0)" xlink:href="#aq"/></g><path fill="#3a414a" d="M101-234c-31-9-42 10-38 44h38v23H63V0H32v-167H5v-23h27c-7-52 17-82 69-68v24" id="aQ"/><g id="J"><use transform="matrix(0.055555555555555546,0,0,0.055555555555555546,0,0)" xlink:href="#aQ"/><use transform="matrix(0.055555555555555546,0,0,0.055555555555555546,5.5555555555555545,0)" xlink:href="#aG"/><use transform="matrix(0.055555555555555546,0,0,0.055555555555555546,12.166666666666664,0)" xlink:href="#ay"/><use transform="matrix(0.055555555555555546,0,0,0.055555555555555546,23.27777777777777,0)" xlink:href="#aO"/></g><g id="K"><use transform="matrix(0.055555555555555546,0,0,0.055555555555555546,0,0)" xlink:href="#ay"/><use transform="matrix(0.055555555555555546,0,0,0.055555555555555546,11.111111111111109,0)" xlink:href="#ar"/><use transform="matrix(0.055555555555555546,0,0,0.055555555555555546,16.666666666666664,0)" xlink:href="#aJ"/><use transform="matrix(0.055555555555555546,0,0,0.055555555555555546,27.77777777777777,0)" xlink:href="#aq"/><use transform="matrix(0.055555555555555546,0,0,0.055555555555555546,38.88888888888888,0)" xlink:href="#aG"/></g><path fill="#3a414a" d="M96-169c-40 0-48 33-48 73s9 75 48 75c24 0 41-14 43-38l32 2c-6 37-31 61-74 61-59 0-76-41-82-99-10-93 101-131 147-64 4 7 5 14 7 22l-32 3c-4-21-16-35-41-35" id="aR"/><g id="L"><use transform="matrix(0.055555555555555546,0,0,0.055555555555555546,0,0)" xlink:href="#aR"/><use transform="matrix(0.055555555555555546,0,0,0.055555555555555546,9.999999999999998,0)" xlink:href="#ay"/><use transform="matrix(0.055555555555555546,0,0,0.055555555555555546,21.111111111111107,0)" xlink:href="#aD"/><use transform="matrix(0.055555555555555546,0,0,0.055555555555555546,25.499999999999996,0)" xlink:href="#aF"/><use transform="matrix(0.055555555555555546,0,0,0.055555555555555546,36.61111111111111,0)" xlink:href="#az"/><use transform="matrix(0.055555555555555546,0,0,0.055555555555555546,46.61111111111111,0)" xlink:href="#aq"/><use transform="matrix(0.055555555555555546,0,0,0.055555555555555546,57.722222222222214,0)" xlink:href="#aA"/><use transform="matrix(0.055555555555555546,0,0,0.055555555555555546,67.72222222222221,0)" xlink:href="#am"/></g><path fill="#3a414a" d="M118-107v75H92v-75H18v-26h74v-75h26v75h74v26h-74" id="aS"/><use transform="matrix(0.055555555555555546,0,0,0.055555555555555546,0,0)" xlink:href="#aS" id="M"/><g id="N"><use transform="matrix(0.055555555555555546,0,0,0.055555555555555546,0,0)" xlink:href="#aB"/><use transform="matrix(0.055555555555555546,0,0,0.055555555555555546,9.999999999999998,0)" xlink:href="#aC"/><use transform="matrix(0.055555555555555546,0,0,0.055555555555555546,21.111111111111107,0)" xlink:href="#aD"/><use transform="matrix(0.055555555555555546,0,0,0.055555555555555546,25.499999999999996,0)" xlink:href="#aE"/><use transform="matrix(0.055555555555555546,0,0,0.055555555555555546,29.888888888888882,0)" xlink:href="#aF"/><use transform="matrix(0.055555555555555546,0,0,0.055555555555555546,40.99999999999999,0)" xlink:href="#aC"/><use transform="matrix(0.055555555555555546,0,0,0.055555555555555546,52.1111111111111,0)" xlink:href="#ar"/><use transform="matrix(0.055555555555555546,0,0,0.055555555555555546,57.66666666666666,0)" xlink:href="#ay"/><use transform="matrix(0.055555555555555546,0,0,0.055555555555555546,68.77777777777777,0)" xlink:href="#aG"/><use transform="matrix(0.055555555555555546,0,0,0.055555555555555546,75.38888888888889,0)" xlink:href="#aH"/><use transform="matrix(0.055555555555555546,0,0,0.055555555555555546,79.16666666666666,0)" xlink:href="#am"/></g><path fill="#3a414a" d="M206 0h-36l-40-164L89 0H53L-1-190h32L70-26l43-164h34l41 164 42-164h31" id="aT"/><g id="O"><use transform="matrix(0.055555555555555546,0,0,0.055555555555555546,0,0)" xlink:href="#ay"/><use transform="matrix(0.055555555555555546,0,0,0.055555555555555546,11.111111111111109,0)" xlink:href="#aT"/><use transform="matrix(0.055555555555555546,0,0,0.055555555555555546,25.499999999999993,0)" xlink:href="#ap"/></g><g id="P"><use transform="matrix(0.055555555555555546,0,0,0.055555555555555546,0,0)" xlink:href="#am"/><use transform="matrix(0.055555555555555546,0,0,0.055555555555555546,9.999999999999998,0)" xlink:href="#ar"/><use transform="matrix(0.055555555555555546,0,0,0.055555555555555546,15.555555555555554,0)" xlink:href="#aC"/><use transform="matrix(0.055555555555555546,0,0,0.055555555555555546,26.666666666666664,0)" xlink:href="#az"/><use transform="matrix(0.055555555555555546,0,0,0.055555555555555546,36.666666666666664,0)" xlink:href="#aq"/></g><g id="Q"><use transform="matrix(0.055555555555555546,0,0,0.055555555555555546,0,0)" xlink:href="#aQ"/><use transform="matrix(0.055555555555555546,0,0,0.055555555555555546,5.5555555555555545,0)" xlink:href="#aG"/><use transform="matrix(0.055555555555555546,0,0,0.055555555555555546,12.166666666666664,0)" xlink:href="#ay"/><use transform="matrix(0.055555555555555546,0,0,0.055555555555555546,23.27777777777777,0)" xlink:href="#aO"/></g><g id="R"><use transform="matrix(0.055555555555555546,0,0,0.055555555555555546,0,0)" xlink:href="#aR"/><use transform="matrix(0.055555555555555546,0,0,0.055555555555555546,9.999999999999998,0)" xlink:href="#ay"/><use transform="matrix(0.055555555555555546,0,0,0.055555555555555546,21.111111111111107,0)" xlink:href="#aD"/><use transform="matrix(0.055555555555555546,0,0,0.055555555555555546,25.499999999999996,0)" xlink:href="#aF"/><use transform="matrix(0.055555555555555546,0,0,0.055555555555555546,36.61111111111111,0)" xlink:href="#az"/><use transform="matrix(0.055555555555555546,0,0,0.055555555555555546,46.61111111111111,0)" xlink:href="#aq"/><use transform="matrix(0.055555555555555546,0,0,0.055555555555555546,57.722222222222214,0)" xlink:href="#aA"/></g><path fill="#3a414a" d="M212-179c-10-28-35-45-73-45-59 0-87 40-87 99 0 60 29 101 89 101 43 0 62-24 78-52l27 14C228-24 195 4 139 4 59 4 22-46 18-125c-6-104 99-153 187-111 19 9 31 26 39 46" id="aU"/><g id="S"><use transform="matrix(0.06172839506172839,0,0,0.06172839506172839,0,0)" xlink:href="#aU"/><use transform="matrix(0.06172839506172839,0,0,0.06172839506172839,15.987654320987653,0)" xlink:href="#ay"/><use transform="matrix(0.06172839506172839,0,0,0.06172839506172839,28.333333333333332,0)" xlink:href="#aD"/><use transform="matrix(0.06172839506172839,0,0,0.06172839506172839,33.20987654320987,0)" xlink:href="#aF"/><use transform="matrix(0.06172839506172839,0,0,0.06172839506172839,45.55555555555555,0)" xlink:href="#az"/><use transform="matrix(0.06172839506172839,0,0,0.06172839506172839,56.66666666666666,0)" xlink:href="#aq"/><use transform="matrix(0.06172839506172839,0,0,0.06172839506172839,69.01234567901234,0)" xlink:href="#aA"/></g><g id="T"><use transform="matrix(0.055555555555555546,0,0,0.055555555555555546,0,0)" xlink:href="#aB"/><use transform="matrix(0.055555555555555546,0,0,0.055555555555555546,9.999999999999998,0)" xlink:href="#aC"/><use transform="matrix(0.055555555555555546,0,0,0.055555555555555546,21.111111111111107,0)" xlink:href="#aD"/><use transform="matrix(0.055555555555555546,0,0,0.055555555555555546,25.499999999999996,0)" xlink:href="#aE"/><use transform="matrix(0.055555555555555546,0,0,0.055555555555555546,29.888888888888882,0)" xlink:href="#aF"/><use transform="matrix(0.055555555555555546,0,0,0.055555555555555546,40.99999999999999,0)" xlink:href="#aC"/><use transform="matrix(0.055555555555555546,0,0,0.055555555555555546,52.1111111111111,0)" xlink:href="#ar"/><use transform="matrix(0.055555555555555546,0,0,0.055555555555555546,57.66666666666666,0)" xlink:href="#ay"/><use transform="matrix(0.055555555555555546,0,0,0.055555555555555546,68.77777777777777,0)" xlink:href="#aG"/><use transform="matrix(0.055555555555555546,0,0,0.055555555555555546,75.38888888888889,0)" xlink:href="#aH"/><use transform="matrix(0.055555555555555546,0,0,0.055555555555555546,79.16666666666666,0)" xlink:href="#am"/></g><g id="U"><use transform="matrix(0.055555555555555546,0,0,0.055555555555555546,0,0)" xlink:href="#ay"/><use transform="matrix(0.055555555555555546,0,0,0.055555555555555546,11.111111111111109,0)" xlink:href="#aT"/><use transform="matrix(0.055555555555555546,0,0,0.055555555555555546,25.499999999999993,0)" xlink:href="#ap"/></g><g id="V"><use transform="matrix(0.055555555555555546,0,0,0.055555555555555546,0,0)" xlink:href="#aR"/><use transform="matrix(0.055555555555555546,0,0,0.055555555555555546,9.999999999999998,0)" xlink:href="#ay"/><use transform="matrix(0.055555555555555546,0,0,0.055555555555555546,21.111111111111107,0)" xlink:href="#aD"/><use transform="matrix(0.055555555555555546,0,0,0.055555555555555546,25.499999999999996,0)" xlink:href="#aF"/><use transform="matrix(0.055555555555555546,0,0,0.055555555555555546,36.61111111111111,0)" xlink:href="#az"/><use transform="matrix(0.055555555555555546,0,0,0.055555555555555546,46.61111111111111,0)" xlink:href="#aq"/><use transform="matrix(0.055555555555555546,0,0,0.055555555555555546,57.722222222222214,0)" xlink:href="#aA"/></g><path fill="#e81313" d="M137-138c1-29-70-34-71-4 15 46 118 7 119 86 1 83-164 76-172 9l43-7c4 19 20 25 44 25 33 8 57-30 24-41C81-84 22-81 20-136c-2-80 154-74 161-7" id="aV"/><path fill="#e81313" d="M185-48c-13 30-37 53-82 52C43 2 14-33 14-96s30-98 90-98c62 0 83 45 84 108H66c0 31 8 55 39 56 18 0 30-7 34-22zm-45-69c5-46-57-63-70-21-2 6-4 13-4 21h74" id="aW"/><path fill="#e81313" d="M190-63c-7 42-38 67-86 67-59 0-84-38-90-98-12-110 154-137 174-36l-49 2c-2-19-15-32-35-32-30 0-35 28-38 64-6 74 65 87 74 30" id="aX"/><path fill="#e81313" d="M85 4C-2 5 27-109 22-190h50c7 57-23 150 33 157 60-5 35-97 40-157h50l1 190h-47c-2-12 1-28-3-38-12 25-28 42-61 42" id="aY"/><path fill="#e81313" d="M135-150c-39-12-60 13-60 57V0H25l-1-190h47c2 13-1 29 3 40 6-28 27-53 61-41v41" id="aZ"/><path fill="#e81313" d="M25-224v-37h50v37H25zM25 0v-190h50V0H25" id="ba"/><path fill="#e81313" d="M115-3C79 11 28 4 28-45v-112H4v-33h27l15-45h31v45h36v33H77v99c-1 23 16 31 38 25v30" id="bb"/><path fill="#e81313" d="M123 10C108 53 80 86 19 72V37c35 8 53-11 59-39L3-190h52l48 148c12-52 28-100 44-148h51" id="bc"/><g id="W"><use transform="matrix(0.055555555555555546,0,0,0.055555555555555546,0,0)" xlink:href="#aV"/><use transform="matrix(0.055555555555555546,0,0,0.055555555555555546,11.111111111111109,0)" xlink:href="#aW"/><use transform="matrix(0.055555555555555546,0,0,0.055555555555555546,22.222222222222218,0)" xlink:href="#aX"/><use transform="matrix(0.055555555555555546,0,0,0.055555555555555546,33.33333333333333,0)" xlink:href="#aY"/><use transform="matrix(0.055555555555555546,0,0,0.055555555555555546,45.49999999999999,0)" xlink:href="#aZ"/><use transform="matrix(0.055555555555555546,0,0,0.055555555555555546,53.27777777777777,0)" xlink:href="#ba"/><use transform="matrix(0.055555555555555546,0,0,0.055555555555555546,58.83333333333332,0)" xlink:href="#bb"/><use transform="matrix(0.055555555555555546,0,0,0.055555555555555546,65.44444444444444,0)" xlink:href="#bc"/></g><path fill="#e81313" d="M147 0L96-86 75-71V0H25v-261h50v150l67-79h53l-66 74L201 0h-54" id="bd"/><path fill="#e81313" d="M35-132v-50h50v50H35zM35 0v-49h50V0H35" id="be"/><g id="X"><use transform="matrix(0.055555555555555546,0,0,0.055555555555555546,0,0)" xlink:href="#aZ"/><use transform="matrix(0.055555555555555546,0,0,0.055555555555555546,7.777777777777777,0)" xlink:href="#ba"/><use transform="matrix(0.055555555555555546,0,0,0.055555555555555546,13.333333333333332,0)" xlink:href="#aV"/><use transform="matrix(0.055555555555555546,0,0,0.055555555555555546,24.444444444444443,0)" xlink:href="#bd"/><use transform="matrix(0.055555555555555546,0,0,0.055555555555555546,35.55555555555555,0)" xlink:href="#be"/></g><path fill="#e81313" d="M24 0v-248h52V0H24" id="bf"/><path fill="#e81313" d="M121-226c-27-7-43 5-38 36h38v33H83V0H34v-157H6v-33h28c-9-59 32-81 87-68v32" id="bg"/><g id="Y"><use transform="matrix(0.055555555555555546,0,0,0.055555555555555546,0,0)" xlink:href="#bf"/><use transform="matrix(0.055555555555555546,0,0,0.055555555555555546,5.5555555555555545,0)" xlink:href="#bg"/></g><path fill="#e81313" d="M114-157C55-157 80-60 75 0H25v-261h50l-1 109c12-26 28-41 61-42 86-1 58 113 63 194h-50c-7-57 23-157-34-157" id="bh"/><g id="Z"><use transform="matrix(0.055555555555555546,0,0,0.055555555555555546,0,0)" xlink:href="#bb"/><use transform="matrix(0.055555555555555546,0,0,0.055555555555555546,6.61111111111111,0)" xlink:href="#bh"/><use transform="matrix(0.055555555555555546,0,0,0.055555555555555546,18.777777777777775,0)" xlink:href="#ba"/><use transform="matrix(0.055555555555555546,0,0,0.055555555555555546,24.33333333333333,0)" xlink:href="#aV"/></g><path fill="#e81313" d="M110-194c64 0 96 36 96 99 0 64-35 99-97 99-61 0-95-36-95-99 0-62 34-99 96-99zm-1 164c35 0 45-28 45-65 0-40-10-65-43-65-34 0-45 26-45 65 0 36 10 65 43 65" id="bi"/><g id="aa"><use transform="matrix(0.055555555555555546,0,0,0.055555555555555546,0,0)" xlink:href="#bh"/><use transform="matrix(0.055555555555555546,0,0,0.055555555555555546,12.166666666666664,0)" xlink:href="#bi"/><use transform="matrix(0.055555555555555546,0,0,0.055555555555555546,24.33333333333333,0)" xlink:href="#bb"/><use transform="matrix(0.055555555555555546,0,0,0.055555555555555546,30.94444444444444,0)" xlink:href="#bd"/><use transform="matrix(0.055555555555555546,0,0,0.055555555555555546,42.05555555555555,0)" xlink:href="#aW"/><use transform="matrix(0.055555555555555546,0,0,0.055555555555555546,53.16666666666666,0)" xlink:href="#bc"/></g><g id="ab"><use transform="matrix(0.055555555555555546,0,0,0.055555555555555546,0,0)" xlink:href="#ba"/><use transform="matrix(0.055555555555555546,0,0,0.055555555555555546,5.5555555555555545,0)" xlink:href="#aV"/></g><path fill="#e81313" d="M25 0v-261h50V0H25" id="bj"/><path fill="#e81313" d="M135-194c87-1 58 113 63 194h-50c-7-57 23-157-34-157-59 0-34 97-39 157H25l-1-190h47c2 12-1 28 3 38 12-26 28-41 61-42" id="bk"/><path fill="#e81313" d="M76-54c-1 42 2 86-19 110H24C36 42 46 24 48 0H25v-54h51" id="bl"/><g id="ac"><use transform="matrix(0.055555555555555546,0,0,0.055555555555555546,0,0)" xlink:href="#aV"/><use transform="matrix(0.055555555555555546,0,0,0.055555555555555546,11.111111111111109,0)" xlink:href="#bb"/><use transform="matrix(0.055555555555555546,0,0,0.055555555555555546,17.722222222222218,0)" xlink:href="#bi"/><use transform="matrix(0.055555555555555546,0,0,0.055555555555555546,29.888888888888882,0)" xlink:href="#bj"/><use transform="matrix(0.055555555555555546,0,0,0.055555555555555546,35.444444444444436,0)" xlink:href="#aW"/><use transform="matrix(0.055555555555555546,0,0,0.055555555555555546,46.55555555555554,0)" xlink:href="#bk"/><use transform="matrix(0.055555555555555546,0,0,0.055555555555555546,58.722222222222214,0)" xlink:href="#bl"/></g><path fill="#e81313" d="M128 0H69L1-190h53L99-40l48-150h52" id="bm"/><path fill="#e81313" d="M133-34C117-15 103 5 69 4 32 3 11-16 11-54c-1-60 55-63 116-61 1-26-3-47-28-47-18 1-26 9-28 27l-52-2c7-38 36-58 82-57s74 22 75 68l1 82c-1 14 12 18 25 15v27c-30 8-71 5-69-32zm-48 3c29 0 43-24 42-57-32 0-66-3-65 30 0 17 8 27 23 27" id="bn"/><path fill="#e81313" d="M88-194c31-1 46 15 58 34l-1-101h50l1 261h-48c-2-10 0-23-3-31C134-8 116 4 84 4 32 4 16-41 15-95c0-56 19-97 73-99zm17 164c33 0 40-30 41-66 1-37-9-64-41-64s-38 30-39 65c0 43 13 65 39 65" id="bo"/><g id="ad"><use transform="matrix(0.055555555555555546,0,0,0.055555555555555546,0,0)" xlink:href="#bm"/><use transform="matrix(0.055555555555555546,0,0,0.055555555555555546,11.111111111111109,0)" xlink:href="#bn"/><use transform="matrix(0.055555555555555546,0,0,0.055555555555555546,22.222222222222218,0)" xlink:href="#bj"/><use transform="matrix(0.055555555555555546,0,0,0.055555555555555546,27.77777777777777,0)" xlink:href="#ba"/><use transform="matrix(0.055555555555555546,0,0,0.055555555555555546,33.33333333333333,0)" xlink:href="#bj"/><use transform="matrix(0.055555555555555546,0,0,0.055555555555555546,38.888888888888886,0)" xlink:href="#bo"/><use transform="matrix(0.055555555555555546,0,0,0.055555555555555546,51.05555555555555,0)" xlink:href="#bn"/><use transform="matrix(0.055555555555555546,0,0,0.055555555555555546,62.16666666666666,0)" xlink:href="#bb"/><use transform="matrix(0.055555555555555546,0,0,0.055555555555555546,68.77777777777777,0)" xlink:href="#bi"/><use transform="matrix(0.055555555555555546,0,0,0.055555555555555546,80.94444444444443,0)" xlink:href="#aZ"/></g><path fill="#e81313" d="M135-194c53 0 70 44 70 98 0 56-19 98-73 100-31 1-45-17-59-34 3 33 2 69 2 105H25l-1-265h48c2 10 0 23 3 31 11-24 29-35 60-35zM114-30c33 0 39-31 40-66 0-38-9-64-40-64-56 0-55 130 0 130" id="bp"/><g id="ae"><use transform="matrix(0.055555555555555546,0,0,0.055555555555555546,0,0)" xlink:href="#bi"/><use transform="matrix(0.055555555555555546,0,0,0.055555555555555546,12.166666666666664,0)" xlink:href="#bp"/><use transform="matrix(0.055555555555555546,0,0,0.055555555555555546,24.33333333333333,0)" xlink:href="#aW"/><use transform="matrix(0.055555555555555546,0,0,0.055555555555555546,35.444444444444436,0)" xlink:href="#aZ"/><use transform="matrix(0.055555555555555546,0,0,0.055555555555555546,43.222222222222214,0)" xlink:href="#bn"/><use transform="matrix(0.055555555555555546,0,0,0.055555555555555546,54.33333333333332,0)" xlink:href="#bb"/><use transform="matrix(0.055555555555555546,0,0,0.055555555555555546,60.944444444444436,0)" xlink:href="#ba"/><use transform="matrix(0.055555555555555546,0,0,0.055555555555555546,66.49999999999999,0)" xlink:href="#bi"/><use transform="matrix(0.055555555555555546,0,0,0.055555555555555546,78.66666666666666,0)" xlink:href="#bk"/><use transform="matrix(0.055555555555555546,0,0,0.055555555555555546,90.83333333333331,0)" xlink:href="#aV"/></g><g id="af"><use transform="matrix(0.055555555555555546,0,0,0.055555555555555546,0,0)" xlink:href="#ba"/><use transform="matrix(0.055555555555555546,0,0,0.055555555555555546,5.5555555555555545,0)" xlink:href="#bk"/></g><g id="ag"><use transform="matrix(0.055555555555555546,0,0,0.055555555555555546,0,0)" xlink:href="#bn"/><use transform="matrix(0.055555555555555546,0,0,0.055555555555555546,11.111111111111109,0)" xlink:href="#bj"/><use transform="matrix(0.055555555555555546,0,0,0.055555555555555546,16.666666666666664,0)" xlink:href="#bj"/></g><g id="ah"><use transform="matrix(0.055555555555555546,0,0,0.055555555555555546,0,0)" xlink:href="#bb"/><use transform="matrix(0.055555555555555546,0,0,0.055555555555555546,6.61111111111111,0)" xlink:href="#bh"/><use transform="matrix(0.055555555555555546,0,0,0.055555555555555546,18.777777777777775,0)" xlink:href="#aW"/></g><path fill="#e81313" d="M135-194c52 0 70 43 70 98 0 56-19 99-73 100-30 1-46-15-58-35L72 0H24l1-261h50v104c11-23 29-37 60-37zM114-30c31 0 40-27 40-66 0-37-7-63-39-63s-41 28-41 65c0 36 8 64 40 64" id="bq"/><g id="ai"><use transform="matrix(0.055555555555555546,0,0,0.055555555555555546,0,0)" xlink:href="#aV"/><use transform="matrix(0.055555555555555546,0,0,0.055555555555555546,11.111111111111109,0)" xlink:href="#aY"/><use transform="matrix(0.055555555555555546,0,0,0.055555555555555546,23.27777777777777,0)" xlink:href="#bq"/><use transform="matrix(0.055555555555555546,0,0,0.055555555555555546,35.444444444444436,0)" xlink:href="#bk"/><use transform="matrix(0.055555555555555546,0,0,0.055555555555555546,47.6111111111111,0)" xlink:href="#aW"/><use transform="matrix(0.055555555555555546,0,0,0.055555555555555546,58.722222222222214,0)" xlink:href="#bb"/><use transform="matrix(0.055555555555555546,0,0,0.055555555555555546,65.33333333333331,0)" xlink:href="#aV"/></g><g id="aj"><use transform="matrix(0.055555555555555546,0,0,0.055555555555555546,0,0)" xlink:href="#bn"/><use transform="matrix(0.055555555555555546,0,0,0.055555555555555546,11.111111111111109,0)" xlink:href="#aZ"/><use transform="matrix(0.055555555555555546,0,0,0.055555555555555546,18.888888888888886,0)" xlink:href="#aW"/></g><g id="ak"><use transform="matrix(0.055555555555555546,0,0,0.055555555555555546,0,0)" xlink:href="#bn"/><use transform="matrix(0.055555555555555546,0,0,0.055555555555555546,11.111111111111109,0)" xlink:href="#bb"/></g><g id="al"><use transform="matrix(0.055555555555555546,0,0,0.055555555555555546,0,0)" xlink:href="#aZ"/><use transform="matrix(0.055555555555555546,0,0,0.055555555555555546,7.777777777777777,0)" xlink:href="#ba"/><use transform="matrix(0.055555555555555546,0,0,0.055555555555555546,13.333333333333332,0)" xlink:href="#aV"/><use transform="matrix(0.055555555555555546,0,0,0.055555555555555546,24.444444444444443,0)" xlink:href="#bd"/></g></defs></g></svg>