<svg xmlns="http://www.w3.org/2000/svg" xmlns:xlink="http://www.w3.org/1999/xlink" xmlns:lucid="lucid" width="2044.39" height="1050.93"><g transform="translate(-356.1144010237231 40.5)" lucid:page-tab-id="0_0"><path d="M1414.82 312.6c0 15.13-12.27 27.4-27.4 27.4-15.15 0-27.42-12.27-27.42-27.4 0-15.15 12.27-27.42 27.4-27.42 15.15 0 27.42 12.27 27.42 27.4z" stroke="#3a414a" fill="#f2f3f5"/><use xlink:href="#a" transform="matrix(1,0,0,1,1365,290.181818181818) translate(16.32716049382716 26.21527777777778)"/><path d="M1340 199.32a6 6 0 0 1 6-6h168a6 6 0 0 1 6 6v85.33a6 6 0 0 1-6 6h-168a6 6 0 0 1-6-6z" stroke="#000" stroke-opacity="0" fill-opacity="0"/><use xlink:href="#b" transform="matrix(1,0,0,1,1345,198.3203829173439) translate(0 31.527777777777775)"/><use xlink:href="#c" transform="matrix(1,0,0,1,1345,198.3203829173439) translate(50.49382716049382 31.527777777777775)"/><use xlink:href="#d" transform="matrix(1,0,0,1,1345,198.3203829173439) translate(75.18518518518518 31.527777777777775)"/><use xlink:href="#e" transform="matrix(1,0,0,1,1345,198.3203829173439) translate(141.72839506172838 31.527777777777775)"/><use xlink:href="#f" transform="matrix(1,0,0,1,1345,198.3203829173439) translate(0 63.52777777777777)"/><use xlink:href="#g" transform="matrix(1,0,0,1,1345,198.3203829173439) translate(72.83950617283949 63.52777777777777)"/><path d="M1480 354.2a6 6 0 0 1 6-6h204a6 6 0 0 1 6 6v88.66a6 6 0 0 1-6 6h-204a6 6 0 0 1-6-6z" stroke="#000" stroke-opacity="0" fill="#fff"/><use xlink:href="#h" transform="matrix(1,0,0,1,1485,353.195281201849) translate(0 20.621527777777775)"/><use xlink:href="#i" transform="matrix(1,0,0,1,1485,353.195281201849) translate(57.96296296296295 20.621527777777775)"/><use xlink:href="#j" transform="matrix(1,0,0,1,1485,353.195281201849) translate(108.51851851851849 20.621527777777775)"/><use xlink:href="#e" transform="matrix(1,0,0,1,1485,353.195281201849) translate(180.06172839506166 20.621527777777775)"/><use xlink:href="#f" transform="matrix(1,0,0,1,1485,353.195281201849) translate(0 52.62152777777777)"/><use xlink:href="#k" transform="matrix(1,0,0,1,1485,353.195281201849) translate(72.83950617283949 52.62152777777777)"/><use xlink:href="#l" transform="matrix(1,0,0,1,1485,353.195281201849) translate(0 84.62152777777777)"/><path d="M1680 196a6 6 0 0 1 6-6h220a6 6 0 0 1 6 6v88.65a6 6 0 0 1-6 6h-220a6 6 0 0 1-6-6z" stroke="#000" stroke-opacity="0" fill="#fff"/><use xlink:href="#m" transform="matrix(1,0,0,1,1685,194.9870495840106) translate(0 34.84027777777777)"/><use xlink:href="#j" transform="matrix(1,0,0,1,1685,194.9870495840106) translate(50.49382716049382 34.84027777777777)"/><use xlink:href="#n" transform="matrix(1,0,0,1,1685,194.9870495840106) translate(122.03703703703701 34.84027777777777)"/><use xlink:href="#o" transform="matrix(1,0,0,1,1685,194.9870495840106) translate(140.55555555555551 34.84027777777777)"/><use xlink:href="#p" transform="matrix(1,0,0,1,1685,194.9870495840106) translate(0 66.84027777777777)"/><use xlink:href="#q" transform="matrix(1,0,0,1,1685,194.9870495840106) translate(61.5432098765432 66.84027777777777)"/><path d="M1820 354.2a6 6 0 0 1 6-6h244a6 6 0 0 1 6 6V474a6 6 0 0 1-6 6h-244a6 6 0 0 1-6-6z" stroke="#000" stroke-opacity="0" fill="#fff"/><use xlink:href="#b" transform="matrix(1,0,0,1,1825,353.195281201849) translate(0 33.02777777777777)"/><use xlink:href="#j" transform="matrix(1,0,0,1,1825,353.195281201849) translate(50.49382716049382 33.02777777777777)"/><use xlink:href="#n" transform="matrix(1,0,0,1,1825,353.195281201849) translate(122.03703703703701 33.02777777777777)"/><use xlink:href="#o" transform="matrix(1,0,0,1,1825,353.195281201849) translate(140.55555555555551 33.02777777777777)"/><use xlink:href="#r" transform="matrix(1,0,0,1,1825,353.195281201849) translate(0 65.02777777777777)"/><use xlink:href="#s" transform="matrix(1,0,0,1,1825,353.195281201849) translate(89.93827160493827 65.02777777777777)"/><use xlink:href="#t" transform="matrix(1,0,0,1,1825,353.195281201849) translate(184.87654320987656 65.02777777777777)"/><use xlink:href="#f" transform="matrix(1,0,0,1,1825,353.195281201849) translate(0 97.02777777777777)"/><use xlink:href="#p" transform="matrix(1,0,0,1,1825,353.195281201849) translate(72.83950617283949 97.02777777777777)"/><use xlink:href="#u" transform="matrix(1,0,0,1,1825,353.195281201849) translate(134.38271604938268 97.02777777777777)"/><path d="M2060 196a6 6 0 0 1 6-6h308a6 6 0 0 1 6 6v88.65a6 6 0 0 1-6 6h-308a6 6 0 0 1-6-6z" stroke="#000" stroke-opacity="0" fill="#fff"/><use xlink:href="#b" transform="matrix(1,0,0,1,2065,194.98704958401055) translate(0 34.84027777777777)"/><use xlink:href="#j" transform="matrix(1,0,0,1,2065,194.98704958401055) translate(50.49382716049382 34.84027777777777)"/><use xlink:href="#n" transform="matrix(1,0,0,1,2065,194.98704958401055) translate(122.03703703703701 34.84027777777777)"/><use xlink:href="#f" transform="matrix(1,0,0,1,2065,194.98704958401055) translate(140.55555555555551 34.84027777777777)"/><use xlink:href="#p" transform="matrix(1,0,0,1,2065,194.98704958401055) translate(213.395061728395 34.84027777777777)"/><use xlink:href="#v" transform="matrix(1,0,0,1,2065,194.98704958401055) translate(274.9382716049382 34.84027777777777)"/><use xlink:href="#w" transform="matrix(1,0,0,1,2065,194.98704958401055) translate(0 66.84027777777777)"/><use xlink:href="#x" transform="matrix(1,0,0,1,2065,194.98704958401055) translate(104.8148148148148 66.84027777777777)"/><use xlink:href="#y" transform="matrix(1,0,0,1,2065,194.98704958401055) translate(136.85185185185182 66.84027777777777)"/><use xlink:href="#u" transform="matrix(1,0,0,1,2065,194.98704958401055) translate(165.18518518518516 66.84027777777777)"/><path d="M1106.87 711.23h5.02m5 0h10.03m5.02 0h10.03m5.02 0h10.03m5 0h10.04m5.02 0h10.02m5 0h10.04m5.02 0h10.03m5.03 0h10.03m5 0h10.04m5.02 0h10.03m5 0h10.04m5 0h10.04m5 0h10.05m5 0h10.03m5.02 0h10.03m5 0h10.04m5.02 0h10.03m5 0h10.05m5 0h10.04m5.02 0h10.03m5.02 0h10.03m5.02 0h10.03m5 0h10.05m5 0H1473m5 0h10.04m5 0h10.04m5.02 0h10.03m5 0h10.05m5 0h10.04m5.02 0h10.03m5 0h10.04m5.03 0h10.03m5.02 0h10.02m5.02 0h10.03m5.02 0h10.03m5 0h10.04m5.02 0h10.03m5 0h10.04m5 0h10.04m5.02 0h10.03m5 0h10.04m5.02 0h10.02m5 0h10.05m5 0h10.04m5.03 0h10.03m5 0H1804m5.02 0h10.03m5 0h10.05m5 0h10.04m5.02 0h10.03m5 0h10.03m5.02 0h10.03m5 0h10.05m5 0h10.04m5.02 0h10.02m5 0h10.04m5.02 0h10.03m5.02 0h10.03m5.02 0h10.03m5.02 0h10.03m5 0h10.04m5 0h10.04m5 0h10.04m5.02 0h10.03m5 0h10.05m5 0h5.03l.94-.08.92-.22.87-.36.8-.5.72-.6.6-.72.5-.8.36-.87.23-.9.08-.95v-4.95m0-4.94v-9.9m0-4.94v-9.9m0-4.93v-9.9m0-4.94v-9.9m0-4.93v-9.9m0-4.94v-9.88m0-4.95v-9.9m0-4.93v-9.9m0-4.94v-9.9m0-4.93v-9.9m0-4.94v-9.9m0-4.94v-9.9m0-4.94v-9.9m0-4.93v-9.9m0-4.95v-9.9m0-4.93v-9.9m0-4.94v-9.9m0-4.93v-9.9m0-4.94v-9.88m0-4.94v-9.9m0-4.94v-9.88m0-4.95v-9.88m0-4.94v-9.9m0-4.94v-4.94" stroke="#3a414a" fill="none"/><path d="M1100.98 711.23l12.9-7.64v15.26z" stroke="#3a414a" fill="#3a414a"/><path d="M2105.9 348.7l.5-.03v.54h-1v-.55z" stroke="#3a414a" stroke-width=".05" fill="#3a414a"/><path d="M376.6-14a6 6 0 0 1 6-6h848a6 6 0 0 1 6 6v625.4a6 6 0 0 1-6 6h-848a6 6 0 0 1-6-6z" fill-opacity="0"/><path d="M377.5-17.13l.26-.4.6-.7.73-.62.4-.25m1.72-.72l.46-.1.93-.08h1.5m2 0h3m2 0h3m1.98 0h3m2 0h2.98m2 0h3m2 0h2.98m2 0h3m1.98 0h3m2 0h3m1.98 0h3m2 0h2.98m2 0h3m1.98 0h3m2 0h3m1.98 0h3m2 0h2.98m2 0h3m2 0h2.98m2 0h3m1.98 0h3m2 0h2.98m2 0h3m2 0h2.98m2 0h3m1.98 0h3m2 0h2.98m2 0h3m2 0h2.98m2 0h3m2 0h2.98m2 0h3m1.98 0h3m2 0h2.98m2 0h3m2 0h2.98m2 0h3m1.98 0h3m2 0h2.98m2 0h3m2 0h2.98m2 0h3m1.98 0h3m2 0h3m1.98 0h3m2 0h2.98m2 0h3m2 0h2.98m2 0h3m1.98 0h3m2 0h2.98m2 0h3m2 0h2.98m2 0h3m1.98 0h3m2 0h2.98m2 0h3m2 0h2.98m2 0h3m1.98 0h3m2 0h3m1.98 0h3m2 0h2.98m2 0h3m2 0h2.98m2 0h3m1.98 0h3m2 0h2.98m2 0h3m2 0h2.98m2 0h3m1.98 0h3m2 0h2.98m2 0h3m2 0h2.98m2 0h3m1.98 0h3m2 0h3m1.98 0h3m2 0h2.98m2 0h3m2 0h2.98m2 0h3m1.98 0h3m2 0h2.98m2 0h3m2 0h2.98m2 0h3m1.98 0h3m2 0h2.98m2 0h3m2 0h2.98m2 0h3m1.98 0h3m2 0h3m1.98 0h3m2 0h2.98m2 0h3m2 0h2.98m2 0h3m1.98 0h3m2 0h2.98m2 0h3m2 0h2.98m2 0h3m1.98 0h3m2 0h2.98m2 0h3m2 0h2.98m2 0h3m1.98 0h3m2 0h2.98m2 0h3m2 0h2.98m2 0h3m2 0h2.98m2 0h3m1.98 0h3m2 0h2.98m2 0h3m2 0h2.98m2 0h3m1.98 0h3m2 0h2.98m2 0h3m2 0h2.98m2 0h3m1.98 0h3m2 0h3m1.98 0h3m2 0h2.98m2 0h3m2 0h2.98m2 0h3m1.98 0h3m2 0h2.98m2 0h3m2 0h2.98m2 0h3m1.98 0h3m2 0h2.98m2 0h3m2 0h2.98m2 0h3m1.98 0h3m2 0h2.98m2 0h3m2 0h2.98m2 0h3m1.98 0h3m2 0h3m1.98 0h3m2 0h2.98m2 0h3m2 0h2.98m2 0h3m1.98 0h3m2 0h2.98m2 0h3m2 0h2.98m2 0h3m1.98 0h3m2 0h2.98m2 0h3m2 0h2.98m2 0h3m1.98 0h3m2 0h3m1.98 0h3m2 0h2.98m2 0h1.5l.93.07.46.1m1.74.73l.4.25.72.6.6.72.25.4m.73 1.73l.1.46.08.94v1.5m0 2v3m0 2v3m0 2v3m0 2v3m0 2.02v3m0 2v3m0 2v3m0 2v3m0 2v3m0 2v3m0 2v3.02m0 2v3m0 2v3m0 2v3m0 2v3m0 2v3m0 2.02v3m0 2v3m0 2v3m0 2v3m0 2v3m0 2v3m0 2v3.02m0 2v3m0 2v3m0 2v3m0 2v3m0 2v3m0 2v3.02m0 2v3m0 2v3m0 2v3m0 2v3m0 2v3m0 2v3.02m0 2v3m0 2v3m0 2v3m0 2v3m0 2v3m0 2v3m0 2.02v3m0 2v3m0 2v3m0 2v3m0 2v3m0 2v3.02m0 2v3m0 2v3m0 2v3m0 2v3m0 2v3m0 2v3m0 2.02v3m0 2v3m0 2v3m0 2v3m0 2v3m0 2v3m0 2v3.02m0 2v3m0 2v3m0 2v3m0 2v3m0 2v3m0 2v3.02m0 2v3m0 2v3m0 2v3m0 2v3m0 2v3m0 2v3.02m0 2v3m0 2v3m0 2v3m0 2v3m0 2v3m0 2v3.02m0 2v3m0 2v3m0 2v3m0 2v3m0 2v3m0 2v3.02m0 2v3m0 2v3m0 2v3m0 2v3m0 2v3m0 2v3.02m0 2v3m0 2v3m0 2v3m0 2v3m0 2v3m0 2v3m0 2.02v3m0 2v3m0 2v3m0 2v3m0 2v3m0 2v3m0 2.02v3m0 2v3m0 2v3m0 2v3m0 2v3m0 2v3m0 2.02v3m0 2v3m0 2v3m0 2v3m0 2v3m0 2v3m0 2v3.02m0 2v3m0 2v3m0 2v3m0 2v3m0 2v3m0 2v3.02m0 2v3m0 2v3m0 2v3m0 2v1.5l-.06.95-.1.45m-.73 1.73l-.23.4-.6.72-.73.6-.4.26m-1.73.73l-.45.1-.94.08h-1.48m-2 0h-3m-2 0h-2.98m-2 0h-3m-1.98 0h-3m-2 0h-2.98m-2 0h-3m-2 0h-2.98m-2 0h-3m-1.98 0h-3m-2 0h-2.98m-2 0h-3m-2 0h-2.98m-2 0h-3m-1.98 0h-3m-2 0h-3m-1.98 0h-3m-2 0h-2.98m-2 0h-3m-2 0h-2.98m-2 0h-3m-1.98 0h-3m-2 0h-2.98m-2 0h-3m-2 0h-2.98m-2 0h-3m-1.98 0h-3m-2 0h-2.98m-2 0h-3m-2 0h-2.98m-2 0h-3m-1.98 0h-3m-2 0h-3m-1.98 0h-3m-2 0h-2.98m-2 0h-3m-2 0h-2.98m-2 0h-3m-1.98 0h-3m-2 0h-2.98m-2 0h-3m-2 0h-2.98m-2 0h-3m-1.98 0h-3m-2 0h-2.98m-2 0h-3m-2 0h-2.98m-2 0h-3m-1.98 0h-3m-2 0h-3m-1.98 0h-3m-2 0h-2.98m-2 0h-3m-2 0h-2.98m-2 0h-3m-1.98 0h-3m-2 0h-2.98m-2 0h-3m-2 0h-2.98m-2 0h-3m-1.98 0h-3m-2 0h-2.98m-2 0h-3m-2 0h-2.98m-2 0h-3m-1.98 0h-3m-2 0h-3m-1.98 0h-3m-2 0h-2.98m-2 0h-3m-2 0h-2.98m-2 0h-3m-1.98 0h-3m-2 0H865m-2 0h-3m-2 0H855m-2 0h-3m-1.98 0h-3m-2 0h-2.98m-2 0h-3m-2 0h-2.98m-2 0h-3m-1.98 0h-3m-2 0h-3m-1.98 0h-3m-2 0h-2.98m-2 0h-3m-2 0h-2.98m-2 0h-3m-1.98 0h-3m-2 0h-2.98m-2 0h-3m-2 0h-2.98m-2 0h-3m-1.98 0h-3m-2 0h-2.98m-2 0h-3m-2 0h-2.98m-2 0h-3m-1.98 0h-3m-2 0h-3m-1.98 0h-3m-2 0h-2.98m-2 0h-3m-2 0h-2.98m-2 0h-3m-1.98 0h-3m-2 0h-2.98m-2 0h-3m-2 0h-2.98m-2 0h-3m-1.98 0h-3m-2 0h-2.98m-2 0h-3m-2 0h-2.98m-2 0h-3m-1.98 0h-3m-2 0h-3m-1.98 0h-3m-2 0h-2.98m-2 0h-3m-2 0h-2.98m-2 0h-3m-1.98 0h-3m-2 0h-2.98m-2 0h-3m-2 0h-2.98m-2 0h-3m-1.98 0h-3m-2 0h-2.98m-2 0h-3m-2 0h-2.98m-2 0h-3m-1.98 0h-3m-2 0h-3m-1.98 0h-3m-2 0h-2.98m-2 0h-3m-2 0h-2.98m-2 0h-3m-1.98 0h-3m-2 0h-2.98m-2 0h-3m-2 0h-2.98m-2 0h-3m-1.98 0h-3m-2 0h-2.98m-2 0h-3m-2 0h-2.98m-2 0h-3m-1.98 0h-3m-2 0h-3m-1.98 0h-3m-2 0h-2.98m-2 0h-3m-2 0h-2.98m-2 0h-3m-1.98 0h-3m-2 0H441m-2 0h-3m-2 0H431m-2 0h-3m-1.98 0h-3m-2 0h-2.98m-2 0h-3m-2 0h-2.98m-2 0h-3m-1.98 0h-3m-2 0h-3m-1.98 0h-3m-2 0h-1.5l-.92-.06-.46-.12m-1.73-.7l-.4-.26-.73-.6-.6-.72-.26-.4m-.7-1.74l-.1-.45-.08-.94v-1.5m0-2v-3m0-2v-3m0-2v-3m0-2v-3m0-2v-3m0-2v-3m0-2v-3m0-2.02v-3m0-2v-3m0-2v-3m0-2v-3m0-2v-3m0-2v-3m0-2.02v-3m0-2v-3m0-2v-3m0-2v-3m0-2v-3m0-2v-3m0-2v-3.02m0-2v-3m0-2v-3m0-2v-3m0-2v-3m0-2v-3m0-2v-3.02m0-2v-3m0-2v-3m0-2v-3m0-2v-3m0-2v-3m0-2v-3.02m0-2v-3m0-2v-3m0-2v-3m0-2v-3m0-2v-3m0-2v-3.02m0-2v-3m0-2v-3m0-2v-3m0-2v-3m0-2v-3m0-2v-3.02m0-2v-3m0-2v-3m0-2v-3m0-2v-3m0-2v-3m0-2v-3.02m0-2v-3m0-2v-3m0-2v-3m0-2v-3m0-2v-3m0-2v-3m0-2.02v-3m0-2v-3m0-2v-3m0-2v-3m0-2v-3m0-2v-3.02m0-2v-3m0-2v-3m0-2v-3m0-2v-3m0-2v-3m0-2v-3m0-2.02v-3m0-2v-3m0-2v-3m0-2v-3m0-2v-3m0-2v-3m0-2.02v-3m0-2v-3m0-2v-3m0-2v-3m0-2v-3m0-2v-3m0-2v-3.02m0-2v-3m0-2v-3m0-2v-3m0-2v-3m0-2v-3m0-2v-3.02m0-2v-3m0-2v-3m0-2v-3m0-2v-3m0-2v-3m0-2v-3.02m0-2v-3m0-2v-3m0-2v-3m0-2v-3m0-2v-3m0-2v-3.02m0-2v-3m0-2v-3m0-2v-3m0-2v-3m0-2v-3m0-2v-3.02m0-2v-3m0-2v-3m0-2v-3m0-2v-3m0-2v-3m0-2v-3.02m0-2v-3m0-2v-3m0-2v-3m0-2v-3m0-2v-3m0-2V24.5m0-2v-3m0-2v-3m0-2v-3m0-2v-3m0-2v-3m0-2v-3m0-2.02v-3m0-2V-14l.07-.94.1-.46" stroke="#000" fill="none"/><use xlink:href="#z" transform="matrix(1,0,0,1,381.6144010237231,-15) translate(0 17.77777777777778)"/><path d="M580.14 458.7c22 0 39.86 17.85 39.86 39.87 0 22-17.85 39.86-39.86 39.86h-40.28c-22 0-39.86-17.85-39.86-39.86 0-22.02 17.85-39.87 39.86-39.87z" stroke="#3a414a" fill="#fff"/><use xlink:href="#A" transform="matrix(1,0,0,1,505,463.70454545454544) translate(21.671666666666667 26.52777777777778)"/><use xlink:href="#B" transform="matrix(1,0,0,1,505,463.70454545454544) translate(13.122283950617275 53.19444444444445)"/><path d="M740.14 458.7c22 0 39.86 17.85 39.86 39.87 0 22-17.85 39.86-39.86 39.86h-40.28c-22 0-39.86-17.85-39.86-39.86 0-22.02 17.85-39.87 39.86-39.87z" stroke="#3a414a" fill="#fff"/><use xlink:href="#A" transform="matrix(1,0,0,1,665,463.70454545454544) translate(21.671666666666667 26.52777777777778)"/><use xlink:href="#B" transform="matrix(1,0,0,1,665,463.70454545454544) translate(13.122283950617275 53.19444444444445)"/><path d="M900.14 458.7c22 0 39.86 17.85 39.86 39.87 0 22-17.85 39.86-39.86 39.86h-40.28c-22 0-39.86-17.85-39.86-39.86 0-22.02 17.85-39.87 39.86-39.87z" stroke="#3a414a" fill="#fff"/><use xlink:href="#A" transform="matrix(1,0,0,1,825,463.70454545454544) translate(21.671666666666667 26.52777777777778)"/><use xlink:href="#B" transform="matrix(1,0,0,1,825,463.70454545454544) translate(13.122283950617275 53.19444444444445)"/><path d="M580.14 100c22 0 39.86 17.85 39.86 39.86 0 22.02-17.85 39.87-39.86 39.87h-40.28c-22 0-39.86-17.85-39.86-39.87 0-22 17.85-39.86 39.86-39.86z" stroke="#3a414a" fill="#fff"/><use xlink:href="#A" transform="matrix(1,0,0,1,505,105.00000000000001) translate(21.671666666666667 26.52777777777778)"/><use xlink:href="#C" transform="matrix(1,0,0,1,505,105.00000000000001) translate(27.31981481481482 53.19444444444445)"/><path d="M840.14 100c22 0 39.86 17.85 39.86 39.86 0 22.02-17.85 39.87-39.86 39.87h-40.28c-22 0-39.86-17.85-39.86-39.87 0-22 17.85-39.86 39.86-39.86z" stroke="#3a414a" fill="#fff"/><use xlink:href="#A" transform="matrix(1,0,0,1,765,105.00000000000001) translate(21.671666666666667 26.52777777777778)"/><use xlink:href="#C" transform="matrix(1,0,0,1,765,105.00000000000001) translate(27.31981481481482 53.19444444444445)"/><path d="M1080.14 100c22 0 39.86 17.85 39.86 39.86 0 22.02-17.85 39.87-39.86 39.87h-40.28c-22 0-39.86-17.85-39.86-39.87 0-22 17.85-39.86 39.86-39.86z" stroke="#3a414a" fill="#fff"/><use xlink:href="#A" transform="matrix(1,0,0,1,1005,105.00000000000001) translate(21.671666666666667 26.52777777777778)"/><use xlink:href="#C" transform="matrix(1,0,0,1,1005,105.00000000000001) translate(27.31981481481482 53.19444444444445)"/><path d="M376.6 786a6 6 0 0 1 6-6h848a6 6 0 0 1 6 6v197.93a6 6 0 0 1-6 6h-848a6 6 0 0 1-6-6z" stroke="#3a414a" fill="#fff"/><use xlink:href="#D" transform="matrix(1,0,0,1,388.6144010237231,792) translate(0 180.45188977777775)"/><path d="M1080.14 458.7c22 0 39.86 17.85 39.86 39.87 0 22-17.85 39.86-39.86 39.86h-40.28c-22 0-39.86-17.85-39.86-39.86 0-22.02 17.85-39.87 39.86-39.87z" stroke="#3a414a" fill="#fff"/><use xlink:href="#A" transform="matrix(1,0,0,1,1005,463.7045454545454) translate(21.671666666666667 26.52777777777778)"/><use xlink:href="#B" transform="matrix(1,0,0,1,1005,463.7045454545454) translate(13.122283950617275 53.19444444444445)"/><path d="M560 196.6v245.22" stroke="#3a414a" fill="none"/><path d="M560 181.84l4.63 14.27h-9.26zM560 456.6l-4.63-14.28h9.26z" stroke="#3a414a" fill="#3a414a"/><path d="M594.87 194.3l118.1 249.1" stroke="#3a414a" fill="none"/><path d="M588.54 180.96l10.3 10.9-8.38 3.97zM719.3 456.74l-10.3-10.9 8.38-3.97z" stroke="#3a414a" fill="#3a414a"/><path d="M613 185.73l260.9 260.9" stroke="#3a414a" fill="none"/><path d="M602.56 175.28l13.36 6.8-6.55 6.57zM884.33 457.06l-13.36-6.8 6.55-6.56z" stroke="#3a414a" fill="#3a414a"/><path d="M626.52 172.54l419.8 276.65" stroke="#3a414a" fill="none"/><path d="M614.2 164.42l14.45 3.98-5.1 7.74zM1058.65 457.3l-14.46-3.97 5.1-7.74z" stroke="#3a414a" fill="#3a414a"/><path d="M769.95 187.9l-199.9 257.37" stroke="#3a414a" fill="none"/><path d="M779 176.25l-5.08 14.1-7.32-5.67zM561 456.93l5.08-14.1 7.32 5.67z" stroke="#3a414a" fill="#3a414a"/><path d="M793.36 196.03L738 442.23" stroke="#3a414a" fill="none"/><path d="M796.6 181.63l1.4 14.93-9.05-2.03zM734.75 456.63l-1.4-14.94 9.06 2.03z" stroke="#3a414a" fill="#3a414a"/><path d="M823.46 196.24l53.08 245.95" stroke="#3a414a" fill="none"/><path d="M820.34 181.8l7.54 12.98-9.06 1.95zM879.66 456.62l-7.54-12.96 9.06-1.96z" stroke="#3a414a" fill="#3a414a"/><path d="M843.2 192.42l206.44 253.1" stroke="#3a414a" fill="none"/><path d="M833.86 180.98l12.6 8.13-7.17 5.87zM1058.98 456.95l-12.6-8.12 7.17-5.86z" stroke="#3a414a" fill="#3a414a"/><path d="M1000.4 179.9L600.2 449.63" stroke="#3a414a" fill="none"/><path d="M1012.65 171.65l-9.24 11.8-5.17-7.67zM587.97 457.88l9.24-11.8 5.2 7.67z" stroke="#3a414a" fill="#3a414a"/><path d="M1016.26 191.58l-256 256" stroke="#3a414a" fill="none"/><path d="M1026.7 181.14l-6.8 13.36-6.56-6.55zM749.8 458.03l6.82-13.36 6.55 6.55z" stroke="#3a414a" fill="#3a414a"/><path d="M1028.2 194.92L918.97 445.17" stroke="#3a414a" fill="none"/><path d="M1034.12 181.4l-1.46 14.92-8.5-3.7zM913.05 458.7l1.46-14.93 8.5 3.7z" stroke="#3a414a" fill="#3a414a"/><path d="M1052.84 196.6v245.22" stroke="#3a414a" fill="none"/><path d="M1052.84 181.84l4.64 14.27h-9.27zM1052.84 456.6l-4.63-14.28h9.28z" stroke="#3a414a" fill="#3a414a"/><g stroke="#3a414a"><path d="M526 359.6a6 6 0 0 1-6-6v-65.62a6 6 0 0 1 6-6h588a6 6 0 0 1 6 6v65.6a6 6 0 0 1-6 6z" fill="#fff"/><path d="M520 351.83h600m-600-62.1h600" fill="none"/></g><g><use xlink:href="#E" transform="matrix(1,0,0,1,525.0000000000001,296.68265119414474) translate(191.4506172839506 28.944444444444443)"/><use xlink:href="#F" transform="matrix(1,0,0,1,525.0000000000001,296.68265119414474) translate(285.15432098765433 28.944444444444443)"/></g><path d="M560 542.65V763.6M560 542.66v-.5" stroke="#3a414a" fill="none"/><path d="M560 778.38l-4.63-14.26h9.26z" stroke="#3a414a" fill="#3a414a"/><path d="M720 542.65v220.97M720 542.66v-.5" stroke="#3a414a" fill="none"/><path d="M720 778.38l-4.63-14.26h9.26z" stroke="#3a414a" fill="#3a414a"/><path d="M880 542.65v220.97M880 542.66v-.5" stroke="#3a414a" fill="none"/><path d="M880 778.38l-4.63-14.26h9.26z" stroke="#3a414a" fill="#3a414a"/><path d="M1060 539.43v224.2M1060 539.45v-.52" stroke="#3a414a" fill="none"/><path d="M1060 778.38l-4.63-14.26h9.27z" stroke="#3a414a" fill="#3a414a"/><path d="M1103.3 844.97c22.1 0 40 17.9 40 40s-17.9 40-40 40h-500c-22.1 0-40-17.9-40-40s17.9-40 40-40z" stroke="#3a414a" fill="#fff"/><g><use xlink:href="#G" transform="matrix(1,0,0,1,568.296983865628,849.965909090909) translate(198.02469135802468 39.65277777777778)"/><use xlink:href="#H" transform="matrix(1,0,0,1,568.296983865628,849.965909090909) translate(260.9259259259259 39.65277777777778)"/></g><path d="M1220 26a6 6 0 0 1 6-6h68a6 6 0 0 1 6 6v610.46a6 6 0 0 1-6 6h-68a6 6 0 0 1-6-6z" fill="none"/><path d="M1300 642.46c-5.52 0-10-4.48-10-10V341.23c0-5.53-4.48-10-10-10 5.52 0 10-4.48 10-10V30c0-5.52 4.48-10 10-10" stroke="#3a414a" stroke-width="3" fill="none"/><path d="M1121 320.74l134.7-13.62" stroke="#3a414a" fill="none"/><path d="M1121.06 321.23l-.56.06v-1.02l.46-.04z" stroke="#3a414a" stroke-width=".05" fill="#3a414a"/><path d="M1270.4 305.63l-13.74 6.05-.93-9.22z" stroke="#3a414a" fill="#3a414a"/><path d="M1415.82 312.6h107.64" stroke="#3a414a" fill="none"/><path d="M1415.83 313.1h-.55l.04-.5-.03-.5h.53z" stroke="#3a414a" stroke-width=".05" fill="#3a414a"/><path d="M1538.23 312.6l-14.27 4.63v-9.27z" stroke="#3a414a" fill="#3a414a"/><path d="M1594.82 316.4c0 15.13-12.27 27.4-27.4 27.4-15.15 0-27.42-12.27-27.42-27.4 0-15.14 12.27-27.4 27.4-27.4 15.15 0 27.42 12.26 27.42 27.4z" stroke="#3a414a" fill="#f2f3f5"/><g><use xlink:href="#I" transform="matrix(1,0,0,1,1545,293.9870495840106) translate(16.32716049382716 26.21527777777778)"/></g><path d="M1595.32 316.98h107.64M1595.33 316.98h-.5" stroke="#3a414a" fill="none"/><path d="M1717.73 316.98l-14.27 4.64v-9.27z" stroke="#3a414a" fill="#3a414a"/><path d="M1774.32 320.8c0 15.12-12.27 27.4-27.4 27.4-15.15 0-27.42-12.28-27.42-27.4 0-15.15 12.27-27.42 27.4-27.42 15.15 0 27.42 12.27 27.42 27.4z" stroke="#3a414a" fill="#f2f3f5"/><g><use xlink:href="#J" transform="matrix(1,0,0,1,1724.4992280279635,298.37709938366703) translate(16.32716049382716 26.21527777777778)"/></g><path d="M1774.82 316.98h107.64M1774.83 316.98h-.5" stroke="#3a414a" fill="none"/><path d="M1897.22 316.98l-14.26 4.64v-9.27z" stroke="#3a414a" fill="#3a414a"/><path d="M1953.82 320.8c0 15.12-12.27 27.4-27.4 27.4-15.15 0-27.42-12.28-27.42-27.4 0-15.15 12.27-27.42 27.4-27.42 15.14 0 27.42 12.27 27.42 27.4z" stroke="#3a414a" fill="#f2f3f5"/><g><use xlink:href="#K" transform="matrix(1,0,0,1,1903.998456055927,298.37709938366703) translate(16.32716049382716 26.21527777777778)"/></g><path d="M1954.32 316.98h107.64M1954.33 316.98h-.5" stroke="#3a414a" fill="none"/><path d="M2076.72 316.98l-14.26 4.64v-9.27z" stroke="#3a414a" fill="#3a414a"/><path d="M2133.32 320.8c0 15.12-12.28 27.4-27.4 27.4-15.15 0-27.42-12.28-27.42-27.4 0-15.15 12.27-27.42 27.4-27.42 15.14 0 27.42 12.27 27.42 27.4z" stroke="#3a414a" fill="#f2f3f5"/><g><use xlink:href="#L" transform="matrix(1,0,0,1,2083.4976840838904,298.37709938366703) translate(16.32716049382716 26.21527777777778)"/></g><defs><path fill="#3a414a" d="M23 0v-37h61v-169l-59 37v-38l62-41h46v211h57V0H23" id="M"/><use transform="matrix(0.06172839506172839,0,0,0.06172839506172839,0,0)" xlink:href="#M" id="a"/><path fill="#3a414a" d="M197 0v-115H63V0H30v-248h33v105h134v-105h34V0h-34" id="N"/><path fill="#3a414a" d="M100-194c62-1 85 37 85 99 1 63-27 99-86 99S16-35 15-95c0-66 28-99 85-99zM99-20c44 1 53-31 53-75 0-43-8-75-51-75s-53 32-53 75 10 74 51 75" id="O"/><path fill="#3a414a" d="M206 0h-36l-40-164L89 0H53L-1-190h32L70-26l43-164h34l41 164 42-164h31" id="P"/><g id="b"><use transform="matrix(0.061728395061728385,0,0,0.061728395061728385,0,0)" xlink:href="#N"/><use transform="matrix(0.061728395061728385,0,0,0.061728395061728385,15.987654320987652,0)" xlink:href="#O"/><use transform="matrix(0.061728395061728385,0,0,0.061728395061728385,28.33333333333333,0)" xlink:href="#P"/></g><path fill="#3a414a" d="M59-47c-2 24 18 29 38 22v24C64 9 27 4 27-40v-127H5v-23h24l9-43h21v43h35v23H59v120" id="Q"/><g id="c"><use transform="matrix(0.061728395061728385,0,0,0.061728395061728385,0,0)" xlink:href="#Q"/><use transform="matrix(0.061728395061728385,0,0,0.061728395061728385,6.1728395061728385,0)" xlink:href="#O"/></g><path fill="#3a414a" d="M84 4C32 4 15-41 15-95c0-55 18-99 73-99 29 0 47 12 58 34l2-30h48l-1 265h-49V-32C136-9 114 4 84 4zm21-34c32 0 41-29 41-66 0-36-9-64-40-64-33 0-39 30-40 65 0 43 13 65 39 65" id="R"/><path fill="#3a414a" d="M85 4C-2 5 27-109 22-190h50c7 57-23 150 33 157 60-5 35-97 40-157h50l1 190h-47c-2-12 1-28-3-38-12 25-28 42-61 42" id="S"/><path fill="#3a414a" d="M185-48c-13 30-37 53-82 52C43 2 14-33 14-96s30-98 90-98c62 0 83 45 84 108H66c0 31 8 55 39 56 18 0 30-7 34-22zm-45-69c5-46-57-63-70-21-2 6-4 13-4 21h74" id="T"/><path fill="#3a414a" d="M135-150c-39-12-60 13-60 57V0H25l-1-190h47c2 13-1 29 3 40 6-28 27-53 61-41v41" id="U"/><path fill="#3a414a" d="M123 10C108 53 80 86 19 72V37c35 8 53-11 59-39L3-190h52l48 148c12-52 28-100 44-148h51" id="V"/><g id="d"><use transform="matrix(0.061728395061728385,0,0,0.061728395061728385,0,0)" xlink:href="#R"/><use transform="matrix(0.061728395061728385,0,0,0.061728395061728385,13.518518518518515,0)" xlink:href="#S"/><use transform="matrix(0.061728395061728385,0,0,0.061728395061728385,27.03703703703703,0)" xlink:href="#T"/><use transform="matrix(0.061728395061728385,0,0,0.061728395061728385,39.38271604938271,0)" xlink:href="#U"/><use transform="matrix(0.061728395061728385,0,0,0.061728395061728385,48.02469135802468,0)" xlink:href="#V"/></g><path fill="#3a414a" d="M141-36C126-15 110 5 73 4 37 3 15-17 15-53c-1-64 63-63 125-63 3-35-9-54-41-54-24 1-41 7-42 31l-33-3c5-37 33-52 76-52 45 0 72 20 72 64v82c-1 20 7 32 28 27v20c-31 9-61-2-59-35zM48-53c0 20 12 33 32 33 41-3 63-29 60-74-43 2-92-5-92 41" id="W"/><use transform="matrix(0.061728395061728385,0,0,0.061728395061728385,0,0)" xlink:href="#W" id="e"/><path fill="#3a414a" d="M135-143c-3-34-86-38-87 0 15 53 115 12 119 90S17 21 10-45l28-5c4 36 97 45 98 0-10-56-113-15-118-90-4-57 82-63 122-42 12 7 21 19 24 35" id="X"/><path fill="#3a414a" d="M84 4C-5 8 30-112 23-190h32v120c0 31 7 50 39 49 72-2 45-101 50-169h31l1 190h-30c-1-10 1-25-2-33-11 22-28 36-60 37" id="Y"/><path fill="#3a414a" d="M115-194c53 0 69 39 70 98 0 66-23 100-70 100C84 3 66-7 56-30L54 0H23l1-261h32v101c10-23 28-34 59-34zm-8 174c40 0 45-34 45-75 0-40-5-75-45-74-42 0-51 32-51 76 0 43 10 73 51 73" id="Z"/><path fill="#3a414a" d="M117-194c89-4 53 116 60 194h-32v-121c0-31-8-49-39-48C34-167 62-67 57 0H25l-1-190h30c1 10-1 24 2 32 11-22 29-35 61-36" id="aa"/><path fill="#3a414a" d="M100-194c63 0 86 42 84 106H49c0 40 14 67 53 68 26 1 43-12 49-29l28 8c-11 28-37 45-77 45C44 4 14-33 15-96c1-61 26-98 85-98zm52 81c6-60-76-77-97-28-3 7-6 17-6 28h103" id="ab"/><g id="f"><use transform="matrix(0.061728395061728385,0,0,0.061728395061728385,0,0)" xlink:href="#X"/><use transform="matrix(0.061728395061728385,0,0,0.061728395061728385,11.111111111111109,0)" xlink:href="#Y"/><use transform="matrix(0.061728395061728385,0,0,0.061728395061728385,23.456790123456784,0)" xlink:href="#Z"/><use transform="matrix(0.061728395061728385,0,0,0.061728395061728385,35.80246913580246,0)" xlink:href="#aa"/><use transform="matrix(0.061728395061728385,0,0,0.061728395061728385,48.14814814814814,0)" xlink:href="#ab"/><use transform="matrix(0.061728395061728385,0,0,0.061728395061728385,60.493827160493815,0)" xlink:href="#Q"/></g><path fill="#3a414a" d="M210-169c-67 3-38 105-44 169h-31v-121c0-29-5-50-35-48C34-165 62-65 56 0H25l-1-190h30c1 10-1 24 2 32 10-44 99-50 107 0 11-21 27-35 58-36 85-2 47 119 55 194h-31v-121c0-29-5-49-35-48" id="ac"/><path fill="#3a414a" d="M24-231v-30h32v30H24zM24 0v-190h32V0H24" id="ad"/><path fill="#3a414a" d="M114-163C36-179 61-72 57 0H25l-1-190h30c1 12-1 29 2 39 6-27 23-49 58-41v29" id="ae"/><g id="g"><use transform="matrix(0.061728395061728385,0,0,0.061728395061728385,0,0)" xlink:href="#ac"/><use transform="matrix(0.061728395061728385,0,0,0.061728395061728385,18.456790123456788,0)" xlink:href="#ad"/><use transform="matrix(0.061728395061728385,0,0,0.061728395061728385,23.33333333333333,0)" xlink:href="#aa"/><use transform="matrix(0.061728395061728385,0,0,0.061728395061728385,35.679012345679006,0)" xlink:href="#ab"/><use transform="matrix(0.061728395061728385,0,0,0.061728395061728385,48.02469135802468,0)" xlink:href="#ae"/></g><path fill="#3a414a" d="M266 0h-40l-56-210L115 0H75L2-248h35L96-30l15-64 43-154h32l59 218 59-218h35" id="af"/><path fill="#3a414a" d="M106-169C34-169 62-67 57 0H25v-261h32l-1 103c12-21 28-36 61-36 89 0 53 116 60 194h-32v-121c2-32-8-49-39-48" id="ag"/><g id="h"><use transform="matrix(0.061728395061728385,0,0,0.061728395061728385,0,0)" xlink:href="#af"/><use transform="matrix(0.061728395061728385,0,0,0.061728395061728385,20.925925925925924,0)" xlink:href="#ag"/><use transform="matrix(0.061728395061728385,0,0,0.061728395061728385,33.2716049382716,0)" xlink:href="#W"/><use transform="matrix(0.061728395061728385,0,0,0.061728395061728385,45.61728395061728,0)" xlink:href="#Q"/></g><path fill="#3a414a" d="M115-3C79 11 28 4 28-45v-112H4v-33h27l15-45h31v45h36v33H77v99c-1 23 16 31 38 25v30" id="ah"/><path fill="#3a414a" d="M133-34C117-15 103 5 69 4 32 3 11-16 11-54c-1-60 55-63 116-61 1-26-3-47-28-47-18 1-26 9-28 27l-52-2c7-38 36-58 82-57s74 22 75 68l1 82c-1 14 12 18 25 15v27c-30 8-71 5-69-32zm-48 3c29 0 43-24 42-57-32 0-66-3-65 30 0 17 8 27 23 27" id="ai"/><path fill="#3a414a" d="M137-138c1-29-70-34-71-4 15 46 118 7 119 86 1 83-164 76-172 9l43-7c4 19 20 25 44 25 33 8 57-30 24-41C81-84 22-81 20-136c-2-80 154-74 161-7" id="aj"/><path fill="#3a414a" d="M147 0L96-86 75-71V0H25v-261h50v150l67-79h53l-66 74L201 0h-54" id="ak"/><g id="i"><use transform="matrix(0.061728395061728385,0,0,0.061728395061728385,0,0)" xlink:href="#ah"/><use transform="matrix(0.061728395061728385,0,0,0.061728395061728385,7.345679012345678,0)" xlink:href="#ai"/><use transform="matrix(0.061728395061728385,0,0,0.061728395061728385,19.691358024691354,0)" xlink:href="#aj"/><use transform="matrix(0.061728395061728385,0,0,0.061728395061728385,32.03703703703703,0)" xlink:href="#ak"/></g><path fill="#3a414a" d="M24 0v-261h32V0H24" id="al"/><path fill="#3a414a" d="M85-194c31 0 48 13 60 33l-1-100h32l1 261h-30c-2-10 0-23-3-31C134-8 116 4 85 4 32 4 16-35 15-94c0-66 23-100 70-100zm9 24c-40 0-46 34-46 75 0 40 6 74 45 74 42 0 51-32 51-76 0-42-9-74-50-73" id="am"/><g id="j"><use transform="matrix(0.061728395061728385,0,0,0.061728395061728385,0,0)" xlink:href="#X"/><use transform="matrix(0.061728395061728385,0,0,0.061728395061728385,11.111111111111109,0)" xlink:href="#ag"/><use transform="matrix(0.061728395061728385,0,0,0.061728395061728385,23.456790123456784,0)" xlink:href="#O"/><use transform="matrix(0.061728395061728385,0,0,0.061728395061728385,35.80246913580246,0)" xlink:href="#Y"/><use transform="matrix(0.061728395061728385,0,0,0.061728395061728385,48.14814814814814,0)" xlink:href="#al"/><use transform="matrix(0.061728395061728385,0,0,0.061728395061728385,53.02469135802468,0)" xlink:href="#am"/></g><g id="k"><use transform="matrix(0.061728395061728385,0,0,0.061728395061728385,0,0)" xlink:href="#ac"/><use transform="matrix(0.061728395061728385,0,0,0.061728395061728385,18.456790123456788,0)" xlink:href="#ad"/><use transform="matrix(0.061728395061728385,0,0,0.061728395061728385,23.33333333333333,0)" xlink:href="#aa"/><use transform="matrix(0.061728395061728385,0,0,0.061728395061728385,35.679012345679006,0)" xlink:href="#ab"/><use transform="matrix(0.061728395061728385,0,0,0.061728395061728385,48.02469135802468,0)" xlink:href="#ae"/></g><path fill="#3a414a" d="M115-194c55 1 70 41 70 98S169 2 115 4C84 4 66-9 55-30l1 105H24l-1-265h31l2 30c10-21 28-34 59-34zm-8 174c40 0 45-34 45-75s-6-73-45-74c-42 0-51 32-51 76 0 43 10 73 51 73" id="an"/><path fill="#3a414a" d="M101-234c-31-9-42 10-38 44h38v23H63V0H32v-167H5v-23h27c-7-52 17-82 69-68v24" id="ao"/><g id="l"><use transform="matrix(0.061728395061728385,0,0,0.061728395061728385,0,0)" xlink:href="#an"/><use transform="matrix(0.061728395061728385,0,0,0.061728395061728385,12.345679012345677,0)" xlink:href="#ab"/><use transform="matrix(0.061728395061728385,0,0,0.061728395061728385,24.691358024691354,0)" xlink:href="#ae"/><use transform="matrix(0.061728395061728385,0,0,0.061728395061728385,32.03703703703703,0)" xlink:href="#ao"/><use transform="matrix(0.061728395061728385,0,0,0.061728395061728385,38.20987654320987,0)" xlink:href="#O"/><use transform="matrix(0.061728395061728385,0,0,0.061728395061728385,50.55555555555555,0)" xlink:href="#ae"/><use transform="matrix(0.061728395061728385,0,0,0.061728395061728385,57.90123456790123,0)" xlink:href="#ac"/></g><g id="m"><use transform="matrix(0.061728395061728385,0,0,0.061728395061728385,0,0)" xlink:href="#N"/><use transform="matrix(0.061728395061728385,0,0,0.061728395061728385,15.987654320987652,0)" xlink:href="#O"/><use transform="matrix(0.061728395061728385,0,0,0.061728395061728385,28.33333333333333,0)" xlink:href="#P"/></g><use transform="matrix(0.061728395061728385,0,0,0.061728395061728385,0,0)" xlink:href="#W" id="n"/><g id="o"><use transform="matrix(0.061728395061728385,0,0,0.061728395061728385,0,0)" xlink:href="#X"/><use transform="matrix(0.061728395061728385,0,0,0.061728395061728385,11.111111111111109,0)" xlink:href="#Y"/><use transform="matrix(0.061728395061728385,0,0,0.061728395061728385,23.456790123456784,0)" xlink:href="#Z"/><use transform="matrix(0.061728395061728385,0,0,0.061728395061728385,35.80246913580246,0)" xlink:href="#aa"/><use transform="matrix(0.061728395061728385,0,0,0.061728395061728385,48.14814814814814,0)" xlink:href="#ab"/><use transform="matrix(0.061728395061728385,0,0,0.061728395061728385,60.493827160493815,0)" xlink:href="#Q"/></g><g id="p"><use transform="matrix(0.061728395061728385,0,0,0.061728395061728385,0,0)" xlink:href="#ac"/><use transform="matrix(0.061728395061728385,0,0,0.061728395061728385,18.456790123456788,0)" xlink:href="#ad"/><use transform="matrix(0.061728395061728385,0,0,0.061728395061728385,23.33333333333333,0)" xlink:href="#aa"/><use transform="matrix(0.061728395061728385,0,0,0.061728395061728385,35.679012345679006,0)" xlink:href="#ab"/><use transform="matrix(0.061728395061728385,0,0,0.061728395061728385,48.02469135802468,0)" xlink:href="#ae"/></g><path fill="#3a414a" d="M135-194c53 0 70 44 70 98 0 56-19 98-73 100-31 1-45-17-59-34 3 33 2 69 2 105H25l-1-265h48c2 10 0 23 3 31 11-24 29-35 60-35zM114-30c33 0 39-31 40-66 0-38-9-64-40-64-56 0-55 130 0 130" id="ap"/><path fill="#3a414a" d="M110-194c64 0 96 36 96 99 0 64-35 99-97 99-61 0-95-36-95-99 0-62 34-99 96-99zm-1 164c35 0 45-28 45-65 0-40-10-65-43-65-34 0-45 26-45 65 0 36 10 65 43 65" id="aq"/><path fill="#3a414a" d="M135-194c87-1 58 113 63 194h-50c-7-57 23-157-34-157-59 0-34 97-39 157H25l-1-190h47c2 12-1 28 3 38 12-26 28-41 61-42" id="ar"/><path fill="#3a414a" d="M88-194c31-1 46 15 58 34l-1-101h50l1 261h-48c-2-10 0-23-3-31C134-8 116 4 84 4 32 4 16-41 15-95c0-56 19-97 73-99zm17 164c33 0 40-30 41-66 1-37-9-64-41-64s-38 30-39 65c0 43 13 65 39 65" id="as"/><g id="q"><use transform="matrix(0.061728395061728385,0,0,0.061728395061728385,0,0)" xlink:href="#U"/><use transform="matrix(0.061728395061728385,0,0,0.061728395061728385,8.641975308641975,0)" xlink:href="#T"/><use transform="matrix(0.061728395061728385,0,0,0.061728395061728385,20.98765432098765,0)" xlink:href="#aj"/><use transform="matrix(0.061728395061728385,0,0,0.061728395061728385,33.33333333333333,0)" xlink:href="#ap"/><use transform="matrix(0.061728395061728385,0,0,0.061728395061728385,46.85185185185185,0)" xlink:href="#aq"/><use transform="matrix(0.061728395061728385,0,0,0.061728395061728385,60.37037037037037,0)" xlink:href="#ar"/><use transform="matrix(0.061728395061728385,0,0,0.061728395061728385,73.88888888888889,0)" xlink:href="#as"/></g><path fill="#3a414a" d="M108 0H70L1-190h34L89-25l56-165h34" id="at"/><g id="r"><use transform="matrix(0.061728395061728385,0,0,0.061728395061728385,0,0)" xlink:href="#at"/><use transform="matrix(0.061728395061728385,0,0,0.061728395061728385,11.111111111111109,0)" xlink:href="#W"/><use transform="matrix(0.061728395061728385,0,0,0.061728395061728385,23.456790123456784,0)" xlink:href="#al"/><use transform="matrix(0.061728395061728385,0,0,0.061728395061728385,28.33333333333333,0)" xlink:href="#ad"/><use transform="matrix(0.061728395061728385,0,0,0.061728395061728385,33.20987654320987,0)" xlink:href="#am"/><use transform="matrix(0.061728395061728385,0,0,0.061728395061728385,45.55555555555555,0)" xlink:href="#W"/><use transform="matrix(0.061728395061728385,0,0,0.061728395061728385,57.90123456790123,0)" xlink:href="#Q"/><use transform="matrix(0.061728395061728385,0,0,0.061728395061728385,64.07407407407406,0)" xlink:href="#O"/><use transform="matrix(0.061728395061728385,0,0,0.061728395061728385,76.41975308641975,0)" xlink:href="#ae"/></g><path fill="#3a414a" d="M128 0H69L1-190h53L99-40l48-150h52" id="au"/><path fill="#3a414a" d="M25 0v-261h50V0H25" id="av"/><g id="s"><use transform="matrix(0.061728395061728385,0,0,0.061728395061728385,0,0)" xlink:href="#T"/><use transform="matrix(0.061728395061728385,0,0,0.061728395061728385,12.345679012345677,0)" xlink:href="#au"/><use transform="matrix(0.061728395061728385,0,0,0.061728395061728385,24.691358024691354,0)" xlink:href="#ai"/><use transform="matrix(0.061728395061728385,0,0,0.061728395061728385,37.03703703703703,0)" xlink:href="#av"/><use transform="matrix(0.061728395061728385,0,0,0.061728395061728385,43.20987654320987,0)" xlink:href="#S"/><use transform="matrix(0.061728395061728385,0,0,0.061728395061728385,56.72839506172839,0)" xlink:href="#ai"/><use transform="matrix(0.061728395061728385,0,0,0.061728395061728385,69.07407407407408,0)" xlink:href="#ah"/><use transform="matrix(0.061728395061728385,0,0,0.061728395061728385,76.41975308641976,0)" xlink:href="#T"/></g><g id="t"><use transform="matrix(0.061728395061728385,0,0,0.061728395061728385,0,0)" xlink:href="#Q"/><use transform="matrix(0.061728395061728385,0,0,0.061728395061728385,6.1728395061728385,0)" xlink:href="#ag"/><use transform="matrix(0.061728395061728385,0,0,0.061728395061728385,18.518518518518515,0)" xlink:href="#ab"/></g><g id="u"><use transform="matrix(0.061728395061728385,0,0,0.061728395061728385,0,0)" xlink:href="#ae"/><use transform="matrix(0.061728395061728385,0,0,0.061728395061728385,7.345679012345678,0)" xlink:href="#ab"/><use transform="matrix(0.061728395061728385,0,0,0.061728395061728385,19.691358024691354,0)" xlink:href="#X"/><use transform="matrix(0.061728395061728385,0,0,0.061728395061728385,30.80246913580246,0)" xlink:href="#an"/><use transform="matrix(0.061728395061728385,0,0,0.061728395061728385,43.14814814814814,0)" xlink:href="#O"/><use transform="matrix(0.061728395061728385,0,0,0.061728395061728385,55.493827160493815,0)" xlink:href="#aa"/><use transform="matrix(0.061728395061728385,0,0,0.061728395061728385,67.83950617283949,0)" xlink:href="#X"/><use transform="matrix(0.061728395061728385,0,0,0.061728395061728385,78.9506172839506,0)" xlink:href="#ab"/></g><g id="v"><use transform="matrix(0.061728395061728385,0,0,0.061728395061728385,0,0)" xlink:href="#Z"/><use transform="matrix(0.061728395061728385,0,0,0.061728395061728385,12.345679012345677,0)" xlink:href="#ab"/></g><path fill="#3a414a" d="M231 0h-52l-39-155L100 0H48L-1-190h46L77-45c9-52 24-97 36-145h53l37 145 32-145h46" id="aw"/><g id="w"><use transform="matrix(0.061728395061728385,0,0,0.061728395061728385,0,0)" xlink:href="#U"/><use transform="matrix(0.061728395061728385,0,0,0.061728395061728385,8.641975308641975,0)" xlink:href="#T"/><use transform="matrix(0.061728395061728385,0,0,0.061728395061728385,20.98765432098765,0)" xlink:href="#aw"/><use transform="matrix(0.061728395061728385,0,0,0.061728395061728385,38.2716049382716,0)" xlink:href="#ai"/><use transform="matrix(0.061728395061728385,0,0,0.061728395061728385,50.61728395061728,0)" xlink:href="#U"/><use transform="matrix(0.061728395061728385,0,0,0.061728395061728385,59.25925925925925,0)" xlink:href="#as"/><use transform="matrix(0.061728395061728385,0,0,0.061728395061728385,72.77777777777777,0)" xlink:href="#T"/><use transform="matrix(0.061728395061728385,0,0,0.061728395061728385,85.12345679012344,0)" xlink:href="#as"/></g><g id="x"><use transform="matrix(0.061728395061728385,0,0,0.061728395061728385,0,0)" xlink:href="#ao"/><use transform="matrix(0.061728395061728385,0,0,0.061728395061728385,6.1728395061728385,0)" xlink:href="#O"/><use transform="matrix(0.061728395061728385,0,0,0.061728395061728385,18.518518518518515,0)" xlink:href="#ae"/></g><g id="y"><use transform="matrix(0.061728395061728385,0,0,0.061728395061728385,0,0)" xlink:href="#ad"/><use transform="matrix(0.061728395061728385,0,0,0.061728395061728385,4.876543209876543,0)" xlink:href="#Q"/><use transform="matrix(0.061728395061728385,0,0,0.061728395061728385,11.049382716049381,0)" xlink:href="#X"/></g><path fill="#3a414a" d="M135-194c52 0 70 43 70 98 0 56-19 99-73 100-30 1-46-15-58-35L72 0H24l1-261h50v104c11-23 29-37 60-37zM114-30c31 0 40-27 40-66 0-37-7-63-39-63s-41 28-41 65c0 36 8 64 40 64" id="ax"/><g id="z"><use transform="matrix(0.06172839506172839,0,0,0.06172839506172839,0,0)" xlink:href="#aj"/><use transform="matrix(0.06172839506172839,0,0,0.06172839506172839,12.345679012345679,0)" xlink:href="#S"/><use transform="matrix(0.06172839506172839,0,0,0.06172839506172839,25.864197530864196,0)" xlink:href="#ax"/><use transform="matrix(0.06172839506172839,0,0,0.06172839506172839,39.382716049382715,0)" xlink:href="#ar"/><use transform="matrix(0.06172839506172839,0,0,0.06172839506172839,52.901234567901234,0)" xlink:href="#T"/><use transform="matrix(0.06172839506172839,0,0,0.06172839506172839,65.24691358024691,0)" xlink:href="#ah"/></g><g id="A"><use transform="matrix(0.06172839506172839,0,0,0.06172839506172839,0,0)" xlink:href="#X"/><use transform="matrix(0.06172839506172839,0,0,0.06172839506172839,11.11111111111111,0)" xlink:href="#Y"/><use transform="matrix(0.06172839506172839,0,0,0.06172839506172839,23.45679012345679,0)" xlink:href="#Z"/><use transform="matrix(0.06172839506172839,0,0,0.06172839506172839,35.80246913580247,0)" xlink:href="#aa"/><use transform="matrix(0.06172839506172839,0,0,0.06172839506172839,48.148148148148145,0)" xlink:href="#ab"/><use transform="matrix(0.06172839506172839,0,0,0.06172839506172839,60.49382716049382,0)" xlink:href="#Q"/></g><g id="B"><use transform="matrix(0.06172839506172839,0,0,0.06172839506172839,0,0)" xlink:href="#at"/><use transform="matrix(0.06172839506172839,0,0,0.06172839506172839,11.11111111111111,0)" xlink:href="#W"/><use transform="matrix(0.06172839506172839,0,0,0.06172839506172839,23.45679012345679,0)" xlink:href="#al"/><use transform="matrix(0.06172839506172839,0,0,0.06172839506172839,28.333333333333336,0)" xlink:href="#ad"/><use transform="matrix(0.06172839506172839,0,0,0.06172839506172839,33.20987654320988,0)" xlink:href="#am"/><use transform="matrix(0.06172839506172839,0,0,0.06172839506172839,45.55555555555556,0)" xlink:href="#W"/><use transform="matrix(0.06172839506172839,0,0,0.06172839506172839,57.901234567901234,0)" xlink:href="#Q"/><use transform="matrix(0.06172839506172839,0,0,0.06172839506172839,64.07407407407408,0)" xlink:href="#O"/><use transform="matrix(0.06172839506172839,0,0,0.06172839506172839,76.41975308641976,0)" xlink:href="#ae"/></g><g id="C"><use transform="matrix(0.06172839506172839,0,0,0.06172839506172839,0,0)" xlink:href="#ac"/><use transform="matrix(0.06172839506172839,0,0,0.06172839506172839,18.456790123456788,0)" xlink:href="#ad"/><use transform="matrix(0.06172839506172839,0,0,0.06172839506172839,23.33333333333333,0)" xlink:href="#aa"/><use transform="matrix(0.06172839506172839,0,0,0.06172839506172839,35.679012345679006,0)" xlink:href="#ab"/><use transform="matrix(0.06172839506172839,0,0,0.06172839506172839,48.02469135802468,0)" xlink:href="#ae"/></g><path fill="#3a414a" d="M160-131c35 5 61 23 61 61C221 17 115-2 30 0v-248c76 3 177-17 177 60 0 33-19 50-47 57zm-97-11c50-1 110 9 110-42 0-47-63-36-110-37v79zm0 115c55-2 124 14 124-45 0-56-70-42-124-44v89" id="ay"/><path fill="#3a414a" d="M96-169c-40 0-48 33-48 73s9 75 48 75c24 0 41-14 43-38l32 2c-6 37-31 61-74 61-59 0-76-41-82-99-10-93 101-131 147-64 4 7 5 14 7 22l-32 3c-4-21-16-35-41-35" id="az"/><path fill="#3a414a" d="M143 0L79-87 56-68V0H24v-261h32v163l83-92h37l-77 82L181 0h-38" id="aA"/><g id="D"><use transform="matrix(0.06172839506172839,0,0,0.06172839506172839,0,0)" xlink:href="#ay"/><use transform="matrix(0.06172839506172839,0,0,0.06172839506172839,14.814814814814813,0)" xlink:href="#al"/><use transform="matrix(0.06172839506172839,0,0,0.06172839506172839,19.691358024691354,0)" xlink:href="#O"/><use transform="matrix(0.06172839506172839,0,0,0.06172839506172839,32.03703703703703,0)" xlink:href="#az"/><use transform="matrix(0.06172839506172839,0,0,0.06172839506172839,43.14814814814814,0)" xlink:href="#aA"/><use transform="matrix(0.06172839506172839,0,0,0.06172839506172839,54.25925925925925,0)" xlink:href="#az"/><use transform="matrix(0.06172839506172839,0,0,0.06172839506172839,65.37037037037037,0)" xlink:href="#ag"/><use transform="matrix(0.06172839506172839,0,0,0.06172839506172839,77.71604938271605,0)" xlink:href="#W"/><use transform="matrix(0.06172839506172839,0,0,0.06172839506172839,90.06172839506173,0)" xlink:href="#ad"/><use transform="matrix(0.06172839506172839,0,0,0.06172839506172839,94.93827160493828,0)" xlink:href="#aa"/></g><g id="E"><use transform="matrix(0.06172839506172839,0,0,0.06172839506172839,0,0)" xlink:href="#ad"/><use transform="matrix(0.06172839506172839,0,0,0.06172839506172839,4.876543209876543,0)" xlink:href="#aa"/><use transform="matrix(0.06172839506172839,0,0,0.06172839506172839,17.22222222222222,0)" xlink:href="#az"/><use transform="matrix(0.06172839506172839,0,0,0.06172839506172839,28.333333333333332,0)" xlink:href="#ab"/><use transform="matrix(0.06172839506172839,0,0,0.06172839506172839,40.67901234567901,0)" xlink:href="#aa"/><use transform="matrix(0.06172839506172839,0,0,0.06172839506172839,53.02469135802469,0)" xlink:href="#Q"/><use transform="matrix(0.06172839506172839,0,0,0.06172839506172839,59.19753086419753,0)" xlink:href="#ad"/><use transform="matrix(0.06172839506172839,0,0,0.06172839506172839,64.07407407407408,0)" xlink:href="#at"/><use transform="matrix(0.06172839506172839,0,0,0.06172839506172839,75.18518518518519,0)" xlink:href="#ab"/></g><g id="F"><use transform="matrix(0.06172839506172839,0,0,0.06172839506172839,0,0)" xlink:href="#ac"/><use transform="matrix(0.06172839506172839,0,0,0.06172839506172839,18.456790123456788,0)" xlink:href="#ab"/><use transform="matrix(0.06172839506172839,0,0,0.06172839506172839,30.80246913580247,0)" xlink:href="#az"/><use transform="matrix(0.06172839506172839,0,0,0.06172839506172839,41.91358024691358,0)" xlink:href="#ag"/><use transform="matrix(0.06172839506172839,0,0,0.06172839506172839,54.25925925925926,0)" xlink:href="#W"/><use transform="matrix(0.06172839506172839,0,0,0.06172839506172839,66.60493827160494,0)" xlink:href="#aa"/><use transform="matrix(0.06172839506172839,0,0,0.06172839506172839,78.95061728395062,0)" xlink:href="#ad"/><use transform="matrix(0.06172839506172839,0,0,0.06172839506172839,83.82716049382717,0)" xlink:href="#X"/><use transform="matrix(0.06172839506172839,0,0,0.06172839506172839,94.93827160493828,0)" xlink:href="#ac"/></g><path fill="#3a414a" d="M137-103V0h-34v-103L8-248h37l75 118 75-118h37" id="aB"/><g id="G"><use transform="matrix(0.06172839506172839,0,0,0.06172839506172839,0,0)" xlink:href="#aB"/><use transform="matrix(0.06172839506172839,0,0,0.06172839506172839,13.580246913580245,0)" xlink:href="#Y"/><use transform="matrix(0.06172839506172839,0,0,0.06172839506172839,25.925925925925924,0)" xlink:href="#ac"/><use transform="matrix(0.06172839506172839,0,0,0.06172839506172839,44.38271604938271,0)" xlink:href="#W"/></g><path fill="#3a414a" d="M212-179c-10-28-35-45-73-45-59 0-87 40-87 99 0 60 29 101 89 101 43 0 62-24 78-52l27 14C228-24 195 4 139 4 59 4 22-46 18-125c-6-104 99-153 187-111 19 9 31 26 39 46" id="aC"/><g id="H"><use transform="matrix(0.06172839506172839,0,0,0.06172839506172839,0,0)" xlink:href="#aC"/><use transform="matrix(0.06172839506172839,0,0,0.06172839506172839,15.987654320987653,0)" xlink:href="#O"/><use transform="matrix(0.06172839506172839,0,0,0.06172839506172839,28.333333333333332,0)" xlink:href="#aa"/><use transform="matrix(0.06172839506172839,0,0,0.06172839506172839,40.67901234567901,0)" xlink:href="#X"/><use transform="matrix(0.06172839506172839,0,0,0.06172839506172839,51.79012345679013,0)" xlink:href="#ab"/><use transform="matrix(0.06172839506172839,0,0,0.06172839506172839,64.13580246913581,0)" xlink:href="#aa"/><use transform="matrix(0.06172839506172839,0,0,0.06172839506172839,76.4814814814815,0)" xlink:href="#X"/><use transform="matrix(0.06172839506172839,0,0,0.06172839506172839,87.59259259259261,0)" xlink:href="#Y"/><use transform="matrix(0.06172839506172839,0,0,0.06172839506172839,99.9382716049383,0)" xlink:href="#X"/></g><path fill="#3a414a" d="M182-182c0 78-84 86-111 141h115V0H12c-6-101 99-100 120-180 1-22-12-31-33-32-23 0-32 14-35 34l-49-3c5-45 32-70 84-70 51 0 83 22 83 69" id="aD"/><use transform="matrix(0.06172839506172839,0,0,0.06172839506172839,0,0)" xlink:href="#aD" id="I"/><path fill="#3a414a" d="M128-127c34 4 56 21 59 58 7 91-148 94-172 28-4-9-6-17-7-26l51-5c1 24 16 35 40 36 23 0 39-12 38-36-1-31-31-36-65-34v-40c32 2 59-3 59-33 0-20-13-33-34-33s-33 13-35 32l-50-3c6-44 37-68 86-68 50 0 83 20 83 66 0 35-22 52-53 58" id="aE"/><use transform="matrix(0.06172839506172839,0,0,0.06172839506172839,0,0)" xlink:href="#aE" id="J"/><path fill="#3a414a" d="M165-50V0h-47v-50H5v-38l105-160h55v161h33v37h-33zm-47-37l2-116L46-87h72" id="aF"/><use transform="matrix(0.06172839506172839,0,0,0.06172839506172839,0,0)" xlink:href="#aF" id="K"/><path fill="#3a414a" d="M139-81c0-46-55-55-73-27H18l9-140h149v37H72l-4 63c44-38 133-4 122 66C201 21 21 35 11-62l49-4c5 18 15 30 39 30 26 0 40-18 40-45" id="aG"/><use transform="matrix(0.06172839506172839,0,0,0.06172839506172839,0,0)" xlink:href="#aG" id="L"/></defs></g></svg>