<svg xmlns="http://www.w3.org/2000/svg" xmlns:xlink="http://www.w3.org/1999/xlink" xmlns:lucid="lucid" width="901" height="901"><g transform="translate(-356.1144010237231 40.5)" lucid:page-tab-id="0_0"><path d="M376.6-14a6 6 0 0 1 6-6h848a6 6 0 0 1 6 6v625.4a6 6 0 0 1-6 6h-848a6 6 0 0 1-6-6z" fill-opacity="0"/><path d="M377.5-17.13l.26-.4.6-.7.73-.62.4-.25m1.72-.72l.46-.1.93-.08h1.5m2 0h3m2 0h3m1.98 0h3m2 0h2.98m2 0h3m2 0h2.98m2 0h3m1.98 0h3m2 0h3m1.98 0h3m2 0h2.98m2 0h3m1.98 0h3m2 0h3m1.98 0h3m2 0h2.98m2 0h3m2 0h2.98m2 0h3m1.98 0h3m2 0h2.98m2 0h3m2 0h2.98m2 0h3m1.98 0h3m2 0h2.98m2 0h3m2 0h2.98m2 0h3m2 0h2.98m2 0h3m1.98 0h3m2 0h2.98m2 0h3m2 0h2.98m2 0h3m1.98 0h3m2 0h2.98m2 0h3m2 0h2.98m2 0h3m1.98 0h3m2 0h3m1.98 0h3m2 0h2.98m2 0h3m2 0h2.98m2 0h3m1.98 0h3m2 0h2.98m2 0h3m2 0h2.98m2 0h3m1.98 0h3m2 0h2.98m2 0h3m2 0h2.98m2 0h3m1.98 0h3m2 0h3m1.98 0h3m2 0h2.98m2 0h3m2 0h2.98m2 0h3m1.98 0h3m2 0h2.98m2 0h3m2 0h2.98m2 0h3m1.98 0h3m2 0h2.98m2 0h3m2 0h2.98m2 0h3m1.98 0h3m2 0h3m1.98 0h3m2 0h2.98m2 0h3m2 0h2.98m2 0h3m1.98 0h3m2 0h2.98m2 0h3m2 0h2.98m2 0h3m1.98 0h3m2 0h2.98m2 0h3m2 0h2.98m2 0h3m1.98 0h3m2 0h3m1.98 0h3m2 0h2.98m2 0h3m2 0h2.98m2 0h3m1.98 0h3m2 0h2.98m2 0h3m2 0h2.98m2 0h3m1.98 0h3m2 0h2.98m2 0h3m2 0h2.98m2 0h3m1.98 0h3m2 0h2.98m2 0h3m2 0h2.98m2 0h3m2 0h2.98m2 0h3m1.98 0h3m2 0h2.98m2 0h3m2 0h2.98m2 0h3m1.98 0h3m2 0h2.98m2 0h3m2 0h2.98m2 0h3m1.98 0h3m2 0h3m1.98 0h3m2 0h2.98m2 0h3m2 0h2.98m2 0h3m1.98 0h3m2 0h2.98m2 0h3m2 0h2.98m2 0h3m1.98 0h3m2 0h2.98m2 0h3m2 0h2.98m2 0h3m1.98 0h3m2 0h2.98m2 0h3m2 0h2.98m2 0h3m1.98 0h3m2 0h3m1.98 0h3m2 0h2.98m2 0h3m2 0h2.98m2 0h3m1.98 0h3m2 0h2.98m2 0h3m2 0h2.98m2 0h3m1.98 0h3m2 0h2.98m2 0h3m2 0h2.98m2 0h3m1.98 0h3m2 0h3m1.98 0h3m2 0h2.98m2 0h1.5l.93.07.46.1m1.74.73l.4.25.72.6.6.72.25.4m.73 1.73l.1.46.08.94v1.5m0 2v3m0 2v3m0 2v3m0 2v3m0 2.02v3m0 2v3m0 2v3m0 2v3m0 2v3m0 2v3m0 2v3.02m0 2v3m0 2v3m0 2v3m0 2v3m0 2v3m0 2.02v3m0 2v3m0 2v3m0 2v3m0 2v3m0 2v3m0 2v3.02m0 2v3m0 2v3m0 2v3m0 2v3m0 2v3m0 2v3.02m0 2v3m0 2v3m0 2v3m0 2v3m0 2v3m0 2v3.02m0 2v3m0 2v3m0 2v3m0 2v3m0 2v3m0 2v3m0 2.02v3m0 2v3m0 2v3m0 2v3m0 2v3m0 2v3.02m0 2v3m0 2v3m0 2v3m0 2v3m0 2v3m0 2v3m0 2.02v3m0 2v3m0 2v3m0 2v3m0 2v3m0 2v3m0 2v3.02m0 2v3m0 2v3m0 2v3m0 2v3m0 2v3m0 2v3.02m0 2v3m0 2v3m0 2v3m0 2v3m0 2v3m0 2v3.02m0 2v3m0 2v3m0 2v3m0 2v3m0 2v3m0 2v3.02m0 2v3m0 2v3m0 2v3m0 2v3m0 2v3m0 2v3.02m0 2v3m0 2v3m0 2v3m0 2v3m0 2v3m0 2v3.02m0 2v3m0 2v3m0 2v3m0 2v3m0 2v3m0 2v3m0 2.02v3m0 2v3m0 2v3m0 2v3m0 2v3m0 2v3m0 2.02v3m0 2v3m0 2v3m0 2v3m0 2v3m0 2v3m0 2.02v3m0 2v3m0 2v3m0 2v3m0 2v3m0 2v3m0 2v3.02m0 2v3m0 2v3m0 2v3m0 2v3m0 2v3m0 2v3.02m0 2v3m0 2v3m0 2v3m0 2v1.5l-.06.95-.1.45m-.73 1.73l-.23.4-.6.72-.73.6-.4.26m-1.73.73l-.45.1-.94.08h-1.48m-2 0h-3m-2 0h-2.98m-2 0h-3m-1.98 0h-3m-2 0h-2.98m-2 0h-3m-2 0h-2.98m-2 0h-3m-1.98 0h-3m-2 0h-2.98m-2 0h-3m-2 0h-2.98m-2 0h-3m-1.98 0h-3m-2 0h-3m-1.98 0h-3m-2 0h-2.98m-2 0h-3m-2 0h-2.98m-2 0h-3m-1.98 0h-3m-2 0h-2.98m-2 0h-3m-2 0h-2.98m-2 0h-3m-1.98 0h-3m-2 0h-2.98m-2 0h-3m-2 0h-2.98m-2 0h-3m-1.98 0h-3m-2 0h-3m-1.98 0h-3m-2 0h-2.98m-2 0h-3m-2 0h-2.98m-2 0h-3m-1.98 0h-3m-2 0h-2.98m-2 0h-3m-2 0h-2.98m-2 0h-3m-1.98 0h-3m-2 0h-2.98m-2 0h-3m-2 0h-2.98m-2 0h-3m-1.98 0h-3m-2 0h-3m-1.98 0h-3m-2 0h-2.98m-2 0h-3m-2 0h-2.98m-2 0h-3m-1.98 0h-3m-2 0h-2.98m-2 0h-3m-2 0h-2.98m-2 0h-3m-1.98 0h-3m-2 0h-2.98m-2 0h-3m-2 0h-2.98m-2 0h-3m-1.98 0h-3m-2 0h-3m-1.98 0h-3m-2 0h-2.98m-2 0h-3m-2 0h-2.98m-2 0h-3m-1.98 0h-3m-2 0H865m-2 0h-3m-2 0H855m-2 0h-3m-1.98 0h-3m-2 0h-2.98m-2 0h-3m-2 0h-2.98m-2 0h-3m-1.98 0h-3m-2 0h-3m-1.98 0h-3m-2 0h-2.98m-2 0h-3m-2 0h-2.98m-2 0h-3m-1.98 0h-3m-2 0h-2.98m-2 0h-3m-2 0h-2.98m-2 0h-3m-1.98 0h-3m-2 0h-2.98m-2 0h-3m-2 0h-2.98m-2 0h-3m-1.98 0h-3m-2 0h-3m-1.98 0h-3m-2 0h-2.98m-2 0h-3m-2 0h-2.98m-2 0h-3m-1.98 0h-3m-2 0h-2.98m-2 0h-3m-2 0h-2.98m-2 0h-3m-1.98 0h-3m-2 0h-2.98m-2 0h-3m-2 0h-2.98m-2 0h-3m-1.98 0h-3m-2 0h-3m-1.98 0h-3m-2 0h-2.98m-2 0h-3m-2 0h-2.98m-2 0h-3m-1.98 0h-3m-2 0h-2.98m-2 0h-3m-2 0h-2.98m-2 0h-3m-1.98 0h-3m-2 0h-2.98m-2 0h-3m-2 0h-2.98m-2 0h-3m-1.98 0h-3m-2 0h-3m-1.98 0h-3m-2 0h-2.98m-2 0h-3m-2 0h-2.98m-2 0h-3m-1.98 0h-3m-2 0h-2.98m-2 0h-3m-2 0h-2.98m-2 0h-3m-1.98 0h-3m-2 0h-2.98m-2 0h-3m-2 0h-2.98m-2 0h-3m-1.98 0h-3m-2 0h-3m-1.98 0h-3m-2 0h-2.98m-2 0h-3m-2 0h-2.98m-2 0h-3m-1.98 0h-3m-2 0H441m-2 0h-3m-2 0H431m-2 0h-3m-1.98 0h-3m-2 0h-2.98m-2 0h-3m-2 0h-2.98m-2 0h-3m-1.98 0h-3m-2 0h-3m-1.98 0h-3m-2 0h-1.5l-.92-.06-.46-.12m-1.73-.7l-.4-.26-.73-.6-.6-.72-.26-.4m-.7-1.74l-.1-.45-.08-.94v-1.5m0-2v-3m0-2v-3m0-2v-3m0-2v-3m0-2v-3m0-2v-3m0-2v-3m0-2.02v-3m0-2v-3m0-2v-3m0-2v-3m0-2v-3m0-2v-3m0-2.02v-3m0-2v-3m0-2v-3m0-2v-3m0-2v-3m0-2v-3m0-2v-3.02m0-2v-3m0-2v-3m0-2v-3m0-2v-3m0-2v-3m0-2v-3.02m0-2v-3m0-2v-3m0-2v-3m0-2v-3m0-2v-3m0-2v-3.02m0-2v-3m0-2v-3m0-2v-3m0-2v-3m0-2v-3m0-2v-3.02m0-2v-3m0-2v-3m0-2v-3m0-2v-3m0-2v-3m0-2v-3.02m0-2v-3m0-2v-3m0-2v-3m0-2v-3m0-2v-3m0-2v-3.02m0-2v-3m0-2v-3m0-2v-3m0-2v-3m0-2v-3m0-2v-3m0-2.02v-3m0-2v-3m0-2v-3m0-2v-3m0-2v-3m0-2v-3.02m0-2v-3m0-2v-3m0-2v-3m0-2v-3m0-2v-3m0-2v-3m0-2.02v-3m0-2v-3m0-2v-3m0-2v-3m0-2v-3m0-2v-3m0-2.02v-3m0-2v-3m0-2v-3m0-2v-3m0-2v-3m0-2v-3m0-2v-3.02m0-2v-3m0-2v-3m0-2v-3m0-2v-3m0-2v-3m0-2v-3.02m0-2v-3m0-2v-3m0-2v-3m0-2v-3m0-2v-3m0-2v-3.02m0-2v-3m0-2v-3m0-2v-3m0-2v-3m0-2v-3m0-2v-3.02m0-2v-3m0-2v-3m0-2v-3m0-2v-3m0-2v-3m0-2v-3.02m0-2v-3m0-2v-3m0-2v-3m0-2v-3m0-2v-3m0-2v-3.02m0-2v-3m0-2v-3m0-2v-3m0-2v-3m0-2v-3m0-2V24.5m0-2v-3m0-2v-3m0-2v-3m0-2v-3m0-2v-3m0-2v-3m0-2.02v-3m0-2V-14l.07-.94.1-.46" stroke="#fff" fill="none"/><use xlink:href="#a" transform="matrix(1,0,0,1,381.6144010237231,-15) translate(0 17.77777777777778)"/><path d="M580.14 458.7c22 0 39.86 17.85 39.86 39.87 0 22-17.85 39.86-39.86 39.86h-40.28c-22 0-39.86-17.85-39.86-39.86 0-22.02 17.85-39.87 39.86-39.87z" stroke="#fff" fill-opacity="0"/><use xlink:href="#b" transform="matrix(1,0,0,1,505,463.70454545454544) translate(21.671666666666667 26.52777777777778)"/><use xlink:href="#c" transform="matrix(1,0,0,1,505,463.70454545454544) translate(13.122283950617275 53.19444444444445)"/><path d="M740.14 458.7c22 0 39.86 17.85 39.86 39.87 0 22-17.85 39.86-39.86 39.86h-40.28c-22 0-39.86-17.85-39.86-39.86 0-22.02 17.85-39.87 39.86-39.87z" stroke="#fff" fill-opacity="0"/><use xlink:href="#b" transform="matrix(1,0,0,1,665,463.70454545454544) translate(21.671666666666667 26.52777777777778)"/><use xlink:href="#c" transform="matrix(1,0,0,1,665,463.70454545454544) translate(13.122283950617275 53.19444444444445)"/><path d="M900.14 458.7c22 0 39.86 17.85 39.86 39.87 0 22-17.85 39.86-39.86 39.86h-40.28c-22 0-39.86-17.85-39.86-39.86 0-22.02 17.85-39.87 39.86-39.87z" stroke="#fff" stroke-width="3" fill-opacity="0"/><use xlink:href="#b" transform="matrix(1,0,0,1,825,463.70454545454544) translate(21.671666666666667 26.52777777777778)"/><use xlink:href="#c" transform="matrix(1,0,0,1,825,463.70454545454544) translate(13.122283950617275 53.19444444444445)"/><path d="M580.14 100c22 0 39.86 17.85 39.86 39.86 0 22.02-17.85 39.87-39.86 39.87h-40.28c-22 0-39.86-17.85-39.86-39.87 0-22 17.85-39.86 39.86-39.86z" stroke="#fff" fill-opacity="0"/><use xlink:href="#b" transform="matrix(1,0,0,1,505,105.00000000000001) translate(21.671666666666667 26.52777777777778)"/><use xlink:href="#d" transform="matrix(1,0,0,1,505,105.00000000000001) translate(27.31981481481482 53.19444444444445)"/><path d="M840.14 100c22 0 39.86 17.85 39.86 39.86 0 22.02-17.85 39.87-39.86 39.87h-40.28c-22 0-39.86-17.85-39.86-39.87 0-22 17.85-39.86 39.86-39.86z" stroke="#fff" fill-opacity="0"/><use xlink:href="#b" transform="matrix(1,0,0,1,765,105.00000000000001) translate(21.671666666666667 26.52777777777778)"/><use xlink:href="#d" transform="matrix(1,0,0,1,765,105.00000000000001) translate(27.31981481481482 53.19444444444445)"/><path d="M1080.14 100c22 0 39.86 17.85 39.86 39.86 0 22.02-17.85 39.87-39.86 39.87h-40.28c-22 0-39.86-17.85-39.86-39.87 0-22 17.85-39.86 39.86-39.86z" stroke="#fff" fill-opacity="0"/><use xlink:href="#b" transform="matrix(1,0,0,1,1005,105.00000000000001) translate(21.671666666666667 26.52777777777778)"/><use xlink:href="#d" transform="matrix(1,0,0,1,1005,105.00000000000001) translate(27.31981481481482 53.19444444444445)"/><path d="M376.6 705.86a6 6 0 0 1 6-6h848a6 6 0 0 1 6 6V834a6 6 0 0 1-6 6h-848a6 6 0 0 1-6-6z" stroke="#fff" fill-opacity="0"/><use xlink:href="#e" transform="matrix(1,0,0,1,388.6144010237231,711.858557013855) translate(0 111.37777777777777)"/><path d="M1080.14 458.7c22 0 39.86 17.85 39.86 39.87 0 22-17.85 39.86-39.86 39.86h-40.28c-22 0-39.86-17.85-39.86-39.86 0-22.02 17.85-39.87 39.86-39.87z" stroke="#fff" fill-opacity="0"/><use xlink:href="#b" transform="matrix(1,0,0,1,1005,463.7045454545454) translate(21.671666666666667 26.52777777777778)"/><use xlink:href="#c" transform="matrix(1,0,0,1,1005,463.7045454545454) translate(13.122283950617275 53.19444444444445)"/><path d="M540 196.6v245.72" stroke="#fff" fill="none"/><path d="M540 181.84l4.63 14.27h-9.26zM540 457.1l-4.63-14.28h9.26z" stroke="#fff" fill="#fff"/><path d="M567.36 194.87l125.28 249.2" stroke="#fff" fill="none"/><path d="M560.73 181.67l10.55 10.67-8.3 4.16zM699.27 457.26l-10.55-10.66 8.3-4.17z" stroke="#fff" fill="#fff"/><path d="M598.04 191.26L852.4 445.62" stroke="#fff" fill="none"/><path d="M587.6 180.82l13.36 6.8-6.55 6.56zM862.84 456.06l-13.36-6.8 6.55-6.56z" stroke="#fff" fill="#fff"/><path d="M615.54 182.86l410.72 266.92" stroke="#fff" fill="none"/><path d="M603.16 174.8l14.48 3.9-5.05 7.77zM1038.64 457.82l-14.48-3.88 5.05-7.78z" stroke="#fff" fill="#fff"/><path d="M769.95 187.9l-199.9 257.37" stroke="#fff" fill="none"/><path d="M779 176.25l-5.08 14.1-7.32-5.67zM561 456.93l5.08-14.1 7.32 5.67z" stroke="#fff" fill="#fff"/><path d="M793.36 196.03L738 442.23" stroke="#fff" fill="none"/><path d="M796.6 181.63l1.4 14.93-9.05-2.03zM734.75 456.63l-1.4-14.94 9.06 2.03z" stroke="#fff" fill="#fff"/><path d="M823.47 196.24l53.06 244.95" stroke="#fff" fill="none"/><path d="M820.34 181.8l7.55 12.97-9.07 1.96zM879.66 455.62l-7.55-12.96 9.07-1.96z" stroke="#fff" fill="#fff"/><path d="M842.65 192.85l188.6 252.23" stroke="#fff" fill="none"/><path d="M833.8 181.02l12.27 8.65-7.43 5.55zM1040.08 456.9l-12.25-8.64 7.42-5.55z" stroke="#fff" fill="#fff"/><path d="M1000.4 179.9L600.2 449.63" stroke="#fff" fill="none"/><path d="M1012.65 171.65l-9.24 11.8-5.17-7.67zM587.97 457.88l9.24-11.8 5.2 7.67z" stroke="#fff" fill="#fff"/><path d="M1016.26 191.58l-256 256" stroke="#fff" fill="none"/><path d="M1026.7 181.14l-6.8 13.36-6.56-6.55zM749.8 458.03l6.82-13.36 6.55 6.55z" stroke="#fff" fill="#fff"/><path d="M1028.22 194.93l-108.58 249.4" stroke="#fff" fill="none"/><path d="M1034.12 181.4l-1.45 14.92-8.5-3.7zM913.74 457.87l1.45-14.93 8.5 3.7z" stroke="#fff" fill="#fff"/><path d="M1052.84 196.6v245.22" stroke="#fff" fill="none"/><path d="M1052.84 181.84l4.64 14.27h-9.27zM1052.84 456.6l-4.63-14.28h9.28z" stroke="#fff" fill="#fff"/><g stroke="#fff"><path d="M526 359.6a6 6 0 0 1-6-6v-65.62a6 6 0 0 1 6-6h588a6 6 0 0 1 6 6v65.6a6 6 0 0 1-6 6z"/><path d="M520 351.83h600m-600-62.1h600" fill="none"/></g><use xlink:href="#f" transform="matrix(1,0,0,1,525.0000000000001,296.68265119414474) translate(99.93827160493825 28.944444444444443)"/><use xlink:href="#g" transform="matrix(1,0,0,1,525.0000000000001,296.68265119414474) translate(149.99999999999997 28.944444444444443)"/><use xlink:href="#h" transform="matrix(1,0,0,1,525.0000000000001,296.68265119414474) translate(265.679012345679 28.944444444444443)"/><use xlink:href="#i" transform="matrix(1,0,0,1,525.0000000000001,296.68265119414474) translate(367.96296296296293 28.944444444444443)"/><path d="M560 541.58v141.9M560 541.6v-.52" stroke="#fff" fill="none"/><path d="M560 698.24l-4.63-14.27h9.26z" stroke="#fff" fill="#fff"/><path d="M720 541.58v141.9M720 541.6v-.52" stroke="#fff" fill="none"/><path d="M720 698.24l-4.63-14.26h9.26z" stroke="#fff" fill="#fff"/><path d="M880 542.58v136.66M880 542.62v-1.54" stroke="#fff" stroke-width="3" fill="none"/><path d="M880 695l-4.63-14.26h9.26z" stroke="#fff" stroke-width="3" fill="#fff"/><path d="M1060 539.43v144.05M1060 539.45v-.52" stroke="#fff" fill="none"/><path d="M1060 698.24l-4.63-14.26h9.27z" stroke="#fff" fill="#fff"/><path d="M1116.6 743.23c14.74 0 26.7 11.95 26.7 26.7s-11.96 26.7-26.7 26.7H590c-14.75 0-26.7-11.95-26.7-26.7s11.95-26.7 26.7-26.7z" stroke="#fff" fill-opacity="0"/><g><use xlink:href="#j" transform="matrix(1,0,0,1,568.2969838656281,748.2270007483895) translate(198.02469135802468 26.02777777777778)"/><use xlink:href="#k" transform="matrix(1,0,0,1,568.2969838656281,748.2270007483895) translate(260.9259259259259 26.02777777777778)"/></g><path d="M460 446a6 6 0 0 1 6-6h328a6 6 0 0 1 6 6v128.14a6 6 0 0 1-6 6H466a6 6 0 0 1-6-6zM960 446a6 6 0 0 1 6-6h168a6 6 0 0 1 6 6v128a6 6 0 0 1-6 6H966a6 6 0 0 1-6-6z" stroke="#000" stroke-opacity="0" fill-opacity=".35"/><path d="M820 126a6 6 0 0 1 6-6h204a6 6 0 0 1 6 6v85.33a6 6 0 0 1-6 6H826a6 6 0 0 1-6-6z" stroke="#000" stroke-opacity="0" fill-opacity="0"/><g><use xlink:href="#l" transform="matrix(1,0,0,1,825,125) translate(84.4814814814815 21.33333333333333)"/><use xlink:href="#m" transform="matrix(1,0,0,1,825,125) translate(99.2962962962963 21.33333333333333)"/><use xlink:href="#n" transform="matrix(1,0,0,1,825,125) translate(114.11111111111111 21.33333333333333)"/></g><path d="M480 646a6 6 0 0 1 6-6h328a6 6 0 0 1 6 6v47.86a6 6 0 0 1-6 6H486a6 6 0 0 1-6-6z" stroke="#000" stroke-opacity="0" fill-opacity=".35"/><path d="M983.3 646a6 6 0 0 1 6-6h148a6 6 0 0 1 6 6v47.86a6 6 0 0 1-6 6h-148a6 6 0 0 1-6-6z" stroke="#000" stroke-opacity="0" fill="#0a0000" fill-opacity=".35"/><defs><path fill="#fff" d="M137-138c1-29-70-34-71-4 15 46 118 7 119 86 1 83-164 76-172 9l43-7c4 19 20 25 44 25 33 8 57-30 24-41C81-84 22-81 20-136c-2-80 154-74 161-7" id="o"/><path fill="#fff" d="M85 4C-2 5 27-109 22-190h50c7 57-23 150 33 157 60-5 35-97 40-157h50l1 190h-47c-2-12 1-28-3-38-12 25-28 42-61 42" id="p"/><path fill="#fff" d="M135-194c52 0 70 43 70 98 0 56-19 99-73 100-30 1-46-15-58-35L72 0H24l1-261h50v104c11-23 29-37 60-37zM114-30c31 0 40-27 40-66 0-37-7-63-39-63s-41 28-41 65c0 36 8 64 40 64" id="q"/><path fill="#fff" d="M135-194c87-1 58 113 63 194h-50c-7-57 23-157-34-157-59 0-34 97-39 157H25l-1-190h47c2 12-1 28 3 38 12-26 28-41 61-42" id="r"/><path fill="#fff" d="M185-48c-13 30-37 53-82 52C43 2 14-33 14-96s30-98 90-98c62 0 83 45 84 108H66c0 31 8 55 39 56 18 0 30-7 34-22zm-45-69c5-46-57-63-70-21-2 6-4 13-4 21h74" id="s"/><path fill="#fff" d="M115-3C79 11 28 4 28-45v-112H4v-33h27l15-45h31v45h36v33H77v99c-1 23 16 31 38 25v30" id="t"/><g id="a"><use transform="matrix(0.06172839506172839,0,0,0.06172839506172839,0,0)" xlink:href="#o"/><use transform="matrix(0.06172839506172839,0,0,0.06172839506172839,12.345679012345679,0)" xlink:href="#p"/><use transform="matrix(0.06172839506172839,0,0,0.06172839506172839,25.864197530864196,0)" xlink:href="#q"/><use transform="matrix(0.06172839506172839,0,0,0.06172839506172839,39.382716049382715,0)" xlink:href="#r"/><use transform="matrix(0.06172839506172839,0,0,0.06172839506172839,52.901234567901234,0)" xlink:href="#s"/><use transform="matrix(0.06172839506172839,0,0,0.06172839506172839,65.24691358024691,0)" xlink:href="#t"/></g><path fill="#fff" d="M135-143c-3-34-86-38-87 0 15 53 115 12 119 90S17 21 10-45l28-5c4 36 97 45 98 0-10-56-113-15-118-90-4-57 82-63 122-42 12 7 21 19 24 35" id="u"/><path fill="#fff" d="M84 4C-5 8 30-112 23-190h32v120c0 31 7 50 39 49 72-2 45-101 50-169h31l1 190h-30c-1-10 1-25-2-33-11 22-28 36-60 37" id="v"/><path fill="#fff" d="M115-194c53 0 69 39 70 98 0 66-23 100-70 100C84 3 66-7 56-30L54 0H23l1-261h32v101c10-23 28-34 59-34zm-8 174c40 0 45-34 45-75 0-40-5-75-45-74-42 0-51 32-51 76 0 43 10 73 51 73" id="w"/><path fill="#fff" d="M117-194c89-4 53 116 60 194h-32v-121c0-31-8-49-39-48C34-167 62-67 57 0H25l-1-190h30c1 10-1 24 2 32 11-22 29-35 61-36" id="x"/><path fill="#fff" d="M100-194c63 0 86 42 84 106H49c0 40 14 67 53 68 26 1 43-12 49-29l28 8c-11 28-37 45-77 45C44 4 14-33 15-96c1-61 26-98 85-98zm52 81c6-60-76-77-97-28-3 7-6 17-6 28h103" id="y"/><path fill="#fff" d="M59-47c-2 24 18 29 38 22v24C64 9 27 4 27-40v-127H5v-23h24l9-43h21v43h35v23H59v120" id="z"/><g id="b"><use transform="matrix(0.06172839506172839,0,0,0.06172839506172839,0,0)" xlink:href="#u"/><use transform="matrix(0.06172839506172839,0,0,0.06172839506172839,11.11111111111111,0)" xlink:href="#v"/><use transform="matrix(0.06172839506172839,0,0,0.06172839506172839,23.45679012345679,0)" xlink:href="#w"/><use transform="matrix(0.06172839506172839,0,0,0.06172839506172839,35.80246913580247,0)" xlink:href="#x"/><use transform="matrix(0.06172839506172839,0,0,0.06172839506172839,48.148148148148145,0)" xlink:href="#y"/><use transform="matrix(0.06172839506172839,0,0,0.06172839506172839,60.49382716049382,0)" xlink:href="#z"/></g><path fill="#fff" d="M108 0H70L1-190h34L89-25l56-165h34" id="A"/><path fill="#fff" d="M141-36C126-15 110 5 73 4 37 3 15-17 15-53c-1-64 63-63 125-63 3-35-9-54-41-54-24 1-41 7-42 31l-33-3c5-37 33-52 76-52 45 0 72 20 72 64v82c-1 20 7 32 28 27v20c-31 9-61-2-59-35zM48-53c0 20 12 33 32 33 41-3 63-29 60-74-43 2-92-5-92 41" id="B"/><path fill="#fff" d="M24 0v-261h32V0H24" id="C"/><path fill="#fff" d="M24-231v-30h32v30H24zM24 0v-190h32V0H24" id="D"/><path fill="#fff" d="M85-194c31 0 48 13 60 33l-1-100h32l1 261h-30c-2-10 0-23-3-31C134-8 116 4 85 4 32 4 16-35 15-94c0-66 23-100 70-100zm9 24c-40 0-46 34-46 75 0 40 6 74 45 74 42 0 51-32 51-76 0-42-9-74-50-73" id="E"/><path fill="#fff" d="M100-194c62-1 85 37 85 99 1 63-27 99-86 99S16-35 15-95c0-66 28-99 85-99zM99-20c44 1 53-31 53-75 0-43-8-75-51-75s-53 32-53 75 10 74 51 75" id="F"/><path fill="#fff" d="M114-163C36-179 61-72 57 0H25l-1-190h30c1 12-1 29 2 39 6-27 23-49 58-41v29" id="G"/><g id="c"><use transform="matrix(0.06172839506172839,0,0,0.06172839506172839,0,0)" xlink:href="#A"/><use transform="matrix(0.06172839506172839,0,0,0.06172839506172839,11.11111111111111,0)" xlink:href="#B"/><use transform="matrix(0.06172839506172839,0,0,0.06172839506172839,23.45679012345679,0)" xlink:href="#C"/><use transform="matrix(0.06172839506172839,0,0,0.06172839506172839,28.333333333333336,0)" xlink:href="#D"/><use transform="matrix(0.06172839506172839,0,0,0.06172839506172839,33.20987654320988,0)" xlink:href="#E"/><use transform="matrix(0.06172839506172839,0,0,0.06172839506172839,45.55555555555556,0)" xlink:href="#B"/><use transform="matrix(0.06172839506172839,0,0,0.06172839506172839,57.901234567901234,0)" xlink:href="#z"/><use transform="matrix(0.06172839506172839,0,0,0.06172839506172839,64.07407407407408,0)" xlink:href="#F"/><use transform="matrix(0.06172839506172839,0,0,0.06172839506172839,76.41975308641976,0)" xlink:href="#G"/></g><path fill="#fff" d="M210-169c-67 3-38 105-44 169h-31v-121c0-29-5-50-35-48C34-165 62-65 56 0H25l-1-190h30c1 10-1 24 2 32 10-44 99-50 107 0 11-21 27-35 58-36 85-2 47 119 55 194h-31v-121c0-29-5-49-35-48" id="H"/><g id="d"><use transform="matrix(0.06172839506172839,0,0,0.06172839506172839,0,0)" xlink:href="#H"/><use transform="matrix(0.06172839506172839,0,0,0.06172839506172839,18.456790123456788,0)" xlink:href="#D"/><use transform="matrix(0.06172839506172839,0,0,0.06172839506172839,23.33333333333333,0)" xlink:href="#x"/><use transform="matrix(0.06172839506172839,0,0,0.06172839506172839,35.679012345679006,0)" xlink:href="#y"/><use transform="matrix(0.06172839506172839,0,0,0.06172839506172839,48.02469135802468,0)" xlink:href="#G"/></g><path fill="#fff" d="M160-131c35 5 61 23 61 61C221 17 115-2 30 0v-248c76 3 177-17 177 60 0 33-19 50-47 57zm-97-11c50-1 110 9 110-42 0-47-63-36-110-37v79zm0 115c55-2 124 14 124-45 0-56-70-42-124-44v89" id="I"/><path fill="#fff" d="M96-169c-40 0-48 33-48 73s9 75 48 75c24 0 41-14 43-38l32 2c-6 37-31 61-74 61-59 0-76-41-82-99-10-93 101-131 147-64 4 7 5 14 7 22l-32 3c-4-21-16-35-41-35" id="J"/><path fill="#fff" d="M143 0L79-87 56-68V0H24v-261h32v163l83-92h37l-77 82L181 0h-38" id="K"/><path fill="#fff" d="M106-169C34-169 62-67 57 0H25v-261h32l-1 103c12-21 28-36 61-36 89 0 53 116 60 194h-32v-121c2-32-8-49-39-48" id="L"/><g id="e"><use transform="matrix(0.06172839506172839,0,0,0.06172839506172839,0,0)" xlink:href="#I"/><use transform="matrix(0.06172839506172839,0,0,0.06172839506172839,14.814814814814813,0)" xlink:href="#C"/><use transform="matrix(0.06172839506172839,0,0,0.06172839506172839,19.691358024691354,0)" xlink:href="#F"/><use transform="matrix(0.06172839506172839,0,0,0.06172839506172839,32.03703703703703,0)" xlink:href="#J"/><use transform="matrix(0.06172839506172839,0,0,0.06172839506172839,43.14814814814814,0)" xlink:href="#K"/><use transform="matrix(0.06172839506172839,0,0,0.06172839506172839,54.25925925925925,0)" xlink:href="#J"/><use transform="matrix(0.06172839506172839,0,0,0.06172839506172839,65.37037037037037,0)" xlink:href="#L"/><use transform="matrix(0.06172839506172839,0,0,0.06172839506172839,77.71604938271605,0)" xlink:href="#B"/><use transform="matrix(0.06172839506172839,0,0,0.06172839506172839,90.06172839506173,0)" xlink:href="#D"/><use transform="matrix(0.06172839506172839,0,0,0.06172839506172839,94.93827160493828,0)" xlink:href="#x"/></g><path fill="#fff" d="M136-208V0H84v-208H4v-40h212v40h-80" id="M"/><path fill="#fff" d="M144 0l-44-69L55 0H2l70-98-66-92h53l41 62 40-62h54l-67 91 71 99h-54" id="N"/><g id="f"><use transform="matrix(0.06172839506172839,0,0,0.06172839506172839,0,0)" xlink:href="#M"/><use transform="matrix(0.06172839506172839,0,0,0.06172839506172839,11.851851851851851,0)" xlink:href="#s"/><use transform="matrix(0.06172839506172839,0,0,0.06172839506172839,24.19753086419753,0)" xlink:href="#N"/><use transform="matrix(0.06172839506172839,0,0,0.06172839506172839,36.54320987654321,0)" xlink:href="#t"/></g><path fill="#fff" d="M135-194c53 0 70 44 70 98 0 56-19 98-73 100-31 1-45-17-59-34 3 33 2 69 2 105H25l-1-265h48c2 10 0 23 3 31 11-24 29-35 60-35zM114-30c33 0 39-31 40-66 0-38-9-64-40-64-56 0-55 130 0 130" id="O"/><path fill="#fff" d="M135-150c-39-12-60 13-60 57V0H25l-1-190h47c2 13-1 29 3 40 6-28 27-53 61-41v41" id="P"/><path fill="#fff" d="M110-194c64 0 96 36 96 99 0 64-35 99-97 99-61 0-95-36-95-99 0-62 34-99 96-99zm-1 164c35 0 45-28 45-65 0-40-10-65-43-65-34 0-45 26-45 65 0 36 10 65 43 65" id="Q"/><path fill="#fff" d="M220-157c-53 9-28 100-34 157h-49v-107c1-27-5-49-29-50C55-147 81-57 75 0H25l-1-190h47c2 12-1 28 3 38 10-53 101-56 108 0 13-22 24-43 59-42 82 1 51 116 57 194h-49v-107c-1-25-5-48-29-50" id="R"/><path fill="#fff" d="M25-224v-37h50v37H25zM25 0v-190h50V0H25" id="S"/><path fill="#fff" d="M195-6C206 82 75 100 31 46c-4-6-6-13-8-21l49-6c3 16 16 24 34 25 40 0 42-37 40-79-11 22-30 35-61 35-53 0-70-43-70-97 0-56 18-96 73-97 30 0 46 14 59 34l2-30h47zm-90-29c32 0 41-27 41-63 0-35-9-62-40-62-32 0-39 29-40 63 0 36 9 62 39 62" id="T"/><g id="g"><use transform="matrix(0.06172839506172839,0,0,0.06172839506172839,0,0)" xlink:href="#O"/><use transform="matrix(0.06172839506172839,0,0,0.06172839506172839,13.518518518518517,0)" xlink:href="#P"/><use transform="matrix(0.06172839506172839,0,0,0.06172839506172839,22.160493827160494,0)" xlink:href="#Q"/><use transform="matrix(0.06172839506172839,0,0,0.06172839506172839,35.67901234567901,0)" xlink:href="#R"/><use transform="matrix(0.06172839506172839,0,0,0.06172839506172839,55.4320987654321,0)" xlink:href="#O"/><use transform="matrix(0.06172839506172839,0,0,0.06172839506172839,68.95061728395062,0)" xlink:href="#t"/><use transform="matrix(0.06172839506172839,0,0,0.06172839506172839,76.2962962962963,0)" xlink:href="#S"/><use transform="matrix(0.06172839506172839,0,0,0.06172839506172839,82.46913580246914,0)" xlink:href="#r"/><use transform="matrix(0.06172839506172839,0,0,0.06172839506172839,95.98765432098766,0)" xlink:href="#T"/></g><path fill="#fff" d="M190-63c-7 42-38 67-86 67-59 0-84-38-90-98-12-110 154-137 174-36l-49 2c-2-19-15-32-35-32-30 0-35 28-38 64-6 74 65 87 74 30" id="U"/><path fill="#fff" d="M128 0H69L1-190h53L99-40l48-150h52" id="V"/><g id="h"><use transform="matrix(0.06172839506172839,0,0,0.06172839506172839,0,0)" xlink:href="#S"/><use transform="matrix(0.06172839506172839,0,0,0.06172839506172839,6.172839506172839,0)" xlink:href="#r"/><use transform="matrix(0.06172839506172839,0,0,0.06172839506172839,19.691358024691358,0)" xlink:href="#U"/><use transform="matrix(0.06172839506172839,0,0,0.06172839506172839,32.03703703703704,0)" xlink:href="#s"/><use transform="matrix(0.06172839506172839,0,0,0.06172839506172839,44.382716049382715,0)" xlink:href="#r"/><use transform="matrix(0.06172839506172839,0,0,0.06172839506172839,57.901234567901234,0)" xlink:href="#t"/><use transform="matrix(0.06172839506172839,0,0,0.06172839506172839,65.24691358024691,0)" xlink:href="#S"/><use transform="matrix(0.06172839506172839,0,0,0.06172839506172839,71.41975308641975,0)" xlink:href="#V"/><use transform="matrix(0.06172839506172839,0,0,0.06172839506172839,83.76543209876543,0)" xlink:href="#s"/></g><path fill="#fff" d="M114-157C55-157 80-60 75 0H25v-261h50l-1 109c12-26 28-41 61-42 86-1 58 113 63 194h-50c-7-57 23-157-34-157" id="W"/><path fill="#fff" d="M133-34C117-15 103 5 69 4 32 3 11-16 11-54c-1-60 55-63 116-61 1-26-3-47-28-47-18 1-26 9-28 27l-52-2c7-38 36-58 82-57s74 22 75 68l1 82c-1 14 12 18 25 15v27c-30 8-71 5-69-32zm-48 3c29 0 43-24 42-57-32 0-66-3-65 30 0 17 8 27 23 27" id="X"/><g id="i"><use transform="matrix(0.06172839506172839,0,0,0.06172839506172839,0,0)" xlink:href="#R"/><use transform="matrix(0.06172839506172839,0,0,0.06172839506172839,19.753086419753085,0)" xlink:href="#s"/><use transform="matrix(0.06172839506172839,0,0,0.06172839506172839,32.098765432098766,0)" xlink:href="#U"/><use transform="matrix(0.06172839506172839,0,0,0.06172839506172839,44.44444444444444,0)" xlink:href="#W"/><use transform="matrix(0.06172839506172839,0,0,0.06172839506172839,57.96296296296296,0)" xlink:href="#X"/><use transform="matrix(0.06172839506172839,0,0,0.06172839506172839,70.30864197530865,0)" xlink:href="#r"/><use transform="matrix(0.06172839506172839,0,0,0.06172839506172839,83.82716049382717,0)" xlink:href="#S"/><use transform="matrix(0.06172839506172839,0,0,0.06172839506172839,90,0)" xlink:href="#o"/><use transform="matrix(0.06172839506172839,0,0,0.06172839506172839,102.34567901234568,0)" xlink:href="#R"/></g><path fill="#fff" d="M137-103V0h-34v-103L8-248h37l75 118 75-118h37" id="Y"/><g id="j"><use transform="matrix(0.06172839506172839,0,0,0.06172839506172839,0,0)" xlink:href="#Y"/><use transform="matrix(0.06172839506172839,0,0,0.06172839506172839,13.580246913580245,0)" xlink:href="#v"/><use transform="matrix(0.06172839506172839,0,0,0.06172839506172839,25.925925925925924,0)" xlink:href="#H"/><use transform="matrix(0.06172839506172839,0,0,0.06172839506172839,44.38271604938271,0)" xlink:href="#B"/></g><path fill="#fff" d="M212-179c-10-28-35-45-73-45-59 0-87 40-87 99 0 60 29 101 89 101 43 0 62-24 78-52l27 14C228-24 195 4 139 4 59 4 22-46 18-125c-6-104 99-153 187-111 19 9 31 26 39 46" id="Z"/><g id="k"><use transform="matrix(0.06172839506172839,0,0,0.06172839506172839,0,0)" xlink:href="#Z"/><use transform="matrix(0.06172839506172839,0,0,0.06172839506172839,15.987654320987653,0)" xlink:href="#F"/><use transform="matrix(0.06172839506172839,0,0,0.06172839506172839,28.333333333333332,0)" xlink:href="#x"/><use transform="matrix(0.06172839506172839,0,0,0.06172839506172839,40.67901234567901,0)" xlink:href="#u"/><use transform="matrix(0.06172839506172839,0,0,0.06172839506172839,51.79012345679013,0)" xlink:href="#y"/><use transform="matrix(0.06172839506172839,0,0,0.06172839506172839,64.13580246913581,0)" xlink:href="#x"/><use transform="matrix(0.06172839506172839,0,0,0.06172839506172839,76.4814814814815,0)" xlink:href="#u"/><use transform="matrix(0.06172839506172839,0,0,0.06172839506172839,87.59259259259261,0)" xlink:href="#v"/><use transform="matrix(0.06172839506172839,0,0,0.06172839506172839,99.9382716049383,0)" xlink:href="#u"/></g><path fill="#fff" d="M24 0v-54h51V0H24" id="aa"/><use transform="matrix(0.07407407407407404,0,0,0.07407407407407404,0,0)" xlink:href="#aa" id="l"/><use transform="matrix(0.07407407407407404,0,0,0.07407407407407404,0,0)" xlink:href="#aa" id="m"/><use transform="matrix(0.07407407407407404,0,0,0.07407407407407404,0,0)" xlink:href="#aa" id="n"/></defs></g></svg>