<svg xmlns="http://www.w3.org/2000/svg" xmlns:xlink="http://www.w3.org/1999/xlink" xmlns:lucid="lucid" width="1340" height="1070.5"><g transform="translate(640.5 -479)" lucid:page-tab-id="0_0"><path d="M438.5 786a6 6 0 0 1 6-6h128a6 6 0 0 1 6 6v168a6 6 0 0 1-6 6h-128a6 6 0 0 1-6-6z" stroke="#fff" stroke-width="2" fill-opacity="0"/><use xlink:href="#a" transform="matrix(1,0,0,1,443.5,785) translate(22.407407407407412 92.59027777777777)"/><use xlink:href="#b" transform="matrix(1,0,0,1,443.5,785) translate(95.24691358024691 92.59027777777777)"/><path d="M56.03 1305.2a6 6 0 0 1 6-6h168a6 6 0 0 1 6 6v51.33a6 6 0 0 1-6 6h-168a6 6 0 0 1-6-6z" stroke="#000" stroke-opacity="0" stroke-width="2" fill-opacity="0"/><use xlink:href="#c" transform="matrix(1,0,0,1,61.028007668765554,1304.1982064975432) translate(6.7222222222222285 19.375)"/><use xlink:href="#d" transform="matrix(1,0,0,1,61.028007668765554,1304.1982064975432) translate(57.83333333333333 19.375)"/><use xlink:href="#e" transform="matrix(1,0,0,1,61.028007668765554,1304.1982064975432) translate(104.38888888888889 19.375)"/><use xlink:href="#f" transform="matrix(1,0,0,1,61.028007668765554,1304.1982064975432) translate(45.055555555555564 43.37499999999999)"/><use xlink:href="#g" transform="matrix(1,0,0,1,61.028007668765554,1304.1982064975432) translate(65 43.37499999999999)"/><path d="M26.03 1365.2a6 6 0 0 1 6-6h228a6 6 0 0 1 6 6v118a6 6 0 0 1-6 6h-228a6 6 0 0 1-6-6z" stroke="#000" stroke-opacity="0" stroke-width="2" fill-opacity="0"/><use xlink:href="#h" transform="matrix(1,0,0,1,31.028007668765554,1364.1982064975432) translate(20.694444444444457 19.75)"/><use xlink:href="#i" transform="matrix(1,0,0,1,31.028007668765554,1364.1982064975432) translate(98.41666666666667 19.75)"/><use xlink:href="#j" transform="matrix(1,0,0,1,31.028007668765554,1364.1982064975432) translate(172.75 19.75)"/><use xlink:href="#k" transform="matrix(1,0,0,1,31.028007668765554,1364.1982064975432) translate(39.55555555555556 43.74999999999999)"/><use xlink:href="#l" transform="matrix(1,0,0,1,31.028007668765554,1364.1982064975432) translate(81.72222222222223 43.74999999999999)"/><use xlink:href="#m" transform="matrix(1,0,0,1,31.028007668765554,1364.1982064975432) translate(115.05555555555556 43.74999999999999)"/><use xlink:href="#n" transform="matrix(1,0,0,1,31.028007668765554,1364.1982064975432) translate(31.22222222222223 67.74999999999999)"/><use xlink:href="#o" transform="matrix(1,0,0,1,31.028007668765554,1364.1982064975432) translate(130 67.74999999999999)"/><use xlink:href="#p" transform="matrix(1,0,0,1,31.028007668765554,1364.1982064975432) translate(171 67.74999999999999)"/><use xlink:href="#q" transform="matrix(1,0,0,1,31.028007668765554,1364.1982064975432) translate(31.833333333333343 91.74999999999999)"/><use xlink:href="#r" transform="matrix(1,0,0,1,31.028007668765554,1364.1982064975432) translate(157.16666666666669 91.74999999999999)"/><use xlink:href="#s" transform="matrix(1,0,0,1,31.028007668765554,1364.1982064975432) translate(38.97222222222224 115.74999999999999)"/><use xlink:href="#t" transform="matrix(1,0,0,1,31.028007668765554,1364.1982064975432) translate(103.41666666666667 115.74999999999999)"/><use xlink:href="#u" transform="matrix(1,0,0,1,31.028007668765554,1364.1982064975432) translate(137.80555555555554 115.74999999999999)"/><use xlink:href="#v" transform="matrix(1,0,0,1,31.028007668765554,1364.1982064975432) translate(160.02777777777777 115.74999999999999)"/><path d="M606 1368.2a6 6 0 0 1-6-6v-48a6 6 0 0 1 6-6h40.57a6 6 0 0 1 6 6v48a6 6 0 0 1-6 6z" stroke="#000" stroke-opacity="0" fill-opacity="0"/><use xlink:href="#w" transform="matrix(6.123233995736766e-17,-1,1,6.123233995736766e-17,605,1363.1982064975432) translate(6.481481481481492 26.708333333333325)"/><use xlink:href="#x" transform="matrix(6.123233995736766e-17,-1,1,6.123233995736766e-17,605,1363.1982064975432) translate(21.296296296296298 26.708333333333325)"/><use xlink:href="#y" transform="matrix(6.123233995736766e-17,-1,1,6.123233995736766e-17,605,1363.1982064975432) translate(36.11111111111111 26.708333333333325)"/><g stroke="#fff"><path d="M336.07 685.3a6 6 0 0 1 8.12-2.46l146.72 78.7a6 6 0 0 1 2.45 8.12l-13.23 24.67a6 6 0 0 1-8.13 2.46l-146.7-78.7a6 6 0 0 1-2.46-8.14z"/><path d="M354.64 688.44l-18.9 35.25m144.74 32.24l-18.9 35.24" fill="none"/></g><use xlink:href="#z" transform="matrix(0.8812383630960666,0.47267213521400325,-0.47267213521400325,0.8812383630960666,360.6123475245514,697.316049508513) translate(0.9814814814814881 19.444444444444443)"/><use xlink:href="#A" transform="matrix(0.8812383630960666,0.47267213521400325,-0.47267213521400325,0.8812383630960666,360.6123475245514,697.316049508513) translate(57.586419753086425 19.444444444444443)"/><path d="M320 606a6 6 0 0 1 6-6h142.25a6 6 0 0 1 6 6v66a6 6 0 0 1-6 6H326a6 6 0 0 1-6-6z" stroke="#000" stroke-opacity="0" stroke-width="2" fill-opacity="0"/><use xlink:href="#B" transform="matrix(1,0,0,1,325,605) translate(1.4166666666666856 26.625)"/><use xlink:href="#C" transform="matrix(1,0,0,1,325,605) translate(75.86111111111111 26.625)"/><use xlink:href="#D" transform="matrix(1,0,0,1,325,605) translate(98.08333333333333 26.625)"/><use xlink:href="#E" transform="matrix(1,0,0,1,325,605) translate(29.805555555555557 50.625)"/><path d="M-59.65 1079.64l10.18-10.45 11.2-12.52 12.12-14.73 13.38-17.73 15.3-22.14 18.7-29.67 28.25-49.48 71.67-131 14.35-22.78 11.02-15.98L155.7 741l7.98-9.7 7.1-7.94 6.47-6.63 5.96-5.63 5.58-4.83 5.24-4.17 4.97-3.64 4.75-3.18 4.6-2.8 4.42-2.44 4.32-2.16 4.22-1.9 4.17-1.65 4.1-1.44 4.08-1.26 4.07-1.05 4.07-.9 4.1-.7 4.14-.52 4.2-.36 4.27-.2h4.37l4.5.18 4.63.38 4.82.6 5 .83 5.26 1.12 5.54 1.4 5.85 1.76 6.23 2.16 6.68 2.63 2.88 1.27" stroke="#fff" stroke-linejoin="round" fill="none"/><path d="M-59.64 1079.63l-.35.36" stroke="#fff" fill="none"/><path d="M327.56 696.68l-14.86-2.05 4.04-8.34z" stroke="#fff" fill="#fff"/><path d="M118.53 690a6 6 0 0 1 6-6h43a6 6 0 0 1 6 6v46a6 6 0 0 1-6 6h-43a6 6 0 0 1-6-6z" stroke="#000" stroke-opacity="0" stroke-width="2" fill-opacity="0"/><use xlink:href="#F" transform="matrix(1,0,0,1,123.5280076687655,689) translate(9.111111111111114 28)"/><a xlink:href="https://blog.bittensor.com/" target="_blank"><path d="M118.53 806a6 6 0 0 1 6-6h43a6 6 0 0 1 6 6v46a6 6 0 0 1-6 6h-43a6 6 0 0 1-6-6z" stroke="#000" stroke-opacity="0" stroke-width="2" fill-opacity="0"/><use xlink:href="#G" transform="matrix(1,0,0,1,123.5280076687655,805) translate(3.5555555555555607 28)"/><path class="lucid-link lucid-hotspot lucid-overlay-hotspot" d="M118.53 806a6 6 0 0 1 6-6h43a6 6 0 0 1 6 6v46a6 6 0 0 1-6 6h-43a6 6 0 0 1-6-6z" fill="none"/></a><g fill="none"><path d="M-19 480.5V1549"/><path d="M-19 480.5v5.02m0 5v10.05m0 5v10.05m0 5v10.04m0 5.02v10.03m0 5.03v10.03m0 5.02v10.03m0 5.03v10.03m0 5.02v10.03m0 5.03v10.03m0 5.02V636m0 5.03v10.03m0 5v10.05m0 5.02v10.04m0 5v10.05m0 5.02v10.04m0 5v10.04m0 5.02v10.03m0 5.02v10.03m0 5.02v10.03m0 5.02v10.03m0 5.02v10.03m0 5.02v10.03m0 5.02v10.03m0 5.02v10.03m0 5.02v10.03m0 5v10.05m0 5v10.05m0 5v10.05m0 5v10.05m0 5V937m0 5v10.04m0 5.02v10.03m0 5v10.04m0 5.02v10.03m0 5v10.04m0 5.02v10.03m0 5v10.04m0 5.02v10.03m0 5v10.04m0 5v10.05m0 5v10.04m0 5v10.05m0 5v10.04m0 5v10.04m0 5.02v10.03m0 5.02v10.03m0 5.02v10.03m0 5.02v10.03m0 5.02v10.03m0 5.02v10.03m0 5.02v10.03m0 5.02v10.03m0 5.02v10.03m0 5.02v10.03m0 5v10.05m0 5v10.05m0 5v10.05m0 5v10.05m0 5v10.04m0 5.02v10.03m0 5.02v10.02m0 5.02v10.03m0 5.02v10.02m0 5.02v10.03m0 5.02v10.02m0 5.02v10.03m0 5.02v10.02m0 5.02v10.03m0 5.02v10.02m0 5v10.05m0 5v5.03" stroke="#fff" stroke-linecap="round"/></g><path d="M266.42 1381.78l40.66-31.7" stroke="#fff" fill="none"/><path d="M266.72 1382.15l-.7.54v-1.2l.12-.1z" stroke="#fff" stroke-width=".05" fill="#fff"/><path d="M318.72 1341l-8.4 12.42-5.7-7.3z" stroke="#fff" fill="#fff"/><path d="M20 486a6 6 0 0 1 6-6h188a6 6 0 0 1 6 6v118a6 6 0 0 1-6 6H26a6 6 0 0 1-6-6z" stroke="#000" stroke-opacity="0" stroke-width="2" fill-opacity="0"/><use xlink:href="#H" transform="matrix(1,0,0,1,25,485) translate(6.250000000000014 19.75)"/><use xlink:href="#I" transform="matrix(1,0,0,1,25,485) translate(53.91666666666667 19.75)"/><use xlink:href="#J" transform="matrix(1,0,0,1,25,485) translate(77.25 19.75)"/><use xlink:href="#K" transform="matrix(1,0,0,1,25,485) translate(167.08333333333331 19.75)"/><use xlink:href="#L" transform="matrix(1,0,0,1,25,485) translate(0.9166666666666856 43.74999999999999)"/><use xlink:href="#M" transform="matrix(1,0,0,1,25,485) translate(63.08333333333334 43.74999999999999)"/><use xlink:href="#N" transform="matrix(1,0,0,1,25,485) translate(141.30555555555554 43.74999999999999)"/><use xlink:href="#O" transform="matrix(1,0,0,1,25,485) translate(9.500000000000028 67.74999999999999)"/><use xlink:href="#P" transform="matrix(1,0,0,1,25,485) translate(31.722222222222246 67.74999999999999)"/><use xlink:href="#Q" transform="matrix(1,0,0,1,25,485) translate(65.05555555555557 67.74999999999999)"/><use xlink:href="#R" transform="matrix(1,0,0,1,25,485) translate(111.61111111111111 67.74999999999999)"/><use xlink:href="#S" transform="matrix(1,0,0,1,25,485) translate(5.055555555555571 91.74999999999999)"/><use xlink:href="#T" transform="matrix(1,0,0,1,25,485) translate(26.11111111111112 91.74999999999999)"/><use xlink:href="#U" transform="matrix(1,0,0,1,25,485) translate(42.777777777777786 91.74999999999999)"/><use xlink:href="#V" transform="matrix(1,0,0,1,25,485) translate(108.33333333333333 91.74999999999999)"/><use xlink:href="#W" transform="matrix(1,0,0,1,25,485) translate(157.16666666666666 91.74999999999999)"/><use xlink:href="#X" transform="matrix(1,0,0,1,25,485) translate(46.11111111111112 115.74999999999999)"/><use xlink:href="#Y" transform="matrix(1,0,0,1,25,485) translate(116.11111111111111 115.74999999999999)"/><path d="M127.52 610.5l.2 6.13.53 5.36.78 4.56 1 4.13 1.25 4 1.73 4.4 9.24 20.2 1.26 4 1 4.14.04.27" stroke="#fff" stroke-linejoin="round" fill="none"/><path d="M128 610.5l-.96.03-.02-.53h.95z" stroke="#fff" stroke-width=".05" fill="#fff"/><path d="M145.88 682.4l-5.9-13.8 9.22-.84z" stroke="#fff" fill="#fff"/><path d="M-240 1086a6 6 0 0 1 6-6h148a6 6 0 0 1 6 6v48a6 6 0 0 1-6 6h-148a6 6 0 0 1-6-6z" stroke="#fff" fill-opacity="0"/><path d="M-224 1080v60m128-60v60" stroke="#fff" fill="none"/><use xlink:href="#Z" transform="matrix(1,0,0,1,-215,1085) translate(20.46296296296297 29.444444444444443)"/><path d="M-255 1166.26a6 6 0 0 1 6-6h168a6 6 0 0 1 6 6v52.57a6 6 0 0 1-6 6h-168a6 6 0 0 1-6-6z" stroke="#000" stroke-opacity="0" stroke-width="2" fill-opacity="0"/><use xlink:href="#aa" transform="matrix(1,0,0,1,-250.0000000000001,1165.2610062861222) translate(22.111111111111114 19.4375)"/><use xlink:href="#ab" transform="matrix(1,0,0,1,-250.0000000000001,1165.2610062861222) translate(58.72222222222222 19.4375)"/><use xlink:href="#ac" transform="matrix(1,0,0,1,-250.0000000000001,1165.2610062861222) translate(14.472222222222229 43.43749999999999)"/><use xlink:href="#ad" transform="matrix(1,0,0,1,-250.0000000000001,1165.2610062861222) translate(96.63888888888889 43.43749999999999)"/><path d="M-479.78 940.45l12.45 24.9M-479.77 940.46l-.23-.46" stroke="#fff" fill="none"/><path d="M-460.72 978.55l-10.53-10.68 8.3-4.15z" stroke="#fff" fill="#fff"/><path d="M-600 746a6 6 0 0 1 6-6h188a6 6 0 0 1 6 6v166a6 6 0 0 1-6 6h-188a6 6 0 0 1-6-6z" stroke="#000" stroke-opacity="0" stroke-width="2" fill-opacity="0"/><use xlink:href="#ae" transform="matrix(1,0,0,1,-595,745) translate(95 21.25)"/><use xlink:href="#af" transform="matrix(1,0,0,1,-595,745) translate(95 45.24999999999999)"/><use xlink:href="#ag" transform="matrix(1,0,0,1,-595,745) translate(0.11111111111112848 69.24999999999999)"/><use xlink:href="#ah" transform="matrix(1,0,0,1,-595,745) translate(96.66666666666667 69.24999999999999)"/><use xlink:href="#ai" transform="matrix(1,0,0,1,-595,745) translate(150 69.24999999999999)"/><use xlink:href="#aj" transform="matrix(1,0,0,1,-595,745) translate(30.611111111111114 93.24999999999999)"/><use xlink:href="#ak" transform="matrix(1,0,0,1,-595,745) translate(81.66666666666666 93.24999999999999)"/><use xlink:href="#al" transform="matrix(1,0,0,1,-595,745) translate(89.16666666666667 117.24999999999999)"/><use xlink:href="#am" transform="matrix(1,0,0,1,-595,745) translate(2.6666666666666856 141.24999999999997)"/><use xlink:href="#an" transform="matrix(1,0,0,1,-595,745) translate(97.3888888888889 141.24999999999997)"/><use xlink:href="#ao" transform="matrix(1,0,0,1,-595,745) translate(139.55555555555554 141.24999999999997)"/><use xlink:href="#ap" transform="matrix(1,0,0,1,-595,745) translate(17.333333333333343 165.24999999999997)"/><use xlink:href="#an" transform="matrix(1,0,0,1,-595,745) translate(62.77777777777778 165.24999999999997)"/><use xlink:href="#aq" transform="matrix(1,0,0,1,-595,745) translate(104.94444444444443 165.24999999999997)"/><path d="M-640 1095.9a6 6 0 0 1 6-6h148a6 6 0 0 1 6 6v34.9a6 6 0 0 1-6 6h-148a6 6 0 0 1-6-6z" stroke="#fff" fill-opacity="0"/><path d="M-624 1089.9v46.9m128-46.9v46.9" stroke="#fff" fill="none"/><use xlink:href="#ar" transform="matrix(1,0,0,1,-615,1094.9025157153055) translate(14.938271604938272 22.944444444444443)"/><path d="M-520 1006a6 6 0 0 1 6-6h148a6 6 0 0 1 6 6v34.9a6 6 0 0 1-6 6h-148a6 6 0 0 1-6-6z" stroke="#fff" fill-opacity="0"/><path d="M-504 1000v46.9m128-46.9v46.9" stroke="#fff" fill="none"/><use xlink:href="#ar" transform="matrix(1,0,0,1,-495,1005) translate(14.938271604938272 22.944444444444443)"/><path d="M-520 1166.26a6 6 0 0 1 6-6h148a6 6 0 0 1 6 6v34.9a6 6 0 0 1-6 6h-148a6 6 0 0 1-6-6z" stroke="#fff" fill-opacity="0"/><path d="M-504 1160.26v46.9m128-46.9v46.9" stroke="#fff" fill="none"/><use xlink:href="#ar" transform="matrix(1,0,0,1,-495,1165.2610062861222) translate(14.938271604938272 22.944444444444443)"/><path d="M-370.55 1047.6l115.26 44.25" stroke="#fff" fill="none"/><path d="M-370.7 1048.03l-1.64-.62h1.87z" stroke="#fff" stroke-width=".05" fill="#fff"/><path d="M-241.5 1097.14l-15-.8 3.33-8.64z" stroke="#fff" fill="#fff"/><path d="M-359.05 1183.5l104.15-47.7" stroke="#fff" fill="none"/><path d="M-358.84 1183.93l-.66.3v-1.04l.27-.13z" stroke="#fff" stroke-width=".05" fill="#fff"/><path d="M-241.47 1129.66l-11.04 10.16-3.87-8.43z" stroke="#fff" fill="#fff"/><path d="M-479 1113.36h222.62" stroke="#fff" fill="none"/><path d="M-479 1113.83h-.5v-.95h.5z" stroke="#fff" stroke-width=".05" fill="#fff"/><path d="M-241.62 1113.36l-14.26 4.63v-9.28z" stroke="#fff" fill="#fff"/><path d="M-520 1226a6 6 0 0 1 6-6h148a6 6 0 0 1 6 6v46a6 6 0 0 1-6 6h-148a6 6 0 0 1-6-6z" stroke="#000" stroke-opacity="0" stroke-width="2" fill-opacity="0"/><g><use xlink:href="#as" transform="matrix(1,0,0,1,-515,1225) translate(9.333333333333343 19)"/><use xlink:href="#at" transform="matrix(1,0,0,1,-515,1225) translate(104.05555555555556 19)"/><use xlink:href="#au" transform="matrix(1,0,0,1,-515,1225) translate(41.13888888888889 42.99999999999999)"/></g><path d="M-253.97 1031.33a6 6 0 0 1 6-6h168a6 6 0 0 1 6 6v52.57a6 6 0 0 1-6 6h-168a6 6 0 0 1-6-6z" stroke="#000" stroke-opacity="0" stroke-width="2" fill-opacity="0"/><g><use xlink:href="#av" transform="matrix(1,0,0,1,-248.97199233123445,1030.3301886770946) translate(24.47222222222223 33.1875)"/><use xlink:href="#ad" transform="matrix(1,0,0,1,-248.97199233123445,1030.3301886770946) translate(86.63888888888889 33.1875)"/></g><path d="M-240 712a6 6 0 0 1 6-6h148a6 6 0 0 1 6 6v94a6 6 0 0 1-6 6h-148a6 6 0 0 1-6-6z" stroke="#000" stroke-opacity="0" stroke-width="2" fill-opacity="0"/><g><use xlink:href="#aw" transform="matrix(1,0,0,1,-235,711) translate(38.91666666666667 28)"/><use xlink:href="#ax" transform="matrix(1,0,0,1,-235,711) translate(22.805555555555557 52)"/><use xlink:href="#K" transform="matrix(1,0,0,1,-235,711) translate(110.52777777777777 52)"/><use xlink:href="#L" transform="matrix(1,0,0,1,-235,711) translate(14.472222222222229 76)"/><use xlink:href="#ad" transform="matrix(1,0,0,1,-235,711) translate(76.63888888888889 76)"/></g><path d="M-20 755.52h-43.62" stroke="#fff" fill="none"/><path d="M-19.5 756h-.5v-.95h.5zm3 0h-2v-.95h2z" stroke="#fff" stroke-width=".05" fill="#fff"/><path d="M-78.38 755.52l14.26-4.63v9.26z" stroke="#fff" fill="#fff"/><path d="M-59.6 1079.68l13.45-10.92 14.27-12.6 15.14-14.55 16.9-17.66 21.35-24.3 80.45-97.48 12.43-13 10.42-10 9.3-8.22 8.57-6.96 8.1-6.03 7.8-5.3 7.58-4.7 7.48-4.23 7.43-3.8 7.45-3.42 7.55-3.08 7.67-2.76 7.86-2.47 8.1-2.2 8.44-1.88 8.83-1.6 9.3-1.27 9.85-.93 2.78-.15" stroke="#fff" stroke-linejoin="round" fill="none"/><path d="M-59.6 1079.67l-.4.33" stroke="#fff" fill="none"/><path d="M273.63 819.67l-14.1 5.1-.3-9.25z" stroke="#fff" fill="#fff"/><path d="M280 905.14a6 6 0 0 1 6-6h166.5a6 6 0 0 1 6 6v24.5a6 6 0 0 1-6 6H286a6 6 0 0 1-6-6z" stroke="#fff"/><path d="M297.85 899.14v36.5m142.8-36.5v36.5" stroke="#fff" fill="none"/><g><use xlink:href="#z" transform="matrix(1,0,0,1,307.3125,904.1440886541047) translate(0.9814814814814881 17.944444444444443)"/><use xlink:href="#A" transform="matrix(1,0,0,1,307.3125,904.1440886541047) translate(57.586419753086425 17.944444444444443)"/></g><g><path d="M344.7 889.38a6 6 0 0 1-6-6v-28a6 6 0 0 1 6-6h40.6a6 6 0 0 1 6 6v28a6 6 0 0 1-6 6z" stroke="#000" stroke-opacity="0" fill-opacity="0"/></g><g><use xlink:href="#ay" transform="matrix(6.123233995736766e-17,-1,1,6.123233995736766e-17,343.7131970522085,884.3827996568236) translate(2.6543209876543195 24.97222222222222)"/><use xlink:href="#az" transform="matrix(6.123233995736766e-17,-1,1,6.123233995736766e-17,343.7131970522085,884.3827996568236) translate(12.530864197530864 24.97222222222222)"/><use xlink:href="#aA" transform="matrix(6.123233995736766e-17,-1,1,6.123233995736766e-17,343.7131970522085,884.3827996568236) translate(22.40740740740741 24.97222222222222)"/></g><path d="M275.75 805.62a6 6 0 0 1 6-6h166.5a6 6 0 0 1 6 6v28a6 6 0 0 1-6 6h-166.5a6 6 0 0 1-6-6z" stroke="#fff"/><path d="M293.6 799.62v40m142.8-40v40" stroke="#fff" fill="none"/><g><use xlink:href="#z" transform="matrix(1,0,0,1,303.0624999999999,804.6215106595423) translate(0.9814814814814881 19.444444444444443)"/><use xlink:href="#A" transform="matrix(1,0,0,1,303.0624999999999,804.6215106595423) translate(57.586419753086425 19.444444444444443)"/></g><a xlink:href="https://blog.bittensor.com/" target="_blank"><path d="M120 905.14a6 6 0 0 1 6-6h43a6 6 0 0 1 6 6v46a6 6 0 0 1-6 6h-43a6 6 0 0 1-6-6z" stroke="#000" stroke-opacity="0" stroke-width="2" fill-opacity="0"/><use xlink:href="#aB" transform="matrix(1,0,0,1,125,904.1440886541047) translate(3.5555555555555607 28)"/><path class="lucid-link lucid-hotspot lucid-overlay-hotspot" d="M120 905.14a6 6 0 0 1 6-6h43a6 6 0 0 1 6 6v46a6 6 0 0 1-6 6h-43a6 6 0 0 1-6-6z" fill="none"/></a><path d="M-59.55 1079.77l19.5-9.85 20.93-11.7 23.64-14.57 34.26-23.22 72.07-50.46 17.33-10.7 14.08-7.86 12.48-6.3 11.58-5.26 11.07-4.47 10.8-3.85 10.75-3.33 10.83-2.87 11.05-2.43 11.4-2 11.9-1.6 12.55-1.13 6.44-.3" stroke="#fff" stroke-linejoin="round" fill="none"/><path d="M-59.54 1079.77l-.46.23" stroke="#fff" fill="none"/><path d="M277.88 917.44l-14.13 5.04-.26-9.27z" stroke="#fff" fill="#fff"/><path d="M558.5 1088.08a6 6 0 0 1 6-6h128a6 6 0 0 1 6 6v168a6 6 0 0 1-6 6h-128a6 6 0 0 1-6-6z" stroke="#fff" stroke-width="2" fill-opacity="0"/><g><use xlink:href="#a" transform="matrix(1,0,0,1,563.495977030223,1087.0795077732869) translate(22.407407407407412 92.59027777777777)"/><use xlink:href="#aC" transform="matrix(1,0,0,1,563.495977030223,1087.0795077732869) translate(95.24691358024691 92.59027777777777)"/></g><g stroke="#fff"><path d="M397.95 1269.56a6 6 0 0 1 4.35-7.3l161.42-40.8a6 6 0 0 1 7.3 4.36l6 23.82a6 6 0 0 1-4.34 7.3l-161.42 40.8a6 6 0 0 1-7.3-4.36z"/><path d="M413.8 1259.37l8.95 35.45m129.48-70.45l8.96 35.46" fill="none"/></g><g><use xlink:href="#z" transform="matrix(0.9695122111994184,-0.2450430009920998,0.2450430009920998,0.9695122111994184,424.1851145519951,1261.8949997684902) translate(0.9814814814814881 17.944444444444443)"/><use xlink:href="#A" transform="matrix(0.9695122111994184,-0.2450430009920998,0.2450430009920998,0.9695122111994184,424.1851145519951,1261.8949997684902) translate(57.586419753086425 17.944444444444443)"/></g><path d="M-59.53 1120.18l20.8 7.8 22.33 9.45 24.3 11.53 28.53 15.02 43.05 25.14 92.04 55.62 21.52 11.35 17 8.05 14.66 6.2 13.2 4.97 12.28 4.02 11.62 3.28 11.18 2.65 10.9 2.1 10.77 1.63 10.7 1.15 10.77.7 10.9.26 11.14-.2 11.46-.7 11.88-1.22 12.43-1.8 10.56-2" stroke="#fff" stroke-linejoin="round" fill="none"/><path d="M-59.5 1120.18l-.5-.18" stroke="#fff" fill="none"/><path d="M398.9 1281.95l-12.9 7.65-2.04-9.05z" stroke="#fff" fill="#fff"/><path d="M-59.5 1119.95l368.72-36.28 65.2-1.35" stroke="#fff" stroke-linejoin="round" fill="none"/><path d="M-59.48 1119.95l-.52.05" stroke="#fff" fill="none"/><path d="M389.17 1082.03l-14.17 4.92-.2-9.27z" stroke="#fff" fill="#fff"/><path d="M391.3 1146a6 6 0 0 1 6-6h166.5a6 6 0 0 1 6 6v24.5a6 6 0 0 1-6 6H397.3a6 6 0 0 1-6-6z" stroke="#fff"/><path d="M409.14 1140v36.5m142.8-36.5v36.5" stroke="#fff" fill="none"/><g><use xlink:href="#z" transform="matrix(1,0,0,1,418.5993029477913,1145) translate(0.9814814814814881 17.944444444444443)"/><use xlink:href="#A" transform="matrix(1,0,0,1,418.5993029477913,1145) translate(57.586419753086425 17.944444444444443)"/></g><g><path d="M480.25 1228.85a6 6 0 0 1-6-6v-28a6 6 0 0 1 6-6h40.57a6 6 0 0 1 6 6v28a6 6 0 0 1-6 6z" stroke="#000" stroke-opacity="0" fill-opacity="0"/></g><g><use xlink:href="#ay" transform="matrix(6.123233995736766e-17,-1,1,6.123233995736766e-17,479.2499999999998,1223.84904126544) translate(2.6543209876543195 24.97222222222222)"/><use xlink:href="#az" transform="matrix(6.123233995736766e-17,-1,1,6.123233995736766e-17,479.2499999999998,1223.84904126544) translate(12.530864197530864 24.97222222222222)"/><use xlink:href="#aA" transform="matrix(6.123233995736766e-17,-1,1,6.123233995736766e-17,479.2499999999998,1223.84904126544) translate(22.40740740740741 24.97222222222222)"/></g><path d="M391.3 1068a6 6 0 0 1 6-6h166.5a6 6 0 0 1 6 6v28a6 6 0 0 1-6 6H397.3a6 6 0 0 1-6-6z" stroke="#fff"/><path d="M409.14 1062v40m142.8-40v40" stroke="#fff" fill="none"/><g><use xlink:href="#z" transform="matrix(1,0,0,1,418.5993029477913,1067.0000000000002) translate(0.9814814814814881 19.444444444444443)"/><use xlink:href="#A" transform="matrix(1,0,0,1,418.5993029477913,1067.0000000000002) translate(57.586419753086425 19.444444444444443)"/></g><path d="M-59.5 1120.05l368.23 36.5 65.68 1.4" stroke="#fff" stroke-linejoin="round" fill="none"/><path d="M-59.48 1120.05l-.52-.05" stroke="#fff" fill="none"/><path d="M389.17 1158.22l-14.35 4.37.17-9.28z" stroke="#fff" fill="#fff"/><path d="M373.5 1026a6 6 0 0 1 6-6h202.07a6 6 0 0 1 6 6v28a6 6 0 0 1-6 6H379.5a6 6 0 0 1-6-6z" stroke="#000" stroke-opacity="0" stroke-width="2" fill-opacity="0"/><g><use xlink:href="#aD" transform="matrix(1,0,0,1,378.49999999999994,1025) translate(3.4444444444444713 19.875)"/><use xlink:href="#aE" transform="matrix(1,0,0,1,378.49999999999994,1025) translate(69.00000000000001 19.875)"/><use xlink:href="#ad" transform="matrix(1,0,0,1,378.49999999999994,1025) translate(142.66666666666663 19.875)"/></g><path d="M240 1026a6 6 0 0 1 6-6h43a6 6 0 0 1 6 6v46a6 6 0 0 1-6 6h-43a6 6 0 0 1-6-6z" stroke="#000" stroke-opacity="0" stroke-width="2" fill-opacity="0"/><g><use xlink:href="#aF" transform="matrix(1,0,0,1,245,1025) translate(9.111111111111114 28)"/></g><a xlink:href="https://blog.bittensor.com/" target="_blank"><path d="M241.47 1111.5a6 6 0 0 1 6-6h43a6 6 0 0 1 6 6v46a6 6 0 0 1-6 6h-43a6 6 0 0 1-6-6z" stroke="#000" stroke-opacity="0" stroke-width="2" fill-opacity="0"/><use xlink:href="#aG" transform="matrix(1,0,0,1,246.4719923312345,1110.5) translate(9.111111111111114 28)"/><path class="lucid-link lucid-hotspot lucid-overlay-hotspot" d="M241.47 1111.5a6 6 0 0 1 6-6h43a6 6 0 0 1 6 6v46a6 6 0 0 1-6 6h-43a6 6 0 0 1-6-6z" fill="none"/></a><a xlink:href="https://blog.bittensor.com/" target="_blank"><path d="M241.47 1241.14a6 6 0 0 1 6-6h43a6 6 0 0 1 6 6v46a6 6 0 0 1-6 6h-43a6 6 0 0 1-6-6z" stroke="#000" stroke-opacity="0" stroke-width="2" fill-opacity="0"/><use xlink:href="#aH" transform="matrix(1,0,0,1,246.4719923312345,1240.1440886541047) translate(9.111111111111114 28)"/><path class="lucid-link lucid-hotspot lucid-overlay-hotspot" d="M241.47 1241.14a6 6 0 0 1 6-6h43a6 6 0 0 1 6 6v46a6 6 0 0 1-6 6h-43a6 6 0 0 1-6-6z" fill="none"/></a><path d="M403.4 1305.2a6 6 0 0 1 6-6h142.26a6 6 0 0 1 6 6v66a6 6 0 0 1-6 6H409.4a6 6 0 0 1-6-6z" stroke="#000" stroke-opacity="0" stroke-width="2" fill-opacity="0"/><g><use xlink:href="#B" transform="matrix(1,0,0,1,408.41180294779133,1304.1982064975432) translate(1.4166666666666856 26.625)"/><use xlink:href="#C" transform="matrix(1,0,0,1,408.41180294779133,1304.1982064975432) translate(75.86111111111111 26.625)"/><use xlink:href="#D" transform="matrix(1,0,0,1,408.41180294779133,1304.1982064975432) translate(98.08333333333333 26.625)"/><use xlink:href="#E" transform="matrix(1,0,0,1,408.41180294779133,1304.1982064975432) translate(29.805555555555557 50.625)"/></g><defs><path fill="#fff" d="M135-143c-3-34-86-38-87 0 15 53 115 12 119 90S17 21 10-45l28-5c4 36 97 45 98 0-10-56-113-15-118-90-4-57 82-63 122-42 12 7 21 19 24 35" id="aI"/><path fill="#fff" d="M84 4C-5 8 30-112 23-190h32v120c0 31 7 50 39 49 72-2 45-101 50-169h31l1 190h-30c-1-10 1-25-2-33-11 22-28 36-60 37" id="aJ"/><path fill="#fff" d="M115-194c53 0 69 39 70 98 0 66-23 100-70 100C84 3 66-7 56-30L54 0H23l1-261h32v101c10-23 28-34 59-34zm-8 174c40 0 45-34 45-75 0-40-5-75-45-74-42 0-51 32-51 76 0 43 10 73 51 73" id="aK"/><path fill="#fff" d="M117-194c89-4 53 116 60 194h-32v-121c0-31-8-49-39-48C34-167 62-67 57 0H25l-1-190h30c1 10-1 24 2 32 11-22 29-35 61-36" id="aL"/><path fill="#fff" d="M100-194c63 0 86 42 84 106H49c0 40 14 67 53 68 26 1 43-12 49-29l28 8c-11 28-37 45-77 45C44 4 14-33 15-96c1-61 26-98 85-98zm52 81c6-60-76-77-97-28-3 7-6 17-6 28h103" id="aM"/><path fill="#fff" d="M59-47c-2 24 18 29 38 22v24C64 9 27 4 27-40v-127H5v-23h24l9-43h21v43h35v23H59v120" id="aN"/><g id="a"><use transform="matrix(0.06172839506172839,0,0,0.06172839506172839,0,0)" xlink:href="#aI"/><use transform="matrix(0.06172839506172839,0,0,0.06172839506172839,11.11111111111111,0)" xlink:href="#aJ"/><use transform="matrix(0.06172839506172839,0,0,0.06172839506172839,23.45679012345679,0)" xlink:href="#aK"/><use transform="matrix(0.06172839506172839,0,0,0.06172839506172839,35.80246913580247,0)" xlink:href="#aL"/><use transform="matrix(0.06172839506172839,0,0,0.06172839506172839,48.148148148148145,0)" xlink:href="#aM"/><use transform="matrix(0.06172839506172839,0,0,0.06172839506172839,60.49382716049382,0)" xlink:href="#aN"/></g><path fill="#fff" d="M27 0v-27h64v-190l-56 39v-29l58-41h29v221h61V0H27" id="aO"/><use transform="matrix(0.06172839506172839,0,0,0.06172839506172839,0,0)" xlink:href="#aO" id="b"/><path fill="#fff" d="M30 0v-248h187v28H63v79h144v27H63v87h162V0H30" id="aP"/><path fill="#fff" d="M141-36C126-15 110 5 73 4 37 3 15-17 15-53c-1-64 63-63 125-63 3-35-9-54-41-54-24 1-41 7-42 31l-33-3c5-37 33-52 76-52 45 0 72 20 72 64v82c-1 20 7 32 28 27v20c-31 9-61-2-59-35zM48-53c0 20 12 33 32 33 41-3 63-29 60-74-43 2-92-5-92 41" id="aQ"/><path fill="#fff" d="M96-169c-40 0-48 33-48 73s9 75 48 75c24 0 41-14 43-38l32 2c-6 37-31 61-74 61-59 0-76-41-82-99-10-93 101-131 147-64 4 7 5 14 7 22l-32 3c-4-21-16-35-41-35" id="aR"/><path fill="#fff" d="M106-169C34-169 62-67 57 0H25v-261h32l-1 103c12-21 28-36 61-36 89 0 53 116 60 194h-32v-121c2-32-8-49-39-48" id="aS"/><g id="c"><use transform="matrix(0.055555555555555546,0,0,0.055555555555555546,0,0)" xlink:href="#aP"/><use transform="matrix(0.055555555555555546,0,0,0.055555555555555546,13.33333333333333,0)" xlink:href="#aQ"/><use transform="matrix(0.055555555555555546,0,0,0.055555555555555546,24.44444444444444,0)" xlink:href="#aR"/><use transform="matrix(0.055555555555555546,0,0,0.055555555555555546,34.444444444444436,0)" xlink:href="#aS"/></g><path fill="#fff" d="M24-231v-30h32v30H24zM24 0v-190h32V0H24" id="aT"/><path fill="#fff" d="M24 0v-261h32V0H24" id="aU"/><path fill="#fff" d="M85-194c31 0 48 13 60 33l-1-100h32l1 261h-30c-2-10 0-23-3-31C134-8 116 4 85 4 32 4 16-35 15-94c0-66 23-100 70-100zm9 24c-40 0-46 34-46 75 0 40 6 74 45 74 42 0 51-32 51-76 0-42-9-74-50-73" id="aV"/><g id="d"><use transform="matrix(0.055555555555555546,0,0,0.055555555555555546,0,0)" xlink:href="#aR"/><use transform="matrix(0.055555555555555546,0,0,0.055555555555555546,9.999999999999998,0)" xlink:href="#aS"/><use transform="matrix(0.055555555555555546,0,0,0.055555555555555546,21.111111111111107,0)" xlink:href="#aT"/><use transform="matrix(0.055555555555555546,0,0,0.055555555555555546,25.499999999999996,0)" xlink:href="#aU"/><use transform="matrix(0.055555555555555546,0,0,0.055555555555555546,29.888888888888882,0)" xlink:href="#aV"/></g><path fill="#fff" d="M100-194c62-1 85 37 85 99 1 63-27 99-86 99S16-35 15-95c0-66 28-99 85-99zM99-20c44 1 53-31 53-75 0-43-8-75-51-75s-53 32-53 75 10 74 51 75" id="aW"/><path fill="#fff" d="M143 0L79-87 56-68V0H24v-261h32v163l83-92h37l-77 82L181 0h-38" id="aX"/><path fill="#fff" d="M179-190L93 31C79 59 56 82 12 73V49c39 6 53-20 64-50L1-190h34L92-34l54-156h33" id="aY"/><g id="e"><use transform="matrix(0.055555555555555546,0,0,0.055555555555555546,0,0)" xlink:href="#aS"/><use transform="matrix(0.055555555555555546,0,0,0.055555555555555546,11.111111111111109,0)" xlink:href="#aW"/><use transform="matrix(0.055555555555555546,0,0,0.055555555555555546,22.222222222222218,0)" xlink:href="#aN"/><use transform="matrix(0.055555555555555546,0,0,0.055555555555555546,27.77777777777777,0)" xlink:href="#aX"/><use transform="matrix(0.055555555555555546,0,0,0.055555555555555546,37.77777777777777,0)" xlink:href="#aM"/><use transform="matrix(0.055555555555555546,0,0,0.055555555555555546,48.88888888888888,0)" xlink:href="#aY"/></g><g id="f"><use transform="matrix(0.055555555555555546,0,0,0.055555555555555546,0,0)" xlink:href="#aT"/><use transform="matrix(0.055555555555555546,0,0,0.055555555555555546,4.388888888888888,0)" xlink:href="#aI"/></g><path fill="#fff" d="M145-31C134-9 116 4 85 4 32 4 16-35 15-94c0-59 17-99 70-100 32-1 48 14 60 33 0-11-1-24 2-32h30l-1 268h-32zM93-21c41 0 51-33 51-76s-8-73-50-73c-40 0-46 35-46 75s5 74 45 74" id="aZ"/><g id="g"><use transform="matrix(0.055555555555555546,0,0,0.055555555555555546,0,0)" xlink:href="#aJ"/><use transform="matrix(0.055555555555555546,0,0,0.055555555555555546,11.111111111111109,0)" xlink:href="#aL"/><use transform="matrix(0.055555555555555546,0,0,0.055555555555555546,22.222222222222218,0)" xlink:href="#aT"/><use transform="matrix(0.055555555555555546,0,0,0.055555555555555546,26.611111111111107,0)" xlink:href="#aZ"/><use transform="matrix(0.055555555555555546,0,0,0.055555555555555546,37.722222222222214,0)" xlink:href="#aJ"/><use transform="matrix(0.055555555555555546,0,0,0.055555555555555546,48.83333333333332,0)" xlink:href="#aM"/></g><path fill="#fff" d="M114-163C36-179 61-72 57 0H25l-1-190h30c1 12-1 29 2 39 6-27 23-49 58-41v29" id="ba"/><g id="h"><use transform="matrix(0.055555555555555546,0,0,0.055555555555555546,0,0)" xlink:href="#ba"/><use transform="matrix(0.055555555555555546,0,0,0.055555555555555546,6.61111111111111,0)" xlink:href="#aM"/><use transform="matrix(0.055555555555555546,0,0,0.055555555555555546,17.722222222222218,0)" xlink:href="#aV"/><use transform="matrix(0.055555555555555546,0,0,0.055555555555555546,28.83333333333333,0)" xlink:href="#aJ"/><use transform="matrix(0.055555555555555546,0,0,0.055555555555555546,39.944444444444436,0)" xlink:href="#aR"/><use transform="matrix(0.055555555555555546,0,0,0.055555555555555546,49.944444444444436,0)" xlink:href="#aM"/><use transform="matrix(0.055555555555555546,0,0,0.055555555555555546,61.05555555555554,0)" xlink:href="#aV"/></g><g id="i"><use transform="matrix(0.055555555555555546,0,0,0.055555555555555546,0,0)" xlink:href="#aI"/><use transform="matrix(0.055555555555555546,0,0,0.055555555555555546,9.999999999999998,0)" xlink:href="#aM"/><use transform="matrix(0.055555555555555546,0,0,0.055555555555555546,21.111111111111107,0)" xlink:href="#aR"/><use transform="matrix(0.055555555555555546,0,0,0.055555555555555546,31.111111111111107,0)" xlink:href="#aJ"/><use transform="matrix(0.055555555555555546,0,0,0.055555555555555546,42.222222222222214,0)" xlink:href="#ba"/><use transform="matrix(0.055555555555555546,0,0,0.055555555555555546,48.83333333333332,0)" xlink:href="#aT"/><use transform="matrix(0.055555555555555546,0,0,0.055555555555555546,53.22222222222221,0)" xlink:href="#aN"/><use transform="matrix(0.055555555555555546,0,0,0.055555555555555546,58.777777777777764,0)" xlink:href="#aY"/></g><path fill="#fff" d="M33-154v-36h34v36H33zM33 0v-36h34V0H33" id="bb"/><g id="j"><use transform="matrix(0.055555555555555546,0,0,0.055555555555555546,0,0)" xlink:href="#ba"/><use transform="matrix(0.055555555555555546,0,0,0.055555555555555546,6.61111111111111,0)" xlink:href="#aT"/><use transform="matrix(0.055555555555555546,0,0,0.055555555555555546,10.999999999999998,0)" xlink:href="#aI"/><use transform="matrix(0.055555555555555546,0,0,0.055555555555555546,20.999999999999996,0)" xlink:href="#aX"/><use transform="matrix(0.055555555555555546,0,0,0.055555555555555546,30.999999999999993,0)" xlink:href="#bb"/></g><g id="k"><use transform="matrix(0.055555555555555546,0,0,0.055555555555555546,0,0)" xlink:href="#aW"/><use transform="matrix(0.055555555555555546,0,0,0.055555555555555546,11.111111111111109,0)" xlink:href="#aL"/><use transform="matrix(0.055555555555555546,0,0,0.055555555555555546,22.222222222222218,0)" xlink:href="#aU"/><use transform="matrix(0.055555555555555546,0,0,0.055555555555555546,26.611111111111107,0)" xlink:href="#aY"/></g><g id="l"><use transform="matrix(0.055555555555555546,0,0,0.055555555555555546,0,0)" xlink:href="#aN"/><use transform="matrix(0.055555555555555546,0,0,0.055555555555555546,5.5555555555555545,0)" xlink:href="#aS"/><use transform="matrix(0.055555555555555546,0,0,0.055555555555555546,16.666666666666664,0)" xlink:href="#aM"/></g><path fill="#fff" d="M108 0H70L1-190h34L89-25l56-165h34" id="bc"/><g id="m"><use transform="matrix(0.055555555555555546,0,0,0.055555555555555546,0,0)" xlink:href="#bc"/><use transform="matrix(0.055555555555555546,0,0,0.055555555555555546,9.999999999999998,0)" xlink:href="#aQ"/><use transform="matrix(0.055555555555555546,0,0,0.055555555555555546,21.111111111111107,0)" xlink:href="#aU"/><use transform="matrix(0.055555555555555546,0,0,0.055555555555555546,25.499999999999996,0)" xlink:href="#aT"/><use transform="matrix(0.055555555555555546,0,0,0.055555555555555546,29.888888888888882,0)" xlink:href="#aV"/><use transform="matrix(0.055555555555555546,0,0,0.055555555555555546,40.99999999999999,0)" xlink:href="#aQ"/><use transform="matrix(0.055555555555555546,0,0,0.055555555555555546,52.1111111111111,0)" xlink:href="#aN"/><use transform="matrix(0.055555555555555546,0,0,0.055555555555555546,57.66666666666666,0)" xlink:href="#aW"/><use transform="matrix(0.055555555555555546,0,0,0.055555555555555546,68.77777777777777,0)" xlink:href="#ba"/></g><path fill="#fff" d="M115-194c55 1 70 41 70 98S169 2 115 4C84 4 66-9 55-30l1 105H24l-1-265h31l2 30c10-21 28-34 59-34zm-8 174c40 0 45-34 45-75s-6-73-45-74c-42 0-51 32-51 76 0 43 10 73 51 73" id="bd"/><g id="n"><use transform="matrix(0.055555555555555546,0,0,0.055555555555555546,0,0)" xlink:href="#aW"/><use transform="matrix(0.055555555555555546,0,0,0.055555555555555546,11.111111111111109,0)" xlink:href="#bd"/><use transform="matrix(0.055555555555555546,0,0,0.055555555555555546,22.222222222222218,0)" xlink:href="#aM"/><use transform="matrix(0.055555555555555546,0,0,0.055555555555555546,33.33333333333333,0)" xlink:href="#ba"/><use transform="matrix(0.055555555555555546,0,0,0.055555555555555546,39.944444444444436,0)" xlink:href="#aQ"/><use transform="matrix(0.055555555555555546,0,0,0.055555555555555546,51.05555555555554,0)" xlink:href="#aN"/><use transform="matrix(0.055555555555555546,0,0,0.055555555555555546,56.6111111111111,0)" xlink:href="#aT"/><use transform="matrix(0.055555555555555546,0,0,0.055555555555555546,60.999999999999986,0)" xlink:href="#aW"/><use transform="matrix(0.055555555555555546,0,0,0.055555555555555546,72.1111111111111,0)" xlink:href="#aL"/><use transform="matrix(0.055555555555555546,0,0,0.055555555555555546,83.22222222222221,0)" xlink:href="#aI"/></g><path fill="#fff" d="M206 0h-36l-40-164L89 0H53L-1-190h32L70-26l43-164h34l41 164 42-164h31" id="be"/><g id="o"><use transform="matrix(0.055555555555555546,0,0,0.055555555555555546,0,0)" xlink:href="#be"/><use transform="matrix(0.055555555555555546,0,0,0.055555555555555546,14.388888888888886,0)" xlink:href="#aT"/><use transform="matrix(0.055555555555555546,0,0,0.055555555555555546,18.777777777777775,0)" xlink:href="#aN"/><use transform="matrix(0.055555555555555546,0,0,0.055555555555555546,24.33333333333333,0)" xlink:href="#aS"/></g><g id="p"><use transform="matrix(0.055555555555555546,0,0,0.055555555555555546,0,0)" xlink:href="#aN"/><use transform="matrix(0.055555555555555546,0,0,0.055555555555555546,5.5555555555555545,0)" xlink:href="#aS"/><use transform="matrix(0.055555555555555546,0,0,0.055555555555555546,16.666666666666664,0)" xlink:href="#aM"/></g><path fill="#fff" d="M210-169c-67 3-38 105-44 169h-31v-121c0-29-5-50-35-48C34-165 62-65 56 0H25l-1-190h30c1 10-1 24 2 32 10-44 99-50 107 0 11-21 27-35 58-36 85-2 47 119 55 194h-31v-121c0-29-5-49-35-48" id="bf"/><g id="q"><use transform="matrix(0.055555555555555546,0,0,0.055555555555555546,0,0)" xlink:href="#aR"/><use transform="matrix(0.055555555555555546,0,0,0.055555555555555546,9.999999999999998,0)" xlink:href="#aW"/><use transform="matrix(0.055555555555555546,0,0,0.055555555555555546,21.111111111111107,0)" xlink:href="#bf"/><use transform="matrix(0.055555555555555546,0,0,0.055555555555555546,37.722222222222214,0)" xlink:href="#bd"/><use transform="matrix(0.055555555555555546,0,0,0.055555555555555546,48.83333333333332,0)" xlink:href="#ba"/><use transform="matrix(0.055555555555555546,0,0,0.055555555555555546,55.44444444444443,0)" xlink:href="#aW"/><use transform="matrix(0.055555555555555546,0,0,0.055555555555555546,66.55555555555554,0)" xlink:href="#bf"/><use transform="matrix(0.055555555555555546,0,0,0.055555555555555546,83.16666666666666,0)" xlink:href="#aT"/><use transform="matrix(0.055555555555555546,0,0,0.055555555555555546,87.55555555555554,0)" xlink:href="#aI"/><use transform="matrix(0.055555555555555546,0,0,0.055555555555555546,97.55555555555554,0)" xlink:href="#aM"/><use transform="matrix(0.055555555555555546,0,0,0.055555555555555546,108.66666666666666,0)" xlink:href="#aV"/></g><g id="r"><use transform="matrix(0.055555555555555546,0,0,0.055555555555555546,0,0)" xlink:href="#aR"/><use transform="matrix(0.055555555555555546,0,0,0.055555555555555546,9.999999999999998,0)" xlink:href="#aS"/><use transform="matrix(0.055555555555555546,0,0,0.055555555555555546,21.111111111111107,0)" xlink:href="#aT"/><use transform="matrix(0.055555555555555546,0,0,0.055555555555555546,25.499999999999996,0)" xlink:href="#aU"/><use transform="matrix(0.055555555555555546,0,0,0.055555555555555546,29.888888888888882,0)" xlink:href="#aV"/></g><g id="s"><use transform="matrix(0.055555555555555546,0,0,0.055555555555555546,0,0)" xlink:href="#aS"/><use transform="matrix(0.055555555555555546,0,0,0.055555555555555546,11.111111111111109,0)" xlink:href="#aW"/><use transform="matrix(0.055555555555555546,0,0,0.055555555555555546,22.222222222222218,0)" xlink:href="#aN"/><use transform="matrix(0.055555555555555546,0,0,0.055555555555555546,27.77777777777777,0)" xlink:href="#aX"/><use transform="matrix(0.055555555555555546,0,0,0.055555555555555546,37.77777777777777,0)" xlink:href="#aM"/><use transform="matrix(0.055555555555555546,0,0,0.055555555555555546,48.88888888888888,0)" xlink:href="#aY"/></g><g id="t"><use transform="matrix(0.055555555555555546,0,0,0.055555555555555546,0,0)" xlink:href="#aQ"/><use transform="matrix(0.055555555555555546,0,0,0.055555555555555546,11.111111111111109,0)" xlink:href="#ba"/><use transform="matrix(0.055555555555555546,0,0,0.055555555555555546,17.722222222222218,0)" xlink:href="#aM"/></g><g id="u"><use transform="matrix(0.055555555555555546,0,0,0.055555555555555546,0,0)" xlink:href="#aQ"/><use transform="matrix(0.055555555555555546,0,0,0.055555555555555546,11.111111111111109,0)" xlink:href="#aN"/></g><g id="v"><use transform="matrix(0.055555555555555546,0,0,0.055555555555555546,0,0)" xlink:href="#ba"/><use transform="matrix(0.055555555555555546,0,0,0.055555555555555546,6.61111111111111,0)" xlink:href="#aT"/><use transform="matrix(0.055555555555555546,0,0,0.055555555555555546,10.999999999999998,0)" xlink:href="#aI"/><use transform="matrix(0.055555555555555546,0,0,0.055555555555555546,20.999999999999996,0)" xlink:href="#aX"/></g><path fill="#fff" d="M8 0l10-54h51L59 0H8" id="bg"/><use transform="matrix(0.07407407407407404,0,0,0.07407407407407404,0,0)" xlink:href="#bg" id="w"/><use transform="matrix(0.07407407407407404,0,0,0.07407407407407404,0,0)" xlink:href="#bg" id="x"/><use transform="matrix(0.07407407407407404,0,0,0.07407407407407404,0,0)" xlink:href="#bg" id="y"/><path fill="#fff" d="M212-179c-10-28-35-45-73-45-59 0-87 40-87 99 0 60 29 101 89 101 43 0 62-24 78-52l27 14C228-24 195 4 139 4 59 4 22-46 18-125c-6-104 99-153 187-111 19 9 31 26 39 46" id="bh"/><g id="z"><use transform="matrix(0.06172839506172839,0,0,0.06172839506172839,0,0)" xlink:href="#bh"/><use transform="matrix(0.06172839506172839,0,0,0.06172839506172839,15.987654320987653,0)" xlink:href="#aS"/><use transform="matrix(0.06172839506172839,0,0,0.06172839506172839,28.333333333333332,0)" xlink:href="#aT"/><use transform="matrix(0.06172839506172839,0,0,0.06172839506172839,33.20987654320987,0)" xlink:href="#aU"/><use transform="matrix(0.06172839506172839,0,0,0.06172839506172839,38.08641975308642,0)" xlink:href="#aV"/></g><g id="A"><use transform="matrix(0.06172839506172839,0,0,0.06172839506172839,0,0)" xlink:href="#aS"/><use transform="matrix(0.06172839506172839,0,0,0.06172839506172839,12.345679012345679,0)" xlink:href="#aW"/><use transform="matrix(0.06172839506172839,0,0,0.06172839506172839,24.691358024691358,0)" xlink:href="#aN"/><use transform="matrix(0.06172839506172839,0,0,0.06172839506172839,30.864197530864196,0)" xlink:href="#aX"/><use transform="matrix(0.06172839506172839,0,0,0.06172839506172839,41.9753086419753,0)" xlink:href="#aM"/><use transform="matrix(0.06172839506172839,0,0,0.06172839506172839,54.32098765432098,0)" xlink:href="#aY"/></g><g id="B"><use transform="matrix(0.055555555555555546,0,0,0.055555555555555546,0,0)" xlink:href="#aS"/><use transform="matrix(0.055555555555555546,0,0,0.055555555555555546,11.111111111111109,0)" xlink:href="#aW"/><use transform="matrix(0.055555555555555546,0,0,0.055555555555555546,22.222222222222218,0)" xlink:href="#aN"/><use transform="matrix(0.055555555555555546,0,0,0.055555555555555546,27.77777777777777,0)" xlink:href="#aX"/><use transform="matrix(0.055555555555555546,0,0,0.055555555555555546,37.77777777777777,0)" xlink:href="#aM"/><use transform="matrix(0.055555555555555546,0,0,0.055555555555555546,48.88888888888888,0)" xlink:href="#aY"/><use transform="matrix(0.055555555555555546,0,0,0.055555555555555546,58.88888888888888,0)" xlink:href="#aI"/></g><path fill="#fff" d="M101-234c-31-9-42 10-38 44h38v23H63V0H32v-167H5v-23h27c-7-52 17-82 69-68v24" id="bi"/><g id="C"><use transform="matrix(0.055555555555555546,0,0,0.055555555555555546,0,0)" xlink:href="#aW"/><use transform="matrix(0.055555555555555546,0,0,0.055555555555555546,11.111111111111109,0)" xlink:href="#bi"/></g><g id="D"><use transform="matrix(0.055555555555555546,0,0,0.055555555555555546,0,0)" xlink:href="#aW"/><use transform="matrix(0.055555555555555546,0,0,0.055555555555555546,11.111111111111109,0)" xlink:href="#aN"/><use transform="matrix(0.055555555555555546,0,0,0.055555555555555546,16.666666666666664,0)" xlink:href="#aS"/><use transform="matrix(0.055555555555555546,0,0,0.055555555555555546,27.77777777777777,0)" xlink:href="#aM"/><use transform="matrix(0.055555555555555546,0,0,0.055555555555555546,38.88888888888888,0)" xlink:href="#ba"/></g><g id="E"><use transform="matrix(0.055555555555555546,0,0,0.055555555555555546,0,0)" xlink:href="#bc"/><use transform="matrix(0.055555555555555546,0,0,0.055555555555555546,9.999999999999998,0)" xlink:href="#aQ"/><use transform="matrix(0.055555555555555546,0,0,0.055555555555555546,21.111111111111107,0)" xlink:href="#aU"/><use transform="matrix(0.055555555555555546,0,0,0.055555555555555546,25.499999999999996,0)" xlink:href="#aT"/><use transform="matrix(0.055555555555555546,0,0,0.055555555555555546,29.888888888888882,0)" xlink:href="#aV"/><use transform="matrix(0.055555555555555546,0,0,0.055555555555555546,40.99999999999999,0)" xlink:href="#aQ"/><use transform="matrix(0.055555555555555546,0,0,0.055555555555555546,52.1111111111111,0)" xlink:href="#aN"/><use transform="matrix(0.055555555555555546,0,0,0.055555555555555546,57.66666666666666,0)" xlink:href="#aW"/><use transform="matrix(0.055555555555555546,0,0,0.055555555555555546,68.77777777777777,0)" xlink:href="#ba"/><use transform="matrix(0.055555555555555546,0,0,0.055555555555555546,75.38888888888889,0)" xlink:href="#aI"/></g><path fill="#fff" d="M101-251c68 0 85 55 85 127S166 4 100 4C33 4 14-52 14-124c0-73 17-127 87-127zm-1 229c47 0 54-49 54-102s-4-102-53-102c-51 0-55 48-55 102 0 53 5 102 54 102" id="bj"/><path fill="#fff" d="M33 0v-38h34V0H33" id="bk"/><path fill="#fff" d="M155-56V0h-30v-56H8v-25l114-167h33v167h35v25h-35zm-30-156c-27 46-58 90-88 131h88v-131" id="bl"/><g id="F"><use transform="matrix(0.055555555555555546,0,0,0.055555555555555546,0,0)" xlink:href="#bj"/><use transform="matrix(0.055555555555555546,0,0,0.055555555555555546,11.111111111111109,0)" xlink:href="#bk"/><use transform="matrix(0.055555555555555546,0,0,0.055555555555555546,16.666666666666664,0)" xlink:href="#bl"/></g><path fill="#fff" d="M101-251c82-7 93 87 43 132L82-64C71-53 59-42 53-27h129V0H18c2-99 128-94 128-182 0-28-16-43-45-43s-46 15-49 41l-32-3c6-41 34-60 81-64" id="bm"/><path fill="#fff" d="M54-142c48-35 137-8 131 61C196 18 31 33 14-55l32-4c7 23 22 37 52 37 35-1 51-22 54-58 4-55-73-65-99-34H22l8-134h141v27H59" id="bn"/><g id="G"><use transform="matrix(0.055555555555555546,0,0,0.055555555555555546,0,0)" xlink:href="#bj"/><use transform="matrix(0.055555555555555546,0,0,0.055555555555555546,11.111111111111109,0)" xlink:href="#bk"/><use transform="matrix(0.055555555555555546,0,0,0.055555555555555546,16.666666666666664,0)" xlink:href="#bm"/><use transform="matrix(0.055555555555555546,0,0,0.055555555555555546,27.77777777777777,0)" xlink:href="#bn"/></g><path fill="#fff" d="M127-220V0H93v-220H8v-28h204v28h-85" id="bo"/><g id="H"><use transform="matrix(0.055555555555555546,0,0,0.055555555555555546,0,0)" xlink:href="#bo"/><use transform="matrix(0.055555555555555546,0,0,0.055555555555555546,9.944444444444443,0)" xlink:href="#aW"/><use transform="matrix(0.055555555555555546,0,0,0.055555555555555546,21.05555555555555,0)" xlink:href="#aN"/><use transform="matrix(0.055555555555555546,0,0,0.055555555555555546,26.611111111111104,0)" xlink:href="#aQ"/><use transform="matrix(0.055555555555555546,0,0,0.055555555555555546,37.722222222222214,0)" xlink:href="#aU"/></g><path fill="#fff" d="M252-156c43 0 55 33 55 80 0 46-13 78-56 78-42 0-55-33-55-78 0-48 12-80 56-80zM93 0H65l162-248h28zM13-171c-1-47 13-79 56-79s55 33 55 79-13 79-55 79c-43 0-56-33-56-79zM251-17c28 0 30-29 30-59 0-31-1-60-29-60-29 0-31 29-31 60 0 29 2 59 30 59zM69-112c27 0 28-30 29-59 0-31-1-60-29-60-29 0-30 30-30 60s2 59 30 59" id="bp"/><use transform="matrix(0.055555555555555546,0,0,0.055555555555555546,0,0)" xlink:href="#bp" id="I"/><g id="J"><use transform="matrix(0.055555555555555546,0,0,0.055555555555555546,0,0)" xlink:href="#aQ"/><use transform="matrix(0.055555555555555546,0,0,0.055555555555555546,11.111111111111109,0)" xlink:href="#aU"/><use transform="matrix(0.055555555555555546,0,0,0.055555555555555546,15.499999999999996,0)" xlink:href="#aU"/><use transform="matrix(0.055555555555555546,0,0,0.055555555555555546,19.888888888888886,0)" xlink:href="#aW"/><use transform="matrix(0.055555555555555546,0,0,0.055555555555555546,30.999999999999993,0)" xlink:href="#aR"/><use transform="matrix(0.055555555555555546,0,0,0.055555555555555546,40.99999999999999,0)" xlink:href="#aQ"/><use transform="matrix(0.055555555555555546,0,0,0.055555555555555546,52.1111111111111,0)" xlink:href="#aN"/><use transform="matrix(0.055555555555555546,0,0,0.055555555555555546,57.66666666666666,0)" xlink:href="#aT"/><use transform="matrix(0.055555555555555546,0,0,0.055555555555555546,62.05555555555554,0)" xlink:href="#aW"/><use transform="matrix(0.055555555555555546,0,0,0.055555555555555546,73.16666666666666,0)" xlink:href="#aL"/></g><g id="K"><use transform="matrix(0.055555555555555546,0,0,0.055555555555555546,0,0)" xlink:href="#aW"/><use transform="matrix(0.055555555555555546,0,0,0.055555555555555546,11.111111111111109,0)" xlink:href="#bi"/></g><g id="L"><use transform="matrix(0.055555555555555546,0,0,0.055555555555555546,0,0)" xlink:href="#bd"/><use transform="matrix(0.055555555555555546,0,0,0.055555555555555546,11.111111111111109,0)" xlink:href="#aQ"/><use transform="matrix(0.055555555555555546,0,0,0.055555555555555546,22.222222222222218,0)" xlink:href="#ba"/><use transform="matrix(0.055555555555555546,0,0,0.055555555555555546,28.83333333333333,0)" xlink:href="#aM"/><use transform="matrix(0.055555555555555546,0,0,0.055555555555555546,39.944444444444436,0)" xlink:href="#aL"/><use transform="matrix(0.055555555555555546,0,0,0.055555555555555546,51.05555555555554,0)" xlink:href="#aN"/></g><path fill="#fff" d="M47-170H22l-4-78h33" id="bq"/><g id="M"><use transform="matrix(0.055555555555555546,0,0,0.055555555555555546,0,0)" xlink:href="#aS"/><use transform="matrix(0.055555555555555546,0,0,0.055555555555555546,11.111111111111109,0)" xlink:href="#aW"/><use transform="matrix(0.055555555555555546,0,0,0.055555555555555546,22.222222222222218,0)" xlink:href="#aN"/><use transform="matrix(0.055555555555555546,0,0,0.055555555555555546,27.77777777777777,0)" xlink:href="#aX"/><use transform="matrix(0.055555555555555546,0,0,0.055555555555555546,37.77777777777777,0)" xlink:href="#aM"/><use transform="matrix(0.055555555555555546,0,0,0.055555555555555546,48.88888888888888,0)" xlink:href="#aY"/><use transform="matrix(0.055555555555555546,0,0,0.055555555555555546,58.88888888888888,0)" xlink:href="#bq"/><use transform="matrix(0.055555555555555546,0,0,0.055555555555555546,62.66666666666666,0)" xlink:href="#aI"/></g><g id="N"><use transform="matrix(0.055555555555555546,0,0,0.055555555555555546,0,0)" xlink:href="#aI"/><use transform="matrix(0.055555555555555546,0,0,0.055555555555555546,9.999999999999998,0)" xlink:href="#aN"/><use transform="matrix(0.055555555555555546,0,0,0.055555555555555546,15.555555555555554,0)" xlink:href="#aQ"/><use transform="matrix(0.055555555555555546,0,0,0.055555555555555546,26.666666666666664,0)" xlink:href="#aX"/><use transform="matrix(0.055555555555555546,0,0,0.055555555555555546,36.666666666666664,0)" xlink:href="#aM"/></g><g id="O"><use transform="matrix(0.055555555555555546,0,0,0.055555555555555546,0,0)" xlink:href="#aN"/><use transform="matrix(0.055555555555555546,0,0,0.055555555555555546,5.5555555555555545,0)" xlink:href="#aW"/></g><g id="P"><use transform="matrix(0.055555555555555546,0,0,0.055555555555555546,0,0)" xlink:href="#aN"/><use transform="matrix(0.055555555555555546,0,0,0.055555555555555546,5.5555555555555545,0)" xlink:href="#aS"/><use transform="matrix(0.055555555555555546,0,0,0.055555555555555546,16.666666666666664,0)" xlink:href="#aM"/></g><g id="Q"><use transform="matrix(0.055555555555555546,0,0,0.055555555555555546,0,0)" xlink:href="#aR"/><use transform="matrix(0.055555555555555546,0,0,0.055555555555555546,9.999999999999998,0)" xlink:href="#aS"/><use transform="matrix(0.055555555555555546,0,0,0.055555555555555546,21.111111111111107,0)" xlink:href="#aT"/><use transform="matrix(0.055555555555555546,0,0,0.055555555555555546,25.499999999999996,0)" xlink:href="#aU"/><use transform="matrix(0.055555555555555546,0,0,0.055555555555555546,29.888888888888882,0)" xlink:href="#aV"/></g><g id="R"><use transform="matrix(0.055555555555555546,0,0,0.055555555555555546,0,0)" xlink:href="#aS"/><use transform="matrix(0.055555555555555546,0,0,0.055555555555555546,11.111111111111109,0)" xlink:href="#aW"/><use transform="matrix(0.055555555555555546,0,0,0.055555555555555546,22.222222222222218,0)" xlink:href="#aN"/><use transform="matrix(0.055555555555555546,0,0,0.055555555555555546,27.77777777777777,0)" xlink:href="#aX"/><use transform="matrix(0.055555555555555546,0,0,0.055555555555555546,37.77777777777777,0)" xlink:href="#aM"/><use transform="matrix(0.055555555555555546,0,0,0.055555555555555546,48.88888888888888,0)" xlink:href="#aY"/><use transform="matrix(0.055555555555555546,0,0,0.055555555555555546,58.88888888888888,0)" xlink:href="#aI"/></g><g id="S"><use transform="matrix(0.055555555555555546,0,0,0.055555555555555546,0,0)" xlink:href="#aT"/><use transform="matrix(0.055555555555555546,0,0,0.055555555555555546,4.388888888888888,0)" xlink:href="#aL"/></g><use transform="matrix(0.055555555555555546,0,0,0.055555555555555546,0,0)" xlink:href="#aQ" id="T"/><g id="U"><use transform="matrix(0.055555555555555546,0,0,0.055555555555555546,0,0)" xlink:href="#aI"/><use transform="matrix(0.055555555555555546,0,0,0.055555555555555546,9.999999999999998,0)" xlink:href="#aJ"/><use transform="matrix(0.055555555555555546,0,0,0.055555555555555546,21.111111111111107,0)" xlink:href="#aK"/><use transform="matrix(0.055555555555555546,0,0,0.055555555555555546,32.222222222222214,0)" xlink:href="#aL"/><use transform="matrix(0.055555555555555546,0,0,0.055555555555555546,43.33333333333332,0)" xlink:href="#aM"/><use transform="matrix(0.055555555555555546,0,0,0.055555555555555546,54.44444444444443,0)" xlink:href="#aN"/></g><g id="V"><use transform="matrix(0.055555555555555546,0,0,0.055555555555555546,0,0)" xlink:href="#bf"/><use transform="matrix(0.055555555555555546,0,0,0.055555555555555546,16.611111111111107,0)" xlink:href="#aJ"/><use transform="matrix(0.055555555555555546,0,0,0.055555555555555546,27.722222222222214,0)" xlink:href="#aI"/><use transform="matrix(0.055555555555555546,0,0,0.055555555555555546,37.722222222222214,0)" xlink:href="#aN"/></g><g id="W"><use transform="matrix(0.055555555555555546,0,0,0.055555555555555546,0,0)" xlink:href="#aL"/><use transform="matrix(0.055555555555555546,0,0,0.055555555555555546,11.111111111111109,0)" xlink:href="#aW"/><use transform="matrix(0.055555555555555546,0,0,0.055555555555555546,22.222222222222218,0)" xlink:href="#aN"/></g><path fill="#fff" d="M141 0L90-78 38 0H4l68-98-65-92h35l48 74 47-74h35l-64 92 68 98h-35" id="br"/><g id="X"><use transform="matrix(0.055555555555555546,0,0,0.055555555555555546,0,0)" xlink:href="#aM"/><use transform="matrix(0.055555555555555546,0,0,0.055555555555555546,11.111111111111109,0)" xlink:href="#br"/><use transform="matrix(0.055555555555555546,0,0,0.055555555555555546,21.111111111111107,0)" xlink:href="#aR"/><use transform="matrix(0.055555555555555546,0,0,0.055555555555555546,31.111111111111107,0)" xlink:href="#aM"/><use transform="matrix(0.055555555555555546,0,0,0.055555555555555546,42.222222222222214,0)" xlink:href="#aM"/><use transform="matrix(0.055555555555555546,0,0,0.055555555555555546,53.33333333333332,0)" xlink:href="#aV"/></g><g id="Y"><use transform="matrix(0.055555555555555546,0,0,0.055555555555555546,0,0)" xlink:href="#aO"/><use transform="matrix(0.055555555555555546,0,0,0.055555555555555546,11.111111111111109,0)" xlink:href="#bk"/><use transform="matrix(0.055555555555555546,0,0,0.055555555555555546,16.666666666666664,0)" xlink:href="#bj"/></g><path fill="#fff" d="M197 0v-115H63V0H30v-248h33v105h134v-105h34V0h-34" id="bs"/><g id="Z"><use transform="matrix(0.06172839506172839,0,0,0.06172839506172839,0,0)" xlink:href="#bs"/><use transform="matrix(0.06172839506172839,0,0,0.06172839506172839,15.987654320987653,0)" xlink:href="#aW"/><use transform="matrix(0.06172839506172839,0,0,0.06172839506172839,28.333333333333332,0)" xlink:href="#aN"/><use transform="matrix(0.06172839506172839,0,0,0.06172839506172839,34.50617283950617,0)" xlink:href="#aX"/><use transform="matrix(0.06172839506172839,0,0,0.06172839506172839,45.61728395061728,0)" xlink:href="#aM"/><use transform="matrix(0.06172839506172839,0,0,0.06172839506172839,57.962962962962955,0)" xlink:href="#aY"/></g><g id="aa"><use transform="matrix(0.055555555555555546,0,0,0.055555555555555546,0,0)" xlink:href="#aN"/><use transform="matrix(0.055555555555555546,0,0,0.055555555555555546,5.5555555555555545,0)" xlink:href="#aS"/><use transform="matrix(0.055555555555555546,0,0,0.055555555555555546,16.666666666666664,0)" xlink:href="#aT"/><use transform="matrix(0.055555555555555546,0,0,0.055555555555555546,21.055555555555554,0)" xlink:href="#aI"/></g><g id="ab"><use transform="matrix(0.055555555555555546,0,0,0.055555555555555546,0,0)" xlink:href="#bc"/><use transform="matrix(0.055555555555555546,0,0,0.055555555555555546,9.999999999999998,0)" xlink:href="#aQ"/><use transform="matrix(0.055555555555555546,0,0,0.055555555555555546,21.111111111111107,0)" xlink:href="#aU"/><use transform="matrix(0.055555555555555546,0,0,0.055555555555555546,25.499999999999996,0)" xlink:href="#aT"/><use transform="matrix(0.055555555555555546,0,0,0.055555555555555546,29.888888888888882,0)" xlink:href="#aV"/><use transform="matrix(0.055555555555555546,0,0,0.055555555555555546,40.99999999999999,0)" xlink:href="#aQ"/><use transform="matrix(0.055555555555555546,0,0,0.055555555555555546,52.1111111111111,0)" xlink:href="#aN"/><use transform="matrix(0.055555555555555546,0,0,0.055555555555555546,57.66666666666666,0)" xlink:href="#aW"/><use transform="matrix(0.055555555555555546,0,0,0.055555555555555546,68.77777777777777,0)" xlink:href="#ba"/><use transform="matrix(0.055555555555555546,0,0,0.055555555555555546,75.38888888888889,0)" xlink:href="#bq"/><use transform="matrix(0.055555555555555546,0,0,0.055555555555555546,79.16666666666666,0)" xlink:href="#aI"/></g><path fill="#fff" d="M177-190C167-65 218 103 67 71c-23-6-38-20-44-43l32-5c15 47 100 32 89-28v-30C133-14 115 1 83 1 29 1 15-40 15-95c0-56 16-97 71-98 29-1 48 16 59 35 1-10 0-23 2-32h30zM94-22c36 0 50-32 50-73 0-42-14-75-50-75-39 0-46 34-46 75s6 73 46 73" id="bt"/><g id="ac"><use transform="matrix(0.055555555555555546,0,0,0.055555555555555546,0,0)" xlink:href="#aV"/><use transform="matrix(0.055555555555555546,0,0,0.055555555555555546,11.111111111111109,0)" xlink:href="#aM"/><use transform="matrix(0.055555555555555546,0,0,0.055555555555555546,22.222222222222218,0)" xlink:href="#aU"/><use transform="matrix(0.055555555555555546,0,0,0.055555555555555546,26.611111111111107,0)" xlink:href="#aM"/><use transform="matrix(0.055555555555555546,0,0,0.055555555555555546,37.722222222222214,0)" xlink:href="#bt"/><use transform="matrix(0.055555555555555546,0,0,0.055555555555555546,48.83333333333332,0)" xlink:href="#aQ"/><use transform="matrix(0.055555555555555546,0,0,0.055555555555555546,59.944444444444436,0)" xlink:href="#aN"/><use transform="matrix(0.055555555555555546,0,0,0.055555555555555546,65.49999999999999,0)" xlink:href="#aM"/></g><g id="ad"><use transform="matrix(0.055555555555555546,0,0,0.055555555555555546,0,0)" xlink:href="#aS"/><use transform="matrix(0.055555555555555546,0,0,0.055555555555555546,11.111111111111109,0)" xlink:href="#aW"/><use transform="matrix(0.055555555555555546,0,0,0.055555555555555546,22.222222222222218,0)" xlink:href="#aN"/><use transform="matrix(0.055555555555555546,0,0,0.055555555555555546,27.77777777777777,0)" xlink:href="#aX"/><use transform="matrix(0.055555555555555546,0,0,0.055555555555555546,37.77777777777777,0)" xlink:href="#aM"/><use transform="matrix(0.055555555555555546,0,0,0.055555555555555546,48.88888888888888,0)" xlink:href="#aY"/></g><path fill="#fff" d="M30-248c118-7 216 8 213 122C240-48 200 0 122 0H30v-248zM63-27c89 8 146-16 146-99s-60-101-146-95v194" id="bu"/><g id="ag"><use transform="matrix(0.055555555555555546,0,0,0.055555555555555546,0,0)" xlink:href="#bu"/><use transform="matrix(0.055555555555555546,0,0,0.055555555555555546,14.388888888888886,0)" xlink:href="#aM"/><use transform="matrix(0.055555555555555546,0,0,0.055555555555555546,25.499999999999993,0)" xlink:href="#aU"/><use transform="matrix(0.055555555555555546,0,0,0.055555555555555546,29.888888888888882,0)" xlink:href="#aM"/><use transform="matrix(0.055555555555555546,0,0,0.055555555555555546,40.99999999999999,0)" xlink:href="#bt"/><use transform="matrix(0.055555555555555546,0,0,0.055555555555555546,52.1111111111111,0)" xlink:href="#aQ"/><use transform="matrix(0.055555555555555546,0,0,0.055555555555555546,63.222222222222214,0)" xlink:href="#aN"/><use transform="matrix(0.055555555555555546,0,0,0.055555555555555546,68.77777777777776,0)" xlink:href="#aM"/><use transform="matrix(0.055555555555555546,0,0,0.055555555555555546,79.88888888888887,0)" xlink:href="#aV"/></g><g id="ah"><use transform="matrix(0.055555555555555546,0,0,0.055555555555555546,0,0)" xlink:href="#aI"/><use transform="matrix(0.055555555555555546,0,0,0.055555555555555546,9.999999999999998,0)" xlink:href="#aN"/><use transform="matrix(0.055555555555555546,0,0,0.055555555555555546,15.555555555555554,0)" xlink:href="#aQ"/><use transform="matrix(0.055555555555555546,0,0,0.055555555555555546,26.666666666666664,0)" xlink:href="#aX"/><use transform="matrix(0.055555555555555546,0,0,0.055555555555555546,36.666666666666664,0)" xlink:href="#aM"/></g><g id="ai"><use transform="matrix(0.055555555555555546,0,0,0.055555555555555546,0,0)" xlink:href="#bi"/><use transform="matrix(0.055555555555555546,0,0,0.055555555555555546,5.5555555555555545,0)" xlink:href="#ba"/><use transform="matrix(0.055555555555555546,0,0,0.055555555555555546,12.166666666666664,0)" xlink:href="#aW"/><use transform="matrix(0.055555555555555546,0,0,0.055555555555555546,23.27777777777777,0)" xlink:href="#bf"/></g><g id="aj"><use transform="matrix(0.055555555555555546,0,0,0.055555555555555546,0,0)" xlink:href="#aW"/><use transform="matrix(0.055555555555555546,0,0,0.055555555555555546,11.111111111111109,0)" xlink:href="#aN"/><use transform="matrix(0.055555555555555546,0,0,0.055555555555555546,16.666666666666664,0)" xlink:href="#aS"/><use transform="matrix(0.055555555555555546,0,0,0.055555555555555546,27.77777777777777,0)" xlink:href="#aM"/><use transform="matrix(0.055555555555555546,0,0,0.055555555555555546,38.88888888888888,0)" xlink:href="#ba"/></g><g id="ak"><use transform="matrix(0.055555555555555546,0,0,0.055555555555555546,0,0)" xlink:href="#aR"/><use transform="matrix(0.055555555555555546,0,0,0.055555555555555546,9.999999999999998,0)" xlink:href="#aW"/><use transform="matrix(0.055555555555555546,0,0,0.055555555555555546,21.111111111111107,0)" xlink:href="#aU"/><use transform="matrix(0.055555555555555546,0,0,0.055555555555555546,25.499999999999996,0)" xlink:href="#aV"/><use transform="matrix(0.055555555555555546,0,0,0.055555555555555546,36.61111111111111,0)" xlink:href="#aX"/><use transform="matrix(0.055555555555555546,0,0,0.055555555555555546,46.61111111111111,0)" xlink:href="#aM"/><use transform="matrix(0.055555555555555546,0,0,0.055555555555555546,57.722222222222214,0)" xlink:href="#aY"/><use transform="matrix(0.055555555555555546,0,0,0.055555555555555546,67.72222222222221,0)" xlink:href="#aI"/></g><path fill="#fff" d="M118-107v75H92v-75H18v-26h74v-75h26v75h74v26h-74" id="bv"/><use transform="matrix(0.055555555555555546,0,0,0.055555555555555546,0,0)" xlink:href="#bv" id="al"/><g id="am"><use transform="matrix(0.055555555555555546,0,0,0.055555555555555546,0,0)" xlink:href="#bc"/><use transform="matrix(0.055555555555555546,0,0,0.055555555555555546,9.999999999999998,0)" xlink:href="#aQ"/><use transform="matrix(0.055555555555555546,0,0,0.055555555555555546,21.111111111111107,0)" xlink:href="#aU"/><use transform="matrix(0.055555555555555546,0,0,0.055555555555555546,25.499999999999996,0)" xlink:href="#aT"/><use transform="matrix(0.055555555555555546,0,0,0.055555555555555546,29.888888888888882,0)" xlink:href="#aV"/><use transform="matrix(0.055555555555555546,0,0,0.055555555555555546,40.99999999999999,0)" xlink:href="#aQ"/><use transform="matrix(0.055555555555555546,0,0,0.055555555555555546,52.1111111111111,0)" xlink:href="#aN"/><use transform="matrix(0.055555555555555546,0,0,0.055555555555555546,57.66666666666666,0)" xlink:href="#aW"/><use transform="matrix(0.055555555555555546,0,0,0.055555555555555546,68.77777777777777,0)" xlink:href="#ba"/><use transform="matrix(0.055555555555555546,0,0,0.055555555555555546,75.38888888888889,0)" xlink:href="#bq"/><use transform="matrix(0.055555555555555546,0,0,0.055555555555555546,79.16666666666666,0)" xlink:href="#aI"/></g><g id="an"><use transform="matrix(0.055555555555555546,0,0,0.055555555555555546,0,0)" xlink:href="#aW"/><use transform="matrix(0.055555555555555546,0,0,0.055555555555555546,11.111111111111109,0)" xlink:href="#be"/><use transform="matrix(0.055555555555555546,0,0,0.055555555555555546,25.499999999999993,0)" xlink:href="#aL"/></g><g id="ao"><use transform="matrix(0.055555555555555546,0,0,0.055555555555555546,0,0)" xlink:href="#aI"/><use transform="matrix(0.055555555555555546,0,0,0.055555555555555546,9.999999999999998,0)" xlink:href="#aN"/><use transform="matrix(0.055555555555555546,0,0,0.055555555555555546,15.555555555555554,0)" xlink:href="#aQ"/><use transform="matrix(0.055555555555555546,0,0,0.055555555555555546,26.666666666666664,0)" xlink:href="#aX"/><use transform="matrix(0.055555555555555546,0,0,0.055555555555555546,36.666666666666664,0)" xlink:href="#aM"/></g><g id="ap"><use transform="matrix(0.055555555555555546,0,0,0.055555555555555546,0,0)" xlink:href="#bi"/><use transform="matrix(0.055555555555555546,0,0,0.055555555555555546,5.5555555555555545,0)" xlink:href="#ba"/><use transform="matrix(0.055555555555555546,0,0,0.055555555555555546,12.166666666666664,0)" xlink:href="#aW"/><use transform="matrix(0.055555555555555546,0,0,0.055555555555555546,23.27777777777777,0)" xlink:href="#bf"/></g><g id="aq"><use transform="matrix(0.055555555555555546,0,0,0.055555555555555546,0,0)" xlink:href="#aR"/><use transform="matrix(0.055555555555555546,0,0,0.055555555555555546,9.999999999999998,0)" xlink:href="#aW"/><use transform="matrix(0.055555555555555546,0,0,0.055555555555555546,21.111111111111107,0)" xlink:href="#aU"/><use transform="matrix(0.055555555555555546,0,0,0.055555555555555546,25.499999999999996,0)" xlink:href="#aV"/><use transform="matrix(0.055555555555555546,0,0,0.055555555555555546,36.61111111111111,0)" xlink:href="#aX"/><use transform="matrix(0.055555555555555546,0,0,0.055555555555555546,46.61111111111111,0)" xlink:href="#aM"/><use transform="matrix(0.055555555555555546,0,0,0.055555555555555546,57.722222222222214,0)" xlink:href="#aY"/></g><g id="ar"><use transform="matrix(0.06172839506172839,0,0,0.06172839506172839,0,0)" xlink:href="#bh"/><use transform="matrix(0.06172839506172839,0,0,0.06172839506172839,15.987654320987653,0)" xlink:href="#aW"/><use transform="matrix(0.06172839506172839,0,0,0.06172839506172839,28.333333333333332,0)" xlink:href="#aU"/><use transform="matrix(0.06172839506172839,0,0,0.06172839506172839,33.20987654320987,0)" xlink:href="#aV"/><use transform="matrix(0.06172839506172839,0,0,0.06172839506172839,45.55555555555555,0)" xlink:href="#aX"/><use transform="matrix(0.06172839506172839,0,0,0.06172839506172839,56.66666666666666,0)" xlink:href="#aM"/><use transform="matrix(0.06172839506172839,0,0,0.06172839506172839,69.01234567901234,0)" xlink:href="#aY"/></g><g id="as"><use transform="matrix(0.055555555555555546,0,0,0.055555555555555546,0,0)" xlink:href="#bc"/><use transform="matrix(0.055555555555555546,0,0,0.055555555555555546,9.999999999999998,0)" xlink:href="#aQ"/><use transform="matrix(0.055555555555555546,0,0,0.055555555555555546,21.111111111111107,0)" xlink:href="#aU"/><use transform="matrix(0.055555555555555546,0,0,0.055555555555555546,25.499999999999996,0)" xlink:href="#aT"/><use transform="matrix(0.055555555555555546,0,0,0.055555555555555546,29.888888888888882,0)" xlink:href="#aV"/><use transform="matrix(0.055555555555555546,0,0,0.055555555555555546,40.99999999999999,0)" xlink:href="#aQ"/><use transform="matrix(0.055555555555555546,0,0,0.055555555555555546,52.1111111111111,0)" xlink:href="#aN"/><use transform="matrix(0.055555555555555546,0,0,0.055555555555555546,57.66666666666666,0)" xlink:href="#aW"/><use transform="matrix(0.055555555555555546,0,0,0.055555555555555546,68.77777777777777,0)" xlink:href="#ba"/><use transform="matrix(0.055555555555555546,0,0,0.055555555555555546,75.38888888888889,0)" xlink:href="#bq"/><use transform="matrix(0.055555555555555546,0,0,0.055555555555555546,79.16666666666666,0)" xlink:href="#aI"/></g><g id="at"><use transform="matrix(0.055555555555555546,0,0,0.055555555555555546,0,0)" xlink:href="#aW"/><use transform="matrix(0.055555555555555546,0,0,0.055555555555555546,11.111111111111109,0)" xlink:href="#be"/><use transform="matrix(0.055555555555555546,0,0,0.055555555555555546,25.499999999999993,0)" xlink:href="#aL"/></g><g id="au"><use transform="matrix(0.055555555555555546,0,0,0.055555555555555546,0,0)" xlink:href="#aR"/><use transform="matrix(0.055555555555555546,0,0,0.055555555555555546,9.999999999999998,0)" xlink:href="#aW"/><use transform="matrix(0.055555555555555546,0,0,0.055555555555555546,21.111111111111107,0)" xlink:href="#aU"/><use transform="matrix(0.055555555555555546,0,0,0.055555555555555546,25.499999999999996,0)" xlink:href="#aV"/><use transform="matrix(0.055555555555555546,0,0,0.055555555555555546,36.61111111111111,0)" xlink:href="#aX"/><use transform="matrix(0.055555555555555546,0,0,0.055555555555555546,46.61111111111111,0)" xlink:href="#aM"/><use transform="matrix(0.055555555555555546,0,0,0.055555555555555546,57.722222222222214,0)" xlink:href="#aY"/></g><g id="av"><use transform="matrix(0.055555555555555546,0,0,0.055555555555555546,0,0)" xlink:href="#bd"/><use transform="matrix(0.055555555555555546,0,0,0.055555555555555546,11.111111111111109,0)" xlink:href="#aQ"/><use transform="matrix(0.055555555555555546,0,0,0.055555555555555546,22.222222222222218,0)" xlink:href="#ba"/><use transform="matrix(0.055555555555555546,0,0,0.055555555555555546,28.83333333333333,0)" xlink:href="#aM"/><use transform="matrix(0.055555555555555546,0,0,0.055555555555555546,39.944444444444436,0)" xlink:href="#aL"/><use transform="matrix(0.055555555555555546,0,0,0.055555555555555546,51.05555555555554,0)" xlink:href="#aN"/></g><g id="aw"><use transform="matrix(0.055555555555555546,0,0,0.055555555555555546,0,0)" xlink:href="#ba"/><use transform="matrix(0.055555555555555546,0,0,0.055555555555555546,6.61111111111111,0)" xlink:href="#aM"/><use transform="matrix(0.055555555555555546,0,0,0.055555555555555546,17.722222222222218,0)" xlink:href="#aV"/><use transform="matrix(0.055555555555555546,0,0,0.055555555555555546,28.83333333333333,0)" xlink:href="#aJ"/><use transform="matrix(0.055555555555555546,0,0,0.055555555555555546,39.944444444444436,0)" xlink:href="#aR"/><use transform="matrix(0.055555555555555546,0,0,0.055555555555555546,49.944444444444436,0)" xlink:href="#aM"/><use transform="matrix(0.055555555555555546,0,0,0.055555555555555546,61.05555555555554,0)" xlink:href="#aV"/></g><g id="ax"><use transform="matrix(0.055555555555555546,0,0,0.055555555555555546,0,0)" xlink:href="#aM"/><use transform="matrix(0.055555555555555546,0,0,0.055555555555555546,11.111111111111109,0)" xlink:href="#br"/><use transform="matrix(0.055555555555555546,0,0,0.055555555555555546,21.111111111111107,0)" xlink:href="#bd"/><use transform="matrix(0.055555555555555546,0,0,0.055555555555555546,32.222222222222214,0)" xlink:href="#aW"/><use transform="matrix(0.055555555555555546,0,0,0.055555555555555546,43.33333333333332,0)" xlink:href="#aI"/><use transform="matrix(0.055555555555555546,0,0,0.055555555555555546,53.33333333333332,0)" xlink:href="#aJ"/><use transform="matrix(0.055555555555555546,0,0,0.055555555555555546,64.44444444444443,0)" xlink:href="#ba"/><use transform="matrix(0.055555555555555546,0,0,0.055555555555555546,71.05555555555554,0)" xlink:href="#aM"/></g><use transform="matrix(0.04938271604938272,0,0,0.04938271604938272,0,0)" xlink:href="#bg" id="ay"/><use transform="matrix(0.04938271604938272,0,0,0.04938271604938272,0,0)" xlink:href="#bg" id="az"/><use transform="matrix(0.04938271604938272,0,0,0.04938271604938272,0,0)" xlink:href="#bg" id="aA"/><path fill="#fff" d="M126-127c33 6 58 20 58 59 0 88-139 92-164 29-3-8-5-16-6-25l32-3c6 27 21 44 54 44 32 0 52-15 52-46 0-38-36-46-79-43v-28c39 1 72-4 72-42 0-27-17-43-46-43-28 0-47 15-49 41l-32-3c6-42 35-63 81-64 48-1 79 21 79 65 0 36-21 52-52 59" id="bw"/><g id="aB"><use transform="matrix(0.055555555555555546,0,0,0.055555555555555546,0,0)" xlink:href="#bj"/><use transform="matrix(0.055555555555555546,0,0,0.055555555555555546,11.111111111111109,0)" xlink:href="#bk"/><use transform="matrix(0.055555555555555546,0,0,0.055555555555555546,16.666666666666664,0)" xlink:href="#bw"/><use transform="matrix(0.055555555555555546,0,0,0.055555555555555546,27.77777777777777,0)" xlink:href="#bn"/></g><use transform="matrix(0.06172839506172839,0,0,0.06172839506172839,0,0)" xlink:href="#bn" id="aC"/><g id="aD"><use transform="matrix(0.055555555555555546,0,0,0.055555555555555546,0,0)" xlink:href="#aI"/><use transform="matrix(0.055555555555555546,0,0,0.055555555555555546,9.999999999999998,0)" xlink:href="#aJ"/><use transform="matrix(0.055555555555555546,0,0,0.055555555555555546,21.111111111111107,0)" xlink:href="#aK"/><use transform="matrix(0.055555555555555546,0,0,0.055555555555555546,32.222222222222214,0)" xlink:href="#aL"/><use transform="matrix(0.055555555555555546,0,0,0.055555555555555546,43.33333333333332,0)" xlink:href="#aM"/><use transform="matrix(0.055555555555555546,0,0,0.055555555555555546,54.44444444444443,0)" xlink:href="#aN"/></g><g id="aE"><use transform="matrix(0.055555555555555546,0,0,0.055555555555555546,0,0)" xlink:href="#aW"/><use transform="matrix(0.055555555555555546,0,0,0.055555555555555546,11.111111111111109,0)" xlink:href="#be"/><use transform="matrix(0.055555555555555546,0,0,0.055555555555555546,25.499999999999993,0)" xlink:href="#aL"/><use transform="matrix(0.055555555555555546,0,0,0.055555555555555546,36.6111111111111,0)" xlink:href="#aM"/><use transform="matrix(0.055555555555555546,0,0,0.055555555555555546,47.72222222222221,0)" xlink:href="#ba"/><use transform="matrix(0.055555555555555546,0,0,0.055555555555555546,54.333333333333314,0)" xlink:href="#bq"/><use transform="matrix(0.055555555555555546,0,0,0.055555555555555546,58.111111111111086,0)" xlink:href="#aI"/></g><g id="aF"><use transform="matrix(0.055555555555555546,0,0,0.055555555555555546,0,0)" xlink:href="#bj"/><use transform="matrix(0.055555555555555546,0,0,0.055555555555555546,11.111111111111109,0)" xlink:href="#bk"/><use transform="matrix(0.055555555555555546,0,0,0.055555555555555546,16.666666666666664,0)" xlink:href="#bm"/></g><g id="aG"><use transform="matrix(0.055555555555555546,0,0,0.055555555555555546,0,0)" xlink:href="#bj"/><use transform="matrix(0.055555555555555546,0,0,0.055555555555555546,11.111111111111109,0)" xlink:href="#bk"/><use transform="matrix(0.055555555555555546,0,0,0.055555555555555546,16.666666666666664,0)" xlink:href="#bw"/></g><g id="aH"><use transform="matrix(0.055555555555555546,0,0,0.055555555555555546,0,0)" xlink:href="#bj"/><use transform="matrix(0.055555555555555546,0,0,0.055555555555555546,11.111111111111109,0)" xlink:href="#bk"/><use transform="matrix(0.055555555555555546,0,0,0.055555555555555546,16.666666666666664,0)" xlink:href="#aO"/></g></defs></g></svg>