<svg xmlns="http://www.w3.org/2000/svg" xmlns:xlink="http://www.w3.org/1999/xlink" xmlns:lucid="lucid" width="1906.78" height="1011.5"><g transform="translate(80.5 -239.5)" lucid:page-tab-id="0_0"><path d="M565.92 640h1122.83M565.93 640h-.5" stroke="#fff" fill="none"/><path d="M1703.52 640l-14.27 4.63v-9.26z" stroke="#fff" fill="#fff"/><path d="M320.5 320h-.5M320.5 320h-.5" stroke="#fff" fill="none"/><path d="M330 310v20M340 320h-20M320 310v20" stroke="#fff" fill="#fff"/><path d="M340.5 320h-.5M340.5 320h-.5" stroke="#fff" fill="none"/><path d="M350 310v20M360 320h-20M340 310v20" stroke="#fff" fill="#fff"/><path d="M360.5 320h-.5M360.5 320h-.5" stroke="#fff" fill="none"/><path d="M370 310v20M380 320h-20M360 310v20" stroke="#fff" fill="#fff"/><path d="M380.5 320h-.5M380.5 320h-.5" stroke="#fff" fill="none"/><path d="M390 310v20M400 320h-20M380 310v20" stroke="#fff" fill="#fff"/><path d="M400.5 320h-.5M400.5 320h-.5" stroke="#fff" fill="none"/><path d="M410 310v20M420 320h-20M400 310v20" stroke="#fff" fill="#fff"/><path d="M420.5 320h-.5M420.5 320h-.5" stroke="#fff" fill="none"/><path d="M430 310v20M440 320h-20M420 310v20" stroke="#fff" fill="#fff"/><path d="M440.5 320h-.5M440.5 320h-.5" stroke="#fff" fill="none"/><path d="M450 310v20M460 320h-20M440 310v20" stroke="#fff" fill="#fff"/><path d="M460.5 320h-.5M460.5 320h-.5" stroke="#fff" fill="none"/><path d="M470 310v20M480 320h-20M460 310v20" stroke="#fff" fill="#fff"/><path d="M480.5 320h-.5M480.5 320h-.5" stroke="#fff" fill="none"/><path d="M490 310v20M500 320h-20M480 310v20" stroke="#fff" fill="#fff"/><path d="M500.5 320h-.5M500.5 320h-.5" stroke="#fff" fill="none"/><path d="M510 310v20M520 320h-20M500 310v20" stroke="#fff" fill="#fff"/><path d="M520.5 320h-.5M520.5 320h-.5" stroke="#fff" fill="none"/><path d="M530 310v20M540 320h-20M520 310v20" stroke="#fff" fill="#fff"/><path d="M540.5 320h-.5M540.5 320h-.5" stroke="#fff" fill="none"/><path d="M550 310v20M560 320h-20M540 310v20" stroke="#fff" fill="#fff"/><path d="M560.5 320h-.5M560.5 320h-.5" stroke="#fff" fill="none"/><path d="M570 310v20M580 320h-20M560 310v20" stroke="#fff" fill="#fff"/><path d="M580.5 320h-.5M580.5 320h-.5" stroke="#fff" fill="none"/><path d="M590 310v20M600 320h-20M580 310v20" stroke="#fff" fill="#fff"/><path d="M600.5 320h-.5M600.5 320h-.5" stroke="#fff" fill="none"/><path d="M610 310v20M620 320h-20M600 310v20" stroke="#fff" fill="#fff"/><path d="M620.5 320h-.5M620.5 320h-.5" stroke="#fff" fill="none"/><path d="M630 310v20M640 320h-20M620 310v20" stroke="#fff" fill="#fff"/><path d="M.5 320H0M.5 320H0" stroke="#fff" fill="none"/><path d="M10 310v20M20 320H0M0 310v20" stroke="#fff" fill="#fff"/><path d="M20.5 320H20M20.5 320H20" stroke="#fff" fill="none"/><path d="M30 310v20M40 320H20M20 310v20" stroke="#fff" fill="#fff"/><path d="M40.5 320H40M40.5 320H40" stroke="#fff" fill="none"/><path d="M50 310v20M60 320H40M40 310v20" stroke="#fff" fill="#fff"/><path d="M60.5 320H60M60.5 320H60" stroke="#fff" fill="none"/><path d="M70 310v20M80 320H60M60 310v20" stroke="#fff" fill="#fff"/><path d="M80.5 320H80M80.5 320H80" stroke="#fff" fill="none"/><path d="M90 310v20M100 320H80M80 310v20" stroke="#fff" fill="#fff"/><path d="M100.5 320h-.5M100.5 320h-.5" stroke="#fff" fill="none"/><path d="M110 310v20M120 320h-20M100 310v20" stroke="#fff" fill="#fff"/><path d="M120.5 320h-.5M120.5 320h-.5" stroke="#fff" fill="none"/><path d="M130 310v20M140 320h-20M120 310v20" stroke="#fff" fill="#fff"/><path d="M140.5 320h-.5M140.5 320h-.5" stroke="#fff" fill="none"/><path d="M150 310v20M160 320h-20M140 310v20" stroke="#fff" fill="#fff"/><path d="M160.5 320h-.5M160.5 320h-.5" stroke="#fff" fill="none"/><path d="M170 310v20M180 320h-20M160 310v20" stroke="#fff" fill="#fff"/><path d="M180.5 320h-.5M180.5 320h-.5" stroke="#fff" fill="none"/><path d="M190 310v20M200 320h-20M180 310v20" stroke="#fff" fill="#fff"/><path d="M200.5 320h-.5M200.5 320h-.5" stroke="#fff" fill="none"/><path d="M210 310v20M220 320h-20M200 310v20" stroke="#fff" fill="#fff"/><path d="M220.5 320h-.5M220.5 320h-.5" stroke="#fff" fill="none"/><path d="M230 310v20M240 320h-20M220 310v20" stroke="#fff" fill="#fff"/><path d="M240.5 320h-.5M240.5 320h-.5" stroke="#fff" fill="none"/><path d="M250 310v20M260 320h-20M240 310v20" stroke="#fff" fill="#fff"/><path d="M260.5 320h-.5M260.5 320h-.5" stroke="#fff" fill="none"/><path d="M270 310v20M280 320h-20M260 310v20" stroke="#fff" fill="#fff"/><path d="M280.5 320h-.5M280.5 320h-.5" stroke="#fff" fill="none"/><path d="M290 310v20M300 320h-20M280 310v20" stroke="#fff" fill="#fff"/><path d="M300.5 320h-.5M300.5 320h-.5" stroke="#fff" fill="none"/><path d="M310 310v20M320 320h-20M300 310v20" stroke="#fff" fill="#fff"/><path d="M960.5 320h-.5M960.5 320h-.5" stroke="#fff" fill="none"/><path d="M970 310v20M980 320h-20M960 310v20" stroke="#fff" fill="#fff"/><path d="M980.5 320h-.5M980.5 320h-.5" stroke="#fff" fill="none"/><path d="M990 310v20M1000 320h-20M980 310v20" stroke="#fff" fill="#fff"/><path d="M1000.5 320h-.5M1000.5 320h-.5" stroke="#fff" fill="none"/><path d="M1010 310v20M1020 320h-20M1000 310v20" stroke="#fff" fill="#fff"/><path d="M1020.5 320h-.5M1020.5 320h-.5" stroke="#fff" fill="none"/><path d="M1030 310v20M1040 320h-20M1020 310v20" stroke="#fff" fill="#fff"/><path d="M1040.5 320h-.5M1040.5 320h-.5" stroke="#fff" fill="none"/><path d="M1050 310v20M1060 320h-20M1040 310v20" stroke="#fff" fill="#fff"/><path d="M1060.5 320h-.5M1060.5 320h-.5" stroke="#fff" fill="none"/><path d="M1070 310v20M1080 320h-20M1060 310v20" stroke="#fff" fill="#fff"/><path d="M1080.5 320h-.5M1080.5 320h-.5" stroke="#fff" fill="none"/><path d="M1090 310v20M1100 320h-20M1080 310v20" stroke="#fff" fill="#fff"/><path d="M1100.5 320h-.5M1100.5 320h-.5" stroke="#fff" fill="none"/><path d="M1110 310v20M1120 320h-20M1100 310v20" stroke="#fff" fill="#fff"/><path d="M1120.5 320h-.5M1120.5 320h-.5" stroke="#fff" fill="none"/><path d="M1130 310v20M1140 320h-20M1120 310v20" stroke="#fff" fill="#fff"/><path d="M1140.5 320h-.5M1140.5 320h-.5" stroke="#fff" fill="none"/><path d="M1150 310v20M1160 320h-20M1140 310v20" stroke="#fff" fill="#fff"/><path d="M1160.5 320h-.5M1160.5 320h-.5" stroke="#fff" fill="none"/><path d="M1170 310v20M1180 320h-20M1160 310v20" stroke="#fff" fill="#fff"/><path d="M1180.5 320h-.5M1180.5 320h-.5" stroke="#fff" fill="none"/><path d="M1190 310v20M1200 320h-20M1180 310v20" stroke="#fff" fill="#fff"/><path d="M1200.5 320h-.5M1200.5 320h-.5" stroke="#fff" fill="none"/><path d="M1210 310v20M1220 320h-20M1200 310v20" stroke="#fff" fill="#fff"/><path d="M1220.5 320h-.5M1220.5 320h-.5" stroke="#fff" fill="none"/><path d="M1230 310v20M1240 320h-20M1220 310v20" stroke="#fff" fill="#fff"/><path d="M1240.5 320h-.5M1240.5 320h-.5" stroke="#fff" fill="none"/><path d="M1250 310v20M1260 320h-20M1240 310v20" stroke="#fff" fill="#fff"/><path d="M1260.5 320h-.5M1260.5 320h-.5" stroke="#fff" fill="none"/><path d="M1270 310v20M1280 320h-20M1260 310v20" stroke="#fff" fill="#fff"/><path d="M640.5 320h-.5M640.5 320h-.5" stroke="#fff" fill="none"/><path d="M650 310v20M660 320h-20M640 310v20" stroke="#fff" fill="#fff"/><path d="M660.5 320h-.5M660.5 320h-.5" stroke="#fff" fill="none"/><path d="M670 310v20M680 320h-20M660 310v20" stroke="#fff" fill="#fff"/><path d="M680.5 320h-.5M680.5 320h-.5" stroke="#fff" fill="none"/><path d="M690 310v20M700 320h-20M680 310v20" stroke="#fff" fill="#fff"/><path d="M700.5 320h-.5M700.5 320h-.5" stroke="#fff" fill="none"/><path d="M710 310v20M720 320h-20M700 310v20" stroke="#fff" fill="#fff"/><path d="M720.5 320h-.5M720.5 320h-.5" stroke="#fff" fill="none"/><path d="M730 310v20M740 320h-20M720 310v20" stroke="#fff" fill="#fff"/><path d="M740.5 320h-.5M740.5 320h-.5" stroke="#fff" fill="none"/><path d="M750 310v20M760 320h-20M740 310v20" stroke="#fff" fill="#fff"/><path d="M760.5 320h-.5M760.5 320h-.5" stroke="#fff" fill="none"/><path d="M770 310v20M780 320h-20M760 310v20" stroke="#fff" fill="#fff"/><path d="M780.5 320h-.5M780.5 320h-.5" stroke="#fff" fill="none"/><path d="M790 310v20M800 320h-20M780 310v20" stroke="#fff" fill="#fff"/><path d="M800.5 320h-.5M800.5 320h-.5" stroke="#fff" fill="none"/><path d="M810 310v20M820 320h-20M800 310v20" stroke="#fff" fill="#fff"/><path d="M820.5 320h-.5M820.5 320h-.5" stroke="#fff" fill="none"/><path d="M830 310v20M840 320h-20M820 310v20" stroke="#fff" fill="#fff"/><path d="M840.5 320h-.5M840.5 320h-.5" stroke="#fff" fill="none"/><path d="M850 310v20M860 320h-20M840 310v20" stroke="#fff" fill="#fff"/><path d="M860.5 320h-.5M860.5 320h-.5" stroke="#fff" fill="none"/><path d="M870 310v20M880 320h-20M860 310v20" stroke="#fff" fill="#fff"/><path d="M880.5 320h-.5M880.5 320h-.5" stroke="#fff" fill="none"/><path d="M890 310v20M900 320h-20M880 310v20" stroke="#fff" fill="#fff"/><path d="M900.5 320h-.5M900.5 320h-.5" stroke="#fff" fill="none"/><path d="M910 310v20M920 320h-20M900 310v20" stroke="#fff" fill="#fff"/><path d="M920.5 320h-.5M920.5 320h-.5" stroke="#fff" fill="none"/><path d="M930 310v20M940 320h-20M920 310v20" stroke="#fff" fill="#fff"/><path d="M940.5 320h-.5M940.5 320h-.5" stroke="#fff" fill="none"/><path d="M950 310v20M960 320h-20M940 310v20" stroke="#fff" fill="#fff"/><path d="M1280.5 320h-.5M1280.5 320h-.5" stroke="#fff" fill="none"/><path d="M1290 310v20M1300 320h-20M1280 310v20" stroke="#fff" fill="#fff"/><path d="M1300.5 320h-.5M1300.5 320h-.5" stroke="#fff" fill="none"/><path d="M1310 310v20M1320 320h-20M1300 310v20" stroke="#fff" fill="#fff"/><path d="M1320.5 320h-.5M1320.5 320h-.5" stroke="#fff" fill="none"/><path d="M1330 310v20M1340 320h-20M1320 310v20" stroke="#fff" fill="#fff"/><path d="M1340.5 320h-.5M1340.5 320h-.5" stroke="#fff" fill="none"/><path d="M1350 310v20M1360 320h-20M1340 310v20" stroke="#fff" fill="#fff"/><path d="M1360.5 320h-.5M1360.5 320h-.5" stroke="#fff" fill="none"/><path d="M1370 310v20M1380 320h-20M1360 310v20" stroke="#fff" fill="#fff"/><path d="M1380.5 320h-.5M1380.5 320h-.5" stroke="#fff" fill="none"/><path d="M1390 310v20M1400 320h-20M1380 310v20" stroke="#fff" fill="#fff"/><path d="M1400.5 320h-.5M1400.5 320h-.5" stroke="#fff" fill="none"/><path d="M1410 310v20M1420 320h-20M1400 310v20" stroke="#fff" fill="#fff"/><path d="M1420.5 320h-.5M1420.5 320h-.5" stroke="#fff" fill="none"/><path d="M1430 310v20M1440 320h-20M1420 310v20" stroke="#fff" fill="#fff"/><path d="M1440.5 320h-.5M1440.5 320h-.5" stroke="#fff" fill="none"/><path d="M1450 310v20M1460 320h-20M1440 310v20" stroke="#fff" fill="#fff"/><path d="M1460.5 320h-.5M1460.5 320h-.5" stroke="#fff" fill="none"/><path d="M1470 310v20M1480 320h-20M1460 310v20" stroke="#fff" fill="#fff"/><path d="M1480.5 320h-.5M1480.5 320h-.5" stroke="#fff" fill="none"/><path d="M1490 310v20M1500 320h-20M1480 310v20" stroke="#fff" fill="#fff"/><path d="M1500.5 320h-.5M1500.5 320h-.5" stroke="#fff" fill="none"/><path d="M1510 310v20M1520 320h-20M1500 310v20" stroke="#fff" fill="#fff"/><path d="M1520.5 320h-.5M1520.5 320h-.5" stroke="#fff" fill="none"/><path d="M1530 310v20M1540 320h-20M1520 310v20" stroke="#fff" fill="#fff"/><path d="M1540.5 320h-.5M1540.5 320h-.5" stroke="#fff" fill="none"/><path d="M1550 310v20M1560 320h-20M1540 310v20" stroke="#fff" fill="#fff"/><path d="M1560.5 320h-.5M1560.5 320h-.5" stroke="#fff" fill="none"/><path d="M1570 310v20M1580 320h-20M1560 310v20" stroke="#fff" fill="#fff"/><path d="M1580.5 320h-.5M1580.5 320h-.5" stroke="#fff" fill="none"/><path d="M1590 310v20M1600 320h-20M1580 310v20" stroke="#fff" fill="#fff"/><path d="M1600.5 320h-.5M1600.5 320h-.5" stroke="#fff" fill="none"/><path d="M1610 310v20M1620 320h-20M1600 310v20" stroke="#fff" fill="#fff"/><path d="M1620.5 320h-.5M1620.5 320h-.5" stroke="#fff" fill="none"/><path d="M1630 310v20M1640 320h-20M1620 310v20" stroke="#fff" fill="#fff"/><path d="M1640.5 320h-.5M1640.5 320h-.5" stroke="#fff" fill="none"/><path d="M1650 310v20M1660 320h-20M1640 310v20" stroke="#fff" fill="#fff"/><path d="M1660.5 320h-.5M1660.5 320h-.5" stroke="#fff" fill="none"/><path d="M1670 310v20M1680 320h-20M1660 310v20" stroke="#fff" fill="#fff"/><path d="M1680.5 320h-.5M1680.5 320h-.5" stroke="#fff" fill="none"/><path d="M1690 310v20M1700 320h-20M1680 310v20" stroke="#fff" fill="#fff"/><path d="M1700.5 320h-.5M1700.5 320h-.5" stroke="#fff" fill="none"/><path d="M1710 310v20M1720 320h-20M1700 310v20" stroke="#fff" fill="#fff"/><path d="M1720.5 320h-.5M1720.5 320h-.5" stroke="#fff" fill="none"/><path d="M1730 310v20M1740 320h-20M1720 310v20" stroke="#fff" fill="#fff"/><path d="M1740.5 320h-.5M1740.5 320h-.5" stroke="#fff" fill="none"/><path d="M1750 310v20M1760 320h-20M1740 310v20" stroke="#fff" fill="#fff"/><path d="M.5 640H102M.5 640H0" stroke="#fff" fill="none"/><path d="M102.5 640l.04.5h-.56v-1h.56z" stroke="#fff" stroke-width=".05" fill="#fff"/><path d="M848.5 1219.5v-4.95m0-4.95v-9.9m0-4.95v-9.9m0-4.95v-9.9m0-4.95v-9.9m0-4.96v-9.9m0-4.96v-9.9m0-4.95v-9.9m0-4.96v-9.9m0-4.95v-9.9m0-4.96v-9.9m0-4.95v-9.9m0-4.96v-9.9m0-4.95v-9.9m0-4.97v-9.9m0-4.95v-9.9m0-4.95v-9.9m0-4.95v-9.9m0-4.95v-9.9m0-4.95v-9.9m0-4.95v-9.9m0-4.95v-9.9m0-4.95v-9.9m0-4.95v-9.9m0-4.96v-9.9m0-4.95v-9.9m0-4.95v-9.9m0-4.95v-9.9m0-4.95v-9.9m0-4.95v-9.9m0-4.95v-9.9m0-4.95v-9.9m0-4.95v-9.9m0-4.96v-9.9m0-4.95v-9.9m0-4.94v-9.9m0-4.95v-9.9m0-4.94v-9.9m0-4.95v-9.9m0-4.94v-9.9m0-4.95v-9.9m0-4.94v-9.9m0-4.95v-9.9m0-4.94v-9.9m0-4.96v-9.9m0-4.95v-9.9m0-4.95v-9.9m0-4.95v-4.95M848.5 1219.5v.5" stroke="#fff" fill="none"/><path d="M849 521.5h-1v-.5h1z" stroke="#fff" stroke-width=".05" fill="#fff"/><path d="M258 640h200.9" stroke="#fff" fill="none"/><path d="M258 640.5h-.54l.04-.5-.04-.5h.56zM459.4 640l.04.5h-.56v-1h.57z" stroke="#fff" stroke-width=".05" fill="#fff"/><path d="M175.2 583.6a8 8 0 0 1 9.6 0l70.4 52.8a4.5 4.5 0 0 1 0 7.2l-70.4 52.8a8 8 0 0 1-9.6 0l-70.4-52.8a4.5 4.5 0 0 1 0-7.2z" stroke="#fff" fill-opacity="0"/><use xlink:href="#a" transform="matrix(1,0,0,1,105,585) translate(33.73956790123456 59.02777777777778)"/><path d="M257.5 280.5v5m0 4.97v9.97m0 5v9.96m0 5v9.96m0 5v9.96m0 5v9.96m0 4.98v9.98m0 4.98v9.97m0 4.98v9.97m0 5v9.96m0 5v9.97m0 5v9.96m0 4.98v10m0 4.97v9.97m0 5v9.96m0 5v9.96m0 5v9.96m0 5v9.96m0 4.98v9.98m0 4.98v9.97m0 4.98v9.97m0 5v9.96m0 5v9.97m0 5v9.96m0 4.98v5M257.5 280.5v-.5" stroke="#fff" fill="none"/><path d="M258 643h-1v-.87l.16-.32.26-.88.08-.92-.05-.5h.55z" stroke="#fff" stroke-width=".05" fill="#fff"/><path d="M200 506a6 6 0 0 1 6-6h88a6 6 0 0 1 6 6v68a6 6 0 0 1-6 6h-88a6 6 0 0 1-6-6z" stroke="#000" stroke-opacity="0"/><use xlink:href="#b" transform="matrix(1,0,0,1,205.00000000000003,505) translate(27.833333333333336 18.1875)"/><use xlink:href="#c" transform="matrix(1,0,0,1,205.00000000000003,505) translate(5.027777777777786 42.18749999999999)"/><use xlink:href="#d" transform="matrix(1,0,0,1,205.00000000000003,505) translate(68.30555555555554 42.18749999999999)"/><use xlink:href="#e" transform="matrix(1,0,0,1,205.00000000000003,505) translate(20.08333333333334 66.18749999999999)"/><path d="M502.9 640c0 11.87-9.63 21.5-21.5 21.5-11.88 0-21.5-9.63-21.5-21.5s9.62-21.5 21.5-21.5c11.87 0 21.5 9.63 21.5 21.5z" stroke="#fff" fill-opacity="0"/><path d="M431.4 445a6 6 0 0 1 6-6h88a6 6 0 0 1 6 6v70a6 6 0 0 1-6 6h-88a6 6 0 0 1-6-6z" stroke="#000" stroke-opacity="0" fill="#fff" fill-opacity="0"/><use xlink:href="#f" transform="matrix(1,0,0,1,436.3984810076756,444) translate(20.08333333333334 18.25)"/><use xlink:href="#g" transform="matrix(1,0,0,1,436.3984810076756,444) translate(20.583333333333336 42.24999999999999)"/><use xlink:href="#h" transform="matrix(1,0,0,1,436.3984810076756,444) translate(11.722222222222229 66.24999999999999)"/><path d="M499.9 507.83a6 6 0 0 1 6-6h168a6 6 0 0 1 6 6V612.5a6 6 0 0 1-6 6h-168a6 6 0 0 1-6-6z" stroke="#000" stroke-opacity="0" fill="#fff" fill-opacity="0"/><use xlink:href="#i" transform="matrix(1,0,0,1,504.8984810076756,506.8333333333334) translate(15.1388888888889 32.71875)"/><use xlink:href="#j" transform="matrix(1,0,0,1,504.8984810076756,506.8333333333334) translate(70.52777777777777 32.71875)"/><use xlink:href="#k" transform="matrix(1,0,0,1,504.8984810076756,506.8333333333334) translate(21.388888888888893 56.71875)"/><use xlink:href="#l" transform="matrix(1,0,0,1,504.8984810076756,506.8333333333334) translate(106.44444444444446 56.71875)"/><use xlink:href="#m" transform="matrix(1,0,0,1,504.8984810076756,506.8333333333334) translate(128.66666666666666 56.71875)"/><use xlink:href="#n" transform="matrix(1,0,0,1,504.8984810076756,506.8333333333334) translate(62.22222222222223 80.71875)"/><path d="M479.9 617.63v-5.34m0-5.35v-10.68m0-5.34v-10.68m0-5.35v-10.68m0-5.34V548.2m0-5.34v-10.68m0-5.34v-5.34" stroke="#fff" fill="none"/><path d="M480.4 618.1l-1 .07v-.55h1zM480.4 521.5h-1v-.5h1z" stroke="#fff" stroke-width=".05" fill="#fff"/><path d="M.5 840h1688.25M.5 840H0" stroke="#fff" fill="none"/><path d="M1703.52 840l-14.27 4.63v-9.26z" stroke="#fff" fill="#fff"/><path d="M580 906a6 6 0 0 1 6-6h188a6 6 0 0 1 6 6v88a6 6 0 0 1-6 6H586a6 6 0 0 1-6-6z" stroke="#000" stroke-opacity="0" fill="#fff" fill-opacity="0"/><use xlink:href="#o" transform="matrix(1,0,0,1,585,905) translate(4.944444444444457 38.75)"/><use xlink:href="#p" transform="matrix(1,0,0,1,585,905) translate(98.5 38.75)"/><use xlink:href="#q" transform="matrix(1,0,0,1,585,905) translate(32.33333333333334 62.75)"/><use xlink:href="#r" transform="matrix(1,0,0,1,585,905) translate(65.66666666666667 62.75)"/><use xlink:href="#e" transform="matrix(1,0,0,1,585,905) translate(107.83333333333333 62.75)"/><path d="M782.57 853.4l-3.4 3.08m-3.4 3.1l-6.83 6.16m-3.4 3.08l-6.8 6.17m-3.42 3.07l-6.8 6.17m-3.42 3.1l-6.8 6.16m-3.4 3.08l-3.42 3.08" stroke="#fff" fill="none"/><path d="M783.2 853.5l-.3.28-.68-.74.46-.42zM731.8 900h-1.43l.8-.72z" stroke="#fff" stroke-width=".05" fill="#fff"/><path d="M823 841.5c0 11.87-9.63 21.5-21.5 21.5s-21.5-9.63-21.5-21.5 9.63-21.5 21.5-21.5 21.5 9.63 21.5 21.5z" stroke="#fff"/><path d="M589.9 662.5l.17 7.9.42 6.8.58 5.6.7 4.68.75 4 .8 3.45.84 3.02.87 2.65.88 2.37.88 2.1.9 1.92.9 1.73.93 1.6.93 1.45.93 1.35.95 1.26.96 1.16 1 1.1 1 1.02 1.03.97 1.06.9 1.1.88 1.12.82 1.18.78 1.23.75 1.3.7 1.35.68 1.45.65 1.54.62 1.66.58 1.8.54 1.97.5 2.18.47 2.45.42 2.8.35 3.25.27 3.94.16h5.02l7.2-.32 47.26-3.75h7l5.82.23 5.08.42 4.54.58 4.14.7 3.84.8 3.58.93 3.38 1 3.2 1.13 3.08 1.2 2.96 1.33 2.87 1.42 2.77 1.53 2.73 1.66 2.67 1.78 2.63 1.9 2.6 2.08 2.6 2.24 2.6 2.42 2.57 2.64 2.6 2.9 2.6 3.14 2.65 3.48 2.67 3.85 2.7 4.28 2.77 4.8 2.83 5.4 2.88 6.13 2.95 7.04 3.02 8.12 1.3 4.03" stroke="#fff" stroke-linejoin="round" fill="none"/><path d="M589.9 662l.5-.04v.55l-1 .03v-.58z" stroke="#fff" stroke-width=".05" fill="#fff"/><path d="M801.04 817.95l-8.5-12.37 8.9-2.63z" stroke="#fff" fill="#fff"/><path d="M871.5 640c0 11.87-9.63 21.5-21.5 21.5s-21.5-9.63-21.5-21.5 9.63-21.5 21.5-21.5 21.5 9.63 21.5 21.5z" stroke="#fff"/><path d="M800 445a6 6 0 0 1 6-6h88a6 6 0 0 1 6 6v70a6 6 0 0 1-6 6h-88a6 6 0 0 1-6-6z" stroke="#000" stroke-opacity="0" fill="#fff" fill-opacity="0"/><use xlink:href="#f" transform="matrix(1,0,0,1,805,444) translate(20.08333333333334 18.25)"/><use xlink:href="#g" transform="matrix(1,0,0,1,805,444) translate(20.583333333333336 42.24999999999999)"/><use xlink:href="#s" transform="matrix(1,0,0,1,805,444) translate(15.638888888888896 66.24999999999999)"/><path d="M923 841.5c0 11.87-9.63 21.5-21.5 21.5s-21.5-9.63-21.5-21.5 9.63-21.5 21.5-21.5 21.5 9.63 21.5 21.5zM1023 841.5c0 11.87-9.63 21.5-21.5 21.5s-21.5-9.63-21.5-21.5 9.63-21.5 21.5-21.5 21.5 9.63 21.5 21.5zM1123 841.5c0 11.87-9.63 21.5-21.5 21.5s-21.5-9.63-21.5-21.5 9.63-21.5 21.5-21.5 21.5 9.63 21.5 21.5zM1223 841.5c0 11.87-9.63 21.5-21.5 21.5s-21.5-9.63-21.5-21.5 9.63-21.5 21.5-21.5 21.5 9.63 21.5 21.5zM971.5 641c0 11.87-9.63 21.5-21.5 21.5s-21.5-9.63-21.5-21.5 9.63-21.5 21.5-21.5 21.5 9.63 21.5 21.5zM1071.5 642c0 11.87-9.63 21.5-21.5 21.5s-21.5-9.63-21.5-21.5 9.63-21.5 21.5-21.5 21.5 9.63 21.5 21.5zM1171.5 643c0 11.87-9.63 21.5-21.5 21.5s-21.5-9.63-21.5-21.5 9.63-21.5 21.5-21.5 21.5 9.63 21.5 21.5z" stroke="#fff"/><path d="M850.85 678.36l.3 2.88.78 5.28.93 4.92 1.1 4.63 1.23 4.44 1.4 4.3 1.57 4.27 1.8 4.3 2.14 4.52 2.6 4.97 3.58 6.16 18.5 29.6 2.6 4.98 2.14 4.52 1.8 4.3 1.6 4.27 1.4 4.3 1.23 4.42 1.1 4.64.92 4.92.78 5.28.3 2.88" stroke="#fff" stroke-linejoin="round" fill="none"/><path d="M850.08 663.62l5.37 14-9.26.5zM901.42 817.88l-5.37-14 9.26-.48z" stroke="#fff" fill="#fff"/><path d="M950.86 679.36l.27 2.65.77 5.24.93 4.87 1.08 4.6 1.23 4.38 1.4 4.26 1.55 4.2 1.8 4.27 2.1 4.46 2.55 4.88 3.46 5.98 18.97 30.24 2.56 4.88 2.1 4.45 1.8 4.25 1.55 4.2 1.4 4.27 1.2 4.38 1.1 4.6.92 4.86.77 5.23.27 2.64" stroke="#fff" stroke-linejoin="round" fill="none"/><path d="M950.1 664.62l5.36 14-9.26.5zM1001.4 817.88l-5.36-14 9.26-.5z" stroke="#fff" fill="#fff"/><path d="M1050.87 680.36l.25 2.43.76 5.16.92 4.8 1.07 4.56 1.2 4.34 1.38 4.2 1.55 4.18 1.77 4.2 2.06 4.4 2.5 4.8 3.37 5.8 19.46 30.83 2.5 4.8 2.07 4.4 1.77 4.2 1.55 4.16 1.37 4.2 1.2 4.35 1.08 4.55.92 4.8.76 5.18.25 2.44" stroke="#fff" stroke-linejoin="round" fill="none"/><path d="M1050.1 665.62l5.37 14-9.26.5zM1101.4 817.88l-5.37-14 9.26-.5z" stroke="#fff" fill="#fff"/><path d="M1150.88 681.36l.23 2.2.76 5.12.9 4.77 1.06 4.5 1.2 4.28 1.36 4.17 1.53 4.12 1.76 4.16 2.03 4.32 2.46 4.7 3.26 5.66 6.74 10.5 9.9 15.28 3.28 5.65 2.47 4.7 2.04 4.32 1.75 4.16 1.52 4.12 1.36 4.16 1.2 4.3 1.05 4.5.9 4.76.76 5.1.22 2.23" stroke="#fff" stroke-linejoin="round" fill="none"/><path d="M1150.1 666.62l5.38 14-9.26.5zM1201.4 817.88l-5.38-14 9.26-.5z" stroke="#fff" fill="#fff"/><path d="M850 1139.97l81.54-1.66 74.8-4.7 76.68-8.08 111.92-16.85 284.64-45.8" stroke="#fff" stroke-width="3" stroke-linejoin="round" fill="none"/><path d="M850.05 1139.97l-1.54.03" stroke="#fff" stroke-width="3" fill="none"/><path d="M1495.2 1060.68l-13.5 6.58-1.28-9.18z" stroke="#fff" stroke-width="3" fill="#fff"/><path d="M1500 280.5v5.02m0 5.03v10.04m0 5.02v10.04m0 5.03v10.03m0 5.03v10.04m0 5.03v10.04m0 5.03v10.04m0 5.03V391m0 5.04v10.04m0 5.03v10.05m0 5.03v10.05m0 5.02v10.05m0 5.02v10.05m0 5.02v10.04m0 5.02v10.05m0 5.03v10.05m0 5.02v10.05m0 5.02v10.05m0 5.02v10.05m0 5v10.06m0 5.02v10.05m0 5.02V602m0 5.02v10.05m0 5.02v10.04m0 5.02v10.05m0 5.03v10.05m0 5.02v10.05m0 5.02v10.05m0 5.02v10.05m0 5v10.06m0 5.02v10.05m0 5.02v10.05m0 5.02v10.05m0 5.02v10.04m0 5.02v10.05m0 5.03v10.05m0 5.02v10.05m0 5.02v10.05m0 5.02v10.05m0 5v10.06m0 5.02v10.05m0 5.02v10.05m0 5.02v10.05m0 5.02v10.04m0 5.02v10.05m0 5.03v10.05m0 5.03v10.05m0 5.02v10.05m0 5.02v10.05m0 5v10.06m0 5.02v10.05m0 5.03v10.04m0 5.03v10.04m0 5.03v10.04m0 5.03v10.04m0 5.04v10.04m0 5.03v10.05m0 5.03v5.02M1500 280.5v-.5M1500 1139.5v.5M271.5 410H1486" stroke="#fff" fill="none"/><path d="M258.2 410l7.08-7.07 7.93 7.07-7.92 7.07zM1499.3 410l-7.08 7.07-7.93-7.07 7.92-7.07z" stroke="#fff" fill="#fff"/><path d="M503.9 640h63.6" stroke="#fff" fill="none"/><path d="M503.9 640.5h-.56l.06-.5-.04-.5h.55z" stroke="#fff" stroke-width=".05" fill="#fff"/><path d="M567.5 640h.5" stroke="#fff" fill="none"/><path d="M1360.8 1060h5m4.96 0h9.94m4.97 0h9.95m4.97 0h9.94m4.97 0h9.96m4.97 0h9.94m4.98 0h9.94m4.97 0h9.94m4.98 0h9.95m4.97 0h9.95m4.97 0h9.94m4.98 0h9.94m4.97 0h9.95m4.97 0h9.95m4.97 0h9.94m4.97 0h9.96m4.97 0h4.97M1360.83 1060h-.52M1599.5 1060h.5" stroke="#e81313" fill="none"/><path d="M1640 1066a6 6 0 0 1 6-6h148a6 6 0 0 1 6 6v108a6 6 0 0 1-6 6h-148a6 6 0 0 1-6-6z" stroke="#000" stroke-opacity="0" fill="#fff" fill-opacity="0"/><use xlink:href="#t" transform="matrix(1,0,0,1,1645,1065) translate(25.083333333333343 15.999999999999998)"/><use xlink:href="#u" transform="matrix(1,0,0,1,1645,1065) translate(41.75000000000001 15.999999999999998)"/><use xlink:href="#v" transform="matrix(1,0,0,1,1645,1065) translate(75.08333333333334 15.999999999999998)"/><use xlink:href="#w" transform="matrix(1,0,0,1,1645,1065) translate(8.972222222222229 39.99999999999999)"/><use xlink:href="#x" transform="matrix(1,0,0,1,1645,1065) translate(93.30555555555554 39.99999999999999)"/><use xlink:href="#y" transform="matrix(1,0,0,1,1645,1065) translate(113.24999999999999 39.99999999999999)"/><use xlink:href="#z" transform="matrix(1,0,0,1,1645,1065) translate(25.6388888888889 63.99999999999999)"/><use xlink:href="#A" transform="matrix(1,0,0,1,1645,1065) translate(93.30555555555556 63.99999999999999)"/><use xlink:href="#B" transform="matrix(1,0,0,1,1645,1065) translate(40.111111111111114 87.99999999999999)"/><use xlink:href="#C" transform="matrix(1,0,0,1,1645,1065) translate(95.5 87.99999999999999)"/><use xlink:href="#D" transform="matrix(1,0,0,1,1645,1065) translate(5.111111111111114 111.99999999999999)"/><use xlink:href="#d" transform="matrix(1,0,0,1,1645,1065) translate(128.22222222222223 111.99999999999999)"/><use xlink:href="#E" transform="matrix(1,0,0,1,1645,1065) translate(22.8888888888889 135.99999999999997)"/><use xlink:href="#F" transform="matrix(1,0,0,1,1645,1065) translate(73.83333333333334 135.99999999999997)"/><use xlink:href="#G" transform="matrix(1,0,0,1,1645,1065) translate(90.5 135.99999999999997)"/><use xlink:href="#H" transform="matrix(1,0,0,1,1645,1065) translate(25.66666666666667 159.99999999999997)"/><path d="M1639.5 1120l-44.07-.54-15.77-.97-11.25-1.18-8.73-1.3-7.1-1.34-5.92-1.38-5.04-1.4-4.34-1.42-3.8-1.4-3.36-1.42-2.98-1.4-2.68-1.4-2.42-1.4-2.2-1.4-2-1.38-1.83-1.4-1.7-1.4-1.56-1.4-1.45-1.4-1.35-1.44-1.25-1.45-1.16-1.48-1.1-1.5-1-1.52-.95-1.56-.9-1.6-.82-1.66-.76-1.72-.7-1.77-.65-1.86-.4-1.36" stroke="#fff" stroke-linejoin="round" fill="none"/><path d="M1640 1119.5v1h-.52v-1z" stroke="#fff" stroke-width=".05" fill="#fff"/><path d="M1498.3 1061.6l6.5 13.52-9.2 1.24z" stroke="#fff" fill="#fff"/><path d="M850 1141.3l30.26-.64 33.38-2.1 35.32-3.72 37.64-5.57 40.44-7.73 43.93-10.32 48.46-13.55 54.73-17.82 64.74-24.13 88.38-37.33 153.94-69.74" stroke="#fff" stroke-width="3" stroke-linejoin="round" fill="none"/><path d="M850.05 1141.3l-1.54.03" stroke="#fff" stroke-width="3" fill="none"/><path d="M1495.58 942.15l-11.08 10.1-3.83-8.43z" stroke="#fff" stroke-width="3" fill="#fff"/><path d="M1560 932a6 6 0 0 1 6-6h233.78a6 6 0 0 1 6 6v68a6 6 0 0 1-6 6H1566a6 6 0 0 1-6-6z" stroke="#000" stroke-opacity="0" fill="#fff" fill-opacity="0"/><use xlink:href="#t" transform="matrix(1,0,0,1,1565,931) translate(15.944444444444471 18.1875)"/><use xlink:href="#u" transform="matrix(1,0,0,1,1565,931) translate(32.611111111111136 18.1875)"/><use xlink:href="#B" transform="matrix(1,0,0,1,1565,931) translate(65.94444444444446 18.1875)"/><use xlink:href="#w" transform="matrix(1,0,0,1,1565,931) translate(121.33333333333334 18.1875)"/><use xlink:href="#C" transform="matrix(1,0,0,1,1565,931) translate(205.66666666666663 18.1875)"/><use xlink:href="#I" transform="matrix(1,0,0,1,1565,931) translate(7.6111111111111285 42.18749999999999)"/><use xlink:href="#q" transform="matrix(1,0,0,1,1565,931) translate(40.94444444444446 42.18749999999999)"/><use xlink:href="#z" transform="matrix(1,0,0,1,1565,931) translate(74.27777777777779 42.18749999999999)"/><use xlink:href="#J" transform="matrix(1,0,0,1,1565,931) translate(141.94444444444446 42.18749999999999)"/><use xlink:href="#v" transform="matrix(1,0,0,1,1565,931) translate(178.55555555555554 42.18749999999999)"/><use xlink:href="#x" transform="matrix(1,0,0,1,1565,931) translate(32.58333333333334 66.18749999999999)"/><use xlink:href="#I" transform="matrix(1,0,0,1,1565,931) translate(52.527777777777786 66.18749999999999)"/><use xlink:href="#K" transform="matrix(1,0,0,1,1565,931) translate(85.86111111111111 66.18749999999999)"/><path d="M1559.5 966l-3.44.1-4.47.3-5.26.63-6.55 1.08-9.47 2.04-34.53 8.52-4.95.82-3.74.44-3.02.22-2.56.06-2.23-.05-1.97-.14-1.77-.2-1.6-.26-1.48-.3-1.37-.37-1.27-.4-1.2-.44-1.16-.48-1.1-.52-1.05-.56-1-.6-1-.65-.9-.67" stroke="#fff" stroke-linejoin="round" fill="none"/><path d="M1560 966.5h-.5l-.03-1h.53z" stroke="#fff" stroke-width=".05" fill="#fff"/><path d="M1453.63 962.9l12.28 8.6-7.4 5.58z" stroke="#fff" fill="#fff"/><path d="M-40 586a6 6 0 0 1 6-6h88a6 6 0 0 1 6 6v48a6 6 0 0 1-6 6h-88a6 6 0 0 1-6-6z" stroke="#000" stroke-opacity="0" fill="#fff" fill-opacity="0"/><g><use xlink:href="#L" transform="matrix(1,0,0,1,-35,585) translate(12.333333333333343 19.1875)"/><use xlink:href="#M" transform="matrix(1,0,0,1,-35,585) translate(17.80555555555556 43.18749999999999)"/></g><path d="M-40 786a6 6 0 0 1 6-6h88a6 6 0 0 1 6 6v48a6 6 0 0 1-6 6h-88a6 6 0 0 1-6-6z" stroke="#000" stroke-opacity="0" fill="#fff" fill-opacity="0"/><g><use xlink:href="#L" transform="matrix(1,0,0,1,-35,785) translate(12.333333333333343 17.5)"/><use xlink:href="#N" transform="matrix(1,0,0,1,-35,785) translate(-2.1388888888888786 41.5)"/></g><path d="M-40 1087.5a6 6 0 0 1 6-6h88a6 6 0 0 1 6 6v48a6 6 0 0 1-6 6h-88a6 6 0 0 1-6-6z" stroke="#000" stroke-opacity="0" fill="#fff" fill-opacity="0"/><g><use xlink:href="#O" transform="matrix(1,0,0,1,-35,1086.5) translate(18.388888888888893 19.1875)"/><use xlink:href="#P" transform="matrix(1,0,0,1,-35,1086.5) translate(1.750000000000007 43.18749999999999)"/></g><path d="M-40 266a6 6 0 0 1 6-6h248a6 6 0 0 1 6 6v39a6 6 0 0 1-6 6H-34a6 6 0 0 1-6-6z" stroke="#000" stroke-opacity="0" fill="#fff" fill-opacity="0"/><g><use xlink:href="#Q" transform="matrix(1,0,0,1,-35,265) translate(0 23.6875)"/><use xlink:href="#R" transform="matrix(1,0,0,1,-35,265) translate(46.61111111111111 23.6875)"/><use xlink:href="#S" transform="matrix(1,0,0,1,-35,265) translate(155.16666666666663 23.6875)"/></g><path d="M1220 370a6 6 0 0 1 6-6h168a6 6 0 0 1 6 6v28a6 6 0 0 1-6 6h-168a6 6 0 0 1-6-6z" stroke="#000" stroke-opacity="0" fill-opacity="0"/><g><use xlink:href="#T" transform="matrix(1,0,0,1,1225,369) translate(4.203703703703724 19.71527777777778)"/></g><path d="M1645.78 410a6 6 0 0 1 6-6H1774a6 6 0 0 1 6 6v85.83a6 6 0 0 1-6 6h-122.22a6 6 0 0 1-6-6z" stroke="#000" stroke-opacity="0" fill="#fff" fill-opacity="0"/><g><use xlink:href="#U" transform="matrix(1,0,0,1,1650.7771614869991,409) translate(22.61111111111112 35.25)"/><use xlink:href="#V" transform="matrix(1,0,0,1,1650.7771614869991,409) translate(10.333333333333343 59.25)"/><use xlink:href="#W" transform="matrix(1,0,0,1,1650.7771614869991,409) translate(71.33333333333333 59.25)"/></g><path d="M-60 366a6 6 0 0 1 6-6H74a6 6 0 0 1 6 6v88a6 6 0 0 1-6 6H-54a6 6 0 0 1-6-6z" stroke="#000" stroke-opacity="0" fill="#fff" fill-opacity="0"/><g><use xlink:href="#U" transform="matrix(1,0,0,1,-55,365) translate(25.11111111111112 38.75)"/><use xlink:href="#V" transform="matrix(1,0,0,1,-55,365) translate(10.083333333333343 62.75)"/><use xlink:href="#X" transform="matrix(1,0,0,1,-55,365) translate(71.08333333333333 62.75)"/></g><path d="M80.24 409.56l15.64-28.5 5.92-8.6 4.18-5.03 3.44-3.44 3.06-2.55 2.87-1.97 2.8-1.58 2.83-1.27 2.96-1.02 3.22-.78.84-.15 1.76-.27 1.83-.2 1.93-.12 2.07-.03 2.24.06 2.45.2 2.72.3 3.07.5 3.54.75 4.16 1.07 5.04 1.54 6.3 2.24 8.28 3.35 11.57 5.32 17.9 9.22 22.94 13.16" stroke="#fff" stroke-linejoin="round" fill="none"/><path d="M80.69 409.8l-.7 1.24v-1.63z" stroke="#fff" stroke-width=".05" fill="#fff"/><path d="M238.6 399.2L223.94 396l4.66-8z" stroke="#fff" fill="#fff"/><path d="M1645.28 452.9l-7.7-.15-7.52-.47-7.1-.75-6.86-1-6.87-1.32-7.16-1.68-8.02-2.24-10.44-3.4-47.93-17.13" stroke="#fff" stroke-linejoin="round" fill="none"/><path d="M1645.78 452.42v1h-.53l.02-1z" stroke="#fff" stroke-width=".05" fill="#fff"/><path d="M1521.55 420.47l15-.3-2.7 8.87z" stroke="#fff" fill="#fff"/><path d="M320 366a6 6 0 0 1 6-6h168a6 6 0 0 1 6 6v28a6 6 0 0 1-6 6H326a6 6 0 0 1-6-6z" stroke="#000" stroke-opacity="0" fill-opacity="0"/><g><use xlink:href="#T" transform="matrix(1,0,0,1,325,365) translate(4.203703703703724 19.71527777777778)"/></g><path d="M.5 1140h859M.5 1140H0M859.5 1140h.5" stroke="#fff" fill="none"/><g><path d="M1030.85 1048.23a6 6 0 0 1 3.17-7.87l262.7-112a6 6 0 0 1 7.88 3.16l19.98 46.87a6 6 0 0 1-3.16 7.86l-262.7 112a6 6 0 0 1-7.88-3.16z" stroke="#000" stroke-opacity="0" fill="#fff" fill-opacity="0"/></g><g><use xlink:href="#i" transform="matrix(0.9198866992154972,-0.3921842176916575,0.3921842176916575,0.9198866992154972,1035.0603545845356,1045.3482665806177) translate(18.083333333333343 19.3125)"/><use xlink:href="#Y" transform="matrix(0.9198866992154972,-0.3921842176916575,0.3921842176916575,0.9198866992154972,1035.0603545845356,1045.3482665806177) translate(73.47222222222223 19.3125)"/><use xlink:href="#Z" transform="matrix(0.9198866992154972,-0.3921842176916575,0.3921842176916575,0.9198866992154972,1035.0603545845356,1045.3482665806177) translate(157.80555555555554 19.3125)"/><use xlink:href="#aa" transform="matrix(0.9198866992154972,-0.3921842176916575,0.3921842176916575,0.9198866992154972,1035.0603545845356,1045.3482665806177) translate(19.694444444444457 43.31249999999999)"/><use xlink:href="#ab" transform="matrix(0.9198866992154972,-0.3921842176916575,0.3921842176916575,0.9198866992154972,1035.0603545845356,1045.3482665806177) translate(74.08333333333334 43.31249999999999)"/><use xlink:href="#ac" transform="matrix(0.9198866992154972,-0.3921842176916575,0.3921842176916575,0.9198866992154972,1035.0603545845356,1045.3482665806177) translate(212.80555555555554 43.31249999999999)"/></g><path d="M611.4 640c0 11.87-9.63 21.5-21.5 21.5-11.88 0-21.5-9.63-21.5-21.5s9.62-21.5 21.5-21.5c11.87 0 21.5 9.63 21.5 21.5z" stroke="#fff"/><defs><path fill="#fff" d="M233-177c-1 41-23 64-60 70L243 0h-38l-65-103H63V0H30v-248c88 3 205-21 203 71zM63-129c60-2 137 13 137-47 0-61-80-42-137-45v92" id="ad"/><path fill="#fff" d="M100-194c63 0 86 42 84 106H49c0 40 14 67 53 68 26 1 43-12 49-29l28 8c-11 28-37 45-77 45C44 4 14-33 15-96c1-61 26-98 85-98zm52 81c6-60-76-77-97-28-3 7-6 17-6 28h103" id="ae"/><path fill="#fff" d="M177-190C167-65 218 103 67 71c-23-6-38-20-44-43l32-5c15 47 100 32 89-28v-30C133-14 115 1 83 1 29 1 15-40 15-95c0-56 16-97 71-98 29-1 48 16 59 35 1-10 0-23 2-32h30zM94-22c36 0 50-32 50-73 0-42-14-75-50-75-39 0-46 34-46 75s6 73 46 73" id="af"/><path fill="#fff" d="M24-231v-30h32v30H24zM24 0v-190h32V0H24" id="ag"/><path fill="#fff" d="M135-143c-3-34-86-38-87 0 15 53 115 12 119 90S17 21 10-45l28-5c4 36 97 45 98 0-10-56-113-15-118-90-4-57 82-63 122-42 12 7 21 19 24 35" id="ah"/><path fill="#fff" d="M59-47c-2 24 18 29 38 22v24C64 9 27 4 27-40v-127H5v-23h24l9-43h21v43h35v23H59v120" id="ai"/><path fill="#fff" d="M114-163C36-179 61-72 57 0H25l-1-190h30c1 12-1 29 2 39 6-27 23-49 58-41v29" id="aj"/><g id="a"><use transform="matrix(0.06172839506172839,0,0,0.06172839506172839,0,0)" xlink:href="#ad"/><use transform="matrix(0.06172839506172839,0,0,0.06172839506172839,15.987654320987653,0)" xlink:href="#ae"/><use transform="matrix(0.06172839506172839,0,0,0.06172839506172839,28.333333333333332,0)" xlink:href="#af"/><use transform="matrix(0.06172839506172839,0,0,0.06172839506172839,40.67901234567901,0)" xlink:href="#ag"/><use transform="matrix(0.06172839506172839,0,0,0.06172839506172839,45.55555555555556,0)" xlink:href="#ah"/><use transform="matrix(0.06172839506172839,0,0,0.06172839506172839,56.66666666666667,0)" xlink:href="#ai"/><use transform="matrix(0.06172839506172839,0,0,0.06172839506172839,62.83950617283951,0)" xlink:href="#ae"/><use transform="matrix(0.06172839506172839,0,0,0.06172839506172839,75.18518518518519,0)" xlink:href="#aj"/></g><path fill="#fff" d="M62-99C39-31 123 0 170-40s38-139 58-208h34C234-144 253 4 115 4 49 4 18-43 31-112l26-136h34" id="ak"/><path fill="#fff" d="M14 0l48-248h34L48 0H14" id="al"/><path fill="#fff" d="M248-139C247-14 144 9 11 0l48-248c105-6 190 8 189 109zm-34 0c1-70-52-87-126-82L50-27c98 7 163-21 164-112" id="am"/><g id="b"><use transform="matrix(0.055555555555555546,0,0,0.055555555555555546,0,0)" xlink:href="#ak"/><use transform="matrix(0.055555555555555546,0,0,0.055555555555555546,14.388888888888886,0)" xlink:href="#al"/><use transform="matrix(0.055555555555555546,0,0,0.055555555555555546,19.94444444444444,0)" xlink:href="#am"/></g><path fill="#fff" d="M50-231l6-30h32l-6 30H50zM6 0l37-190h31L37 0H6" id="an"/><path fill="#fff" d="M55-144c13 50 104 24 104 88C159 21 15 23 1-39l26-10c6 40 102 42 102-4-13-50-104-23-104-87 0-71 143-71 148-8l-29 4c-5-35-85-37-89 0" id="ao"/><path fill="#fff" d="M67 3c-93-2-31-127-26-193h32L48-50c-3 39 53 32 70 12 30-34 30-101 43-152h32L157 0h-30c1-10 6-24 4-33-14 20-29 37-64 36" id="ap"/><path fill="#fff" d="M111-194c62-3 86 47 72 106H45c-7 38 6 69 45 68 27-1 43-14 53-32l24 11C152-15 129 4 87 4 38 3 12-23 12-71c0-70 32-119 99-123zm44 81c14-66-71-72-95-28-4 8-8 17-11 28h106" id="aq"/><path fill="#fff" d="M133-28C103 26-5 8 13-77c13-62 24-115 90-117 29-1 46 15 56 35l19-102h32L160 0h-30zM45-64c-2 27 10 43 35 43 54-1 69-50 69-103 0-29-15-46-42-46-53-1-58 58-62 106" id="ar"/><g id="c"><use transform="matrix(0.055555555555555546,0,0,0.055555555555555546,0,0)" xlink:href="#an"/><use transform="matrix(0.055555555555555546,0,0,0.055555555555555546,4.388888888888888,0)" xlink:href="#ao"/><use transform="matrix(0.055555555555555546,0,0,0.055555555555555546,14.388888888888886,0)" xlink:href="#ao"/><use transform="matrix(0.055555555555555546,0,0,0.055555555555555546,24.388888888888886,0)" xlink:href="#ap"/><use transform="matrix(0.055555555555555546,0,0,0.055555555555555546,35.49999999999999,0)" xlink:href="#aq"/><use transform="matrix(0.055555555555555546,0,0,0.055555555555555546,46.6111111111111,0)" xlink:href="#ar"/></g><path fill="#fff" d="M51-54c-9 22 5 41 31 30L79-1C43 14 10-4 19-52l22-115H19l5-23h22l19-43h21l-9 43h35l-4 23H73" id="as"/><path fill="#fff" d="M30-147c31-64 166-65 159 27C183-49 158 1 86 4 9 8 1-88 30-147zM88-20c53 0 68-48 68-100 0-31-11-51-44-50-52 1-68 46-68 97 0 32 13 53 44 53" id="at"/><g id="d"><use transform="matrix(0.055555555555555546,0,0,0.055555555555555546,0,0)" xlink:href="#as"/><use transform="matrix(0.055555555555555546,0,0,0.055555555555555546,5.5555555555555545,0)" xlink:href="#at"/></g><path fill="#fff" d="M248-111c6-24 9-61-24-58-72 9-57 108-77 169h-31l26-142c3-37-50-30-64-10C52-115 50-51 37 0H6l36-190h30c-1 10-6 24-4 32 13-43 101-52 105 5 13-22 29-41 61-41 90 0 28 129 23 194h-31" id="au"/><path fill="#fff" d="M67-158c22-48 132-52 116 29L158 0h-32l25-140c3-38-53-32-70-12C52-117 51-52 38 0H6l36-190h30" id="av"/><path fill="#fff" d="M66-151c12-25 30-51 66-40l-6 26C45-176 58-65 38 0H6l36-190h30" id="aw"/><g id="e"><use transform="matrix(0.055555555555555546,0,0,0.055555555555555546,0,0)" xlink:href="#au"/><use transform="matrix(0.055555555555555546,0,0,0.055555555555555546,16.611111111111107,0)" xlink:href="#an"/><use transform="matrix(0.055555555555555546,0,0,0.055555555555555546,20.999999999999996,0)" xlink:href="#av"/><use transform="matrix(0.055555555555555546,0,0,0.055555555555555546,32.11111111111111,0)" xlink:href="#aq"/><use transform="matrix(0.055555555555555546,0,0,0.055555555555555546,43.222222222222214,0)" xlink:href="#aw"/></g><path fill="#fff" d="M222 0l43-216c-8 16-17 34-26 49L143 0h-22L81-216 41 0H11l48-248h42l38 208 116-208h45L252 0h-30" id="ax"/><g id="f"><use transform="matrix(0.055555555555555546,0,0,0.055555555555555546,0,0)" xlink:href="#ax"/><use transform="matrix(0.055555555555555546,0,0,0.055555555555555546,16.611111111111107,0)" xlink:href="#an"/><use transform="matrix(0.055555555555555546,0,0,0.055555555555555546,20.999999999999996,0)" xlink:href="#av"/><use transform="matrix(0.055555555555555546,0,0,0.055555555555555546,32.11111111111111,0)" xlink:href="#aq"/><use transform="matrix(0.055555555555555546,0,0,0.055555555555555546,43.222222222222214,0)" xlink:href="#aw"/></g><path fill="#fff" d="M165-48c-4 18 1 34 23 27l-3 20c-29 8-62 0-52-35h-2C116-14 99 4 63 4 30 4 8-16 8-49c0-68 71-67 138-67 10-26 0-56-31-54-26 1-42 9-47 31l-32-5c8-67 160-71 144 15-5 28-9 54-15 81zM42-50c3 52 80 24 89-6 7-12 7-24 11-38-47 1-103-4-100 44" id="ay"/><g id="g"><use transform="matrix(0.055555555555555546,0,0,0.055555555555555546,0,0)" xlink:href="#ao"/><use transform="matrix(0.055555555555555546,0,0,0.055555555555555546,9.999999999999998,0)" xlink:href="#as"/><use transform="matrix(0.055555555555555546,0,0,0.055555555555555546,15.555555555555554,0)" xlink:href="#ay"/><use transform="matrix(0.055555555555555546,0,0,0.055555555555555546,26.666666666666664,0)" xlink:href="#aw"/><use transform="matrix(0.055555555555555546,0,0,0.055555555555555546,33.27777777777777,0)" xlink:href="#as"/><use transform="matrix(0.055555555555555546,0,0,0.055555555555555546,38.83333333333333,0)" xlink:href="#ao"/></g><path fill="#fff" d="M103-194c29 0 47 14 56 36 2-11 5-23 8-32h30L160-5C157 61 82 97 21 62 9 55 4 45 1 30l28-7c7 42 83 31 92-3 4-16 9-38 13-55-13 20-29 36-62 36-40 0-60-25-60-64 0-71 23-131 91-131zm4 24c-53 0-58 54-61 104-2 27 10 44 36 44 49 0 65-50 67-102 1-29-15-46-42-46" id="az"/><g id="h"><use transform="matrix(0.055555555555555546,0,0,0.055555555555555546,0,0)" xlink:href="#aw"/><use transform="matrix(0.055555555555555546,0,0,0.055555555555555546,6.61111111111111,0)" xlink:href="#ap"/><use transform="matrix(0.055555555555555546,0,0,0.055555555555555546,17.722222222222218,0)" xlink:href="#av"/><use transform="matrix(0.055555555555555546,0,0,0.055555555555555546,28.83333333333333,0)" xlink:href="#av"/><use transform="matrix(0.055555555555555546,0,0,0.055555555555555546,39.944444444444436,0)" xlink:href="#an"/><use transform="matrix(0.055555555555555546,0,0,0.055555555555555546,44.33333333333332,0)" xlink:href="#av"/><use transform="matrix(0.055555555555555546,0,0,0.055555555555555546,55.44444444444443,0)" xlink:href="#az"/></g><g id="i"><use transform="matrix(0.055555555555555546,0,0,0.055555555555555546,0,0)" xlink:href="#ax"/><use transform="matrix(0.055555555555555546,0,0,0.055555555555555546,16.611111111111107,0)" xlink:href="#an"/><use transform="matrix(0.055555555555555546,0,0,0.055555555555555546,20.999999999999996,0)" xlink:href="#av"/><use transform="matrix(0.055555555555555546,0,0,0.055555555555555546,32.11111111111111,0)" xlink:href="#aq"/><use transform="matrix(0.055555555555555546,0,0,0.055555555555555546,43.222222222222214,0)" xlink:href="#aw"/></g><path fill="#fff" d="M67-162c32-53 139-36 121 50C175-51 163 2 97 4 68 4 52-11 42-31 38 6 28 39 22 75H-9l50-265h29c-1 10 0 20-3 28zm89 36c0-26-10-43-35-43-54 0-67 50-69 103-1 29 14 45 42 46 53 0 62-58 62-106" id="aA"/><path fill="#fff" d="M68-162c25-46 127-43 121 31C183-60 169 1 98 4 69 5 53-11 43-31L36 0H5l52-261h31zm88 36c2-27-9-43-34-43-55 0-70 51-70 103 0 29 15 45 43 46 52 0 58-58 61-106" id="aB"/><path fill="#fff" d="M6 0l50-261h32L37 0H6" id="aC"/><path fill="#fff" d="M67-158c15-20 31-36 64-36 94 0 33 127 27 194h-32l25-140c3-38-53-32-70-12C52-117 51-51 37 0H6l51-261h31" id="aD"/><g id="j"><use transform="matrix(0.055555555555555546,0,0,0.055555555555555546,0,0)" xlink:href="#aA"/><use transform="matrix(0.055555555555555546,0,0,0.055555555555555546,11.111111111111109,0)" xlink:href="#ap"/><use transform="matrix(0.055555555555555546,0,0,0.055555555555555546,22.222222222222218,0)" xlink:href="#aB"/><use transform="matrix(0.055555555555555546,0,0,0.055555555555555546,33.33333333333333,0)" xlink:href="#aC"/><use transform="matrix(0.055555555555555546,0,0,0.055555555555555546,37.722222222222214,0)" xlink:href="#an"/><use transform="matrix(0.055555555555555546,0,0,0.055555555555555546,42.1111111111111,0)" xlink:href="#ao"/><use transform="matrix(0.055555555555555546,0,0,0.055555555555555546,52.1111111111111,0)" xlink:href="#aD"/><use transform="matrix(0.055555555555555546,0,0,0.055555555555555546,63.222222222222214,0)" xlink:href="#aq"/><use transform="matrix(0.055555555555555546,0,0,0.055555555555555546,74.33333333333331,0)" xlink:href="#ao"/></g><path fill="#fff" d="M238-179c0 84-86 86-175 82L45 0H11l48-248c82 0 179-12 179 69zm-34 1c0-53-64-42-116-43l-19 98c63 0 135 9 135-55" id="aE"/><path fill="#fff" d="M44-154l7-36h35l-8 36H44zM14 0l7-36h35L49 0H14" id="aF"/><path fill="#fff" d="M20-101c0-91 52-143 145-150 126-9 127 168 53 223-23 17-55 32-93 32C57 4 20-33 20-101zm216-33c5-57-18-91-73-90-77 1-110 51-110 125 0 49 23 75 73 75 72-1 104-45 110-110" id="aG"/><path fill="#fff" d="M249-183c0 48-29 72-75 77L221 0h-36l-43-103H65L45 0H11l48-248c83 2 190-17 190 65zm-34 3c0-55-74-39-127-41l-18 92c63-1 145 13 145-51" id="aH"/><path fill="#fff" d="M151-220L108 0H75l42-220H32l6-28h203l-5 28h-85" id="aI"/><g id="k"><use transform="matrix(0.055555555555555546,0,0,0.055555555555555546,0,0)" xlink:href="#al"/><use transform="matrix(0.055555555555555546,0,0,0.055555555555555546,5.5555555555555545,0)" xlink:href="#aE"/><use transform="matrix(0.055555555555555546,0,0,0.055555555555555546,18.888888888888886,0)" xlink:href="#aF"/><use transform="matrix(0.055555555555555546,0,0,0.055555555555555546,24.44444444444444,0)" xlink:href="#aE"/><use transform="matrix(0.055555555555555546,0,0,0.055555555555555546,37.77777777777777,0)" xlink:href="#aG"/><use transform="matrix(0.055555555555555546,0,0,0.055555555555555546,53.33333333333333,0)" xlink:href="#aH"/><use transform="matrix(0.055555555555555546,0,0,0.055555555555555546,67.33333333333333,0)" xlink:href="#aI"/></g><path fill="#fff" d="M76-167L44 0H12l33-167H18l4-23h27c3-47 25-81 82-69l-4 24c-35-8-44 15-46 45h37l-5 23H76" id="aJ"/><g id="l"><use transform="matrix(0.055555555555555546,0,0,0.055555555555555546,0,0)" xlink:href="#at"/><use transform="matrix(0.055555555555555546,0,0,0.055555555555555546,11.111111111111109,0)" xlink:href="#aJ"/></g><g id="m"><use transform="matrix(0.055555555555555546,0,0,0.055555555555555546,0,0)" xlink:href="#an"/><use transform="matrix(0.055555555555555546,0,0,0.055555555555555546,4.388888888888888,0)" xlink:href="#as"/><use transform="matrix(0.055555555555555546,0,0,0.055555555555555546,9.944444444444443,0)" xlink:href="#ao"/></g><path fill="#fff" d="M187 0l-14-72H61L19 0h-37l149-248h38L221 0h-34zm-19-99l-22-123L76-99h92" id="aK"/><path fill="#fff" d="M124 0L87-78 21 0h-35l86-98-46-92h33l34 74 61-74h37l-83 92 50 98h-34" id="aL"/><g id="n"><use transform="matrix(0.055555555555555546,0,0,0.055555555555555546,0,0)" xlink:href="#aK"/><use transform="matrix(0.055555555555555546,0,0,0.055555555555555546,13.33333333333333,0)" xlink:href="#aL"/><use transform="matrix(0.055555555555555546,0,0,0.055555555555555546,23.33333333333333,0)" xlink:href="#at"/><use transform="matrix(0.055555555555555546,0,0,0.055555555555555546,34.444444444444436,0)" xlink:href="#av"/></g><path fill="#fff" d="M119 0H84L31-248h34l41 218 126-218h36" id="aM"/><g id="o"><use transform="matrix(0.055555555555555546,0,0,0.055555555555555546,0,0)" xlink:href="#aM"/><use transform="matrix(0.055555555555555546,0,0,0.055555555555555546,12.611111111111109,0)" xlink:href="#ay"/><use transform="matrix(0.055555555555555546,0,0,0.055555555555555546,23.722222222222218,0)" xlink:href="#aC"/><use transform="matrix(0.055555555555555546,0,0,0.055555555555555546,28.111111111111107,0)" xlink:href="#an"/><use transform="matrix(0.055555555555555546,0,0,0.055555555555555546,32.49999999999999,0)" xlink:href="#ar"/><use transform="matrix(0.055555555555555546,0,0,0.055555555555555546,43.6111111111111,0)" xlink:href="#ay"/><use transform="matrix(0.055555555555555546,0,0,0.055555555555555546,54.72222222222221,0)" xlink:href="#as"/><use transform="matrix(0.055555555555555546,0,0,0.055555555555555546,60.277777777777764,0)" xlink:href="#at"/><use transform="matrix(0.055555555555555546,0,0,0.055555555555555546,71.38888888888887,0)" xlink:href="#aw"/><use transform="matrix(0.055555555555555546,0,0,0.055555555555555546,77.99999999999999,0)" xlink:href="#ao"/></g><path fill="#fff" d="M44-68c0 29 11 47 38 47 30 0 42-19 51-41l28 9C148-21 126 4 82 4 31 4 10-29 12-85c3-77 74-140 146-93 12 8 15 23 18 40l-31 5c-1-22-13-36-36-36-52 0-65 49-65 101" id="aN"/><path fill="#fff" d="M-8 0l5-24 140-142H31l5-24h145l-5 24L36-24h119l-5 24H-8" id="aO"/><g id="p"><use transform="matrix(0.055555555555555546,0,0,0.055555555555555546,0,0)" xlink:href="#aw"/><use transform="matrix(0.055555555555555546,0,0,0.055555555555555546,6.61111111111111,0)" xlink:href="#aq"/><use transform="matrix(0.055555555555555546,0,0,0.055555555555555546,17.722222222222218,0)" xlink:href="#aN"/><use transform="matrix(0.055555555555555546,0,0,0.055555555555555546,27.722222222222214,0)" xlink:href="#at"/><use transform="matrix(0.055555555555555546,0,0,0.055555555555555546,38.83333333333332,0)" xlink:href="#az"/><use transform="matrix(0.055555555555555546,0,0,0.055555555555555546,49.94444444444443,0)" xlink:href="#av"/><use transform="matrix(0.055555555555555546,0,0,0.055555555555555546,61.05555555555553,0)" xlink:href="#an"/><use transform="matrix(0.055555555555555546,0,0,0.055555555555555546,65.44444444444443,0)" xlink:href="#aO"/><use transform="matrix(0.055555555555555546,0,0,0.055555555555555546,75.44444444444443,0)" xlink:href="#aq"/></g><g id="q"><use transform="matrix(0.055555555555555546,0,0,0.055555555555555546,0,0)" xlink:href="#as"/><use transform="matrix(0.055555555555555546,0,0,0.055555555555555546,5.5555555555555545,0)" xlink:href="#aD"/><use transform="matrix(0.055555555555555546,0,0,0.055555555555555546,16.666666666666664,0)" xlink:href="#aq"/></g><path fill="#fff" d="M188 0h-37l-8-164L71 0H34L18-190h31l8 164 75-164h34l8 164 74-164h31" id="aP"/><g id="r"><use transform="matrix(0.055555555555555546,0,0,0.055555555555555546,0,0)" xlink:href="#av"/><use transform="matrix(0.055555555555555546,0,0,0.055555555555555546,11.111111111111109,0)" xlink:href="#aq"/><use transform="matrix(0.055555555555555546,0,0,0.055555555555555546,22.222222222222218,0)" xlink:href="#aP"/></g><g id="s"><use transform="matrix(0.055555555555555546,0,0,0.055555555555555546,0,0)" xlink:href="#au"/><use transform="matrix(0.055555555555555546,0,0,0.055555555555555546,16.611111111111107,0)" xlink:href="#an"/><use transform="matrix(0.055555555555555546,0,0,0.055555555555555546,20.999999999999996,0)" xlink:href="#av"/><use transform="matrix(0.055555555555555546,0,0,0.055555555555555546,32.11111111111111,0)" xlink:href="#an"/><use transform="matrix(0.055555555555555546,0,0,0.055555555555555546,36.49999999999999,0)" xlink:href="#av"/><use transform="matrix(0.055555555555555546,0,0,0.055555555555555546,47.6111111111111,0)" xlink:href="#az"/></g><g id="t"><use transform="matrix(0.055555555555555546,0,0,0.055555555555555546,0,0)" xlink:href="#al"/><use transform="matrix(0.055555555555555546,0,0,0.055555555555555546,5.5555555555555545,0)" xlink:href="#aJ"/></g><g id="u"><use transform="matrix(0.055555555555555546,0,0,0.055555555555555546,0,0)" xlink:href="#as"/><use transform="matrix(0.055555555555555546,0,0,0.055555555555555546,5.5555555555555545,0)" xlink:href="#aD"/><use transform="matrix(0.055555555555555546,0,0,0.055555555555555546,16.666666666666664,0)" xlink:href="#aq"/></g><g id="v"><use transform="matrix(0.055555555555555546,0,0,0.055555555555555546,0,0)" xlink:href="#au"/><use transform="matrix(0.055555555555555546,0,0,0.055555555555555546,16.611111111111107,0)" xlink:href="#an"/><use transform="matrix(0.055555555555555546,0,0,0.055555555555555546,20.999999999999996,0)" xlink:href="#av"/><use transform="matrix(0.055555555555555546,0,0,0.055555555555555546,32.11111111111111,0)" xlink:href="#aq"/><use transform="matrix(0.055555555555555546,0,0,0.055555555555555546,43.222222222222214,0)" xlink:href="#aw"/></g><path fill="#fff" d="M89 0H52L20-190h33L74-25l89-165h34" id="aQ"/><g id="w"><use transform="matrix(0.055555555555555546,0,0,0.055555555555555546,0,0)" xlink:href="#an"/><use transform="matrix(0.055555555555555546,0,0,0.055555555555555546,4.388888888888888,0)" xlink:href="#av"/><use transform="matrix(0.055555555555555546,0,0,0.055555555555555546,15.499999999999996,0)" xlink:href="#aN"/><use transform="matrix(0.055555555555555546,0,0,0.055555555555555546,25.499999999999993,0)" xlink:href="#aq"/><use transform="matrix(0.055555555555555546,0,0,0.055555555555555546,36.6111111111111,0)" xlink:href="#av"/><use transform="matrix(0.055555555555555546,0,0,0.055555555555555546,47.72222222222221,0)" xlink:href="#as"/><use transform="matrix(0.055555555555555546,0,0,0.055555555555555546,53.277777777777764,0)" xlink:href="#an"/><use transform="matrix(0.055555555555555546,0,0,0.055555555555555546,57.66666666666666,0)" xlink:href="#aQ"/><use transform="matrix(0.055555555555555546,0,0,0.055555555555555546,67.66666666666664,0)" xlink:href="#aq"/></g><g id="x"><use transform="matrix(0.055555555555555546,0,0,0.055555555555555546,0,0)" xlink:href="#an"/><use transform="matrix(0.055555555555555546,0,0,0.055555555555555546,4.388888888888888,0)" xlink:href="#ao"/></g><g id="y"><use transform="matrix(0.055555555555555546,0,0,0.055555555555555546,0,0)" xlink:href="#as"/><use transform="matrix(0.055555555555555546,0,0,0.055555555555555546,5.5555555555555545,0)" xlink:href="#aD"/><use transform="matrix(0.055555555555555546,0,0,0.055555555555555546,16.666666666666664,0)" xlink:href="#aq"/></g><path fill="#fff" d="M58-38C53-5 46 26 28 46H7C19 32 27 18 32 0H17l7-38h34" id="aR"/><g id="z"><use transform="matrix(0.055555555555555546,0,0,0.055555555555555546,0,0)" xlink:href="#aC"/><use transform="matrix(0.055555555555555546,0,0,0.055555555555555546,4.388888888888888,0)" xlink:href="#at"/><use transform="matrix(0.055555555555555546,0,0,0.055555555555555546,15.499999999999996,0)" xlink:href="#aP"/><use transform="matrix(0.055555555555555546,0,0,0.055555555555555546,29.888888888888882,0)" xlink:href="#aq"/><use transform="matrix(0.055555555555555546,0,0,0.055555555555555546,40.99999999999999,0)" xlink:href="#ao"/><use transform="matrix(0.055555555555555546,0,0,0.055555555555555546,50.99999999999999,0)" xlink:href="#as"/><use transform="matrix(0.055555555555555546,0,0,0.055555555555555546,56.55555555555555,0)" xlink:href="#aR"/></g><g id="A"><use transform="matrix(0.055555555555555546,0,0,0.055555555555555546,0,0)" xlink:href="#as"/><use transform="matrix(0.055555555555555546,0,0,0.055555555555555546,5.5555555555555545,0)" xlink:href="#aD"/><use transform="matrix(0.055555555555555546,0,0,0.055555555555555546,16.666666666666664,0)" xlink:href="#an"/><use transform="matrix(0.055555555555555546,0,0,0.055555555555555546,21.055555555555554,0)" xlink:href="#ao"/></g><g id="B"><use transform="matrix(0.055555555555555546,0,0,0.055555555555555546,0,0)" xlink:href="#au"/><use transform="matrix(0.055555555555555546,0,0,0.055555555555555546,16.611111111111107,0)" xlink:href="#an"/><use transform="matrix(0.055555555555555546,0,0,0.055555555555555546,20.999999999999996,0)" xlink:href="#av"/><use transform="matrix(0.055555555555555546,0,0,0.055555555555555546,32.11111111111111,0)" xlink:href="#aq"/><use transform="matrix(0.055555555555555546,0,0,0.055555555555555546,43.222222222222214,0)" xlink:href="#aw"/></g><g id="C"><use transform="matrix(0.055555555555555546,0,0,0.055555555555555546,0,0)" xlink:href="#an"/><use transform="matrix(0.055555555555555546,0,0,0.055555555555555546,4.388888888888888,0)" xlink:href="#ao"/></g><path fill="#fff" d="M18-82l6-28h88l-6 28H18" id="aS"/><g id="D"><use transform="matrix(0.055555555555555546,0,0,0.055555555555555546,0,0)" xlink:href="#ar"/><use transform="matrix(0.055555555555555546,0,0,0.055555555555555546,11.111111111111109,0)" xlink:href="#aq"/><use transform="matrix(0.055555555555555546,0,0,0.055555555555555546,22.222222222222218,0)" xlink:href="#aS"/><use transform="matrix(0.055555555555555546,0,0,0.055555555555555546,28.83333333333333,0)" xlink:href="#aw"/><use transform="matrix(0.055555555555555546,0,0,0.055555555555555546,35.444444444444436,0)" xlink:href="#aq"/><use transform="matrix(0.055555555555555546,0,0,0.055555555555555546,46.55555555555554,0)" xlink:href="#az"/><use transform="matrix(0.055555555555555546,0,0,0.055555555555555546,57.66666666666666,0)" xlink:href="#an"/><use transform="matrix(0.055555555555555546,0,0,0.055555555555555546,62.05555555555553,0)" xlink:href="#ao"/><use transform="matrix(0.055555555555555546,0,0,0.055555555555555546,72.05555555555553,0)" xlink:href="#as"/><use transform="matrix(0.055555555555555546,0,0,0.055555555555555546,77.61111111111109,0)" xlink:href="#aq"/><use transform="matrix(0.055555555555555546,0,0,0.055555555555555546,88.7222222222222,0)" xlink:href="#aw"/><use transform="matrix(0.055555555555555546,0,0,0.055555555555555546,95.33333333333331,0)" xlink:href="#aq"/><use transform="matrix(0.055555555555555546,0,0,0.055555555555555546,106.44444444444443,0)" xlink:href="#ar"/></g><g id="E"><use transform="matrix(0.055555555555555546,0,0,0.055555555555555546,0,0)" xlink:href="#ay"/><use transform="matrix(0.055555555555555546,0,0,0.055555555555555546,11.111111111111109,0)" xlink:href="#aC"/><use transform="matrix(0.055555555555555546,0,0,0.055555555555555546,15.499999999999996,0)" xlink:href="#aC"/><use transform="matrix(0.055555555555555546,0,0,0.055555555555555546,19.888888888888886,0)" xlink:href="#at"/><use transform="matrix(0.055555555555555546,0,0,0.055555555555555546,30.999999999999993,0)" xlink:href="#aP"/></g><use transform="matrix(0.055555555555555546,0,0,0.055555555555555546,0,0)" xlink:href="#ay" id="F"/><g id="G"><use transform="matrix(0.055555555555555546,0,0,0.055555555555555546,0,0)" xlink:href="#av"/><use transform="matrix(0.055555555555555546,0,0,0.055555555555555546,11.111111111111109,0)" xlink:href="#aq"/><use transform="matrix(0.055555555555555546,0,0,0.055555555555555546,22.222222222222218,0)" xlink:href="#aP"/></g><g id="H"><use transform="matrix(0.055555555555555546,0,0,0.055555555555555546,0,0)" xlink:href="#aw"/><use transform="matrix(0.055555555555555546,0,0,0.055555555555555546,6.61111111111111,0)" xlink:href="#aq"/><use transform="matrix(0.055555555555555546,0,0,0.055555555555555546,17.722222222222218,0)" xlink:href="#az"/><use transform="matrix(0.055555555555555546,0,0,0.055555555555555546,28.83333333333333,0)" xlink:href="#an"/><use transform="matrix(0.055555555555555546,0,0,0.055555555555555546,33.222222222222214,0)" xlink:href="#ao"/><use transform="matrix(0.055555555555555546,0,0,0.055555555555555546,43.222222222222214,0)" xlink:href="#as"/><use transform="matrix(0.055555555555555546,0,0,0.055555555555555546,48.77777777777777,0)" xlink:href="#aw"/><use transform="matrix(0.055555555555555546,0,0,0.055555555555555546,55.38888888888888,0)" xlink:href="#ay"/><use transform="matrix(0.055555555555555546,0,0,0.055555555555555546,66.49999999999999,0)" xlink:href="#as"/><use transform="matrix(0.055555555555555546,0,0,0.055555555555555546,72.05555555555554,0)" xlink:href="#an"/><use transform="matrix(0.055555555555555546,0,0,0.055555555555555546,76.44444444444443,0)" xlink:href="#at"/><use transform="matrix(0.055555555555555546,0,0,0.055555555555555546,87.55555555555554,0)" xlink:href="#av"/></g><g id="I"><use transform="matrix(0.055555555555555546,0,0,0.055555555555555546,0,0)" xlink:href="#av"/><use transform="matrix(0.055555555555555546,0,0,0.055555555555555546,11.111111111111109,0)" xlink:href="#at"/><use transform="matrix(0.055555555555555546,0,0,0.055555555555555546,22.222222222222218,0)" xlink:href="#as"/></g><g id="J"><use transform="matrix(0.055555555555555546,0,0,0.055555555555555546,0,0)" xlink:href="#as"/><use transform="matrix(0.055555555555555546,0,0,0.055555555555555546,5.5555555555555545,0)" xlink:href="#aD"/><use transform="matrix(0.055555555555555546,0,0,0.055555555555555546,16.666666666666664,0)" xlink:href="#an"/><use transform="matrix(0.055555555555555546,0,0,0.055555555555555546,21.055555555555554,0)" xlink:href="#ao"/></g><g id="K"><use transform="matrix(0.055555555555555546,0,0,0.055555555555555546,0,0)" xlink:href="#ar"/><use transform="matrix(0.055555555555555546,0,0,0.055555555555555546,11.111111111111109,0)" xlink:href="#aq"/><use transform="matrix(0.055555555555555546,0,0,0.055555555555555546,22.222222222222218,0)" xlink:href="#aS"/><use transform="matrix(0.055555555555555546,0,0,0.055555555555555546,28.83333333333333,0)" xlink:href="#aw"/><use transform="matrix(0.055555555555555546,0,0,0.055555555555555546,35.444444444444436,0)" xlink:href="#aq"/><use transform="matrix(0.055555555555555546,0,0,0.055555555555555546,46.55555555555554,0)" xlink:href="#az"/><use transform="matrix(0.055555555555555546,0,0,0.055555555555555546,57.66666666666666,0)" xlink:href="#an"/><use transform="matrix(0.055555555555555546,0,0,0.055555555555555546,62.05555555555553,0)" xlink:href="#ao"/><use transform="matrix(0.055555555555555546,0,0,0.055555555555555546,72.05555555555553,0)" xlink:href="#as"/><use transform="matrix(0.055555555555555546,0,0,0.055555555555555546,77.61111111111109,0)" xlink:href="#aq"/><use transform="matrix(0.055555555555555546,0,0,0.055555555555555546,88.7222222222222,0)" xlink:href="#aw"/><use transform="matrix(0.055555555555555546,0,0,0.055555555555555546,95.33333333333331,0)" xlink:href="#aq"/><use transform="matrix(0.055555555555555546,0,0,0.055555555555555546,106.44444444444443,0)" xlink:href="#ar"/></g><path fill="#fff" d="M144-137c-1-29-70-35-71-2 16 41 103 10 103 80C176 9 79 16 32-9 18-17 9-31 4-48l44-6c3 32 80 36 82 1-15-42-103-11-103-82 0-77 157-79 161-8" id="aT"/><path fill="#fff" d="M69 3c-96 0-34-126-28-193h49L65-57c6 42 62 18 71-6 14-38 17-86 28-127h50L178 0h-47c0-11 4-26 3-33-14 20-30 37-65 36" id="aU"/><path fill="#fff" d="M87-160c15-17 32-34 63-34 99 1 59 172-1 192-36 12-78 0-87-29L54 0H6l52-261h49zm71 38c0-24-5-37-29-37-46 0-55 46-57 89-1 25 12 40 35 40 44 0 51-50 51-92" id="aV"/><path fill="#fff" d="M151-194c95 0 34 128 28 194h-49l25-134c0-29-45-25-59-9C67-111 69-48 56 0H6l36-190h47l-4 32c15-20 33-36 66-36" id="aW"/><path fill="#fff" d="M114-194c63-2 87 48 72 110H63c-3 28 1 55 31 54 21-1 32-13 37-29l44 13C160-14 137 4 91 4 41 4 11-22 11-73c0-71 33-119 103-121zm30 77c14-47-50-61-67-22-3 6-6 13-8 22h75" id="aX"/><path fill="#fff" d="M72-63c-8 23 5 39 32 30L98-1C54 14 12-6 23-64l18-93H15l7-33h28l24-45h31l-8 45h35l-6 33H90" id="aY"/><g id="L"><use transform="matrix(0.055555555555555546,0,0,0.055555555555555546,0,0)" xlink:href="#aT"/><use transform="matrix(0.055555555555555546,0,0,0.055555555555555546,11.111111111111109,0)" xlink:href="#aU"/><use transform="matrix(0.055555555555555546,0,0,0.055555555555555546,23.27777777777777,0)" xlink:href="#aV"/><use transform="matrix(0.055555555555555546,0,0,0.055555555555555546,35.444444444444436,0)" xlink:href="#aW"/><use transform="matrix(0.055555555555555546,0,0,0.055555555555555546,47.6111111111111,0)" xlink:href="#aX"/><use transform="matrix(0.055555555555555546,0,0,0.055555555555555546,58.722222222222214,0)" xlink:href="#aY"/></g><path fill="#fff" d="M255-194c90 0 29 129 24 194h-49l25-136c-7-39-53-14-60 9-12 38-18 85-28 127h-49l25-136c2-29-39-23-50-7C69-108 68-47 56 0H6l36-190h48c-1 10-6 24-4 32 12-20 27-36 57-36s46 15 50 41c14-21 29-41 62-41" id="aZ"/><path fill="#fff" d="M50-224l7-37h49l-7 37H50zM6 0l37-190h49L55 0H6" id="ba"/><path fill="#fff" d="M84-151c13-25 34-51 72-40l-8 41C67-170 71-64 56 0H6l36-190h47" id="bb"/><g id="M"><use transform="matrix(0.055555555555555546,0,0,0.055555555555555546,0,0)" xlink:href="#aZ"/><use transform="matrix(0.055555555555555546,0,0,0.055555555555555546,17.777777777777775,0)" xlink:href="#ba"/><use transform="matrix(0.055555555555555546,0,0,0.055555555555555546,23.33333333333333,0)" xlink:href="#aW"/><use transform="matrix(0.055555555555555546,0,0,0.055555555555555546,35.49999999999999,0)" xlink:href="#aX"/><use transform="matrix(0.055555555555555546,0,0,0.055555555555555546,46.6111111111111,0)" xlink:href="#bb"/></g><path fill="#fff" d="M109 0H50L19-190h51L86-37l77-153h54" id="bc"/><path fill="#fff" d="M166-52c-4 17 5 29 24 23l-3 27c-30 11-74 1-67-34C105-15 91 4 56 4 23 4 3-15 2-49c0-64 63-67 128-67 10-22 3-53-29-45-13 3-22 10-25 24l-46-5c5-64 156-77 153 0-1 33-11 60-17 90zM97-88c-44-9-64 57-19 57 31 0 42-28 47-57H97" id="bd"/><path fill="#fff" d="M6 0l51-261h49L55 0H6" id="be"/><path fill="#fff" d="M132-28C118-9 101 4 69 4 30 4 10-23 10-62c0-70 24-129 92-132 31-1 47 14 56 35l19-102h49L179 0h-49zM62-69c0 22 7 39 29 39 45-2 54-45 57-90 2-27-10-40-33-40-44 0-53 48-53 91" id="bf"/><path fill="#fff" d="M124-194c51 0 84 22 84 74C207-44 167 4 94 4 43 4 11-23 11-74c0-74 41-120 113-120zM99-30c46 0 58-42 58-86 0-27-11-44-37-44-44 0-55 40-57 84-1 27 10 45 36 46" id="bg"/><g id="N"><use transform="matrix(0.055555555555555546,0,0,0.055555555555555546,0,0)" xlink:href="#bc"/><use transform="matrix(0.055555555555555546,0,0,0.055555555555555546,11.111111111111109,0)" xlink:href="#bd"/><use transform="matrix(0.055555555555555546,0,0,0.055555555555555546,22.222222222222218,0)" xlink:href="#be"/><use transform="matrix(0.055555555555555546,0,0,0.055555555555555546,27.77777777777777,0)" xlink:href="#ba"/><use transform="matrix(0.055555555555555546,0,0,0.055555555555555546,33.33333333333333,0)" xlink:href="#bf"/><use transform="matrix(0.055555555555555546,0,0,0.055555555555555546,45.49999999999999,0)" xlink:href="#bd"/><use transform="matrix(0.055555555555555546,0,0,0.055555555555555546,56.6111111111111,0)" xlink:href="#aY"/><use transform="matrix(0.055555555555555546,0,0,0.055555555555555546,63.222222222222214,0)" xlink:href="#bg"/><use transform="matrix(0.055555555555555546,0,0,0.055555555555555546,75.38888888888887,0)" xlink:href="#bb"/><use transform="matrix(0.055555555555555546,0,0,0.055555555555555546,83.16666666666664,0)" xlink:href="#aT"/></g><path fill="#fff" d="M212 0l43-212L151 0h-37L90-212C82-137 65-70 52 0H6l48-248h70l20 187 93-187h69L258 0h-46" id="bh"/><g id="O"><use transform="matrix(0.055555555555555546,0,0,0.055555555555555546,0,0)" xlink:href="#bh"/><use transform="matrix(0.055555555555555546,0,0,0.055555555555555546,16.611111111111107,0)" xlink:href="#ba"/><use transform="matrix(0.055555555555555546,0,0,0.055555555555555546,22.16666666666666,0)" xlink:href="#aW"/><use transform="matrix(0.055555555555555546,0,0,0.055555555555555546,34.33333333333333,0)" xlink:href="#aX"/><use transform="matrix(0.055555555555555546,0,0,0.055555555555555546,45.444444444444436,0)" xlink:href="#bb"/></g><path fill="#fff" d="M67-101c-8 29-7 73 27 71 23-2 32-16 39-37l48 9C170-19 141 4 91 4 36 4 7-28 12-86c6-75 61-124 140-103 26 7 40 29 43 59l-50 4c-1-20-9-34-29-34-35 0-41 29-49 59" id="bi"/><g id="P"><use transform="matrix(0.055555555555555546,0,0,0.055555555555555546,0,0)" xlink:href="#ba"/><use transform="matrix(0.055555555555555546,0,0,0.055555555555555546,5.5555555555555545,0)" xlink:href="#aW"/><use transform="matrix(0.055555555555555546,0,0,0.055555555555555546,17.722222222222218,0)" xlink:href="#bi"/><use transform="matrix(0.055555555555555546,0,0,0.055555555555555546,28.83333333333333,0)" xlink:href="#aX"/><use transform="matrix(0.055555555555555546,0,0,0.055555555555555546,39.944444444444436,0)" xlink:href="#aW"/><use transform="matrix(0.055555555555555546,0,0,0.055555555555555546,52.1111111111111,0)" xlink:href="#aY"/><use transform="matrix(0.055555555555555546,0,0,0.055555555555555546,58.722222222222214,0)" xlink:href="#ba"/><use transform="matrix(0.055555555555555546,0,0,0.055555555555555546,64.27777777777776,0)" xlink:href="#bc"/><use transform="matrix(0.055555555555555546,0,0,0.055555555555555546,75.38888888888887,0)" xlink:href="#aX"/></g><g id="Q"><use transform="matrix(0.055555555555555546,0,0,0.055555555555555546,0,0)" xlink:href="#aY"/><use transform="matrix(0.055555555555555546,0,0,0.055555555555555546,6.61111111111111,0)" xlink:href="#ba"/><use transform="matrix(0.055555555555555546,0,0,0.055555555555555546,12.166666666666664,0)" xlink:href="#aZ"/><use transform="matrix(0.055555555555555546,0,0,0.055555555555555546,29.94444444444444,0)" xlink:href="#aX"/></g><path fill="#fff" d="M13-52c0-97 37-163 91-209h50c-53 52-92 115-92 212 0 48 8 90 25 124H39C22 40 13-2 13-52" id="bj"/><g id="R"><use transform="matrix(0.055555555555555546,0,0,0.055555555555555546,0,0)" xlink:href="#bj"/><use transform="matrix(0.055555555555555546,0,0,0.055555555555555546,6.61111111111111,0)" xlink:href="#aT"/><use transform="matrix(0.055555555555555546,0,0,0.055555555555555546,17.722222222222218,0)" xlink:href="#aU"/><use transform="matrix(0.055555555555555546,0,0,0.055555555555555546,29.888888888888882,0)" xlink:href="#aV"/><use transform="matrix(0.055555555555555546,0,0,0.055555555555555546,42.05555555555554,0)" xlink:href="#aY"/><use transform="matrix(0.055555555555555546,0,0,0.055555555555555546,48.66666666666665,0)" xlink:href="#aX"/><use transform="matrix(0.055555555555555546,0,0,0.055555555555555546,59.77777777777776,0)" xlink:href="#aW"/><use transform="matrix(0.055555555555555546,0,0,0.055555555555555546,71.94444444444443,0)" xlink:href="#aT"/><use transform="matrix(0.055555555555555546,0,0,0.055555555555555546,83.05555555555554,0)" xlink:href="#bg"/><use transform="matrix(0.055555555555555546,0,0,0.055555555555555546,95.2222222222222,0)" xlink:href="#bb"/></g><path fill="#fff" d="M128 0L95-87 70-74 55 0H6l51-261h49L77-111l82-79h56l-83 74L180 0h-52" id="bk"/><path fill="#fff" d="M109-139C109-39 71 27 18 75h-50C22 21 61-44 61-142c0-46-11-87-27-119h47c17 31 28 75 28 122" id="bl"/><g id="S"><use transform="matrix(0.055555555555555546,0,0,0.055555555555555546,0,0)" xlink:href="#aV"/><use transform="matrix(0.055555555555555546,0,0,0.055555555555555546,12.166666666666664,0)" xlink:href="#be"/><use transform="matrix(0.055555555555555546,0,0,0.055555555555555546,17.722222222222218,0)" xlink:href="#bg"/><use transform="matrix(0.055555555555555546,0,0,0.055555555555555546,29.888888888888882,0)" xlink:href="#bi"/><use transform="matrix(0.055555555555555546,0,0,0.055555555555555546,40.99999999999999,0)" xlink:href="#bk"/><use transform="matrix(0.055555555555555546,0,0,0.055555555555555546,52.1111111111111,0)" xlink:href="#aT"/><use transform="matrix(0.055555555555555546,0,0,0.055555555555555546,63.222222222222214,0)" xlink:href="#bl"/></g><path fill="#fff" d="M198-190L69 30C53 58 25 83-20 72c4-11-1-27 19-22 33-1 43-29 59-52L20-190h32L79-34l84-156h35" id="bm"/><path fill="#fff" d="M-28 44V31h207v13H-28" id="bn"/><g id="T"><use transform="matrix(0.06172839506172839,0,0,0.06172839506172839,0,0)" xlink:href="#an"/><use transform="matrix(0.06172839506172839,0,0,0.06172839506172839,4.876543209876543,0)" xlink:href="#au"/><use transform="matrix(0.06172839506172839,0,0,0.06172839506172839,23.33333333333333,0)" xlink:href="#au"/><use transform="matrix(0.06172839506172839,0,0,0.06172839506172839,41.79012345679011,0)" xlink:href="#ap"/><use transform="matrix(0.06172839506172839,0,0,0.06172839506172839,54.13580246913579,0)" xlink:href="#av"/><use transform="matrix(0.06172839506172839,0,0,0.06172839506172839,66.48148148148147,0)" xlink:href="#an"/><use transform="matrix(0.06172839506172839,0,0,0.06172839506172839,71.35802469135801,0)" xlink:href="#as"/><use transform="matrix(0.06172839506172839,0,0,0.06172839506172839,77.53086419753085,0)" xlink:href="#bm"/><use transform="matrix(0.06172839506172839,0,0,0.06172839506172839,88.64197530864196,0)" xlink:href="#bn"/><use transform="matrix(0.06172839506172839,0,0,0.06172839506172839,100.98765432098764,0)" xlink:href="#aA"/><use transform="matrix(0.06172839506172839,0,0,0.06172839506172839,113.33333333333333,0)" xlink:href="#aq"/><use transform="matrix(0.06172839506172839,0,0,0.06172839506172839,125.67901234567901,0)" xlink:href="#aw"/><use transform="matrix(0.06172839506172839,0,0,0.06172839506172839,133.02469135802468,0)" xlink:href="#an"/><use transform="matrix(0.06172839506172839,0,0,0.06172839506172839,137.9012345679012,0)" xlink:href="#at"/><use transform="matrix(0.06172839506172839,0,0,0.06172839506172839,150.24691358024688,0)" xlink:href="#ar"/></g><g id="U"><use transform="matrix(0.055555555555555546,0,0,0.055555555555555546,0,0)" xlink:href="#an"/><use transform="matrix(0.055555555555555546,0,0,0.055555555555555546,4.388888888888888,0)" xlink:href="#au"/><use transform="matrix(0.055555555555555546,0,0,0.055555555555555546,20.999999999999996,0)" xlink:href="#au"/><use transform="matrix(0.055555555555555546,0,0,0.055555555555555546,37.6111111111111,0)" xlink:href="#ap"/><use transform="matrix(0.055555555555555546,0,0,0.055555555555555546,48.72222222222221,0)" xlink:href="#av"/><use transform="matrix(0.055555555555555546,0,0,0.055555555555555546,59.83333333333331,0)" xlink:href="#an"/><use transform="matrix(0.055555555555555546,0,0,0.055555555555555546,64.2222222222222,0)" xlink:href="#as"/><use transform="matrix(0.055555555555555546,0,0,0.055555555555555546,69.77777777777776,0)" xlink:href="#bm"/></g><g id="V"><use transform="matrix(0.055555555555555546,0,0,0.055555555555555546,0,0)" xlink:href="#aA"/><use transform="matrix(0.055555555555555546,0,0,0.055555555555555546,11.111111111111109,0)" xlink:href="#aq"/><use transform="matrix(0.055555555555555546,0,0,0.055555555555555546,22.222222222222218,0)" xlink:href="#aw"/><use transform="matrix(0.055555555555555546,0,0,0.055555555555555546,28.83333333333333,0)" xlink:href="#an"/><use transform="matrix(0.055555555555555546,0,0,0.055555555555555546,33.222222222222214,0)" xlink:href="#at"/><use transform="matrix(0.055555555555555546,0,0,0.055555555555555546,44.33333333333332,0)" xlink:href="#ar"/></g><g id="W"><use transform="matrix(0.055555555555555546,0,0,0.055555555555555546,0,0)" xlink:href="#aq"/><use transform="matrix(0.055555555555555546,0,0,0.055555555555555546,11.111111111111109,0)" xlink:href="#av"/><use transform="matrix(0.055555555555555546,0,0,0.055555555555555546,22.222222222222218,0)" xlink:href="#ar"/><use transform="matrix(0.055555555555555546,0,0,0.055555555555555546,33.33333333333333,0)" xlink:href="#ao"/></g><g id="X"><use transform="matrix(0.055555555555555546,0,0,0.055555555555555546,0,0)" xlink:href="#ao"/><use transform="matrix(0.055555555555555546,0,0,0.055555555555555546,9.999999999999998,0)" xlink:href="#as"/><use transform="matrix(0.055555555555555546,0,0,0.055555555555555546,15.555555555555554,0)" xlink:href="#ay"/><use transform="matrix(0.055555555555555546,0,0,0.055555555555555546,26.666666666666664,0)" xlink:href="#aw"/><use transform="matrix(0.055555555555555546,0,0,0.055555555555555546,33.27777777777777,0)" xlink:href="#as"/><use transform="matrix(0.055555555555555546,0,0,0.055555555555555546,38.83333333333333,0)" xlink:href="#ao"/></g><g id="Y"><use transform="matrix(0.055555555555555546,0,0,0.055555555555555546,0,0)" xlink:href="#an"/><use transform="matrix(0.055555555555555546,0,0,0.055555555555555546,4.388888888888888,0)" xlink:href="#av"/><use transform="matrix(0.055555555555555546,0,0,0.055555555555555546,15.499999999999996,0)" xlink:href="#aN"/><use transform="matrix(0.055555555555555546,0,0,0.055555555555555546,25.499999999999993,0)" xlink:href="#aq"/><use transform="matrix(0.055555555555555546,0,0,0.055555555555555546,36.6111111111111,0)" xlink:href="#av"/><use transform="matrix(0.055555555555555546,0,0,0.055555555555555546,47.72222222222221,0)" xlink:href="#as"/><use transform="matrix(0.055555555555555546,0,0,0.055555555555555546,53.277777777777764,0)" xlink:href="#an"/><use transform="matrix(0.055555555555555546,0,0,0.055555555555555546,57.66666666666666,0)" xlink:href="#aQ"/><use transform="matrix(0.055555555555555546,0,0,0.055555555555555546,67.66666666666664,0)" xlink:href="#aq"/></g><g id="Z"><use transform="matrix(0.055555555555555546,0,0,0.055555555555555546,0,0)" xlink:href="#ay"/><use transform="matrix(0.055555555555555546,0,0,0.055555555555555546,11.111111111111109,0)" xlink:href="#aN"/><use transform="matrix(0.055555555555555546,0,0,0.055555555555555546,21.111111111111107,0)" xlink:href="#aN"/><use transform="matrix(0.055555555555555546,0,0,0.055555555555555546,31.111111111111107,0)" xlink:href="#ap"/><use transform="matrix(0.055555555555555546,0,0,0.055555555555555546,42.222222222222214,0)" xlink:href="#au"/><use transform="matrix(0.055555555555555546,0,0,0.055555555555555546,58.83333333333332,0)" xlink:href="#ap"/><use transform="matrix(0.055555555555555546,0,0,0.055555555555555546,69.94444444444443,0)" xlink:href="#aC"/><use transform="matrix(0.055555555555555546,0,0,0.055555555555555546,74.33333333333331,0)" xlink:href="#ay"/><use transform="matrix(0.055555555555555546,0,0,0.055555555555555546,85.44444444444443,0)" xlink:href="#as"/><use transform="matrix(0.055555555555555546,0,0,0.055555555555555546,90.99999999999999,0)" xlink:href="#aq"/><use transform="matrix(0.055555555555555546,0,0,0.055555555555555546,102.1111111111111,0)" xlink:href="#ao"/></g><g id="aa"><use transform="matrix(0.055555555555555546,0,0,0.055555555555555546,0,0)" xlink:href="#aq"/><use transform="matrix(0.055555555555555546,0,0,0.055555555555555546,11.111111111111109,0)" xlink:href="#aQ"/><use transform="matrix(0.055555555555555546,0,0,0.055555555555555546,21.111111111111107,0)" xlink:href="#aq"/><use transform="matrix(0.055555555555555546,0,0,0.055555555555555546,32.222222222222214,0)" xlink:href="#aw"/><use transform="matrix(0.055555555555555546,0,0,0.055555555555555546,38.83333333333332,0)" xlink:href="#bm"/></g><g id="ab"><use transform="matrix(0.055555555555555546,0,0,0.055555555555555546,0,0)" xlink:href="#ao"/><use transform="matrix(0.055555555555555546,0,0,0.055555555555555546,9.999999999999998,0)" xlink:href="#ap"/><use transform="matrix(0.055555555555555546,0,0,0.055555555555555546,21.111111111111107,0)" xlink:href="#aB"/><use transform="matrix(0.055555555555555546,0,0,0.055555555555555546,32.222222222222214,0)" xlink:href="#av"/><use transform="matrix(0.055555555555555546,0,0,0.055555555555555546,43.33333333333332,0)" xlink:href="#aq"/><use transform="matrix(0.055555555555555546,0,0,0.055555555555555546,54.44444444444443,0)" xlink:href="#as"/><use transform="matrix(0.055555555555555546,0,0,0.055555555555555546,59.999999999999986,0)" xlink:href="#aS"/><use transform="matrix(0.055555555555555546,0,0,0.055555555555555546,66.6111111111111,0)" xlink:href="#ao"/><use transform="matrix(0.055555555555555546,0,0,0.055555555555555546,76.6111111111111,0)" xlink:href="#aA"/><use transform="matrix(0.055555555555555546,0,0,0.055555555555555546,87.72222222222221,0)" xlink:href="#aq"/><use transform="matrix(0.055555555555555546,0,0,0.055555555555555546,98.83333333333333,0)" xlink:href="#aN"/><use transform="matrix(0.055555555555555546,0,0,0.055555555555555546,108.83333333333333,0)" xlink:href="#an"/><use transform="matrix(0.055555555555555546,0,0,0.055555555555555546,113.22222222222221,0)" xlink:href="#aJ"/><use transform="matrix(0.055555555555555546,0,0,0.055555555555555546,118.77777777777779,0)" xlink:href="#an"/><use transform="matrix(0.055555555555555546,0,0,0.055555555555555546,123.16666666666667,0)" xlink:href="#aN"/></g><g id="ac"><use transform="matrix(0.055555555555555546,0,0,0.055555555555555546,0,0)" xlink:href="#as"/><use transform="matrix(0.055555555555555546,0,0,0.055555555555555546,5.5555555555555545,0)" xlink:href="#aq"/><use transform="matrix(0.055555555555555546,0,0,0.055555555555555546,16.666666666666664,0)" xlink:href="#au"/><use transform="matrix(0.055555555555555546,0,0,0.055555555555555546,33.27777777777777,0)" xlink:href="#aA"/><use transform="matrix(0.055555555555555546,0,0,0.055555555555555546,44.38888888888888,0)" xlink:href="#at"/></g></defs></g></svg>