<svg xmlns="http://www.w3.org/2000/svg" xmlns:xlink="http://www.w3.org/1999/xlink" xmlns:lucid="lucid" width="1162" height="1167.38"><g transform="translate(-79 406.377020702056)" lucid:page-tab-id="0_0"><path d="M120 446a6 6 0 0 1 6-6h888a6 6 0 0 1 6 6v288a6 6 0 0 1-6 6H126a6 6 0 0 1-6-6z" fill-opacity="0"/><path d="M145.73 440h19.74m9.86 0h19.74m9.86 0h19.74m9.86 0h19.74m9.86 0h19.74m9.86 0h19.74m9.86 0h19.74m9.86 0h19.74m9.86 0h19.74m9.86 0h19.74m9.86 0h19.74m9.86 0h19.74m9.86 0h19.74m9.86 0h19.74m9.86 0h19.74m9.86 0h19.74m9.86 0h19.74m9.86 0h19.74m9.86 0h19.74m9.86 0h19.74m9.86 0h19.74m9.86 0h19.74m9.86 0h19.74m9.86 0h19.74m9.86 0h19.74m9.86 0h19.74m9.86 0h19.74m9.86 0h19.74m9.86 0h19.74m9.86 0h9.87l.94.07.9.22.88.35.8.5.72.6.6.72.5.8.37.88.23.9.07.95v9.6m0 9.6v19.2m0 9.6v19.2m0 9.6V542m0 9.6v19.2m0 9.6v19.2m0 9.6v19.2m0 9.6v19.2m0 9.6V686m0 9.6v19.2m0 9.6v9.6l-.07.94-.22.9-.35.88-.5.8-.6.72-.72.6-.8.5-.88.37-.9.23-.95.07h-9.87m-9.86 0h-19.74m-9.86 0h-19.74m-9.86 0h-19.74m-9.86 0h-19.74m-9.86 0h-19.74m-9.86 0h-19.74m-9.86 0h-19.74m-9.86 0h-19.74m-9.86 0h-19.74m-9.86 0h-19.74m-9.86 0h-19.74m-9.86 0h-19.74m-9.86 0h-19.74m-9.86 0h-19.74m-9.86 0h-19.74m-9.86 0h-19.74m-9.86 0h-19.74m-9.86 0h-19.74m-9.86 0h-19.74m-9.86 0h-19.74m-9.86 0h-19.74m-9.86 0h-19.74m-9.86 0h-19.74m-9.86 0h-19.74m-9.86 0h-19.74m-9.86 0h-19.74m-9.86 0h-19.74m-9.86 0h-19.74m-9.86 0h-19.74m-9.86 0H126l-.94-.07-.9-.22-.88-.35-.8-.5-.72-.6-.6-.72-.5-.8-.37-.88-.23-.9-.07-.95v-9.6m0-9.6v-19.2m0-9.6v-19.2m0-9.6V638m0-9.6v-19.2m0-9.6v-19.2m0-9.6v-19.2m0-9.6v-19.2m0-9.6V494m0-9.6v-19.2m0-9.6V446l.07-.94.22-.9.35-.88.5-.8.6-.72.72-.6.8-.5.88-.37.9-.23.95-.07h9.87" stroke="#e81313" stroke-width="2" fill="none"/><path d="M200 593.55a6 6 0 0 1 6-6h728a6 6 0 0 1 6 6v108a6 6 0 0 1-6 6H206a6 6 0 0 1-6-6z" fill-opacity="0"/><path d="M215.9 587.55h9.9m4.96 0h9.9m4.96 0h9.9m4.96 0h9.9m4.95 0h9.9m4.96 0h9.9m4.95 0h9.9m4.95 0h9.9m4.96 0h9.9m4.96 0h9.9m4.96 0h9.9m4.95 0h9.9m4.96 0h9.9m4.95 0h9.9m4.95 0h9.9m4.96 0h9.9m4.96 0h9.9m4.96 0h9.9m4.95 0h9.9m4.96 0h9.9m4.95 0h9.9m4.95 0h9.9m4.96 0h9.9m4.96 0h9.9m4.96 0h9.9m4.95 0h9.9m4.96 0h9.9m4.95 0h9.9m4.95 0h9.9m4.96 0h9.9m4.96 0h9.9m4.96 0h9.9m4.95 0h9.9m4.96 0h9.9m4.95 0h9.9m4.95 0h9.9m4.96 0h9.9m4.96 0h9.9m4.96 0h9.9m4.95 0h9.9m4.96 0h9.9m4.95 0h9.9m4.95 0h9.9m4.96 0h9.9m4.96 0h9.9m4.96 0h9.9m4.95 0h9.9m4.96 0h9.9m4.95 0H934l.94.07.9.22.88.36.8.5.72.6.6.72.5.8.37.88.23.9.07.95v5.14m0 5.13v10.3m0 5.13v10.3m0 5.13v10.28m0 5.14v10.3m0 5.13v10.3m0 5.13v10.28m0 5.15v5.15l-.07.94-.22.9-.35.87-.5.8-.6.72-.72.6-.8.5-.88.36-.9.22-.95.07h-4.95m-4.95 0h-9.9m-4.96 0h-9.9m-4.96 0h-9.9m-4.96 0h-9.9m-4.95 0h-9.9m-4.96 0h-9.9m-4.95 0h-9.9m-4.95 0h-9.9m-4.96 0h-9.9m-4.96 0h-9.9m-4.96 0h-9.9m-4.95 0h-9.9m-4.96 0h-9.9m-4.95 0h-9.9m-4.95 0h-9.9m-4.96 0h-9.9m-4.96 0h-9.9m-4.96 0h-9.9m-4.95 0h-9.9m-4.96 0h-9.9m-4.95 0h-9.9m-4.95 0h-9.9m-4.96 0h-9.9m-4.96 0h-9.9m-4.96 0h-9.9m-4.95 0h-9.9m-4.96 0h-9.9m-4.95 0h-9.9m-4.95 0h-9.9m-4.96 0h-9.9m-4.96 0h-9.9m-4.96 0h-9.9m-4.95 0h-9.9m-4.96 0h-9.9m-4.95 0h-9.9m-4.95 0h-9.9m-4.96 0h-9.9m-4.96 0h-9.9m-4.96 0h-9.9m-4.95 0h-9.9m-4.96 0h-9.9m-4.95 0h-9.9m-4.95 0h-9.9m-4.96 0h-9.9m-4.96 0h-9.9m-4.96 0h-9.9m-4.95 0h-9.9m-4.96 0h-9.9m-4.95 0H206l-.94-.07-.9-.22-.88-.36-.8-.5-.72-.6-.6-.72-.5-.8-.37-.88-.23-.9-.07-.95v-5.14m0-5.14v-10.28m0-5.14v-10.3m0-5.13v-10.28m0-5.14v-10.3m0-5.13v-10.3m0-5.13v-10.28m0-5.15v-5.15l.07-.94.22-.9.35-.87.5-.8.6-.72.72-.6.8-.5.88-.36.9-.22.95-.07h4.95" stroke="#fff" fill="none"/><path d="M120 225a6 6 0 0 1 6-6h888a6 6 0 0 1 6 6v168a6 6 0 0 1-6 6H126a6 6 0 0 1-6-6z" fill-opacity="0"/><path d="M136.03 219h10.04m5.02 0h10.02m5.02 0h10.03m5.02 0h10.02m5.02 0h10.03m5.02 0h10.02m5.02 0h10.03m5.02 0h10.02m5.02 0h10.04m5 0h10.04m5.02 0h10.04m5 0h10.05m5 0h10.05m5 0h10.05m5.02 0h10.03m5.02 0h10.03m5.02 0h10.03m5.02 0h10.03m5.02 0h10.03m5.02 0h10.03m5.02 0h10.03m5.02 0h10.04m5 0h10.05m5 0h10.04m5 0h10.05m5 0h10.04m5.02 0h10.03m5 0h10.04m5.02 0h10.03m5 0h10.04m5.02 0h10.03m5 0h10.04m5.02 0h10.04m5 0h10.05m5 0h10.05m5 0h10.05m5 0h10.05m5 0h10.05m5.02 0H718m5.02 0h10.03m5.02 0h10.03m5.02 0h10.03m5.02 0h10.03m5.02 0h10.03m5.02 0h10.03m5.02 0h10.04m5 0h10.05m5.02 0h10.04m5 0h10.05m5.02 0h10.04m5.02 0h10.03m5.03 0h10.03m5.02 0h10.03m5.03 0h10.03m5.02 0h10.03m5.03 0h10.03m5.02 0h10.03m5.03 0h10.04m5 0h5.03l.94.07.9.22.88.35.8.5.72.6.6.72.5.8.37.88.23.9.07.95v5.1m0 5.08v10.18m0 5.1v10.18m0 5.1v10.17m0 5.1v10.18m0 5.1v10.18m0 5.1v10.17m0 5.1V337m0 5.1v10.17m0 5.1v10.18m0 5.1v10.17m0 5.1V393l-.07.94-.22.9-.35.88-.5.8-.6.72-.72.6-.8.5-.88.37-.9.23-.95.07h-5.02m-5 0h-10.05m-5 0h-10.05m-5.02 0h-10.03m-5.02 0H948.8m-5.02 0h-10.03m-5.02 0H918.7m-5.02 0h-10.03m-5.02 0H888.6m-5.02 0h-10.03m-5.02 0H858.5m-5.02 0h-10.04m-5 0h-10.05m-5 0H813.3m-5.02 0h-10.03m-5.02 0h-10.03m-5.02 0h-10.03m-5.02 0h-10.03m-5.02 0h-10.03m-5.02 0h-10.03m-5.02 0h-10.03m-5.02 0H692.9m-5 0h-10.04m-5 0H662.8m-5 0h-10.04m-5 0H632.7m-5 0h-10.04m-5.02 0H602.6m-5 0h-10.04m-5.02 0H572.5m-5 0h-10.04m-5.02 0H542.4m-5 0h-10.04m-5.02 0H512.3m-5 0h-10.05m-5 0H482.2m-5 0h-10.05m-5 0H452.1m-5.02 0h-10.03m-5.02 0H422m-5.02 0h-10.03m-5.02 0H391.9m-5.02 0h-10.03m-5.02 0H361.8m-5.02 0h-10.03m-5.02 0H331.7m-5.02 0h-10.04m-5 0h-10.05m-5.02 0h-10.04m-5.02 0H271.5m-5.02 0h-10.04m-5.02 0H241.4m-5.03 0h-10.03m-5.02 0H211.3m-5.03 0h-10.03m-5.02 0H181.2m-5.03 0h-10.03m-5.02 0H151.1m-5.03 0h-10.04m-5 0H126l-.94-.07-.9-.22-.88-.35-.8-.5-.72-.6-.6-.72-.5-.8-.37-.88-.23-.9-.07-.95v-5.1m0-5.08v-10.18m0-5.1v-10.18m0-5.1V342.1m0-5.1v-10.18m0-5.1v-10.18m0-5.1v-10.17m0-5.1V281m0-5.1v-10.17m0-5.1v-10.17m0-5.1v-10.18m0-5.1V225l.07-.94.22-.9.35-.88.5-.8.6-.72.72-.6.8-.5.88-.37.9-.23.95-.07h5.02" stroke="#fff" fill="none"/><path d="M240 613.55a6 6 0 0 1 6-6h148a6 6 0 0 1 6 6v68a6 6 0 0 1-6 6H246a6 6 0 0 1-6-6z" stroke="#fff" stroke-width="2" fill-opacity="0"/><use xlink:href="#a" transform="matrix(1,0,0,1,245.0000000000001,612.5496119141433) translate(31.23456790123457 17.77777777777778)"/><use xlink:href="#b" transform="matrix(1,0,0,1,245.0000000000001,612.5496119141433) translate(22.59259259259258 44.44444444444444)"/><use xlink:href="#c" transform="matrix(1,0,0,1,245.0000000000001,612.5496119141433) translate(44.75308641975309 71.11111111111111)"/><path d="M440 613.55a6 6 0 0 1 6-6h148a6 6 0 0 1 6 6v68a6 6 0 0 1-6 6H446a6 6 0 0 1-6-6z" stroke="#fff" stroke-width="2" fill-opacity="0"/><use xlink:href="#a" transform="matrix(1,0,0,1,445.0000000000001,612.5496119141433) translate(31.23456790123457 17.77777777777778)"/><use xlink:href="#b" transform="matrix(1,0,0,1,445.0000000000001,612.5496119141433) translate(22.59259259259258 44.44444444444444)"/><use xlink:href="#c" transform="matrix(1,0,0,1,445.0000000000001,612.5496119141433) translate(44.75308641975309 71.11111111111111)"/><path d="M760 613.55a6 6 0 0 1 6-6h148a6 6 0 0 1 6 6v68a6 6 0 0 1-6 6H766a6 6 0 0 1-6-6z" stroke="#fff" stroke-width="2" fill-opacity="0"/><use xlink:href="#a" transform="matrix(1,0,0,1,765.0000000000001,612.5496119141433) translate(31.23456790123457 17.77777777777778)"/><use xlink:href="#b" transform="matrix(1,0,0,1,765.0000000000001,612.5496119141433) translate(22.59259259259258 44.44444444444444)"/><use xlink:href="#c" transform="matrix(1,0,0,1,765.0000000000001,612.5496119141433) translate(44.75308641975309 71.11111111111111)"/><path d="M600 613.55a6 6 0 0 1 6-6h148a6 6 0 0 1 6 6v68a6 6 0 0 1-6 6H606a6 6 0 0 1-6-6z" stroke="#000" stroke-opacity="0" stroke-width="2" fill-opacity="0"/><use xlink:href="#d" transform="matrix(1,0,0,1,605.0000000000001,612.5496119141433) translate(56.48148148148148 41.02083333333333)"/><use xlink:href="#e" transform="matrix(1,0,0,1,605.0000000000001,612.5496119141433) translate(71.29629629629629 41.02083333333333)"/><use xlink:href="#f" transform="matrix(1,0,0,1,605.0000000000001,612.5496119141433) translate(86.11111111111111 41.02083333333333)"/><path d="M160 245a6 6 0 0 1 6-6h328a6 6 0 0 1 6 6v108a6 6 0 0 1-6 6H166a6 6 0 0 1-6-6z" stroke="#fff" stroke-width="2" fill-opacity="0"/><use xlink:href="#g" transform="matrix(1,0,0,1,165.0000000000001,244) translate(129.8148148148148 17.77777777777778)"/><use xlink:href="#h" transform="matrix(1,0,0,1,165.0000000000001,244) translate(165 44.44444444444444)"/><path d="M700 265a6 6 0 0 1 6-6h88a6 6 0 0 1 6 6v68a6 6 0 0 1-6 6h-88a6 6 0 0 1-6-6z" stroke="#fff" stroke-width="2" fill-opacity="0"/><use xlink:href="#i" transform="matrix(1,0,0,1,705.0000000000002,264) translate(9.814814814814817 39.65277777777778)"/><path d="M880 265a6 6 0 0 1 6-6h88a6 6 0 0 1 6 6v68a6 6 0 0 1-6 6h-88a6 6 0 0 1-6-6z" stroke="#fff" stroke-width="2" fill-opacity="0"/><use xlink:href="#i" transform="matrix(1,0,0,1,885.0000000000002,264) translate(9.814814814814817 39.65277777777778)"/><path d="M800 265a6 6 0 0 1 6-6h68a6 6 0 0 1 6 6v68a6 6 0 0 1-6 6h-68a6 6 0 0 1-6-6z" stroke="#000" stroke-opacity="0" stroke-width="2" fill-opacity="0"/><use xlink:href="#d" transform="matrix(1,0,0,1,805.0000000000002,264) translate(16.481481481481485 41.02083333333333)"/><use xlink:href="#e" transform="matrix(1,0,0,1,805.0000000000002,264) translate(31.296296296296298 41.02083333333333)"/><use xlink:href="#f" transform="matrix(1,0,0,1,805.0000000000002,264) translate(46.111111111111114 41.02083333333333)"/><path d="M180 286a6 6 0 0 1 6-6h70a6 6 0 0 1 6 6v38.12a6 6 0 0 1-6 6h-70a6 6 0 0 1-6-6z" stroke="#fff" stroke-width="2" fill-opacity="0"/><use xlink:href="#j" transform="matrix(1,0,0,1,185,285) translate(3.2592592592592666 25.46527777777778)"/><path d="M360 286a6 6 0 0 1 6-6h108a6 6 0 0 1 6 6v38.12a6 6 0 0 1-6 6H366a6 6 0 0 1-6-6z" stroke="#fff" stroke-width="2" fill-opacity="0"/><use xlink:href="#k" transform="matrix(1,0,0,1,365,285) translate(7.561728395061721 25.46527777777778)"/><path d="M100-207.63c26.56 17.8 43.36 17.8 53.28 17.8 16 0 37.28-17.8 53.28-17.8 10.08 0 26.72 0 53.44 17.8v89.44c-26.72-17.9-43.36-17.9-53.44-17.9-16 0-37.28 17.9-53.28 17.9-9.92 0-26.72 0-53.28-17.9z" stroke="#fff" stroke-width="2" fill-opacity="0"/><use xlink:href="#l" transform="matrix(1,0,0,1,105,-202.63375637557596) translate(8.395061728395063 54.52777777777778)"/><use xlink:href="#m" transform="matrix(1,0,0,1,105,-202.63375637557596) translate(102.09876543209876 54.52777777777778)"/><path d="M507.05-219.7a7.8 7.8 0 0 1 7.55-5.8H634a4.6 4.6 0 0 1 4.45 5.8l-25.5 95.64a7.8 7.8 0 0 1-7.55 5.8H486a4.6 4.6 0 0 1-4.45-5.8z" stroke="#fff" stroke-width="2" fill-opacity="0"/><use xlink:href="#a" transform="matrix(1,0,0,1,484.9999999999999,-220.5080828082239) translate(35.239567901234565 39.21527777777778)"/><use xlink:href="#m" transform="matrix(1,0,0,1,484.9999999999999,-220.5080828082239) translate(51.751913580246914 65.88194444444446)"/><path d="M800-201.7a6.7 6.7 0 0 1 5.96-6.67l148.08-16.47a5.37 5.37 0 0 1 5.96 5.33v95.24a6 6 0 0 1-6 6H806a6 6 0 0 1-6-6z" stroke="#fff" stroke-width="2" fill-opacity="0"/><use xlink:href="#l" transform="matrix(1,0,0,1,805.0000000000001,-202.6337563755759) translate(8.395061728395063 45.27777777777778)"/><use xlink:href="#m" transform="matrix(1,0,0,1,805.0000000000001,-202.6337563755759) translate(102.09876543209876 45.27777777777778)"/><path d="M775.02-383.04a8.95 8.95 0 0 1 9.96 0l70.04 46.94a4.02 4.02 0 0 1 0 6.7l-70.04 46.93a8.95 8.95 0 0 1-9.96 0l-70.04-46.94a4.02 4.02 0 0 1 0-6.7z" stroke="#fff" stroke-width="2" fill-opacity="0"/><use xlink:href="#a" transform="matrix(1,0,0,1,705,-381.377020702056) translate(31.23956790123457 41.78777777777778)"/><use xlink:href="#m" transform="matrix(1,0,0,1,705,-381.377020702056) translate(55.251913580246914 68.45444444444445)"/><path d="M440-288.07c0 24.68-27.1 44.7-60.5 44.7-33.42 0-60.5-20.02-60.5-44.7 0-24.68 27.08-44.68 60.5-44.68 33.4 0 60.5 20 60.5 44.68z" stroke="#fff" stroke-width="2" fill-opacity="0"/><use xlink:href="#n" transform="matrix(1,0,0,1,323.9953454607756,-327.75404140411194) translate(11.739567901234567 30.27777777777778)"/><use xlink:href="#o" transform="matrix(1,0,0,1,323.9953454607756,-327.75404140411194) translate(35.751913580246914 56.94444444444445)"/><path d="M1190.43-280c16.33 0 29.57 13.24 29.57 29.57 0 16.32-13.24 29.56-29.57 29.56h-120.86c-16.33 0-29.57-13.24-29.57-29.56 0-16.33 13.24-29.57 29.57-29.57z" stroke="#000" stroke-opacity="0" stroke-width="2" fill-opacity="0"/><use xlink:href="#p" transform="matrix(1,0,0,1,1045,-275) translate(16.259259259259295 30.708333333333325)"/><use xlink:href="#q" transform="matrix(1,0,0,1,1045,-275) translate(79.81481481481482 30.708333333333325)"/><path d="M240.6-93.73V42.62" stroke="#fff" fill="none"/><path d="M240.6-108.5l4.62 14.27h-9.27zM240.6 57.38l-4.65-14.26h9.27z" stroke="#fff" fill="#fff"/><path d="M379.5-226V43.6" stroke="#fff" fill="none"/><path d="M379.5-240.77l4.63 14.27h-9.27zM379.5 58.38l-4.64-14.27 9.27.02z" stroke="#fff" fill="#fff"/><path d="M519.95-100.88v143.5" stroke="#fff" fill="none"/><path d="M519.95-115.64l4.64 14.26h-9.28zM519.95 57.38l-4.63-14.26h9.27z" stroke="#fff" fill="#fff"/><path d="M780-263.57v307.2" stroke="#fff" fill="none"/><path d="M780-278.34l4.63 14.27h-9.26zM780 58.38l-4.63-14.27 9.26.02z" stroke="#fff" fill="#fff"/><path d="M880-100.88v144.5" stroke="#fff" fill="none"/><path d="M880-115.64l4.63 14.26h-9.26zM880 58.38l-4.63-14.27 9.26.02z" stroke="#fff" fill="#fff"/><path d="M900 60c22.1 0 40 17.9 40 40s-17.9 40-40 40H240c-22.1 0-40-17.9-40-40s17.9-40 40-40z" stroke="#4c535d" stroke-width="2" fill="#4c535d"/><use xlink:href="#r" transform="matrix(1,0,0,1,205,65) translate(102.47530864197529 39.65277777777778)"/><use xlink:href="#s" transform="matrix(1,0,0,1,205,65) translate(233.03086419753083 39.65277777777778)"/><use xlink:href="#t" transform="matrix(1,0,0,1,205,65) translate(348.89506172839504 39.65277777777778)"/><use xlink:href="#u" transform="matrix(1,0,0,1,205,65) translate(470.8086419753086 39.65277777777778)"/><use xlink:href="#v" transform="matrix(1,0,0,1,205,65) translate(523.7716049382716 39.65277777777778)"/><path d="M570 157.38v44.74" stroke="#fff" fill="none"/><path d="M570 142.62l4.63 14.26h-9.26zM570 216.88l-4.63-14.26h9.26z" stroke="#fff" fill="#fff"/><path d="M1183 265.13c20.43 0 37 16.57 37 37 0 20.44-16.57 37-37 37h-106c-20.43 0-37-16.56-37-37 0-20.43 16.57-37 37-37z" stroke="#000" stroke-opacity="0" stroke-width="2" fill-opacity="0"/><g><use xlink:href="#w" transform="matrix(1,0,0,1,1045,270.131062106168) translate(22.148148148148174 37.33333333333333)"/></g><path d="M1183 577.23c20.43 0 37 16.57 37 37s-16.57 37-37 37h-106c-20.43 0-37-16.57-37-37s16.57-37 37-37z" stroke="#000" stroke-opacity="0" stroke-width="2" fill-opacity="0"/><g><use xlink:href="#x" transform="matrix(1,0,0,1,1045,582.2302859344545) translate(8.851851851851876 21.333333333333336)"/><use xlink:href="#y" transform="matrix(1,0,0,1,1045,582.2302859344545) translate(13.555555555555586 53.33333333333332)"/></g><path d="M900 480c22.1 0 40 17.9 40 40s-17.9 40-40 40H240c-22.1 0-40-17.9-40-40s17.9-40 40-40z" stroke="#4c535d" stroke-width="2" fill="#4c535d"/><g><use xlink:href="#z" transform="matrix(1,0,0,1,205,485) translate(281.05555555555554 39.65277777777778)"/><use xlink:href="#A" transform="matrix(1,0,0,1,205,485) translate(414.141975308642 39.65277777777778)"/></g><path d="M570 415.88v46.74" stroke="#fff" fill="none"/><path d="M570 401.12l4.63 14.26h-9.26zM570 477.38l-4.63-14.26h9.26z" stroke="#fff" fill="#fff"/><path d="M520 266a6 6 0 0 1 6-6h88a6 6 0 0 1 6 6v68a6 6 0 0 1-6 6h-88a6 6 0 0 1-6-6z" stroke="#fff" stroke-width="2" fill-opacity="0"/><g><use xlink:href="#i" transform="matrix(1,0,0,1,525.0000000000002,265) translate(9.814814814814817 39.65277777777778)"/></g><path d="M279.4 308.22h62.22" stroke="#fff" fill="none"/><path d="M264.63 308.22l14.26-4.63v9.26zM356.38 308.22l-14.26 4.64v-9.27z" stroke="#fff" fill="#fff"/><path d="M636.38 300h46.24" stroke="#fff" fill="none"/><path d="M621.62 300l14.26-4.63v9.26zM697.38 300l-14.26 4.63v-9.26z" stroke="#fff" fill="#fff"/><path d="M341.46 310.5c5.8 0 10.5 4.7 10.5 10.5s-4.7 10.5-10.5 10.5h-59c-5.8 0-10.5-4.7-10.5-10.5s4.7-10.5 10.5-10.5z" stroke="#000" stroke-opacity="0" stroke-width="2" fill-opacity="0"/><g><use xlink:href="#B" transform="matrix(1,0,0,1,276.95603386295375,315.4889607820181) translate(7.0493827160494185 14.222222222222207)"/><use xlink:href="#C" transform="matrix(1,0,0,1,276.95603386295375,315.4889607820181) translate(34.308641975308646 14.222222222222207)"/></g><path d="M689.5 302.93c5.8 0 10.5 4.7 10.5 10.5s-4.7 10.5-10.5 10.5h-59c-5.8 0-10.5-4.7-10.5-10.5s4.7-10.5 10.5-10.5z" stroke="#000" stroke-opacity="0" stroke-width="2" fill-opacity="0"/><g><use xlink:href="#B" transform="matrix(1,0,0,1,625,307.93376469210875) translate(7.0493827160494185 14.222222222222207)"/><use xlink:href="#C" transform="matrix(1,0,0,1,625,307.93376469210875) translate(34.308641975308646 14.222222222222207)"/></g><defs><path fill="#fff" d="M160-131c35 5 61 23 61 61C221 17 115-2 30 0v-248c76 3 177-17 177 60 0 33-19 50-47 57zm-97-11c50-1 110 9 110-42 0-47-63-36-110-37v79zm0 115c55-2 124 14 124-45 0-56-70-42-124-44v89" id="D"/><path fill="#fff" d="M24-231v-30h32v30H24zM24 0v-190h32V0H24" id="E"/><path fill="#fff" d="M59-47c-2 24 18 29 38 22v24C64 9 27 4 27-40v-127H5v-23h24l9-43h21v43h35v23H59v120" id="F"/><path fill="#fff" d="M100-194c63 0 86 42 84 106H49c0 40 14 67 53 68 26 1 43-12 49-29l28 8c-11 28-37 45-77 45C44 4 14-33 15-96c1-61 26-98 85-98zm52 81c6-60-76-77-97-28-3 7-6 17-6 28h103" id="G"/><path fill="#fff" d="M117-194c89-4 53 116 60 194h-32v-121c0-31-8-49-39-48C34-167 62-67 57 0H25l-1-190h30c1 10-1 24 2 32 11-22 29-35 61-36" id="H"/><path fill="#fff" d="M135-143c-3-34-86-38-87 0 15 53 115 12 119 90S17 21 10-45l28-5c4 36 97 45 98 0-10-56-113-15-118-90-4-57 82-63 122-42 12 7 21 19 24 35" id="I"/><path fill="#fff" d="M100-194c62-1 85 37 85 99 1 63-27 99-86 99S16-35 15-95c0-66 28-99 85-99zM99-20c44 1 53-31 53-75 0-43-8-75-51-75s-53 32-53 75 10 74 51 75" id="J"/><path fill="#fff" d="M114-163C36-179 61-72 57 0H25l-1-190h30c1 12-1 29 2 39 6-27 23-49 58-41v29" id="K"/><g id="a"><use transform="matrix(0.06172839506172839,0,0,0.06172839506172839,0,0)" xlink:href="#D"/><use transform="matrix(0.06172839506172839,0,0,0.06172839506172839,14.814814814814813,0)" xlink:href="#E"/><use transform="matrix(0.06172839506172839,0,0,0.06172839506172839,19.691358024691354,0)" xlink:href="#F"/><use transform="matrix(0.06172839506172839,0,0,0.06172839506172839,25.864197530864192,0)" xlink:href="#F"/><use transform="matrix(0.06172839506172839,0,0,0.06172839506172839,32.03703703703703,0)" xlink:href="#G"/><use transform="matrix(0.06172839506172839,0,0,0.06172839506172839,44.38271604938271,0)" xlink:href="#H"/><use transform="matrix(0.06172839506172839,0,0,0.06172839506172839,56.728395061728385,0)" xlink:href="#I"/><use transform="matrix(0.06172839506172839,0,0,0.06172839506172839,67.83950617283949,0)" xlink:href="#J"/><use transform="matrix(0.06172839506172839,0,0,0.06172839506172839,80.18518518518518,0)" xlink:href="#K"/></g><path fill="#fff" d="M115-194c53 0 69 39 70 98 0 66-23 100-70 100C84 3 66-7 56-30L54 0H23l1-261h32v101c10-23 28-34 59-34zm-8 174c40 0 45-34 45-75 0-40-5-75-45-74-42 0-51 32-51 76 0 43 10 73 51 73" id="L"/><path fill="#fff" d="M24 0v-261h32V0H24" id="M"/><path fill="#fff" d="M96-169c-40 0-48 33-48 73s9 75 48 75c24 0 41-14 43-38l32 2c-6 37-31 61-74 61-59 0-76-41-82-99-10-93 101-131 147-64 4 7 5 14 7 22l-32 3c-4-21-16-35-41-35" id="N"/><path fill="#fff" d="M143 0L79-87 56-68V0H24v-261h32v163l83-92h37l-77 82L181 0h-38" id="O"/><path fill="#fff" d="M106-169C34-169 62-67 57 0H25v-261h32l-1 103c12-21 28-36 61-36 89 0 53 116 60 194h-32v-121c2-32-8-49-39-48" id="P"/><path fill="#fff" d="M141-36C126-15 110 5 73 4 37 3 15-17 15-53c-1-64 63-63 125-63 3-35-9-54-41-54-24 1-41 7-42 31l-33-3c5-37 33-52 76-52 45 0 72 20 72 64v82c-1 20 7 32 28 27v20c-31 9-61-2-59-35zM48-53c0 20 12 33 32 33 41-3 63-29 60-74-43 2-92-5-92 41" id="Q"/><g id="b"><use transform="matrix(0.06172839506172839,0,0,0.06172839506172839,0,0)" xlink:href="#L"/><use transform="matrix(0.06172839506172839,0,0,0.06172839506172839,12.345679012345679,0)" xlink:href="#M"/><use transform="matrix(0.06172839506172839,0,0,0.06172839506172839,17.22222222222222,0)" xlink:href="#J"/><use transform="matrix(0.06172839506172839,0,0,0.06172839506172839,29.5679012345679,0)" xlink:href="#N"/><use transform="matrix(0.06172839506172839,0,0,0.06172839506172839,40.67901234567901,0)" xlink:href="#O"/><use transform="matrix(0.06172839506172839,0,0,0.06172839506172839,51.79012345679013,0)" xlink:href="#N"/><use transform="matrix(0.06172839506172839,0,0,0.06172839506172839,62.90123456790124,0)" xlink:href="#P"/><use transform="matrix(0.06172839506172839,0,0,0.06172839506172839,75.24691358024693,0)" xlink:href="#Q"/><use transform="matrix(0.06172839506172839,0,0,0.06172839506172839,87.59259259259261,0)" xlink:href="#E"/><use transform="matrix(0.06172839506172839,0,0,0.06172839506172839,92.46913580246915,0)" xlink:href="#H"/></g><path fill="#fff" d="M85-194c31 0 48 13 60 33l-1-100h32l1 261h-30c-2-10 0-23-3-31C134-8 116 4 85 4 32 4 16-35 15-94c0-66 23-100 70-100zm9 24c-40 0-46 34-46 75 0 40 6 74 45 74 42 0 51-32 51-76 0-42-9-74-50-73" id="R"/><g id="c"><use transform="matrix(0.06172839506172839,0,0,0.06172839506172839,0,0)" xlink:href="#H"/><use transform="matrix(0.06172839506172839,0,0,0.06172839506172839,12.345679012345679,0)" xlink:href="#J"/><use transform="matrix(0.06172839506172839,0,0,0.06172839506172839,24.691358024691358,0)" xlink:href="#R"/><use transform="matrix(0.06172839506172839,0,0,0.06172839506172839,37.03703703703704,0)" xlink:href="#G"/><use transform="matrix(0.06172839506172839,0,0,0.06172839506172839,49.382716049382715,0)" xlink:href="#I"/></g><path fill="#fff" d="M24 0v-54h51V0H24" id="S"/><use transform="matrix(0.07407407407407407,0,0,0.07407407407407407,0,0)" xlink:href="#S" id="d"/><use transform="matrix(0.07407407407407407,0,0,0.07407407407407407,0,0)" xlink:href="#S" id="e"/><use transform="matrix(0.07407407407407407,0,0,0.07407407407407407,0,0)" xlink:href="#S" id="f"/><path fill="#fff" d="M185-189c-5-48-123-54-124 2 14 75 158 14 163 119 3 78-121 87-175 55-17-10-28-26-33-46l33-7c5 56 141 63 141-1 0-78-155-14-162-118-5-82 145-84 179-34 5 7 8 16 11 25" id="T"/><path fill="#fff" d="M84 4C-5 8 30-112 23-190h32v120c0 31 7 50 39 49 72-2 45-101 50-169h31l1 190h-30c-1-10 1-25-2-33-11 22-28 36-60 37" id="U"/><g id="g"><use transform="matrix(0.06172839506172839,0,0,0.06172839506172839,0,0)" xlink:href="#T"/><use transform="matrix(0.06172839506172839,0,0,0.06172839506172839,14.814814814814813,0)" xlink:href="#U"/><use transform="matrix(0.06172839506172839,0,0,0.06172839506172839,27.160493827160494,0)" xlink:href="#L"/><use transform="matrix(0.06172839506172839,0,0,0.06172839506172839,39.50617283950617,0)" xlink:href="#H"/><use transform="matrix(0.06172839506172839,0,0,0.06172839506172839,51.85185185185185,0)" xlink:href="#G"/><use transform="matrix(0.06172839506172839,0,0,0.06172839506172839,64.19753086419753,0)" xlink:href="#F"/></g><g id="i"><use transform="matrix(0.06172839506172839,0,0,0.06172839506172839,0,0)" xlink:href="#T"/><use transform="matrix(0.06172839506172839,0,0,0.06172839506172839,14.814814814814813,0)" xlink:href="#U"/><use transform="matrix(0.06172839506172839,0,0,0.06172839506172839,27.160493827160494,0)" xlink:href="#L"/><use transform="matrix(0.06172839506172839,0,0,0.06172839506172839,39.50617283950617,0)" xlink:href="#H"/><use transform="matrix(0.06172839506172839,0,0,0.06172839506172839,51.85185185185185,0)" xlink:href="#G"/><use transform="matrix(0.06172839506172839,0,0,0.06172839506172839,64.19753086419753,0)" xlink:href="#F"/></g><path fill="#fff" d="M210-169c-67 3-38 105-44 169h-31v-121c0-29-5-50-35-48C34-165 62-65 56 0H25l-1-190h30c1 10-1 24 2 32 10-44 99-50 107 0 11-21 27-35 58-36 85-2 47 119 55 194h-31v-121c0-29-5-49-35-48" id="V"/><g id="j"><use transform="matrix(0.06172839506172839,0,0,0.06172839506172839,0,0)" xlink:href="#V"/><use transform="matrix(0.06172839506172839,0,0,0.06172839506172839,18.456790123456788,0)" xlink:href="#E"/><use transform="matrix(0.06172839506172839,0,0,0.06172839506172839,23.33333333333333,0)" xlink:href="#H"/><use transform="matrix(0.06172839506172839,0,0,0.06172839506172839,35.679012345679006,0)" xlink:href="#G"/><use transform="matrix(0.06172839506172839,0,0,0.06172839506172839,48.02469135802468,0)" xlink:href="#K"/><use transform="matrix(0.06172839506172839,0,0,0.06172839506172839,55.37037037037036,0)" xlink:href="#I"/></g><path fill="#fff" d="M108 0H70L1-190h34L89-25l56-165h34" id="W"/><g id="k"><use transform="matrix(0.06172839506172839,0,0,0.06172839506172839,0,0)" xlink:href="#W"/><use transform="matrix(0.06172839506172839,0,0,0.06172839506172839,11.11111111111111,0)" xlink:href="#Q"/><use transform="matrix(0.06172839506172839,0,0,0.06172839506172839,23.45679012345679,0)" xlink:href="#M"/><use transform="matrix(0.06172839506172839,0,0,0.06172839506172839,28.333333333333336,0)" xlink:href="#E"/><use transform="matrix(0.06172839506172839,0,0,0.06172839506172839,33.20987654320988,0)" xlink:href="#R"/><use transform="matrix(0.06172839506172839,0,0,0.06172839506172839,45.55555555555556,0)" xlink:href="#Q"/><use transform="matrix(0.06172839506172839,0,0,0.06172839506172839,57.901234567901234,0)" xlink:href="#F"/><use transform="matrix(0.06172839506172839,0,0,0.06172839506172839,64.07407407407408,0)" xlink:href="#J"/><use transform="matrix(0.06172839506172839,0,0,0.06172839506172839,76.41975308641976,0)" xlink:href="#K"/><use transform="matrix(0.06172839506172839,0,0,0.06172839506172839,83.76543209876544,0)" xlink:href="#I"/></g><g id="l"><use transform="matrix(0.06172839506172839,0,0,0.06172839506172839,0,0)" xlink:href="#D"/><use transform="matrix(0.06172839506172839,0,0,0.06172839506172839,14.814814814814813,0)" xlink:href="#E"/><use transform="matrix(0.06172839506172839,0,0,0.06172839506172839,19.691358024691354,0)" xlink:href="#F"/><use transform="matrix(0.06172839506172839,0,0,0.06172839506172839,25.864197530864192,0)" xlink:href="#F"/><use transform="matrix(0.06172839506172839,0,0,0.06172839506172839,32.03703703703703,0)" xlink:href="#G"/><use transform="matrix(0.06172839506172839,0,0,0.06172839506172839,44.38271604938271,0)" xlink:href="#H"/><use transform="matrix(0.06172839506172839,0,0,0.06172839506172839,56.728395061728385,0)" xlink:href="#I"/><use transform="matrix(0.06172839506172839,0,0,0.06172839506172839,67.83950617283949,0)" xlink:href="#J"/><use transform="matrix(0.06172839506172839,0,0,0.06172839506172839,80.18518518518518,0)" xlink:href="#K"/></g><path fill="#fff" d="M205 0l-28-72H64L36 0H1l101-248h38L239 0h-34zm-38-99l-47-123c-12 45-31 82-46 123h93" id="X"/><path fill="#fff" d="M115-194c55 1 70 41 70 98S169 2 115 4C84 4 66-9 55-30l1 105H24l-1-265h31l2 30c10-21 28-34 59-34zm-8 174c40 0 45-34 45-75s-6-73-45-74c-42 0-51 32-51 76 0 43 10 73 51 73" id="Y"/><g id="m"><use transform="matrix(0.06172839506172839,0,0,0.06172839506172839,0,0)" xlink:href="#X"/><use transform="matrix(0.06172839506172839,0,0,0.06172839506172839,14.814814814814813,0)" xlink:href="#Y"/><use transform="matrix(0.06172839506172839,0,0,0.06172839506172839,27.160493827160494,0)" xlink:href="#Y"/></g><g id="n"><use transform="matrix(0.06172839506172839,0,0,0.06172839506172839,0,0)" xlink:href="#D"/><use transform="matrix(0.06172839506172839,0,0,0.06172839506172839,14.814814814814813,0)" xlink:href="#E"/><use transform="matrix(0.06172839506172839,0,0,0.06172839506172839,19.691358024691354,0)" xlink:href="#F"/><use transform="matrix(0.06172839506172839,0,0,0.06172839506172839,25.864197530864192,0)" xlink:href="#F"/><use transform="matrix(0.06172839506172839,0,0,0.06172839506172839,32.03703703703703,0)" xlink:href="#G"/><use transform="matrix(0.06172839506172839,0,0,0.06172839506172839,44.38271604938271,0)" xlink:href="#H"/><use transform="matrix(0.06172839506172839,0,0,0.06172839506172839,56.728395061728385,0)" xlink:href="#I"/><use transform="matrix(0.06172839506172839,0,0,0.06172839506172839,67.83950617283949,0)" xlink:href="#J"/><use transform="matrix(0.06172839506172839,0,0,0.06172839506172839,80.18518518518518,0)" xlink:href="#K"/></g><g id="o"><use transform="matrix(0.06172839506172839,0,0,0.06172839506172839,0,0)" xlink:href="#X"/><use transform="matrix(0.06172839506172839,0,0,0.06172839506172839,14.814814814814813,0)" xlink:href="#Y"/><use transform="matrix(0.06172839506172839,0,0,0.06172839506172839,27.160493827160494,0)" xlink:href="#Y"/></g><path fill="#fff" d="M30 0v-248h187v28H63v79h144v27H63v87h162V0H30" id="Z"/><path fill="#fff" d="M190 0L58-211 59 0H30v-248h39L202-35l-2-213h31V0h-41" id="aa"/><path fill="#fff" d="M30-248c118-7 216 8 213 122C240-48 200 0 122 0H30v-248zM63-27c89 8 146-16 146-99s-60-101-146-95v194" id="ab"/><g id="p"><use transform="matrix(0.07407407407407404,0,0,0.07407407407407404,0,0)" xlink:href="#Z"/><use transform="matrix(0.07407407407407404,0,0,0.07407407407407404,17.77777777777777,0)" xlink:href="#aa"/><use transform="matrix(0.07407407407407404,0,0,0.07407407407407404,36.96296296296295,0)" xlink:href="#ab"/></g><path fill="#fff" d="M232-93c-1 65-40 97-104 97C67 4 28-28 28-90v-158h33c8 89-33 224 67 224 102 0 64-133 71-224h33v155" id="ac"/><path fill="#fff" d="M233-177c-1 41-23 64-60 70L243 0h-38l-65-103H63V0H30v-248c88 3 205-21 203 71zM63-129c60-2 137 13 137-47 0-61-80-42-137-45v92" id="ad"/><g id="q"><use transform="matrix(0.07407407407407404,0,0,0.07407407407407404,0,0)" xlink:href="#ac"/><use transform="matrix(0.07407407407407404,0,0,0.07407407407407404,19.185185185185176,0)" xlink:href="#T"/><use transform="matrix(0.07407407407407404,0,0,0.07407407407407404,36.96296296296295,0)" xlink:href="#Z"/><use transform="matrix(0.07407407407407404,0,0,0.07407407407407404,54.74074074074072,0)" xlink:href="#ad"/></g><path fill="#fff" d="M33 0v-248h34V0H33" id="ae"/><path fill="#fff" d="M127-220V0H93v-220H8v-28h204v28h-85" id="af"/><path fill="#fff" d="M63-220v92h138v28H63V0H30v-248h175v28H63" id="ag"/><path fill="#fff" d="M212-179c-10-28-35-45-73-45-59 0-87 40-87 99 0 60 29 101 89 101 43 0 62-24 78-52l27 14C228-24 195 4 139 4 59 4 22-46 18-125c-6-104 99-153 187-111 19 9 31 26 39 46" id="ah"/><g id="r"><use transform="matrix(0.06172839506172839,0,0,0.06172839506172839,0,0)" xlink:href="#ae"/><use transform="matrix(0.06172839506172839,0,0,0.06172839506172839,6.172839506172839,0)" xlink:href="#aa"/><use transform="matrix(0.06172839506172839,0,0,0.06172839506172839,22.160493827160494,0)" xlink:href="#af"/><use transform="matrix(0.06172839506172839,0,0,0.06172839506172839,35.67901234567901,0)" xlink:href="#Z"/><use transform="matrix(0.06172839506172839,0,0,0.06172839506172839,50.49382716049382,0)" xlink:href="#ad"/><use transform="matrix(0.06172839506172839,0,0,0.06172839506172839,66.48148148148148,0)" xlink:href="#ag"/><use transform="matrix(0.06172839506172839,0,0,0.06172839506172839,78.76543209876543,0)" xlink:href="#X"/><use transform="matrix(0.06172839506172839,0,0,0.06172839506172839,93.58024691358024,0)" xlink:href="#ah"/><use transform="matrix(0.06172839506172839,0,0,0.06172839506172839,109.5679012345679,0)" xlink:href="#Z"/></g><path fill="#fff" d="M266 0h-40l-56-210L115 0H75L2-248h35L96-30l15-64 43-154h32l59 218 59-218h35" id="ai"/><g id="s"><use transform="matrix(0.06172839506172839,0,0,0.06172839506172839,0,0)" xlink:href="#D"/><use transform="matrix(0.06172839506172839,0,0,0.06172839506172839,14.814814814814813,0)" xlink:href="#Z"/><use transform="matrix(0.06172839506172839,0,0,0.06172839506172839,29.629629629629626,0)" xlink:href="#af"/><use transform="matrix(0.06172839506172839,0,0,0.06172839506172839,43.148148148148145,0)" xlink:href="#ai"/><use transform="matrix(0.06172839506172839,0,0,0.06172839506172839,64.07407407407408,0)" xlink:href="#Z"/><use transform="matrix(0.06172839506172839,0,0,0.06172839506172839,78.88888888888889,0)" xlink:href="#Z"/><use transform="matrix(0.06172839506172839,0,0,0.06172839506172839,93.7037037037037,0)" xlink:href="#aa"/></g><path fill="#fff" d="M16-82v-28h88v28H16" id="aj"/><g id="t"><use transform="matrix(0.06172839506172839,0,0,0.06172839506172839,0,0)" xlink:href="#Z"/><use transform="matrix(0.06172839506172839,0,0,0.06172839506172839,14.814814814814813,0)" xlink:href="#aa"/><use transform="matrix(0.06172839506172839,0,0,0.06172839506172839,30.80246913580247,0)" xlink:href="#ab"/><use transform="matrix(0.06172839506172839,0,0,0.06172839506172839,46.79012345679012,0)" xlink:href="#aj"/><use transform="matrix(0.06172839506172839,0,0,0.06172839506172839,54.1358024691358,0)" xlink:href="#ac"/><use transform="matrix(0.06172839506172839,0,0,0.06172839506172839,70.12345679012346,0)" xlink:href="#T"/><use transform="matrix(0.06172839506172839,0,0,0.06172839506172839,84.93827160493827,0)" xlink:href="#Z"/><use transform="matrix(0.06172839506172839,0,0,0.06172839506172839,99.75308641975307,0)" xlink:href="#ad"/></g><g id="u"><use transform="matrix(0.06172839506172839,0,0,0.06172839506172839,0,0)" xlink:href="#X"/><use transform="matrix(0.06172839506172839,0,0,0.06172839506172839,14.814814814814813,0)" xlink:href="#aa"/><use transform="matrix(0.06172839506172839,0,0,0.06172839506172839,30.80246913580247,0)" xlink:href="#ab"/></g><g id="v"><use transform="matrix(0.06172839506172839,0,0,0.06172839506172839,0,0)" xlink:href="#T"/><use transform="matrix(0.06172839506172839,0,0,0.06172839506172839,14.814814814814813,0)" xlink:href="#ac"/><use transform="matrix(0.06172839506172839,0,0,0.06172839506172839,30.80246913580247,0)" xlink:href="#D"/><use transform="matrix(0.06172839506172839,0,0,0.06172839506172839,45.61728395061728,0)" xlink:href="#aa"/><use transform="matrix(0.06172839506172839,0,0,0.06172839506172839,61.60493827160493,0)" xlink:href="#Z"/><use transform="matrix(0.06172839506172839,0,0,0.06172839506172839,76.41975308641975,0)" xlink:href="#af"/><use transform="matrix(0.06172839506172839,0,0,0.06172839506172839,89.93827160493827,0)" xlink:href="#T"/></g><g id="w"><use transform="matrix(0.07407407407407404,0,0,0.07407407407407404,0,0)" xlink:href="#T"/><use transform="matrix(0.07407407407407404,0,0,0.07407407407407404,17.77777777777777,0)" xlink:href="#ac"/><use transform="matrix(0.07407407407407404,0,0,0.07407407407407404,36.96296296296295,0)" xlink:href="#D"/><use transform="matrix(0.07407407407407404,0,0,0.07407407407407404,54.74074074074072,0)" xlink:href="#aa"/><use transform="matrix(0.07407407407407404,0,0,0.07407407407407404,73.9259259259259,0)" xlink:href="#Z"/><use transform="matrix(0.07407407407407404,0,0,0.07407407407407404,91.70370370370367,0)" xlink:href="#af"/><use transform="matrix(0.07407407407407404,0,0,0.07407407407407404,107.92592592592588,0)" xlink:href="#T"/></g><path fill="#fff" d="M140-251c81 0 123 46 123 126C263-46 219 4 140 4 59 4 17-45 17-125s42-126 123-126zm0 227c63 0 89-41 89-101s-29-99-89-99c-61 0-89 39-89 99S79-25 140-24" id="ak"/><g id="x"><use transform="matrix(0.07407407407407404,0,0,0.07407407407407404,0,0)" xlink:href="#D"/><use transform="matrix(0.07407407407407404,0,0,0.07407407407407404,17.77777777777777,0)" xlink:href="#ae"/><use transform="matrix(0.07407407407407404,0,0,0.07407407407407404,25.185185185185173,0)" xlink:href="#af"/><use transform="matrix(0.07407407407407404,0,0,0.07407407407407404,41.40740740740739,0)" xlink:href="#af"/><use transform="matrix(0.07407407407407404,0,0,0.07407407407407404,57.629629629629605,0)" xlink:href="#Z"/><use transform="matrix(0.07407407407407404,0,0,0.07407407407407404,75.40740740740738,0)" xlink:href="#aa"/><use transform="matrix(0.07407407407407404,0,0,0.07407407407407404,94.59259259259255,0)" xlink:href="#T"/><use transform="matrix(0.07407407407407404,0,0,0.07407407407407404,112.37037037037032,0)" xlink:href="#ak"/><use transform="matrix(0.07407407407407404,0,0,0.07407407407407404,133.11111111111106,0)" xlink:href="#ad"/></g><path fill="#fff" d="M30-248c87 1 191-15 191 75 0 78-77 80-158 76V0H30v-248zm33 125c57 0 124 11 124-50 0-59-68-47-124-48v98" id="al"/><path fill="#fff" d="M30 0v-248h33v221h125V0H30" id="am"/><path fill="#fff" d="M240 0l2-218c-23 76-54 145-80 218h-23L58-218 59 0H30v-248h44l77 211c21-75 51-140 76-211h43V0h-30" id="an"/><g id="y"><use transform="matrix(0.07407407407407404,0,0,0.07407407407407404,0,0)" xlink:href="#al"/><use transform="matrix(0.07407407407407404,0,0,0.07407407407407404,17.77777777777777,0)" xlink:href="#am"/><use transform="matrix(0.07407407407407404,0,0,0.07407407407407404,32.59259259259258,0)" xlink:href="#X"/><use transform="matrix(0.07407407407407404,0,0,0.07407407407407404,48.37037037037035,0)" xlink:href="#af"/><use transform="matrix(0.07407407407407404,0,0,0.07407407407407404,64.59259259259257,0)" xlink:href="#ag"/><use transform="matrix(0.07407407407407404,0,0,0.07407407407407404,80.81481481481478,0)" xlink:href="#ak"/><use transform="matrix(0.07407407407407404,0,0,0.07407407407407404,101.55555555555551,0)" xlink:href="#ad"/><use transform="matrix(0.07407407407407404,0,0,0.07407407407407404,120.74074074074069,0)" xlink:href="#an"/></g><g id="z"><use transform="matrix(0.06172839506172839,0,0,0.06172839506172839,0,0)" xlink:href="#D"/><use transform="matrix(0.06172839506172839,0,0,0.06172839506172839,14.814814814814813,0)" xlink:href="#ae"/><use transform="matrix(0.06172839506172839,0,0,0.06172839506172839,20.98765432098765,0)" xlink:href="#af"/><use transform="matrix(0.06172839506172839,0,0,0.06172839506172839,34.50617283950617,0)" xlink:href="#af"/><use transform="matrix(0.06172839506172839,0,0,0.06172839506172839,48.02469135802469,0)" xlink:href="#Z"/><use transform="matrix(0.06172839506172839,0,0,0.06172839506172839,62.839506172839506,0)" xlink:href="#aa"/><use transform="matrix(0.06172839506172839,0,0,0.06172839506172839,78.82716049382717,0)" xlink:href="#T"/><use transform="matrix(0.06172839506172839,0,0,0.06172839506172839,93.64197530864197,0)" xlink:href="#ak"/><use transform="matrix(0.06172839506172839,0,0,0.06172839506172839,110.92592592592592,0)" xlink:href="#ad"/></g><g id="A"><use transform="matrix(0.06172839506172839,0,0,0.06172839506172839,0,0)" xlink:href="#X"/><use transform="matrix(0.06172839506172839,0,0,0.06172839506172839,14.814814814814813,0)" xlink:href="#al"/><use transform="matrix(0.06172839506172839,0,0,0.06172839506172839,29.629629629629626,0)" xlink:href="#ae"/></g><g id="B"><use transform="matrix(0.04938271604938266,0,0,0.04938271604938266,0,0)" xlink:href="#D"/><use transform="matrix(0.04938271604938266,0,0,0.04938271604938266,11.851851851851837,0)" xlink:href="#af"/></g><g id="C"><use transform="matrix(0.04938271604938266,0,0,0.04938271604938266,0,0)" xlink:href="#X"/><use transform="matrix(0.04938271604938266,0,0,0.04938271604938266,11.851851851851837,0)" xlink:href="#al"/><use transform="matrix(0.04938271604938266,0,0,0.04938271604938266,23.703703703703674,0)" xlink:href="#ae"/></g></defs></g></svg>