<svg xmlns="http://www.w3.org/2000/svg" xmlns:xlink="http://www.w3.org/1999/xlink" xmlns:lucid="lucid" width="1151.69" height="1281"><g transform="translate(-1628.8085312562516 940.5)" lucid:page-tab-id="0_0"><path d="M1649.3-652a8 8 0 0 1 8-8H2752a8 8 0 0 1 8 8v784a8 8 0 0 1-8 8H1657.3a8 8 0 0 1-8-8z" stroke="#fff" fill-opacity="0"/><path d="M1888.03-501.97c50.8 0 91.97 41.18 91.97 91.97 0 50.8-41.18 91.97-91.97 91.97h-116.06c-50.8 0-91.97-41.18-91.97-91.97 0-50.8 41.18-91.97 91.97-91.97z" stroke="#fff" fill-opacity="0"/><path d="M1767.78-477.63c16.57 0 30 13.43 30 30 0 16.56-13.43 30-30 30h-20c-16.57 0-30-13.44-30-30 0-16.57 13.43-30 30-30z" stroke="#fff" fill-opacity="0"/><use xlink:href="#a" transform="matrix(1,0,0,1,1722.7764690856407,-472.63504778893184) translate(11.671666666666672 18.694444444444443)"/><use xlink:href="#b" transform="matrix(1,0,0,1,1722.7764690856407,-472.63504778893184) translate(15.625370370370375 37.36111111111111)"/><path d="M1910-422.2c16.57 0 30 13.44 30 30 0 16.58-13.43 30-30 30h-20c-16.57 0-30-13.42-30-30 0-16.56 13.43-30 30-30z" stroke="#fff" fill-opacity="0"/><use xlink:href="#a" transform="matrix(1,0,0,1,1865,-417.18959057006083) translate(11.671666666666672 18.694444444444443)"/><use xlink:href="#b" transform="matrix(1,0,0,1,1865,-417.18959057006083) translate(15.625370370370375 37.36111111111111)"/><path d="M1790-400c16.57 0 30 13.43 30 30s-13.43 30-30 30h-20c-16.57 0-30-13.43-30-30s13.43-30 30-30z" stroke="#fff" fill-opacity="0"/><use xlink:href="#a" transform="matrix(1,0,0,1,1745,-395) translate(11.671666666666672 18.694444444444443)"/><use xlink:href="#b" transform="matrix(1,0,0,1,1745,-395) translate(15.625370370370375 37.36111111111111)"/><path d="M1740-464.7a6 6 0 0 1 6-6h177.3a6 6 0 0 1 6 6v34.13a6 6 0 0 1-6 6H1746a6 6 0 0 1-6-6z" stroke="#000" stroke-opacity="0" fill-opacity="0"/><use xlink:href="#c" transform="matrix(1,0,0,1,1745,-465.69792368165497) translate(71.4814814814815 21.33333333333333)"/><use xlink:href="#d" transform="matrix(1,0,0,1,1745,-465.69792368165497) translate(86.2962962962963 21.33333333333333)"/><use xlink:href="#e" transform="matrix(1,0,0,1,1745,-465.69792368165497) translate(101.11111111111111 21.33333333333333)"/><path d="M2237.34-620c50.8 0 91.97 41.18 91.97 91.97 0 50.8-41.17 91.97-91.96 91.97h-116.06c-50.8 0-91.97-41.18-91.97-91.97 0-50.8 41.18-91.97 91.98-91.97z" stroke="#fff" fill-opacity="0"/><path d="M2117.1-595.67c16.55 0 30 13.43 30 30s-13.45 30-30 30h-20c-16.58 0-30-13.43-30-30s13.42-30 30-30z" stroke="#fff" fill-opacity="0"/><use xlink:href="#a" transform="matrix(1,0,0,1,2072.085000341892,-590.6669671812392) translate(11.671666666666672 18.694444444444443)"/><use xlink:href="#b" transform="matrix(1,0,0,1,2072.085000341892,-590.6669671812392) translate(15.625370370370375 37.36111111111111)"/><path d="M2259.3-540.22c16.58 0 30 13.43 30 30s-13.42 30-30 30h-20c-16.56 0-30-13.43-30-30s13.44-30 30-30z" stroke="#fff" fill-opacity="0"/><use xlink:href="#a" transform="matrix(1,0,0,1,2214.308531256251,-535.2215099623681) translate(11.671666666666672 18.694444444444443)"/><use xlink:href="#b" transform="matrix(1,0,0,1,2214.308531256251,-535.2215099623681) translate(15.625370370370375 37.36111111111111)"/><path d="M2139.3-518.03c16.58 0 30 13.43 30 30s-13.42 30-30 30h-20c-16.56 0-30-13.43-30-30s13.44-30 30-30z" stroke="#fff" fill-opacity="0"/><use xlink:href="#a" transform="matrix(1,0,0,1,2094.3085312562516,-513.0319193923073) translate(11.671666666666672 18.694444444444443)"/><use xlink:href="#b" transform="matrix(1,0,0,1,2094.3085312562516,-513.0319193923073) translate(15.625370370370375 37.36111111111111)"/><path d="M2089.3-582.73a6 6 0 0 1 6-6h177.32a6 6 0 0 1 6 6v34.13a6 6 0 0 1-6 6h-177.3a6 6 0 0 1-6-6z" stroke="#000" stroke-opacity="0" fill-opacity="0"/><use xlink:href="#c" transform="matrix(1,0,0,1,2094.308531256251,-583.7298430739623) translate(71.4814814814815 21.33333333333333)"/><use xlink:href="#d" transform="matrix(1,0,0,1,2094.308531256251,-583.7298430739623) translate(86.2962962962963 21.33333333333333)"/><use xlink:href="#e" transform="matrix(1,0,0,1,2094.308531256251,-583.7298430739623) translate(101.11111111111111 21.33333333333333)"/><path d="M1868.36-317.3l67.98 34.27 106.56 52.73 31.87 17.9 24.06 14.9 19.96 13.54 17.35 12.88 10.16 8.23" stroke="#fff" stroke-linejoin="round" fill="none"/><path d="M1868.15-316.85l-1.35-.68h1.7z" stroke="#fff" stroke-width=".05" fill="#fff"/><path d="M2157.62-153.35l-13.9-5.63 5.96-7.1z" stroke="#fff" fill="#fff"/><path d="M2226.54-161.74c17 0 30.78 13.78 30.78 30.78s-13.78 30.8-30.78 30.8h-43.6c-17 0-30.8-13.8-30.8-30.8s13.8-30.78 30.8-30.78z" stroke="#fff" stroke-width="3" fill-opacity="0"/><use xlink:href="#f" transform="matrix(1,0,0,1,2157.149882830733,-156.74139780058084) translate(14.666666666666671 17.77777777777778)"/><use xlink:href="#g" transform="matrix(1,0,0,1,2157.149882830733,-156.74139780058084) translate(6.117283950617278 44.44444444444444)"/><path d="M2204.74-435.06l.9 45.78 2.2 35.14 5.38 62.94.35 17.08-.45 20.64-2 30.83-4.63 43.12" stroke="#fff" stroke-linejoin="round" fill="none"/><path d="M2205.24-435.06l-1 .02v-.52h1z" stroke="#fff" stroke-width=".05" fill="#fff"/><path d="M2204.9-164.85l-3.08-14.68 9.22 1z" stroke="#fff" fill="#fff"/><path d="M2419.6-352.46l-14.98 9.22-31.6 21.3-27.56 20.28-22.3 17.9-17.7 15.46-13.97 13.3-11.12 11.47-8.88 10-7.16 8.75-5.8 7.75-4.74 6.9-3.88 6.22-3.2 5.6-2.64 5.13-2.17 4.7-1.8 4.34-1.46 4.04-1.2 3.77-.95 3.53-.77 3.33-.58 3.16-.42 3-.08.68" stroke="#fff" stroke-linejoin="round" fill="none"/><path d="M2432.16-360.2l-9.72 11.42-4.86-7.9z" stroke="#fff" fill="#fff"/><path d="M2235.15-162.58l-.07.58-.97-.25.05-.44z" stroke="#fff" stroke-width=".05" fill="#fff"/><path d="M2150.14-130.97l-9.25-.2-10.98-.7-12.37-1.3-13.97-2.06-15.76-3.02-17.72-4.16-19.8-5.55-21.83-7.1-23.6-8.8-24.86-10.44-25.28-11.9-24.75-12.93-23.25-13.42-21.03-13.33-18.43-12.8-15.74-11.94-13.24-10.94-11.02-9.9-9.1-8.9-7.5-8-6.2-7.17-5.13-6.45-1.4-1.9" stroke="#fff" stroke-linejoin="round" fill="none"/><path d="M2150.7-131.46l-.05.48.03.52h-.56l.02-1z" stroke="#fff" stroke-width=".05" fill="#fff"/><path d="M1789.8-316.18l11.75 9.3-7.72 5.14z" stroke="#fff" fill="#fff"/><path d="M2257.25-159.48l7.03-2.74 18.96-8.33 22.9-11.2 23.62-12.8 21.76-12.98 18.76-12.3 15.67-11.22 12.92-10.1 10.6-9.03 8.72-8.07 7.18-7.25 5.96-6.53 4.97-5.92 4.16-5.4 3.5-4.95 2.92-4.56 2.48-4.22 2.1-3.94 1.75-3.68 1.5-3.47 1.24-3.27 1.03-3.12.85-2.96.68-2.84.54-2.73.4-2.63.3-2.55.16-2.48.06-2.27" stroke="#fff" stroke-linejoin="round" fill="none"/><path d="M2251.76-157.33l9.23-11.83 5.57 14.22z" stroke="#fff" fill="#fff"/><path d="M2459.97-333.53l.5.32v.2l-1-.02v-.87z" stroke="#fff" stroke-width=".05" fill="#fff"/><path d="M2193.24-163.75l-.4-18.74-1.1-17.62-1.74-16.63-2.4-16.23-3.15-16.5-4.2-17.9-6.15-21.9-41.1-129.65" stroke="#fff" stroke-linejoin="round" fill="none"/><path d="M2193.75-163.24h-1v-.5l1-.03z" stroke="#fff" stroke-width=".05" fill="#fff"/><path d="M2129.3-433.22l8.07 12.65-8.98 2.32z" stroke="#fff" fill="#fff"/><path d="M1790.83-220.14a6 6 0 0 1 6-6h75.65a6 6 0 0 1 6 6v18.9a6 6 0 0 1-6 6h-75.65a6 6 0 0 1-6-6z" stroke="#000" stroke-opacity="0" fill-opacity="0"/><use xlink:href="#h" transform="matrix(1,0,0,1,1795.832846355845,-221.13845479586942) translate(4.493827160493829 19.09027777777778)"/><path d="M2008.95-294.4a6 6 0 0 1 6-6h61.1a6 6 0 0 1 6 6v18.88a6 6 0 0 1-6 6h-61.1a6 6 0 0 1-6-6z" stroke="#000" stroke-opacity="0" fill-opacity="0"/><use xlink:href="#i" transform="matrix(1,0,0,1,2013.9541061148911,-295.40776169457735) translate(-13.648148148148152 17.77777777777778)"/><path d="M1926.24-193.37l-.52.67-1.45 1.68-1.64 1.7-1.86 1.74-2.1 1.77-2.36 1.77-2.63 1.8-2.97 1.78-3.28 1.76-3.6 1.7-3.93 1.6-4.18 1.43-4.38 1.26-4.47 1.03-4.48.8-4.4.54-4.17.3-3.92.07-3.6-.12-3.3-.28-3-.42-2.7-.52-2.4-.6-2.17-.66-1.93-.7-1.74-.74-1.57-.76-1.42-.78-1.28-.8-1.15-.8-1.05-.83-.95-.82-.88-.84-.8-.85-.72-.86-.66-.88-.62-.9-.55-.92-.5-.95-.46-.98-.4-1-.36-1.06-.3-1.1-.27-1.14-.2-1.2-.16-1.27-.1-1.35v-.65" stroke="#fff" stroke-linejoin="round" fill="none"/><path d="M1929.37-198.36l-2.1 14.85-11.93-9.55z" stroke="#fff" fill="#fff"/><path d="M1835.16-194.75l-1 .03v-.53h1z" stroke="#fff" stroke-width=".05" fill="#fff"/><path d="M2081.12-271.5l1.37 1.3 1.37 1.53 1.12 1.5.9 1.46.74 1.46.6 1.5.46 1.56.34 1.64.2 1.76.05 1.94-.15 2.2-.4 2.55-.76 3.12-1.4 4.04-2.63 5.9-4.95 8.68" stroke="#fff" stroke-linejoin="round" fill="none"/><path d="M2081.47-271.85l-.68.74-.37-.35.46-.54.14-.24z" stroke="#fff" stroke-width=".05" fill="#fff"/><path d="M2070.7-216.54l3.05-14.7 8.05 4.6z" stroke="#fff" fill="#fff"/><path d="M2628.03-501.97c50.8 0 91.97 41.18 91.97 91.97 0 50.8-41.18 91.97-91.97 91.97h-116.06c-50.8 0-91.97-41.18-91.97-91.97 0-50.8 41.18-91.97 91.97-91.97z" stroke="#fff" fill-opacity="0"/><path d="M2507.78-477.63c16.56 0 30 13.43 30 30 0 16.56-13.44 30-30 30h-20c-16.57 0-30-13.44-30-30 0-16.57 13.43-30 30-30z" stroke="#fff" fill-opacity="0"/><use xlink:href="#a" transform="matrix(1,0,0,1,2462.77646908564,-472.63504778893196) translate(11.671666666666672 18.694444444444443)"/><use xlink:href="#b" transform="matrix(1,0,0,1,2462.77646908564,-472.63504778893196) translate(15.625370370370375 37.36111111111111)"/><path d="M2650-422.2c16.57 0 30 13.44 30 30 0 16.58-13.43 30-30 30h-20c-16.57 0-30-13.42-30-30 0-16.56 13.43-30 30-30z" stroke="#fff" fill-opacity="0"/><use xlink:href="#a" transform="matrix(1,0,0,1,2604.9999999999995,-417.1895905700609) translate(11.671666666666672 18.694444444444443)"/><use xlink:href="#b" transform="matrix(1,0,0,1,2604.9999999999995,-417.1895905700609) translate(15.625370370370375 37.36111111111111)"/><path d="M2530-400c16.57 0 30 13.43 30 30s-13.43 30-30 30h-20c-16.57 0-30-13.43-30-30s13.43-30 30-30z" stroke="#fff" fill-opacity="0"/><use xlink:href="#a" transform="matrix(1,0,0,1,2485,-395) translate(11.671666666666672 18.694444444444443)"/><use xlink:href="#b" transform="matrix(1,0,0,1,2485,-395) translate(15.625370370370375 37.36111111111111)"/><path d="M2480-464.7a6 6 0 0 1 6-6h177.3a6 6 0 0 1 6 6v34.13a6 6 0 0 1-6 6H2486a6 6 0 0 1-6-6z" stroke="#000" stroke-opacity="0" fill-opacity="0"/><use xlink:href="#c" transform="matrix(1,0,0,1,2484.9999999999995,-465.6979236816551) translate(71.4814814814815 21.33333333333333)"/><use xlink:href="#d" transform="matrix(1,0,0,1,2484.9999999999995,-465.6979236816551) translate(86.2962962962963 21.33333333333333)"/><use xlink:href="#e" transform="matrix(1,0,0,1,2484.9999999999995,-465.6979236816551) translate(101.11111111111111 21.33333333333333)"/><path d="M2475.35-189.25a6 6 0 0 1 6-6h177.3a6 6 0 0 1 6 6v34.13a6 6 0 0 1-6 6h-177.3a6 6 0 0 1-6-6z" stroke="#000" stroke-opacity="0" fill-opacity="0"/><use xlink:href="#c" transform="matrix(1,0,0,1,2480.3457343718746,-190.2475403581276) translate(71.4814814814815 21.33333333333333)"/><use xlink:href="#d" transform="matrix(1,0,0,1,2480.3457343718746,-190.2475403581276) translate(86.2962962962963 21.33333333333333)"/><use xlink:href="#e" transform="matrix(1,0,0,1,2480.3457343718746,-190.2475403581276) translate(101.11111111111111 21.33333333333333)"/><path d="M2417.85 65.3l-2.43.2-2.98.15h-3.33l-3.75-.14-4.25-.33-4.83-.6-5.5-.9-6.3-1.33-7.17-1.82-8.16-2.44-9.23-3.18-10.3-4.05-11.3-4.98-12.1-5.96-12.56-6.85-12.62-7.58-12.25-8.08-11.5-8.3L2266.73.8l-9.4-8.05-8.25-7.7-7.16-7.24-6.15-6.78-5.28-6.32-4.48-5.86-3.82-5.44-3.23-5.05-2.75-4.7-2.3-4.4-1.96-4.1-1.65-3.85-1.36-3.63-1.14-3.43-.92-3.24-.74-3.1-.57-2.94-.43-2.83-.3-2.72-.17-2.6-.06-2.54.04-2.45v-.02" stroke="#fff" stroke-linejoin="round" fill="none"/><path d="M2431.97 61.34l-12.48 8.32-2.5-8.93z" stroke="#fff" fill="#fff"/><path d="M2205.2-98.14l-1-.04.04-.5h1z" stroke="#fff" stroke-width=".05" fill="#fff"/><path d="M2238.84-94.92l6.63 6.07 14.24 11.98 17.12 13.2 19.96 14.15 22.16 14.34 22.7 13.37 20.9 11.17 17.24 8.33 13.08 5.65 9.5 3.64 6.8 2.28 4.9 1.42 3.6.9 1.35.27" stroke="#fff" stroke-linejoin="round" fill="none"/><path d="M2234.5-98.9l14.68 3.1-10.32 11.25z" stroke="#fff" fill="#fff"/><path d="M2419.5 11.46v1.02l-.6-.13.2-.98z" stroke="#fff" stroke-width=".05" fill="#fff"/><path d="M2628.03-80c50.8 0 91.97 41.18 91.97 91.97 0 50.8-41.18 91.97-91.97 91.97h-116.06c-50.8 0-91.97-41.18-91.97-91.97 0-50.8 41.18-91.97 91.97-91.97z" stroke="#fff" fill-opacity="0"/><path d="M2507.78-55.67c16.56 0 30 13.43 30 30s-13.44 30-30 30h-20c-16.57 0-30-13.43-30-30s13.43-30 30-30z" stroke="#fff" fill-opacity="0"/><use xlink:href="#a" transform="matrix(1,0,0,1,2462.77646908564,-50.6669671812392) translate(11.671666666666672 18.694444444444443)"/><use xlink:href="#b" transform="matrix(1,0,0,1,2462.77646908564,-50.6669671812392) translate(15.625370370370375 37.36111111111111)"/><path d="M2650-.22c16.57 0 30 13.43 30 30s-13.43 30-30 30h-20c-16.57 0-30-13.43-30-30s13.43-30 30-30z" stroke="#fff" fill-opacity="0"/><use xlink:href="#a" transform="matrix(1,0,0,1,2604.9999999999995,4.778490037631872) translate(11.671666666666672 18.694444444444443)"/><use xlink:href="#b" transform="matrix(1,0,0,1,2604.9999999999995,4.778490037631872) translate(15.625370370370375 37.36111111111111)"/><path d="M2530 21.97c16.57 0 30 13.43 30 30s-13.43 30-30 30h-20c-16.57 0-30-13.43-30-30s13.43-30 30-30z" stroke="#fff" fill-opacity="0"/><use xlink:href="#a" transform="matrix(1,0,0,1,2485,26.96808060769276) translate(11.671666666666672 18.694444444444443)"/><use xlink:href="#b" transform="matrix(1,0,0,1,2485,26.96808060769276) translate(15.625370370370375 37.36111111111111)"/><path d="M2480-42.73a6 6 0 0 1 6-6h177.3a6 6 0 0 1 6 6V-8.6a6 6 0 0 1-6 6H2486a6 6 0 0 1-6-6z" stroke="#000" stroke-opacity="0" fill-opacity="0"/><use xlink:href="#c" transform="matrix(1,0,0,1,2484.9999999999995,-43.72984307396236) translate(71.4814814814815 21.33333333333333)"/><use xlink:href="#d" transform="matrix(1,0,0,1,2484.9999999999995,-43.72984307396236) translate(86.2962962962963 21.33333333333333)"/><use xlink:href="#e" transform="matrix(1,0,0,1,2484.9999999999995,-43.72984307396236) translate(101.11111111111111 21.33333333333333)"/><path d="M1895.7-832a8 8 0 0 1 8-8h559.36a8 8 0 0 1 8 8v64a8 8 0 0 1-8 8H1903.7a8 8 0 0 1-8-8z" stroke="#fff" fill-opacity="0"/><use xlink:href="#j" transform="matrix(1,0,0,1,1907.7127317903396,-828) translate(218.12962962962962 31.77777777777778)"/><path d="M1660-914a6 6 0 0 1 6-6h348a6 6 0 0 1 6 6v48a6 6 0 0 1-6 6h-348a6 6 0 0 1-6-6z" stroke="#000" stroke-opacity="0" fill-opacity="0"/><g><use xlink:href="#k" transform="matrix(1,0,0,1,1665,-915) translate(0 30.27777777777778)"/><use xlink:href="#l" transform="matrix(1,0,0,1,1665,-915) translate(86.35802469135803 30.27777777777778)"/><use xlink:href="#m" transform="matrix(1,0,0,1,1665,-915) translate(98.70370370370371 30.27777777777778)"/><use xlink:href="#n" transform="matrix(1,0,0,1,1665,-915) translate(199.75308641975312 30.27777777777778)"/><use xlink:href="#o" transform="matrix(1,0,0,1,1665,-915) translate(212.0987654320988 30.27777777777778)"/></g><path d="M2183.4-759v82.12" stroke="#fff" fill="none"/><path d="M2183.9-759h-1v-.5h1z" stroke="#fff" stroke-width=".05" fill="#fff"/><path d="M2183.4-662.12l-4.65-14.26h9.27z" stroke="#fff" fill="#fff"/><path d="M1660-715.67a6 6 0 0 1 6-6h468a6 6 0 0 1 6 6v48a6 6 0 0 1-6 6h-468a6 6 0 0 1-6-6z" stroke="#000" stroke-opacity="0" fill-opacity="0"/><g><use xlink:href="#p" transform="matrix(1,0,0,1,1665,-716.6666666666666) translate(0 30.27777777777778)"/><use xlink:href="#q" transform="matrix(1,0,0,1,1665,-716.6666666666666) translate(45.55555555555556 30.27777777777778)"/><use xlink:href="#r" transform="matrix(1,0,0,1,1665,-716.6666666666666) translate(65.24691358024691 30.27777777777778)"/><use xlink:href="#s" transform="matrix(1,0,0,1,1665,-716.6666666666666) translate(123.20987654320987 30.27777777777778)"/><use xlink:href="#n" transform="matrix(1,0,0,1,1665,-716.6666666666666) translate(227.96296296296296 30.27777777777778)"/><use xlink:href="#m" transform="matrix(1,0,0,1,1665,-716.6666666666666) translate(240.30864197530863 30.27777777777778)"/><use xlink:href="#n" transform="matrix(1,0,0,1,1665,-716.6666666666666) translate(341.358024691358 30.27777777777778)"/><use xlink:href="#t" transform="matrix(1,0,0,1,1665,-716.6666666666666) translate(353.7037037037037 30.27777777777778)"/></g><path d="M1660-814a6 6 0 0 1 6-6h208a6 6 0 0 1 6 6v48a6 6 0 0 1-6 6h-208a6 6 0 0 1-6-6z" stroke="#000" stroke-opacity="0" fill-opacity="0"/><g><use xlink:href="#u" transform="matrix(1,0,0,1,1665,-815) translate(0 30.27777777777778)"/><use xlink:href="#v" transform="matrix(1,0,0,1,1665,-815) translate(91.17283950617285 30.27777777777778)"/></g><path d="M2040 208a8 8 0 0 1 8-8h284a8 8 0 0 1 8 8v104a8 8 0 0 1-8 8h-284a8 8 0 0 1-8-8z" stroke="#fff" fill-opacity="0"/><g><use xlink:href="#w" transform="matrix(1,0,0,1,2052,212) translate(4.055555555555543 26.77777777777778)"/><use xlink:href="#x" transform="matrix(1,0,0,1,2052,212) translate(62.08024691358023 26.77777777777778)"/><use xlink:href="#y" transform="matrix(1,0,0,1,2052,212) translate(143.43827160493825 26.77777777777778)"/><use xlink:href="#z" transform="matrix(1,0,0,1,2052,212) translate(168.12962962962962 26.77777777777778)"/><use xlink:href="#A" transform="matrix(1,0,0,1,2052,212) translate(25.66049382716048 53.44444444444445)"/><use xlink:href="#B" transform="matrix(1,0,0,1,2052,212) translate(76.21604938271604 53.44444444444445)"/><use xlink:href="#C" transform="matrix(1,0,0,1,2052,212) translate(130.537037037037 53.44444444444445)"/><use xlink:href="#D" transform="matrix(1,0,0,1,2052,212) translate(194.61111111111111 53.44444444444445)"/><use xlink:href="#E" transform="matrix(1,0,0,1,2052,212) translate(232.820987654321 53.44444444444445)"/><use xlink:href="#F" transform="matrix(1,0,0,1,2052,212) translate(91.12345679012346 80.11111111111111)"/><use xlink:href="#G" transform="matrix(1,0,0,1,2052,212) translate(178.53086419753086 80.11111111111111)"/></g><path d="M2185.37 141v28.8a.2.2 0 0 0 .2.2.2.2 0 0 1 .2.2v12.92M2185.37 141v-.5" stroke="#fff" fill="none"/><path d="M2185.78 197.88l-4.63-14.26h9.27z" stroke="#fff" fill="#fff"/><g><path d="M1761.4-561.5a6 6 0 0 1 4.43-7.23l124.47-29.87a6 6 0 0 1 7.23 4.43l16.56 68.98a6 6 0 0 1-4.45 7.24L1785.2-488.1a6 6 0 0 1-7.25-4.42z" stroke="#fff"/></g><g><use xlink:href="#H" transform="matrix(0.9723905140047645,-0.23335956863507848,0.23335956863507848,0.9723905140047645,1766.028750413199,-563.6345056642406) translate(14.475308641975317 26.90277777777778)"/><use xlink:href="#I" transform="matrix(0.9723905140047645,-0.23335956863507848,0.23335956863507848,0.9723905140047645,1766.028750413199,-563.6345056642406) translate(89.6604938271605 26.90277777777778)"/><use xlink:href="#J" transform="matrix(0.9723905140047645,-0.23335956863507848,0.23335956863507848,0.9723905140047645,1766.028750413199,-563.6345056642406) translate(19.413580246913575 53.56944444444445)"/></g><g><path d="M2290.7-586.25a6 6 0 0 1 4.44-7.23l124.47-29.87a6 6 0 0 1 7.24 4.43l16.56 68.98a6 6 0 0 1-4.44 7.23l-124.46 29.86a6 6 0 0 1-7.24-4.43z" stroke="#fff"/></g><g><use xlink:href="#H" transform="matrix(0.9723905140047645,-0.23335956863507848,0.23335956863507848,0.9723905140047645,2295.3372816694505,-588.3869653061129) translate(14.475308641975317 26.90277777777778)"/><use xlink:href="#I" transform="matrix(0.9723905140047645,-0.23335956863507848,0.23335956863507848,0.9723905140047645,2295.3372816694505,-588.3869653061129) translate(89.6604938271605 26.90277777777778)"/><use xlink:href="#K" transform="matrix(0.9723905140047645,-0.23335956863507848,0.23335956863507848,0.9723905140047645,2295.3372816694505,-588.3869653061129) translate(23.05555555555555 53.56944444444445)"/></g><g><path d="M2581.4-532.84a6 6 0 0 1 4.43-7.24l124.47-29.87a6 6 0 0 1 7.23 4.44l16.56 68.96a6 6 0 0 1-4.45 7.24l-124.46 29.87a6 6 0 0 1-7.25-4.44z" stroke="#fff"/></g><g><use xlink:href="#H" transform="matrix(0.9723905140047645,-0.23335956863507848,0.23335956863507848,0.9723905140047645,2586.0287504131993,-534.979713185105) translate(14.475308641975317 26.90277777777778)"/><use xlink:href="#I" transform="matrix(0.9723905140047645,-0.23335956863507848,0.23335956863507848,0.9723905140047645,2586.0287504131993,-534.979713185105) translate(89.6604938271605 26.90277777777778)"/><use xlink:href="#L" transform="matrix(0.9723905140047645,-0.23335956863507848,0.23335956863507848,0.9723905140047645,2586.0287504131993,-534.979713185105) translate(29.25925925925926 53.56944444444445)"/></g><path d="M1660 82.67a6 6 0 0 1 6-6h288a6 6 0 0 1 6 6V114a6 6 0 0 1-6 6h-288a6 6 0 0 1-6-6z" stroke="#000" stroke-opacity="0" fill-opacity="0"/><g><use xlink:href="#M" transform="matrix(1,0,0,1,1665,81.6666666666666) translate(0 22.02777777777778)"/><use xlink:href="#N" transform="matrix(1,0,0,1,1665,81.6666666666666) translate(20.185185185185183 22.02777777777778)"/><use xlink:href="#O" transform="matrix(1,0,0,1,1665,81.6666666666666) translate(84.25925925925927 22.02777777777778)"/><use xlink:href="#P" transform="matrix(1,0,0,1,1665,81.6666666666666) translate(122.46913580246914 22.02777777777778)"/><use xlink:href="#Q" transform="matrix(1,0,0,1,1665,81.6666666666666) translate(147.1604938271605 22.02777777777778)"/><use xlink:href="#R" transform="matrix(1,0,0,1,1665,81.6666666666666) translate(234.5679012345679 22.02777777777778)"/></g><defs><path fill="#fff" d="M135-143c-3-34-86-38-87 0 15 53 115 12 119 90S17 21 10-45l28-5c4 36 97 45 98 0-10-56-113-15-118-90-4-57 82-63 122-42 12 7 21 19 24 35" id="S"/><path fill="#fff" d="M84 4C-5 8 30-112 23-190h32v120c0 31 7 50 39 49 72-2 45-101 50-169h31l1 190h-30c-1-10 1-25-2-33-11 22-28 36-60 37" id="T"/><path fill="#fff" d="M115-194c53 0 69 39 70 98 0 66-23 100-70 100C84 3 66-7 56-30L54 0H23l1-261h32v101c10-23 28-34 59-34zm-8 174c40 0 45-34 45-75 0-40-5-75-45-74-42 0-51 32-51 76 0 43 10 73 51 73" id="U"/><path fill="#fff" d="M117-194c89-4 53 116 60 194h-32v-121c0-31-8-49-39-48C34-167 62-67 57 0H25l-1-190h30c1 10-1 24 2 32 11-22 29-35 61-36" id="V"/><path fill="#fff" d="M100-194c63 0 86 42 84 106H49c0 40 14 67 53 68 26 1 43-12 49-29l28 8c-11 28-37 45-77 45C44 4 14-33 15-96c1-61 26-98 85-98zm52 81c6-60-76-77-97-28-3 7-6 17-6 28h103" id="W"/><path fill="#fff" d="M59-47c-2 24 18 29 38 22v24C64 9 27 4 27-40v-127H5v-23h24l9-43h21v43h35v23H59v120" id="X"/><g id="a"><use transform="matrix(0.04320987654320987,0,0,0.04320987654320987,0,0)" xlink:href="#S"/><use transform="matrix(0.04320987654320987,0,0,0.04320987654320987,7.777777777777776,0)" xlink:href="#T"/><use transform="matrix(0.04320987654320987,0,0,0.04320987654320987,16.41975308641975,0)" xlink:href="#U"/><use transform="matrix(0.04320987654320987,0,0,0.04320987654320987,25.061728395061724,0)" xlink:href="#V"/><use transform="matrix(0.04320987654320987,0,0,0.04320987654320987,33.703703703703695,0)" xlink:href="#W"/><use transform="matrix(0.04320987654320987,0,0,0.04320987654320987,42.34567901234567,0)" xlink:href="#X"/></g><path fill="#fff" d="M210-169c-67 3-38 105-44 169h-31v-121c0-29-5-50-35-48C34-165 62-65 56 0H25l-1-190h30c1 10-1 24 2 32 10-44 99-50 107 0 11-21 27-35 58-36 85-2 47 119 55 194h-31v-121c0-29-5-49-35-48" id="Y"/><path fill="#fff" d="M24-231v-30h32v30H24zM24 0v-190h32V0H24" id="Z"/><path fill="#fff" d="M114-163C36-179 61-72 57 0H25l-1-190h30c1 12-1 29 2 39 6-27 23-49 58-41v29" id="aa"/><g id="b"><use transform="matrix(0.04320987654320987,0,0,0.04320987654320987,0,0)" xlink:href="#Y"/><use transform="matrix(0.04320987654320987,0,0,0.04320987654320987,12.91975308641975,0)" xlink:href="#Z"/><use transform="matrix(0.04320987654320987,0,0,0.04320987654320987,16.33333333333333,0)" xlink:href="#V"/><use transform="matrix(0.04320987654320987,0,0,0.04320987654320987,24.975308641975303,0)" xlink:href="#W"/><use transform="matrix(0.04320987654320987,0,0,0.04320987654320987,33.61728395061728,0)" xlink:href="#aa"/></g><path fill="#fff" d="M24 0v-54h51V0H24" id="ab"/><use transform="matrix(0.07407407407407404,0,0,0.07407407407407404,0,0)" xlink:href="#ab" id="c"/><use transform="matrix(0.07407407407407404,0,0,0.07407407407407404,0,0)" xlink:href="#ab" id="d"/><use transform="matrix(0.07407407407407404,0,0,0.07407407407407404,0,0)" xlink:href="#ab" id="e"/><g id="f"><use transform="matrix(0.06172839506172839,0,0,0.06172839506172839,0,0)" xlink:href="#S"/><use transform="matrix(0.06172839506172839,0,0,0.06172839506172839,11.11111111111111,0)" xlink:href="#T"/><use transform="matrix(0.06172839506172839,0,0,0.06172839506172839,23.45679012345679,0)" xlink:href="#U"/><use transform="matrix(0.06172839506172839,0,0,0.06172839506172839,35.80246913580247,0)" xlink:href="#V"/><use transform="matrix(0.06172839506172839,0,0,0.06172839506172839,48.148148148148145,0)" xlink:href="#W"/><use transform="matrix(0.06172839506172839,0,0,0.06172839506172839,60.49382716049382,0)" xlink:href="#X"/></g><path fill="#fff" d="M108 0H70L1-190h34L89-25l56-165h34" id="ac"/><path fill="#fff" d="M141-36C126-15 110 5 73 4 37 3 15-17 15-53c-1-64 63-63 125-63 3-35-9-54-41-54-24 1-41 7-42 31l-33-3c5-37 33-52 76-52 45 0 72 20 72 64v82c-1 20 7 32 28 27v20c-31 9-61-2-59-35zM48-53c0 20 12 33 32 33 41-3 63-29 60-74-43 2-92-5-92 41" id="ad"/><path fill="#fff" d="M24 0v-261h32V0H24" id="ae"/><path fill="#fff" d="M85-194c31 0 48 13 60 33l-1-100h32l1 261h-30c-2-10 0-23-3-31C134-8 116 4 85 4 32 4 16-35 15-94c0-66 23-100 70-100zm9 24c-40 0-46 34-46 75 0 40 6 74 45 74 42 0 51-32 51-76 0-42-9-74-50-73" id="af"/><path fill="#fff" d="M100-194c62-1 85 37 85 99 1 63-27 99-86 99S16-35 15-95c0-66 28-99 85-99zM99-20c44 1 53-31 53-75 0-43-8-75-51-75s-53 32-53 75 10 74 51 75" id="ag"/><g id="g"><use transform="matrix(0.06172839506172839,0,0,0.06172839506172839,0,0)" xlink:href="#ac"/><use transform="matrix(0.06172839506172839,0,0,0.06172839506172839,11.11111111111111,0)" xlink:href="#ad"/><use transform="matrix(0.06172839506172839,0,0,0.06172839506172839,23.45679012345679,0)" xlink:href="#ae"/><use transform="matrix(0.06172839506172839,0,0,0.06172839506172839,28.333333333333336,0)" xlink:href="#Z"/><use transform="matrix(0.06172839506172839,0,0,0.06172839506172839,33.20987654320988,0)" xlink:href="#af"/><use transform="matrix(0.06172839506172839,0,0,0.06172839506172839,45.55555555555556,0)" xlink:href="#ad"/><use transform="matrix(0.06172839506172839,0,0,0.06172839506172839,57.901234567901234,0)" xlink:href="#X"/><use transform="matrix(0.06172839506172839,0,0,0.06172839506172839,64.07407407407408,0)" xlink:href="#ag"/><use transform="matrix(0.06172839506172839,0,0,0.06172839506172839,76.41975308641976,0)" xlink:href="#aa"/></g><path fill="#fff" d="M67-162c32-53 139-36 121 50C175-51 163 2 97 4 68 4 52-11 42-31 38 6 28 39 22 75H-9l50-265h29c-1 10 0 20-3 28zm89 36c0-26-10-43-35-43-54 0-67 50-69 103-1 29 14 45 42 46 53 0 62-58 62-106" id="ah"/><path fill="#fff" d="M66-151c12-25 30-51 66-40l-6 26C45-176 58-65 38 0H6l36-190h30" id="ai"/><path fill="#fff" d="M30-147c31-64 166-65 159 27C183-49 158 1 86 4 9 8 1-88 30-147zM88-20c53 0 68-48 68-100 0-31-11-51-44-50-52 1-68 46-68 97 0 32 13 53 44 53" id="aj"/><path fill="#fff" d="M248-111c6-24 9-61-24-58-72 9-57 108-77 169h-31l26-142c3-37-50-30-64-10C52-115 50-51 37 0H6l36-190h30c-1 10-6 24-4 32 13-43 101-52 105 5 13-22 29-41 61-41 90 0 28 129 23 194h-31" id="ak"/><path fill="#fff" d="M51-54c-9 22 5 41 31 30L79-1C43 14 10-4 19-52l22-115H19l5-23h22l19-43h21l-9 43h35l-4 23H73" id="al"/><g id="h"><use transform="matrix(0.06172839506172839,0,0,0.06172839506172839,0,0)" xlink:href="#ah"/><use transform="matrix(0.06172839506172839,0,0,0.06172839506172839,12.345679012345679,0)" xlink:href="#ai"/><use transform="matrix(0.06172839506172839,0,0,0.06172839506172839,19.691358024691358,0)" xlink:href="#aj"/><use transform="matrix(0.06172839506172839,0,0,0.06172839506172839,32.03703703703704,0)" xlink:href="#ak"/><use transform="matrix(0.06172839506172839,0,0,0.06172839506172839,50.49382716049382,0)" xlink:href="#ah"/><use transform="matrix(0.06172839506172839,0,0,0.06172839506172839,62.8395061728395,0)" xlink:href="#al"/></g><path fill="#fff" d="M111-194c62-3 86 47 72 106H45c-7 38 6 69 45 68 27-1 43-14 53-32l24 11C152-15 129 4 87 4 38 3 12-23 12-71c0-70 32-119 99-123zm44 81c14-66-71-72-95-28-4 8-8 17-11 28h106" id="am"/><path fill="#fff" d="M55-144c13 50 104 24 104 88C159 21 15 23 1-39l26-10c6 40 102 42 102-4-13-50-104-23-104-87 0-71 143-71 148-8l-29 4c-5-35-85-37-89 0" id="an"/><path fill="#fff" d="M67-158c22-48 132-52 116 29L158 0h-32l25-140c3-38-53-32-70-12C52-117 51-52 38 0H6l36-190h30" id="ao"/><g id="i"><use transform="matrix(0.06172839506172839,0,0,0.06172839506172839,0,0)" xlink:href="#ai"/><use transform="matrix(0.06172839506172839,0,0,0.06172839506172839,7.345679012345679,0)" xlink:href="#am"/><use transform="matrix(0.06172839506172839,0,0,0.06172839506172839,19.691358024691358,0)" xlink:href="#an"/><use transform="matrix(0.06172839506172839,0,0,0.06172839506172839,30.80246913580247,0)" xlink:href="#ah"/><use transform="matrix(0.06172839506172839,0,0,0.06172839506172839,43.148148148148145,0)" xlink:href="#aj"/><use transform="matrix(0.06172839506172839,0,0,0.06172839506172839,55.49382716049382,0)" xlink:href="#ao"/><use transform="matrix(0.06172839506172839,0,0,0.06172839506172839,67.8395061728395,0)" xlink:href="#an"/><use transform="matrix(0.06172839506172839,0,0,0.06172839506172839,78.95061728395062,0)" xlink:href="#am"/></g><path fill="#fff" d="M33 0v-248h34V0H33" id="ap"/><path fill="#fff" d="M9 0v-24l116-142H16v-24h144v24L44-24h123V0H9" id="aq"/><g id="j"><use transform="matrix(0.06172839506172839,0,0,0.06172839506172839,0,0)" xlink:href="#ap"/><use transform="matrix(0.06172839506172839,0,0,0.06172839506172839,6.172839506172839,0)" xlink:href="#V"/><use transform="matrix(0.06172839506172839,0,0,0.06172839506172839,18.51851851851852,0)" xlink:href="#Z"/><use transform="matrix(0.06172839506172839,0,0,0.06172839506172839,23.395061728395063,0)" xlink:href="#X"/><use transform="matrix(0.06172839506172839,0,0,0.06172839506172839,29.567901234567902,0)" xlink:href="#Z"/><use transform="matrix(0.06172839506172839,0,0,0.06172839506172839,34.44444444444444,0)" xlink:href="#ad"/><use transform="matrix(0.06172839506172839,0,0,0.06172839506172839,46.79012345679012,0)" xlink:href="#ae"/><use transform="matrix(0.06172839506172839,0,0,0.06172839506172839,51.666666666666664,0)" xlink:href="#Z"/><use transform="matrix(0.06172839506172839,0,0,0.06172839506172839,56.54320987654321,0)" xlink:href="#aq"/><use transform="matrix(0.06172839506172839,0,0,0.06172839506172839,67.65432098765432,0)" xlink:href="#ad"/><use transform="matrix(0.06172839506172839,0,0,0.06172839506172839,80,0)" xlink:href="#X"/><use transform="matrix(0.06172839506172839,0,0,0.06172839506172839,86.17283950617283,0)" xlink:href="#Z"/><use transform="matrix(0.06172839506172839,0,0,0.06172839506172839,91.04938271604938,0)" xlink:href="#ag"/><use transform="matrix(0.06172839506172839,0,0,0.06172839506172839,103.39506172839506,0)" xlink:href="#V"/></g><path fill="#fff" d="M67 3c-93-2-31-127-26-193h32L48-50c-3 39 53 32 70 12 30-34 30-101 43-152h32L157 0h-30c1-10 6-24 4-33-14 20-29 37-64 36" id="ar"/><g id="k"><use transform="matrix(0.06172839506172839,0,0,0.06172839506172839,0,0)" xlink:href="#ao"/><use transform="matrix(0.06172839506172839,0,0,0.06172839506172839,12.345679012345679,0)" xlink:href="#am"/><use transform="matrix(0.06172839506172839,0,0,0.06172839506172839,24.691358024691358,0)" xlink:href="#ar"/><use transform="matrix(0.06172839506172839,0,0,0.06172839506172839,37.03703703703704,0)" xlink:href="#ai"/><use transform="matrix(0.06172839506172839,0,0,0.06172839506172839,44.382716049382715,0)" xlink:href="#aj"/><use transform="matrix(0.06172839506172839,0,0,0.06172839506172839,56.72839506172839,0)" xlink:href="#ao"/><use transform="matrix(0.06172839506172839,0,0,0.06172839506172839,69.07407407407408,0)" xlink:href="#an"/></g><path fill="#fff" d="M-20 4l123-265h28L8 4h-28" id="as"/><use transform="matrix(0.06172839506172839,0,0,0.06172839506172839,0,0)" xlink:href="#as" id="l"/><path fill="#fff" d="M89 0H52L20-190h33L74-25l89-165h34" id="at"/><path fill="#fff" d="M165-48c-4 18 1 34 23 27l-3 20c-29 8-62 0-52-35h-2C116-14 99 4 63 4 30 4 8-16 8-49c0-68 71-67 138-67 10-26 0-56-31-54-26 1-42 9-47 31l-32-5c8-67 160-71 144 15-5 28-9 54-15 81zM42-50c3 52 80 24 89-6 7-12 7-24 11-38-47 1-103-4-100 44" id="au"/><path fill="#fff" d="M6 0l50-261h32L37 0H6" id="av"/><path fill="#fff" d="M50-231l6-30h32l-6 30H50zM6 0l37-190h31L37 0H6" id="aw"/><path fill="#fff" d="M133-28C103 26-5 8 13-77c13-62 24-115 90-117 29-1 46 15 56 35l19-102h32L160 0h-30zM45-64c-2 27 10 43 35 43 54-1 69-50 69-103 0-29-15-46-42-46-53-1-58 58-62 106" id="ax"/><g id="m"><use transform="matrix(0.06172839506172839,0,0,0.06172839506172839,0,0)" xlink:href="#at"/><use transform="matrix(0.06172839506172839,0,0,0.06172839506172839,11.11111111111111,0)" xlink:href="#au"/><use transform="matrix(0.06172839506172839,0,0,0.06172839506172839,23.45679012345679,0)" xlink:href="#av"/><use transform="matrix(0.06172839506172839,0,0,0.06172839506172839,28.333333333333336,0)" xlink:href="#aw"/><use transform="matrix(0.06172839506172839,0,0,0.06172839506172839,33.20987654320988,0)" xlink:href="#ax"/><use transform="matrix(0.06172839506172839,0,0,0.06172839506172839,45.55555555555556,0)" xlink:href="#au"/><use transform="matrix(0.06172839506172839,0,0,0.06172839506172839,57.901234567901234,0)" xlink:href="#al"/><use transform="matrix(0.06172839506172839,0,0,0.06172839506172839,64.07407407407408,0)" xlink:href="#aj"/><use transform="matrix(0.06172839506172839,0,0,0.06172839506172839,76.41975308641976,0)" xlink:href="#ai"/><use transform="matrix(0.06172839506172839,0,0,0.06172839506172839,83.76543209876544,0)" xlink:href="#an"/></g><use transform="matrix(0.06172839506172839,0,0,0.06172839506172839,0,0)" xlink:href="#as" id="n"/><path fill="#fff" d="M14 0l8-38h34L48 0H14" id="ay"/><path fill="#fff" d="M198-190L69 30C53 58 25 83-20 72c4-11-1-27 19-22 33-1 43-29 59-52L20-190h32L79-34l84-156h35" id="az"/><g id="o"><use transform="matrix(0.06172839506172839,0,0,0.06172839506172839,0,0)" xlink:href="#at"/><use transform="matrix(0.06172839506172839,0,0,0.06172839506172839,11.11111111111111,0)" xlink:href="#au"/><use transform="matrix(0.06172839506172839,0,0,0.06172839506172839,23.45679012345679,0)" xlink:href="#av"/><use transform="matrix(0.06172839506172839,0,0,0.06172839506172839,28.333333333333336,0)" xlink:href="#aw"/><use transform="matrix(0.06172839506172839,0,0,0.06172839506172839,33.20987654320988,0)" xlink:href="#ax"/><use transform="matrix(0.06172839506172839,0,0,0.06172839506172839,45.55555555555556,0)" xlink:href="#au"/><use transform="matrix(0.06172839506172839,0,0,0.06172839506172839,57.901234567901234,0)" xlink:href="#al"/><use transform="matrix(0.06172839506172839,0,0,0.06172839506172839,64.07407407407408,0)" xlink:href="#aj"/><use transform="matrix(0.06172839506172839,0,0,0.06172839506172839,76.41975308641976,0)" xlink:href="#ai"/><use transform="matrix(0.06172839506172839,0,0,0.06172839506172839,82.96296296296298,0)" xlink:href="#ay"/><use transform="matrix(0.06172839506172839,0,0,0.06172839506172839,89.13580246913581,0)" xlink:href="#ah"/><use transform="matrix(0.06172839506172839,0,0,0.06172839506172839,101.4814814814815,0)" xlink:href="#az"/></g><path fill="#fff" d="M17-49c1-102 45-165 103-212h30C92-210 49-145 49-46 49 4 63 43 85 75H54C30 43 18 2 17-49" id="aA"/><g id="p"><use transform="matrix(0.06172839506172839,0,0,0.06172839506172839,0,0)" xlink:href="#ai"/><use transform="matrix(0.06172839506172839,0,0,0.06172839506172839,7.345679012345679,0)" xlink:href="#ar"/><use transform="matrix(0.06172839506172839,0,0,0.06172839506172839,19.691358024691358,0)" xlink:href="#ao"/><use transform="matrix(0.06172839506172839,0,0,0.06172839506172839,32.03703703703704,0)" xlink:href="#aA"/></g><path fill="#fff" d="M98-137C97-35 54 29-4 75h-31C23 23 67-41 67-140c0-50-15-89-37-121h31c24 32 36 73 37 124" id="aB"/><path fill="#fff" d="M44-154l7-36h35l-8 36H44zM14 0l7-36h35L49 0H14" id="aC"/><g id="q"><use transform="matrix(0.06172839506172839,0,0,0.06172839506172839,0,0)" xlink:href="#aB"/><use transform="matrix(0.06172839506172839,0,0,0.06172839506172839,7.345679012345679,0)" xlink:href="#aC"/></g><path fill="#fff" d="M249-183c0 48-29 72-75 77L221 0h-36l-43-103H65L45 0H11l48-248c83 2 190-17 190 65zm-34 3c0-55-74-39-127-41l-18 92c63-1 145 13 145-51" id="aD"/><g id="r"><use transform="matrix(0.06172839506172839,0,0,0.06172839506172839,0,0)" xlink:href="#aD"/><use transform="matrix(0.06172839506172839,0,0,0.06172839506172839,15.987654320987653,0)" xlink:href="#ar"/><use transform="matrix(0.06172839506172839,0,0,0.06172839506172839,28.333333333333332,0)" xlink:href="#ao"/><use transform="matrix(0.06172839506172839,0,0,0.06172839506172839,40.67901234567901,0)" xlink:href="#an"/></g><path fill="#fff" d="M103-194c29 0 47 14 56 36 2-11 5-23 8-32h30L160-5C157 61 82 97 21 62 9 55 4 45 1 30l28-7c7 42 83 31 92-3 4-16 9-38 13-55-13 20-29 36-62 36-40 0-60-25-60-64 0-71 23-131 91-131zm4 24c-53 0-58 54-61 104-2 27 10 44 36 44 49 0 65-50 67-102 1-29-15-46-42-46" id="aE"/><g id="s"><use transform="matrix(0.06172839506172839,0,0,0.06172839506172839,0,0)" xlink:href="#ah"/><use transform="matrix(0.06172839506172839,0,0,0.06172839506172839,12.345679012345679,0)" xlink:href="#ai"/><use transform="matrix(0.06172839506172839,0,0,0.06172839506172839,19.691358024691358,0)" xlink:href="#aj"/><use transform="matrix(0.06172839506172839,0,0,0.06172839506172839,32.03703703703704,0)" xlink:href="#ak"/><use transform="matrix(0.06172839506172839,0,0,0.06172839506172839,50.49382716049382,0)" xlink:href="#ah"/><use transform="matrix(0.06172839506172839,0,0,0.06172839506172839,62.8395061728395,0)" xlink:href="#al"/><use transform="matrix(0.06172839506172839,0,0,0.06172839506172839,69.01234567901234,0)" xlink:href="#aw"/><use transform="matrix(0.06172839506172839,0,0,0.06172839506172839,73.88888888888889,0)" xlink:href="#ao"/><use transform="matrix(0.06172839506172839,0,0,0.06172839506172839,86.23456790123457,0)" xlink:href="#aE"/></g><path fill="#fff" d="M76-167L44 0H12l33-167H18l4-23h27c3-47 25-81 82-69l-4 24c-35-8-44 15-46 45h37l-5 23H76" id="aF"/><path fill="#fff" d="M188 0h-37l-8-164L71 0H34L18-190h31l8 164 75-164h34l8 164 74-164h31" id="aG"/><g id="t"><use transform="matrix(0.06172839506172839,0,0,0.06172839506172839,0,0)" xlink:href="#aF"/><use transform="matrix(0.06172839506172839,0,0,0.06172839506172839,6.172839506172839,0)" xlink:href="#aj"/><use transform="matrix(0.06172839506172839,0,0,0.06172839506172839,18.51851851851852,0)" xlink:href="#ai"/><use transform="matrix(0.06172839506172839,0,0,0.06172839506172839,25.864197530864196,0)" xlink:href="#aG"/><use transform="matrix(0.06172839506172839,0,0,0.06172839506172839,41.85185185185185,0)" xlink:href="#au"/><use transform="matrix(0.06172839506172839,0,0,0.06172839506172839,54.197530864197525,0)" xlink:href="#ai"/><use transform="matrix(0.06172839506172839,0,0,0.06172839506172839,61.5432098765432,0)" xlink:href="#ax"/><use transform="matrix(0.06172839506172839,0,0,0.06172839506172839,73.88888888888889,0)" xlink:href="#ay"/><use transform="matrix(0.06172839506172839,0,0,0.06172839506172839,80.06172839506172,0)" xlink:href="#ah"/><use transform="matrix(0.06172839506172839,0,0,0.06172839506172839,92.4074074074074,0)" xlink:href="#az"/></g><path fill="#fff" d="M-28 44V31h207v13H-28" id="aH"/><g id="u"><use transform="matrix(0.06172839506172839,0,0,0.06172839506172839,0,0)" xlink:href="#aH"/><use transform="matrix(0.06172839506172839,0,0,0.06172839506172839,12.345679012345679,0)" xlink:href="#aH"/><use transform="matrix(0.06172839506172839,0,0,0.06172839506172839,24.691358024691358,0)" xlink:href="#aw"/><use transform="matrix(0.06172839506172839,0,0,0.06172839506172839,29.5679012345679,0)" xlink:href="#ao"/><use transform="matrix(0.06172839506172839,0,0,0.06172839506172839,41.913580246913575,0)" xlink:href="#aw"/><use transform="matrix(0.06172839506172839,0,0,0.06172839506172839,46.79012345679012,0)" xlink:href="#al"/><use transform="matrix(0.06172839506172839,0,0,0.06172839506172839,52.96296296296296,0)" xlink:href="#aH"/><use transform="matrix(0.06172839506172839,0,0,0.06172839506172839,65.30864197530865,0)" xlink:href="#aH"/><use transform="matrix(0.06172839506172839,0,0,0.06172839506172839,77.65432098765433,0)" xlink:href="#aA"/></g><use transform="matrix(0.06172839506172839,0,0,0.06172839506172839,0,0)" xlink:href="#aB" id="v"/><path fill="#fff" d="M185-189c-5-48-123-54-124 2 14 75 158 14 163 119 3 78-121 87-175 55-17-10-28-26-33-46l33-7c5 56 141 63 141-1 0-78-155-14-162-118-5-82 145-84 179-34 5 7 8 16 11 25" id="aI"/><g id="w"><use transform="matrix(0.06172839506172839,0,0,0.06172839506172839,0,0)" xlink:href="#aI"/><use transform="matrix(0.06172839506172839,0,0,0.06172839506172839,14.814814814814813,0)" xlink:href="#W"/><use transform="matrix(0.06172839506172839,0,0,0.06172839506172839,27.160493827160494,0)" xlink:href="#V"/><use transform="matrix(0.06172839506172839,0,0,0.06172839506172839,39.50617283950617,0)" xlink:href="#af"/></g><path fill="#fff" d="M206 0h-36l-40-164L89 0H53L-1-190h32L70-26l43-164h34l41 164 42-164h31" id="aJ"/><path fill="#fff" d="M177-190C167-65 218 103 67 71c-23-6-38-20-44-43l32-5c15 47 100 32 89-28v-30C133-14 115 1 83 1 29 1 15-40 15-95c0-56 16-97 71-98 29-1 48 16 59 35 1-10 0-23 2-32h30zM94-22c36 0 50-32 50-73 0-42-14-75-50-75-39 0-46 34-46 75s6 73 46 73" id="aK"/><path fill="#fff" d="M106-169C34-169 62-67 57 0H25v-261h32l-1 103c12-21 28-36 61-36 89 0 53 116 60 194h-32v-121c2-32-8-49-39-48" id="aL"/><g id="x"><use transform="matrix(0.06172839506172839,0,0,0.06172839506172839,0,0)" xlink:href="#aJ"/><use transform="matrix(0.06172839506172839,0,0,0.06172839506172839,15.987654320987653,0)" xlink:href="#W"/><use transform="matrix(0.06172839506172839,0,0,0.06172839506172839,28.333333333333332,0)" xlink:href="#Z"/><use transform="matrix(0.06172839506172839,0,0,0.06172839506172839,33.20987654320987,0)" xlink:href="#aK"/><use transform="matrix(0.06172839506172839,0,0,0.06172839506172839,45.55555555555555,0)" xlink:href="#aL"/><use transform="matrix(0.06172839506172839,0,0,0.06172839506172839,57.90123456790123,0)" xlink:href="#X"/><use transform="matrix(0.06172839506172839,0,0,0.06172839506172839,64.07407407407406,0)" xlink:href="#S"/></g><g id="y"><use transform="matrix(0.06172839506172839,0,0,0.06172839506172839,0,0)" xlink:href="#X"/><use transform="matrix(0.06172839506172839,0,0,0.06172839506172839,6.172839506172839,0)" xlink:href="#ag"/></g><path fill="#fff" d="M96-169c-40 0-48 33-48 73s9 75 48 75c24 0 41-14 43-38l32 2c-6 37-31 61-74 61-59 0-76-41-82-99-10-93 101-131 147-64 4 7 5 14 7 22l-32 3c-4-21-16-35-41-35" id="aM"/><path fill="#fff" d="M143 0L79-87 56-68V0H24v-261h32v163l83-92h37l-77 82L181 0h-38" id="aN"/><g id="z"><use transform="matrix(0.06172839506172839,0,0,0.06172839506172839,0,0)" xlink:href="#U"/><use transform="matrix(0.06172839506172839,0,0,0.06172839506172839,12.345679012345679,0)" xlink:href="#ae"/><use transform="matrix(0.06172839506172839,0,0,0.06172839506172839,17.22222222222222,0)" xlink:href="#ag"/><use transform="matrix(0.06172839506172839,0,0,0.06172839506172839,29.5679012345679,0)" xlink:href="#aM"/><use transform="matrix(0.06172839506172839,0,0,0.06172839506172839,40.67901234567901,0)" xlink:href="#aN"/><use transform="matrix(0.06172839506172839,0,0,0.06172839506172839,51.79012345679013,0)" xlink:href="#aM"/><use transform="matrix(0.06172839506172839,0,0,0.06172839506172839,62.90123456790124,0)" xlink:href="#aL"/><use transform="matrix(0.06172839506172839,0,0,0.06172839506172839,75.24691358024693,0)" xlink:href="#ad"/><use transform="matrix(0.06172839506172839,0,0,0.06172839506172839,87.59259259259261,0)" xlink:href="#Z"/><use transform="matrix(0.06172839506172839,0,0,0.06172839506172839,92.46913580246915,0)" xlink:href="#V"/></g><path fill="#fff" d="M101-234c-31-9-42 10-38 44h38v23H63V0H32v-167H5v-23h27c-7-52 17-82 69-68v24" id="aO"/><g id="A"><use transform="matrix(0.06172839506172839,0,0,0.06172839506172839,0,0)" xlink:href="#ad"/><use transform="matrix(0.06172839506172839,0,0,0.06172839506172839,12.345679012345679,0)" xlink:href="#aO"/><use transform="matrix(0.06172839506172839,0,0,0.06172839506172839,18.51851851851852,0)" xlink:href="#X"/><use transform="matrix(0.06172839506172839,0,0,0.06172839506172839,24.691358024691358,0)" xlink:href="#W"/><use transform="matrix(0.06172839506172839,0,0,0.06172839506172839,37.03703703703704,0)" xlink:href="#aa"/></g><g id="B"><use transform="matrix(0.06172839506172839,0,0,0.06172839506172839,0,0)" xlink:href="#W"/><use transform="matrix(0.06172839506172839,0,0,0.06172839506172839,12.345679012345679,0)" xlink:href="#ad"/><use transform="matrix(0.06172839506172839,0,0,0.06172839506172839,24.691358024691358,0)" xlink:href="#aM"/><use transform="matrix(0.06172839506172839,0,0,0.06172839506172839,35.80246913580247,0)" xlink:href="#aL"/></g><g id="C"><use transform="matrix(0.06172839506172839,0,0,0.06172839506172839,0,0)" xlink:href="#S"/><use transform="matrix(0.06172839506172839,0,0,0.06172839506172839,11.11111111111111,0)" xlink:href="#Z"/><use transform="matrix(0.06172839506172839,0,0,0.06172839506172839,15.987654320987653,0)" xlink:href="#V"/><use transform="matrix(0.06172839506172839,0,0,0.06172839506172839,28.333333333333332,0)" xlink:href="#aK"/><use transform="matrix(0.06172839506172839,0,0,0.06172839506172839,40.67901234567901,0)" xlink:href="#ae"/><use transform="matrix(0.06172839506172839,0,0,0.06172839506172839,45.55555555555556,0)" xlink:href="#W"/></g><g id="D"><use transform="matrix(0.06172839506172839,0,0,0.06172839506172839,0,0)" xlink:href="#aa"/><use transform="matrix(0.06172839506172839,0,0,0.06172839506172839,7.345679012345679,0)" xlink:href="#T"/><use transform="matrix(0.06172839506172839,0,0,0.06172839506172839,19.691358024691358,0)" xlink:href="#V"/></g><g id="E"><use transform="matrix(0.06172839506172839,0,0,0.06172839506172839,0,0)" xlink:href="#ag"/><use transform="matrix(0.06172839506172839,0,0,0.06172839506172839,12.345679012345679,0)" xlink:href="#aO"/></g><path fill="#fff" d="M87 75C49 33 22-17 22-94c0-76 28-126 65-167h31c-38 41-64 92-64 168S80 34 118 75H87" id="aP"/><g id="F"><use transform="matrix(0.06172839506172839,0,0,0.06172839506172839,0,0)" xlink:href="#aO"/><use transform="matrix(0.06172839506172839,0,0,0.06172839506172839,6.172839506172839,0)" xlink:href="#ag"/><use transform="matrix(0.06172839506172839,0,0,0.06172839506172839,18.51851851851852,0)" xlink:href="#aa"/><use transform="matrix(0.06172839506172839,0,0,0.06172839506172839,25.864197530864196,0)" xlink:href="#aJ"/><use transform="matrix(0.06172839506172839,0,0,0.06172839506172839,41.85185185185185,0)" xlink:href="#ad"/><use transform="matrix(0.06172839506172839,0,0,0.06172839506172839,54.197530864197525,0)" xlink:href="#aa"/><use transform="matrix(0.06172839506172839,0,0,0.06172839506172839,61.5432098765432,0)" xlink:href="#af"/><use transform="matrix(0.06172839506172839,0,0,0.06172839506172839,73.88888888888889,0)" xlink:href="#aP"/></g><path fill="#fff" d="M33-261c38 41 65 92 65 168S71 34 33 75H2C39 34 66-17 66-93S39-220 2-261h31" id="aQ"/><use transform="matrix(0.06172839506172839,0,0,0.06172839506172839,0,0)" xlink:href="#aQ" id="G"/><g id="H"><use transform="matrix(0.06172839506172839,0,0,0.06172839506172839,0,0)" xlink:href="#ah"/><use transform="matrix(0.06172839506172839,0,0,0.06172839506172839,12.345679012345679,0)" xlink:href="#ai"/><use transform="matrix(0.06172839506172839,0,0,0.06172839506172839,19.691358024691358,0)" xlink:href="#aj"/><use transform="matrix(0.06172839506172839,0,0,0.06172839506172839,32.03703703703704,0)" xlink:href="#ak"/><use transform="matrix(0.06172839506172839,0,0,0.06172839506172839,50.49382716049382,0)" xlink:href="#ah"/><use transform="matrix(0.06172839506172839,0,0,0.06172839506172839,62.8395061728395,0)" xlink:href="#al"/></g><g id="I"><use transform="matrix(0.06172839506172839,0,0,0.06172839506172839,0,0)" xlink:href="#aF"/><use transform="matrix(0.06172839506172839,0,0,0.06172839506172839,6.172839506172839,0)" xlink:href="#aj"/><use transform="matrix(0.06172839506172839,0,0,0.06172839506172839,18.51851851851852,0)" xlink:href="#ai"/></g><g id="J"><use transform="matrix(0.06172839506172839,0,0,0.06172839506172839,0,0)" xlink:href="#an"/><use transform="matrix(0.06172839506172839,0,0,0.06172839506172839,11.11111111111111,0)" xlink:href="#ar"/><use transform="matrix(0.06172839506172839,0,0,0.06172839506172839,23.45679012345679,0)" xlink:href="#ak"/><use transform="matrix(0.06172839506172839,0,0,0.06172839506172839,41.91358024691358,0)" xlink:href="#ak"/><use transform="matrix(0.06172839506172839,0,0,0.06172839506172839,60.37037037037037,0)" xlink:href="#au"/><use transform="matrix(0.06172839506172839,0,0,0.06172839506172839,72.71604938271605,0)" xlink:href="#ai"/><use transform="matrix(0.06172839506172839,0,0,0.06172839506172839,80.06172839506173,0)" xlink:href="#az"/></g><path fill="#fff" d="M133-28C103 26-5 8 13-77c13-62 24-115 90-117 29-1 46 15 56 35 2-12 6-24 8-34h31L144 75h-31zM45-64c-2 27 10 43 35 43 54-1 69-50 69-103 0-29-15-46-42-46-53-1-58 58-62 106" id="aR"/><g id="K"><use transform="matrix(0.06172839506172839,0,0,0.06172839506172839,0,0)" xlink:href="#aR"/><use transform="matrix(0.06172839506172839,0,0,0.06172839506172839,12.345679012345679,0)" xlink:href="#ar"/><use transform="matrix(0.06172839506172839,0,0,0.06172839506172839,24.691358024691358,0)" xlink:href="#am"/><use transform="matrix(0.06172839506172839,0,0,0.06172839506172839,37.03703703703704,0)" xlink:href="#an"/><use transform="matrix(0.06172839506172839,0,0,0.06172839506172839,48.14814814814815,0)" xlink:href="#al"/><use transform="matrix(0.06172839506172839,0,0,0.06172839506172839,54.320987654320994,0)" xlink:href="#aw"/><use transform="matrix(0.06172839506172839,0,0,0.06172839506172839,59.19753086419754,0)" xlink:href="#aj"/><use transform="matrix(0.06172839506172839,0,0,0.06172839506172839,71.54320987654322,0)" xlink:href="#ao"/></g><g id="L"><use transform="matrix(0.06172839506172839,0,0,0.06172839506172839,0,0)" xlink:href="#au"/><use transform="matrix(0.06172839506172839,0,0,0.06172839506172839,12.345679012345679,0)" xlink:href="#ao"/><use transform="matrix(0.06172839506172839,0,0,0.06172839506172839,24.691358024691358,0)" xlink:href="#an"/><use transform="matrix(0.06172839506172839,0,0,0.06172839506172839,35.80246913580247,0)" xlink:href="#aG"/><use transform="matrix(0.06172839506172839,0,0,0.06172839506172839,51.79012345679012,0)" xlink:href="#am"/><use transform="matrix(0.06172839506172839,0,0,0.06172839506172839,64.1358024691358,0)" xlink:href="#ai"/></g><path fill="#fff" d="M187 0l-14-72H61L19 0h-37l149-248h38L221 0h-34zm-19-99l-22-123L76-99h92" id="aS"/><use transform="matrix(0.06172839506172839,0,0,0.06172839506172839,0,0)" xlink:href="#aS" id="M"/><g id="N"><use transform="matrix(0.06172839506172839,0,0,0.06172839506172839,0,0)" xlink:href="#an"/><use transform="matrix(0.06172839506172839,0,0,0.06172839506172839,11.11111111111111,0)" xlink:href="#aw"/><use transform="matrix(0.06172839506172839,0,0,0.06172839506172839,15.987654320987653,0)" xlink:href="#ao"/><use transform="matrix(0.06172839506172839,0,0,0.06172839506172839,28.333333333333332,0)" xlink:href="#aE"/><use transform="matrix(0.06172839506172839,0,0,0.06172839506172839,40.67901234567901,0)" xlink:href="#av"/><use transform="matrix(0.06172839506172839,0,0,0.06172839506172839,45.55555555555556,0)" xlink:href="#am"/></g><g id="O"><use transform="matrix(0.06172839506172839,0,0,0.06172839506172839,0,0)" xlink:href="#ai"/><use transform="matrix(0.06172839506172839,0,0,0.06172839506172839,7.345679012345679,0)" xlink:href="#ar"/><use transform="matrix(0.06172839506172839,0,0,0.06172839506172839,19.691358024691358,0)" xlink:href="#ao"/></g><g id="P"><use transform="matrix(0.06172839506172839,0,0,0.06172839506172839,0,0)" xlink:href="#aj"/><use transform="matrix(0.06172839506172839,0,0,0.06172839506172839,12.345679012345679,0)" xlink:href="#aF"/></g><g id="Q"><use transform="matrix(0.06172839506172839,0,0,0.06172839506172839,0,0)" xlink:href="#aF"/><use transform="matrix(0.06172839506172839,0,0,0.06172839506172839,6.172839506172839,0)" xlink:href="#aj"/><use transform="matrix(0.06172839506172839,0,0,0.06172839506172839,18.51851851851852,0)" xlink:href="#ai"/><use transform="matrix(0.06172839506172839,0,0,0.06172839506172839,25.864197530864196,0)" xlink:href="#aG"/><use transform="matrix(0.06172839506172839,0,0,0.06172839506172839,41.85185185185185,0)" xlink:href="#au"/><use transform="matrix(0.06172839506172839,0,0,0.06172839506172839,54.197530864197525,0)" xlink:href="#ai"/><use transform="matrix(0.06172839506172839,0,0,0.06172839506172839,61.5432098765432,0)" xlink:href="#ax"/><use transform="matrix(0.06172839506172839,0,0,0.06172839506172839,73.88888888888889,0)" xlink:href="#aA"/></g><use transform="matrix(0.06172839506172839,0,0,0.06172839506172839,0,0)" xlink:href="#aB" id="R"/></defs></g></svg>