<svg xmlns="http://www.w3.org/2000/svg" xmlns:xlink="http://www.w3.org/1999/xlink" xmlns:lucid="lucid" width="842.49" height="1140"><g transform="translate(-60 640)" lucid:page-tab-id="0_0"><path d="M360 46a6 6 0 0 1 6-6h148a6 6 0 0 1 6 6v48a6 6 0 0 1-6 6H366a6 6 0 0 1-6-6z" stroke="#fff" stroke-width="2" fill-opacity="0"/><use xlink:href="#a" transform="matrix(1,0,0,1,372,52) translate(45.160493827160494 22.27777777777778)"/><path d="M520 46a6 6 0 0 1 6-6h68a6 6 0 0 1 6 6v48a6 6 0 0 1-6 6h-68a6 6 0 0 1-6-6z" stroke="#fff" stroke-width="2" fill-opacity="0"/><use xlink:href="#b" transform="matrix(1,0,0,1,532,52) translate(5.160493827160494 22.27777777777778)"/><path d="M490-39.5V3.62M490-39.5v-.5" stroke="#fff" fill="none"/><path d="M490 18.38l-4.63-14.26h9.26z" stroke="#fff" fill="#fff"/><path d="M360-114a6 6 0 0 1 6-6h268a6 6 0 0 1 6 6v68a6 6 0 0 1-6 6H366a6 6 0 0 1-6-6z" fill="none"/><use xlink:href="#c" transform="matrix(1,0,0,1,360,-120) translate(45.154320987654316 25.77777777777778)"/><use xlink:href="#d" transform="matrix(1,0,0,1,360,-120) translate(143.73456790123458 25.77777777777778)"/><use xlink:href="#e" transform="matrix(1,0,0,1,360,-120) translate(107.11604938271606 63.111111111111114)"/><use xlink:href="#f" transform="matrix(1,0,0,1,360,-120) translate(128.93333333333334 63.111111111111114)"/><path d="M480 166a6 6 0 0 1 6-6h88a6 6 0 0 1 6 6v48a6 6 0 0 1-6 6h-88a6 6 0 0 1-6-6z" stroke="#fff" stroke-width="2" fill-opacity="0"/><use xlink:href="#g" transform="matrix(1,0,0,1,492,172) translate(0 22.27777777777778)"/><path d="M580 166a6 6 0 0 1 6-6h108a6 6 0 0 1 6 6v48a6 6 0 0 1-6 6H586a6 6 0 0 1-6-6z" stroke="#fff" stroke-width="2" fill-opacity="0"/><use xlink:href="#h" transform="matrix(1,0,0,1,592,172) translate(12.814814814814817 22.27777777777778)"/><path d="M440 101.5V134a6 6 0 0 1-6 6H316.38" stroke="#fff" fill="none"/><path d="M440.48 101.5h-.96v-.5h.96z" stroke="#fff" stroke-width=".05" fill="#fff"/><path d="M301.62 140l14.26-4.63v9.26z" stroke="#fff" fill="#fff"/><path d="M560 101.5v22.12" stroke="#fff" fill="none"/><path d="M560.48 101.5h-.96v-.5h.96z" stroke="#fff" stroke-width=".05" fill="#fff"/><path d="M560 138.38l-4.63-14.26h9.26z" stroke="#fff" fill="#fff"/><path d="M530 221.5V254a6 6 0 0 1-6 6H316.38" stroke="#fff" fill="none"/><path d="M530.48 221.5h-.96v-.5h.96z" stroke="#fff" stroke-width=".05" fill="#fff"/><path d="M301.62 260l14.26-4.63v9.26z" stroke="#fff" fill="#fff"/><path d="M480 126a6 6 0 0 1 6-6h68a6 6 0 0 1 6 6v28a6 6 0 0 1-6 6h-68a6 6 0 0 1-6-6z" fill="none"/><use xlink:href="#i" transform="matrix(1,0,0,1,480,120) translate(0 24.444444444444443)"/><use xlink:href="#j" transform="matrix(1,0,0,1,480,120) translate(30.88888888888889 24.444444444444443)"/><path d="M600 126a6 6 0 0 1 6-6h88a6 6 0 0 1 6 6v28a6 6 0 0 1-6 6h-88a6 6 0 0 1-6-6z" fill="none"/><use xlink:href="#k" transform="matrix(1,0,0,1,600,120) translate(50.599999999999994 24.444444444444443)"/><use xlink:href="#j" transform="matrix(1,0,0,1,600,120) translate(81.48888888888888 24.444444444444443)"/><path d="M360 6a6 6 0 0 1 6-6h48a6 6 0 0 1 6 6v28a6 6 0 0 1-6 6h-48a6 6 0 0 1-6-6z" fill="none"/><use xlink:href="#l" transform="matrix(1,0,0,1,360,0) translate(0 24.444444444444443)"/><use xlink:href="#j" transform="matrix(1,0,0,1,360,0) translate(30.88888888888889 24.444444444444443)"/><path d="M540 6a6 6 0 0 1 6-6h48a6 6 0 0 1 6 6v28a6 6 0 0 1-6 6h-48a6 6 0 0 1-6-6z" fill="none"/><use xlink:href="#m" transform="matrix(1,0,0,1,540,0) translate(10.599999999999994 24.444444444444443)"/><use xlink:href="#j" transform="matrix(1,0,0,1,540,0) translate(41.48888888888888 24.444444444444443)"/><path d="M640 221.5v62.12" stroke="#fff" fill="none"/><path d="M640.48 221.5h-.96v-.5h.96z" stroke="#fff" stroke-width=".05" fill="#fff"/><path d="M640 298.38l-4.63-14.26h9.26z" stroke="#fff" fill="#fff"/><path d="M540 326a6 6 0 0 1 6-6h88a6 6 0 0 1 6 6v48a6 6 0 0 1-6 6h-88a6 6 0 0 1-6-6z" stroke="#fff" stroke-width="2" fill-opacity="0"/><use xlink:href="#n" transform="matrix(1,0,0,1,552,332) translate(0 22.27777777777778)"/><path d="M640 326a6 6 0 0 1 6-6h108a6 6 0 0 1 6 6v48a6 6 0 0 1-6 6H646a6 6 0 0 1-6-6z" stroke="#fff" stroke-width="2" fill-opacity="0"/><use xlink:href="#o" transform="matrix(1,0,0,1,652,332) translate(6.641975308641982 22.27777777777778)"/><path d="M760 326a6 6 0 0 1 6-6h108a6 6 0 0 1 6 6v48a6 6 0 0 1-6 6H766a6 6 0 0 1-6-6z" stroke="#fff" stroke-width="2" fill-opacity="0"/><use xlink:href="#p" transform="matrix(1,0,0,1,772,332) translate(6.641975308641982 22.27777777777778)"/><path d="M540 286a6 6 0 0 1 6-6h68a6 6 0 0 1 6 6v28a6 6 0 0 1-6 6h-68a6 6 0 0 1-6-6z" fill="none"/><use xlink:href="#q" transform="matrix(1,0,0,1,540,280) translate(0 24.444444444444443)"/><use xlink:href="#j" transform="matrix(1,0,0,1,540,280) translate(30.88888888888889 24.444444444444443)"/><path d="M780 286a6 6 0 0 1 6-6h88a6 6 0 0 1 6 6v28a6 6 0 0 1-6 6h-88a6 6 0 0 1-6-6z" fill="none"/><use xlink:href="#r" transform="matrix(1,0,0,1,780,280) translate(50.599999999999994 24.444444444444443)"/><use xlink:href="#j" transform="matrix(1,0,0,1,780,280) translate(81.48888888888888 24.444444444444443)"/><path d="M680 286a6 6 0 0 1 6-6h58a6 6 0 0 1 6 6v28a6 6 0 0 1-6 6h-58a6 6 0 0 1-6-6z" fill="none"/><use xlink:href="#s" transform="matrix(1,0,0,1,680,280) translate(10.299999999999997 24.444444444444443)"/><use xlink:href="#j" transform="matrix(1,0,0,1,680,280) translate(41.18888888888888 24.444444444444443)"/><path d="M120 116a6 6 0 0 1 6-6h148a6 6 0 0 1 6 6v48a6 6 0 0 1-6 6H126a6 6 0 0 1-6-6z" fill="none"/><use xlink:href="#t" transform="matrix(1,0,0,1,120,110) translate(6.358024691358025 21.111111111111114)"/><use xlink:href="#u" transform="matrix(1,0,0,1,120,110) translate(112.96296296296296 21.111111111111114)"/><use xlink:href="#v" transform="matrix(1,0,0,1,120,110) translate(1.728395061728392 47.777777777777786)"/><use xlink:href="#w" transform="matrix(1,0,0,1,120,110) translate(90.49382716049382 47.777777777777786)"/><path d="M80 246a6 6 0 0 1 6-6h188a6 6 0 0 1 6 6v68a6 6 0 0 1-6 6H86a6 6 0 0 1-6-6z" fill="none"/><use xlink:href="#x" transform="matrix(1,0,0,1,80,240) translate(5.577777777777769 17.77777777777778)"/><use xlink:href="#y" transform="matrix(1,0,0,1,80,240) translate(96.87407407407406 17.77777777777778)"/><use xlink:href="#z" transform="matrix(1,0,0,1,80,240) translate(145.02222222222224 17.77777777777778)"/><use xlink:href="#A" transform="matrix(1,0,0,1,80,240) translate(175.9111111111111 17.77777777777778)"/><use xlink:href="#B" transform="matrix(1,0,0,1,80,240) translate(7.5 44.44444444444444)"/><use xlink:href="#C" transform="matrix(1,0,0,1,80,240) translate(57.99382716049383 44.44444444444444)"/><use xlink:href="#D" transform="matrix(1,0,0,1,80,240) translate(95.03086419753086 44.44444444444444)"/><use xlink:href="#E" transform="matrix(1,0,0,1,80,240) translate(66.11111111111111 71.11111111111111)"/><path d="M780 446a6 6 0 0 1 6-6h78a6 6 0 0 1 6 6v28a6 6 0 0 1-6 6h-78a6 6 0 0 1-6-6z" fill="none"/><use xlink:href="#F" transform="matrix(1,0,0,1,780,440) translate(12.345679012345677 24.444444444444443)"/><use xlink:href="#G" transform="matrix(1,0,0,1,780,440) translate(65.30864197530863 24.444444444444443)"/><path d="M820 381.5v22.12" stroke="#fff" fill="none"/><path d="M820.48 381.5h-.96v-.5h.96z" stroke="#fff" stroke-width=".05" fill="#fff"/><path d="M820 418.38l-4.63-14.26h9.26z" stroke="#fff" fill="#fff"/><path d="M700 381.5v22.12" stroke="#fff" fill="none"/><path d="M700.48 381.5h-.96v-.5h.96z" stroke="#fff" stroke-width=".05" fill="#fff"/><path d="M700 418.38l-4.63-14.26h9.26z" stroke="#fff" fill="#fff"/><path d="M580 381.5v21.12" stroke="#fff" fill="none"/><path d="M580.48 381.5h-.96v-.5h.96z" stroke="#fff" stroke-width=".05" fill="#fff"/><path d="M580 417.38l-4.63-14.26h9.26z" stroke="#fff" fill="#fff"/><path d="M655 446a6 6 0 0 1 6-6h78a6 6 0 0 1 6 6v28a6 6 0 0 1-6 6h-78a6 6 0 0 1-6-6z" fill="none"/><use xlink:href="#F" transform="matrix(1,0,0,1,655,440) translate(12.345679012345677 24.444444444444443)"/><use xlink:href="#H" transform="matrix(1,0,0,1,655,440) translate(65.30864197530863 24.444444444444443)"/><path d="M530 446a6 6 0 0 1 6-6h78a6 6 0 0 1 6 6v28a6 6 0 0 1-6 6h-78a6 6 0 0 1-6-6z" fill="none"/><use xlink:href="#F" transform="matrix(1,0,0,1,530,440) translate(12.345679012345677 24.444444444444443)"/><use xlink:href="#I" transform="matrix(1,0,0,1,530,440) translate(65.30864197530863 24.444444444444443)"/><path d="M355-514a6 6 0 0 1 6-6h148a6 6 0 0 1 6 6v48a6 6 0 0 1-6 6H361a6 6 0 0 1-6-6z" stroke="#fff" stroke-width="2" fill-opacity="0"/><use xlink:href="#J" transform="matrix(1,0,0,1,367,-508) translate(24.419753086419753 22.27777777777778)"/><use xlink:href="#f" transform="matrix(1,0,0,1,367,-508) translate(67.62962962962963 22.27777777777778)"/><path d="M515-514a6 6 0 0 1 6-6h108a6 6 0 0 1 6 6v48a6 6 0 0 1-6 6H521a6 6 0 0 1-6-6z" stroke="#fff" stroke-width="2" fill-opacity="0"/><use xlink:href="#K" transform="matrix(1,0,0,1,527,-508) translate(4.419753086419753 22.27777777777778)"/><use xlink:href="#f" transform="matrix(1,0,0,1,527,-508) translate(47.62962962962963 22.27777777777778)"/><path d="M355-614a6 6 0 0 1 6-6h268a6 6 0 0 1 6 6v28a6 6 0 0 1-6 6H361a6 6 0 0 1-6-6z" fill="none"/><use xlink:href="#c" transform="matrix(1,0,0,1,355,-620) translate(62.34567901234567 24.444444444444443)"/><use xlink:href="#L" transform="matrix(1,0,0,1,355,-620) translate(160.92592592592592 24.444444444444443)"/><path d="M435-442.62V-426a6 6 0 0 1-6 6H295.5" stroke="#fff" fill="none"/><path d="M435-457.38l4.63 14.26h-9.26z" stroke="#fff" fill="#fff"/><path d="M295.5-420h-.5M575-442.62v42.12" stroke="#fff" fill="none"/><path d="M575-457.38l4.63 14.26h-9.26z" stroke="#fff" fill="#fff"/><path d="M575-400.5v.5" stroke="#fff" fill="none"/><path d="M355-554a6 6 0 0 1 6-6h48a6 6 0 0 1 6 6v28a6 6 0 0 1-6 6h-48a6 6 0 0 1-6-6z" fill="none"/><use xlink:href="#l" transform="matrix(1,0,0,1,355,-560) translate(0 24.444444444444443)"/><use xlink:href="#j" transform="matrix(1,0,0,1,355,-560) translate(30.88888888888889 24.444444444444443)"/><path d="M535-554a6 6 0 0 1 6-6h48a6 6 0 0 1 6 6v28a6 6 0 0 1-6 6h-48a6 6 0 0 1-6-6z" fill="none"/><use xlink:href="#m" transform="matrix(1,0,0,1,535,-560) translate(10.599999999999994 24.444444444444443)"/><use xlink:href="#j" transform="matrix(1,0,0,1,535,-560) translate(41.48888888888888 24.444444444444443)"/><path d="M405-374a6 6 0 0 1 6-6h108a6 6 0 0 1 6 6v48a6 6 0 0 1-6 6H411a6 6 0 0 1-6-6z" stroke="#fff" stroke-width="2" fill-opacity="0"/><use xlink:href="#M" transform="matrix(1,0,0,1,417,-368) translate(0 22.40277777777778)"/><use xlink:href="#f" transform="matrix(1,0,0,1,417,-368) translate(43.20987654320988 22.40277777777778)"/><path d="M525-374a6 6 0 0 1 6-6h108a6 6 0 0 1 6 6v48a6 6 0 0 1-6 6H531a6 6 0 0 1-6-6z" stroke="#fff" stroke-width="2" fill-opacity="0"/><g><use xlink:href="#N" transform="matrix(1,0,0,1,537,-368) translate(10.592592592592595 22.27777777777778)"/><use xlink:href="#f" transform="matrix(1,0,0,1,537,-368) translate(41.45679012345679 22.27777777777778)"/></g><path d="M645-374a6 6 0 0 1 6-6h108a6 6 0 0 1 6 6v48a6 6 0 0 1-6 6H651a6 6 0 0 1-6-6z" stroke="#fff" stroke-width="2" fill-opacity="0"/><g><use xlink:href="#O" transform="matrix(1,0,0,1,657,-368) translate(10.592592592592595 22.40277777777778)"/><use xlink:href="#f" transform="matrix(1,0,0,1,657,-368) translate(41.45679012345679 22.40277777777778)"/></g><path d="M115-444a6 6 0 0 1 6-6h148a6 6 0 0 1 6 6v48a6 6 0 0 1-6 6H121a6 6 0 0 1-6-6z" fill="none"/><g><use xlink:href="#t" transform="matrix(1,0,0,1,115,-450) translate(6.358024691358025 21.111111111111114)"/><use xlink:href="#u" transform="matrix(1,0,0,1,115,-450) translate(112.96296296296296 21.111111111111114)"/><use xlink:href="#v" transform="matrix(1,0,0,1,115,-450) translate(1.728395061728392 47.777777777777786)"/><use xlink:href="#w" transform="matrix(1,0,0,1,115,-450) translate(90.49382716049382 47.777777777777786)"/></g><path d="M665-254a6 6 0 0 1 6-6h78a6 6 0 0 1 6 6v28a6 6 0 0 1-6 6h-78a6 6 0 0 1-6-6z" fill="none"/><g><use xlink:href="#F" transform="matrix(1,0,0,1,665,-260) translate(12.345679012345677 24.444444444444443)"/><use xlink:href="#G" transform="matrix(1,0,0,1,665,-260) translate(65.30864197530863 24.444444444444443)"/></g><path d="M705-302.62v29.12" stroke="#fff" fill="none"/><path d="M705-317.38l4.63 14.26h-9.26z" stroke="#fff" fill="#fff"/><path d="M705-273.5v.5M585-302.62v29.12" stroke="#fff" fill="none"/><path d="M585-317.38l4.63 14.26h-9.26z" stroke="#fff" fill="#fff"/><path d="M585-273.5v.5M465-302.62v28.12" stroke="#fff" fill="none"/><path d="M465-317.38l4.63 14.26h-9.26z" stroke="#fff" fill="#fff"/><path d="M465-274.5v.5" stroke="#fff" fill="none"/><path d="M540-254a6 6 0 0 1 6-6h78a6 6 0 0 1 6 6v28a6 6 0 0 1-6 6h-78a6 6 0 0 1-6-6z" fill="none"/><g><use xlink:href="#F" transform="matrix(1,0,0,1,540,-260) translate(12.345679012345677 24.444444444444443)"/><use xlink:href="#H" transform="matrix(1,0,0,1,540,-260) translate(65.30864197530863 24.444444444444443)"/></g><path d="M415-254a6 6 0 0 1 6-6h78a6 6 0 0 1 6 6v28a6 6 0 0 1-6 6h-78a6 6 0 0 1-6-6z" fill="none"/><g><use xlink:href="#F" transform="matrix(1,0,0,1,415,-260) translate(12.345679012345677 24.444444444444443)"/><use xlink:href="#I" transform="matrix(1,0,0,1,415,-260) translate(65.30864197530863 24.444444444444443)"/></g><path d="M435-214a6 6 0 0 1 6-6h68a6 6 0 0 1 6 6v28a6 6 0 0 1-6 6h-68a6 6 0 0 1-6-6z" fill="none"/><g><use xlink:href="#q" transform="matrix(1,0,0,1,435,-220) translate(15.299999999999997 24.444444444444443)"/><use xlink:href="#j" transform="matrix(1,0,0,1,435,-220) translate(46.18888888888888 24.444444444444443)"/></g><path d="M645-214a6 6 0 0 1 6-6h88a6 6 0 0 1 6 6v28a6 6 0 0 1-6 6h-88a6 6 0 0 1-6-6z" fill="none"/><g><use xlink:href="#r" transform="matrix(1,0,0,1,645,-220) translate(25.299999999999997 24.444444444444443)"/><use xlink:href="#j" transform="matrix(1,0,0,1,645,-220) translate(56.18888888888888 24.444444444444443)"/></g><path d="M555-214a6 6 0 0 1 6-6h58a6 6 0 0 1 6 6v28a6 6 0 0 1-6 6h-58a6 6 0 0 1-6-6z" fill="none"/><g><use xlink:href="#s" transform="matrix(1,0,0,1,555,-220) translate(10.299999999999997 24.444444444444443)"/><use xlink:href="#j" transform="matrix(1,0,0,1,555,-220) translate(41.18888888888888 24.444444444444443)"/></g><defs><path fill="#fff" d="M101-251c68 0 85 55 85 127S166 4 100 4C33 4 14-52 14-124c0-73 17-127 87-127zm-1 229c47 0 54-49 54-102s-4-102-53-102c-51 0-55 48-55 102 0 53 5 102 54 102" id="P"/><path fill="#fff" d="M33 0v-38h34V0H33" id="Q"/><path fill="#fff" d="M134-131c28 9 52 24 51 62-1 50-34 73-85 73S17-19 16-69c0-36 21-54 49-61-75-25-45-126 34-121 46 3 78 18 79 63 0 33-17 51-44 57zm-34-11c31 1 46-15 46-44 0-28-17-43-47-42-29 0-46 13-45 42 1 28 16 44 46 44zm1 122c35 0 51-18 51-52 0-30-18-46-53-46-33 0-51 17-51 47 0 34 19 51 53 51" id="R"/><path fill="#fff" d="M195 0l-74-108L45 0H8l94-129-87-119h37l69 98 67-98h37l-84 118L233 0h-38" id="S"/><g id="a"><use transform="matrix(0.06172839506172839,0,0,0.06172839506172839,0,0)" xlink:href="#P"/><use transform="matrix(0.06172839506172839,0,0,0.06172839506172839,12.345679012345679,0)" xlink:href="#Q"/><use transform="matrix(0.06172839506172839,0,0,0.06172839506172839,18.51851851851852,0)" xlink:href="#R"/><use transform="matrix(0.06172839506172839,0,0,0.06172839506172839,30.864197530864196,0)" xlink:href="#S"/></g><path fill="#fff" d="M101-251c82-7 93 87 43 132L82-64C71-53 59-42 53-27h129V0H18c2-99 128-94 128-182 0-28-16-43-45-43s-46 15-49 41l-32-3c6-41 34-60 81-64" id="T"/><g id="b"><use transform="matrix(0.06172839506172839,0,0,0.06172839506172839,0,0)" xlink:href="#P"/><use transform="matrix(0.06172839506172839,0,0,0.06172839506172839,12.345679012345679,0)" xlink:href="#Q"/><use transform="matrix(0.06172839506172839,0,0,0.06172839506172839,18.51851851851852,0)" xlink:href="#T"/><use transform="matrix(0.06172839506172839,0,0,0.06172839506172839,30.864197530864196,0)" xlink:href="#S"/></g><path fill="#fff" d="M24-248c120-7 223 5 221 122C244-46 201 0 124 0H24v-248zM76-40c74 7 117-18 117-86 0-67-45-88-117-82v168" id="U"/><path fill="#fff" d="M185-48c-13 30-37 53-82 52C43 2 14-33 14-96s30-98 90-98c62 0 83 45 84 108H66c0 31 8 55 39 56 18 0 30-7 34-22zm-45-69c5-46-57-63-70-21-2 6-4 13-4 21h74" id="V"/><path fill="#fff" d="M25 0v-261h50V0H25" id="W"/><path fill="#fff" d="M195-6C206 82 75 100 31 46c-4-6-6-13-8-21l49-6c3 16 16 24 34 25 40 0 42-37 40-79-11 22-30 35-61 35-53 0-70-43-70-97 0-56 18-96 73-97 30 0 46 14 59 34l2-30h47zm-90-29c32 0 41-27 41-63 0-35-9-62-40-62-32 0-39 29-40 63 0 36 9 62 39 62" id="X"/><path fill="#fff" d="M133-34C117-15 103 5 69 4 32 3 11-16 11-54c-1-60 55-63 116-61 1-26-3-47-28-47-18 1-26 9-28 27l-52-2c7-38 36-58 82-57s74 22 75 68l1 82c-1 14 12 18 25 15v27c-30 8-71 5-69-32zm-48 3c29 0 43-24 42-57-32 0-66-3-65 30 0 17 8 27 23 27" id="Y"/><path fill="#fff" d="M115-3C79 11 28 4 28-45v-112H4v-33h27l15-45h31v45h36v33H77v99c-1 23 16 31 38 25v30" id="Z"/><g id="c"><use transform="matrix(0.06172839506172839,0,0,0.06172839506172839,0,0)" xlink:href="#U"/><use transform="matrix(0.06172839506172839,0,0,0.06172839506172839,15.987654320987653,0)" xlink:href="#V"/><use transform="matrix(0.06172839506172839,0,0,0.06172839506172839,28.333333333333332,0)" xlink:href="#W"/><use transform="matrix(0.06172839506172839,0,0,0.06172839506172839,34.50617283950617,0)" xlink:href="#V"/><use transform="matrix(0.06172839506172839,0,0,0.06172839506172839,46.85185185185185,0)" xlink:href="#X"/><use transform="matrix(0.06172839506172839,0,0,0.06172839506172839,60.37037037037037,0)" xlink:href="#Y"/><use transform="matrix(0.06172839506172839,0,0,0.06172839506172839,72.71604938271605,0)" xlink:href="#Z"/><use transform="matrix(0.06172839506172839,0,0,0.06172839506172839,80.06172839506173,0)" xlink:href="#V"/></g><path fill="#fff" d="M88-194c31-1 46 15 58 34l-1-101h50l1 261h-48c-2-10 0-23-3-31C134-8 116 4 84 4 32 4 16-41 15-95c0-56 19-97 73-99zm17 164c33 0 40-30 41-66 1-37-9-64-41-64s-38 30-39 65c0 43 13 65 39 65" id="aa"/><path fill="#fff" d="M25-224v-37h50v37H25zM25 0v-190h50V0H25" id="ab"/><path fill="#fff" d="M128 0H69L1-190h53L99-40l48-150h52" id="ac"/><path fill="#fff" d="M135-194c87-1 58 113 63 194h-50c-7-57 23-157-34-157-59 0-34 97-39 157H25l-1-190h47c2 12-1 28 3 38 12-26 28-41 61-42" id="ad"/><g id="d"><use transform="matrix(0.06172839506172839,0,0,0.06172839506172839,0,0)" xlink:href="#aa"/><use transform="matrix(0.06172839506172839,0,0,0.06172839506172839,13.518518518518517,0)" xlink:href="#ab"/><use transform="matrix(0.06172839506172839,0,0,0.06172839506172839,19.691358024691358,0)" xlink:href="#ac"/><use transform="matrix(0.06172839506172839,0,0,0.06172839506172839,32.03703703703704,0)" xlink:href="#ab"/><use transform="matrix(0.06172839506172839,0,0,0.06172839506172839,38.20987654320988,0)" xlink:href="#aa"/><use transform="matrix(0.06172839506172839,0,0,0.06172839506172839,51.7283950617284,0)" xlink:href="#V"/><use transform="matrix(0.06172839506172839,0,0,0.06172839506172839,64.07407407407408,0)" xlink:href="#ad"/><use transform="matrix(0.06172839506172839,0,0,0.06172839506172839,77.5925925925926,0)" xlink:href="#aa"/></g><path fill="#fff" d="M645 0H324l6-47h31c65 0 71-11 55-48l-90-214-151 159c-25 26-39 50-39 68 0 29 39 38 83 35l-6 47H-73l5-47c69-9 99-27 174-106l197-207-104-245c-27-72-48-71-127-70l5-47h315l-5 47c-65 0-100 1-75 60l72 172 122-125c35-37 48-58 48-78 0-26-36-31-72-29l5-47h283l-5 47c-70 2-100 19-177 97L406-392l116 272c30 79 46 73 128 73" id="ae"/><use transform="matrix(0.022222222222222223,0,0,0.022222222222222223,0,0)" xlink:href="#ae" id="e"/><path fill="#fff" d="M127-220V0H93v-220H8v-28h204v28h-85" id="af"/><path fill="#fff" d="M205 0l-28-72H64L36 0H1l101-248h38L239 0h-34zm-38-99l-47-123c-12 45-31 82-46 123h93" id="ag"/><path fill="#fff" d="M140-251c81 0 123 46 123 126C263-46 219 4 140 4 59 4 17-45 17-125s42-126 123-126zm0 227c63 0 89-41 89-101s-29-99-89-99c-61 0-89 39-89 99S79-25 140-24" id="ah"/><g id="f"><use transform="matrix(0.06172839506172839,0,0,0.06172839506172839,0,0)" xlink:href="#af"/><use transform="matrix(0.06172839506172839,0,0,0.06172839506172839,11.851851851851851,0)" xlink:href="#ag"/><use transform="matrix(0.06172839506172839,0,0,0.06172839506172839,26.666666666666664,0)" xlink:href="#ah"/></g><path fill="#fff" d="M126-127c33 6 58 20 58 59 0 88-139 92-164 29-3-8-5-16-6-25l32-3c6 27 21 44 54 44 32 0 52-15 52-46 0-38-36-46-79-43v-28c39 1 72-4 72-42 0-27-17-43-46-43-28 0-47 15-49 41l-32-3c6-42 35-63 81-64 48-1 79 21 79 65 0 36-21 52-52 59" id="ai"/><path fill="#fff" d="M110-160c48 1 74 30 74 79 0 53-28 85-80 85-65 0-83-55-86-122-5-90 50-162 133-122 14 7 22 21 27 39l-31 6c-5-40-67-38-82-6-9 19-15 44-15 74 11-20 30-34 60-33zm-7 138c34 0 49-23 49-58s-16-56-50-56c-29 0-50 16-49 49 1 36 15 65 50 65" id="aj"/><g id="g"><use transform="matrix(0.06172839506172839,0,0,0.06172839506172839,0,0)" xlink:href="#P"/><use transform="matrix(0.06172839506172839,0,0,0.06172839506172839,12.345679012345679,0)" xlink:href="#Q"/><use transform="matrix(0.06172839506172839,0,0,0.06172839506172839,18.51851851851852,0)" xlink:href="#P"/><use transform="matrix(0.06172839506172839,0,0,0.06172839506172839,30.864197530864196,0)" xlink:href="#ai"/><use transform="matrix(0.06172839506172839,0,0,0.06172839506172839,43.20987654320987,0)" xlink:href="#aj"/><use transform="matrix(0.06172839506172839,0,0,0.06172839506172839,55.55555555555555,0)" xlink:href="#S"/></g><path fill="#fff" d="M27 0v-27h64v-190l-56 39v-29l58-41h29v221h61V0H27" id="ak"/><path fill="#fff" d="M155-56V0h-30v-56H8v-25l114-167h33v167h35v25h-35zm-30-156c-27 46-58 90-88 131h88v-131" id="al"/><g id="h"><use transform="matrix(0.06172839506172839,0,0,0.06172839506172839,0,0)" xlink:href="#P"/><use transform="matrix(0.06172839506172839,0,0,0.06172839506172839,12.345679012345679,0)" xlink:href="#Q"/><use transform="matrix(0.06172839506172839,0,0,0.06172839506172839,18.51851851851852,0)" xlink:href="#ak"/><use transform="matrix(0.06172839506172839,0,0,0.06172839506172839,30.864197530864196,0)" xlink:href="#aj"/><use transform="matrix(0.06172839506172839,0,0,0.06172839506172839,43.20987654320987,0)" xlink:href="#al"/><use transform="matrix(0.06172839506172839,0,0,0.06172839506172839,55.55555555555555,0)" xlink:href="#S"/></g><path fill="#fff" d="M420 0H50l5-47c42 0 121 1 127-14 8-8 9-9 23-62 39-149 81-294 117-445 0-18-7-20-68-20h-69l12-44c72 0 179-35 233-76h29L302-123c-14 75-28 68 70 76h54" id="am"/><path fill="#fff" d="M376-370C589-251 451 15 216 15 88 15 8-46 8-142c0-91 63-164 181-209-54-39-75-78-75-139 0-120 100-214 229-214 107 0 184 65 184 156 0 81-39 125-151 178zm76-184c0-62-49-107-117-107-78 0-141 55-141 123 0 57 38 96 139 145 69-24 119-92 119-161zm-59 390c0-71-52-106-166-160-84 38-138 90-138 170 0 77 53 125 138 125 94 0 166-59 166-135" id="an"/><g id="i"><use transform="matrix(0.022222222222222223,0,0,0.022222222222222223,0,0)" xlink:href="#am"/><use transform="matrix(0.022222222222222223,0,0,0.022222222222222223,12.355555555555556,0)" xlink:href="#an"/></g><path fill="#fff" d="M651-722L237 0h-50l362-635c-60 34-95 39-162 18 24 144-93 296-213 296-74 0-128-52-128-124 0-116 115-263 233-263 40 0 65 13 91 47 89 50 179 10 235-61h46zM189-357c90-1 192-146 162-273-29-11-44-20-64-43-43 15-56 27-95 95-46 81-62 122-62 159 0 36 24 62 59 62zm603 75c0 108-93 267-217 267-75 0-130-51-130-121 0-121 112-265 230-265 68 0 117 50 117 119zm-35 2c0-47-29-84-65-84-32 0-60 23-91 74-53 86-74 140-74 179 0 33 26 60 59 60 82 0 171-119 171-229" id="ao"/><use transform="matrix(0.022222222222222223,0,0,0.022222222222222223,0,0)" xlink:href="#ao" id="j"/><path fill="#fff" d="M471-193L394 0H-35c9-56 49-99 315-329 90-78 123-133 123-208 0-70-47-117-117-117-67 0-142 48-142 91 0 12 5 17 28 29 33 18 46 35 46 61 0 36-28 64-65 64-47 0-77-36-77-92 0-109 111-203 239-203 115 0 193 71 193 175 0 79-33 138-113 200-26 20-33 24-169 119-81 57-124 94-148 125h232c49 0 62-11 99-76l26-46" id="ap"/><g id="k"><use transform="matrix(0.022222222222222223,0,0,0.022222222222222223,0,0)" xlink:href="#an"/><use transform="matrix(0.022222222222222223,0,0,0.022222222222222223,12.355555555555556,0)" xlink:href="#ap"/></g><path fill="#fff" d="M527-454c0 247-153 469-324 469C101 15 29-87 29-232c0-235 145-472 322-472 105 0 176 101 176 250zm-97-77c0-87-28-133-81-133-132 0-225 325-225 506 0 85 31 133 84 133 152 0 222-387 222-506" id="aq"/><g id="l"><use transform="matrix(0.022222222222222223,0,0,0.022222222222222223,0,0)" xlink:href="#an"/><use transform="matrix(0.022222222222222223,0,0,0.022222222222222223,12.355555555555556,0)" xlink:href="#aq"/></g><g id="m"><use transform="matrix(0.022222222222222223,0,0,0.022222222222222223,0,0)" xlink:href="#ap"/><use transform="matrix(0.022222222222222223,0,0,0.022222222222222223,12.355555555555556,0)" xlink:href="#aq"/></g><g id="n"><use transform="matrix(0.06172839506172839,0,0,0.06172839506172839,0,0)" xlink:href="#P"/><use transform="matrix(0.06172839506172839,0,0,0.06172839506172839,12.345679012345679,0)" xlink:href="#Q"/><use transform="matrix(0.06172839506172839,0,0,0.06172839506172839,18.51851851851852,0)" xlink:href="#P"/><use transform="matrix(0.06172839506172839,0,0,0.06172839506172839,30.864197530864196,0)" xlink:href="#R"/><use transform="matrix(0.06172839506172839,0,0,0.06172839506172839,43.20987654320987,0)" xlink:href="#T"/><use transform="matrix(0.06172839506172839,0,0,0.06172839506172839,55.55555555555555,0)" xlink:href="#S"/></g><path fill="#fff" d="M54-142c48-35 137-8 131 61C196 18 31 33 14-55l32-4c7 23 22 37 52 37 35-1 51-22 54-58 4-55-73-65-99-34H22l8-134h141v27H59" id="ar"/><path fill="#fff" d="M64 0c3-98 48-159 88-221H18v-27h164v26C143-157 98-101 97 0H64" id="as"/><g id="o"><use transform="matrix(0.06172839506172839,0,0,0.06172839506172839,0,0)" xlink:href="#P"/><use transform="matrix(0.06172839506172839,0,0,0.06172839506172839,12.345679012345679,0)" xlink:href="#Q"/><use transform="matrix(0.06172839506172839,0,0,0.06172839506172839,18.51851851851852,0)" xlink:href="#P"/><use transform="matrix(0.06172839506172839,0,0,0.06172839506172839,30.864197530864196,0)" xlink:href="#ar"/><use transform="matrix(0.06172839506172839,0,0,0.06172839506172839,43.20987654320987,0)" xlink:href="#as"/><use transform="matrix(0.06172839506172839,0,0,0.06172839506172839,55.55555555555555,0)" xlink:href="#al"/><use transform="matrix(0.06172839506172839,0,0,0.06172839506172839,67.90123456790123,0)" xlink:href="#S"/></g><g id="p"><use transform="matrix(0.06172839506172839,0,0,0.06172839506172839,0,0)" xlink:href="#P"/><use transform="matrix(0.06172839506172839,0,0,0.06172839506172839,12.345679012345679,0)" xlink:href="#Q"/><use transform="matrix(0.06172839506172839,0,0,0.06172839506172839,18.51851851851852,0)" xlink:href="#P"/><use transform="matrix(0.06172839506172839,0,0,0.06172839506172839,30.864197530864196,0)" xlink:href="#T"/><use transform="matrix(0.06172839506172839,0,0,0.06172839506172839,43.20987654320987,0)" xlink:href="#al"/><use transform="matrix(0.06172839506172839,0,0,0.06172839506172839,55.55555555555555,0)" xlink:href="#aj"/><use transform="matrix(0.06172839506172839,0,0,0.06172839506172839,67.90123456790123,0)" xlink:href="#S"/></g><path fill="#fff" d="M203-704c125 28 226 48 329 0 4 0 8 6 8 12 0 47-84 106-185 106-35 0-77-5-131-16l-56 189c131-80 312-10 312 139 0 159-132 289-293 289C81 15 4-49 4-137c0-48 33-85 77-85 62 0 80 78 34 107 0 0-38 17-38 28 0 33 49 61 107 61 103 0 187-106 187-236 0-83-42-129-116-129-39 0-72 12-103 36-3 37-18 56-44 56-20 0-36-15-36-34s9-30 40-50" id="at"/><g id="q"><use transform="matrix(0.022222222222222223,0,0,0.022222222222222223,0,0)" xlink:href="#at"/><use transform="matrix(0.022222222222222223,0,0,0.022222222222222223,12.355555555555556,0)" xlink:href="#aq"/></g><g id="r"><use transform="matrix(0.022222222222222223,0,0,0.022222222222222223,0,0)" xlink:href="#am"/><use transform="matrix(0.022222222222222223,0,0,0.022222222222222223,12.355555555555556,0)" xlink:href="#at"/></g><path fill="#fff" d="M506-545c0 90-71 158-166 181 80 26 118 74 118 144C458-86 343 15 192 15 72 15-2-46-2-143c0-52 28-86 71-86 35 0 64 28 64 62 0 27-12 45-41 58-16 7-20 11-20 22 0 32 49 60 104 60 110 0 174-94 174-212 0-62-32-104-79-104-32 1-87 20-87-20 0-18 13-28 34-28 105 30 188-59 188-169 0-62-40-99-107-99-47 0-97 25-97 49 0 13 35 42 35 68 0 33-24 57-57 57-37 0-63-28-63-69 0-81 92-150 201-150 111 0 188 65 188 159" id="au"/><g id="s"><use transform="matrix(0.022222222222222223,0,0,0.022222222222222223,0,0)" xlink:href="#au"/><use transform="matrix(0.022222222222222223,0,0,0.022222222222222223,12.355555555555556,0)" xlink:href="#at"/></g><path fill="#fff" d="M85-194c31 0 48 13 60 33l-1-100h32l1 261h-30c-2-10 0-23-3-31C134-8 116 4 85 4 32 4 16-35 15-94c0-66 23-100 70-100zm9 24c-40 0-46 34-46 75 0 40 6 74 45 74 42 0 51-32 51-76 0-42-9-74-50-73" id="av"/><path fill="#fff" d="M100-194c63 0 86 42 84 106H49c0 40 14 67 53 68 26 1 43-12 49-29l28 8c-11 28-37 45-77 45C44 4 14-33 15-96c1-61 26-98 85-98zm52 81c6-60-76-77-97-28-3 7-6 17-6 28h103" id="aw"/><path fill="#fff" d="M24 0v-261h32V0H24" id="ax"/><path fill="#fff" d="M177-190C167-65 218 103 67 71c-23-6-38-20-44-43l32-5c15 47 100 32 89-28v-30C133-14 115 1 83 1 29 1 15-40 15-95c0-56 16-97 71-98 29-1 48 16 59 35 1-10 0-23 2-32h30zM94-22c36 0 50-32 50-73 0-42-14-75-50-75-39 0-46 34-46 75s6 73 46 73" id="ay"/><path fill="#fff" d="M141-36C126-15 110 5 73 4 37 3 15-17 15-53c-1-64 63-63 125-63 3-35-9-54-41-54-24 1-41 7-42 31l-33-3c5-37 33-52 76-52 45 0 72 20 72 64v82c-1 20 7 32 28 27v20c-31 9-61-2-59-35zM48-53c0 20 12 33 32 33 41-3 63-29 60-74-43 2-92-5-92 41" id="az"/><path fill="#fff" d="M59-47c-2 24 18 29 38 22v24C64 9 27 4 27-40v-127H5v-23h24l9-43h21v43h35v23H59v120" id="aA"/><path fill="#fff" d="M47-170H22l-4-78h33" id="aB"/><path fill="#fff" d="M135-143c-3-34-86-38-87 0 15 53 115 12 119 90S17 21 10-45l28-5c4 36 97 45 98 0-10-56-113-15-118-90-4-57 82-63 122-42 12 7 21 19 24 35" id="aC"/><g id="t"><use transform="matrix(0.06172839506172839,0,0,0.06172839506172839,0,0)" xlink:href="#av"/><use transform="matrix(0.06172839506172839,0,0,0.06172839506172839,12.345679012345679,0)" xlink:href="#aw"/><use transform="matrix(0.06172839506172839,0,0,0.06172839506172839,24.691358024691358,0)" xlink:href="#ax"/><use transform="matrix(0.06172839506172839,0,0,0.06172839506172839,29.5679012345679,0)" xlink:href="#aw"/><use transform="matrix(0.06172839506172839,0,0,0.06172839506172839,41.913580246913575,0)" xlink:href="#ay"/><use transform="matrix(0.06172839506172839,0,0,0.06172839506172839,54.25925925925925,0)" xlink:href="#az"/><use transform="matrix(0.06172839506172839,0,0,0.06172839506172839,66.60493827160494,0)" xlink:href="#aA"/><use transform="matrix(0.06172839506172839,0,0,0.06172839506172839,72.77777777777777,0)" xlink:href="#aw"/><use transform="matrix(0.06172839506172839,0,0,0.06172839506172839,85.12345679012346,0)" xlink:href="#aB"/><use transform="matrix(0.06172839506172839,0,0,0.06172839506172839,89.32098765432099,0)" xlink:href="#aC"/></g><path fill="#fff" d="M100-194c62-1 85 37 85 99 1 63-27 99-86 99S16-35 15-95c0-66 28-99 85-99zM99-20c44 1 53-31 53-75 0-43-8-75-51-75s-53 32-53 75 10 74 51 75" id="aD"/><path fill="#fff" d="M206 0h-36l-40-164L89 0H53L-1-190h32L70-26l43-164h34l41 164 42-164h31" id="aE"/><path fill="#fff" d="M117-194c89-4 53 116 60 194h-32v-121c0-31-8-49-39-48C34-167 62-67 57 0H25l-1-190h30c1 10-1 24 2 32 11-22 29-35 61-36" id="aF"/><g id="u"><use transform="matrix(0.06172839506172839,0,0,0.06172839506172839,0,0)" xlink:href="#aD"/><use transform="matrix(0.06172839506172839,0,0,0.06172839506172839,12.345679012345679,0)" xlink:href="#aE"/><use transform="matrix(0.06172839506172839,0,0,0.06172839506172839,28.333333333333332,0)" xlink:href="#aF"/></g><path fill="#fff" d="M24-231v-30h32v30H24zM24 0v-190h32V0H24" id="aG"/><path fill="#fff" d="M108 0H70L1-190h34L89-25l56-165h34" id="aH"/><g id="v"><use transform="matrix(0.06172839506172839,0,0,0.06172839506172839,0,0)" xlink:href="#av"/><use transform="matrix(0.06172839506172839,0,0,0.06172839506172839,12.345679012345679,0)" xlink:href="#aG"/><use transform="matrix(0.06172839506172839,0,0,0.06172839506172839,17.22222222222222,0)" xlink:href="#aH"/><use transform="matrix(0.06172839506172839,0,0,0.06172839506172839,28.333333333333332,0)" xlink:href="#aG"/><use transform="matrix(0.06172839506172839,0,0,0.06172839506172839,33.20987654320987,0)" xlink:href="#av"/><use transform="matrix(0.06172839506172839,0,0,0.06172839506172839,45.55555555555555,0)" xlink:href="#aw"/><use transform="matrix(0.06172839506172839,0,0,0.06172839506172839,57.90123456790123,0)" xlink:href="#aF"/><use transform="matrix(0.06172839506172839,0,0,0.06172839506172839,70.24691358024691,0)" xlink:href="#av"/></g><path fill="#fff" d="M115-194c55 1 70 41 70 98S169 2 115 4C84 4 66-9 55-30l1 105H24l-1-265h31l2 30c10-21 28-34 59-34zm-8 174c40 0 45-34 45-75s-6-73-45-74c-42 0-51 32-51 76 0 43 10 73 51 73" id="aI"/><path fill="#fff" d="M114-163C36-179 61-72 57 0H25l-1-190h30c1 12-1 29 2 39 6-27 23-49 58-41v29" id="aJ"/><g id="w"><use transform="matrix(0.06172839506172839,0,0,0.06172839506172839,0,0)" xlink:href="#aI"/><use transform="matrix(0.06172839506172839,0,0,0.06172839506172839,12.345679012345679,0)" xlink:href="#aD"/><use transform="matrix(0.06172839506172839,0,0,0.06172839506172839,24.691358024691358,0)" xlink:href="#aJ"/><use transform="matrix(0.06172839506172839,0,0,0.06172839506172839,32.03703703703704,0)" xlink:href="#aA"/><use transform="matrix(0.06172839506172839,0,0,0.06172839506172839,38.20987654320988,0)" xlink:href="#aG"/><use transform="matrix(0.06172839506172839,0,0,0.06172839506172839,43.086419753086425,0)" xlink:href="#aD"/><use transform="matrix(0.06172839506172839,0,0,0.06172839506172839,55.4320987654321,0)" xlink:href="#aF"/></g><g id="x"><use transform="matrix(0.06172839506172839,0,0,0.06172839506172839,0,0)" xlink:href="#av"/><use transform="matrix(0.06172839506172839,0,0,0.06172839506172839,12.345679012345679,0)" xlink:href="#aw"/><use transform="matrix(0.06172839506172839,0,0,0.06172839506172839,24.691358024691358,0)" xlink:href="#ax"/><use transform="matrix(0.06172839506172839,0,0,0.06172839506172839,29.5679012345679,0)" xlink:href="#aw"/><use transform="matrix(0.06172839506172839,0,0,0.06172839506172839,41.913580246913575,0)" xlink:href="#ay"/><use transform="matrix(0.06172839506172839,0,0,0.06172839506172839,54.25925925925925,0)" xlink:href="#az"/><use transform="matrix(0.06172839506172839,0,0,0.06172839506172839,66.60493827160494,0)" xlink:href="#aA"/><use transform="matrix(0.06172839506172839,0,0,0.06172839506172839,72.77777777777777,0)" xlink:href="#aw"/></g><path fill="#fff" d="M143 0L79-87 56-68V0H24v-261h32v163l83-92h37l-77 82L181 0h-38" id="aK"/><g id="y"><use transform="matrix(0.06172839506172839,0,0,0.06172839506172839,0,0)" xlink:href="#aA"/><use transform="matrix(0.06172839506172839,0,0,0.06172839506172839,6.172839506172839,0)" xlink:href="#az"/><use transform="matrix(0.06172839506172839,0,0,0.06172839506172839,18.51851851851852,0)" xlink:href="#aK"/><use transform="matrix(0.06172839506172839,0,0,0.06172839506172839,29.62962962962963,0)" xlink:href="#aw"/></g><g id="z"><use transform="matrix(0.022222222222222223,0,0,0.022222222222222223,0,0)" xlink:href="#am"/><use transform="matrix(0.022222222222222223,0,0,0.022222222222222223,12.355555555555556,0)" xlink:href="#an"/></g><use transform="matrix(0.022222222222222223,0,0,0.022222222222222223,0,0)" xlink:href="#ao" id="A"/><path fill="#fff" d="M101-234c-31-9-42 10-38 44h38v23H63V0H32v-167H5v-23h27c-7-52 17-82 69-68v24" id="aL"/><path fill="#fff" d="M210-169c-67 3-38 105-44 169h-31v-121c0-29-5-50-35-48C34-165 62-65 56 0H25l-1-190h30c1 10-1 24 2 32 10-44 99-50 107 0 11-21 27-35 58-36 85-2 47 119 55 194h-31v-121c0-29-5-49-35-48" id="aM"/><g id="B"><use transform="matrix(0.06172839506172839,0,0,0.06172839506172839,0,0)" xlink:href="#aL"/><use transform="matrix(0.06172839506172839,0,0,0.06172839506172839,6.172839506172839,0)" xlink:href="#aJ"/><use transform="matrix(0.06172839506172839,0,0,0.06172839506172839,13.518518518518519,0)" xlink:href="#aD"/><use transform="matrix(0.06172839506172839,0,0,0.06172839506172839,25.864197530864196,0)" xlink:href="#aM"/></g><path fill="#fff" d="M106-169C34-169 62-67 57 0H25v-261h32l-1 103c12-21 28-36 61-36 89 0 53 116 60 194h-32v-121c2-32-8-49-39-48" id="aN"/><g id="C"><use transform="matrix(0.06172839506172839,0,0,0.06172839506172839,0,0)" xlink:href="#aA"/><use transform="matrix(0.06172839506172839,0,0,0.06172839506172839,6.172839506172839,0)" xlink:href="#aN"/><use transform="matrix(0.06172839506172839,0,0,0.06172839506172839,18.51851851851852,0)" xlink:href="#aw"/></g><g id="D"><use transform="matrix(0.06172839506172839,0,0,0.06172839506172839,0,0)" xlink:href="#av"/><use transform="matrix(0.06172839506172839,0,0,0.06172839506172839,12.345679012345679,0)" xlink:href="#aw"/><use transform="matrix(0.06172839506172839,0,0,0.06172839506172839,24.691358024691358,0)" xlink:href="#ax"/><use transform="matrix(0.06172839506172839,0,0,0.06172839506172839,29.5679012345679,0)" xlink:href="#aw"/><use transform="matrix(0.06172839506172839,0,0,0.06172839506172839,41.913580246913575,0)" xlink:href="#ay"/><use transform="matrix(0.06172839506172839,0,0,0.06172839506172839,54.25925925925925,0)" xlink:href="#az"/><use transform="matrix(0.06172839506172839,0,0,0.06172839506172839,66.60493827160494,0)" xlink:href="#aA"/><use transform="matrix(0.06172839506172839,0,0,0.06172839506172839,72.77777777777777,0)" xlink:href="#aw"/><use transform="matrix(0.06172839506172839,0,0,0.06172839506172839,85.12345679012346,0)" xlink:href="#av"/></g><g id="E"><use transform="matrix(0.06172839506172839,0,0,0.06172839506172839,0,0)" xlink:href="#aI"/><use transform="matrix(0.06172839506172839,0,0,0.06172839506172839,12.345679012345679,0)" xlink:href="#aD"/><use transform="matrix(0.06172839506172839,0,0,0.06172839506172839,24.691358024691358,0)" xlink:href="#aJ"/><use transform="matrix(0.06172839506172839,0,0,0.06172839506172839,32.03703703703704,0)" xlink:href="#aA"/><use transform="matrix(0.06172839506172839,0,0,0.06172839506172839,38.20987654320988,0)" xlink:href="#aG"/><use transform="matrix(0.06172839506172839,0,0,0.06172839506172839,43.086419753086425,0)" xlink:href="#aD"/><use transform="matrix(0.06172839506172839,0,0,0.06172839506172839,55.4320987654321,0)" xlink:href="#aF"/></g><path fill="#fff" d="M190 0L58-211 59 0H30v-248h39L202-35l-2-213h31V0h-41" id="aO"/><g id="F"><use transform="matrix(0.06172839506172839,0,0,0.06172839506172839,0,0)" xlink:href="#aO"/><use transform="matrix(0.06172839506172839,0,0,0.06172839506172839,15.987654320987653,0)" xlink:href="#aD"/><use transform="matrix(0.06172839506172839,0,0,0.06172839506172839,28.333333333333332,0)" xlink:href="#aM"/></g><use transform="matrix(0.06172839506172839,0,0,0.06172839506172839,0,0)" xlink:href="#ai" id="G"/><use transform="matrix(0.06172839506172839,0,0,0.06172839506172839,0,0)" xlink:href="#T" id="H"/><use transform="matrix(0.06172839506172839,0,0,0.06172839506172839,0,0)" xlink:href="#ak" id="I"/><g id="J"><use transform="matrix(0.06172839506172839,0,0,0.06172839506172839,0,0)" xlink:href="#R"/><use transform="matrix(0.06172839506172839,0,0,0.06172839506172839,12.345679012345679,0)" xlink:href="#P"/><use transform="matrix(0.06172839506172839,0,0,0.06172839506172839,24.691358024691358,0)" xlink:href="#P"/></g><g id="K"><use transform="matrix(0.06172839506172839,0,0,0.06172839506172839,0,0)" xlink:href="#T"/><use transform="matrix(0.06172839506172839,0,0,0.06172839506172839,12.345679012345679,0)" xlink:href="#P"/><use transform="matrix(0.06172839506172839,0,0,0.06172839506172839,24.691358024691358,0)" xlink:href="#P"/></g><path fill="#fff" d="M137-138c1-29-70-34-71-4 15 46 118 7 119 86 1 83-164 76-172 9l43-7c4 19 20 25 44 25 33 8 57-30 24-41C81-84 22-81 20-136c-2-80 154-74 161-7" id="aP"/><path fill="#fff" d="M147 0L96-86 75-71V0H25v-261h50v150l67-79h53l-66 74L201 0h-54" id="aQ"/><g id="L"><use transform="matrix(0.06172839506172839,0,0,0.06172839506172839,0,0)" xlink:href="#aP"/><use transform="matrix(0.06172839506172839,0,0,0.06172839506172839,12.345679012345679,0)" xlink:href="#Z"/><use transform="matrix(0.06172839506172839,0,0,0.06172839506172839,19.691358024691358,0)" xlink:href="#Y"/><use transform="matrix(0.06172839506172839,0,0,0.06172839506172839,32.03703703703704,0)" xlink:href="#aQ"/><use transform="matrix(0.06172839506172839,0,0,0.06172839506172839,44.382716049382715,0)" xlink:href="#V"/></g><g id="M"><use transform="matrix(0.06172839506172839,0,0,0.06172839506172839,0,0)" xlink:href="#ak"/><use transform="matrix(0.06172839506172839,0,0,0.06172839506172839,12.345679012345679,0)" xlink:href="#P"/><use transform="matrix(0.06172839506172839,0,0,0.06172839506172839,24.691358024691358,0)" xlink:href="#P"/></g><g id="N"><use transform="matrix(0.06172839506172839,0,0,0.06172839506172839,0,0)" xlink:href="#as"/><use transform="matrix(0.06172839506172839,0,0,0.06172839506172839,12.345679012345679,0)" xlink:href="#P"/></g><g id="O"><use transform="matrix(0.06172839506172839,0,0,0.06172839506172839,0,0)" xlink:href="#ai"/><use transform="matrix(0.06172839506172839,0,0,0.06172839506172839,12.345679012345679,0)" xlink:href="#P"/></g></defs></g></svg>