<svg xmlns="http://www.w3.org/2000/svg" xmlns:xlink="http://www.w3.org/1999/xlink" xmlns:lucid="lucid" width="1488.23" height="916"><g transform="translate(660.5 -655)" lucid:page-tab-id="0_0"><path d="M56.03 1366a6 6 0 0 1 6-6h168a6 6 0 0 1 6 6v51.33a6 6 0 0 1-6 6h-168a6 6 0 0 1-6-6z" stroke="#000" stroke-opacity="0" stroke-width="2" fill="#fff" fill-opacity="0"/><use xlink:href="#a" transform="matrix(1,0,0,1,61.028007668765554,1365) translate(0.16666666666668561 19.375)"/><use xlink:href="#b" transform="matrix(1,0,0,1,61.028007668765554,1365) translate(53.44444444444446 19.375)"/><use xlink:href="#c" transform="matrix(1,0,0,1,61.028007668765554,1365) translate(105.55555555555556 19.375)"/><use xlink:href="#d" transform="matrix(1,0,0,1,61.028007668765554,1365) translate(41.222222222222236 43.37499999999999)"/><use xlink:href="#e" transform="matrix(1,0,0,1,61.028007668765554,1365) translate(63.44444444444446 43.37499999999999)"/><path d="M26.03 1426a6 6 0 0 1 6-6h228a6 6 0 0 1 6 6v118a6 6 0 0 1-6 6h-228a6 6 0 0 1-6-6z" stroke="#000" stroke-opacity="0" stroke-width="2" fill="#fff" fill-opacity="0"/><use xlink:href="#f" transform="matrix(1,0,0,1,31.028007668765554,1425) translate(11.277777777777786 19.75)"/><use xlink:href="#g" transform="matrix(1,0,0,1,31.028007668765554,1425) translate(94.44444444444443 19.75)"/><use xlink:href="#h" transform="matrix(1,0,0,1,31.028007668765554,1425) translate(176.55555555555554 19.75)"/><use xlink:href="#i" transform="matrix(1,0,0,1,31.028007668765554,1425) translate(32.416666666666686 43.74999999999999)"/><use xlink:href="#j" transform="matrix(1,0,0,1,31.028007668765554,1425) translate(78.97222222222223 43.74999999999999)"/><use xlink:href="#k" transform="matrix(1,0,0,1,31.028007668765554,1425) translate(114.41666666666669 43.74999999999999)"/><use xlink:href="#l" transform="matrix(1,0,0,1,31.028007668765554,1425) translate(23.583333333333343 67.74999999999999)"/><use xlink:href="#m" transform="matrix(1,0,0,1,31.028007668765554,1425) translate(131.08333333333331 67.74999999999999)"/><use xlink:href="#n" transform="matrix(1,0,0,1,31.028007668765554,1425) translate(176.52777777777777 67.74999999999999)"/><use xlink:href="#o" transform="matrix(1,0,0,1,31.028007668765554,1425) translate(23.500000000000014 91.74999999999999)"/><use xlink:href="#p" transform="matrix(1,0,0,1,31.028007668765554,1425) translate(159.94444444444446 91.74999999999999)"/><use xlink:href="#q" transform="matrix(1,0,0,1,31.028007668765554,1425) translate(32.8888888888889 115.74999999999999)"/><use xlink:href="#r" transform="matrix(1,0,0,1,31.028007668765554,1425) translate(102.72222222222223 115.74999999999999)"/><use xlink:href="#s" transform="matrix(1,0,0,1,31.028007668765554,1425) translate(138.27777777777777 115.74999999999999)"/><use xlink:href="#t" transform="matrix(1,0,0,1,31.028007668765554,1425) translate(161.55555555555554 115.74999999999999)"/><path d="M438.5 886a6 6 0 0 1 6-6h128a6 6 0 0 1 6 6v68a6 6 0 0 1-6 6h-128a6 6 0 0 1-6-6z" stroke="#282c33" stroke-width="2" fill="#fff"/><use xlink:href="#u" transform="matrix(1,0,0,1,443.5,885.0000000000002) translate(22.407407407407412 39.65277777777778)"/><use xlink:href="#v" transform="matrix(1,0,0,1,443.5,885.0000000000002) translate(95.24691358024691 39.65277777777778)"/><path d="M538.5 986a6 6 0 0 1 6-6h128a6 6 0 0 1 6 6v68a6 6 0 0 1-6 6h-128a6 6 0 0 1-6-6z" stroke="#282c33" stroke-width="2" fill="#fff"/><use xlink:href="#u" transform="matrix(1,0,0,1,543.5,985.0000000000001) translate(22.407407407407412 39.65277777777778)"/><use xlink:href="#w" transform="matrix(1,0,0,1,543.5,985.0000000000001) translate(95.24691358024691 39.65277777777778)"/><path d="M578.5 1166a6 6 0 0 1 6-6h128a6 6 0 0 1 6 6v68a6 6 0 0 1-6 6h-128a6 6 0 0 1-6-6z" stroke="#282c33" stroke-width="2" fill="#fff"/><use xlink:href="#u" transform="matrix(1,0,0,1,583.4999999999999,1165) translate(22.407407407407412 39.65277777777778)"/><use xlink:href="#x" transform="matrix(1,0,0,1,583.4999999999999,1165) translate(95.24691358024691 39.65277777777778)"/><path d="M538.5 1346a6 6 0 0 1 6-6h128a6 6 0 0 1 6 6v68a6 6 0 0 1-6 6h-128a6 6 0 0 1-6-6z" stroke="#282c33" stroke-width="2" fill="#fff"/><use xlink:href="#u" transform="matrix(1,0,0,1,543.5,1345) translate(16.234567901234577 39.65277777777778)"/><use xlink:href="#y" transform="matrix(1,0,0,1,543.5,1345) translate(89.07407407407408 39.65277777777778)"/><path d="M588.2 1140a6 6 0 0 1-6-6v-48a6 6 0 0 1 6-6h40.6a6 6 0 0 1 6 6v48a6 6 0 0 1-6 6z" stroke="#000" stroke-opacity="0" fill="#fff" fill-opacity="0"/><use xlink:href="#z" transform="matrix(6.123233995736766e-17,-1,1,6.123233995736766e-17,587.2131970522087,1135.0000000000005) translate(6.481481481481492 26.708333333333325)"/><use xlink:href="#A" transform="matrix(6.123233995736766e-17,-1,1,6.123233995736766e-17,587.2131970522087,1135.0000000000005) translate(21.296296296296298 26.708333333333325)"/><use xlink:href="#B" transform="matrix(6.123233995736766e-17,-1,1,6.123233995736766e-17,587.2131970522087,1135.0000000000005) translate(36.11111111111111 26.708333333333325)"/><path d="M588.2 1320a6 6 0 0 1-6-6v-48a6 6 0 0 1 6-6h40.6a6 6 0 0 1 6 6v48a6 6 0 0 1-6 6z" stroke="#000" stroke-opacity="0" fill="#fff" fill-opacity="0"/><use xlink:href="#z" transform="matrix(6.123233995736766e-17,-1,1,6.123233995736766e-17,587.2131970522087,1315) translate(6.481481481481492 26.708333333333325)"/><use xlink:href="#A" transform="matrix(6.123233995736766e-17,-1,1,6.123233995736766e-17,587.2131970522087,1315) translate(21.296296296296298 26.708333333333325)"/><use xlink:href="#B" transform="matrix(6.123233995736766e-17,-1,1,6.123233995736766e-17,587.2131970522087,1315) translate(36.11111111111111 26.708333333333325)"/><path d="M462.1 760.5l.4 1.97m.83 3.97l.82 3.97m.8 3.97l.83 3.97m.82 3.97l.82 3.97m.82 3.97l.8 3.97m.83 3.97l.82 3.97m.8 3.97l.83 3.97m.8 3.97l.83 3.96m.82 3.97l.4 1.98" stroke="#3a414a" stroke-linejoin="round" fill="none"/><path d="M462.1 760.5l-.1-.5" stroke="#3a414a" fill="none"/><path d="M478.17 838.4l-7.42-13.02 9.08-1.87z" stroke="#3a414a" fill="#3a414a"/><path d="M578.28 760.45l-.9 1.8m-1.8 3.6l-1.8 3.6m-1.8 3.62l-1.82 3.6m-1.8 3.6l-1.8 3.6m-1.8 3.62l-1.8 3.6m-1.8 3.6l-1.8 3.6m-1.82 3.6l-1.8 3.62m-1.8 3.6l-1.8 3.6m-1.8 3.6l-1.8 3.62m-1.8 3.6l-.9 1.8" stroke="#3a414a" stroke-linejoin="round" fill="none"/><path d="M578.27 760.46l.23-.46" stroke="#3a414a" fill="none"/><path d="M539.22 838.55l2.24-14.83 8.3 4.15z" stroke="#3a414a" fill="#3a414a"/><path d="M658.08 820.28l-1.64 1.1m-3.28 2.18l-3.28 2.2m-3.28 2.18l-3.3 2.18m-3.27 2.2l-3.28 2.18m-3.28 2.2l-3.3 2.18m-3.27 2.2l-3.28 2.17m-3.28 2.2l-3.28 2.18m-3.3 2.2l-1.63 1.08" stroke="#3a414a" stroke-linejoin="round" fill="none"/><path d="M658.07 820.3l.43-.3" stroke="#3a414a" fill="none"/><path d="M599.85 859.1l9.3-11.77 5.14 7.72z" stroke="#3a414a" fill="#3a414a"/><path d="M729.6 890.37l-1.27 1.58m-2.55 3.14l-2.55 3.14m-2.55 3.15l-2.55 3.14m-2.55 3.14l-2.55 3.15m-2.55 3.15l-2.55 3.14m-2.55 3.15l-2.55 3.15m-2.55 3.14l-2.54 3.15m-2.55 3.16l-2.56 3.14m-2.55 3.15l-1.3 1.58" stroke="#3a414a" stroke-linejoin="round" fill="none"/><path d="M729.6 890.38l.32-.4" stroke="#3a414a" fill="none"/><path d="M679.52 952.2l5.38-14 7.2 5.83z" stroke="#3a414a" fill="#3a414a"/><path d="M778 980.1l-1.97.4m-3.97.8l-3.97.82m-3.97.8l-3.97.8m-3.96.82l-3.97.8m-3.97.8l-3.96.82m-3.97.8l-3.96.8m-3.97.82l-3.96.8m-3.97.8l-3.97.82m-3.96.8l-2 .4" stroke="#3a414a" stroke-linejoin="round" fill="none"/><path d="M778 980.1l.5-.1" stroke="#3a414a" fill="none"/><path d="M700.1 995.95l13.04-7.4 1.85 9.1z" stroke="#3a414a" fill="#3a414a"/><path d="M767 1059.85l-1.9-.57m-3.77-1.15l-3.77-1.16m-3.77-1.15l-3.8-1.15m-3.76-1.15l-3.77-1.15m-3.78-1.15l-3.78-1.15m-3.77-1.16l-3.77-1.14m-3.78-1.15l-3.77-1.14m-3.77-1.15l-1.9-.57" stroke="#3a414a" stroke-linejoin="round" fill="none"/><path d="M766.98 1059.85l.5.15" stroke="#3a414a" fill="none"/><path d="M700.05 1039.42l15-.27-2.7 8.87z" stroke="#3a414a" fill="#3a414a"/><path d="M818.02 1140.14l-2 .6m-3.98 1.16l-4 1.17m-3.98 1.16l-3.98 1.17m-4 1.17l-3.98 1.17m-4 1.17l-3.97 1.18m-4 1.17l-3.98 1.17m-4 1.17l-3.97 1.16m-4 1.17l-3.98 1.17m-4 1.17l-1.98.6" stroke="#3a414a" stroke-linejoin="round" fill="none"/><path d="M818 1140.14l.5-.14" stroke="#3a414a" fill="none"/><path d="M740.05 1163l12.4-8.45 2.6 8.9z" stroke="#3a414a" fill="#3a414a"/><path d="M825.24 1185.22l-1.96.45m-3.93.9l-3.94.88m-3.92.9l-3.93.88m-3.93.9l-3.93.9m-3.94.88l-3.93.9m-3.94.9l-3.94.88m-3.93.9l-3.93.88m-3.93.9l-3.93.88m-3.93.9l-3.92.9m-3.94.88l-1.96.44" stroke="#3a414a" stroke-linejoin="round" fill="none"/><path d="M825.23 1185.23l.5-.12" stroke="#3a414a" fill="none"/><path d="M740.08 1204.53l12.9-7.68 2.04 9.05z" stroke="#3a414a" fill="#3a414a"/><path d="M807 1260.9l-1.9-.57m-3.77-1.15l-3.77-1.15m-3.77-1.15l-3.8-1.16m-3.76-1.15l-3.77-1.15m-3.78-1.15l-3.78-1.15m-3.77-1.15l-3.77-1.16m-3.78-1.14l-3.77-1.15m-3.77-1.14l-1.9-.58" stroke="#3a414a" stroke-linejoin="round" fill="none"/><path d="M806.98 1260.9l.5.15" stroke="#3a414a" fill="none"/><path d="M740.05 1240.47l15-.27-2.7 8.87z" stroke="#3a414a" fill="#3a414a"/><path d="M798 1360.12l-1.97.5m-3.98 1l-3.98 1m-3.97.98l-3.98 1m-3.98 1l-3.97.98m-3.98 1l-3.98 1m-3.98 1l-3.98.98m-3.97 1l-4 1m-3.96.98l-3.98 1m-3.98 1l-2 .5" stroke="#3a414a" stroke-linejoin="round" fill="none"/><path d="M798 1360.13l.5-.13" stroke="#3a414a" fill="none"/><path d="M720.07 1379.6l12.7-7.95 2.26 9z" stroke="#3a414a" fill="#3a414a"/><path d="M778 1429.8l-2.16-.35m-4.34-.7l-4.33-.72m-4.33-.72l-4.34-.7m-4.33-.72l-4.33-.7m-4.34-.73l-4.33-.7m-4.34-.73l-2.16-.35" stroke="#3a414a" stroke-linejoin="round" fill="none"/><path d="M778 1429.8l.5.1" stroke="#3a414a" fill="none"/><path d="M720.1 1420.26l14.83-2.25-1.5 9.16z" stroke="#3a414a" fill="#3a414a"/><path d="M767.04 1480.8l-1.7-1.02m-3.4-2.02l-3.4-2.03m-3.4-2.02l-3.42-2.02m-3.4-2.03l-3.4-2.02m-3.4-2.03l-3.4-2.02m-3.42-2.03l-3.4-2.03m-3.4-2.02l-3.4-2.03m-3.4-2.03l-3.42-2.02m-3.4-2.03l-1.7-1.02" stroke="#3a414a" stroke-linejoin="round" fill="none"/><path d="M767.03 1480.8l.44.25" stroke="#3a414a" fill="none"/><path d="M699.9 1440.83l14.62 3.3-4.74 7.98z" stroke="#3a414a" fill="#3a414a"/><path d="M360 682a6 6 0 0 1 6-6h288a6 6 0 0 1 6 6v94a6 6 0 0 1-6 6H366a6 6 0 0 1-6-6z" stroke="#000" stroke-opacity="0" stroke-width="2" fill="#fff" fill-opacity="0"/><use xlink:href="#C" transform="matrix(1,0,0,1,365,681) translate(17.916666666666686 40)"/><use xlink:href="#D" transform="matrix(1,0,0,1,365,681) translate(68.97222222222223 40)"/><use xlink:href="#E" transform="matrix(1,0,0,1,365,681) translate(134.52777777777777 40)"/><use xlink:href="#F" transform="matrix(1,0,0,1,365,681) translate(215.47222222222223 40)"/><use xlink:href="#G" transform="matrix(1,0,0,1,365,681) translate(30.611111111111143 64)"/><use xlink:href="#H" transform="matrix(1,0,0,1,365,681) translate(105.05555555555557 64)"/><use xlink:href="#I" transform="matrix(1,0,0,1,365,681) translate(143.94444444444446 64)"/><use xlink:href="#J" transform="matrix(1,0,0,1,365,681) translate(190.5 64)"/><path d="M260 901.17a6 6 0 0 1 6-6h166.5a6 6 0 0 1 6 6v37.66a6 6 0 0 1-6 6H266a6 6 0 0 1-6-6z" stroke="#3a414a" fill="#fff"/><path d="M277.85 895.17v49.66m142.8-49.66v49.66" stroke="#3a414a" fill="none"/><use xlink:href="#K" transform="matrix(1,0,0,1,287.3125,900.1666666756668) translate(0.9814814814814881 24.444444444444443)"/><use xlink:href="#L" transform="matrix(1,0,0,1,287.3125,900.1666666756668) translate(57.586419753086425 24.444444444444443)"/><path d="M360 1001.17a6 6 0 0 1 6-6h166.5a6 6 0 0 1 6 6v37.66a6 6 0 0 1-6 6H366a6 6 0 0 1-6-6z" stroke="#3a414a" fill="#fff"/><path d="M377.85 995.17v49.66m142.8-49.66v49.66" stroke="#3a414a" fill="none"/><use xlink:href="#K" transform="matrix(1,0,0,1,387.3125,1000.1666666756668) translate(0.9814814814814881 24.444444444444443)"/><use xlink:href="#L" transform="matrix(1,0,0,1,387.3125,1000.1666666756668) translate(57.586419753086425 24.444444444444443)"/><path d="M400 1181.17a6 6 0 0 1 6-6h166.5a6 6 0 0 1 6 6v37.66a6 6 0 0 1-6 6H406a6 6 0 0 1-6-6z" stroke="#3a414a" fill="#fff"/><path d="M417.85 1175.17v49.66m142.8-49.66v49.66" stroke="#3a414a" fill="none"/><use xlink:href="#K" transform="matrix(1,0,0,1,427.3124999999999,1180.1666666756664) translate(0.9814814814814881 24.444444444444443)"/><use xlink:href="#L" transform="matrix(1,0,0,1,427.3124999999999,1180.1666666756664) translate(57.586419753086425 24.444444444444443)"/><path d="M360 1361.17a6 6 0 0 1 6-6h166.5a6 6 0 0 1 6 6v37.66a6 6 0 0 1-6 6H366a6 6 0 0 1-6-6z" stroke="#3a414a" fill="#fff"/><path d="M377.85 1355.17v49.66m142.8-49.66v49.66" stroke="#3a414a" fill="none"/><use xlink:href="#K" transform="matrix(1,0,0,1,387.3125,1360.1666666756664) translate(0.9814814814814881 24.444444444444443)"/><use xlink:href="#L" transform="matrix(1,0,0,1,387.3125,1360.1666666756664) translate(57.586419753086425 24.444444444444443)"/><path d="M292.13 818a6 6 0 0 1 6-6h102.25a6 6 0 0 1 6 6v70a6 6 0 0 1-6 6H298.13a6 6 0 0 1-6-6z" stroke="#000" stroke-opacity="0" stroke-width="2" fill="#fff" fill-opacity="0"/><use xlink:href="#M" transform="matrix(1,0,0,1,297.12500000000006,817) translate(18.638888888888893 18.25)"/><use xlink:href="#N" transform="matrix(1,0,0,1,297.12500000000006,817) translate(7.916666666666671 42.24999999999999)"/><use xlink:href="#O" transform="matrix(1,0,0,1,297.12500000000006,817) translate(23.05555555555556 66.24999999999999)"/><path d="M-59.55 1079.77l17.66-9.32 18.95-11.04 21.18-13.55 28.74-20.2 75.17-55.15 15.4-9.87 12.7-7.4 11.3-5.97 10.52-5 10.07-4.27 9.83-3.7 9.75-3.22 9.8-2.77 10-2.37 10.27-2 10.7-1.6 11.2-1.23 9.46-.63" stroke="#3a414a" stroke-linejoin="round" fill="none"/><path d="M-59.54 1079.76l-.46.24" stroke="#3a414a" fill="none"/><path d="M257.88 920.05l-14.12 5.04-.27-9.27z" stroke="#3a414a" fill="#3a414a"/><path d="M-39.5 1099.9l52.24-11.64L219 1033.63l29.36-5.25 28.08-3.8 28.62-2.67 30.53-1.54 7.52-.12" stroke="#3a414a" stroke-linejoin="round" fill="none"/><path d="M-39.5 1099.9l-.5.1" stroke="#3a414a" fill="none"/><path d="M357.88 1020.02l-14.2 4.85-.13-9.27z" stroke="#3a414a" fill="#3a414a"/><path d="M-39.5 1140.08L48.13 1154l197.63 35.78 46.32 5.35 45.3 3.3 45.74 1.4" stroke="#3a414a" stroke-linejoin="round" fill="none"/><path d="M-39.5 1140.08l-.5-.08" stroke="#3a414a" fill="none"/><path d="M397.88 1199.98l-14.3 4.5.1-9.28z" stroke="#3a414a" fill="#3a414a"/><path d="M-39.55 1180.24l22.2 11.7 23.7 13.8 26.5 16.96 35.95 25.28 93.92 68.9 19.26 12.33 15.88 9.26 14.15 7.46 13.17 6.26 12.6 5.34 12.28 4.62 12.2 4 12.26 3.48 12.5 2.97 12.85 2.5 13.36 2 14.06 1.53 14.9.98.96.04" stroke="#3a414a" stroke-linejoin="round" fill="none"/><path d="M-39.54 1180.24l-.45-.24" stroke="#3a414a" fill="none"/><path d="M357.88 1379.96l-14.36 4.32.2-9.27z" stroke="#3a414a" fill="#3a414a"/><path d="M120 908a6 6 0 0 1 6-6h43a6 6 0 0 1 6 6v46a6 6 0 0 1-6 6h-43a6 6 0 0 1-6-6z" stroke="#000" stroke-opacity="0" stroke-width="2" fill="#fff" fill-opacity="0"/><use xlink:href="#P" transform="matrix(1,0,0,1,125,907.0000000000002) translate(9.111111111111114 28)"/><a xlink:href="https://blog.bittensor.com/" target="_blank"><path d="M115.5 1008.83a6 6 0 0 1 6-6h43a6 6 0 0 1 6 6v46a6 6 0 0 1-6 6h-43a6 6 0 0 1-6-6z" stroke="#000" stroke-opacity="0" stroke-width="2" fill="#fff" fill-opacity="0"/><use xlink:href="#Q" transform="matrix(1,0,0,1,120.51400383438272,1007.8333333243338) translate(3.5555555555555607 28)"/><path class="lucid-link lucid-hotspot lucid-overlay-hotspot" d="M115.5 1008.83a6 6 0 0 1 6-6h43a6 6 0 0 1 6 6v46a6 6 0 0 1-6 6h-43a6 6 0 0 1-6-6z" fill="none"/></a><a xlink:href="https://blog.bittensor.com/" target="_blank"><path d="M120 1127.42a6 6 0 0 1 6-6h43a6 6 0 0 1 6 6v46a6 6 0 0 1-6 6h-43a6 6 0 0 1-6-6z" stroke="#000" stroke-opacity="0" stroke-width="2" fill="#fff" fill-opacity="0"/><use xlink:href="#R" transform="matrix(1,0,0,1,125,1126.4166666621668) translate(3.5555555555555607 28)"/><path class="lucid-link lucid-hotspot lucid-overlay-hotspot" d="M120 1127.42a6 6 0 0 1 6-6h43a6 6 0 0 1 6 6v46a6 6 0 0 1-6 6h-43a6 6 0 0 1-6-6z" fill="none"/></a><a xlink:href="https://blog.bittensor.com/" target="_blank"><path d="M120 1266a6 6 0 0 1 6-6h43a6 6 0 0 1 6 6v46a6 6 0 0 1-6 6h-43a6 6 0 0 1-6-6z" stroke="#000" stroke-opacity="0" stroke-width="2" fill="#fff" fill-opacity="0"/><use xlink:href="#S" transform="matrix(1,0,0,1,125,1265) translate(9.111111111111114 28)"/><path class="lucid-link lucid-hotspot lucid-overlay-hotspot" d="M120 1266a6 6 0 0 1 6-6h43a6 6 0 0 1 6 6v46a6 6 0 0 1-6 6h-43a6 6 0 0 1-6-6z" fill="none"/></a><path d="M266.5 1442.74l57.85-17.9" stroke="#3a414a" fill="none"/><path d="M266.66 1443.2l-.63.2v-1l.35-.1z" stroke="#3a414a" stroke-width=".05" fill="#3a414a"/><path d="M338.45 1420.48l-12.25 8.64-2.74-8.85z" stroke="#3a414a" fill="#3a414a"/><path d="M40 736a6 6 0 0 1 6-6h188a6 6 0 0 1 6 6v70a6 6 0 0 1-6 6H46a6 6 0 0 1-6-6z" stroke="#000" stroke-opacity="0" stroke-width="2" fill="#fff" fill-opacity="0"/><use xlink:href="#T" transform="matrix(1,0,0,1,45,735) translate(30.083333333333343 18.25)"/><use xlink:href="#U" transform="matrix(1,0,0,1,45,735) translate(53.41666666666667 18.25)"/><use xlink:href="#V" transform="matrix(1,0,0,1,45,735) translate(143.25 18.25)"/><use xlink:href="#W" transform="matrix(1,0,0,1,45,735) translate(0.9166666666666856 42.24999999999999)"/><use xlink:href="#X" transform="matrix(1,0,0,1,45,735) translate(63.08333333333334 42.24999999999999)"/><use xlink:href="#Y" transform="matrix(1,0,0,1,45,735) translate(141.30555555555554 42.24999999999999)"/><use xlink:href="#Z" transform="matrix(1,0,0,1,45,735) translate(14.500000000000014 66.24999999999999)"/><use xlink:href="#aa" transform="matrix(1,0,0,1,45,735) translate(36.72222222222223 66.24999999999999)"/><use xlink:href="#I" transform="matrix(1,0,0,1,45,735) translate(70.05555555555556 66.24999999999999)"/><use xlink:href="#O" transform="matrix(1,0,0,1,45,735) translate(116.6111111111111 66.24999999999999)"/><path d="M147.5 812.5v73.12" stroke="#3a414a" stroke-linejoin="round" fill="none"/><path d="M147.97 812.5h-.94v-.5h.94z" stroke="#3a414a" stroke-width=".05" fill="#3a414a"/><path d="M147.5 900.38l-4.63-14.26h9.26z" stroke="#3a414a" fill="#3a414a"/><path d="M-240 1086a6 6 0 0 1 6-6h148a6 6 0 0 1 6 6v48a6 6 0 0 1-6 6h-148a6 6 0 0 1-6-6z" stroke="#3a414a" fill="#fff"/><path d="M-224 1080v60m128-60v60" stroke="#3a414a" fill="none"/><g><use xlink:href="#ab" transform="matrix(1,0,0,1,-215,1085) translate(20.46296296296297 29.444444444444443)"/></g><path d="M-255 1166.26a6 6 0 0 1 6-6h168a6 6 0 0 1 6 6v52.57a6 6 0 0 1-6 6h-168a6 6 0 0 1-6-6z" stroke="#000" stroke-opacity="0" stroke-width="2" fill="#fff" fill-opacity="0"/><g><use xlink:href="#ac" transform="matrix(1,0,0,1,-250.0000000000001,1165.2610062861222) translate(22.111111111111114 19.4375)"/><use xlink:href="#N" transform="matrix(1,0,0,1,-250.0000000000001,1165.2610062861222) translate(58.72222222222222 19.4375)"/><use xlink:href="#ad" transform="matrix(1,0,0,1,-250.0000000000001,1165.2610062861222) translate(14.472222222222229 43.43749999999999)"/><use xlink:href="#O" transform="matrix(1,0,0,1,-250.0000000000001,1165.2610062861222) translate(96.63888888888889 43.43749999999999)"/></g><path d="M-479.78 940.45l12.45 24.9M-479.77 940.46l-.23-.46" stroke="#3a414a" fill="none"/><path d="M-460.72 978.55l-10.53-10.68 8.3-4.15z" stroke="#3a414a" fill="#3a414a"/><path d="M-600 746a6 6 0 0 1 6-6h188a6 6 0 0 1 6 6v166a6 6 0 0 1-6 6h-188a6 6 0 0 1-6-6z" stroke="#000" stroke-opacity="0" stroke-width="2" fill="#fff" fill-opacity="0"/><g><use xlink:href="#ae" transform="matrix(1,0,0,1,-595,745) translate(95 21.25)"/><use xlink:href="#af" transform="matrix(1,0,0,1,-595,745) translate(95 45.24999999999999)"/><use xlink:href="#ag" transform="matrix(1,0,0,1,-595,745) translate(0.11111111111112848 69.24999999999999)"/><use xlink:href="#ah" transform="matrix(1,0,0,1,-595,745) translate(96.66666666666667 69.24999999999999)"/><use xlink:href="#ai" transform="matrix(1,0,0,1,-595,745) translate(150 69.24999999999999)"/><use xlink:href="#aj" transform="matrix(1,0,0,1,-595,745) translate(30.611111111111114 93.24999999999999)"/><use xlink:href="#ak" transform="matrix(1,0,0,1,-595,745) translate(81.66666666666666 93.24999999999999)"/><use xlink:href="#al" transform="matrix(1,0,0,1,-595,745) translate(89.16666666666667 117.24999999999999)"/><use xlink:href="#am" transform="matrix(1,0,0,1,-595,745) translate(2.6666666666666856 141.24999999999997)"/><use xlink:href="#an" transform="matrix(1,0,0,1,-595,745) translate(97.3888888888889 141.24999999999997)"/><use xlink:href="#ao" transform="matrix(1,0,0,1,-595,745) translate(139.55555555555554 141.24999999999997)"/><use xlink:href="#ap" transform="matrix(1,0,0,1,-595,745) translate(17.333333333333343 165.24999999999997)"/><use xlink:href="#an" transform="matrix(1,0,0,1,-595,745) translate(62.77777777777778 165.24999999999997)"/><use xlink:href="#aq" transform="matrix(1,0,0,1,-595,745) translate(104.94444444444443 165.24999999999997)"/></g><path d="M-640 1095.9a6 6 0 0 1 6-6h148a6 6 0 0 1 6 6v34.9a6 6 0 0 1-6 6h-148a6 6 0 0 1-6-6z" stroke="#3a414a" fill="#f2f3f5"/><path d="M-624 1089.9v46.9m128-46.9v46.9" stroke="#3a414a" fill="none"/><g><use xlink:href="#ar" transform="matrix(1,0,0,1,-615,1094.9025157153055) translate(14.938271604938272 22.944444444444443)"/></g><path d="M-520 1006a6 6 0 0 1 6-6h148a6 6 0 0 1 6 6v34.9a6 6 0 0 1-6 6h-148a6 6 0 0 1-6-6z" stroke="#3a414a" fill="#f2f3f5"/><path d="M-504 1000v46.9m128-46.9v46.9" stroke="#3a414a" fill="none"/><g><use xlink:href="#ar" transform="matrix(1,0,0,1,-495,1005) translate(14.938271604938272 22.944444444444443)"/></g><path d="M-520 1166.26a6 6 0 0 1 6-6h148a6 6 0 0 1 6 6v34.9a6 6 0 0 1-6 6h-148a6 6 0 0 1-6-6z" stroke="#3a414a" fill="#f2f3f5"/><path d="M-504 1160.26v46.9m128-46.9v46.9" stroke="#3a414a" fill="none"/><g><use xlink:href="#ar" transform="matrix(1,0,0,1,-495,1165.2610062861222) translate(14.938271604938272 22.944444444444443)"/></g><path d="M-370.55 1047.6l115.26 44.25" stroke="#3a414a" fill="none"/><path d="M-370.7 1048.03l-1.64-.62h1.87z" stroke="#3a414a" stroke-width=".05" fill="#3a414a"/><path d="M-241.5 1097.14l-15-.8 3.33-8.64z" stroke="#3a414a" fill="#3a414a"/><path d="M-359.05 1183.5l104.15-47.7" stroke="#3a414a" fill="none"/><path d="M-358.84 1183.93l-.66.3v-1.04l.27-.13z" stroke="#3a414a" stroke-width=".05" fill="#3a414a"/><path d="M-241.47 1129.66l-11.04 10.16-3.87-8.43z" stroke="#3a414a" fill="#3a414a"/><path d="M-479 1113.36h222.62" stroke="#3a414a" fill="none"/><path d="M-479 1113.83h-.5v-.95h.5z" stroke="#3a414a" stroke-width=".05" fill="#3a414a"/><path d="M-241.62 1113.36l-14.26 4.63v-9.28z" stroke="#3a414a" fill="#3a414a"/><path d="M-520 1226a6 6 0 0 1 6-6h148a6 6 0 0 1 6 6v46a6 6 0 0 1-6 6h-148a6 6 0 0 1-6-6z" stroke="#000" stroke-opacity="0" stroke-width="2" fill="#fff" fill-opacity="0"/><g><use xlink:href="#as" transform="matrix(1,0,0,1,-515,1225) translate(9.333333333333343 19)"/><use xlink:href="#at" transform="matrix(1,0,0,1,-515,1225) translate(104.05555555555556 19)"/><use xlink:href="#au" transform="matrix(1,0,0,1,-515,1225) translate(41.13888888888889 42.99999999999999)"/></g><path d="M-253.97 1031.33a6 6 0 0 1 6-6h168a6 6 0 0 1 6 6v52.57a6 6 0 0 1-6 6h-168a6 6 0 0 1-6-6z" stroke="#000" stroke-opacity="0" stroke-width="2" fill="#fff" fill-opacity="0"/><g><use xlink:href="#av" transform="matrix(1,0,0,1,-248.97199233123445,1030.3301886770946) translate(24.47222222222223 33.1875)"/><use xlink:href="#O" transform="matrix(1,0,0,1,-248.97199233123445,1030.3301886770946) translate(86.63888888888889 33.1875)"/></g><path d="M424.25 1099.17a6 6 0 0 1 6-6H532.5a6 6 0 0 1 6 6v70a6 6 0 0 1-6 6H430.25a6 6 0 0 1-6-6z" stroke="#000" stroke-opacity="0" stroke-width="2" fill="#fff" fill-opacity="0"/><g><use xlink:href="#aw" transform="matrix(1,0,0,1,429.2500000000001,1098.1666666756664) translate(22.500000000000007 18.25)"/><use xlink:href="#ax" transform="matrix(1,0,0,1,429.2500000000001,1098.1666666756664) translate(18.444444444444457 42.24999999999999)"/><use xlink:href="#O" transform="matrix(1,0,0,1,429.2500000000001,1098.1666666756664) translate(23.05555555555556 66.24999999999999)"/></g><g fill="none"><path d="M-19 720v829"/><path d="M-19 720v5.02m0 5.03v10.05m0 5.02v10.05m0 5.02v10.04m0 5.03v10.05m0 5.02v10.05m0 5v10.06m0 5.02v10.05m0 5.03v10.05m0 5.03v10.05m0 5.02v10.05m0 5.03v10.04m0 5.03v10.05m0 5.02v10.05m0 5.02v10.04m0 5.03v10.04m0 5.04v10.05m0 5v10.06m0 5.02v10.05m0 5.03v10.05m0 5.03v10.05m0 5.02v10.05m0 5.03v10.04m0 5.03v10.05m0 5.02v10.05m0 5.02v10.04m0 5.03v10.04m0 5.04V1132m0 5v10.06m0 5.02v10.05m0 5.03v10.05m0 5.03v10.05m0 5.02v10.05m0 5.03v10.04m0 5.03v10.05m0 5.02v10.05m0 5.02v10.04m0 5.03v10.04m0 5.04v10.05m0 5v10.06m0 5.02v10.05m0 5.03V1343m0 5.03v10.05m0 5.02v10.05m0 5.03v10.04m0 5.03v10.05m0 5.02v10.05m0 5.02v10.04m0 5.03v10.04m0 5.04v10.05m0 5v10.06m0 5.02v10.05m0 5.03v10.05m0 5.03v10.05m0 5.02v10.05m0 5.03v5.02" stroke="#282c33" stroke-linecap="round"/></g><path d="M-240 712a6 6 0 0 1 6-6h148a6 6 0 0 1 6 6v94a6 6 0 0 1-6 6h-148a6 6 0 0 1-6-6z" stroke="#000" stroke-opacity="0" stroke-width="2" fill="#fff" fill-opacity="0"/><g><use xlink:href="#ay" transform="matrix(1,0,0,1,-235,711) translate(38.91666666666667 28)"/><use xlink:href="#az" transform="matrix(1,0,0,1,-235,711) translate(22.805555555555557 52)"/><use xlink:href="#V" transform="matrix(1,0,0,1,-235,711) translate(110.52777777777777 52)"/><use xlink:href="#W" transform="matrix(1,0,0,1,-235,711) translate(14.472222222222229 76)"/><use xlink:href="#O" transform="matrix(1,0,0,1,-235,711) translate(76.63888888888889 76)"/></g><path d="M-20 755.52h-43.62" stroke="#3a414a" fill="none"/><path d="M-19.5 756h-.5v-.95h.5zm3 0h-2v-.95h2z" stroke="#3a414a" stroke-width=".05" fill="#3a414a"/><path d="M-78.38 755.52l14.26-4.63v9.26z" stroke="#3a414a" fill="#3a414a"/><defs><path fill="#3a414a" d="M24 0v-248h195v40H76v63h132v40H76v65h150V0H24" id="aA"/><path fill="#3a414a" d="M133-34C117-15 103 5 69 4 32 3 11-16 11-54c-1-60 55-63 116-61 1-26-3-47-28-47-18 1-26 9-28 27l-52-2c7-38 36-58 82-57s74 22 75 68l1 82c-1 14 12 18 25 15v27c-30 8-71 5-69-32zm-48 3c29 0 43-24 42-57-32 0-66-3-65 30 0 17 8 27 23 27" id="aB"/><path fill="#3a414a" d="M190-63c-7 42-38 67-86 67-59 0-84-38-90-98-12-110 154-137 174-36l-49 2c-2-19-15-32-35-32-30 0-35 28-38 64-6 74 65 87 74 30" id="aC"/><path fill="#3a414a" d="M114-157C55-157 80-60 75 0H25v-261h50l-1 109c12-26 28-41 61-42 86-1 58 113 63 194h-50c-7-57 23-157-34-157" id="aD"/><g id="a"><use transform="matrix(0.055555555555555546,0,0,0.055555555555555546,0,0)" xlink:href="#aA"/><use transform="matrix(0.055555555555555546,0,0,0.055555555555555546,13.33333333333333,0)" xlink:href="#aB"/><use transform="matrix(0.055555555555555546,0,0,0.055555555555555546,24.44444444444444,0)" xlink:href="#aC"/><use transform="matrix(0.055555555555555546,0,0,0.055555555555555546,35.55555555555555,0)" xlink:href="#aD"/></g><path fill="#3a414a" d="M25-224v-37h50v37H25zM25 0v-190h50V0H25" id="aE"/><path fill="#3a414a" d="M25 0v-261h50V0H25" id="aF"/><path fill="#3a414a" d="M88-194c31-1 46 15 58 34l-1-101h50l1 261h-48c-2-10 0-23-3-31C134-8 116 4 84 4 32 4 16-41 15-95c0-56 19-97 73-99zm17 164c33 0 40-30 41-66 1-37-9-64-41-64s-38 30-39 65c0 43 13 65 39 65" id="aG"/><g id="b"><use transform="matrix(0.055555555555555546,0,0,0.055555555555555546,0,0)" xlink:href="#aC"/><use transform="matrix(0.055555555555555546,0,0,0.055555555555555546,11.111111111111109,0)" xlink:href="#aD"/><use transform="matrix(0.055555555555555546,0,0,0.055555555555555546,23.27777777777777,0)" xlink:href="#aE"/><use transform="matrix(0.055555555555555546,0,0,0.055555555555555546,28.83333333333333,0)" xlink:href="#aF"/><use transform="matrix(0.055555555555555546,0,0,0.055555555555555546,34.38888888888888,0)" xlink:href="#aG"/></g><path fill="#3a414a" d="M110-194c64 0 96 36 96 99 0 64-35 99-97 99-61 0-95-36-95-99 0-62 34-99 96-99zm-1 164c35 0 45-28 45-65 0-40-10-65-43-65-34 0-45 26-45 65 0 36 10 65 43 65" id="aH"/><path fill="#3a414a" d="M115-3C79 11 28 4 28-45v-112H4v-33h27l15-45h31v45h36v33H77v99c-1 23 16 31 38 25v30" id="aI"/><path fill="#3a414a" d="M147 0L96-86 75-71V0H25v-261h50v150l67-79h53l-66 74L201 0h-54" id="aJ"/><path fill="#3a414a" d="M185-48c-13 30-37 53-82 52C43 2 14-33 14-96s30-98 90-98c62 0 83 45 84 108H66c0 31 8 55 39 56 18 0 30-7 34-22zm-45-69c5-46-57-63-70-21-2 6-4 13-4 21h74" id="aK"/><path fill="#3a414a" d="M123 10C108 53 80 86 19 72V37c35 8 53-11 59-39L3-190h52l48 148c12-52 28-100 44-148h51" id="aL"/><g id="c"><use transform="matrix(0.055555555555555546,0,0,0.055555555555555546,0,0)" xlink:href="#aD"/><use transform="matrix(0.055555555555555546,0,0,0.055555555555555546,12.166666666666664,0)" xlink:href="#aH"/><use transform="matrix(0.055555555555555546,0,0,0.055555555555555546,24.33333333333333,0)" xlink:href="#aI"/><use transform="matrix(0.055555555555555546,0,0,0.055555555555555546,30.94444444444444,0)" xlink:href="#aJ"/><use transform="matrix(0.055555555555555546,0,0,0.055555555555555546,42.05555555555555,0)" xlink:href="#aK"/><use transform="matrix(0.055555555555555546,0,0,0.055555555555555546,53.16666666666666,0)" xlink:href="#aL"/></g><path fill="#3a414a" d="M137-138c1-29-70-34-71-4 15 46 118 7 119 86 1 83-164 76-172 9l43-7c4 19 20 25 44 25 33 8 57-30 24-41C81-84 22-81 20-136c-2-80 154-74 161-7" id="aM"/><g id="d"><use transform="matrix(0.055555555555555546,0,0,0.055555555555555546,0,0)" xlink:href="#aE"/><use transform="matrix(0.055555555555555546,0,0,0.055555555555555546,5.5555555555555545,0)" xlink:href="#aM"/></g><path fill="#3a414a" d="M85 4C-2 5 27-109 22-190h50c7 57-23 150 33 157 60-5 35-97 40-157h50l1 190h-47c-2-12 1-28-3-38-12 25-28 42-61 42" id="aN"/><path fill="#3a414a" d="M135-194c87-1 58 113 63 194h-50c-7-57 23-157-34-157-59 0-34 97-39 157H25l-1-190h47c2 12-1 28 3 38 12-26 28-41 61-42" id="aO"/><path fill="#3a414a" d="M84 4C32 4 15-41 15-95c0-55 18-99 73-99 29 0 47 12 58 34l2-30h48l-1 265h-49V-32C136-9 114 4 84 4zm21-34c32 0 41-29 41-66 0-36-9-64-40-64-33 0-39 30-40 65 0 43 13 65 39 65" id="aP"/><g id="e"><use transform="matrix(0.055555555555555546,0,0,0.055555555555555546,0,0)" xlink:href="#aN"/><use transform="matrix(0.055555555555555546,0,0,0.055555555555555546,12.166666666666664,0)" xlink:href="#aO"/><use transform="matrix(0.055555555555555546,0,0,0.055555555555555546,24.33333333333333,0)" xlink:href="#aE"/><use transform="matrix(0.055555555555555546,0,0,0.055555555555555546,29.888888888888882,0)" xlink:href="#aP"/><use transform="matrix(0.055555555555555546,0,0,0.055555555555555546,42.05555555555554,0)" xlink:href="#aN"/><use transform="matrix(0.055555555555555546,0,0,0.055555555555555546,54.22222222222221,0)" xlink:href="#aK"/></g><path fill="#e81313" d="M135-150c-39-12-60 13-60 57V0H25l-1-190h47c2 13-1 29 3 40 6-28 27-53 61-41v41" id="aQ"/><path fill="#e81313" d="M185-48c-13 30-37 53-82 52C43 2 14-33 14-96s30-98 90-98c62 0 83 45 84 108H66c0 31 8 55 39 56 18 0 30-7 34-22zm-45-69c5-46-57-63-70-21-2 6-4 13-4 21h74" id="aR"/><path fill="#e81313" d="M88-194c31-1 46 15 58 34l-1-101h50l1 261h-48c-2-10 0-23-3-31C134-8 116 4 84 4 32 4 16-41 15-95c0-56 19-97 73-99zm17 164c33 0 40-30 41-66 1-37-9-64-41-64s-38 30-39 65c0 43 13 65 39 65" id="aS"/><path fill="#e81313" d="M85 4C-2 5 27-109 22-190h50c7 57-23 150 33 157 60-5 35-97 40-157h50l1 190h-47c-2-12 1-28-3-38-12 25-28 42-61 42" id="aT"/><path fill="#e81313" d="M190-63c-7 42-38 67-86 67-59 0-84-38-90-98-12-110 154-137 174-36l-49 2c-2-19-15-32-35-32-30 0-35 28-38 64-6 74 65 87 74 30" id="aU"/><g id="f"><use transform="matrix(0.055555555555555546,0,0,0.055555555555555546,0,0)" xlink:href="#aQ"/><use transform="matrix(0.055555555555555546,0,0,0.055555555555555546,7.777777777777777,0)" xlink:href="#aR"/><use transform="matrix(0.055555555555555546,0,0,0.055555555555555546,18.888888888888886,0)" xlink:href="#aS"/><use transform="matrix(0.055555555555555546,0,0,0.055555555555555546,31.05555555555555,0)" xlink:href="#aT"/><use transform="matrix(0.055555555555555546,0,0,0.055555555555555546,43.222222222222214,0)" xlink:href="#aU"/><use transform="matrix(0.055555555555555546,0,0,0.055555555555555546,54.33333333333332,0)" xlink:href="#aR"/><use transform="matrix(0.055555555555555546,0,0,0.055555555555555546,65.44444444444443,0)" xlink:href="#aS"/></g><path fill="#e81313" d="M137-138c1-29-70-34-71-4 15 46 118 7 119 86 1 83-164 76-172 9l43-7c4 19 20 25 44 25 33 8 57-30 24-41C81-84 22-81 20-136c-2-80 154-74 161-7" id="aV"/><path fill="#e81313" d="M25-224v-37h50v37H25zM25 0v-190h50V0H25" id="aW"/><path fill="#e81313" d="M115-3C79 11 28 4 28-45v-112H4v-33h27l15-45h31v45h36v33H77v99c-1 23 16 31 38 25v30" id="aX"/><path fill="#e81313" d="M123 10C108 53 80 86 19 72V37c35 8 53-11 59-39L3-190h52l48 148c12-52 28-100 44-148h51" id="aY"/><g id="g"><use transform="matrix(0.055555555555555546,0,0,0.055555555555555546,0,0)" xlink:href="#aV"/><use transform="matrix(0.055555555555555546,0,0,0.055555555555555546,11.111111111111109,0)" xlink:href="#aR"/><use transform="matrix(0.055555555555555546,0,0,0.055555555555555546,22.222222222222218,0)" xlink:href="#aU"/><use transform="matrix(0.055555555555555546,0,0,0.055555555555555546,33.33333333333333,0)" xlink:href="#aT"/><use transform="matrix(0.055555555555555546,0,0,0.055555555555555546,45.49999999999999,0)" xlink:href="#aQ"/><use transform="matrix(0.055555555555555546,0,0,0.055555555555555546,53.27777777777777,0)" xlink:href="#aW"/><use transform="matrix(0.055555555555555546,0,0,0.055555555555555546,58.83333333333332,0)" xlink:href="#aX"/><use transform="matrix(0.055555555555555546,0,0,0.055555555555555546,65.44444444444444,0)" xlink:href="#aY"/></g><path fill="#e81313" d="M147 0L96-86 75-71V0H25v-261h50v150l67-79h53l-66 74L201 0h-54" id="aZ"/><path fill="#e81313" d="M35-132v-50h50v50H35zM35 0v-49h50V0H35" id="ba"/><g id="h"><use transform="matrix(0.055555555555555546,0,0,0.055555555555555546,0,0)" xlink:href="#aQ"/><use transform="matrix(0.055555555555555546,0,0,0.055555555555555546,7.777777777777777,0)" xlink:href="#aW"/><use transform="matrix(0.055555555555555546,0,0,0.055555555555555546,13.333333333333332,0)" xlink:href="#aV"/><use transform="matrix(0.055555555555555546,0,0,0.055555555555555546,24.444444444444443,0)" xlink:href="#aZ"/><use transform="matrix(0.055555555555555546,0,0,0.055555555555555546,35.55555555555555,0)" xlink:href="#ba"/></g><path fill="#e81313" d="M110-194c64 0 96 36 96 99 0 64-35 99-97 99-61 0-95-36-95-99 0-62 34-99 96-99zm-1 164c35 0 45-28 45-65 0-40-10-65-43-65-34 0-45 26-45 65 0 36 10 65 43 65" id="bb"/><path fill="#e81313" d="M135-194c87-1 58 113 63 194h-50c-7-57 23-157-34-157-59 0-34 97-39 157H25l-1-190h47c2 12-1 28 3 38 12-26 28-41 61-42" id="bc"/><path fill="#e81313" d="M25 0v-261h50V0H25" id="bd"/><g id="i"><use transform="matrix(0.055555555555555546,0,0,0.055555555555555546,0,0)" xlink:href="#bb"/><use transform="matrix(0.055555555555555546,0,0,0.055555555555555546,12.166666666666664,0)" xlink:href="#bc"/><use transform="matrix(0.055555555555555546,0,0,0.055555555555555546,24.33333333333333,0)" xlink:href="#bd"/><use transform="matrix(0.055555555555555546,0,0,0.055555555555555546,29.888888888888882,0)" xlink:href="#aY"/></g><path fill="#e81313" d="M114-157C55-157 80-60 75 0H25v-261h50l-1 109c12-26 28-41 61-42 86-1 58 113 63 194h-50c-7-57 23-157-34-157" id="be"/><g id="j"><use transform="matrix(0.055555555555555546,0,0,0.055555555555555546,0,0)" xlink:href="#aX"/><use transform="matrix(0.055555555555555546,0,0,0.055555555555555546,6.61111111111111,0)" xlink:href="#be"/><use transform="matrix(0.055555555555555546,0,0,0.055555555555555546,18.777777777777775,0)" xlink:href="#aR"/></g><path fill="#e81313" d="M128 0H69L1-190h53L99-40l48-150h52" id="bf"/><path fill="#e81313" d="M133-34C117-15 103 5 69 4 32 3 11-16 11-54c-1-60 55-63 116-61 1-26-3-47-28-47-18 1-26 9-28 27l-52-2c7-38 36-58 82-57s74 22 75 68l1 82c-1 14 12 18 25 15v27c-30 8-71 5-69-32zm-48 3c29 0 43-24 42-57-32 0-66-3-65 30 0 17 8 27 23 27" id="bg"/><g id="k"><use transform="matrix(0.055555555555555546,0,0,0.055555555555555546,0,0)" xlink:href="#bf"/><use transform="matrix(0.055555555555555546,0,0,0.055555555555555546,11.111111111111109,0)" xlink:href="#bg"/><use transform="matrix(0.055555555555555546,0,0,0.055555555555555546,22.222222222222218,0)" xlink:href="#bd"/><use transform="matrix(0.055555555555555546,0,0,0.055555555555555546,27.77777777777777,0)" xlink:href="#aW"/><use transform="matrix(0.055555555555555546,0,0,0.055555555555555546,33.33333333333333,0)" xlink:href="#aS"/><use transform="matrix(0.055555555555555546,0,0,0.055555555555555546,45.49999999999999,0)" xlink:href="#bg"/><use transform="matrix(0.055555555555555546,0,0,0.055555555555555546,56.6111111111111,0)" xlink:href="#aX"/><use transform="matrix(0.055555555555555546,0,0,0.055555555555555546,63.222222222222214,0)" xlink:href="#bb"/><use transform="matrix(0.055555555555555546,0,0,0.055555555555555546,75.38888888888887,0)" xlink:href="#aQ"/></g><path fill="#e81313" d="M135-194c53 0 70 44 70 98 0 56-19 98-73 100-31 1-45-17-59-34 3 33 2 69 2 105H25l-1-265h48c2 10 0 23 3 31 11-24 29-35 60-35zM114-30c33 0 39-31 40-66 0-38-9-64-40-64-56 0-55 130 0 130" id="bh"/><g id="l"><use transform="matrix(0.055555555555555546,0,0,0.055555555555555546,0,0)" xlink:href="#bb"/><use transform="matrix(0.055555555555555546,0,0,0.055555555555555546,12.166666666666664,0)" xlink:href="#bh"/><use transform="matrix(0.055555555555555546,0,0,0.055555555555555546,24.33333333333333,0)" xlink:href="#aR"/><use transform="matrix(0.055555555555555546,0,0,0.055555555555555546,35.444444444444436,0)" xlink:href="#aQ"/><use transform="matrix(0.055555555555555546,0,0,0.055555555555555546,43.222222222222214,0)" xlink:href="#bg"/><use transform="matrix(0.055555555555555546,0,0,0.055555555555555546,54.33333333333332,0)" xlink:href="#aX"/><use transform="matrix(0.055555555555555546,0,0,0.055555555555555546,60.944444444444436,0)" xlink:href="#aW"/><use transform="matrix(0.055555555555555546,0,0,0.055555555555555546,66.49999999999999,0)" xlink:href="#bb"/><use transform="matrix(0.055555555555555546,0,0,0.055555555555555546,78.66666666666666,0)" xlink:href="#bc"/><use transform="matrix(0.055555555555555546,0,0,0.055555555555555546,90.83333333333331,0)" xlink:href="#aV"/></g><path fill="#e81313" d="M231 0h-52l-39-155L100 0H48L-1-190h46L77-45c9-52 24-97 36-145h53l37 145 32-145h46" id="bi"/><g id="m"><use transform="matrix(0.055555555555555546,0,0,0.055555555555555546,0,0)" xlink:href="#bi"/><use transform="matrix(0.055555555555555546,0,0,0.055555555555555546,15.555555555555554,0)" xlink:href="#aW"/><use transform="matrix(0.055555555555555546,0,0,0.055555555555555546,21.111111111111107,0)" xlink:href="#aX"/><use transform="matrix(0.055555555555555546,0,0,0.055555555555555546,27.722222222222218,0)" xlink:href="#be"/></g><g id="n"><use transform="matrix(0.055555555555555546,0,0,0.055555555555555546,0,0)" xlink:href="#aX"/><use transform="matrix(0.055555555555555546,0,0,0.055555555555555546,6.61111111111111,0)" xlink:href="#be"/><use transform="matrix(0.055555555555555546,0,0,0.055555555555555546,18.777777777777775,0)" xlink:href="#aR"/></g><path fill="#e81313" d="M220-157c-53 9-28 100-34 157h-49v-107c1-27-5-49-29-50C55-147 81-57 75 0H25l-1-190h47c2 12-1 28 3 38 10-53 101-56 108 0 13-22 24-43 59-42 82 1 51 116 57 194h-49v-107c-1-25-5-48-29-50" id="bj"/><g id="o"><use transform="matrix(0.055555555555555546,0,0,0.055555555555555546,0,0)" xlink:href="#aU"/><use transform="matrix(0.055555555555555546,0,0,0.055555555555555546,11.111111111111109,0)" xlink:href="#bb"/><use transform="matrix(0.055555555555555546,0,0,0.055555555555555546,23.27777777777777,0)" xlink:href="#bj"/><use transform="matrix(0.055555555555555546,0,0,0.055555555555555546,41.05555555555554,0)" xlink:href="#bh"/><use transform="matrix(0.055555555555555546,0,0,0.055555555555555546,53.22222222222221,0)" xlink:href="#aQ"/><use transform="matrix(0.055555555555555546,0,0,0.055555555555555546,60.999999999999986,0)" xlink:href="#bb"/><use transform="matrix(0.055555555555555546,0,0,0.055555555555555546,73.16666666666666,0)" xlink:href="#bj"/><use transform="matrix(0.055555555555555546,0,0,0.055555555555555546,90.94444444444443,0)" xlink:href="#aW"/><use transform="matrix(0.055555555555555546,0,0,0.055555555555555546,96.49999999999999,0)" xlink:href="#aV"/><use transform="matrix(0.055555555555555546,0,0,0.055555555555555546,107.6111111111111,0)" xlink:href="#aR"/><use transform="matrix(0.055555555555555546,0,0,0.055555555555555546,118.72222222222223,0)" xlink:href="#aS"/></g><g id="p"><use transform="matrix(0.055555555555555546,0,0,0.055555555555555546,0,0)" xlink:href="#aU"/><use transform="matrix(0.055555555555555546,0,0,0.055555555555555546,11.111111111111109,0)" xlink:href="#be"/><use transform="matrix(0.055555555555555546,0,0,0.055555555555555546,23.27777777777777,0)" xlink:href="#aW"/><use transform="matrix(0.055555555555555546,0,0,0.055555555555555546,28.83333333333333,0)" xlink:href="#bd"/><use transform="matrix(0.055555555555555546,0,0,0.055555555555555546,34.38888888888888,0)" xlink:href="#aS"/></g><g id="q"><use transform="matrix(0.055555555555555546,0,0,0.055555555555555546,0,0)" xlink:href="#be"/><use transform="matrix(0.055555555555555546,0,0,0.055555555555555546,12.166666666666664,0)" xlink:href="#bb"/><use transform="matrix(0.055555555555555546,0,0,0.055555555555555546,24.33333333333333,0)" xlink:href="#aX"/><use transform="matrix(0.055555555555555546,0,0,0.055555555555555546,30.94444444444444,0)" xlink:href="#aZ"/><use transform="matrix(0.055555555555555546,0,0,0.055555555555555546,42.05555555555555,0)" xlink:href="#aR"/><use transform="matrix(0.055555555555555546,0,0,0.055555555555555546,53.16666666666666,0)" xlink:href="#aY"/></g><g id="r"><use transform="matrix(0.055555555555555546,0,0,0.055555555555555546,0,0)" xlink:href="#bg"/><use transform="matrix(0.055555555555555546,0,0,0.055555555555555546,11.111111111111109,0)" xlink:href="#aQ"/><use transform="matrix(0.055555555555555546,0,0,0.055555555555555546,18.888888888888886,0)" xlink:href="#aR"/></g><g id="s"><use transform="matrix(0.055555555555555546,0,0,0.055555555555555546,0,0)" xlink:href="#bg"/><use transform="matrix(0.055555555555555546,0,0,0.055555555555555546,11.111111111111109,0)" xlink:href="#aX"/></g><g id="t"><use transform="matrix(0.055555555555555546,0,0,0.055555555555555546,0,0)" xlink:href="#aQ"/><use transform="matrix(0.055555555555555546,0,0,0.055555555555555546,7.777777777777777,0)" xlink:href="#aW"/><use transform="matrix(0.055555555555555546,0,0,0.055555555555555546,13.333333333333332,0)" xlink:href="#aV"/><use transform="matrix(0.055555555555555546,0,0,0.055555555555555546,24.444444444444443,0)" xlink:href="#aZ"/></g><path fill="#3a414a" d="M135-143c-3-34-86-38-87 0 15 53 115 12 119 90S17 21 10-45l28-5c4 36 97 45 98 0-10-56-113-15-118-90-4-57 82-63 122-42 12 7 21 19 24 35" id="bk"/><path fill="#3a414a" d="M84 4C-5 8 30-112 23-190h32v120c0 31 7 50 39 49 72-2 45-101 50-169h31l1 190h-30c-1-10 1-25-2-33-11 22-28 36-60 37" id="bl"/><path fill="#3a414a" d="M115-194c53 0 69 39 70 98 0 66-23 100-70 100C84 3 66-7 56-30L54 0H23l1-261h32v101c10-23 28-34 59-34zm-8 174c40 0 45-34 45-75 0-40-5-75-45-74-42 0-51 32-51 76 0 43 10 73 51 73" id="bm"/><path fill="#3a414a" d="M117-194c89-4 53 116 60 194h-32v-121c0-31-8-49-39-48C34-167 62-67 57 0H25l-1-190h30c1 10-1 24 2 32 11-22 29-35 61-36" id="bn"/><path fill="#3a414a" d="M100-194c63 0 86 42 84 106H49c0 40 14 67 53 68 26 1 43-12 49-29l28 8c-11 28-37 45-77 45C44 4 14-33 15-96c1-61 26-98 85-98zm52 81c6-60-76-77-97-28-3 7-6 17-6 28h103" id="bo"/><path fill="#3a414a" d="M59-47c-2 24 18 29 38 22v24C64 9 27 4 27-40v-127H5v-23h24l9-43h21v43h35v23H59v120" id="bp"/><g id="u"><use transform="matrix(0.06172839506172839,0,0,0.06172839506172839,0,0)" xlink:href="#bk"/><use transform="matrix(0.06172839506172839,0,0,0.06172839506172839,11.11111111111111,0)" xlink:href="#bl"/><use transform="matrix(0.06172839506172839,0,0,0.06172839506172839,23.45679012345679,0)" xlink:href="#bm"/><use transform="matrix(0.06172839506172839,0,0,0.06172839506172839,35.80246913580247,0)" xlink:href="#bn"/><use transform="matrix(0.06172839506172839,0,0,0.06172839506172839,48.148148148148145,0)" xlink:href="#bo"/><use transform="matrix(0.06172839506172839,0,0,0.06172839506172839,60.49382716049382,0)" xlink:href="#bp"/></g><path fill="#3a414a" d="M27 0v-27h64v-190l-56 39v-29l58-41h29v221h61V0H27" id="bq"/><use transform="matrix(0.06172839506172839,0,0,0.06172839506172839,0,0)" xlink:href="#bq" id="v"/><path fill="#3a414a" d="M101-251c82-7 93 87 43 132L82-64C71-53 59-42 53-27h129V0H18c2-99 128-94 128-182 0-28-16-43-45-43s-46 15-49 41l-32-3c6-41 34-60 81-64" id="br"/><use transform="matrix(0.06172839506172839,0,0,0.06172839506172839,0,0)" xlink:href="#br" id="w"/><path fill="#3a414a" d="M134-131c28 9 52 24 51 62-1 50-34 73-85 73S17-19 16-69c0-36 21-54 49-61-75-25-45-126 34-121 46 3 78 18 79 63 0 33-17 51-44 57zm-34-11c31 1 46-15 46-44 0-28-17-43-47-42-29 0-46 13-45 42 1 28 16 44 46 44zm1 122c35 0 51-18 51-52 0-30-18-46-53-46-33 0-51 17-51 47 0 34 19 51 53 51" id="bs"/><use transform="matrix(0.06172839506172839,0,0,0.06172839506172839,0,0)" xlink:href="#bs" id="x"/><path fill="#3a414a" d="M126-127c33 6 58 20 58 59 0 88-139 92-164 29-3-8-5-16-6-25l32-3c6 27 21 44 54 44 32 0 52-15 52-46 0-38-36-46-79-43v-28c39 1 72-4 72-42 0-27-17-43-46-43-28 0-47 15-49 41l-32-3c6-42 35-63 81-64 48-1 79 21 79 65 0 36-21 52-52 59" id="bt"/><g id="y"><use transform="matrix(0.06172839506172839,0,0,0.06172839506172839,0,0)" xlink:href="#bt"/><use transform="matrix(0.06172839506172839,0,0,0.06172839506172839,12.345679012345679,0)" xlink:href="#br"/></g><path fill="#3a414a" d="M8 0l10-54h51L59 0H8" id="bu"/><use transform="matrix(0.07407407407407404,0,0,0.07407407407407404,0,0)" xlink:href="#bu" id="z"/><use transform="matrix(0.07407407407407404,0,0,0.07407407407407404,0,0)" xlink:href="#bu" id="A"/><use transform="matrix(0.07407407407407404,0,0,0.07407407407407404,0,0)" xlink:href="#bu" id="B"/><path fill="#3a414a" d="M100-194c62-1 85 37 85 99 1 63-27 99-86 99S16-35 15-95c0-66 28-99 85-99zM99-20c44 1 53-31 53-75 0-43-8-75-51-75s-53 32-53 75 10 74 51 75" id="bv"/><path fill="#3a414a" d="M106-169C34-169 62-67 57 0H25v-261h32l-1 103c12-21 28-36 61-36 89 0 53 116 60 194h-32v-121c2-32-8-49-39-48" id="bw"/><path fill="#3a414a" d="M114-163C36-179 61-72 57 0H25l-1-190h30c1 12-1 29 2 39 6-27 23-49 58-41v29" id="bx"/><g id="C"><use transform="matrix(0.055555555555555546,0,0,0.055555555555555546,0,0)" xlink:href="#bv"/><use transform="matrix(0.055555555555555546,0,0,0.055555555555555546,11.111111111111109,0)" xlink:href="#bp"/><use transform="matrix(0.055555555555555546,0,0,0.055555555555555546,16.666666666666664,0)" xlink:href="#bw"/><use transform="matrix(0.055555555555555546,0,0,0.055555555555555546,27.77777777777777,0)" xlink:href="#bo"/><use transform="matrix(0.055555555555555546,0,0,0.055555555555555546,38.88888888888888,0)" xlink:href="#bx"/></g><g id="D"><use transform="matrix(0.055555555555555546,0,0,0.055555555555555546,0,0)" xlink:href="#bk"/><use transform="matrix(0.055555555555555546,0,0,0.055555555555555546,9.999999999999998,0)" xlink:href="#bl"/><use transform="matrix(0.055555555555555546,0,0,0.055555555555555546,21.111111111111107,0)" xlink:href="#bm"/><use transform="matrix(0.055555555555555546,0,0,0.055555555555555546,32.222222222222214,0)" xlink:href="#bn"/><use transform="matrix(0.055555555555555546,0,0,0.055555555555555546,43.33333333333332,0)" xlink:href="#bo"/><use transform="matrix(0.055555555555555546,0,0,0.055555555555555546,54.44444444444443,0)" xlink:href="#bp"/></g><path fill="#3a414a" d="M108 0H70L1-190h34L89-25l56-165h34" id="by"/><path fill="#3a414a" d="M141-36C126-15 110 5 73 4 37 3 15-17 15-53c-1-64 63-63 125-63 3-35-9-54-41-54-24 1-41 7-42 31l-33-3c5-37 33-52 76-52 45 0 72 20 72 64v82c-1 20 7 32 28 27v20c-31 9-61-2-59-35zM48-53c0 20 12 33 32 33 41-3 63-29 60-74-43 2-92-5-92 41" id="bz"/><path fill="#3a414a" d="M24 0v-261h32V0H24" id="bA"/><path fill="#3a414a" d="M24-231v-30h32v30H24zM24 0v-190h32V0H24" id="bB"/><path fill="#3a414a" d="M85-194c31 0 48 13 60 33l-1-100h32l1 261h-30c-2-10 0-23-3-31C134-8 116 4 85 4 32 4 16-35 15-94c0-66 23-100 70-100zm9 24c-40 0-46 34-46 75 0 40 6 74 45 74 42 0 51-32 51-76 0-42-9-74-50-73" id="bC"/><g id="E"><use transform="matrix(0.055555555555555546,0,0,0.055555555555555546,0,0)" xlink:href="#by"/><use transform="matrix(0.055555555555555546,0,0,0.055555555555555546,9.999999999999998,0)" xlink:href="#bz"/><use transform="matrix(0.055555555555555546,0,0,0.055555555555555546,21.111111111111107,0)" xlink:href="#bA"/><use transform="matrix(0.055555555555555546,0,0,0.055555555555555546,25.499999999999996,0)" xlink:href="#bB"/><use transform="matrix(0.055555555555555546,0,0,0.055555555555555546,29.888888888888882,0)" xlink:href="#bC"/><use transform="matrix(0.055555555555555546,0,0,0.055555555555555546,40.99999999999999,0)" xlink:href="#bz"/><use transform="matrix(0.055555555555555546,0,0,0.055555555555555546,52.1111111111111,0)" xlink:href="#bp"/><use transform="matrix(0.055555555555555546,0,0,0.055555555555555546,57.66666666666666,0)" xlink:href="#bv"/><use transform="matrix(0.055555555555555546,0,0,0.055555555555555546,68.77777777777777,0)" xlink:href="#bx"/></g><path fill="#3a414a" d="M115-194c55 1 70 41 70 98S169 2 115 4C84 4 66-9 55-30l1 105H24l-1-265h31l2 30c10-21 28-34 59-34zm-8 174c40 0 45-34 45-75s-6-73-45-74c-42 0-51 32-51 76 0 43 10 73 51 73" id="bD"/><g id="F"><use transform="matrix(0.055555555555555546,0,0,0.055555555555555546,0,0)" xlink:href="#bD"/><use transform="matrix(0.055555555555555546,0,0,0.055555555555555546,11.111111111111109,0)" xlink:href="#bz"/><use transform="matrix(0.055555555555555546,0,0,0.055555555555555546,22.222222222222218,0)" xlink:href="#bx"/><use transform="matrix(0.055555555555555546,0,0,0.055555555555555546,28.83333333333333,0)" xlink:href="#bo"/><use transform="matrix(0.055555555555555546,0,0,0.055555555555555546,39.944444444444436,0)" xlink:href="#bn"/><use transform="matrix(0.055555555555555546,0,0,0.055555555555555546,51.05555555555554,0)" xlink:href="#bp"/></g><path fill="#3a414a" d="M143 0L79-87 56-68V0H24v-261h32v163l83-92h37l-77 82L181 0h-38" id="bE"/><path fill="#3a414a" d="M179-190L93 31C79 59 56 82 12 73V49c39 6 53-20 64-50L1-190h34L92-34l54-156h33" id="bF"/><g id="G"><use transform="matrix(0.055555555555555546,0,0,0.055555555555555546,0,0)" xlink:href="#bw"/><use transform="matrix(0.055555555555555546,0,0,0.055555555555555546,11.111111111111109,0)" xlink:href="#bv"/><use transform="matrix(0.055555555555555546,0,0,0.055555555555555546,22.222222222222218,0)" xlink:href="#bp"/><use transform="matrix(0.055555555555555546,0,0,0.055555555555555546,27.77777777777777,0)" xlink:href="#bE"/><use transform="matrix(0.055555555555555546,0,0,0.055555555555555546,37.77777777777777,0)" xlink:href="#bo"/><use transform="matrix(0.055555555555555546,0,0,0.055555555555555546,48.88888888888888,0)" xlink:href="#bF"/><use transform="matrix(0.055555555555555546,0,0,0.055555555555555546,58.88888888888888,0)" xlink:href="#bk"/></g><g id="H"><use transform="matrix(0.055555555555555546,0,0,0.055555555555555546,0,0)" xlink:href="#bz"/><use transform="matrix(0.055555555555555546,0,0,0.055555555555555546,11.111111111111109,0)" xlink:href="#bn"/><use transform="matrix(0.055555555555555546,0,0,0.055555555555555546,22.222222222222218,0)" xlink:href="#bC"/></g><path fill="#3a414a" d="M96-169c-40 0-48 33-48 73s9 75 48 75c24 0 41-14 43-38l32 2c-6 37-31 61-74 61-59 0-76-41-82-99-10-93 101-131 147-64 4 7 5 14 7 22l-32 3c-4-21-16-35-41-35" id="bG"/><g id="I"><use transform="matrix(0.055555555555555546,0,0,0.055555555555555546,0,0)" xlink:href="#bG"/><use transform="matrix(0.055555555555555546,0,0,0.055555555555555546,9.999999999999998,0)" xlink:href="#bw"/><use transform="matrix(0.055555555555555546,0,0,0.055555555555555546,21.111111111111107,0)" xlink:href="#bB"/><use transform="matrix(0.055555555555555546,0,0,0.055555555555555546,25.499999999999996,0)" xlink:href="#bA"/><use transform="matrix(0.055555555555555546,0,0,0.055555555555555546,29.888888888888882,0)" xlink:href="#bC"/></g><g id="J"><use transform="matrix(0.055555555555555546,0,0,0.055555555555555546,0,0)" xlink:href="#bw"/><use transform="matrix(0.055555555555555546,0,0,0.055555555555555546,11.111111111111109,0)" xlink:href="#bv"/><use transform="matrix(0.055555555555555546,0,0,0.055555555555555546,22.222222222222218,0)" xlink:href="#bp"/><use transform="matrix(0.055555555555555546,0,0,0.055555555555555546,27.77777777777777,0)" xlink:href="#bE"/><use transform="matrix(0.055555555555555546,0,0,0.055555555555555546,37.77777777777777,0)" xlink:href="#bo"/><use transform="matrix(0.055555555555555546,0,0,0.055555555555555546,48.88888888888888,0)" xlink:href="#bF"/><use transform="matrix(0.055555555555555546,0,0,0.055555555555555546,58.88888888888888,0)" xlink:href="#bk"/></g><path fill="#3a414a" d="M212-179c-10-28-35-45-73-45-59 0-87 40-87 99 0 60 29 101 89 101 43 0 62-24 78-52l27 14C228-24 195 4 139 4 59 4 22-46 18-125c-6-104 99-153 187-111 19 9 31 26 39 46" id="bH"/><g id="K"><use transform="matrix(0.06172839506172839,0,0,0.06172839506172839,0,0)" xlink:href="#bH"/><use transform="matrix(0.06172839506172839,0,0,0.06172839506172839,15.987654320987653,0)" xlink:href="#bw"/><use transform="matrix(0.06172839506172839,0,0,0.06172839506172839,28.333333333333332,0)" xlink:href="#bB"/><use transform="matrix(0.06172839506172839,0,0,0.06172839506172839,33.20987654320987,0)" xlink:href="#bA"/><use transform="matrix(0.06172839506172839,0,0,0.06172839506172839,38.08641975308642,0)" xlink:href="#bC"/></g><g id="L"><use transform="matrix(0.06172839506172839,0,0,0.06172839506172839,0,0)" xlink:href="#bw"/><use transform="matrix(0.06172839506172839,0,0,0.06172839506172839,12.345679012345679,0)" xlink:href="#bv"/><use transform="matrix(0.06172839506172839,0,0,0.06172839506172839,24.691358024691358,0)" xlink:href="#bp"/><use transform="matrix(0.06172839506172839,0,0,0.06172839506172839,30.864197530864196,0)" xlink:href="#bE"/><use transform="matrix(0.06172839506172839,0,0,0.06172839506172839,41.9753086419753,0)" xlink:href="#bo"/><use transform="matrix(0.06172839506172839,0,0,0.06172839506172839,54.32098765432098,0)" xlink:href="#bF"/></g><g id="M"><use transform="matrix(0.055555555555555546,0,0,0.055555555555555546,0,0)" xlink:href="#bz"/><use transform="matrix(0.055555555555555546,0,0,0.055555555555555546,11.111111111111109,0)" xlink:href="#bn"/><use transform="matrix(0.055555555555555546,0,0,0.055555555555555546,22.222222222222218,0)" xlink:href="#bv"/><use transform="matrix(0.055555555555555546,0,0,0.055555555555555546,33.33333333333333,0)" xlink:href="#bp"/><use transform="matrix(0.055555555555555546,0,0,0.055555555555555546,38.888888888888886,0)" xlink:href="#bw"/><use transform="matrix(0.055555555555555546,0,0,0.055555555555555546,49.99999999999999,0)" xlink:href="#bo"/><use transform="matrix(0.055555555555555546,0,0,0.055555555555555546,61.1111111111111,0)" xlink:href="#bx"/></g><path fill="#3a414a" d="M47-170H22l-4-78h33" id="bI"/><g id="N"><use transform="matrix(0.055555555555555546,0,0,0.055555555555555546,0,0)" xlink:href="#by"/><use transform="matrix(0.055555555555555546,0,0,0.055555555555555546,9.999999999999998,0)" xlink:href="#bz"/><use transform="matrix(0.055555555555555546,0,0,0.055555555555555546,21.111111111111107,0)" xlink:href="#bA"/><use transform="matrix(0.055555555555555546,0,0,0.055555555555555546,25.499999999999996,0)" xlink:href="#bB"/><use transform="matrix(0.055555555555555546,0,0,0.055555555555555546,29.888888888888882,0)" xlink:href="#bC"/><use transform="matrix(0.055555555555555546,0,0,0.055555555555555546,40.99999999999999,0)" xlink:href="#bz"/><use transform="matrix(0.055555555555555546,0,0,0.055555555555555546,52.1111111111111,0)" xlink:href="#bp"/><use transform="matrix(0.055555555555555546,0,0,0.055555555555555546,57.66666666666666,0)" xlink:href="#bv"/><use transform="matrix(0.055555555555555546,0,0,0.055555555555555546,68.77777777777777,0)" xlink:href="#bx"/><use transform="matrix(0.055555555555555546,0,0,0.055555555555555546,75.38888888888889,0)" xlink:href="#bI"/><use transform="matrix(0.055555555555555546,0,0,0.055555555555555546,79.16666666666666,0)" xlink:href="#bk"/></g><g id="O"><use transform="matrix(0.055555555555555546,0,0,0.055555555555555546,0,0)" xlink:href="#bw"/><use transform="matrix(0.055555555555555546,0,0,0.055555555555555546,11.111111111111109,0)" xlink:href="#bv"/><use transform="matrix(0.055555555555555546,0,0,0.055555555555555546,22.222222222222218,0)" xlink:href="#bp"/><use transform="matrix(0.055555555555555546,0,0,0.055555555555555546,27.77777777777777,0)" xlink:href="#bE"/><use transform="matrix(0.055555555555555546,0,0,0.055555555555555546,37.77777777777777,0)" xlink:href="#bo"/><use transform="matrix(0.055555555555555546,0,0,0.055555555555555546,48.88888888888888,0)" xlink:href="#bF"/></g><path fill="#3a414a" d="M101-251c68 0 85 55 85 127S166 4 100 4C33 4 14-52 14-124c0-73 17-127 87-127zm-1 229c47 0 54-49 54-102s-4-102-53-102c-51 0-55 48-55 102 0 53 5 102 54 102" id="bJ"/><path fill="#3a414a" d="M33 0v-38h34V0H33" id="bK"/><g id="P"><use transform="matrix(0.055555555555555546,0,0,0.055555555555555546,0,0)" xlink:href="#bJ"/><use transform="matrix(0.055555555555555546,0,0,0.055555555555555546,11.111111111111109,0)" xlink:href="#bK"/><use transform="matrix(0.055555555555555546,0,0,0.055555555555555546,16.666666666666664,0)" xlink:href="#bt"/></g><path fill="#3a414a" d="M54-142c48-35 137-8 131 61C196 18 31 33 14-55l32-4c7 23 22 37 52 37 35-1 51-22 54-58 4-55-73-65-99-34H22l8-134h141v27H59" id="bL"/><g id="Q"><use transform="matrix(0.055555555555555546,0,0,0.055555555555555546,0,0)" xlink:href="#bJ"/><use transform="matrix(0.055555555555555546,0,0,0.055555555555555546,11.111111111111109,0)" xlink:href="#bK"/><use transform="matrix(0.055555555555555546,0,0,0.055555555555555546,16.666666666666664,0)" xlink:href="#br"/><use transform="matrix(0.055555555555555546,0,0,0.055555555555555546,27.77777777777777,0)" xlink:href="#bL"/></g><g id="R"><use transform="matrix(0.055555555555555546,0,0,0.055555555555555546,0,0)" xlink:href="#bJ"/><use transform="matrix(0.055555555555555546,0,0,0.055555555555555546,11.111111111111109,0)" xlink:href="#bK"/><use transform="matrix(0.055555555555555546,0,0,0.055555555555555546,16.666666666666664,0)" xlink:href="#bt"/><use transform="matrix(0.055555555555555546,0,0,0.055555555555555546,27.77777777777777,0)" xlink:href="#bL"/></g><g id="S"><use transform="matrix(0.055555555555555546,0,0,0.055555555555555546,0,0)" xlink:href="#bJ"/><use transform="matrix(0.055555555555555546,0,0,0.055555555555555546,11.111111111111109,0)" xlink:href="#bK"/><use transform="matrix(0.055555555555555546,0,0,0.055555555555555546,16.666666666666664,0)" xlink:href="#bq"/></g><path fill="#3a414a" d="M252-156c43 0 55 33 55 80 0 46-13 78-56 78-42 0-55-33-55-78 0-48 12-80 56-80zM93 0H65l162-248h28zM13-171c-1-47 13-79 56-79s55 33 55 79-13 79-55 79c-43 0-56-33-56-79zM251-17c28 0 30-29 30-59 0-31-1-60-29-60-29 0-31 29-31 60 0 29 2 59 30 59zM69-112c27 0 28-30 29-59 0-31-1-60-29-60-29 0-30 30-30 60s2 59 30 59" id="bM"/><use transform="matrix(0.055555555555555546,0,0,0.055555555555555546,0,0)" xlink:href="#bM" id="T"/><g id="U"><use transform="matrix(0.055555555555555546,0,0,0.055555555555555546,0,0)" xlink:href="#bz"/><use transform="matrix(0.055555555555555546,0,0,0.055555555555555546,11.111111111111109,0)" xlink:href="#bA"/><use transform="matrix(0.055555555555555546,0,0,0.055555555555555546,15.499999999999996,0)" xlink:href="#bA"/><use transform="matrix(0.055555555555555546,0,0,0.055555555555555546,19.888888888888886,0)" xlink:href="#bv"/><use transform="matrix(0.055555555555555546,0,0,0.055555555555555546,30.999999999999993,0)" xlink:href="#bG"/><use transform="matrix(0.055555555555555546,0,0,0.055555555555555546,40.99999999999999,0)" xlink:href="#bz"/><use transform="matrix(0.055555555555555546,0,0,0.055555555555555546,52.1111111111111,0)" xlink:href="#bp"/><use transform="matrix(0.055555555555555546,0,0,0.055555555555555546,57.66666666666666,0)" xlink:href="#bB"/><use transform="matrix(0.055555555555555546,0,0,0.055555555555555546,62.05555555555554,0)" xlink:href="#bv"/><use transform="matrix(0.055555555555555546,0,0,0.055555555555555546,73.16666666666666,0)" xlink:href="#bn"/></g><path fill="#3a414a" d="M101-234c-31-9-42 10-38 44h38v23H63V0H32v-167H5v-23h27c-7-52 17-82 69-68v24" id="bN"/><g id="V"><use transform="matrix(0.055555555555555546,0,0,0.055555555555555546,0,0)" xlink:href="#bv"/><use transform="matrix(0.055555555555555546,0,0,0.055555555555555546,11.111111111111109,0)" xlink:href="#bN"/></g><g id="W"><use transform="matrix(0.055555555555555546,0,0,0.055555555555555546,0,0)" xlink:href="#bD"/><use transform="matrix(0.055555555555555546,0,0,0.055555555555555546,11.111111111111109,0)" xlink:href="#bz"/><use transform="matrix(0.055555555555555546,0,0,0.055555555555555546,22.222222222222218,0)" xlink:href="#bx"/><use transform="matrix(0.055555555555555546,0,0,0.055555555555555546,28.83333333333333,0)" xlink:href="#bo"/><use transform="matrix(0.055555555555555546,0,0,0.055555555555555546,39.944444444444436,0)" xlink:href="#bn"/><use transform="matrix(0.055555555555555546,0,0,0.055555555555555546,51.05555555555554,0)" xlink:href="#bp"/></g><g id="X"><use transform="matrix(0.055555555555555546,0,0,0.055555555555555546,0,0)" xlink:href="#bw"/><use transform="matrix(0.055555555555555546,0,0,0.055555555555555546,11.111111111111109,0)" xlink:href="#bv"/><use transform="matrix(0.055555555555555546,0,0,0.055555555555555546,22.222222222222218,0)" xlink:href="#bp"/><use transform="matrix(0.055555555555555546,0,0,0.055555555555555546,27.77777777777777,0)" xlink:href="#bE"/><use transform="matrix(0.055555555555555546,0,0,0.055555555555555546,37.77777777777777,0)" xlink:href="#bo"/><use transform="matrix(0.055555555555555546,0,0,0.055555555555555546,48.88888888888888,0)" xlink:href="#bF"/><use transform="matrix(0.055555555555555546,0,0,0.055555555555555546,58.88888888888888,0)" xlink:href="#bI"/><use transform="matrix(0.055555555555555546,0,0,0.055555555555555546,62.66666666666666,0)" xlink:href="#bk"/></g><g id="Y"><use transform="matrix(0.055555555555555546,0,0,0.055555555555555546,0,0)" xlink:href="#bk"/><use transform="matrix(0.055555555555555546,0,0,0.055555555555555546,9.999999999999998,0)" xlink:href="#bp"/><use transform="matrix(0.055555555555555546,0,0,0.055555555555555546,15.555555555555554,0)" xlink:href="#bz"/><use transform="matrix(0.055555555555555546,0,0,0.055555555555555546,26.666666666666664,0)" xlink:href="#bE"/><use transform="matrix(0.055555555555555546,0,0,0.055555555555555546,36.666666666666664,0)" xlink:href="#bo"/></g><g id="Z"><use transform="matrix(0.055555555555555546,0,0,0.055555555555555546,0,0)" xlink:href="#bp"/><use transform="matrix(0.055555555555555546,0,0,0.055555555555555546,5.5555555555555545,0)" xlink:href="#bv"/></g><g id="aa"><use transform="matrix(0.055555555555555546,0,0,0.055555555555555546,0,0)" xlink:href="#bp"/><use transform="matrix(0.055555555555555546,0,0,0.055555555555555546,5.5555555555555545,0)" xlink:href="#bw"/><use transform="matrix(0.055555555555555546,0,0,0.055555555555555546,16.666666666666664,0)" xlink:href="#bo"/></g><path fill="#3a414a" d="M197 0v-115H63V0H30v-248h33v105h134v-105h34V0h-34" id="bO"/><g id="ab"><use transform="matrix(0.06172839506172839,0,0,0.06172839506172839,0,0)" xlink:href="#bO"/><use transform="matrix(0.06172839506172839,0,0,0.06172839506172839,15.987654320987653,0)" xlink:href="#bv"/><use transform="matrix(0.06172839506172839,0,0,0.06172839506172839,28.333333333333332,0)" xlink:href="#bp"/><use transform="matrix(0.06172839506172839,0,0,0.06172839506172839,34.50617283950617,0)" xlink:href="#bE"/><use transform="matrix(0.06172839506172839,0,0,0.06172839506172839,45.61728395061728,0)" xlink:href="#bo"/><use transform="matrix(0.06172839506172839,0,0,0.06172839506172839,57.962962962962955,0)" xlink:href="#bF"/></g><g id="ac"><use transform="matrix(0.055555555555555546,0,0,0.055555555555555546,0,0)" xlink:href="#bp"/><use transform="matrix(0.055555555555555546,0,0,0.055555555555555546,5.5555555555555545,0)" xlink:href="#bw"/><use transform="matrix(0.055555555555555546,0,0,0.055555555555555546,16.666666666666664,0)" xlink:href="#bB"/><use transform="matrix(0.055555555555555546,0,0,0.055555555555555546,21.055555555555554,0)" xlink:href="#bk"/></g><path fill="#3a414a" d="M177-190C167-65 218 103 67 71c-23-6-38-20-44-43l32-5c15 47 100 32 89-28v-30C133-14 115 1 83 1 29 1 15-40 15-95c0-56 16-97 71-98 29-1 48 16 59 35 1-10 0-23 2-32h30zM94-22c36 0 50-32 50-73 0-42-14-75-50-75-39 0-46 34-46 75s6 73 46 73" id="bP"/><g id="ad"><use transform="matrix(0.055555555555555546,0,0,0.055555555555555546,0,0)" xlink:href="#bC"/><use transform="matrix(0.055555555555555546,0,0,0.055555555555555546,11.111111111111109,0)" xlink:href="#bo"/><use transform="matrix(0.055555555555555546,0,0,0.055555555555555546,22.222222222222218,0)" xlink:href="#bA"/><use transform="matrix(0.055555555555555546,0,0,0.055555555555555546,26.611111111111107,0)" xlink:href="#bo"/><use transform="matrix(0.055555555555555546,0,0,0.055555555555555546,37.722222222222214,0)" xlink:href="#bP"/><use transform="matrix(0.055555555555555546,0,0,0.055555555555555546,48.83333333333332,0)" xlink:href="#bz"/><use transform="matrix(0.055555555555555546,0,0,0.055555555555555546,59.944444444444436,0)" xlink:href="#bp"/><use transform="matrix(0.055555555555555546,0,0,0.055555555555555546,65.49999999999999,0)" xlink:href="#bo"/></g><path fill="#3a414a" d="M30-248c118-7 216 8 213 122C240-48 200 0 122 0H30v-248zM63-27c89 8 146-16 146-99s-60-101-146-95v194" id="bQ"/><g id="ag"><use transform="matrix(0.055555555555555546,0,0,0.055555555555555546,0,0)" xlink:href="#bQ"/><use transform="matrix(0.055555555555555546,0,0,0.055555555555555546,14.388888888888886,0)" xlink:href="#bo"/><use transform="matrix(0.055555555555555546,0,0,0.055555555555555546,25.499999999999993,0)" xlink:href="#bA"/><use transform="matrix(0.055555555555555546,0,0,0.055555555555555546,29.888888888888882,0)" xlink:href="#bo"/><use transform="matrix(0.055555555555555546,0,0,0.055555555555555546,40.99999999999999,0)" xlink:href="#bP"/><use transform="matrix(0.055555555555555546,0,0,0.055555555555555546,52.1111111111111,0)" xlink:href="#bz"/><use transform="matrix(0.055555555555555546,0,0,0.055555555555555546,63.222222222222214,0)" xlink:href="#bp"/><use transform="matrix(0.055555555555555546,0,0,0.055555555555555546,68.77777777777776,0)" xlink:href="#bo"/><use transform="matrix(0.055555555555555546,0,0,0.055555555555555546,79.88888888888887,0)" xlink:href="#bC"/></g><g id="ah"><use transform="matrix(0.055555555555555546,0,0,0.055555555555555546,0,0)" xlink:href="#bk"/><use transform="matrix(0.055555555555555546,0,0,0.055555555555555546,9.999999999999998,0)" xlink:href="#bp"/><use transform="matrix(0.055555555555555546,0,0,0.055555555555555546,15.555555555555554,0)" xlink:href="#bz"/><use transform="matrix(0.055555555555555546,0,0,0.055555555555555546,26.666666666666664,0)" xlink:href="#bE"/><use transform="matrix(0.055555555555555546,0,0,0.055555555555555546,36.666666666666664,0)" xlink:href="#bo"/></g><path fill="#3a414a" d="M210-169c-67 3-38 105-44 169h-31v-121c0-29-5-50-35-48C34-165 62-65 56 0H25l-1-190h30c1 10-1 24 2 32 10-44 99-50 107 0 11-21 27-35 58-36 85-2 47 119 55 194h-31v-121c0-29-5-49-35-48" id="bR"/><g id="ai"><use transform="matrix(0.055555555555555546,0,0,0.055555555555555546,0,0)" xlink:href="#bN"/><use transform="matrix(0.055555555555555546,0,0,0.055555555555555546,5.5555555555555545,0)" xlink:href="#bx"/><use transform="matrix(0.055555555555555546,0,0,0.055555555555555546,12.166666666666664,0)" xlink:href="#bv"/><use transform="matrix(0.055555555555555546,0,0,0.055555555555555546,23.27777777777777,0)" xlink:href="#bR"/></g><g id="aj"><use transform="matrix(0.055555555555555546,0,0,0.055555555555555546,0,0)" xlink:href="#bv"/><use transform="matrix(0.055555555555555546,0,0,0.055555555555555546,11.111111111111109,0)" xlink:href="#bp"/><use transform="matrix(0.055555555555555546,0,0,0.055555555555555546,16.666666666666664,0)" xlink:href="#bw"/><use transform="matrix(0.055555555555555546,0,0,0.055555555555555546,27.77777777777777,0)" xlink:href="#bo"/><use transform="matrix(0.055555555555555546,0,0,0.055555555555555546,38.88888888888888,0)" xlink:href="#bx"/></g><g id="ak"><use transform="matrix(0.055555555555555546,0,0,0.055555555555555546,0,0)" xlink:href="#bG"/><use transform="matrix(0.055555555555555546,0,0,0.055555555555555546,9.999999999999998,0)" xlink:href="#bv"/><use transform="matrix(0.055555555555555546,0,0,0.055555555555555546,21.111111111111107,0)" xlink:href="#bA"/><use transform="matrix(0.055555555555555546,0,0,0.055555555555555546,25.499999999999996,0)" xlink:href="#bC"/><use transform="matrix(0.055555555555555546,0,0,0.055555555555555546,36.61111111111111,0)" xlink:href="#bE"/><use transform="matrix(0.055555555555555546,0,0,0.055555555555555546,46.61111111111111,0)" xlink:href="#bo"/><use transform="matrix(0.055555555555555546,0,0,0.055555555555555546,57.722222222222214,0)" xlink:href="#bF"/><use transform="matrix(0.055555555555555546,0,0,0.055555555555555546,67.72222222222221,0)" xlink:href="#bk"/></g><path fill="#3a414a" d="M118-107v75H92v-75H18v-26h74v-75h26v75h74v26h-74" id="bS"/><use transform="matrix(0.055555555555555546,0,0,0.055555555555555546,0,0)" xlink:href="#bS" id="al"/><g id="am"><use transform="matrix(0.055555555555555546,0,0,0.055555555555555546,0,0)" xlink:href="#by"/><use transform="matrix(0.055555555555555546,0,0,0.055555555555555546,9.999999999999998,0)" xlink:href="#bz"/><use transform="matrix(0.055555555555555546,0,0,0.055555555555555546,21.111111111111107,0)" xlink:href="#bA"/><use transform="matrix(0.055555555555555546,0,0,0.055555555555555546,25.499999999999996,0)" xlink:href="#bB"/><use transform="matrix(0.055555555555555546,0,0,0.055555555555555546,29.888888888888882,0)" xlink:href="#bC"/><use transform="matrix(0.055555555555555546,0,0,0.055555555555555546,40.99999999999999,0)" xlink:href="#bz"/><use transform="matrix(0.055555555555555546,0,0,0.055555555555555546,52.1111111111111,0)" xlink:href="#bp"/><use transform="matrix(0.055555555555555546,0,0,0.055555555555555546,57.66666666666666,0)" xlink:href="#bv"/><use transform="matrix(0.055555555555555546,0,0,0.055555555555555546,68.77777777777777,0)" xlink:href="#bx"/><use transform="matrix(0.055555555555555546,0,0,0.055555555555555546,75.38888888888889,0)" xlink:href="#bI"/><use transform="matrix(0.055555555555555546,0,0,0.055555555555555546,79.16666666666666,0)" xlink:href="#bk"/></g><path fill="#3a414a" d="M206 0h-36l-40-164L89 0H53L-1-190h32L70-26l43-164h34l41 164 42-164h31" id="bT"/><g id="an"><use transform="matrix(0.055555555555555546,0,0,0.055555555555555546,0,0)" xlink:href="#bv"/><use transform="matrix(0.055555555555555546,0,0,0.055555555555555546,11.111111111111109,0)" xlink:href="#bT"/><use transform="matrix(0.055555555555555546,0,0,0.055555555555555546,25.499999999999993,0)" xlink:href="#bn"/></g><g id="ao"><use transform="matrix(0.055555555555555546,0,0,0.055555555555555546,0,0)" xlink:href="#bk"/><use transform="matrix(0.055555555555555546,0,0,0.055555555555555546,9.999999999999998,0)" xlink:href="#bp"/><use transform="matrix(0.055555555555555546,0,0,0.055555555555555546,15.555555555555554,0)" xlink:href="#bz"/><use transform="matrix(0.055555555555555546,0,0,0.055555555555555546,26.666666666666664,0)" xlink:href="#bE"/><use transform="matrix(0.055555555555555546,0,0,0.055555555555555546,36.666666666666664,0)" xlink:href="#bo"/></g><g id="ap"><use transform="matrix(0.055555555555555546,0,0,0.055555555555555546,0,0)" xlink:href="#bN"/><use transform="matrix(0.055555555555555546,0,0,0.055555555555555546,5.5555555555555545,0)" xlink:href="#bx"/><use transform="matrix(0.055555555555555546,0,0,0.055555555555555546,12.166666666666664,0)" xlink:href="#bv"/><use transform="matrix(0.055555555555555546,0,0,0.055555555555555546,23.27777777777777,0)" xlink:href="#bR"/></g><g id="aq"><use transform="matrix(0.055555555555555546,0,0,0.055555555555555546,0,0)" xlink:href="#bG"/><use transform="matrix(0.055555555555555546,0,0,0.055555555555555546,9.999999999999998,0)" xlink:href="#bv"/><use transform="matrix(0.055555555555555546,0,0,0.055555555555555546,21.111111111111107,0)" xlink:href="#bA"/><use transform="matrix(0.055555555555555546,0,0,0.055555555555555546,25.499999999999996,0)" xlink:href="#bC"/><use transform="matrix(0.055555555555555546,0,0,0.055555555555555546,36.61111111111111,0)" xlink:href="#bE"/><use transform="matrix(0.055555555555555546,0,0,0.055555555555555546,46.61111111111111,0)" xlink:href="#bo"/><use transform="matrix(0.055555555555555546,0,0,0.055555555555555546,57.722222222222214,0)" xlink:href="#bF"/></g><g id="ar"><use transform="matrix(0.06172839506172839,0,0,0.06172839506172839,0,0)" xlink:href="#bH"/><use transform="matrix(0.06172839506172839,0,0,0.06172839506172839,15.987654320987653,0)" xlink:href="#bv"/><use transform="matrix(0.06172839506172839,0,0,0.06172839506172839,28.333333333333332,0)" xlink:href="#bA"/><use transform="matrix(0.06172839506172839,0,0,0.06172839506172839,33.20987654320987,0)" xlink:href="#bC"/><use transform="matrix(0.06172839506172839,0,0,0.06172839506172839,45.55555555555555,0)" xlink:href="#bE"/><use transform="matrix(0.06172839506172839,0,0,0.06172839506172839,56.66666666666666,0)" xlink:href="#bo"/><use transform="matrix(0.06172839506172839,0,0,0.06172839506172839,69.01234567901234,0)" xlink:href="#bF"/></g><g id="as"><use transform="matrix(0.055555555555555546,0,0,0.055555555555555546,0,0)" xlink:href="#by"/><use transform="matrix(0.055555555555555546,0,0,0.055555555555555546,9.999999999999998,0)" xlink:href="#bz"/><use transform="matrix(0.055555555555555546,0,0,0.055555555555555546,21.111111111111107,0)" xlink:href="#bA"/><use transform="matrix(0.055555555555555546,0,0,0.055555555555555546,25.499999999999996,0)" xlink:href="#bB"/><use transform="matrix(0.055555555555555546,0,0,0.055555555555555546,29.888888888888882,0)" xlink:href="#bC"/><use transform="matrix(0.055555555555555546,0,0,0.055555555555555546,40.99999999999999,0)" xlink:href="#bz"/><use transform="matrix(0.055555555555555546,0,0,0.055555555555555546,52.1111111111111,0)" xlink:href="#bp"/><use transform="matrix(0.055555555555555546,0,0,0.055555555555555546,57.66666666666666,0)" xlink:href="#bv"/><use transform="matrix(0.055555555555555546,0,0,0.055555555555555546,68.77777777777777,0)" xlink:href="#bx"/><use transform="matrix(0.055555555555555546,0,0,0.055555555555555546,75.38888888888889,0)" xlink:href="#bI"/><use transform="matrix(0.055555555555555546,0,0,0.055555555555555546,79.16666666666666,0)" xlink:href="#bk"/></g><g id="at"><use transform="matrix(0.055555555555555546,0,0,0.055555555555555546,0,0)" xlink:href="#bv"/><use transform="matrix(0.055555555555555546,0,0,0.055555555555555546,11.111111111111109,0)" xlink:href="#bT"/><use transform="matrix(0.055555555555555546,0,0,0.055555555555555546,25.499999999999993,0)" xlink:href="#bn"/></g><g id="au"><use transform="matrix(0.055555555555555546,0,0,0.055555555555555546,0,0)" xlink:href="#bG"/><use transform="matrix(0.055555555555555546,0,0,0.055555555555555546,9.999999999999998,0)" xlink:href="#bv"/><use transform="matrix(0.055555555555555546,0,0,0.055555555555555546,21.111111111111107,0)" xlink:href="#bA"/><use transform="matrix(0.055555555555555546,0,0,0.055555555555555546,25.499999999999996,0)" xlink:href="#bC"/><use transform="matrix(0.055555555555555546,0,0,0.055555555555555546,36.61111111111111,0)" xlink:href="#bE"/><use transform="matrix(0.055555555555555546,0,0,0.055555555555555546,46.61111111111111,0)" xlink:href="#bo"/><use transform="matrix(0.055555555555555546,0,0,0.055555555555555546,57.722222222222214,0)" xlink:href="#bF"/></g><g id="av"><use transform="matrix(0.055555555555555546,0,0,0.055555555555555546,0,0)" xlink:href="#bD"/><use transform="matrix(0.055555555555555546,0,0,0.055555555555555546,11.111111111111109,0)" xlink:href="#bz"/><use transform="matrix(0.055555555555555546,0,0,0.055555555555555546,22.222222222222218,0)" xlink:href="#bx"/><use transform="matrix(0.055555555555555546,0,0,0.055555555555555546,28.83333333333333,0)" xlink:href="#bo"/><use transform="matrix(0.055555555555555546,0,0,0.055555555555555546,39.944444444444436,0)" xlink:href="#bn"/><use transform="matrix(0.055555555555555546,0,0,0.055555555555555546,51.05555555555554,0)" xlink:href="#bp"/></g><g id="aw"><use transform="matrix(0.055555555555555546,0,0,0.055555555555555546,0,0)" xlink:href="#bk"/><use transform="matrix(0.055555555555555546,0,0,0.055555555555555546,9.999999999999998,0)" xlink:href="#bl"/><use transform="matrix(0.055555555555555546,0,0,0.055555555555555546,21.111111111111107,0)" xlink:href="#bm"/><use transform="matrix(0.055555555555555546,0,0,0.055555555555555546,32.222222222222214,0)" xlink:href="#bn"/><use transform="matrix(0.055555555555555546,0,0,0.055555555555555546,43.33333333333332,0)" xlink:href="#bo"/><use transform="matrix(0.055555555555555546,0,0,0.055555555555555546,54.44444444444443,0)" xlink:href="#bp"/></g><g id="ax"><use transform="matrix(0.055555555555555546,0,0,0.055555555555555546,0,0)" xlink:href="#bv"/><use transform="matrix(0.055555555555555546,0,0,0.055555555555555546,11.111111111111109,0)" xlink:href="#bT"/><use transform="matrix(0.055555555555555546,0,0,0.055555555555555546,25.499999999999993,0)" xlink:href="#bn"/><use transform="matrix(0.055555555555555546,0,0,0.055555555555555546,36.6111111111111,0)" xlink:href="#bo"/><use transform="matrix(0.055555555555555546,0,0,0.055555555555555546,47.72222222222221,0)" xlink:href="#bx"/><use transform="matrix(0.055555555555555546,0,0,0.055555555555555546,54.333333333333314,0)" xlink:href="#bI"/><use transform="matrix(0.055555555555555546,0,0,0.055555555555555546,58.111111111111086,0)" xlink:href="#bk"/></g><g id="ay"><use transform="matrix(0.055555555555555546,0,0,0.055555555555555546,0,0)" xlink:href="#bx"/><use transform="matrix(0.055555555555555546,0,0,0.055555555555555546,6.61111111111111,0)" xlink:href="#bo"/><use transform="matrix(0.055555555555555546,0,0,0.055555555555555546,17.722222222222218,0)" xlink:href="#bC"/><use transform="matrix(0.055555555555555546,0,0,0.055555555555555546,28.83333333333333,0)" xlink:href="#bl"/><use transform="matrix(0.055555555555555546,0,0,0.055555555555555546,39.944444444444436,0)" xlink:href="#bG"/><use transform="matrix(0.055555555555555546,0,0,0.055555555555555546,49.944444444444436,0)" xlink:href="#bo"/><use transform="matrix(0.055555555555555546,0,0,0.055555555555555546,61.05555555555554,0)" xlink:href="#bC"/></g><path fill="#3a414a" d="M141 0L90-78 38 0H4l68-98-65-92h35l48 74 47-74h35l-64 92 68 98h-35" id="bU"/><g id="az"><use transform="matrix(0.055555555555555546,0,0,0.055555555555555546,0,0)" xlink:href="#bo"/><use transform="matrix(0.055555555555555546,0,0,0.055555555555555546,11.111111111111109,0)" xlink:href="#bU"/><use transform="matrix(0.055555555555555546,0,0,0.055555555555555546,21.111111111111107,0)" xlink:href="#bD"/><use transform="matrix(0.055555555555555546,0,0,0.055555555555555546,32.222222222222214,0)" xlink:href="#bv"/><use transform="matrix(0.055555555555555546,0,0,0.055555555555555546,43.33333333333332,0)" xlink:href="#bk"/><use transform="matrix(0.055555555555555546,0,0,0.055555555555555546,53.33333333333332,0)" xlink:href="#bl"/><use transform="matrix(0.055555555555555546,0,0,0.055555555555555546,64.44444444444443,0)" xlink:href="#bx"/><use transform="matrix(0.055555555555555546,0,0,0.055555555555555546,71.05555555555554,0)" xlink:href="#bo"/></g></defs></g></svg>