<svg xmlns="http://www.w3.org/2000/svg" xmlns:xlink="http://www.w3.org/1999/xlink" xmlns:lucid="lucid" width="1421" height="766.22"><g transform="translate(-319.5 -289.1)" lucid:page-tab-id="0_0"><path d="M680 568a8 8 0 0 1 8-8h284a8 8 0 0 1 8 8v244a8 8 0 0 1-8 8H688a8 8 0 0 1-8-8z" fill-opacity="0"/><path d="M684 561.1l.37-.23 1.16-.48 1.22-.3 1.25-.1h4.98m5 0h9.95m4.98 0h9.98m4.98 0h9.97m4.98 0h9.97m4.98 0h9.97m4.98 0h9.97m4.98 0h9.96m5 0h9.96m4.98 0h9.97m5 0h9.96m4.98 0h9.96m5 0h9.95m4.98 0h9.97m4.98 0h9.97m4.98 0h9.96m4.97 0h9.97m4.98 0h9.97m4.97 0h9.96m5 0H972l1.25.1 1.22.3 1.16.47.36.22m2.9 2.9l.23.37.48 1.16.3 1.22.1 1.25v5.08m0 5.1v10.15m0 5.1v10.15m0 5.1v10.15m0 5.1v10.15m0 5.1v10.15m0 5.1v10.15m0 5.1v10.15m0 5.1v10.15m0 5.1v10.15m0 5.1v10.15m0 5.1v10.15m0 5.1v10.15m0 5.1v10.15m0 5.1v10.15m0 5.1v10.15m0 5.1V812l-.1 1.25-.3 1.22-.47 1.16-.22.36m-2.9 2.9l-.37.23-1.16.48-1.22.3-1.25.1h-4.98m-5 0h-9.95m-4.98 0h-9.98m-4.98 0h-9.97m-4.98 0h-9.97m-4.98 0h-9.97m-4.98 0h-9.97m-4.98 0h-9.96m-5 0h-9.96m-4.98 0h-9.97m-5 0h-9.96m-4.98 0h-9.96m-5 0h-9.95m-4.98 0h-9.97m-4.98 0h-9.97m-4.98 0h-9.96m-4.97 0h-9.97m-4.98 0h-9.97m-4.97 0h-9.96m-5 0H688l-1.25-.1-1.22-.3-1.16-.47-.36-.22m-2.9-2.9l-.23-.37-.48-1.16-.3-1.22-.1-1.25v-5.08m0-5.1v-10.15m0-5.1v-10.15m0-5.1v-10.15m0-5.1v-10.15m0-5.1v-10.15m0-5.1v-10.15m0-5.1v-10.15m0-5.1v-10.15m0-5.1v-10.15m0-5.1v-10.15m0-5.1v-10.15m0-5.1v-10.15m0-5.1v-10.15m0-5.1v-10.15m0-5.1v-10.15m0-5.1V568l.1-1.25.3-1.22.47-1.16.22-.36" stroke="#333" fill="none"/><path d="M540 325a5 5 0 0 1 5-5h150a5 5 0 0 1 5 5v60a5 5 0 0 1-5 5H545a5 5 0 0 1-5-5z" stroke="#000" stroke-opacity="0" fill="#f2f3f5"/><use xlink:href="#a" transform="matrix(1,0,0,1,545,325) translate(41.33333333333334 21.705555555555552)"/><use xlink:href="#b" transform="matrix(1,0,0,1,545,325) translate(32.69845679012347 48.638888888888886)"/><path d="M1211.63 325a5 5 0 0 1 5-5h150a5 5 0 0 1 5 5v60a5 5 0 0 1-5 5h-150a5 5 0 0 1-5-5z" stroke="#000" stroke-opacity="0" fill="#f2f3f5"/><use xlink:href="#c" transform="matrix(1,0,0,1,1216.6250000000002,325) translate(10.25401234567903 21.705555555555552)"/><use xlink:href="#d" transform="matrix(1,0,0,1,1216.6250000000002,325) translate(83.82191358024691 21.705555555555552)"/><use xlink:href="#e" transform="matrix(1,0,0,1,1216.6250000000002,325) translate(68.76543209876543 48.638888888888886)"/><path d="M948.38 325a5 5 0 0 1 5-5h150a5 5 0 0 1 5 5v60a5 5 0 0 1-5 5h-150a5 5 0 0 1-5-5z" stroke="#000" stroke-opacity="0" fill="#f2f3f5"/><use xlink:href="#c" transform="matrix(1,0,0,1,953.375,325) translate(10.25401234567903 21.705555555555552)"/><use xlink:href="#d" transform="matrix(1,0,0,1,953.375,325) translate(83.82191358024691 21.705555555555552)"/><use xlink:href="#f" transform="matrix(1,0,0,1,953.375,325) translate(68.76543209876543 48.638888888888886)"/><path d="M600 445a5 5 0 0 1 5-5h30a5 5 0 0 1 5 5v50a5 5 0 0 1-5 5h-30a5 5 0 0 1-5-5z" stroke="#000" stroke-opacity="0" fill="#d6d6d6"/><path d="M620 390.5v32.12" stroke="#333" fill="none"/><path d="M620.5 390.5h-1v-.5h1z" stroke="#333" stroke-width=".05" fill="#333"/><path d="M620 437.38l-4.63-14.26h9.26z" stroke="#333" fill="#333"/><path d="M1028.38 390.5v32.12" stroke="#333" fill="none"/><path d="M1028.88 390.5h-1v-.5h1z" stroke="#333" stroke-width=".05" fill="#333"/><path d="M1028.38 437.38l-4.64-14.26h9.27z" stroke="#333" fill="#333"/><path d="M620 500.5v2m0 4v3.98m0 4v3.98m0 4v3.98m0 4v3.98m0 4v4m0 3.98v4m0 3.98v4m0 3.98v4m0 3.98v4m0 3.98v4m0 3.98v4m0 4v3.98m0 4v3.98m0 4v3.98m0 4v3.98m0 4v4m0 3.98v4m0 3.98v4m0 3.98v4m0 3.98v4m0 3.98v4m0 4v3.98m0 4v3.98m0 4v3.98m0 4v3.98m0 4V710m0 4v4m0 3.98v4m0 3.98v4m0 3.98v4m0 3.98v4m0 3.98v4m0 4v3.98m0 4v3.98m0 4v3.98m0 4v3.98m0 4v3.98m0 4v3.98m0 4v4m0 3.98v4m0 3.98v4m0 3.98v4m0 3.98v4m0 4v3.98m0 4v3.98m0 4v3.98m0 4v3.98m0 4v3.98m0 4v4m0 3.98v4m0 3.98v4m0 3.98v4m0 3.98v4m0 3.98v4m0 4v1.98" stroke="#333" fill="none"/><path d="M620.5 500.5h-1v-.5h1z" stroke="#333" stroke-width=".05" fill="#333"/><path d="M620 939.5v.5M1028.13 443.62v2.02m0 4.03v4.03m0 4.03v4.03m0 4.03v4.02m0 4.03v4.03m0 4.03v4.04m0 4.03V494m0 4.03v4.03m0 4.03v4.02m0 4.03v4.03m0 4.03v4.04m0 4.03v4.03m0 4.03v4.03m0 4.03v4.02m0 4.04v4.02m0 4.04v4.03m0 4.03v4.03m0 4.04v4.03m0 4.03v4.03m0 4.03v4.03m0 4.02v4.03m0 4.03v4.03m0 4.04v4.03m0 4.03v4.03m0 4.03v4.03m0 4.02v4.03m0 4.03v4.03m0 4.04v4.03m0 4.03v4.03m0 4.03v4.03m0 4.02v4.04m0 4.02v4.03m0 4.05v4.03m0 4.03v4.04m0 4.03v4.03m0 4.03v4.03m0 4.03v4.02m0 4.03v4.03m0 4.03v4.04m0 4.03V760m0 4.03v4.03m0 4.03v4.02m0 4.03v4.03m0 4.03v4.04m0 4.03v4.03m0 4.03v4.03m0 4.03v4.02m0 4.04v4.02m0 4.03v4.05m0 4.03v4.03m0 4.04v4.03m0 4.03v4.03m0 4.03v4.03m0 4.02v4.03m0 4.03v4.03m0 4.04v4.03m0 4.03v4.03m0 4.03v4.03m0 4.02v4.03m0 4.03v4.03m0 4.04v4.03m0 4.03v4.03m0 4.03v4.03m0 4.02v4.04m0 4.02v2.02M1028.13 443.63v-.5M1028.13 959.5v.5M1291.63 431.83v2m0 4v4m0 4v4m0 4v4m0 3.98v4m0 4v4m0 4v4m0 4v4m0 4v4m0 4v4m0 3.98v4m0 4v4m0 4v4m0 4v4m0 3.98v4m0 4v4m0 4v4m0 4v4m0 3.98v4m0 4v4m0 4v4m0 4v4m0 3.98v4m0 4v4m0 4v4m0 4v4m0 3.98v4m0 4v4m0 4v4m0 4v3.98m0 4v4m0 4v4m0 4v4m0 4v3.98m0 4v4m0 4v4m0 4v4m0 4v3.98m0 4v4m0 4v4m0 4v4m0 4v3.98m0 4v4m0 4v4m0 4v4m0 4v3.98m0 4v4m0 4v4m0 4v4m0 4v3.98m0 4v4m0 4v4m0 4v4m0 4v3.98m0 4v4m0 4v4m0 4v4m0 4v3.98m0 4v4m0 4v4m0 4v4m0 4v3.98m0 4v4m0 4v4m0 4v4m0 4v3.98m0 4v2M1291.63 959.5v.5" stroke="#333" fill="none"/><path d="M1380 325a5 5 0 0 1 5-5h150a5 5 0 0 1 5 5v60a5 5 0 0 1-5 5h-150a5 5 0 0 1-5-5z" stroke="#000" stroke-opacity="0" fill-opacity="0"/><use xlink:href="#g" transform="matrix(1,0,0,1,1385,325) translate(50.15432098765433 36.12222222222221)"/><use xlink:href="#h" transform="matrix(1,0,0,1,1385,325) translate(70.03086419753086 36.12222222222221)"/><use xlink:href="#i" transform="matrix(1,0,0,1,1385,325) translate(89.90740740740739 36.12222222222221)"/><path d="M640.5 460h351.24" stroke="#333" fill="none"/><path d="M640.5 460.5h-.5v-1h.5z" stroke="#333" stroke-width=".05" fill="#333"/><path d="M1006.5 460l-14.26 4.63v-9.26z" stroke="#333" fill="#333"/><path d="M1045.64 460.05a.04.04 0 0 1 .05-.05h209.54" stroke="#333" fill="none"/><path d="M1046.14 460.85l-.5-.3-.5-.2v-.32h1z" stroke="#333" stroke-width=".05" fill="#333"/><path d="M1270 460l-14.26 4.63v-9.26z" stroke="#333" fill="#333"/><path d="M1008.38 465a5 5 0 0 1 5-5h30a5 5 0 0 1 5 5v170a5 5 0 0 1-5 5h-30a5 5 0 0 1-5-5z" stroke="#000" stroke-opacity="0" fill="#d6d6d6"/><path d="M1311.62 462.82h292.5" stroke="#333" fill="none"/><path d="M1311.63 463.32h-.3l-.25-.6-.25-.4h.8z" stroke="#333" stroke-width=".05" fill="#333"/><path d="M1618.9 462.82l-14.28 4.63v-9.27z" stroke="#333" fill="#333"/><path d="M1271.63 465a5 5 0 0 1 5-5h30a5 5 0 0 1 5 5v230a5 5 0 0 1-5 5h-30a5 5 0 0 1-5-5z" stroke="#000" stroke-opacity="0" fill="#d6d6d6"/><path d="M1291.63 390.5v33.12" stroke="#333" fill="none"/><path d="M1292.13 390.5h-1v-.5h1z" stroke="#333" stroke-width=".05" fill="#333"/><path d="M1291.63 438.38l-4.64-14.26h9.26z" stroke="#333" fill="#333"/><path d="M1560 325a5 5 0 0 1 5-5h150a5 5 0 0 1 5 5v60a5 5 0 0 1-5 5h-150a5 5 0 0 1-5-5z" stroke="#000" stroke-opacity="0" fill="#f2f3f5"/><use xlink:href="#c" transform="matrix(1,0,0,1,1565.0000162222182,325) translate(10.25401234567903 21.705555555555552)"/><use xlink:href="#j" transform="matrix(1,0,0,1,1565.0000162222182,325) translate(83.82191358024691 21.705555555555552)"/><use xlink:href="#k" transform="matrix(1,0,0,1,1565.0000162222182,325) translate(66.92623456790123 48.638888888888886)"/><path d="M1640 431.83v2m0 4v4m0 4v4m0 4v4m0 3.98v4m0 4v4m0 4v4m0 4v4m0 4v4m0 4v4m0 3.98v4m0 4v4m0 4v4m0 4v4m0 3.98v4m0 4v4m0 4v4m0 4v4m0 3.98v4m0 4v4m0 4v4m0 4v4m0 3.98v4m0 4v4m0 4v4m0 4v4m0 3.98v4m0 4v4m0 4v4m0 4v3.98m0 4v4m0 4v4m0 4v4m0 4v3.98m0 4v4m0 4v4m0 4v4m0 4v3.98m0 4v4m0 4v4m0 4v4m0 4v3.98m0 4v4m0 4v4m0 4v4m0 4v3.98m0 4v4m0 4v4m0 4v4m0 4v3.98m0 4v4m0 4v4m0 4v4m0 4v3.98m0 4v4m0 4v4m0 4v4m0 4v3.98m0 4v4m0 4v4m0 4v4m0 4v3.98m0 4v4m0 4v4m0 4v4m0 4v3.98m0 4v2M1640 959.5v.5" stroke="#333" fill="none"/><path d="M1620 465a5 5 0 0 1 5-5h30a5 5 0 0 1 5 5v270a5 5 0 0 1-5 5h-30a5 5 0 0 1-5-5z" stroke="#000" stroke-opacity="0" fill="#d6d6d6"/><path d="M1640 390.5v33.12" stroke="#333" fill="none"/><path d="M1640.5 390.5h-1v-.5h1z" stroke="#333" stroke-width=".05" fill="#333"/><path d="M1640 438.38l-4.63-14.26h9.27z" stroke="#333" fill="#333"/><path d="M708.38 385.2a8 8 0 0 1 8-8h224a8 8 0 0 1 8 8V452a8 8 0 0 1-8 8h-224a8 8 0 0 1-8-8z" stroke="#000" stroke-opacity="0" fill="#fff" fill-opacity="0"/><use xlink:href="#l" transform="matrix(1,0,0,1,713.3750000000001,382.20000000000005) translate(0 18.459027777777777)"/><use xlink:href="#m" transform="matrix(1,0,0,1,713.3750000000001,382.20000000000005) translate(85.32654320987652 18.459027777777777)"/><use xlink:href="#n" transform="matrix(1,0,0,1,713.3750000000001,382.20000000000005) translate(177.3376543209876 18.459027777777777)"/><use xlink:href="#o" transform="matrix(1,0,0,1,713.3750000000001,382.20000000000005) translate(0 42.72569444444444)"/><use xlink:href="#p" transform="matrix(1,0,0,1,713.3750000000001,382.20000000000005) translate(56.11666666666665 42.72569444444444)"/><use xlink:href="#q" transform="matrix(1,0,0,1,713.3750000000001,382.20000000000005) translate(131.16358024691354 42.72569444444444)"/><use xlink:href="#r" transform="matrix(1,0,0,1,713.3750000000001,382.20000000000005) translate(0 66.99236111111111)"/><path d="M600 605a5 5 0 0 1 5-5h30a5 5 0 0 1 5 5v150a5 5 0 0 1-5 5h-30a5 5 0 0 1-5-5z" stroke="#000" stroke-opacity="0" fill="#d6d6d6"/><path d="M1007.88 621.33h-351.5" stroke="#333" fill="none"/><path d="M1008.38 621.83h-.52v-1h.5z" stroke="#333" stroke-width=".05" fill="#333"/><path d="M641.62 621.33l14.26-4.63v9.27z" stroke="#333" fill="#333"/><use xlink:href="#s" transform="matrix(1,0,0,1,721.759714627188,593.066664975232) translate(0.0049999999999954525 16.177777777777777)"/><use xlink:href="#t" transform="matrix(1,0,0,1,721.759714627188,593.066664975232) translate(56.009320987654306 16.177777777777777)"/><path d="M1271.13 680h-238c0-2.76-2.24-5-5-5-2.77 0-5 2.24-5 5H656.4" stroke="#333" fill="none"/><path d="M1271.63 680.5h-.52v-1h.53z" stroke="#333" stroke-width=".05" fill="#333"/><path d="M641.62 680l14.26-4.63v9.26z" stroke="#333" fill="#333"/><use xlink:href="#s" transform="matrix(1,0,0,1,749.7913635329699,651.7333389744048) translate(0.0049999999999954525 16.177777777777777)"/><use xlink:href="#t" transform="matrix(1,0,0,1,749.7913635329699,651.7333389744048) translate(56.009320987654306 16.177777777777777)"/><path d="M1619.5 730.67h-322.88c0-2.76-2.23-5-5-5-2.76 0-5 2.24-5 5h-253.5c0-2.76-2.23-5-5-5-2.76 0-5 2.24-5 5H656.4" stroke="#333" fill="none"/><path d="M1620 731.17h-.5v-1h.5z" stroke="#333" stroke-width=".05" fill="#333"/><path d="M641.62 730.67l14.26-4.64v9.27z" stroke="#333" fill="#333"/><use xlink:href="#s" transform="matrix(1,0,0,1,794.4589510561151,702.4000060755733) translate(0.0049999999999954525 16.177777777777777)"/><use xlink:href="#t" transform="matrix(1,0,0,1,794.4589510561151,702.4000060755733) translate(56.009320987654306 16.177777777777777)"/><path d="M600 785a5 5 0 0 1 5-5h30a5 5 0 0 1 5 5v30a5 5 0 0 1-5 5h-30a5 5 0 0 1-5-5zM600 875a5 5 0 0 1 5-5h30a5 5 0 0 1 5 5v40a5 5 0 0 1-5 5h-30a5 5 0 0 1-5-5z" stroke="#000" stroke-opacity="0" fill="#d6d6d6"/><path d="M340 314.6a5 5 0 0 1 5-5h150a5 5 0 0 1 5 5v80.8a5 5 0 0 1-5 5H345a5 5 0 0 1-5-5z" stroke="#000" stroke-opacity="0" fill="#f2f3f5"/><use xlink:href="#u" transform="matrix(1,0,0,1,345,314.6) translate(18.920061728395076 30.611805555555552)"/><use xlink:href="#v" transform="matrix(1,0,0,1,345,314.6) translate(24.624691358024705 57.545138888888886)"/><path d="M420 400.9v21.72" stroke="#333" fill="none"/><path d="M420.5 400.9h-1v-.5h1z" stroke="#333" stroke-width=".05" fill="#333"/><path d="M420 437.38l-4.63-14.26h9.26z" stroke="#333" fill="#333"/><path d="M420 440.5v2m0 4.04v4.02m0 4.02v4.03m0 4.03v4.03m0 4.02v4.03m0 4.03v4.02m0 4.03v4.02m0 4.03v4.02m0 4.02v4.03m0 4.02v4.03m0 4.02V523m0 4.02v4.02m0 4.03v4.02m0 4.02v4.02m0 4.02v4.03m0 4v4.04m0 4.02v4.03m0 4v4.04m0 4.02v4.02m0 4.03v4.03m0 4.03v4.02m0 4.02v4.03m0 4.02v4.03m0 4.02v4.02m0 4.03v4.02m0 4.03v4.02m0 4.03v4.02m0 4.02v4.02m0 4.02v4.03m0 4.02v4m0 4.04v4.02m0 4.03v4m0 4.04v4.02m0 4.03v4m0 4.03v4.03m0 4.02v4.03m0 4.03v4.02m0 4.03v4.02m0 4.03v4.02m0 4.02v4.03m0 4.02v4.03m0 4.02v4.03m0 4.02v4.02m0 4.03v4.02m0 4.02v4.02m0 4.02v4.03m0 4v4.04m0 4.02v4.03m0 4v4.04m0 4.02v4.02m0 4.03v4.03m0 4.03v4.02m0 4.02v4.03m0 4.02v4.03m0 4.02v4.02m0 4.03v4.02m0 4.03v4.02m0 4.03v4.02m0 4.02v4.02m0 4.02v4.03m0 4.02v4m0 4.04v4.02m0 4.03v2M420 440.5v-.5M420 939.5v.5" stroke="#333" fill="none"/><path d="M400 865a5 5 0 0 1 5-5h30a5 5 0 0 1 5 5v50a5 5 0 0 1-5 5h-30a5 5 0 0 1-5-5z" stroke="#000" stroke-opacity="0" fill="#d6d6d6"/><path d="M480 778a8 8 0 0 1 8-8h84a8 8 0 0 1 8 8v44a8 8 0 0 1-8 8h-84a8 8 0 0 1-8-8z" stroke="#000" stroke-opacity="0" fill="#fff" fill-opacity="0"/><g><use xlink:href="#w" transform="matrix(1,0,0,1,485,775) translate(40.62407407407407 17.41111111111111)"/><use xlink:href="#x" transform="matrix(1,0,0,1,485,775) translate(-3.1907407407407504 41.67777777777778)"/></g><path d="M599.5 895H456.38" stroke="#333" fill="none"/><path d="M600 895.5h-.5v-1h.5z" stroke="#333" stroke-width=".05" fill="#333"/><path d="M441.62 895l14.26-4.63v9.26z" stroke="#333" fill="#333"/><path d="M465 908a8 8 0 0 1 8-8h114a8 8 0 0 1 8 8v66.8a8 8 0 0 1-8 8H473a8 8 0 0 1-8-8z" stroke="#000" stroke-opacity="0" fill="#fff" fill-opacity="0"/><g><use xlink:href="#y" transform="matrix(1,0,0,1,470,905) translate(16.698148148148164 27.584027777777777)"/><use xlink:href="#z" transform="matrix(1,0,0,1,470,905) translate(49.27839506172841 27.584027777777777)"/><use xlink:href="#A" transform="matrix(1,0,0,1,470,905) translate(51.58148148148149 51.85069444444444)"/></g><path d="M834.82 337c0 15.15-12.27 27.42-27.4 27.42-15.15 0-27.42-12.27-27.42-27.4 0-15.15 12.27-27.42 27.4-27.42 15.15 0 27.42 12.27 27.42 27.4z" stroke="#3a414a" fill="#f2f3f5"/><g><use xlink:href="#B" transform="matrix(1,0,0,1,785,314.6) translate(16.32716049382716 26.21527777777778)"/></g><path d="M834.82 772.6c0 15.13-12.27 27.4-27.4 27.4-15.15 0-27.42-12.27-27.42-27.4 0-15.15 12.27-27.42 27.4-27.42 15.15 0 27.42 12.27 27.42 27.4z" stroke="#3a414a" fill="#f2f3f5"/><g><use xlink:href="#C" transform="matrix(1,0,0,1,785,750.181818181818) translate(16.32716049382716 26.21527777777778)"/></g><path d="M580 742.6c0 15.13-12.27 27.4-27.4 27.4-15.15 0-27.42-12.27-27.42-27.4 0-15.15 12.27-27.42 27.4-27.42 15.15 0 27.42 12.27 27.42 27.4z" stroke="#3a414a" fill="#f2f3f5"/><g><use xlink:href="#D" transform="matrix(1,0,0,1,530.181818181818,720.181818181818) translate(16.32716049382716 26.21527777777778)"/></g><path d="M580 1007.4c0 15.15-12.27 27.42-27.4 27.42-15.15 0-27.42-12.27-27.42-27.4 0-15.15 12.27-27.42 27.4-27.42 15.15 0 27.42 12.27 27.42 27.4z" stroke="#3a414a" fill="#f2f3f5"/><g><use xlink:href="#E" transform="matrix(1,0,0,1,530.181818181818,985) translate(16.32716049382716 26.21527777777778)"/></g><defs><path fill="#333" d="M135-143c-3-34-86-38-87 0 15 53 115 12 119 90S17 21 10-45l28-5c4 36 97 45 98 0-10-56-113-15-118-90-4-57 82-63 122-42 12 7 21 19 24 35" id="F"/><path fill="#333" d="M84 4C-5 8 30-112 23-190h32v120c0 31 7 50 39 49 72-2 45-101 50-169h31l1 190h-30c-1-10 1-25-2-33-11 22-28 36-60 37" id="G"/><path fill="#333" d="M115-194c53 0 69 39 70 98 0 66-23 100-70 100C84 3 66-7 56-30L54 0H23l1-261h32v101c10-23 28-34 59-34zm-8 174c40 0 45-34 45-75 0-40-5-75-45-74-42 0-51 32-51 76 0 43 10 73 51 73" id="H"/><path fill="#333" d="M117-194c89-4 53 116 60 194h-32v-121c0-31-8-49-39-48C34-167 62-67 57 0H25l-1-190h30c1 10-1 24 2 32 11-22 29-35 61-36" id="I"/><path fill="#333" d="M100-194c63 0 86 42 84 106H49c0 40 14 67 53 68 26 1 43-12 49-29l28 8c-11 28-37 45-77 45C44 4 14-33 15-96c1-61 26-98 85-98zm52 81c6-60-76-77-97-28-3 7-6 17-6 28h103" id="J"/><path fill="#333" d="M59-47c-2 24 18 29 38 22v24C64 9 27 4 27-40v-127H5v-23h24l9-43h21v43h35v23H59v120" id="K"/><g id="a"><use transform="matrix(0.06234567901234567,0,0,0.06234567901234567,0,0)" xlink:href="#F"/><use transform="matrix(0.06234567901234567,0,0,0.06234567901234567,11.22222222222222,0)" xlink:href="#G"/><use transform="matrix(0.06234567901234567,0,0,0.06234567901234567,23.691358024691354,0)" xlink:href="#H"/><use transform="matrix(0.06234567901234567,0,0,0.06234567901234567,36.16049382716049,0)" xlink:href="#I"/><use transform="matrix(0.06234567901234567,0,0,0.06234567901234567,48.62962962962962,0)" xlink:href="#J"/><use transform="matrix(0.06234567901234567,0,0,0.06234567901234567,61.09876543209875,0)" xlink:href="#K"/></g><path fill="#333" d="M108 0H70L1-190h34L89-25l56-165h34" id="L"/><path fill="#333" d="M141-36C126-15 110 5 73 4 37 3 15-17 15-53c-1-64 63-63 125-63 3-35-9-54-41-54-24 1-41 7-42 31l-33-3c5-37 33-52 76-52 45 0 72 20 72 64v82c-1 20 7 32 28 27v20c-31 9-61-2-59-35zM48-53c0 20 12 33 32 33 41-3 63-29 60-74-43 2-92-5-92 41" id="M"/><path fill="#333" d="M24 0v-261h32V0H24" id="N"/><path fill="#333" d="M24-231v-30h32v30H24zM24 0v-190h32V0H24" id="O"/><path fill="#333" d="M85-194c31 0 48 13 60 33l-1-100h32l1 261h-30c-2-10 0-23-3-31C134-8 116 4 85 4 32 4 16-35 15-94c0-66 23-100 70-100zm9 24c-40 0-46 34-46 75 0 40 6 74 45 74 42 0 51-32 51-76 0-42-9-74-50-73" id="P"/><path fill="#333" d="M100-194c62-1 85 37 85 99 1 63-27 99-86 99S16-35 15-95c0-66 28-99 85-99zM99-20c44 1 53-31 53-75 0-43-8-75-51-75s-53 32-53 75 10 74 51 75" id="Q"/><path fill="#333" d="M114-163C36-179 61-72 57 0H25l-1-190h30c1 12-1 29 2 39 6-27 23-49 58-41v29" id="R"/><g id="b"><use transform="matrix(0.06234567901234567,0,0,0.06234567901234567,0,0)" xlink:href="#L"/><use transform="matrix(0.06234567901234567,0,0,0.06234567901234567,11.22222222222222,0)" xlink:href="#M"/><use transform="matrix(0.06234567901234567,0,0,0.06234567901234567,23.691358024691354,0)" xlink:href="#N"/><use transform="matrix(0.06234567901234567,0,0,0.06234567901234567,28.61666666666666,0)" xlink:href="#O"/><use transform="matrix(0.06234567901234567,0,0,0.06234567901234567,33.541975308641966,0)" xlink:href="#P"/><use transform="matrix(0.06234567901234567,0,0,0.06234567901234567,46.0111111111111,0)" xlink:href="#M"/><use transform="matrix(0.06234567901234567,0,0,0.06234567901234567,58.48024691358023,0)" xlink:href="#K"/><use transform="matrix(0.06234567901234567,0,0,0.06234567901234567,64.7148148148148,0)" xlink:href="#Q"/><use transform="matrix(0.06234567901234567,0,0,0.06234567901234567,77.18395061728393,0)" xlink:href="#R"/></g><g id="c"><use transform="matrix(0.06234567901234567,0,0,0.06234567901234567,0,0)" xlink:href="#F"/><use transform="matrix(0.06234567901234567,0,0,0.06234567901234567,11.22222222222222,0)" xlink:href="#G"/><use transform="matrix(0.06234567901234567,0,0,0.06234567901234567,23.691358024691354,0)" xlink:href="#H"/><use transform="matrix(0.06234567901234567,0,0,0.06234567901234567,36.16049382716049,0)" xlink:href="#I"/><use transform="matrix(0.06234567901234567,0,0,0.06234567901234567,48.62962962962962,0)" xlink:href="#J"/><use transform="matrix(0.06234567901234567,0,0,0.06234567901234567,61.09876543209875,0)" xlink:href="#K"/></g><path fill="#333" d="M210-169c-67 3-38 105-44 169h-31v-121c0-29-5-50-35-48C34-165 62-65 56 0H25l-1-190h30c1 10-1 24 2 32 10-44 99-50 107 0 11-21 27-35 58-36 85-2 47 119 55 194h-31v-121c0-29-5-49-35-48" id="S"/><g id="d"><use transform="matrix(0.06234567901234567,0,0,0.06234567901234567,0,0)" xlink:href="#S"/><use transform="matrix(0.06234567901234567,0,0,0.06234567901234567,18.641358024691353,0)" xlink:href="#O"/><use transform="matrix(0.06234567901234567,0,0,0.06234567901234567,23.566666666666663,0)" xlink:href="#I"/><use transform="matrix(0.06234567901234567,0,0,0.06234567901234567,36.035802469135795,0)" xlink:href="#J"/><use transform="matrix(0.06234567901234567,0,0,0.06234567901234567,48.50493827160493,0)" xlink:href="#R"/></g><path fill="#333" d="M123-251c66 0 92 69 53 113C138-94 73-75 39-27h128l-5 27H-2c17-92 123-93 159-163 14-28-1-64-36-62-29 2-46 17-54 41l-30-6c13-36 37-61 86-61" id="T"/><use transform="matrix(0.06234567901234567,0,0,0.06234567901234567,0,0)" xlink:href="#T" id="e"/><path fill="#333" d="M9 0l6-27h63l36-188-63 39 6-31 66-41h29L110-27h60l-5 27H9" id="U"/><use transform="matrix(0.06234567901234567,0,0,0.06234567901234567,0,0)" xlink:href="#U" id="f"/><path fill="#333" d="M33 0v-38h34V0H33" id="V"/><use transform="matrix(0.09938271604938267,0,0,0.09938271604938267,0,0)" xlink:href="#V" id="g"/><use transform="matrix(0.09938271604938267,0,0,0.09938271604938267,0,0)" xlink:href="#V" id="h"/><use transform="matrix(0.09938271604938267,0,0,0.09938271604938267,0,0)" xlink:href="#V" id="i"/><g id="j"><use transform="matrix(0.06234567901234567,0,0,0.06234567901234567,0,0)" xlink:href="#S"/><use transform="matrix(0.06234567901234567,0,0,0.06234567901234567,18.641358024691353,0)" xlink:href="#O"/><use transform="matrix(0.06234567901234567,0,0,0.06234567901234567,23.566666666666663,0)" xlink:href="#I"/><use transform="matrix(0.06234567901234567,0,0,0.06234567901234567,36.035802469135795,0)" xlink:href="#J"/><use transform="matrix(0.06234567901234567,0,0,0.06234567901234567,48.50493827160493,0)" xlink:href="#R"/></g><path fill="#333" d="M173 0L80-213 41 0H11l48-248h37l94 214 40-214h30L212 0h-39" id="W"/><use transform="matrix(0.06234567901234567,0,0,0.06234567901234567,0,0)" xlink:href="#W" id="k"/><path fill="#333" d="M103-194c29 0 47 14 56 36 2-11 5-23 8-32h30L160-5C157 61 82 97 21 62 9 55 4 45 1 30l28-7c7 42 83 31 92-3 4-16 9-38 13-55-13 20-29 36-62 36-40 0-60-25-60-64 0-71 23-131 91-131zm4 24c-53 0-58 54-61 104-2 27 10 44 36 44 49 0 65-50 67-102 1-29-15-46-42-46" id="X"/><path fill="#333" d="M111-194c62-3 86 47 72 106H45c-7 38 6 69 45 68 27-1 43-14 53-32l24 11C152-15 129 4 87 4 38 3 12-23 12-71c0-70 32-119 99-123zm44 81c14-66-71-72-95-28-4 8-8 17-11 28h106" id="Y"/><path fill="#333" d="M67-158c22-48 132-52 116 29L158 0h-32l25-140c3-38-53-32-70-12C52-117 51-52 38 0H6l36-190h30" id="Z"/><path fill="#333" d="M66-151c12-25 30-51 66-40l-6 26C45-176 58-65 38 0H6l36-190h30" id="aa"/><path fill="#333" d="M165-48c-4 18 1 34 23 27l-3 20c-29 8-62 0-52-35h-2C116-14 99 4 63 4 30 4 8-16 8-49c0-68 71-67 138-67 10-26 0-56-31-54-26 1-42 9-47 31l-32-5c8-67 160-71 144 15-5 28-9 54-15 81zM42-50c3 52 80 24 89-6 7-12 7-24 11-38-47 1-103-4-100 44" id="ab"/><path fill="#333" d="M51-54c-9 22 5 41 31 30L79-1C43 14 10-4 19-52l22-115H19l5-23h22l19-43h21l-9 43h35l-4 23H73" id="ac"/><g id="l"><use transform="matrix(0.056172839506172835,0,0,0.056172839506172835,0,0)" xlink:href="#X"/><use transform="matrix(0.056172839506172835,0,0,0.056172839506172835,11.234567901234566,0)" xlink:href="#Y"/><use transform="matrix(0.056172839506172835,0,0,0.056172839506172835,22.469135802469133,0)" xlink:href="#Z"/><use transform="matrix(0.056172839506172835,0,0,0.056172839506172835,33.703703703703695,0)" xlink:href="#Y"/><use transform="matrix(0.056172839506172835,0,0,0.056172839506172835,44.938271604938265,0)" xlink:href="#aa"/><use transform="matrix(0.056172839506172835,0,0,0.056172839506172835,51.62283950617283,0)" xlink:href="#ab"/><use transform="matrix(0.056172839506172835,0,0,0.056172839506172835,62.857407407407386,0)" xlink:href="#ac"/><use transform="matrix(0.056172839506172835,0,0,0.056172839506172835,68.47469135802467,0)" xlink:href="#Y"/></g><path fill="#333" d="M44-68c0 29 11 47 38 47 30 0 42-19 51-41l28 9C148-21 126 4 82 4 31 4 10-29 12-85c3-77 74-140 146-93 12 8 15 23 18 40l-31 5c-1-22-13-36-36-36-52 0-65 49-65 101" id="ad"/><path fill="#333" d="M67-158c15-20 31-36 64-36 94 0 33 127 27 194h-32l25-140c3-38-53-32-70-12C52-117 51-51 37 0H6l51-261h31" id="ae"/><path fill="#333" d="M6 0l50-261h32L37 0H6" id="af"/><g id="m"><use transform="matrix(0.056172839506172835,0,0,0.056172839506172835,0,0)" xlink:href="#ad"/><use transform="matrix(0.056172839506172835,0,0,0.056172839506172835,10.11111111111111,0)" xlink:href="#ae"/><use transform="matrix(0.056172839506172835,0,0,0.056172839506172835,21.345679012345677,0)" xlink:href="#ab"/><use transform="matrix(0.056172839506172835,0,0,0.056172839506172835,32.58024691358024,0)" xlink:href="#af"/><use transform="matrix(0.056172839506172835,0,0,0.056172839506172835,37.017901234567894,0)" xlink:href="#af"/><use transform="matrix(0.056172839506172835,0,0,0.056172839506172835,41.45555555555555,0)" xlink:href="#Y"/><use transform="matrix(0.056172839506172835,0,0,0.056172839506172835,52.69012345679012,0)" xlink:href="#Z"/><use transform="matrix(0.056172839506172835,0,0,0.056172839506172835,63.92469135802469,0)" xlink:href="#X"/><use transform="matrix(0.056172839506172835,0,0,0.056172839506172835,75.15925925925926,0)" xlink:href="#Y"/></g><path fill="#333" d="M133-28C103 26-5 8 13-77c13-62 24-115 90-117 29-1 46 15 56 35l19-102h32L160 0h-30zM45-64c-2 27 10 43 35 43 54-1 69-50 69-103 0-29-15-46-42-46-53-1-58 58-62 106" id="ag"/><g id="n"><use transform="matrix(0.056172839506172835,0,0,0.056172839506172835,0,0)" xlink:href="#ab"/><use transform="matrix(0.056172839506172835,0,0,0.056172839506172835,11.234567901234566,0)" xlink:href="#Z"/><use transform="matrix(0.056172839506172835,0,0,0.056172839506172835,22.469135802469133,0)" xlink:href="#ag"/></g><path fill="#333" d="M133-28C103 26-5 8 13-77c13-62 24-115 90-117 29-1 46 15 56 35 2-12 6-24 8-34h31L144 75h-31zM45-64c-2 27 10 43 35 43 54-1 69-50 69-103 0-29-15-46-42-46-53-1-58 58-62 106" id="ah"/><path fill="#333" d="M67 3c-93-2-31-127-26-193h32L48-50c-3 39 53 32 70 12 30-34 30-101 43-152h32L157 0h-30c1-10 6-24 4-33-14 20-29 37-64 36" id="ai"/><path fill="#333" d="M198-190L69 30C53 58 25 83-20 72c4-11-1-27 19-22 33-1 43-29 59-52L20-190h32L79-34l84-156h35" id="aj"/><g id="o"><use transform="matrix(0.056172839506172835,0,0,0.056172839506172835,0,0)" xlink:href="#ah"/><use transform="matrix(0.056172839506172835,0,0,0.056172839506172835,11.234567901234566,0)" xlink:href="#ai"/><use transform="matrix(0.056172839506172835,0,0,0.056172839506172835,22.469135802469133,0)" xlink:href="#Y"/><use transform="matrix(0.056172839506172835,0,0,0.056172839506172835,33.703703703703695,0)" xlink:href="#aa"/><use transform="matrix(0.056172839506172835,0,0,0.056172839506172835,40.38827160493826,0)" xlink:href="#aj"/></g><path fill="#333" d="M248-111c6-24 9-61-24-58-72 9-57 108-77 169h-31l26-142c3-37-50-30-64-10C52-115 50-51 37 0H6l36-190h30c-1 10-6 24-4 32 13-43 101-52 105 5 13-22 29-41 61-41 90 0 28 129 23 194h-31" id="ak"/><path fill="#333" d="M50-231l6-30h32l-6 30H50zM6 0l37-190h31L37 0H6" id="al"/><path fill="#333" d="M67-162c32-53 139-36 121 50C175-51 163 2 97 4 68 4 52-11 42-31 38 6 28 39 22 75H-9l50-265h29c-1 10 0 20-3 28zm89 36c0-26-10-43-35-43-54 0-67 50-69 103-1 29 14 45 42 46 53 0 62-58 62-106" id="am"/><g id="p"><use transform="matrix(0.056172839506172835,0,0,0.056172839506172835,0,0)" xlink:href="#ak"/><use transform="matrix(0.056172839506172835,0,0,0.056172839506172835,16.795679012345676,0)" xlink:href="#ai"/><use transform="matrix(0.056172839506172835,0,0,0.056172839506172835,28.030246913580243,0)" xlink:href="#af"/><use transform="matrix(0.056172839506172835,0,0,0.056172839506172835,32.4679012345679,0)" xlink:href="#ac"/><use transform="matrix(0.056172839506172835,0,0,0.056172839506172835,38.08518518518518,0)" xlink:href="#al"/><use transform="matrix(0.056172839506172835,0,0,0.056172839506172835,42.522839506172836,0)" xlink:href="#am"/><use transform="matrix(0.056172839506172835,0,0,0.056172839506172835,53.7574074074074,0)" xlink:href="#af"/><use transform="matrix(0.056172839506172835,0,0,0.056172839506172835,58.19506172839505,0)" xlink:href="#Y"/></g><path fill="#333" d="M55-144c13 50 104 24 104 88C159 21 15 23 1-39l26-10c6 40 102 42 102-4-13-50-104-23-104-87 0-71 143-71 148-8l-29 4c-5-35-85-37-89 0" id="an"/><g id="q"><use transform="matrix(0.056172839506172835,0,0,0.056172839506172835,0,0)" xlink:href="#ak"/><use transform="matrix(0.056172839506172835,0,0,0.056172839506172835,16.795679012345676,0)" xlink:href="#al"/><use transform="matrix(0.056172839506172835,0,0,0.056172839506172835,21.23333333333333,0)" xlink:href="#Z"/><use transform="matrix(0.056172839506172835,0,0,0.056172839506172835,32.4679012345679,0)" xlink:href="#Y"/><use transform="matrix(0.056172839506172835,0,0,0.056172839506172835,43.70246913580246,0)" xlink:href="#aa"/><use transform="matrix(0.056172839506172835,0,0,0.056172839506172835,50.387037037037025,0)" xlink:href="#an"/></g><path fill="#333" d="M30-147c31-64 166-65 159 27C183-49 158 1 86 4 9 8 1-88 30-147zM88-20c53 0 68-48 68-100 0-31-11-51-44-50-52 1-68 46-68 97 0 32 13 53 44 53" id="ao"/><g id="r"><use transform="matrix(0.056172839506172835,0,0,0.056172839506172835,0,0)" xlink:href="#an"/><use transform="matrix(0.056172839506172835,0,0,0.056172839506172835,10.11111111111111,0)" xlink:href="#al"/><use transform="matrix(0.056172839506172835,0,0,0.056172839506172835,14.548765432098763,0)" xlink:href="#ak"/><use transform="matrix(0.056172839506172835,0,0,0.056172839506172835,31.34444444444444,0)" xlink:href="#ai"/><use transform="matrix(0.056172839506172835,0,0,0.056172839506172835,42.579012345679004,0)" xlink:href="#af"/><use transform="matrix(0.056172839506172835,0,0,0.056172839506172835,47.01666666666666,0)" xlink:href="#ac"/><use transform="matrix(0.056172839506172835,0,0,0.056172839506172835,52.63395061728394,0)" xlink:href="#ab"/><use transform="matrix(0.056172839506172835,0,0,0.056172839506172835,63.86851851851851,0)" xlink:href="#Z"/><use transform="matrix(0.056172839506172835,0,0,0.056172839506172835,75.10308641975308,0)" xlink:href="#Y"/><use transform="matrix(0.056172839506172835,0,0,0.056172839506172835,86.33765432098765,0)" xlink:href="#ao"/><use transform="matrix(0.056172839506172835,0,0,0.056172839506172835,97.57222222222222,0)" xlink:href="#ai"/><use transform="matrix(0.056172839506172835,0,0,0.056172839506172835,108.80679012345679,0)" xlink:href="#an"/><use transform="matrix(0.056172839506172835,0,0,0.056172839506172835,118.91790123456792,0)" xlink:href="#af"/><use transform="matrix(0.056172839506172835,0,0,0.056172839506172835,123.35555555555554,0)" xlink:href="#aj"/></g><g id="s"><use transform="matrix(0.056172839506172835,0,0,0.056172839506172835,0,0)" xlink:href="#ak"/><use transform="matrix(0.056172839506172835,0,0,0.056172839506172835,16.795679012345676,0)" xlink:href="#al"/><use transform="matrix(0.056172839506172835,0,0,0.056172839506172835,21.23333333333333,0)" xlink:href="#Z"/><use transform="matrix(0.056172839506172835,0,0,0.056172839506172835,32.4679012345679,0)" xlink:href="#Y"/><use transform="matrix(0.056172839506172835,0,0,0.056172839506172835,43.70246913580246,0)" xlink:href="#aa"/></g><g id="t"><use transform="matrix(0.056172839506172835,0,0,0.056172839506172835,0,0)" xlink:href="#aa"/><use transform="matrix(0.056172839506172835,0,0,0.056172839506172835,6.684567901234567,0)" xlink:href="#Y"/><use transform="matrix(0.056172839506172835,0,0,0.056172839506172835,17.919135802469135,0)" xlink:href="#an"/><use transform="matrix(0.056172839506172835,0,0,0.056172839506172835,28.030246913580246,0)" xlink:href="#am"/><use transform="matrix(0.056172839506172835,0,0,0.056172839506172835,39.26481481481481,0)" xlink:href="#ao"/><use transform="matrix(0.056172839506172835,0,0,0.056172839506172835,50.49938271604938,0)" xlink:href="#Z"/><use transform="matrix(0.056172839506172835,0,0,0.056172839506172835,61.73395061728396,0)" xlink:href="#an"/><use transform="matrix(0.056172839506172835,0,0,0.056172839506172835,71.84506172839507,0)" xlink:href="#Y"/></g><path fill="#333" d="M212-179c-10-28-35-45-73-45-59 0-87 40-87 99 0 60 29 101 89 101 43 0 62-24 78-52l27 14C228-24 195 4 139 4 59 4 22-46 18-125c-6-104 99-153 187-111 19 9 31 26 39 46" id="ap"/><g id="u"><use transform="matrix(0.06234567901234567,0,0,0.06234567901234567,0,0)" xlink:href="#ap"/><use transform="matrix(0.06234567901234567,0,0,0.06234567901234567,16.147530864197527,0)" xlink:href="#Q"/><use transform="matrix(0.06234567901234567,0,0,0.06234567901234567,28.61666666666666,0)" xlink:href="#I"/><use transform="matrix(0.06234567901234567,0,0,0.06234567901234567,41.08580246913579,0)" xlink:href="#F"/><use transform="matrix(0.06234567901234567,0,0,0.06234567901234567,52.308024691358014,0)" xlink:href="#J"/><use transform="matrix(0.06234567901234567,0,0,0.06234567901234567,64.77716049382715,0)" xlink:href="#I"/><use transform="matrix(0.06234567901234567,0,0,0.06234567901234567,77.2462962962963,0)" xlink:href="#F"/><use transform="matrix(0.06234567901234567,0,0,0.06234567901234567,88.46851851851851,0)" xlink:href="#G"/><use transform="matrix(0.06234567901234567,0,0,0.06234567901234567,100.93765432098763,0)" xlink:href="#F"/></g><path fill="#333" d="M87 75C49 33 22-17 22-94c0-76 28-126 65-167h31c-38 41-64 92-64 168S80 34 118 75H87" id="aq"/><path fill="#333" d="M16-82v-28h88v28H16" id="ar"/><path fill="#333" d="M96-169c-40 0-48 33-48 73s9 75 48 75c24 0 41-14 43-38l32 2c-6 37-31 61-74 61-59 0-76-41-82-99-10-93 101-131 147-64 4 7 5 14 7 22l-32 3c-4-21-16-35-41-35" id="as"/><path fill="#333" d="M106-169C34-169 62-67 57 0H25v-261h32l-1 103c12-21 28-36 61-36 89 0 53 116 60 194h-32v-121c2-32-8-49-39-48" id="at"/><path fill="#333" d="M33-261c38 41 65 92 65 168S71 34 33 75H2C39 34 66-17 66-93S39-220 2-261h31" id="au"/><g id="v"><use transform="matrix(0.06234567901234567,0,0,0.06234567901234567,0,0)" xlink:href="#aq"/><use transform="matrix(0.06234567901234567,0,0,0.06234567901234567,7.4191358024691345,0)" xlink:href="#Q"/><use transform="matrix(0.06234567901234567,0,0,0.06234567901234567,19.888271604938268,0)" xlink:href="#I"/><use transform="matrix(0.06234567901234567,0,0,0.06234567901234567,32.3574074074074,0)" xlink:href="#ar"/><use transform="matrix(0.06234567901234567,0,0,0.06234567901234567,39.776543209876536,0)" xlink:href="#as"/><use transform="matrix(0.06234567901234567,0,0,0.06234567901234567,50.99876543209876,0)" xlink:href="#at"/><use transform="matrix(0.06234567901234567,0,0,0.06234567901234567,63.46790123456789,0)" xlink:href="#M"/><use transform="matrix(0.06234567901234567,0,0,0.06234567901234567,75.93703703703702,0)" xlink:href="#O"/><use transform="matrix(0.06234567901234567,0,0,0.06234567901234567,80.86234567901232,0)" xlink:href="#I"/><use transform="matrix(0.06234567901234567,0,0,0.06234567901234567,93.33148148148146,0)" xlink:href="#au"/></g><g id="w"><use transform="matrix(0.056172839506172835,0,0,0.056172839506172835,0,0)" xlink:href="#an"/><use transform="matrix(0.056172839506172835,0,0,0.056172839506172835,10.11111111111111,0)" xlink:href="#ad"/><use transform="matrix(0.056172839506172835,0,0,0.056172839506172835,20.22222222222222,0)" xlink:href="#ao"/><use transform="matrix(0.056172839506172835,0,0,0.056172839506172835,31.456790123456788,0)" xlink:href="#aa"/><use transform="matrix(0.056172839506172835,0,0,0.056172839506172835,38.14135802469136,0)" xlink:href="#Y"/></g><g id="x"><use transform="matrix(0.056172839506172835,0,0,0.056172839506172835,0,0)" xlink:href="#aa"/><use transform="matrix(0.056172839506172835,0,0,0.056172839506172835,6.684567901234567,0)" xlink:href="#Y"/><use transform="matrix(0.056172839506172835,0,0,0.056172839506172835,17.919135802469135,0)" xlink:href="#an"/><use transform="matrix(0.056172839506172835,0,0,0.056172839506172835,28.030246913580246,0)" xlink:href="#am"/><use transform="matrix(0.056172839506172835,0,0,0.056172839506172835,39.26481481481481,0)" xlink:href="#ao"/><use transform="matrix(0.056172839506172835,0,0,0.056172839506172835,50.49938271604938,0)" xlink:href="#Z"/><use transform="matrix(0.056172839506172835,0,0,0.056172839506172835,61.73395061728396,0)" xlink:href="#an"/><use transform="matrix(0.056172839506172835,0,0,0.056172839506172835,71.84506172839507,0)" xlink:href="#Y"/><use transform="matrix(0.056172839506172835,0,0,0.056172839506172835,83.07962962962964,0)" xlink:href="#an"/></g><g id="y"><use transform="matrix(0.056172839506172835,0,0,0.056172839506172835,0,0)" xlink:href="#an"/><use transform="matrix(0.056172839506172835,0,0,0.056172839506172835,10.11111111111111,0)" xlink:href="#Y"/><use transform="matrix(0.056172839506172835,0,0,0.056172839506172835,21.345679012345677,0)" xlink:href="#ac"/></g><g id="z"><use transform="matrix(0.056172839506172835,0,0,0.056172839506172835,0,0)" xlink:href="#ao"/><use transform="matrix(0.056172839506172835,0,0,0.056172839506172835,11.234567901234566,0)" xlink:href="#Z"/><use transform="matrix(0.056172839506172835,0,0,0.056172839506172835,22.469135802469133,0)" xlink:href="#ad"/><use transform="matrix(0.056172839506172835,0,0,0.056172839506172835,32.58024691358024,0)" xlink:href="#ae"/><use transform="matrix(0.056172839506172835,0,0,0.056172839506172835,43.81481481481481,0)" xlink:href="#ab"/><use transform="matrix(0.056172839506172835,0,0,0.056172839506172835,55.04938271604938,0)" xlink:href="#al"/><use transform="matrix(0.056172839506172835,0,0,0.056172839506172835,59.487037037037034,0)" xlink:href="#Z"/></g><path fill="#333" d="M188 0h-37l-8-164L71 0H34L18-190h31l8 164 75-164h34l8 164 74-164h31" id="av"/><g id="A"><use transform="matrix(0.056172839506172835,0,0,0.056172839506172835,0,0)" xlink:href="#av"/><use transform="matrix(0.056172839506172835,0,0,0.056172839506172835,14.548765432098763,0)" xlink:href="#Y"/><use transform="matrix(0.056172839506172835,0,0,0.056172839506172835,25.78333333333333,0)" xlink:href="#al"/><use transform="matrix(0.056172839506172835,0,0,0.056172839506172835,30.220987654320986,0)" xlink:href="#X"/><use transform="matrix(0.056172839506172835,0,0,0.056172839506172835,41.45555555555555,0)" xlink:href="#ae"/><use transform="matrix(0.056172839506172835,0,0,0.056172839506172835,52.69012345679012,0)" xlink:href="#ac"/><use transform="matrix(0.056172839506172835,0,0,0.056172839506172835,58.3074074074074,0)" xlink:href="#an"/></g><path fill="#3a414a" d="M23 0v-37h61v-169l-59 37v-38l62-41h46v211h57V0H23" id="aw"/><use transform="matrix(0.06172839506172839,0,0,0.06172839506172839,0,0)" xlink:href="#aw" id="B"/><path fill="#3a414a" d="M182-182c0 78-84 86-111 141h115V0H12c-6-101 99-100 120-180 1-22-12-31-33-32-23 0-32 14-35 34l-49-3c5-45 32-70 84-70 51 0 83 22 83 69" id="ax"/><use transform="matrix(0.06172839506172839,0,0,0.06172839506172839,0,0)" xlink:href="#ax" id="C"/><path fill="#3a414a" d="M128-127c34 4 56 21 59 58 7 91-148 94-172 28-4-9-6-17-7-26l51-5c1 24 16 35 40 36 23 0 39-12 38-36-1-31-31-36-65-34v-40c32 2 59-3 59-33 0-20-13-33-34-33s-33 13-35 32l-50-3c6-44 37-68 86-68 50 0 83 20 83 66 0 35-22 52-53 58" id="ay"/><use transform="matrix(0.06172839506172839,0,0,0.06172839506172839,0,0)" xlink:href="#ay" id="D"/><path fill="#3a414a" d="M165-50V0h-47v-50H5v-38l105-160h55v161h33v37h-33zm-47-37l2-116L46-87h72" id="az"/><use transform="matrix(0.06172839506172839,0,0,0.06172839506172839,0,0)" xlink:href="#az" id="E"/></defs></g></svg>