<svg xmlns="http://www.w3.org/2000/svg" xmlns:xlink="http://www.w3.org/1999/xlink" xmlns:lucid="lucid" width="1417.74" height="1953.17"><g transform="translate(0.44977508516103626 272.6652019370463)" lucid:page-tab-id="0_0"><path d="M20.05-244.7a6 6 0 0 1 6-6h228a6 6 0 0 1 6 6v562.86a6 6 0 0 1-6 6h-228a6 6 0 0 1-6-6z" stroke="#3a414a" fill-opacity="0"/><path d="M220.05 364.15c22.1 0 40 17.9 40 40s-17.9 40-40 40h-160c-22.1 0-40-17.9-40-40s17.9-40 40-40z" stroke="#3a414a" fill="#fff"/><use xlink:href="#a" transform="matrix(1,0,0,1,25.050224914838964,369.1546315415187) translate(50.24691358024691 39.65277777777778)"/><use xlink:href="#b" transform="matrix(1,0,0,1,25.050224914838964,369.1546315415187) translate(143.9506172839506 39.65277777777778)"/><path d="M21.46 490.15a6 6 0 0 1 6-6h228a6 6 0 0 1 6 6v68a6 6 0 0 1-6 6h-228a6 6 0 0 1-6-6z" stroke="#3a414a" fill="#fff"/><use xlink:href="#c" transform="matrix(1,0,0,1,33.457848653614235,496.1546315415187) translate(25.993827160493822 31.77777777777778)"/><use xlink:href="#d" transform="matrix(1,0,0,1,33.457848653614235,496.1546315415187) translate(85.19135802469135 31.77777777777778)"/><path d="M96.4 445.15v22.12" stroke="#3a414a" fill="none"/><path d="M96.9 445.17h-1v-.52h1z" stroke="#3a414a" stroke-width=".05" fill="#3a414a"/><path d="M96.4 482.04l-4.62-14.27h9.27z" stroke="#3a414a" fill="#3a414a"/><path d="M182.32 461.04v22.1" stroke="#3a414a" fill="none"/><path d="M182.32 446.27l4.64 14.27h-9.27z" stroke="#3a414a" fill="#3a414a"/><path d="M182.82 483.65h-1v-.5h1z" stroke="#3a414a" stroke-width=".05" fill="#3a414a"/><g stroke="#3a414a"><path d="M67.46 109.3a6 6 0 0 1-6-6v-108a6 6 0 0 1 6-6h148a6 6 0 0 1 6 6v108a6 6 0 0 1-6 6z" fill="#fff"/><path d="M61.46 97.3h160m-160-96h160" fill="none"/></g><use xlink:href="#e" transform="matrix(1,0,0,1,66.45784865361425,9.298156965247529) translate(30.586419753086417 31.611111111111114)"/><use xlink:href="#f" transform="matrix(1,0,0,1,66.45784865361425,9.298156965247529) translate(18.30246913580247 58.27777777777778)"/><path d="M140.55 126.18v41.09" stroke="#3a414a" fill="none"/><path d="M140.55 111.42l4.64 14.26h-9.28zM140.55 182.04l-4.64-14.27h9.3z" stroke="#3a414a" fill="#3a414a"/><path d="M160.05 184.16c22.1 0 40 17.9 40 40s-17.9 40-40 40h-40c-22.1 0-40-17.9-40-40s17.9-40 40-40z" stroke="#3a414a" fill="#fff"/><use xlink:href="#g" transform="matrix(1,0,0,1,85.05022491483896,189.1546315415187) translate(21.671666666666667 26.52777777777778)"/><use xlink:href="#h" transform="matrix(1,0,0,1,85.05022491483896,189.1546315415187) translate(13.122283950617275 53.19444444444445)"/><path d="M140.05-74.82v47.22" stroke="#3a414a" fill="none"/><path d="M140.05-89.58l4.64 14.26h-9.28zM140.05-12.82L135.4-27.1h9.3z" stroke="#3a414a" fill="#3a414a"/><path d="M160.05-171.7c22.1 0 40 17.9 40 40s-17.9 40-40 40h-40c-22.1 0-40-17.9-40-40s17.9-40 40-40z" stroke="#3a414a" fill="#fff"/><use xlink:href="#g" transform="matrix(1,0,0,1,85.05022491483896,-166.70182320717197) translate(21.671666666666667 26.52777777777778)"/><use xlink:href="#i" transform="matrix(1,0,0,1,85.05022491483896,-166.70182320717197) translate(27.31981481481482 53.19444444444445)"/><path d="M140.05 281.04v65.73" stroke="#3a414a" fill="none"/><path d="M140.05 266.27l4.64 14.27h-9.28zM140.05 361.54l-4.64-14.27h9.3z" stroke="#3a414a" fill="#3a414a"/><path d="M60.05-244.7a6 6 0 0 1 6-6h148a6 6 0 0 1 6 6v48a6 6 0 0 1-6 6h-148a6 6 0 0 1-6-6z" stroke="#000" stroke-opacity="0" fill="#fff" fill-opacity="0"/><use xlink:href="#j" transform="matrix(1,0,0,1,65.05022491483895,-245.70184303475253) translate(11.703703703703702 30.27777777777778)"/><use xlink:href="#k" transform="matrix(1,0,0,1,65.05022491483895,-245.70184303475253) translate(66.7037037037037 30.27777777777778)"/><path d="M285.3-4a6 6 0 0 1 5.96-6.06l57.05-.46a6 6 0 0 0 5.96-6.05l-.07-8a2.3 2.3 0 0 1 4-1.57l28.22 30.86a6.67 6.67 0 0 1 .07 8.9l-27.73 31.32a2.3 2.3 0 0 1-4.03-1.5l-.06-8a6 6 0 0 0-6.05-5.96l-57.05.46a6 6 0 0 1-6.05-5.95z" stroke="#3a414a" fill="#e3fae3"/><path d="M160 592.32c0 11.04-8.95 20-20 20s-20-8.96-20-20c0-11.05 8.95-20 20-20s20 8.95 20 20z" stroke="#3a414a" fill="#f2f3f5"/><use xlink:href="#l" transform="matrix(1,0,0,1,125,577.3171264019444) translate(8.83216049382716 19.65277777777778)"/><path d="M880 592.32c0 11.04-8.95 20-20 20s-20-8.96-20-20c0-11.05 8.95-20 20-20s20 8.95 20 20z" stroke="#3a414a" fill="#f2f3f5"/><use xlink:href="#m" transform="matrix(1,0,0,1,845,577.3171264019444) translate(8.83216049382716 19.65277777777778)"/><path d="M715.15 1640c0 11.05-8.96 20-20 20-11.05 0-20-8.95-20-20s8.95-20 20-20c11.04 0 20 8.95 20 20z" stroke="#3a414a" fill="#f2f3f5"/><use xlink:href="#n" transform="matrix(1,0,0,1,680.1466273474421,1625) translate(8.83216049382716 19.65277777777778)"/><path d="M1144.64-246.16a6 6 0 0 1 6-6h228a6 6 0 0 1 6 6v493.68a6 6 0 0 1-6 6h-228a6 6 0 0 1-6-6z" stroke="#3a414a" fill="#f2f2ff"/><path d="M1104.64-219.03a6 6 0 0 1 6-6h228a6 6 0 0 1 6 6v493.68a6 6 0 0 1-6 6h-228a6 6 0 0 1-6-6z" stroke="#3a414a" fill="#f2f3f5"/><path d="M398.64-246.16a6 6 0 0 1 6-6h508a6 6 0 0 1 6 6v548a6 6 0 0 1-6 6h-508a6 6 0 0 1-6-6z" stroke="#3a414a" fill-opacity="0"/><path d="M1344.64 347.83c22.1 0 40 17.9 40 40s-17.9 40-40 40h-926c-22.1 0-40-17.9-40-40s17.9-40 40-40z" stroke="#3a414a" fill="#fff"/><use xlink:href="#o" transform="matrix(1,0,0,1,383.64260117606364,352.8347980629537) translate(433.2469135802469 39.65277777777778)"/><use xlink:href="#p" transform="matrix(1,0,0,1,383.64260117606364,352.8347980629537) translate(526.9506172839506 39.65277777777778)"/><path d="M390.8 486a6 6 0 0 1 6-6h994a6 6 0 0 1 6 6v68a6 6 0 0 1-6 6h-994a6 6 0 0 1-6-6z" stroke="#3a414a" fill="#fff"/><use xlink:href="#q" transform="matrix(1,0,0,1,402.7892285235057,492) translate(440.10493827160496 31.77777777777778)"/><path d="M698.73 428.83v34.3" stroke="#3a414a" fill="none"/><path d="M699.23 428.85h-1v-.52h1z" stroke="#3a414a" stroke-width=".05" fill="#3a414a"/><path d="M698.73 477.88l-4.63-14.26h9.27z" stroke="#3a414a" fill="#3a414a"/><path d="M1076.7 444.72V479" stroke="#3a414a" fill="none"/><path d="M1076.7 429.95l4.63 14.27h-9.27z" stroke="#3a414a" fill="#3a414a"/><path d="M1077.2 479.5h-1v-.5h1z" stroke="#3a414a" stroke-width=".05" fill="#3a414a"/><g stroke="#3a414a"><path d="M444.64 107.83a6 6 0 0 1-6-6v-108a6 6 0 0 1 6-6h428a6 6 0 0 1 6 6v108a6 6 0 0 1-6 6z" fill="#fff"/><path d="M438.64 95.83h440m-440-96h440" fill="none"/></g><use xlink:href="#r" transform="matrix(1,0,0,1,443.6426011760637,7.834798062953908) translate(110.80246913580247 44.94444444444444)"/><use xlink:href="#s" transform="matrix(1,0,0,1,443.6426011760637,7.834798062953908) translate(205.80246913580248 44.94444444444444)"/><path d="M499.14 124.72v46.22" stroke="#3a414a" fill="none"/><path d="M499.14 109.95l4.64 14.27h-9.27zM499.14 185.72l-4.63-14.27h9.28z" stroke="#3a414a" fill="#3a414a"/><path d="M518.64 187.84c22.1 0 40 17.9 40 40s-17.9 40-40 40h-40c-22.1 0-40-17.9-40-40s17.9-40 40-40z" stroke="#3a414a" fill="#fff"/><use xlink:href="#t" transform="matrix(1,0,0,1,443.64260117606364,192.83479806295372) translate(21.671666666666667 26.52777777777778)"/><use xlink:href="#u" transform="matrix(1,0,0,1,443.64260117606364,192.83479806295372) translate(13.122283950617275 53.19444444444445)"/><path d="M659.14 124.72v46.23" stroke="#3a414a" fill="none"/><path d="M659.14 109.95l4.64 14.27h-9.27zM659.14 185.72l-4.63-14.27h9.28z" stroke="#3a414a" fill="#3a414a"/><path d="M678.64 187.84c22.1 0 40 17.9 40 40s-17.9 40-40 40h-40c-22.1 0-40-17.9-40-40s17.9-40 40-40z" stroke="#3a414a" fill="#fff"/><use xlink:href="#t" transform="matrix(1,0,0,1,603.6426011760636,192.83479806295372) translate(21.671666666666667 26.52777777777778)"/><use xlink:href="#u" transform="matrix(1,0,0,1,603.6426011760636,192.83479806295372) translate(13.122283950617275 53.19444444444445)"/><path d="M819.14 124.72v46.23" stroke="#3a414a" fill="none"/><path d="M819.14 109.95l4.64 14.27h-9.27zM819.14 185.72l-4.63-14.27h9.28z" stroke="#3a414a" fill="#3a414a"/><path d="M838.64 187.84c22.1 0 40 17.9 40 40s-17.9 40-40 40h-40c-22.1 0-40-17.9-40-40s17.9-40 40-40z" stroke="#3a414a" fill="#fff"/><use xlink:href="#t" transform="matrix(1,0,0,1,763.6426011760636,192.83479806295372) translate(21.671666666666667 26.52777777777778)"/><use xlink:href="#u" transform="matrix(1,0,0,1,763.6426011760636,192.83479806295372) translate(13.122283950617275 53.19444444444445)"/><path d="M498.64-75.78v46.22" stroke="#3a414a" fill="none"/><path d="M498.64-90.55l4.64 14.27H494zM498.64-14.79L494-29.04h9.28z" stroke="#3a414a" fill="#3a414a"/><path d="M518.64-173.16c22.1 0 40 17.9 40 40s-17.9 40-40 40h-40c-22.1 0-40-17.9-40-40s17.9-40 40-40z" stroke="#3a414a" fill="#fff"/><use xlink:href="#t" transform="matrix(1,0,0,1,443.64260117606364,-168.1651821094656) translate(21.671666666666667 26.52777777777778)"/><use xlink:href="#v" transform="matrix(1,0,0,1,443.64260117606364,-168.1651821094656) translate(27.31981481481482 53.19444444444445)"/><path d="M658.64-75.78v46.23" stroke="#3a414a" fill="none"/><path d="M658.64-90.55l4.64 14.27H654zM658.64-14.78L654-29.05h9.28z" stroke="#3a414a" fill="#3a414a"/><path d="M678.64-173.16c22.1 0 40 17.9 40 40s-17.9 40-40 40h-40c-22.1 0-40-17.9-40-40s17.9-40 40-40z" stroke="#3a414a" fill="#fff"/><use xlink:href="#t" transform="matrix(1,0,0,1,603.6426011760636,-168.1651821094656) translate(21.671666666666667 26.52777777777778)"/><use xlink:href="#v" transform="matrix(1,0,0,1,603.6426011760636,-168.1651821094656) translate(27.31981481481482 53.19444444444445)"/><path d="M818.64-75.78v46.23" stroke="#3a414a" fill="none"/><path d="M818.64-90.55l4.64 14.27H814zM818.64-14.78L814-29.05h9.28z" stroke="#3a414a" fill="#3a414a"/><path d="M838.64-173.16c22.1 0 40 17.9 40 40s-17.9 40-40 40h-40c-22.1 0-40-17.9-40-40s17.9-40 40-40z" stroke="#3a414a" fill="#fff"/><use xlink:href="#t" transform="matrix(1,0,0,1,763.6426011760636,-168.1651821094656) translate(21.671666666666667 26.52777777777778)"/><use xlink:href="#v" transform="matrix(1,0,0,1,763.6426011760636,-168.1651821094656) translate(27.31981481481482 53.19444444444445)"/><path d="M498.64 284.22V330.45" stroke="#3a414a" fill="none"/><path d="M498.64 269.45l4.64 14.27H494zM498.64 345.2L494 330.96h9.28z" stroke="#3a414a" fill="#3a414a"/><path d="M658.64 284.22v46.23" stroke="#3a414a" fill="none"/><path d="M658.64 269.45l4.64 14.27H654zM658.64 345.22L654 330.95h9.28z" stroke="#3a414a" fill="#3a414a"/><path d="M818.64 284.22v46.23" stroke="#3a414a" fill="none"/><path d="M818.64 269.45l4.64 14.27H814zM818.64 345.22L814 330.95h9.28z" stroke="#3a414a" fill="#3a414a"/><path d="M578.64-246.16a6 6 0 0 1 6-6h148a6 6 0 0 1 6 6v48a6 6 0 0 1-6 6h-148a6 6 0 0 1-6-6z" stroke="#000" stroke-opacity="0" fill="#fff" fill-opacity="0"/><use xlink:href="#w" transform="matrix(1,0,0,1,583.6426011760636,-247.16520193704616) translate(11.703703703703702 30.27777777777778)"/><use xlink:href="#x" transform="matrix(1,0,0,1,583.6426011760636,-247.16520193704616) translate(66.7037037037037 30.27777777777778)"/><path d="M924.64-26.16a6 6 0 0 1 6-6h108a6 6 0 0 1 6 6v70a6 6 0 0 1-6 6h-108a6 6 0 0 1-6-6z" stroke="#000" stroke-opacity="0" fill="#fff" fill-opacity="0"/><use xlink:href="#y" transform="matrix(1,0,0,1,929.6426011760636,-27.16520193704627) translate(31.851851851851862 42.41666666666666)"/><use xlink:href="#z" transform="matrix(1,0,0,1,929.6426011760636,-27.16520193704627) translate(50.370370370370374 42.41666666666666)"/><use xlink:href="#A" transform="matrix(1,0,0,1,929.6426011760636,-27.16520193704627) translate(68.88888888888889 42.41666666666666)"/><path d="M1064.64-184.42a6 6 0 0 1 6-6h228a6 6 0 0 1 6 6v493.68a6 6 0 0 1-6 6h-228a6 6 0 0 1-6-6z" stroke="#3a414a" fill="#fff"/><path d="M1104.64-180.17a6 6 0 0 1 6-6h148a6 6 0 0 1 6 6v49.6a6 6 0 0 1-6 6h-148a6 6 0 0 1-6-6z" stroke="#000" stroke-opacity="0" fill="#fff" fill-opacity="0"/><use xlink:href="#B" transform="matrix(1,0,0,1,1109.6426011760636,-181.16790901366713) translate(0.37654320987654444 30.77777777777778)"/><use xlink:href="#C" transform="matrix(1,0,0,1,1109.6426011760636,-181.16790901366713) translate(65.68518518518518 30.77777777777778)"/><path d="M946 806a6 6 0 0 1 6-6h228a6 6 0 0 1 6 6v493.68a6 6 0 0 1-6 6H952a6 6 0 0 1-6-6z" stroke="#3a414a" fill="#f2f2ff"/><path d="M906 833.13a6 6 0 0 1 6-6h228a6 6 0 0 1 6 6v493.7a6 6 0 0 1-6 6H912a6 6 0 0 1-6-6z" stroke="#3a414a" fill="#f2f3f5"/><path d="M200 806a6 6 0 0 1 6-6h508a6 6 0 0 1 6 6v548a6 6 0 0 1-6 6H206a6 6 0 0 1-6-6z" stroke="#3a414a" fill-opacity="0"/><path d="M1146 1400c22.1 0 40 17.9 40 40s-17.9 40-40 40H220c-22.1 0-40-17.9-40-40s17.9-40 40-40z" stroke="#3a414a" fill="#fff"/><use xlink:href="#o" transform="matrix(1,0,0,1,185,1405) translate(433.2469135802469 39.65277777777778)"/><use xlink:href="#p" transform="matrix(1,0,0,1,185,1405) translate(526.9506172839506 39.65277777777778)"/><path d="M192.15 1538.16a6 6 0 0 1 6-6h994a6 6 0 0 1 6 6v68a6 6 0 0 1-6 6h-994a6 6 0 0 1-6-6z" stroke="#3a414a" fill="#fff"/><use xlink:href="#D" transform="matrix(1,0,0,1,204.14662734744206,1544.1652019370463) translate(436.8024691358025 31.77777777777778)"/><path d="M500.1 1481v34.28" stroke="#3a414a" fill="none"/><path d="M500.6 1481h-1v-.5h1z" stroke="#3a414a" stroke-width=".05" fill="#3a414a"/><path d="M500.1 1530.05l-4.64-14.27h9.27z" stroke="#3a414a" fill="#3a414a"/><path d="M878.06 1496.88v34.28" stroke="#3a414a" fill="none"/><path d="M878.06 1482.12l4.63 14.26h-9.28z" stroke="#3a414a" fill="#3a414a"/><path d="M878.56 1531.66h-1v-.5h1z" stroke="#3a414a" stroke-width=".05" fill="#3a414a"/><g stroke="#3a414a"><path d="M246 1160a6 6 0 0 1-6-6v-108a6 6 0 0 1 6-6h428a6 6 0 0 1 6 6v108a6 6 0 0 1-6 6z" fill="#fff"/><path d="M240 1148h440m-440-96h440" fill="none"/></g><use xlink:href="#r" transform="matrix(1,0,0,1,245,1060) translate(110.80246913580247 44.44444444444444)"/><use xlink:href="#s" transform="matrix(1,0,0,1,245,1060) translate(205.80246913580248 44.44444444444444)"/><path d="M300.5 1176.88v46.24" stroke="#3a414a" fill="none"/><path d="M300.5 1162.12l4.63 14.26h-9.26zM300.5 1237.88l-4.63-14.26h9.26z" stroke="#3a414a" fill="#3a414a"/><path d="M320 1240c22.1 0 40 17.9 40 40s-17.9 40-40 40h-40c-22.1 0-40-17.9-40-40s17.9-40 40-40z" stroke="#3a414a" fill="#fff"/><use xlink:href="#t" transform="matrix(1,0,0,1,245,1245) translate(21.671666666666667 26.52777777777778)"/><use xlink:href="#u" transform="matrix(1,0,0,1,245,1245) translate(13.122283950617275 53.19444444444445)"/><path d="M460.5 1176.88v46.24" stroke="#3a414a" fill="none"/><path d="M460.5 1162.12l4.63 14.26h-9.26zM460.5 1237.88l-4.63-14.26h9.26z" stroke="#3a414a" fill="#3a414a"/><path d="M480 1240c22.1 0 40 17.9 40 40s-17.9 40-40 40h-40c-22.1 0-40-17.9-40-40s17.9-40 40-40z" stroke="#3a414a" fill="#fff"/><use xlink:href="#t" transform="matrix(1,0,0,1,405,1245) translate(21.671666666666667 26.52777777777778)"/><use xlink:href="#u" transform="matrix(1,0,0,1,405,1245) translate(13.122283950617275 53.19444444444445)"/><path d="M620.5 1176.88v46.24" stroke="#3a414a" fill="none"/><path d="M620.5 1162.12l4.63 14.26h-9.26zM620.5 1237.88l-4.63-14.26h9.26z" stroke="#3a414a" fill="#3a414a"/><path d="M640 1240c22.1 0 40 17.9 40 40s-17.9 40-40 40h-40c-22.1 0-40-17.9-40-40s17.9-40 40-40z" stroke="#3a414a" fill="#fff"/><use xlink:href="#t" transform="matrix(1,0,0,1,565,1245) translate(21.671666666666667 26.52777777777778)"/><use xlink:href="#u" transform="matrix(1,0,0,1,565,1245) translate(13.122283950617275 53.19444444444445)"/><path d="M300 976.38v46.24" stroke="#3a414a" fill="none"/><path d="M300 961.62l4.63 14.26h-9.26zM300 1037.38l-4.63-14.27h9.26z" stroke="#3a414a" fill="#3a414a"/><path d="M320 879c22.1 0 40 17.9 40 40s-17.9 40-40 40h-40c-22.1 0-40-17.9-40-40s17.9-40 40-40z" stroke="#3a414a" fill="#fff"/><use xlink:href="#t" transform="matrix(1,0,0,1,245,884.0000198275807) translate(21.671666666666667 26.52777777777778)"/><use xlink:href="#v" transform="matrix(1,0,0,1,245,884.0000198275807) translate(27.31981481481482 53.19444444444445)"/><path d="M460 976.38v46.24" stroke="#3a414a" fill="none"/><path d="M460 961.62l4.63 14.26h-9.26zM460 1037.38l-4.63-14.26h9.26z" stroke="#3a414a" fill="#3a414a"/><path d="M480 879c22.1 0 40 17.9 40 40s-17.9 40-40 40h-40c-22.1 0-40-17.9-40-40s17.9-40 40-40z" stroke="#3a414a" fill="#fff"/><g><use xlink:href="#t" transform="matrix(1,0,0,1,405,884.0000198275807) translate(21.671666666666667 26.52777777777778)"/><use xlink:href="#v" transform="matrix(1,0,0,1,405,884.0000198275807) translate(27.31981481481482 53.19444444444445)"/></g><path d="M620 976.38v46.24" stroke="#3a414a" fill="none"/><path d="M620 961.62l4.63 14.26h-9.26zM620 1037.38l-4.63-14.26h9.26z" stroke="#3a414a" fill="#3a414a"/><path d="M640 879c22.1 0 40 17.9 40 40s-17.9 40-40 40h-40c-22.1 0-40-17.9-40-40s17.9-40 40-40z" stroke="#3a414a" fill="#fff"/><g><use xlink:href="#t" transform="matrix(1,0,0,1,565,884.0000198275807) translate(21.671666666666667 26.52777777777778)"/><use xlink:href="#v" transform="matrix(1,0,0,1,565,884.0000198275807) translate(27.31981481481482 53.19444444444445)"/></g><path d="M300 1336.38v46.24" stroke="#3a414a" fill="none"/><path d="M300 1321.62l4.63 14.26h-9.26zM300 1397.38l-4.63-14.26h9.26z" stroke="#3a414a" fill="#3a414a"/><path d="M460 1336.38v46.24" stroke="#3a414a" fill="none"/><path d="M460 1321.62l4.63 14.26h-9.26zM460 1397.38l-4.63-14.26h9.26z" stroke="#3a414a" fill="#3a414a"/><path d="M620 1336.38v46.24" stroke="#3a414a" fill="none"/><path d="M620 1321.62l4.63 14.26h-9.26zM620 1397.38l-4.63-14.26h9.26z" stroke="#3a414a" fill="#3a414a"/><path d="M380 806a6 6 0 0 1 6-6h148a6 6 0 0 1 6 6v48a6 6 0 0 1-6 6H386a6 6 0 0 1-6-6z" stroke="#000" stroke-opacity="0" fill="#fff" fill-opacity="0"/><g><use xlink:href="#w" transform="matrix(1,0,0,1,385,805) translate(11.703703703703702 30.27777777777778)"/><use xlink:href="#x" transform="matrix(1,0,0,1,385,805) translate(66.7037037037037 30.27777777777778)"/></g><path d="M726 1026a6 6 0 0 1 6-6h108a6 6 0 0 1 6 6v70a6 6 0 0 1-6 6H732a6 6 0 0 1-6-6z" stroke="#000" stroke-opacity="0" fill="#fff" fill-opacity="0"/><g><use xlink:href="#y" transform="matrix(1,0,0,1,731,1025) translate(31.851851851851862 42.41666666666666)"/><use xlink:href="#z" transform="matrix(1,0,0,1,731,1025) translate(50.370370370370374 42.41666666666666)"/><use xlink:href="#A" transform="matrix(1,0,0,1,731,1025) translate(68.88888888888889 42.41666666666666)"/></g><path d="M866 867.74a6 6 0 0 1 6-6h228a6 6 0 0 1 6 6v493.7a6 6 0 0 1-6 6H872a6 6 0 0 1-6-6z" stroke="#3a414a" fill="#fff"/><path d="M906 872a6 6 0 0 1 6-6h148a6 6 0 0 1 6 6v49.6a6 6 0 0 1-6 6H912a6 6 0 0 1-6-6z" stroke="#000" stroke-opacity="0" fill="#fff" fill-opacity="0"/><g><use xlink:href="#B" transform="matrix(1,0,0,1,911,870.9972929233792) translate(0.37654320987654444 30.77777777777778)"/><use xlink:href="#C" transform="matrix(1,0,0,1,911,870.9972929233792) translate(65.68518518518518 30.77777777777778)"/></g><g><path d="M874 660a6 6 0 0 1 6 6v57.05a6 6 0 0 0 6 6h8a2.3 2.3 0 0 1 1.54 4.02l-31.08 27.97a6.67 6.67 0 0 1-8.92 0l-31.08-27.97a2.3 2.3 0 0 1 1.54-4.02h8a6 6 0 0 0 6-6V666a6 6 0 0 1 6-6z" stroke="#3a414a" fill="#cfe4ff"/></g><defs><path fill="#3a414a" d="M160-131c35 5 61 23 61 61C221 17 115-2 30 0v-248c76 3 177-17 177 60 0 33-19 50-47 57zm-97-11c50-1 110 9 110-42 0-47-63-36-110-37v79zm0 115c55-2 124 14 124-45 0-56-70-42-124-44v89" id="E"/><path fill="#3a414a" d="M24-231v-30h32v30H24zM24 0v-190h32V0H24" id="F"/><path fill="#3a414a" d="M59-47c-2 24 18 29 38 22v24C64 9 27 4 27-40v-127H5v-23h24l9-43h21v43h35v23H59v120" id="G"/><path fill="#3a414a" d="M100-194c63 0 86 42 84 106H49c0 40 14 67 53 68 26 1 43-12 49-29l28 8c-11 28-37 45-77 45C44 4 14-33 15-96c1-61 26-98 85-98zm52 81c6-60-76-77-97-28-3 7-6 17-6 28h103" id="H"/><path fill="#3a414a" d="M117-194c89-4 53 116 60 194h-32v-121c0-31-8-49-39-48C34-167 62-67 57 0H25l-1-190h30c1 10-1 24 2 32 11-22 29-35 61-36" id="I"/><path fill="#3a414a" d="M135-143c-3-34-86-38-87 0 15 53 115 12 119 90S17 21 10-45l28-5c4 36 97 45 98 0-10-56-113-15-118-90-4-57 82-63 122-42 12 7 21 19 24 35" id="J"/><path fill="#3a414a" d="M100-194c62-1 85 37 85 99 1 63-27 99-86 99S16-35 15-95c0-66 28-99 85-99zM99-20c44 1 53-31 53-75 0-43-8-75-51-75s-53 32-53 75 10 74 51 75" id="K"/><path fill="#3a414a" d="M114-163C36-179 61-72 57 0H25l-1-190h30c1 12-1 29 2 39 6-27 23-49 58-41v29" id="L"/><g id="a"><use transform="matrix(0.06172839506172839,0,0,0.06172839506172839,0,0)" xlink:href="#E"/><use transform="matrix(0.06172839506172839,0,0,0.06172839506172839,14.814814814814813,0)" xlink:href="#F"/><use transform="matrix(0.06172839506172839,0,0,0.06172839506172839,19.691358024691354,0)" xlink:href="#G"/><use transform="matrix(0.06172839506172839,0,0,0.06172839506172839,25.864197530864192,0)" xlink:href="#G"/><use transform="matrix(0.06172839506172839,0,0,0.06172839506172839,32.03703703703703,0)" xlink:href="#H"/><use transform="matrix(0.06172839506172839,0,0,0.06172839506172839,44.38271604938271,0)" xlink:href="#I"/><use transform="matrix(0.06172839506172839,0,0,0.06172839506172839,56.728395061728385,0)" xlink:href="#J"/><use transform="matrix(0.06172839506172839,0,0,0.06172839506172839,67.83950617283949,0)" xlink:href="#K"/><use transform="matrix(0.06172839506172839,0,0,0.06172839506172839,80.18518518518518,0)" xlink:href="#L"/></g><path fill="#3a414a" d="M205 0l-28-72H64L36 0H1l101-248h38L239 0h-34zm-38-99l-47-123c-12 45-31 82-46 123h93" id="M"/><path fill="#3a414a" d="M30-248c87 1 191-15 191 75 0 78-77 80-158 76V0H30v-248zm33 125c57 0 124 11 124-50 0-59-68-47-124-48v98" id="N"/><path fill="#3a414a" d="M33 0v-248h34V0H33" id="O"/><g id="b"><use transform="matrix(0.06172839506172839,0,0,0.06172839506172839,0,0)" xlink:href="#M"/><use transform="matrix(0.06172839506172839,0,0,0.06172839506172839,14.814814814814813,0)" xlink:href="#N"/><use transform="matrix(0.06172839506172839,0,0,0.06172839506172839,29.629629629629626,0)" xlink:href="#O"/></g><path fill="#3a414a" d="M30 0v-248h33v221h125V0H30" id="P"/><path fill="#3a414a" d="M96-169c-40 0-48 33-48 73s9 75 48 75c24 0 41-14 43-38l32 2c-6 37-31 61-74 61-59 0-76-41-82-99-10-93 101-131 147-64 4 7 5 14 7 22l-32 3c-4-21-16-35-41-35" id="Q"/><path fill="#3a414a" d="M141-36C126-15 110 5 73 4 37 3 15-17 15-53c-1-64 63-63 125-63 3-35-9-54-41-54-24 1-41 7-42 31l-33-3c5-37 33-52 76-52 45 0 72 20 72 64v82c-1 20 7 32 28 27v20c-31 9-61-2-59-35zM48-53c0 20 12 33 32 33 41-3 63-29 60-74-43 2-92-5-92 41" id="R"/><path fill="#3a414a" d="M24 0v-261h32V0H24" id="S"/><g id="c"><use transform="matrix(0.06172839506172839,0,0,0.06172839506172839,0,0)" xlink:href="#P"/><use transform="matrix(0.06172839506172839,0,0,0.06172839506172839,12.345679012345679,0)" xlink:href="#K"/><use transform="matrix(0.06172839506172839,0,0,0.06172839506172839,24.691358024691358,0)" xlink:href="#Q"/><use transform="matrix(0.06172839506172839,0,0,0.06172839506172839,35.80246913580247,0)" xlink:href="#R"/><use transform="matrix(0.06172839506172839,0,0,0.06172839506172839,48.148148148148145,0)" xlink:href="#S"/></g><path fill="#3a414a" d="M115-194c53 0 69 39 70 98 0 66-23 100-70 100C84 3 66-7 56-30L54 0H23l1-261h32v101c10-23 28-34 59-34zm-8 174c40 0 45-34 45-75 0-40-5-75-45-74-42 0-51 32-51 76 0 43 10 73 51 73" id="T"/><path fill="#3a414a" d="M143 0L79-87 56-68V0H24v-261h32v163l83-92h37l-77 82L181 0h-38" id="U"/><path fill="#3a414a" d="M106-169C34-169 62-67 57 0H25v-261h32l-1 103c12-21 28-36 61-36 89 0 53 116 60 194h-32v-121c2-32-8-49-39-48" id="V"/><g id="d"><use transform="matrix(0.06172839506172839,0,0,0.06172839506172839,0,0)" xlink:href="#T"/><use transform="matrix(0.06172839506172839,0,0,0.06172839506172839,12.345679012345679,0)" xlink:href="#S"/><use transform="matrix(0.06172839506172839,0,0,0.06172839506172839,17.22222222222222,0)" xlink:href="#K"/><use transform="matrix(0.06172839506172839,0,0,0.06172839506172839,29.5679012345679,0)" xlink:href="#Q"/><use transform="matrix(0.06172839506172839,0,0,0.06172839506172839,40.67901234567901,0)" xlink:href="#U"/><use transform="matrix(0.06172839506172839,0,0,0.06172839506172839,51.79012345679013,0)" xlink:href="#Q"/><use transform="matrix(0.06172839506172839,0,0,0.06172839506172839,62.90123456790124,0)" xlink:href="#V"/><use transform="matrix(0.06172839506172839,0,0,0.06172839506172839,75.24691358024693,0)" xlink:href="#R"/><use transform="matrix(0.06172839506172839,0,0,0.06172839506172839,87.59259259259261,0)" xlink:href="#F"/><use transform="matrix(0.06172839506172839,0,0,0.06172839506172839,92.46913580246915,0)" xlink:href="#I"/></g><path fill="#3a414a" d="M108 0H70L1-190h34L89-25l56-165h34" id="W"/><g id="e"><use transform="matrix(0.06172839506172839,0,0,0.06172839506172839,0,0)" xlink:href="#O"/><use transform="matrix(0.06172839506172839,0,0,0.06172839506172839,6.172839506172839,0)" xlink:href="#I"/><use transform="matrix(0.06172839506172839,0,0,0.06172839506172839,18.51851851851852,0)" xlink:href="#Q"/><use transform="matrix(0.06172839506172839,0,0,0.06172839506172839,29.62962962962963,0)" xlink:href="#H"/><use transform="matrix(0.06172839506172839,0,0,0.06172839506172839,41.97530864197531,0)" xlink:href="#I"/><use transform="matrix(0.06172839506172839,0,0,0.06172839506172839,54.32098765432099,0)" xlink:href="#G"/><use transform="matrix(0.06172839506172839,0,0,0.06172839506172839,60.49382716049383,0)" xlink:href="#F"/><use transform="matrix(0.06172839506172839,0,0,0.06172839506172839,65.37037037037037,0)" xlink:href="#W"/><use transform="matrix(0.06172839506172839,0,0,0.06172839506172839,76.48148148148148,0)" xlink:href="#H"/></g><path fill="#3a414a" d="M210-169c-67 3-38 105-44 169h-31v-121c0-29-5-50-35-48C34-165 62-65 56 0H25l-1-190h30c1 10-1 24 2 32 10-44 99-50 107 0 11-21 27-35 58-36 85-2 47 119 55 194h-31v-121c0-29-5-49-35-48" id="X"/><g id="f"><use transform="matrix(0.06172839506172839,0,0,0.06172839506172839,0,0)" xlink:href="#X"/><use transform="matrix(0.06172839506172839,0,0,0.06172839506172839,18.456790123456788,0)" xlink:href="#H"/><use transform="matrix(0.06172839506172839,0,0,0.06172839506172839,30.80246913580247,0)" xlink:href="#Q"/><use transform="matrix(0.06172839506172839,0,0,0.06172839506172839,41.91358024691358,0)" xlink:href="#V"/><use transform="matrix(0.06172839506172839,0,0,0.06172839506172839,54.25925925925926,0)" xlink:href="#R"/><use transform="matrix(0.06172839506172839,0,0,0.06172839506172839,66.60493827160494,0)" xlink:href="#I"/><use transform="matrix(0.06172839506172839,0,0,0.06172839506172839,78.95061728395062,0)" xlink:href="#F"/><use transform="matrix(0.06172839506172839,0,0,0.06172839506172839,83.82716049382717,0)" xlink:href="#J"/><use transform="matrix(0.06172839506172839,0,0,0.06172839506172839,94.93827160493828,0)" xlink:href="#X"/></g><path fill="#3a414a" d="M84 4C-5 8 30-112 23-190h32v120c0 31 7 50 39 49 72-2 45-101 50-169h31l1 190h-30c-1-10 1-25-2-33-11 22-28 36-60 37" id="Y"/><g id="g"><use transform="matrix(0.06172839506172839,0,0,0.06172839506172839,0,0)" xlink:href="#J"/><use transform="matrix(0.06172839506172839,0,0,0.06172839506172839,11.11111111111111,0)" xlink:href="#Y"/><use transform="matrix(0.06172839506172839,0,0,0.06172839506172839,23.45679012345679,0)" xlink:href="#T"/><use transform="matrix(0.06172839506172839,0,0,0.06172839506172839,35.80246913580247,0)" xlink:href="#I"/><use transform="matrix(0.06172839506172839,0,0,0.06172839506172839,48.148148148148145,0)" xlink:href="#H"/><use transform="matrix(0.06172839506172839,0,0,0.06172839506172839,60.49382716049382,0)" xlink:href="#G"/></g><path fill="#3a414a" d="M85-194c31 0 48 13 60 33l-1-100h32l1 261h-30c-2-10 0-23-3-31C134-8 116 4 85 4 32 4 16-35 15-94c0-66 23-100 70-100zm9 24c-40 0-46 34-46 75 0 40 6 74 45 74 42 0 51-32 51-76 0-42-9-74-50-73" id="Z"/><g id="h"><use transform="matrix(0.06172839506172839,0,0,0.06172839506172839,0,0)" xlink:href="#W"/><use transform="matrix(0.06172839506172839,0,0,0.06172839506172839,11.11111111111111,0)" xlink:href="#R"/><use transform="matrix(0.06172839506172839,0,0,0.06172839506172839,23.45679012345679,0)" xlink:href="#S"/><use transform="matrix(0.06172839506172839,0,0,0.06172839506172839,28.333333333333336,0)" xlink:href="#F"/><use transform="matrix(0.06172839506172839,0,0,0.06172839506172839,33.20987654320988,0)" xlink:href="#Z"/><use transform="matrix(0.06172839506172839,0,0,0.06172839506172839,45.55555555555556,0)" xlink:href="#R"/><use transform="matrix(0.06172839506172839,0,0,0.06172839506172839,57.901234567901234,0)" xlink:href="#G"/><use transform="matrix(0.06172839506172839,0,0,0.06172839506172839,64.07407407407408,0)" xlink:href="#K"/><use transform="matrix(0.06172839506172839,0,0,0.06172839506172839,76.41975308641976,0)" xlink:href="#L"/></g><g id="i"><use transform="matrix(0.06172839506172839,0,0,0.06172839506172839,0,0)" xlink:href="#X"/><use transform="matrix(0.06172839506172839,0,0,0.06172839506172839,18.456790123456788,0)" xlink:href="#F"/><use transform="matrix(0.06172839506172839,0,0,0.06172839506172839,23.33333333333333,0)" xlink:href="#I"/><use transform="matrix(0.06172839506172839,0,0,0.06172839506172839,35.679012345679006,0)" xlink:href="#H"/><use transform="matrix(0.06172839506172839,0,0,0.06172839506172839,48.02469135802468,0)" xlink:href="#L"/></g><path fill="#3a414a" d="M146-102V0H94v-102L6-248h54l60 105 60-105h54" id="aa"/><path fill="#3a414a" d="M110-194c64 0 96 36 96 99 0 64-35 99-97 99-61 0-95-36-95-99 0-62 34-99 96-99zm-1 164c35 0 45-28 45-65 0-40-10-65-43-65-34 0-45 26-45 65 0 36 10 65 43 65" id="ab"/><path fill="#3a414a" d="M85 4C-2 5 27-109 22-190h50c7 57-23 150 33 157 60-5 35-97 40-157h50l1 190h-47c-2-12 1-28-3-38-12 25-28 42-61 42" id="ac"/><path fill="#3a414a" d="M135-150c-39-12-60 13-60 57V0H25l-1-190h47c2 13-1 29 3 40 6-28 27-53 61-41v41" id="ad"/><g id="j"><use transform="matrix(0.06172839506172839,0,0,0.06172839506172839,0,0)" xlink:href="#aa"/><use transform="matrix(0.06172839506172839,0,0,0.06172839506172839,13.148148148148147,0)" xlink:href="#ab"/><use transform="matrix(0.06172839506172839,0,0,0.06172839506172839,26.666666666666664,0)" xlink:href="#ac"/><use transform="matrix(0.06172839506172839,0,0,0.06172839506172839,40.18518518518518,0)" xlink:href="#ad"/></g><path fill="#3a414a" d="M137-138c1-29-70-34-71-4 15 46 118 7 119 86 1 83-164 76-172 9l43-7c4 19 20 25 44 25 33 8 57-30 24-41C81-84 22-81 20-136c-2-80 154-74 161-7" id="ae"/><path fill="#3a414a" d="M135-194c52 0 70 43 70 98 0 56-19 99-73 100-30 1-46-15-58-35L72 0H24l1-261h50v104c11-23 29-37 60-37zM114-30c31 0 40-27 40-66 0-37-7-63-39-63s-41 28-41 65c0 36 8 64 40 64" id="af"/><path fill="#3a414a" d="M135-194c87-1 58 113 63 194h-50c-7-57 23-157-34-157-59 0-34 97-39 157H25l-1-190h47c2 12-1 28 3 38 12-26 28-41 61-42" id="ag"/><path fill="#3a414a" d="M185-48c-13 30-37 53-82 52C43 2 14-33 14-96s30-98 90-98c62 0 83 45 84 108H66c0 31 8 55 39 56 18 0 30-7 34-22zm-45-69c5-46-57-63-70-21-2 6-4 13-4 21h74" id="ah"/><path fill="#3a414a" d="M115-3C79 11 28 4 28-45v-112H4v-33h27l15-45h31v45h36v33H77v99c-1 23 16 31 38 25v30" id="ai"/><g id="k"><use transform="matrix(0.06172839506172839,0,0,0.06172839506172839,0,0)" xlink:href="#ae"/><use transform="matrix(0.06172839506172839,0,0,0.06172839506172839,12.345679012345679,0)" xlink:href="#ac"/><use transform="matrix(0.06172839506172839,0,0,0.06172839506172839,25.864197530864196,0)" xlink:href="#af"/><use transform="matrix(0.06172839506172839,0,0,0.06172839506172839,39.382716049382715,0)" xlink:href="#ag"/><use transform="matrix(0.06172839506172839,0,0,0.06172839506172839,52.901234567901234,0)" xlink:href="#ah"/><use transform="matrix(0.06172839506172839,0,0,0.06172839506172839,65.24691358024691,0)" xlink:href="#ai"/></g><path fill="#3a414a" d="M23 0v-37h61v-169l-59 37v-38l62-41h46v211h57V0H23" id="aj"/><use transform="matrix(0.06172839506172839,0,0,0.06172839506172839,0,0)" xlink:href="#aj" id="l"/><path fill="#3a414a" d="M182-182c0 78-84 86-111 141h115V0H12c-6-101 99-100 120-180 1-22-12-31-33-32-23 0-32 14-35 34l-49-3c5-45 32-70 84-70 51 0 83 22 83 69" id="ak"/><use transform="matrix(0.06172839506172839,0,0,0.06172839506172839,0,0)" xlink:href="#ak" id="m"/><path fill="#3a414a" d="M128-127c34 4 56 21 59 58 7 91-148 94-172 28-4-9-6-17-7-26l51-5c1 24 16 35 40 36 23 0 39-12 38-36-1-31-31-36-65-34v-40c32 2 59-3 59-33 0-20-13-33-34-33s-33 13-35 32l-50-3c6-44 37-68 86-68 50 0 83 20 83 66 0 35-22 52-53 58" id="al"/><use transform="matrix(0.06172839506172839,0,0,0.06172839506172839,0,0)" xlink:href="#al" id="n"/><g id="o"><use transform="matrix(0.06172839506172839,0,0,0.06172839506172839,0,0)" xlink:href="#E"/><use transform="matrix(0.06172839506172839,0,0,0.06172839506172839,14.814814814814813,0)" xlink:href="#F"/><use transform="matrix(0.06172839506172839,0,0,0.06172839506172839,19.691358024691354,0)" xlink:href="#G"/><use transform="matrix(0.06172839506172839,0,0,0.06172839506172839,25.864197530864192,0)" xlink:href="#G"/><use transform="matrix(0.06172839506172839,0,0,0.06172839506172839,32.03703703703703,0)" xlink:href="#H"/><use transform="matrix(0.06172839506172839,0,0,0.06172839506172839,44.38271604938271,0)" xlink:href="#I"/><use transform="matrix(0.06172839506172839,0,0,0.06172839506172839,56.728395061728385,0)" xlink:href="#J"/><use transform="matrix(0.06172839506172839,0,0,0.06172839506172839,67.83950617283949,0)" xlink:href="#K"/><use transform="matrix(0.06172839506172839,0,0,0.06172839506172839,80.18518518518518,0)" xlink:href="#L"/></g><g id="p"><use transform="matrix(0.06172839506172839,0,0,0.06172839506172839,0,0)" xlink:href="#M"/><use transform="matrix(0.06172839506172839,0,0,0.06172839506172839,14.814814814814813,0)" xlink:href="#N"/><use transform="matrix(0.06172839506172839,0,0,0.06172839506172839,29.629629629629626,0)" xlink:href="#O"/></g><path fill="#3a414a" d="M136-208V0H84v-208H4v-40h212v40h-80" id="am"/><path fill="#3a414a" d="M190-63c-7 42-38 67-86 67-59 0-84-38-90-98-12-110 154-137 174-36l-49 2c-2-19-15-32-35-32-30 0-35 28-38 64-6 74 65 87 74 30" id="an"/><path fill="#3a414a" d="M114-157C55-157 80-60 75 0H25v-261h50l-1 109c12-26 28-41 61-42 86-1 58 113 63 194h-50c-7-57 23-157-34-157" id="ao"/><path fill="#3a414a" d="M133-34C117-15 103 5 69 4 32 3 11-16 11-54c-1-60 55-63 116-61 1-26-3-47-28-47-18 1-26 9-28 27l-52-2c7-38 36-58 82-57s74 22 75 68l1 82c-1 14 12 18 25 15v27c-30 8-71 5-69-32zm-48 3c29 0 43-24 42-57-32 0-66-3-65 30 0 17 8 27 23 27" id="ap"/><path fill="#3a414a" d="M25-224v-37h50v37H25zM25 0v-190h50V0H25" id="aq"/><g id="q"><use transform="matrix(0.06172839506172839,0,0,0.06172839506172839,0,0)" xlink:href="#am"/><use transform="matrix(0.06172839506172839,0,0,0.06172839506172839,11.851851851851851,0)" xlink:href="#ah"/><use transform="matrix(0.06172839506172839,0,0,0.06172839506172839,24.19753086419753,0)" xlink:href="#ae"/><use transform="matrix(0.06172839506172839,0,0,0.06172839506172839,36.54320987654321,0)" xlink:href="#ai"/><use transform="matrix(0.06172839506172839,0,0,0.06172839506172839,43.888888888888886,0)" xlink:href="#an"/><use transform="matrix(0.06172839506172839,0,0,0.06172839506172839,56.23456790123456,0)" xlink:href="#ao"/><use transform="matrix(0.06172839506172839,0,0,0.06172839506172839,69.75308641975307,0)" xlink:href="#ap"/><use transform="matrix(0.06172839506172839,0,0,0.06172839506172839,82.09876543209876,0)" xlink:href="#aq"/><use transform="matrix(0.06172839506172839,0,0,0.06172839506172839,88.2716049382716,0)" xlink:href="#ag"/></g><g id="r"><use transform="matrix(0.06172839506172839,0,0,0.06172839506172839,0,0)" xlink:href="#O"/><use transform="matrix(0.06172839506172839,0,0,0.06172839506172839,6.172839506172839,0)" xlink:href="#I"/><use transform="matrix(0.06172839506172839,0,0,0.06172839506172839,18.51851851851852,0)" xlink:href="#Q"/><use transform="matrix(0.06172839506172839,0,0,0.06172839506172839,29.62962962962963,0)" xlink:href="#H"/><use transform="matrix(0.06172839506172839,0,0,0.06172839506172839,41.97530864197531,0)" xlink:href="#I"/><use transform="matrix(0.06172839506172839,0,0,0.06172839506172839,54.32098765432099,0)" xlink:href="#G"/><use transform="matrix(0.06172839506172839,0,0,0.06172839506172839,60.49382716049383,0)" xlink:href="#F"/><use transform="matrix(0.06172839506172839,0,0,0.06172839506172839,65.37037037037037,0)" xlink:href="#W"/><use transform="matrix(0.06172839506172839,0,0,0.06172839506172839,76.48148148148148,0)" xlink:href="#H"/></g><g id="s"><use transform="matrix(0.06172839506172839,0,0,0.06172839506172839,0,0)" xlink:href="#X"/><use transform="matrix(0.06172839506172839,0,0,0.06172839506172839,18.456790123456788,0)" xlink:href="#H"/><use transform="matrix(0.06172839506172839,0,0,0.06172839506172839,30.80246913580247,0)" xlink:href="#Q"/><use transform="matrix(0.06172839506172839,0,0,0.06172839506172839,41.91358024691358,0)" xlink:href="#V"/><use transform="matrix(0.06172839506172839,0,0,0.06172839506172839,54.25925925925926,0)" xlink:href="#R"/><use transform="matrix(0.06172839506172839,0,0,0.06172839506172839,66.60493827160494,0)" xlink:href="#I"/><use transform="matrix(0.06172839506172839,0,0,0.06172839506172839,78.95061728395062,0)" xlink:href="#F"/><use transform="matrix(0.06172839506172839,0,0,0.06172839506172839,83.82716049382717,0)" xlink:href="#J"/><use transform="matrix(0.06172839506172839,0,0,0.06172839506172839,94.93827160493828,0)" xlink:href="#X"/></g><g id="t"><use transform="matrix(0.06172839506172839,0,0,0.06172839506172839,0,0)" xlink:href="#J"/><use transform="matrix(0.06172839506172839,0,0,0.06172839506172839,11.11111111111111,0)" xlink:href="#Y"/><use transform="matrix(0.06172839506172839,0,0,0.06172839506172839,23.45679012345679,0)" xlink:href="#T"/><use transform="matrix(0.06172839506172839,0,0,0.06172839506172839,35.80246913580247,0)" xlink:href="#I"/><use transform="matrix(0.06172839506172839,0,0,0.06172839506172839,48.148148148148145,0)" xlink:href="#H"/><use transform="matrix(0.06172839506172839,0,0,0.06172839506172839,60.49382716049382,0)" xlink:href="#G"/></g><g id="u"><use transform="matrix(0.06172839506172839,0,0,0.06172839506172839,0,0)" xlink:href="#W"/><use transform="matrix(0.06172839506172839,0,0,0.06172839506172839,11.11111111111111,0)" xlink:href="#R"/><use transform="matrix(0.06172839506172839,0,0,0.06172839506172839,23.45679012345679,0)" xlink:href="#S"/><use transform="matrix(0.06172839506172839,0,0,0.06172839506172839,28.333333333333336,0)" xlink:href="#F"/><use transform="matrix(0.06172839506172839,0,0,0.06172839506172839,33.20987654320988,0)" xlink:href="#Z"/><use transform="matrix(0.06172839506172839,0,0,0.06172839506172839,45.55555555555556,0)" xlink:href="#R"/><use transform="matrix(0.06172839506172839,0,0,0.06172839506172839,57.901234567901234,0)" xlink:href="#G"/><use transform="matrix(0.06172839506172839,0,0,0.06172839506172839,64.07407407407408,0)" xlink:href="#K"/><use transform="matrix(0.06172839506172839,0,0,0.06172839506172839,76.41975308641976,0)" xlink:href="#L"/></g><g id="v"><use transform="matrix(0.06172839506172839,0,0,0.06172839506172839,0,0)" xlink:href="#X"/><use transform="matrix(0.06172839506172839,0,0,0.06172839506172839,18.456790123456788,0)" xlink:href="#F"/><use transform="matrix(0.06172839506172839,0,0,0.06172839506172839,23.33333333333333,0)" xlink:href="#I"/><use transform="matrix(0.06172839506172839,0,0,0.06172839506172839,35.679012345679006,0)" xlink:href="#H"/><use transform="matrix(0.06172839506172839,0,0,0.06172839506172839,48.02469135802468,0)" xlink:href="#L"/></g><path fill="#d916a8" d="M146-102V0H94v-102L6-248h54l60 105 60-105h54" id="ar"/><path fill="#d916a8" d="M110-194c64 0 96 36 96 99 0 64-35 99-97 99-61 0-95-36-95-99 0-62 34-99 96-99zm-1 164c35 0 45-28 45-65 0-40-10-65-43-65-34 0-45 26-45 65 0 36 10 65 43 65" id="as"/><path fill="#d916a8" d="M85 4C-2 5 27-109 22-190h50c7 57-23 150 33 157 60-5 35-97 40-157h50l1 190h-47c-2-12 1-28-3-38-12 25-28 42-61 42" id="at"/><path fill="#d916a8" d="M135-150c-39-12-60 13-60 57V0H25l-1-190h47c2 13-1 29 3 40 6-28 27-53 61-41v41" id="au"/><g id="w"><use transform="matrix(0.06172839506172839,0,0,0.06172839506172839,0,0)" xlink:href="#ar"/><use transform="matrix(0.06172839506172839,0,0,0.06172839506172839,13.148148148148147,0)" xlink:href="#as"/><use transform="matrix(0.06172839506172839,0,0,0.06172839506172839,26.666666666666664,0)" xlink:href="#at"/><use transform="matrix(0.06172839506172839,0,0,0.06172839506172839,40.18518518518518,0)" xlink:href="#au"/></g><path fill="#d916a8" d="M137-138c1-29-70-34-71-4 15 46 118 7 119 86 1 83-164 76-172 9l43-7c4 19 20 25 44 25 33 8 57-30 24-41C81-84 22-81 20-136c-2-80 154-74 161-7" id="av"/><path fill="#d916a8" d="M135-194c52 0 70 43 70 98 0 56-19 99-73 100-30 1-46-15-58-35L72 0H24l1-261h50v104c11-23 29-37 60-37zM114-30c31 0 40-27 40-66 0-37-7-63-39-63s-41 28-41 65c0 36 8 64 40 64" id="aw"/><path fill="#d916a8" d="M135-194c87-1 58 113 63 194h-50c-7-57 23-157-34-157-59 0-34 97-39 157H25l-1-190h47c2 12-1 28 3 38 12-26 28-41 61-42" id="ax"/><path fill="#d916a8" d="M185-48c-13 30-37 53-82 52C43 2 14-33 14-96s30-98 90-98c62 0 83 45 84 108H66c0 31 8 55 39 56 18 0 30-7 34-22zm-45-69c5-46-57-63-70-21-2 6-4 13-4 21h74" id="ay"/><path fill="#d916a8" d="M115-3C79 11 28 4 28-45v-112H4v-33h27l15-45h31v45h36v33H77v99c-1 23 16 31 38 25v30" id="az"/><g id="x"><use transform="matrix(0.06172839506172839,0,0,0.06172839506172839,0,0)" xlink:href="#av"/><use transform="matrix(0.06172839506172839,0,0,0.06172839506172839,12.345679012345679,0)" xlink:href="#at"/><use transform="matrix(0.06172839506172839,0,0,0.06172839506172839,25.864197530864196,0)" xlink:href="#aw"/><use transform="matrix(0.06172839506172839,0,0,0.06172839506172839,39.382716049382715,0)" xlink:href="#ax"/><use transform="matrix(0.06172839506172839,0,0,0.06172839506172839,52.901234567901234,0)" xlink:href="#ay"/><use transform="matrix(0.06172839506172839,0,0,0.06172839506172839,65.24691358024691,0)" xlink:href="#az"/></g><path fill="#3a414a" d="M8 0l10-54h51L59 0H8" id="aA"/><use transform="matrix(0.09259259259259256,0,0,0.09259259259259256,0,0)" xlink:href="#aA" id="y"/><use transform="matrix(0.09259259259259256,0,0,0.09259259259259256,0,0)" xlink:href="#aA" id="z"/><use transform="matrix(0.09259259259259256,0,0,0.09259259259259256,0,0)" xlink:href="#aA" id="A"/><path fill="#3a414a" d="M140-251c80 0 125 45 125 126S219 4 139 4C58 4 15-44 15-125s44-126 125-126zm-1 214c52 0 73-35 73-88 0-50-21-86-72-86-52 0-73 35-73 86s22 88 72 88" id="aB"/><g id="B"><use transform="matrix(0.06172839506172839,0,0,0.06172839506172839,0,0)" xlink:href="#aB"/><use transform="matrix(0.06172839506172839,0,0,0.06172839506172839,17.28395061728395,0)" xlink:href="#ai"/><use transform="matrix(0.06172839506172839,0,0,0.06172839506172839,24.629629629629626,0)" xlink:href="#ao"/><use transform="matrix(0.06172839506172839,0,0,0.06172839506172839,38.148148148148145,0)" xlink:href="#ah"/><use transform="matrix(0.06172839506172839,0,0,0.06172839506172839,50.49382716049382,0)" xlink:href="#ad"/></g><g id="C"><use transform="matrix(0.06172839506172839,0,0,0.06172839506172839,0,0)" xlink:href="#ae"/><use transform="matrix(0.06172839506172839,0,0,0.06172839506172839,12.345679012345679,0)" xlink:href="#ac"/><use transform="matrix(0.06172839506172839,0,0,0.06172839506172839,25.864197530864196,0)" xlink:href="#af"/><use transform="matrix(0.06172839506172839,0,0,0.06172839506172839,39.382716049382715,0)" xlink:href="#ag"/><use transform="matrix(0.06172839506172839,0,0,0.06172839506172839,52.901234567901234,0)" xlink:href="#ah"/><use transform="matrix(0.06172839506172839,0,0,0.06172839506172839,65.24691358024691,0)" xlink:href="#ai"/><use transform="matrix(0.06172839506172839,0,0,0.06172839506172839,72.5925925925926,0)" xlink:href="#ae"/></g><path fill="#3a414a" d="M230 0l2-204L168 0h-37L68-204 70 0H24v-248h70l56 185 57-185h69V0h-46" id="aC"/><g id="D"><use transform="matrix(0.06172839506172839,0,0,0.06172839506172839,0,0)" xlink:href="#aC"/><use transform="matrix(0.06172839506172839,0,0,0.06172839506172839,18.456790123456788,0)" xlink:href="#ap"/><use transform="matrix(0.06172839506172839,0,0,0.06172839506172839,30.80246913580247,0)" xlink:href="#aq"/><use transform="matrix(0.06172839506172839,0,0,0.06172839506172839,36.97530864197531,0)" xlink:href="#ag"/><use transform="matrix(0.06172839506172839,0,0,0.06172839506172839,50.49382716049383,0)" xlink:href="#an"/><use transform="matrix(0.06172839506172839,0,0,0.06172839506172839,62.839506172839506,0)" xlink:href="#ao"/><use transform="matrix(0.06172839506172839,0,0,0.06172839506172839,76.35802469135803,0)" xlink:href="#ap"/><use transform="matrix(0.06172839506172839,0,0,0.06172839506172839,88.70370370370371,0)" xlink:href="#aq"/><use transform="matrix(0.06172839506172839,0,0,0.06172839506172839,94.87654320987654,0)" xlink:href="#ag"/></g></defs></g></svg>