<svg width="16.89" height="16.89" viewBox="0 0 21 23" fill="none" xmlns="http://www.w3.org/2000/svg">
<path d="M12.5309 17.7832V8.70318C12.5238 7.60933 12.0844 6.56266 11.3087 5.79143C10.533 5.02019 9.48378 4.58695 8.38991 4.58618V19.0972C8.38387 19.6135 8.48312 20.1256 8.6816 20.6023C8.88007 21.0789 9.17361 21.5102 9.54428 21.8696C9.91496 22.2291 10.355 22.5092 10.8376 22.6929C11.3201 22.8766 11.835 22.9601 12.3509 22.9382C13.3561 23.0064 14.353 22.7174 15.1659 22.1222C12.7769 21.8692 12.5309 20.4292 12.5309 17.7832Z" fill="currentColor"/>
<path d="M3.775 0.787109C2.77152 0.793711 1.81138 1.19698 1.10414 1.9089C0.396901 2.62083 -2.17165e-05 3.5836 8.91144e-10 4.58711H16.893C17.8965 4.58051 18.8566 4.17724 19.5639 3.46531C20.2711 2.75339 20.668 1.79062 20.668 0.787109H3.775Z" fill="currentColor"/>
</svg>
