<svg xmlns="http://www.w3.org/2000/svg" xmlns:xlink="http://www.w3.org/1999/xlink" xmlns:lucid="lucid" width="1527.43" height="1399.99"><g transform="translate(1526.4269275831657 581)" lucid:page-tab-id="0_0"><path d="M-76.3 20.43c0 33.14-31.33 60-70 60-38.65 0-70-26.87-70-60 0-33.14 31.35-60 70-60 38.67 0 70 26.86 70 60zM-76.3 180.43c0 33.13-31.33 60-70 60-38.65 0-70-26.87-70-60 0-33.14 31.35-60 70-60 38.67 0 70 26.86 70 60zM-76.3 438.5c0 33.13-31.33 60-70 60-38.65 0-70-26.87-70-60 0-33.14 31.35-60 70-60 38.67 0 70 26.86 70 60z" stroke="#282c33" stroke-width="2" fill="#dfe3e8"/><path d="M-816.17-51.1a6 6 0 0 1 6-6h54c33.13 0 60 26.87 60 60 0 33.15-26.87 60-60 60h-54a6 6 0 0 1-6-6z" stroke="#282c33" stroke-width="2" fill="#fff"/><use xlink:href="#a" transform="matrix(1,0,0,1,-811.1724553106269,-52.08851315684666) translate(45.7962962962963 45.395833333333336)"/><use xlink:href="#b" transform="matrix(1,0,0,1,-811.1724553106269,-52.08851315684666) translate(17.02469135802469 73.84027777777777)"/><path d="M-816.17-51.1a6 6 0 0 0-6-6h-54c-33.14 0-60 26.87-60 60 0 33.15 26.86 60 60 60h54a6 6 0 0 0 6-6z" stroke="#282c33" stroke-width="2" fill="#fff"/><use xlink:href="#c" transform="matrix(1,0,0,1,-931.1724553106269,-52.08851315684666) translate(34.02969135802469 45.27777777777778)"/><use xlink:href="#d" transform="matrix(1,0,0,1,-931.1724553106269,-52.08851315684666) translate(18.52969135802469 71.94444444444446)"/><path d="M-226.3-33.57a6 6 0 0 1 6-6h148a6 6 0 0 1 6 6v108a6 6 0 0 1-6 6h-148a6 6 0 0 1-6-6z" stroke="#282c33" stroke-width="2" fill-opacity="0"/><use xlink:href="#e" transform="matrix(1,0,0,1,-214.2868029477915,-27.572072819300217) translate(32.81481481481482 35.77777777777778)"/><use xlink:href="#f" transform="matrix(1,0,0,1,-214.2868029477915,-27.572072819300217) translate(60.2962962962963 66)"/><path d="M-816.17 108.9a6 6 0 0 1 6-6h54c33.13 0 60 26.87 60 60 0 33.15-26.87 60-60 60h-54a6 6 0 0 1-6-6z" stroke="#282c33" stroke-width="2" fill="#fff"/><use xlink:href="#g" transform="matrix(1,0,0,1,-811.1724553106269,107.9114868431534) translate(45.83333333333333 45.395833333333336)"/><use xlink:href="#h" transform="matrix(1,0,0,1,-811.1724553106269,107.9114868431534) translate(13.938271604938272 73.84027777777777)"/><use xlink:href="#i" transform="matrix(1,0,0,1,-811.1724553106269,107.9114868431534) translate(20.11111111111111 73.84027777777777)"/><path d="M-816.17 108.9a6 6 0 0 0-6-6h-54c-33.14 0-60 26.87-60 60 0 33.15 26.86 60 60 60h54a6 6 0 0 0 6-6z" stroke="#282c33" stroke-width="2" fill="#fff"/><use xlink:href="#c" transform="matrix(1,0,0,1,-931.1724553106269,107.9114868431534) translate(34.02969135802469 45.27777777777778)"/><use xlink:href="#d" transform="matrix(1,0,0,1,-931.1724553106269,107.9114868431534) translate(18.52969135802469 71.94444444444446)"/><path d="M-226.3 126.43a6 6 0 0 1 6-6h148a6 6 0 0 1 6 6v108a6 6 0 0 1-6 6h-148a6 6 0 0 1-6-6z" stroke="#282c33" stroke-width="2" fill-opacity="0"/><use xlink:href="#e" transform="matrix(1,0,0,1,-214.28680294779156,132.42792718069973) translate(32.81481481481482 35.77777777777778)"/><use xlink:href="#j" transform="matrix(1,0,0,1,-214.28680294779156,132.42792718069973) translate(60.33333333333333 66)"/><path d="M-830.17 340.98a6 6 0 0 1-6-6V248.9a6 6 0 0 1 6-6h40.57a6 6 0 0 1 6 6V335a6 6 0 0 1-6 6z" stroke="#000" stroke-opacity="0" fill="#fff" fill-opacity="0"/><use xlink:href="#k" transform="matrix(6.123233995736766e-17,-1,1,6.123233995736766e-17,-831.1724553106268,335.9761956188463) translate(25.98148148148149 26.708333333333325)"/><use xlink:href="#l" transform="matrix(6.123233995736766e-17,-1,1,6.123233995736766e-17,-831.1724553106268,335.9761956188463) translate(40.7962962962963 26.708333333333325)"/><use xlink:href="#m" transform="matrix(6.123233995736766e-17,-1,1,6.123233995736766e-17,-831.1724553106268,335.9761956188463) translate(55.61111111111111 26.708333333333325)"/><path d="M-816.17 366.98a6 6 0 0 1 6-6h54c33.13 0 60 26.86 60 60 0 33.13-26.87 60-60 60h-54a6 6 0 0 1-6-6z" stroke="#282c33" stroke-width="2" fill="#fff"/><use xlink:href="#n" transform="matrix(1,0,0,1,-811.1724553106269,365.9761956188463) translate(48.33540740740741 48.150666666666666)"/><use xlink:href="#b" transform="matrix(1,0,0,1,-811.1724553106269,365.9761956188463) translate(16.52469135802469 76.25377777777777)"/><path d="M-816.17 366.98a6 6 0 0 0-6-6h-54c-33.14 0-60 26.86-60 60 0 33.13 26.86 60 60 60h54a6 6 0 0 0 6-6z" stroke="#282c33" stroke-width="2" fill="#fff"/><use xlink:href="#c" transform="matrix(1,0,0,1,-931.1724553106269,365.9761956188463) translate(34.02969135802469 45.27777777777778)"/><use xlink:href="#d" transform="matrix(1,0,0,1,-931.1724553106269,365.9761956188463) translate(18.52969135802469 71.94444444444446)"/><path d="M-226.3 384.5a6 6 0 0 1 6-6h148a6 6 0 0 1 6 6v108a6 6 0 0 1-6 6h-148a6 6 0 0 1-6-6z" stroke="#282c33" stroke-width="2" fill-opacity="0"/><use xlink:href="#e" transform="matrix(1,0,0,1,-214.28680294779156,390.49263595639263) translate(32.81481481481482 35.77777777777778)"/><use xlink:href="#o" transform="matrix(1,0,0,1,-214.28680294779156,390.49263595639263) translate(62.33540740740741 65.31733333333334)"/><path d="M-720-479.13a7.68 7.68 0 0 1 5.82-7.46l81.16-20.28a48.74 48.74 0 0 1 11.82-1.45h122.4a48.74 48.74 0 0 1 11.82 1.45l81.16 20.3a7.68 7.68 0 0 1 5.82 7.45v21.6a7.68 7.68 0 0 1-5.82 7.45l-81.16 20.3a48.74 48.74 0 0 1-11.82 1.45h-122.4a48.74 48.74 0 0 1-11.82-1.46l-81.16-20.28a7.68 7.68 0 0 1-5.82-7.45z" stroke="#282c33" stroke-width="2" fill="#fff"/><use xlink:href="#p" transform="matrix(1,0,0,1,-715,-503.33333333333337) translate(63.73456790123457 39.65277777777778)"/><use xlink:href="#q" transform="matrix(1,0,0,1,-715,-503.33333333333337) translate(157.43827160493828 39.65277777777778)"/><path d="M-446.3-439.44l6.74 29.98 8.08 44.95 29.5 198.23 5.9 26.3 5.33 19.82 5 15.9 4.78 13.2 4.6 11.26 4.5 9.78 4.38 8.58 4.33 7.64 4.26 6.86 4.22 6.2 4.2 5.64 4.2 5.17 4.2 4.76 4.25 4.4 4.26 4.08 4.32 3.8 4.4 3.55 4.47 3.3 4.57 3.1 4.7 2.9 4.83 2.72 5 2.54 5.2 2.38 5.4 2.2 5.68 2.03 5.97 1.86 6.3 1.68 6.67 1.48 7.12 1.26 7.63 1.03 7.64.72" stroke="#3a414a" stroke-linejoin="round" fill="none"/><path stroke="#3a414a" stroke-width=".05" fill="#3a414a"/><path d="M-228.9 20.37l-14.43 4.1.34-9.26z" stroke="#3a414a" fill="#3a414a"/><path d="M-721.5-462.4l-14.25.3-16.2 1.03-17.9 1.9-19.87 2.93-22.16 4.24-24.8 5.83-27.9 7.8-31.44 10.23-35.45 13.2-39.9 16.8-44.6 21-49.2 25.76-53.12 30.7-55.53 35.26-55.58 38.64-52.84 40.08-47.54 39.3-40.68 36.6-33.45 32.73-26.77 28.46-21.06 24.34-16.42 20.7-12.8 17.57L-1490.9 8l-7.77 12.82-6.1 11.06-4.77 9.62-3.75 8.4-2.93 7.43-2.3 6.6-1.8 5.9-1.36 5.33-1 4.83-.76 4.4-.5 4.03-.32 3.7-.15 3.46v3.2l.13 3 .23 2.84.34 2.66.43 2.52.5 2.4.6 2.3.66 2.2.73 2.1.8 2.03.87 1.97.95 1.9 1 1.86 1.1 1.8 1.18 1.77 1.26 1.74 1.35 1.7 1.46 1.68 1.55 1.65 1.7 1.64 1.8 1.63 1.93 1.6 2.1 1.6 2.3 1.6 2.5 1.58 2.73 1.6 3 1.55 3.3 1.56 3.68 1.55 4.1 1.52 4.6 1.5 5.18 1.44 5.9 1.4 6.76 1.28 7.82 1.15 9.12.95 7.23.45" stroke="#3a414a" stroke-linejoin="round" fill="none"/><path d="M-721-461.94h-.5l-.03-.94h.53z" stroke="#3a414a" stroke-width=".05" fill="#3a414a"/><path d="M-1418.8 162.86l-14.38 4.22.27-9.27z" stroke="#3a414a" fill="#3a414a"/><path d="M-1130-411.34a6 6 0 0 1 6-6h68a6 6 0 0 1 6 6v39.67a6 6 0 0 1-6 6h-68a6 6 0 0 1-6-6z" stroke="#000" stroke-opacity="0" stroke-width="2" fill="#fff" fill-opacity="0"/><use xlink:href="#r" transform="matrix(1,0,0,1,-1125,-412.33851315684666) translate(12.438271604938276 25.652777777777775)"/><path d="M-260 506.43a6 6 0 0 1 6-6h228a6 6 0 0 1 6 6v48a6 6 0 0 1-6 6h-228a6 6 0 0 1-6-6z" stroke="#000" stroke-opacity="0" stroke-width="2" fill-opacity="0"/><use xlink:href="#s" transform="matrix(1,0,0,1,-255,505.4279271806997) translate(74.25925925925927 30.27777777777778)"/><path d="M-929.9 488.9a6 6 0 0 1 6-6h228a6 6 0 0 1 6 6v48a6 6 0 0 1-6 6h-228a6 6 0 0 1-6-6z" stroke="#000" stroke-opacity="0" stroke-width="2" fill="#fff" fill-opacity="0"/><use xlink:href="#t" transform="matrix(1,0,0,1,-924.8856523628353,487.9114868431534) translate(50.21604938271605 30.27777777777778)"/><use xlink:href="#u" transform="matrix(1,0,0,1,-924.8856523628353,487.9114868431534) translate(126.75925925925925 30.27777777777778)"/><path d="M-830.17 660.98a6 6 0 0 1-6-6V568.9a6 6 0 0 1 6-6h40.57a6 6 0 0 1 6 6V655a6 6 0 0 1-6 6z" stroke="#000" stroke-opacity="0" fill="#fff" fill-opacity="0"/><use xlink:href="#v" transform="matrix(6.123233995736766e-17,-1,1,6.123233995736766e-17,-831.1724553106267,655.9761956188463) translate(25.98148148148149 26.708333333333325)"/><use xlink:href="#w" transform="matrix(6.123233995736766e-17,-1,1,6.123233995736766e-17,-831.1724553106267,655.9761956188463) translate(40.7962962962963 26.708333333333325)"/><use xlink:href="#x" transform="matrix(6.123233995736766e-17,-1,1,6.123233995736766e-17,-831.1724553106267,655.9761956188463) translate(55.61111111111111 26.708333333333325)"/><path d="M-166.57 678.5a6 6 0 0 1-6-6v-86.07a6 6 0 0 1 6-6H-126a6 6 0 0 1 6 6v86.06a6 6 0 0 1-6 6z" stroke="#000" stroke-opacity="0" fill-opacity="0"/><use xlink:href="#v" transform="matrix(6.123233995736766e-17,-1,1,6.123233995736766e-17,-167.5736058955829,673.4926359563926) translate(25.98148148148149 26.708333333333325)"/><use xlink:href="#w" transform="matrix(6.123233995736766e-17,-1,1,6.123233995736766e-17,-167.5736058955829,673.4926359563926) translate(40.7962962962963 26.708333333333325)"/><use xlink:href="#x" transform="matrix(6.123233995736766e-17,-1,1,6.123233995736766e-17,-167.5736058955829,673.4926359563926) translate(55.61111111111111 26.708333333333325)"/><path d="M-166.57 358.5a6 6 0 0 1-6-6v-86.07a6 6 0 0 1 6-6H-126a6 6 0 0 1 6 6v86.06a6 6 0 0 1-6 6z" stroke="#000" stroke-opacity="0" fill-opacity="0"/><use xlink:href="#k" transform="matrix(6.123233995736766e-17,-1,1,6.123233995736766e-17,-167.57360589558294,353.49263595639263) translate(25.98148148148149 26.708333333333325)"/><use xlink:href="#l" transform="matrix(6.123233995736766e-17,-1,1,6.123233995736766e-17,-167.57360589558294,353.49263595639263) translate(40.7962962962963 26.708333333333325)"/><use xlink:href="#m" transform="matrix(6.123233995736766e-17,-1,1,6.123233995736766e-17,-167.57360589558294,353.49263595639263) translate(55.61111111111111 26.708333333333325)"/><path d="M-236.3-153.57a6 6 0 0 1 6-6h158a6 6 0 0 1 6 6v88a6 6 0 0 1-6 6h-158a6 6 0 0 1-6-6z" fill="#fff" fill-opacity="0"/><use xlink:href="#y" transform="matrix(1,0,0,1,-231.28680294779176,-154.57207281930016) translate(20.160493827160494 17.77777777777778)"/><use xlink:href="#z" transform="matrix(1,0,0,1,-231.28680294779176,-154.57207281930016) translate(94.04938271604938 17.77777777777778)"/><use xlink:href="#A" transform="matrix(1,0,0,1,-231.28680294779176,-154.57207281930016) translate(23.740740740740748 47.111111111111114)"/><use xlink:href="#B" transform="matrix(1,0,0,1,-231.28680294779176,-154.57207281930016) translate(83 47.111111111111114)"/><use xlink:href="#C" transform="matrix(1,0,0,1,-231.28680294779176,-154.57207281930016) translate(106.39506172839506 47.111111111111114)"/><use xlink:href="#D" transform="matrix(1,0,0,1,-231.28680294779176,-154.57207281930016) translate(47.16666666666667 76.44444444444446)"/><path d="M-65.8-109.56l1.1.03 1.43.1 1.26.18 1.13.2 1.04.26.94.3.88.3.8.33.75.36.7.37.66.4.6.43.6.45.55.48.53.5.5.55.5.57.45.6.44.66.43.7.4.76.4.82.36.9.34.97.3 1.08.3 1.2.23 1.33.18 1.5.13 1.7.04 1.92-.07 2.22-.22 2.55-.42 2.97-.67 3.47-1 4.03-1.45 4.7-1.95 5.37-2.57 6.04-3.18 6.53-3.73 6.72-4.08 6.53-4.2 6-4.08 5.22-1.07 1.23" stroke="#3a414a" stroke-linejoin="round" fill="none"/><path d="M-65.76-110.03l-.02.95-.5-.02v-.95z" stroke="#3a414a" stroke-width=".05" fill="#3a414a"/><path d="M-86.95-15.62l6.83-13.35 6.55 6.56z" stroke="#3a414a" fill="#3a414a"/><path d="M-446.3-439.44l5.25 23.34 5.16 28.46 4.9 35.6 4.66 49L-411.5-31l3.85 27.94 3.88 21.44 3.9 17.33 3.9 14.5 3.88 12.37 3.9 10.76 3.9 9.5 3.87 8.44 3.9 7.6 3.9 6.9 3.9 6.3 3.94 5.77 4 5.34 4 4.95 4.1 4.6 4.13 4.32 4.23 4.04 4.32 3.8 4.44 3.57 4.56 3.37 4.7 3.2 4.9 3 5.07 2.86 5.3 2.7 5.56 2.52 5.85 2.37 6.18 2.2 6.56 2.04 6.98 1.86 7.5 1.67 8.1 1.44 8.77 1.2 9.58.88 2.3.1" stroke="#3a414a" stroke-linejoin="round" fill="none"/><path stroke="#3a414a" stroke-width=".05" fill="#3a414a"/><path d="M-228.9 180.38l-14.4 4.16.3-9.26z" stroke="#3a414a" fill="#3a414a"/><path d="M-446.3-439.44l5.37 23.82 4.97 27.45 4.36 31.54 3.55 37.13 2.42 45.35.65 59.4-3.08 95.8-13.64 264.13.5 45.42 1.72 32.6 2.43 25.4 2.85 20.7 3.15 17.37 3.35 14.9 3.5 13 3.62 11.48 3.7 10.24 3.78 9.22 3.85 8.4 3.93 7.65 4 7.06 4.05 6.53 4.14 6.07 4.22 5.67 4.3 5.32 4.44 5 4.54 4.72 4.68 4.48 4.83 4.24 4.98 4.03 5.2 3.83 5.4 3.66 5.65 3.48 5.93 3.33 6.25 3.18 6.6 3 7.02 2.85 7.47 2.68 8 2.5 8.65 2.3 9.35 2.07 10.2 1.82 11.2 1.5 12.36 1.14 8.18.4" stroke="#3a414a" stroke-linejoin="round" fill="none"/><path stroke="#3a414a" stroke-width=".05" fill="#3a414a"/><path d="M-228.9 452.85l-14.4 4.25.26-9.27z" stroke="#3a414a" fill="#3a414a"/><path d="M-400-351.17a6 6 0 0 1 6-6h234.2a6 6 0 0 1 6 6v67a6 6 0 0 1-6 6H-394a6 6 0 0 1-6-6z" stroke="#000" stroke-opacity="0" stroke-width="2" fill="#fff" fill-opacity="0"/><use xlink:href="#E" transform="matrix(1,0,0,1,-395,-352.16666666666674) translate(0 26.402777777777775)"/><use xlink:href="#F" transform="matrix(1,0,0,1,-395,-352.16666666666674) translate(18.518518518518515 26.402777777777775)"/><use xlink:href="#G" transform="matrix(1,0,0,1,-395,-352.16666666666674) translate(78.9506172839506 26.402777777777775)"/><use xlink:href="#H" transform="matrix(1,0,0,1,-395,-352.16666666666674) translate(139.44444444444443 26.402777777777775)"/><use xlink:href="#I" transform="matrix(1,0,0,1,-395,-352.16666666666674) translate(181.358024691358 26.402777777777775)"/><use xlink:href="#J" transform="matrix(1,0,0,1,-395,-352.16666666666674) translate(0 53.06944444444444)"/><use xlink:href="#K" transform="matrix(1,0,0,1,-395,-352.16666666666674) translate(88.14814814814814 53.06944444444444)"/><path d="M-620-554a6 6 0 0 1 6-6h118a6 6 0 0 1 6 6v39.67a6 6 0 0 1-6 6h-118a6 6 0 0 1-6-6z" stroke="#000" stroke-opacity="0" stroke-width="2" fill="#fff" fill-opacity="0"/><use xlink:href="#L" transform="matrix(1,0,0,1,-615,-555) translate(4.506172839506178 25.652777777777775)"/><path d="M-446.3-439.43l.23.98m.88 3.9l.45 1.95m.88 3.9l.44 1.96m.88 3.9l.44 1.95m.86 3.92l.44 1.95m.84 3.9l.35 1.98m.7 3.94l.36 1.96m.72 3.94l.36 1.97m.7 3.93l.37 1.97m.72 3.94l.36 1.98m.7 3.94l.03.1.27 1.88m.55 3.96l.27 1.98m.54 3.97l.27 2m.56 3.95l.27 2m.55 3.95l.28 1.98m.55 3.97l.28 1.98m.5 3.97l.2 2m.37 3.97l.2 2m.38 3.98l.2 2m.37 3.97l.2 2m.37 3.98l.2 2m.37 3.97l.2 2m.37 3.98l.2 2m.23 4l.1 2m.22 3.98l.1 2m.22 4l.1 2m.22 4l.1 2m.2 3.98l.12 2m.2 4l.12 2m.2 4l.12 2m.2 4l.03 2m.04 4l.02 2m.05 4l.03 2m.04 4l.03 2m.04 4l.03 2m.04 4l.03 2m.05 4l.02 2m.05 4l.02 2m.05 4l.02 2.02m.05 4v.36l-.06 1.64m-.12 4l-.06 2m-.13 4l-.06 2m-.12 4l-.06 2m-.14 4l-.06 2m-.12 4l-.06 2m-.12 4l-.06 2m-.13 4l-.05 2m-.12 4l-.06 2m-.13 4l-.06 2m-.12 4l-.06 2m-.12 4l-.07 2m-.23 4l-.15 2m-.3 3.98l-.14 2m-.3 3.98l-.14 2m-.3 4l-.14 1.98m-.3 4l-.14 2m-.3 3.98l-.13 2m-.3 4l-.14 1.98m-.3 4l-.15 2m-.3 3.98l-.14 2m-.3 4l-.13 1.98m-.3 4l-.14 2m-.3 3.98l-.14 2m-.3 4l-.15 1.98m-.3 4l-.14 2m-.28 3.98l-.15 2m-.3 4l-.13 1.98m-.36 4l-.2 1.98m-.44 3.98l-.2 2m-.44 3.97l-.2 2m-.44 3.97l-.22 1.98m-.42 3.98l-.22 2m-.43 3.97l-.2 2m-.44 3.97l-.2 2m-.44 3.97l-.22 2m-.43 3.97l-.22 2m-.42 3.96l-.2 2m-.44 3.97l-.2 2m-.44 3.97l-.2 2m-.44 3.97l-.2 2m-.44 3.98l-.22 2m-.42 3.97l-.22 2m-.43 3.97l-.2 1.98m-.44 3.98l-.2 2m-.43 3.97l-.22 2m-.42 3.97l-.22 2m-.42 3.97l-.2 1.98m-.44 3.98l-.2 2m-.44 3.97l-.2 1.98m-.44 4l-.2 1.98m-.44 3.98l-.22 2m-.43 3.97l-.2 2m-.44 3.97l-.2 2m-.44 3.97l-.22 2m-.43 3.96l-.22 2m-.42 3.97l-.2 2m-.44 3.97l-.2 2m-.44 3.97l-.2 2m-.44 3.97l-.2 2m-.44 3.98l-.22 1.98m-.42 3.98l-.22 2m-.43 3.97l-.2 2m-.44 3.98l-.2 2m-.43 3.97l-.22 2m-.42 3.97l-.22 2m-.42 3.97l-.2 1.97m-.44 3.98l-.2 2m-.44 3.97l-.2 2m-.44 3.97l-.2 1.98m-.44 3.98l-.22 2m-.42 3.97l-.22 2m-.43 3.96l-.2 1.98m-.44 3.98l-.22 2m-.43 3.97l-.22 2m-.42 3.97l-.2 2m-.44 3.97l-.2 2m-.44 3.97l-.2 2m-.44 3.97l-.2 2m-.44 3.97l-.22 2m-.42 3.97l-.22 2m-.43 3.97l-.2 2m-.44 3.98l-.2 2m-.43 3.97l-.2 2m-.44 3.97l-.22 1.98m-.4 3.98l-.23 2m-.43 3.97l-.2 2m-.44 3.97l-.2 2m-.44 3.97l-.2 1.98m-.44 3.98l-.22 2m-.43 3.96l-.2 2m-.44 3.97l-.2 1.98m-.44 3.98l-.22 2m-.43 3.97l-.22 2m-.42 3.97l-.2 2m-.44 3.97l-.2 2m-.44 3.96l-.2 2m-.44 3.97l-.2 2m-.44 3.97l-.22 2m-.42 3.97l-.22 2m-.43 3.97l-.2 2m-.33 3.98l-.06 2m-.13 4l-.06 2m-.12 4l-.07 2m-.12 4l-.06 2m-.13 4l-.06 2m-.1 4l-.07 2m-.13 4l-.06 2m-.12 4l-.06 2m-.12 4l.03 2m.04 4l.03 2m.05 4l.02 2m.05 4l.02 2m.04 4l.03 2m.05 4l.02 2m.05 4.02v.4l.1 1.6m.2 4l.1 2m.22 4l.1 1.98m.22 4l.1 2m.2 4l.12 2m.23 4l.2 1.98m.37 3.98l.2 2m.37 3.98l.18 2m.38 3.97l.2 1.98m.4 4l.26 1.97m.55 3.96l.27 2m.55 3.96l.27 1.98m.54 3.97l.3 2m.7 3.92l.35 1.97m.72 3.93l.35 1.97m.72 3.94l.34 1.9.02.07m.87 3.9l.44 1.96m.9 3.9l.43 1.96m.9 3.9l.5 1.93m1.05 3.87l.52 1.93m1.05 3.86l.43 1.63.1.3m1.2 3.83l.6 1.9m1.2 3.82l.6 1.9m1.35 3.78l.68 1.88m1.37 3.77l.68 1.9m1.5 3.7l.77 1.84m1.52 3.7l.34.85.46.98m1.67 3.64l.85 1.8m1.7 3.63l.92 1.78m1.82 3.57l.9 1.78m1.95 3.5l1 1.73m1.97 3.5l1.06 1.68m2.12 3.4l1.05 1.7m2.25 3.3l1.13 1.66m2.3 3.27l1.2 1.6m2.4 3.22l.23.3 1.02 1.27m2.52 3.1l1.26 1.54m2.65 3l1.33 1.5m2.72 2.94l1.4 1.45m2.78 2.86l1.44 1.37m2.9 2.77l.66.63.8.72m3.02 2.63l1.5 1.32m3.1 2.53l1.56 1.25m3.18 2.45l1.6 1.2m3.24 2.35l1.65 1.12m3.32 2.25l1.04.7.62.4m3.4 2.1l1.7 1.05m3.47 2l1.75.98m3.5 1.93l1.8.9m3.56 1.82l1.54.78.25.1m3.64 1.67l1.82.83m3.65 1.6l1.86.75m3.72 1.52l1.57.64.27.1m3.77 1.35l1.9.68m3.76 1.33l1.9.6m3.83 1.2l1.9.6m3.86 1.1l1.93.5m3.86 1.03l1.93.5m3.9.9l1.95.44m3.9.87l1.96.43m3.93.73l1.97.35m3.94.7l1.97.35m3.96.6l2 .28m3.96.53l1.98.28m3.97.53l2 .2m3.98.37l2 .18m3.98.37l2 .18m3.98.28l2 .1m4 .2l2 .1m4 .2l1 .05" stroke="#3a414a" stroke-linejoin="round" fill="none"/><path stroke="#3a414a" stroke-width=".05" fill="#3a414a"/><path d="M-227.9 757.33l-14.36 4.34.2-9.26z" stroke="#3a414a" fill="#3a414a"/><path d="M-353.8 386a6 6 0 0 1 6-6h81.8a6 6 0 0 1 6 6v29a6 6 0 0 1-6 6h-81.81a6 6 0 0 1-6-6z" fill="#fff" fill-opacity="0"/><use xlink:href="#M" transform="matrix(1,0,0,1,-348.8148148148148,385) translate(21.520592592592592 23.270833333333336)"/><use xlink:href="#N" transform="matrix(1,0,0,1,-348.8148148148148,385) translate(28.928 23.270833333333336)"/><use xlink:href="#O" transform="matrix(1,0,0,1,-348.8148148148148,385) translate(51.150222222222226 23.270833333333336)"/><path d="M-1000-365.67c22.1 0 40 17.9 40 40s-17.9 40-40 40h-180c-22.1 0-40-17.9-40-40s17.9-40 40-40z" stroke="#282c33" stroke-width="2" fill="#fff"/><use xlink:href="#P" transform="matrix(1,0,0,1,-1215,-360.67184649018) translate(15 39.65277777777778)"/><use xlink:href="#Q" transform="matrix(1,0,0,1,-1215,-360.67184649018) translate(63.086419753086425 39.65277777777778)"/><use xlink:href="#R" transform="matrix(1,0,0,1,-1215,-360.67184649018) translate(130.8641975308642 39.65277777777778)"/><use xlink:href="#S" transform="matrix(1,0,0,1,-1215,-360.67184649018) translate(203.51851851851853 39.65277777777778)"/><use xlink:href="#T" transform="matrix(1,0,0,1,-1215,-360.67184649018) translate(222.65432098765433 39.65277777777778)"/><path d="M-353.8 126a6 6 0 0 1 6-6h81.8a6 6 0 0 1 6 6v29a6 6 0 0 1-6 6h-81.81a6 6 0 0 1-6-6z" fill="#fff" fill-opacity="0"/><use xlink:href="#M" transform="matrix(1,0,0,1,-348.8148148148148,125) translate(19.518518518518515 23.270833333333336)"/><use xlink:href="#N" transform="matrix(1,0,0,1,-348.8148148148148,125) translate(26.925925925925924 23.270833333333336)"/><use xlink:href="#U" transform="matrix(1,0,0,1,-348.8148148148148,125) translate(49.14814814814815 23.270833333333336)"/><path d="M-1209.1-37.1h112.93v69.26h-112.93z" fill="#fff" fill-opacity="0"/><path d="M-1204.43-1.17h103.55V-3.5h-103.55zM-1183.63-25.43l-.6 2h-4.27c-.64 1.52-1.13 3.23-1.66 5.22-.13.48-.2.87-.2 1.25 0 .94.26 1.35 1 1.35.72 0 1.65-.85 2.12-1.84h.44c-.63 2.15-2.28 3.94-4.1 3.94-1.02 0-1.76-.42-1.76-1.85 0-.94.4-1.87.63-2.56l1.82-5.52h-1.42c-1.5 0-2.9 1.07-3.74 2.42h-.45c.77-1.8 3.05-4.43 5.7-4.43h6.47M-1179.4-20.65c0 .5-.43.9-.94.9-.58 0-.95-.4-.95-.9s.38-1 .96-1c.5 0 .94.5.94 1m-.6 2.47l-1.8 7.2c-.03.1-.03.2-.03.26 0 .14.12.2.26.2.44 0 .55-.24 1.27-1l.25.2c-.7.88-1.68 2.07-2.64 2.07-.55 0-.78-.38-.78-.9 0-.25 0-.63 1.56-6.7.02-.03.04-.17.04-.23 0-.33-.16-.43-.62-.43-.17 0-.4.03-.55.07l-.06-.32M-1169.1-11.37l-.1.12c-.55.67-1.5 1.94-2.53 1.94-.63 0-.8-.47-.8-.92 0-.26.07-.57.13-.8l1.13-4.36c.03-.16.13-.55.13-.83 0-.38-.12-.76-.47-.76-.76 0-2 1.7-2.62 2.63-.7 1.07-1.22 2-1.34 2.4l-.65 2.46h-1.54l1.88-7.4c0-.35-.06-.62-.6-.62-.2 0-.4.05-.55.07l-.04-.3 3.14-.45-1 3.73h.05c.1 0 1.07-1.38 1.1-1.44.8-.98 1.98-2.28 3.17-2.28.87 0 1.1.57 1.1 1.22 0 .5-.12 1-.2 1.38l-1.18 4.57c-.02.03-.02.1-.02.2.02.1.08.26.3.26.47 0 .94-.7 1.22-1.05M-1143.05-20c0 3.82-2.48 6.63-6.2 6.63-3.34 0-5.95-2.72-5.95-6.55 0-3.83 2.48-6.4 6.2-6.4 3.36 0 5.95 2.5 5.95 6.32m-2.48.74c0-1.88-.5-3.78-1.38-4.9-.67-.83-1.44-1.38-2.63-1.38-1.9 0-3.2 1.62-3.2 4.38 0 2.17.45 4.16 1.46 5.65.6.87 1.5 1.36 2.48 1.36 2.05 0 3.27-1.93 3.27-5.12M-1141.62-26.04h2.26c.02-2.2.25-3.2.96-4.44.72-1.23 2.15-1.98 3.9-1.98 1.64 0 2.85.72 2.85 1.7 0 .64-.5 1.14-1.15 1.14-.47 0-.8-.25-1.25-1-.5-.8-.85-1.07-1.46-1.07-1.05 0-1.55.84-1.55 2.46v3.2h3.36v.88h-3.35v8.65c0 2.06.3 2.36 2.56 2.45v.4h-7.15v-.4c2-.1 2.3-.44 2.3-2.46v-8.66h-2.27v-.88M-1108.7-25.43l-3.82 6.64v1.03c0 1.32.28 2.72.94 2.72.33 0 .74-.52 1.27-2.04l.4.2c-.5 2.02-1.4 3.53-2.62 3.53-1 0-1.76-1.13-1.82-2.4h-.05c-.93 1.4-2.36 2.4-4.2 2.4-2.35 0-3.56-2.14-3.56-4.43 0-.6.03-1.13.2-1.82.76-3.22 3.22-6.17 6.2-6.17 2.1 0 3.13 1.83 3.13 3.76l1.77-3.4h2.17m-5.7 4.28c0-1.88-.1-3.8-1.7-3.8-1.57 0-3.75 3.5-3.75 7.88 0 1.57.1 2.9 1.5 2.9 1.75 0 3.3-3.5 3.82-5.03.1-.56.14-1.22.14-1.96M-1185.75 9.94h-.66c-.62-3.03-1.33-3.52-4.25-3.52h-1.63v14.02c0 2.1.4 2.42 2.65 2.53v.53h-8.05v-.53c2.3-.13 2.6-.44 2.6-2.86V6.4h-1.66c-2.92 0-3.67.5-4.22 3.54h-.66l.2-4.68h15.48M-1172.3 17.13c0 3.83-2.48 6.64-6.2 6.64-3.34 0-5.95-2.72-5.95-6.55 0-3.83 2.48-6.4 6.2-6.4 3.36 0 5.95 2.5 5.95 6.3m-2.48.76c0-1.88-.5-3.78-1.38-4.9-.66-.83-1.43-1.38-2.62-1.38-1.9 0-3.2 1.62-3.2 4.38 0 2.17.45 4.16 1.46 5.64.6.88 1.5 1.38 2.48 1.38 2.04 0 3.26-1.93 3.26-5.12M-1164.12 21.38l.36.3c-.9 1.43-1.96 2.1-3.34 2.1-1.6 0-2.42-1.2-2.42-3.5v-8.3h-1.46c-.1-.05-.1-.1-.1-.2 0-.16.15-.32.46-.52.7-.4 1.62-1.43 2.67-2.94.16-.25.38-.5.55-.78.14 0 .2.1.2.36v3.2h2.78v.88h-2.8v7.88c0 1.76.43 2.48 1.44 2.48.6 0 1.05-.25 1.66-.96M-1151.6 21.68v.77c-.84 1.05-1.56 1.32-2.5 1.32-1 0-1.62-.55-1.76-2h-.02c-1.46 1.64-2.8 2-4 2-1.7 0-2.9-1.04-2.9-2.86 0-1.42.86-2.5 1.94-3.22.82-.55 1.84-1.07 4.96-2.23v-1.5c0-1.7-.9-2.46-2.15-2.46-1.1-.02-1.93.6-1.93 1.34 0 .5.16.57.16 1.15 0 .52-.55 1.12-1.26 1.12-.58 0-1.2-.52-1.2-1.27 0-.7.45-1.6 1.42-2.2.77-.5 1.93-.83 3.16-.83 1.55 0 2.6.44 3.26 1.24.66.8.77 1.38.77 3.06v5.26c0 1.27.36 1.82.85 1.82.44 0 .72-.13 1.2-.52m-4.28-1.68v-3.9c-1.7.62-2.84 1.2-3.53 1.83-.67.6-.95 1.27-.95 2.12 0 1.46.83 2.13 1.9 2.13.56 0 1.13-.14 1.6-.45.8-.55.97-.93.97-1.73M-1144.45 23.5h-6.5v-.42c1.73-.13 2.12-.6 2.12-2.12V8.04c0-1.32-.28-1.76-1.16-1.76-.2 0-.57 0-1 .05V5.9c1.9-.48 2.9-.75 4.35-1.22l.13.1V21.1c0 1.52.3 1.87 2.07 1.98v.42M-1121.12 11.7l-.6 2.02h-4.28c-.63 1.5-1.13 3.22-1.65 5.2-.14.5-.2.88-.2 1.27 0 .93.25 1.34 1 1.34.7 0 1.65-.85 2.12-1.84h.44c-.62 2.14-2.28 3.94-4.1 3.94-1 0-1.76-.42-1.76-1.85 0-.95.42-1.88.64-2.57l1.82-5.5h-1.4c-1.53 0-2.9 1.06-3.76 2.4h-.44c.77-1.78 3.06-4.42 5.7-4.42h6.48M-1116.9 16.48c0 .52-.42.9-.94.9-.57 0-.95-.38-.95-.9 0-.5.4-.98.96-.98.52 0 .95.5.95.98m-.58 2.47l-1.82 7.2c-.02.1-.02.2-.02.27 0 .14.12.2.26.2.43 0 .55-.24 1.26-1l.26.2c-.7.88-1.68 2.06-2.65 2.06-.54 0-.78-.37-.78-.9 0-.24 0-.62 1.56-6.68.02-.04.04-.18.04-.24 0-.34-.16-.43-.6-.43-.2 0-.42.04-.56.07l-.06-.3M-1106.6 25.77l-.1.12c-.55.66-1.5 1.93-2.52 1.93-.63 0-.8-.46-.8-.9 0-.27.07-.6.13-.8l1.13-4.37c.04-.16.14-.55.14-.83 0-.38-.12-.75-.47-.75-.76 0-2 1.7-2.6 2.63-.72 1.07-1.24 2-1.36 2.42l-.65 2.45h-1.53l1.88-7.4c0-.35-.06-.63-.6-.63-.2 0-.4.04-.55.06l-.04-.3 3.14-.45-1 3.74h.06c.1 0 1.06-1.4 1.1-1.45.8-1 1.98-2.3 3.16-2.3.87 0 1.1.58 1.1 1.23 0 .5-.1 1-.2 1.38l-1.17 4.57c-.02.04-.02.1-.02.2.02.1.08.27.3.27.47 0 .94-.7 1.22-1.05"/><path d="M-1206.8 129.7h108.32v66.42h-108.3z" fill="#fff" fill-opacity="0"/><path d="M-1202.3 164.15h99.3v-2.24h-99.3zM-1182.2 140.2l-.6 1.94h-4.1c-.6 1.45-1.07 3.1-1.57 5-.13.47-.2.84-.2 1.2 0 .9.25 1.3.96 1.3.68 0 1.58-.8 2.03-1.76h.42c-.6 2.06-2.2 3.77-3.94 3.77-.96 0-1.68-.4-1.68-1.77 0-.9.4-1.8.6-2.45l1.75-5.3h-1.34c-1.46 0-2.78 1.04-3.6 2.34h-.42c.75-1.72 2.94-4.26 5.48-4.26h6.2M-1178.15 144.8c0 .5-.42.87-.9.87-.56 0-.92-.38-.92-.88 0-.48.36-.95.9-.95.5 0 .92.47.92.94m-.57 2.36l-1.74 6.9c-.02.12-.02.2-.02.27 0 .13.1.2.24.2.42 0 .54-.24 1.22-.98l.24.2c-.66.84-1.6 1.98-2.54 1.98-.53 0-.75-.36-.75-.87 0-.23 0-.6 1.5-6.4l.03-.24c0-.32-.15-.4-.6-.4-.16 0-.38.03-.52.06l-.05-.3M-1168.28 153.7l-.1.12c-.52.64-1.43 1.85-2.42 1.85-.6 0-.78-.43-.78-.87 0-.25.08-.55.14-.76l1.08-4.2c.03-.14.13-.52.13-.78 0-.36-.1-.72-.45-.72-.72 0-1.92 1.63-2.5 2.52-.7 1.02-1.18 1.9-1.3 2.3l-.62 2.36h-1.46l1.8-7.1c0-.33-.06-.6-.57-.6-.2 0-.4.05-.53.06l-.04-.28 3.02-.44-.97 3.6h.06c.1 0 1.03-1.34 1.07-1.4.76-.95 1.9-2.2 3.03-2.2.83 0 1.06.55 1.06 1.18 0 .47-.1.95-.2 1.32l-1.13 4.38v.2c0 .1.06.26.27.26.46 0 .9-.7 1.17-1M-1143.3 145.42c0 3.67-2.38 6.37-5.94 6.37-3.2 0-5.7-2.63-5.7-6.3 0-3.68 2.37-6.13 5.94-6.13 3.22 0 5.7 2.4 5.7 6.05m-2.38.7c0-1.8-.47-3.6-1.32-4.7-.63-.78-1.37-1.3-2.5-1.3-1.83 0-3.07 1.54-3.07 4.2 0 2.08.42 3.98 1.4 5.4.58.85 1.43 1.33 2.38 1.33 1.96 0 3.13-1.85 3.13-4.92M-1141.92 139.63h2.16c.03-2.1.24-3.06.93-4.25.7-1.2 2.06-1.9 3.72-1.9 1.58 0 2.74.68 2.74 1.63 0 .62-.47 1.1-1.1 1.1-.46 0-.77-.24-1.2-.96-.47-.76-.8-1.03-1.4-1.03-1 0-1.48.8-1.48 2.37v3.06h3.23v.85h-3.24v8.3c0 1.97.3 2.27 2.46 2.34v.4h-6.87v-.4c1.9-.1 2.2-.42 2.2-2.35v-8.3h-2.17v-.84M-1123.07 154.3l3.06-12.66c.9-3.75 1.5-4.57 3.5-6.32.9-.76 2.04-1.45 3.26-1.45 1.45 0 2.6 1.22 2.6 3 0 1.94-1 4-2.63 4.74v.04c1.08.3 1.48 1.45 1.48 2.7 0 1.74-.78 3.85-1.65 4.96-1.17 1.48-2.9 2.54-5.08 2.54-.66 0-1.13-.1-1.7-.56l-.73 3.23c-.16.75-.47 1.57-.6 1.86h-2.1c.2-.43.46-1.5.6-2.06zm5.78-14.9l-2.68 11.06c.45.48.98.6 1.3.6 3.1 0 4.64-4.77 4.64-7.33 0-.9-.13-1.67-.55-1.67-.5 0-.63.2-1.1.2-.48 0-.85-.25-.85-.57 0-.3.3-.72 1.25-.72.2 0 .8.13 1.16.13 1.16 0 1.58-2.6 1.58-3.27 0-1.2-.45-2.64-1.6-2.64-2 0-2.57 1.95-3.13 4.2M-1184.4 174.8h-.63c-.58-2.9-1.27-3.37-4.07-3.37h-1.56v13.45c0 2 .37 2.33 2.54 2.43v.5h-7.72v-.5c2.2-.12 2.5-.4 2.5-2.74v-13.13h-1.6c-2.8 0-3.5.47-4.04 3.38h-.63l.17-4.48h14.85M-1171.5 181.7c0 3.68-2.38 6.38-5.94 6.38-3.2 0-5.7-2.62-5.7-6.3 0-3.66 2.37-6.12 5.93-6.12 3.22 0 5.7 2.4 5.7 6.05m-2.38.72c0-1.8-.47-3.62-1.32-4.7-.63-.8-1.37-1.32-2.5-1.32-1.83 0-3.08 1.56-3.08 4.2 0 2.1.43 4 1.4 5.42.6.84 1.43 1.32 2.38 1.32 1.96 0 3.12-1.85 3.12-4.92M-1163.65 185.78l.34.3c-.88 1.36-1.88 2-3.2 2-1.54 0-2.33-1.14-2.33-3.36v-7.95h-1.4c-.08-.06-.1-.1-.1-.2 0-.15.15-.3.44-.5.7-.4 1.57-1.36 2.58-2.82.15-.24.37-.47.52-.74.14 0 .2.1.2.36v3.06h2.66v.85h-2.67v7.55c0 1.7.38 2.38 1.36 2.38.58 0 1-.23 1.6-.92M-1151.65 186.07v.74c-.8 1-1.48 1.28-2.38 1.28-.98 0-1.56-.53-1.7-1.93h-.02c-1.4 1.58-2.7 1.93-3.83 1.93-1.64 0-2.78-1-2.78-2.75 0-1.38.82-2.4 1.85-3.1.8-.52 1.76-1.02 4.75-2.13v-1.43c0-1.64-.87-2.38-2.06-2.38-1.07 0-1.86.57-1.86 1.3 0 .46.16.54.16 1.1 0 .5-.53 1.08-1.22 1.08-.55 0-1.13-.5-1.13-1.22 0-.68.42-1.53 1.34-2.1.73-.5 1.84-.8 3.03-.8 1.48 0 2.5.42 3.12 1.2.63.75.74 1.3.74 2.92v5.05c0 1.2.33 1.74.8 1.74.43 0 .7-.13 1.14-.5m-4.1-1.6v-3.74c-1.63.58-2.7 1.14-3.37 1.75-.64.58-.9 1.2-.9 2.03 0 1.4.8 2.04 1.82 2.04.52 0 1.08-.13 1.52-.42.77-.53.93-.9.93-1.66M-1144.8 187.8h-6.22v-.38c1.66-.14 2.03-.58 2.03-2.04v-12.4c0-1.26-.25-1.68-1.1-1.68-.2 0-.55 0-.97.05v-.42c1.82-.45 2.8-.72 4.17-1.17l.13.1v15.65c0 1.47.3 1.8 1.98 1.92v.4M-1122.4 176.5l-.6 1.93h-4.1c-.6 1.45-1.07 3.1-1.57 5-.13.47-.2.84-.2 1.2 0 .9.25 1.3.96 1.3.68 0 1.58-.8 2.03-1.76h.42c-.6 2.06-2.2 3.78-3.94 3.78-.96 0-1.68-.4-1.68-1.78 0-.9.4-1.8.6-2.45l1.76-5.3h-1.35c-1.46 0-2.78 1.04-3.6 2.34h-.42c.75-1.72 2.94-4.26 5.48-4.26h6.2M-1118.35 181.1c0 .48-.42.86-.9.86-.56 0-.92-.38-.92-.87 0-.5.36-.96.9-.96.5 0 .92.47.92.95m-.57 2.36l-1.74 6.9c-.02.1-.02.18-.02.26 0 .13.1.2.24.2.42 0 .54-.24 1.22-.98l.24.2c-.66.84-1.6 1.98-2.54 1.98-.53 0-.75-.36-.75-.87 0-.23 0-.6 1.5-6.4l.03-.23c0-.33-.15-.42-.6-.42-.16 0-.38.04-.52.08l-.05-.3M-1108.48 190l-.1.1c-.52.65-1.43 1.86-2.42 1.86-.6 0-.78-.43-.78-.87 0-.25.08-.56.14-.77l1.08-4.18c.03-.16.13-.53.13-.8 0-.36-.1-.72-.45-.72-.72 0-1.92 1.63-2.5 2.52-.7 1.02-1.18 1.9-1.3 2.3l-.62 2.36h-1.46l1.8-7.08c0-.34-.06-.6-.57-.6-.2 0-.4.04-.53.06l-.04-.3 3.02-.42-.97 3.58h.06c.1 0 1.03-1.33 1.07-1.4.76-.93 1.9-2.18 3.03-2.18.83 0 1.06.54 1.06 1.17 0 .47-.1.95-.2 1.33l-1.13 4.37v.2c0 .1.06.26.27.26.46 0 .9-.7 1.18-1.02"/><path d="M-1206.8 383.9h108.32v66.42h-108.3z" fill="#fff" fill-opacity="0"/><path d="M-1202.3 418.36h99.3v-2.24h-99.3zM-1181.76 395.1l-.58 1.92h-4.1c-.6 1.45-1.08 3.1-1.58 5-.14.47-.2.84-.2 1.2 0 .9.25 1.3.96 1.3.7 0 1.6-.8 2.04-1.77h.42c-.6 2.06-2.2 3.78-3.94 3.78-.97 0-1.7-.4-1.7-1.77 0-.9.4-1.8.62-2.46l1.74-5.28h-1.35c-1.45 0-2.77 1.03-3.6 2.33h-.4c.73-1.72 2.92-4.26 5.46-4.26h6.2M-1177.7 399.67c0 .5-.42.88-.9.88-.56 0-.92-.38-.92-.88 0-.47.36-.94.9-.94.5 0 .92.47.92.94m-.57 2.37l-1.75 6.9v.26c0 .14.1.2.23.2.43 0 .54-.23 1.22-.97l.25.2c-.66.84-1.6 1.98-2.54 1.98-.53 0-.76-.35-.76-.86 0-.23 0-.6 1.5-6.4.02-.05.04-.18.04-.24 0-.32-.14-.4-.58-.4-.17 0-.4.03-.53.06l-.07-.3M-1167.83 408.58l-.1.1c-.53.66-1.43 1.87-2.42 1.87-.6 0-.78-.44-.78-.87 0-.25.08-.55.14-.76l1.1-4.2c.02-.14.12-.52.12-.78 0-.36-.12-.72-.46-.72-.72 0-1.9 1.63-2.5 2.52-.68 1.02-1.17 1.9-1.3 2.3l-.6 2.36h-1.47l1.8-7.1c0-.33-.07-.6-.58-.6-.2 0-.4.04-.53.06l-.05-.28 3.02-.44-.97 3.58h.06c.1 0 1.02-1.32 1.06-1.38.75-.95 1.9-2.2 3.03-2.2.83 0 1.06.55 1.06 1.18 0 .47-.1.94-.2 1.32l-1.12 4.38c-.02.04-.02.1-.02.2.02.1.08.26.3.26.44 0 .9-.7 1.16-1M-1142.85 400.3c0 3.67-2.38 6.36-5.94 6.36-3.2 0-5.7-2.6-5.7-6.3 0-3.66 2.38-6.12 5.94-6.12 3.23 0 5.7 2.4 5.7 6.06m-2.37.7c0-1.8-.47-3.6-1.32-4.7-.63-.8-1.37-1.3-2.5-1.3-1.83 0-3.07 1.54-3.07 4.2 0 2.07.42 3.98 1.4 5.4.58.85 1.42 1.32 2.38 1.32 1.95 0 3.1-1.85 3.1-4.9M-1141.47 394.5h2.16c.02-2.1.23-3.06.92-4.25.68-1.18 2.06-1.9 3.72-1.9 1.6 0 2.75.7 2.75 1.64 0 .6-.48 1.07-1.12 1.07-.45 0-.77-.23-1.2-.95-.46-.76-.8-1.03-1.4-1.03-1 0-1.47.78-1.47 2.34v3.07h3.24v.86h-3.23v8.3c0 1.97.3 2.26 2.47 2.34v.4h-6.87v-.4c1.9-.1 2.2-.42 2.2-2.35v-8.3h-2.17v-.84M-1112.13 396.57l-.37.2c-.66-.94-1.6-1.23-3.17-1.23-1.67 0-3.68 1.16-3.68 3 0 .83.87 1.33 2.06 1.33.57 0 1-.23 1.65-.23.58 0 1 .18 1 .52 0 .45-.26.82-1.13.82-.24 0-1.06-.16-1.6-.16-1.3 0-3.53.88-3.53 2.73 0 1.6 1.7 2.06 3.3 2.06 1.4 0 3.1-.68 4-1.92l.33.26c-1.1 1.56-2.62 2.75-5.55 2.75-3.28 0-4.4-1.33-4.4-2.7 0-1.93 1.3-3.18 3.08-3.63-.92-.3-1.53-.87-1.53-1.74 0-2.14 2.2-3.88 5.94-3.88 1.64 0 3.25.87 3.6 1.82M-1184.4 429.02h-.63c-.58-2.9-1.27-3.38-4.07-3.38h-1.56v13.45c0 2 .37 2.3 2.54 2.42v.5h-7.72v-.5c2.2-.14 2.5-.43 2.5-2.75v-13.13h-1.6c-2.8 0-3.5.47-4.04 3.38h-.63l.17-4.5h14.85M-1171.5 435.92c0 3.67-2.38 6.36-5.94 6.36-3.2 0-5.7-2.6-5.7-6.3 0-3.66 2.37-6.12 5.93-6.12 3.22 0 5.7 2.4 5.7 6.06m-2.38.7c0-1.8-.47-3.6-1.32-4.7-.63-.8-1.37-1.32-2.5-1.32-1.83 0-3.08 1.56-3.08 4.2 0 2.1.43 4 1.4 5.42.6.85 1.43 1.32 2.38 1.32 1.96 0 3.12-1.85 3.12-4.9M-1163.65 439.98l.34.3c-.88 1.37-1.88 2-3.2 2-1.54 0-2.33-1.13-2.33-3.35v-7.96h-1.4c-.08-.05-.1-.1-.1-.18 0-.17.15-.33.44-.5.7-.4 1.57-1.4 2.58-2.84.15-.24.37-.48.52-.74.14 0 .2.08.2.34v3.07h2.66v.84h-2.67v7.56c0 1.7.38 2.38 1.36 2.38.58 0 1-.23 1.6-.92M-1151.65 440.27v.74c-.8 1.02-1.48 1.28-2.38 1.28-.98 0-1.56-.53-1.7-1.93h-.02c-1.4 1.6-2.7 1.93-3.83 1.93-1.64 0-2.78-1-2.78-2.74 0-1.38.82-2.4 1.85-3.1.8-.52 1.76-1.03 4.75-2.14v-1.42c0-1.64-.87-2.38-2.06-2.38-1.07 0-1.86.58-1.86 1.3 0 .47.16.55.16 1.1 0 .5-.53 1.1-1.22 1.1-.55 0-1.13-.52-1.13-1.23 0-.7.42-1.53 1.34-2.1.73-.5 1.84-.8 3.03-.8 1.48 0 2.5.42 3.12 1.18.63.77.74 1.32.74 2.94v5.03c0 1.22.33 1.75.8 1.75.43 0 .7-.13 1.14-.5m-4.1-1.62v-3.72c-1.63.58-2.7 1.13-3.37 1.74-.64.58-.9 1.22-.9 2.04 0 1.4.8 2.03 1.82 2.03.52 0 1.08-.13 1.52-.42.77-.53.93-.9.93-1.67M-1144.8 442.02h-6.22v-.4c1.66-.13 2.03-.58 2.03-2.03v-12.4c0-1.27-.25-1.7-1.1-1.7-.2 0-.55 0-.97.06v-.43c1.82-.45 2.8-.7 4.17-1.16l.13.1v15.65c0 1.45.3 1.8 1.98 1.9v.4M-1122.4 430.7l-.6 1.94h-4.1c-.6 1.45-1.07 3.1-1.57 5-.13.47-.2.84-.2 1.2 0 .9.25 1.3.96 1.3.68 0 1.58-.82 2.03-1.77h.42c-.6 2.06-2.2 3.78-3.94 3.78-.96 0-1.68-.4-1.68-1.77 0-.9.4-1.8.6-2.46l1.76-5.28h-1.35c-1.46 0-2.78 1.03-3.6 2.32h-.42c.75-1.7 2.94-4.25 5.48-4.25h6.2M-1118.35 435.3c0 .5-.42.86-.9.86-.56 0-.92-.38-.92-.87 0-.48.36-.95.9-.95.5 0 .92.47.92.94m-.57 2.36l-1.74 6.9c-.02.1-.02.2-.02.26 0 .14.1.2.24.2.42 0 .54-.23 1.22-.97l.24.2c-.66.84-1.6 1.98-2.54 1.98-.53 0-.75-.36-.75-.88 0-.22 0-.58 1.5-6.4l.03-.23c0-.32-.15-.42-.6-.42-.16 0-.38.04-.52.08l-.05-.3M-1108.48 444.2l-.1.1c-.52.66-1.43 1.87-2.42 1.87-.6 0-.78-.44-.78-.87 0-.25.08-.55.14-.76l1.08-4.2c.03-.14.13-.52.13-.78 0-.36-.1-.72-.45-.72-.72 0-1.92 1.63-2.5 2.52-.7 1.02-1.18 1.9-1.3 2.3l-.62 2.36h-1.46l1.8-7.1c0-.33-.06-.6-.57-.6-.2 0-.4.04-.53.06l-.04-.28 3.02-.44-.97 3.58h.06c.1 0 1.03-1.32 1.07-1.38.76-.95 1.9-2.2 3.03-2.2.83 0 1.06.55 1.06 1.18 0 .47-.1.94-.2 1.32l-1.13 4.38v.2c0 .1.06.25.27.25.46 0 .9-.7 1.18-1"/><path d="M-1416.17 143.08a6 6 0 0 1 6-6h68a6 6 0 0 1 6 6v39.66a6 6 0 0 1-6 6h-68a6 6 0 0 1-6-6z" stroke="#000" stroke-width="2" fill="#fff" fill-opacity="0"/><use xlink:href="#E" transform="matrix(1,0,0,1,-1411.172455310627,142.07815350982008) translate(3.7654320987654373 25.652777777777775)"/><use xlink:href="#V" transform="matrix(1,0,0,1,-1411.172455310627,142.07815350982008) translate(22.283950617283953 25.652777777777775)"/><path d="M-1376.17 135.58V8.9a6 6 0 0 1 6-6h117.6" stroke="#3a414a" fill="none"/><path d="M-1375.7 136.08h-.95v-.52h.95z" stroke="#3a414a" stroke-width=".05" fill="#3a414a"/><path d="M-1237.8 2.9l-14.26 4.65v-9.27z" stroke="#3a414a" fill="#3a414a"/><path d="M-1075.67-2.47h122.38M-1075.66-2.47h-.5" stroke="#3a414a" fill="none"/><path d="M-938.52-2.47l-14.27 4.64V-7.1z" stroke="#3a414a" fill="#3a414a"/><path d="M-1075.67 420.98h122.1M-1075.66 420.98h-.5" stroke="#3a414a" fill="none"/><path d="M-938.8 420.98l-14.26 4.63v-9.26z" stroke="#3a414a" fill="#3a414a"/><path d="M-1334.67 162.9h82.1" stroke="#3a414a" fill="none"/><path d="M-1334.66 163.4h-.5v-.96h.5z" stroke="#3a414a" stroke-width=".05" fill="#3a414a"/><path d="M-1237.8 162.9l-14.26 4.65v-9.27z" stroke="#3a414a" fill="#3a414a"/><path d="M-1075.67 162.9h122.1M-1075.66 162.9h-.5" stroke="#3a414a" fill="none"/><path d="M-938.8 162.9l-14.26 4.65v-9.27z" stroke="#3a414a" fill="#3a414a"/><path d="M-1376.17 190.25V411.8a6 6 0 0 0 6 6h113.8" stroke="#3a414a" fill="none"/><path d="M-1375.7 190.26h-.95v-.5h.95z" stroke="#3a414a" stroke-width=".05" fill="#3a414a"/><path d="M-1241.62 417.82l-14.26 4.63v-9.27z" stroke="#3a414a" fill="#3a414a"/><path d="M-1079 19.2V489" stroke="#000" stroke-opacity="0" stroke-width=".2" stroke-linecap="round" fill="none"/><path d="M-353.8-55a6 6 0 0 1 6-6h81.8a6 6 0 0 1 6 6v29a6 6 0 0 1-6 6h-81.81a6 6 0 0 1-6-6z" fill="#fff" fill-opacity="0"/><use xlink:href="#M" transform="matrix(1,0,0,1,-348.8148148148148,-56) translate(19.481481481481477 23.270833333333336)"/><use xlink:href="#N" transform="matrix(1,0,0,1,-348.8148148148148,-56) translate(26.888888888888886 23.270833333333336)"/><use xlink:href="#W" transform="matrix(1,0,0,1,-348.8148148148148,-56) translate(49.111111111111114 23.270833333333336)"/><path d="M-1376.17 190.25v1m0 4v2m0 4v2m0 4v2m0 4v2m0 4v2m0 4v2m0 4.02v2m0 4v2m0 4v2m0 4v2m0 4v2m0 4v2m0 4.02v2m0 4v2m0 4v2m0 4v2m0 4v2m0 4v2m0 4v2m0 4v2m0 4v2m0 4.02v2m0 4v2m0 4v2m0 4v2m0 4v2m0 4v2m0 4.02v2m0 4v2m0 4v2m0 4v2m0 4v2m0 4v2m0 4.02v2m0 4v2m0 4v2m0 4v2m0 4v2m0 4v2m0 4v2.02m0 4v2m0 4v2m0 4v2m0 4v2m0 4v2m0 4v2m0 4.02v2m0 4v2m0 4v2m0 4v2m0 4v2m0 4v2.02m0 4v2m0 4v2m0 4v2m0 4v2m0 4v2m0 4v2m0 4.02v2m0 4v2m0 4v2m0 4v2m0 4v2m0 4v2m0 4.02v2m0 4v2m0 4v2m0 4v2m0 4v2m0 4v2m0 4.02v2m0 4v2m0 4v2m0 4v2m0 4v2m0 4v2m0 4.02v2m0 4v2m0 4v2m0 4v2m0 4v2m0 4v2m0 4v2.02m0 4v2m0 4v2m0 4v2m0 4v2m0 4v1l.06.8m1.17 2.86l.52.6.58.5m2.87 1.2l.78.05h1m4 0h2m3.98 0h2m4 0h2m4 0h1.98m4 0h2m3.98 0h2m4 0h2m3.98 0h2m4 0h2m3.98 0h2m4 0h1.98m4 0h2m3.98 0h2m4 0h2m3.98 0h2m4 0h2m3.98 0h2m4 0h1.98m4 0h1" stroke="#3a414a" fill="none"/><path d="M-1375.7 190.26h-.95v-.5h.95z" stroke="#3a414a" stroke-width=".05" fill="#3a414a"/><path d="M-1241.62 724.53l-14.26 4.64v-9.27z" stroke="#3a414a" fill="#3a414a"/><path d="M-220.3 798.5a6 6 0 0 1-6-6v-86.07a6 6 0 0 1 6-6h100.6a6 6 0 0 1 6 6v86.06a6 6 0 0 1-6 6z" stroke="#000" stroke-opacity="0" fill-opacity="0"/><g><path d="M-923.9 780.98a6 6 0 0 1-6-6V688.9a6 6 0 0 1 6-6h134.3a6 6 0 0 1 6 6V775a6 6 0 0 1-6 6z" stroke="#000" stroke-opacity="0" fill-opacity="0"/></g><g><path d="M-1190.17 660.98a6 6 0 0 1-6-6V568.9a6 6 0 0 1 6-6h40.57a6 6 0 0 1 6 6V655a6 6 0 0 1-6 6z" stroke="#000" stroke-opacity="0" fill="#fff" fill-opacity="0"/></g><g><use xlink:href="#v" transform="matrix(6.123233995736766e-17,-1,1,6.123233995736766e-17,-1191.172455310627,655.9761956188463) translate(25.98148148148149 26.708333333333325)"/><use xlink:href="#w" transform="matrix(6.123233995736766e-17,-1,1,6.123233995736766e-17,-1191.172455310627,655.9761956188463) translate(40.7962962962963 26.708333333333325)"/><use xlink:href="#x" transform="matrix(6.123233995736766e-17,-1,1,6.123233995736766e-17,-1191.172455310627,655.9761956188463) translate(55.61111111111111 26.708333333333325)"/></g><path d="M-560-426.83l-.22 10-.6 9.8-.98 9.2-1.28 8.68-1.57 8.27-1.86 7.93-2.15 7.65-2.42 7.44-2.7 7.28-3.02 7.18-3.36 7.15-3.75 7.17-4.22 7.3-4.75 7.48-5.45 7.83-6.37 8.38-7.68 9.3-9.92 11-15.2 15.45-56.38 54.73-9.9 11-7.7 9.3-6.37 8.37-5.45 7.83-4.76 7.5-4.2 7.28-3.76 7.17-3.36 7.15-3.02 7.18-2.7 7.28-2.42 7.44-2.14 7.65-1.86 7.93-1.58 8.27-1.28 8.7-.96 9.17-.25 3.94" stroke="#3a414a" stroke-linejoin="round" fill="none"/><path d="M-559.54-426.8l-.95-.02.02-.5h.96z" stroke="#3a414a" stroke-width=".05" fill="#3a414a"/><path d="M-756.1-59.7l-4.14-14.43 9.27.33z" stroke="#3a414a" fill="#3a414a"/><path d="M-560-426.83l3.4 252.16-2 32.2-2.66 25.52-3.16 21.47-3.57 18.73-3.9 16.74-4.26 15.23-4.57 14.07-4.88 13.13-5.2 12.38-5.55 11.78-5.9 11.28-6.27 10.87-6.7 10.55-7.15 10.3-7.67 10.1-8.24 9.96-8.9 9.88-9.64 9.84-10.5 9.85-11.46 9.9-12.62 10-.7.5" stroke="#3a414a" stroke-linejoin="round" fill="none"/><path d="M-559.52-426.82h-.95v-.5h.95z" stroke="#3a414a" stroke-width=".05" fill="#3a414a"/><path d="M-704.03 128.28l8.8-12.13 5.46 7.5z" stroke="#3a414a" fill="#3a414a"/><path d="M-560-426.82l5.53 372.46-2.83 45.5-3.87 37.05-4.73 32.1-5.5 28.88-6.25 26.67-7 25.12-7.8 24.02-8.67 23.27-9.6 22.83-10.64 22.63-11.85 22.65-13.23 22.9-14.82 23.34-16.72 24.04-18.98 25-8.8 10.68" stroke="#3a414a" stroke-linejoin="round" fill="none"/><path d="M-559.52-426.82l-.95.02v-.53h.95z" stroke="#3a414a" stroke-width=".05" fill="#3a414a"/><path d="M-715.14 373.74l5.5-13.96 7.14 5.9z" stroke="#3a414a" fill="#3a414a"/><path d="M-560.02-426.82l-.03 1m-.15 4l-.07 1.98m-.15 4l-.07 1.98m-.13 4l-.08 1.98m-.15 4l-.07 2m-.15 3.98l-.07 2m-.15 3.98l-.06 2m-.14 3.98l-.08 2m-.14 3.98l-.07 2m-.14 3.98l-.07 2m-.15 4l-.08 1.98m-.14 4l-.07 1.98m-.15 4l.03 2m.02 3.98v2m.04 3.98v2m.02 4v2m.04 3.98v2m.04 3.98v2m.03 4v1.98m.04 4v2m.04 3.98l.02 2m.02 4v1.98m.04 4v2m.03 3.98l.03 2m.02 3.98v2m.04 4v2m.02 3.98v2m.04 3.98v2m.04 4v1.98m.1 4l.1 2m.2 3.97l.1 2m.2 4l.1 1.98m.2 4l.12 1.98m.2 4l.1 1.98m.2 4l.1 1.98m.22 3.98l.1 2m.2 3.98l.1 2m.2 3.98l.12 2m.2 3.98l.1 2m.2 3.98l.1 2m.22 3.97l.1 2m.2 3.97l.1 2m.2 3.98l.1 2m.22 3.98l.1 2m.2 3.98l.1 2m.22 4l.1 1.98m.2 4l.1 1.98m.2 3.98l.1 2m.22 3.98l.1 2m.2 3.98l.1 2m.2 3.98l.12 2m.2 3.98l.1 2m.2 3.97l.1 2m.22 3.98l.1 2m.2 4l.1 1.98m.2 4l.12 1.98m.2 4l.1 1.98m.2 4l.1 1.98m.22 3.98l.1 2m.2 3.98l.1 2m.2 3.98l.12 2m.2 3.98l.1 2m.2 3.98l.1 2m.22 3.98l.1 2m.2 3.97l.1 2m.2 3.98l.12 2m.22 3.98l.1 2m.24 3.98l.12 2m.23 3.98l.1 2m.23 3.98l.12 2m.23 3.98l.1 2m.24 3.97l.12 2m.23 4l.1 1.98m.24 3.98l.13 2m.23 3.98l.1 2m.24 3.98l.12 2m.23 3.97l.1 1.98m.24 4l.1 1.98m.24 4l.1 1.98m.24 3.98l.12 2m.23 3.98l.1 2m.24 3.97l.12 2m.22 3.98l.1 2m.24 3.98l.12 2m.23 3.97l.12 2m.23 3.98l.12 2m.23 3.98l.1 2m.24 3.97l.12 2m.23 3.98l.1 2m.23 3.98l.12 2m.23 3.98l.1 2m.24 3.98l.12 2m.23 3.97l.1 2m.24 4l.13 1.98m.23 4l.1 1.98m.24 3.98l.12 2m.23 3.98l.1 2m.24 3.97l.1 2m.24 3.97l.1 2m.24 3.98l.12 2m.23 3.97l.1 2m.24 3.98l.1 2m.25 3.98l.1 2m.24 3.97l.12 2m.23 3.98l.12 2m.23 3.97l.12 2m.22 3.98l.1 2m.24 3.98l.12 2m.22 3.97l.12 2m.23 3.98l.1 2m.24 4l.12 1.98m.22 3.98l.1 2m.24 3.98l.12 2m.23 3.98l.12 2m.23 3.97l.12 1.98m.23 4l.1 1.98m.24 4l.12 1.98m.07 4v1.98m.04 4v2m.04 3.98l.02 2m.02 3.98l.02 2m.02 4v2m.04 3.98v2m.04 3.98v2m.04 4v1.98m.03 4l.02 2m.02 3.98v2m.04 4l.02 1.98m.03 4v2m.03 3.98l.02 2m.02 4v1.98m-.12 4l-.07 1.98m-.14 4l-.1 2m-.13 3.97l-.07 2m-.15 3.98l-.07 2m-.14 3.98l-.08 2m-.14 3.98l-.07 2m-.15 3.98l-.07 2m-.14 3.98l-.08 2m-.15 4l-.07 1.98m-.2 4l-.17 1.98m-.3 3.97l-.17 2m-.3 3.97l-.16 2m-.32 3.97l-.15 2m-.3 3.97l-.17 2m-.3 3.97l-.17 2m-.32 3.97l-.16 2m-.37 3.96l-.24 2m-.47 3.95l-.24 1.98m-.5 3.96l-.23 1.98m-.48 3.96l-.25 2m-.47 3.95l-.24 2m-.48 3.95l-.22 1.82-.03.16m-.63 3.94l-.33 1.97m-.64 3.94l-.32 1.96m-.65 3.94l-.32 1.97m-.63 3.94l-.33 1.96m-.67 3.93l-.4 1.95m-.82 3.9l-.4 1.96m-.8 3.92l-.42 1.95m-.8 3.9l-.4 1.96m-.9 3.9l-.48 1.93m-.97 3.87l-.5 1.94m-.96 3.87l-.5 1.93m-.96 3.87l-.03.14-.53 1.78m-1.13 3.82l-.57 1.92m-1.13 3.82l-.57 1.9m-1.15 3.84l-.65 1.88m-1.3 3.78l-.64 1.9m-1.3 3.76l-.64 1.9m-1.42 3.72l-.72 1.86m-1.45 3.72l-.73 1.86m-1.5 3.7l-.8 1.82m-1.6 3.65l-.8 1.84m-1.65 3.64l-.87 1.8m-1.76 3.58l-.88 1.8m-1.8 3.54l-.96 1.76m-1.9 3.5l-.96 1.76m-2 3.45l-1.03 1.7m-2.06 3.43l-.6 1.02-.45.68m-2.2 3.33l-1.1 1.67m-2.24 3.3l-1.17 1.62m-2.34 3.24l-.74 1.03-.45.56m-2.46 3.14l-1.22 1.57m-2.54 3.08l-1.3 1.5m-2.6 3.04l-1.36 1.45m-2.72 2.92l-.98 1.05-.4.4m-2.84 2.8l-1.4 1.4m-2.94 2.72l-1.48 1.34m-3 2.63l-1.53 1.3m-3.08 2.53l-1.6 1.22m-3.15 2.42l-.57.44-1.05.75m-3.26 2.3l-1.5 1.03-.15.1m-3.36 2.15l-1.7 1.08m-3.42 2.05l-1.72 1m-3.5 1.95l-1.75.93m-3.53 1.84l-1.8.86m-3.6 1.72l-.62.3-1.2.5m-3.68 1.57l-1.84.78m-3.73 1.4l-1.87.72m-3.76 1.33l-1.9.62m-3.78 1.25l-1.94.55m-3.83 1.1l-1.92.53m-3.87.94l-.97.24" stroke="#3a414a" stroke-linejoin="round" fill="none"/><path d="M-559.54-426.8l-.95-.02.02-.5h.96z" stroke="#3a414a" stroke-width=".05" fill="#3a414a"/><path d="M-718.4 719.68l13.06-7.35 1.83 9.1z" stroke="#3a414a" fill="#3a414a"/><path d="M-836.17-141.16a6 6 0 0 1 6-6h81.8a6 6 0 0 1 6 6v29a6 6 0 0 1-6 6h-81.8a6 6 0 0 1-6-6z" fill="#fff" fill-opacity="0"/><g><use xlink:href="#M" transform="matrix(1,0,0,1,-831.1724553106269,-142.16058597614682) translate(19.481481481481477 23.270833333333336)"/><use xlink:href="#N" transform="matrix(1,0,0,1,-831.1724553106269,-142.16058597614682) translate(26.888888888888886 23.270833333333336)"/><use xlink:href="#W" transform="matrix(1,0,0,1,-831.1724553106269,-142.16058597614682) translate(49.111111111111114 23.270833333333336)"/></g><path d="M-747.68 71.9a6 6 0 0 1 6-6h81.82a6 6 0 0 1 6 6v29a6 6 0 0 1-6 6h-81.82a6 6 0 0 1-6-6z" fill="#fff" fill-opacity="0"/><g><use xlink:href="#M" transform="matrix(1,0,0,1,-742.6772132177279,70.90780482134971) translate(19.518518518518515 23.270833333333336)"/><use xlink:href="#N" transform="matrix(1,0,0,1,-742.6772132177279,70.90780482134971) translate(26.925925925925924 23.270833333333336)"/><use xlink:href="#U" transform="matrix(1,0,0,1,-742.6772132177279,70.90780482134971) translate(49.14814814814815 23.270833333333336)"/></g><path d="M-763.08 308.9a6 6 0 0 1 6-6h81.82a6 6 0 0 1 6 6v29a6 6 0 0 1-6 6h-81.82a6 6 0 0 1-6-6z" fill="#fff" fill-opacity="0"/><g><use xlink:href="#M" transform="matrix(1,0,0,1,-758.0798627180343,307.9114868431534) translate(21.520592592592592 23.270833333333336)"/><use xlink:href="#N" transform="matrix(1,0,0,1,-758.0798627180343,307.9114868431534) translate(28.928 23.270833333333336)"/><use xlink:href="#O" transform="matrix(1,0,0,1,-758.0798627180343,307.9114868431534) translate(51.150222222222226 23.270833333333336)"/></g><path d="M-516.17-365.67c22.1 0 40 17.9 40 40s-17.9 40-40 40h-180c-22.1 0-40-17.9-40-40s17.9-40 40-40z" stroke="#282c33" stroke-width="2" fill="#fff"/><g><use xlink:href="#P" transform="matrix(1,0,0,1,-731.1724553106269,-360.67184649018) translate(8.518518518518519 39.65277777777778)"/><use xlink:href="#Q" transform="matrix(1,0,0,1,-731.1724553106269,-360.67184649018) translate(56.604938271604944 39.65277777777778)"/><use xlink:href="#R" transform="matrix(1,0,0,1,-731.1724553106269,-360.67184649018) translate(124.38271604938272 39.65277777777778)"/><use xlink:href="#X" transform="matrix(1,0,0,1,-731.1724553106269,-360.67184649018) translate(197.03703703703707 39.65277777777778)"/><use xlink:href="#T" transform="matrix(1,0,0,1,-731.1724553106269,-360.67184649018) translate(229.1358024691358 39.65277777777778)"/></g><path d="M-660-402.83a6 6 0 0 1 6-6h68a6 6 0 0 1 6 6v39.66a6 6 0 0 1-6 6h-68a6 6 0 0 1-6-6z" stroke="#000" stroke-opacity="0" stroke-width="2" fill="#fff" fill-opacity="0"/><g><use xlink:href="#Y" transform="matrix(1,0,0,1,-655,-403.83333333333337) translate(6.04938271604939 25.652777777777775)"/></g><path d="M-433.8-394.25a6 6 0 0 1 6-6h68a6 6 0 0 1 6 6v39.67a6 6 0 0 1-6 6h-68a6 6 0 0 1-6-6z" stroke="#000" stroke-opacity="0" stroke-width="2" fill="#fff" fill-opacity="0"/><g><use xlink:href="#Y" transform="matrix(1,0,0,1,-428.8148148148148,-395.25) translate(6.04938271604939 25.652777777777775)"/></g><path d="M-1050-205.26a6 6 0 0 1 6-6h184.92a6 6 0 0 1 6 6v67.76a6 6 0 0 1-6 6H-1044a6 6 0 0 1-6-6z" stroke="#000" stroke-opacity="0" stroke-width="2" fill="#fff" fill-opacity="0"/><g><use xlink:href="#Z" transform="matrix(1,0,0,1,-1045,-206.26385042578985) translate(0 17.777777777777775)"/><use xlink:href="#aa" transform="matrix(1,0,0,1,-1045,-206.26385042578985) translate(34.50617283950616 17.777777777777775)"/><use xlink:href="#ab" transform="matrix(1,0,0,1,-1045,-206.26385042578985) translate(0 44.44444444444444)"/><use xlink:href="#ac" transform="matrix(1,0,0,1,-1045,-206.26385042578985) translate(104.75308641975306 44.44444444444444)"/><use xlink:href="#F" transform="matrix(1,0,0,1,-1045,-206.26385042578985) translate(0 71.1111111111111)"/><use xlink:href="#ad" transform="matrix(1,0,0,1,-1045,-206.26385042578985) translate(60.43209876543209 71.1111111111111)"/></g><path d="M-1079.2-284.17l-.26 10.3-2.98 53.53.15 7.22.36 5.37.47 4.23.53 3.48.6 2.92.6 2.5.65 2.18.67 1.9.66 1.7.68 1.54.7 1.38.7 1.25.7 1.15.72 1.06.73.98.74.9.75.85.77.8.8.73.8.7.83.66.86.62.9.58.94.55.34.2" stroke="#3a414a" stroke-linejoin="round" fill="none"/><path d="M-1078.74-284.15l-.95-.02.03-.5h.95z" stroke="#3a414a" stroke-width=".05" fill="#3a414a"/><path d="M-1051.58-171.73l-14.93 1.4 2-9.03z" stroke="#3a414a" fill="#3a414a"/><path d="M-908.35-272.17a6 6 0 0 1 6-6h184.92a6 6 0 0 1 6 6v67.77a6 6 0 0 1-6 6h-184.92a6 6 0 0 1-6-6z" stroke="#000" stroke-opacity="0" stroke-width="2" fill="#fff" fill-opacity="0"/><g><use xlink:href="#Z" transform="matrix(1,0,0,1,-903.3457210038182,-273.16666666666674) translate(0 26.527777777777775)"/><use xlink:href="#ae" transform="matrix(1,0,0,1,-903.3457210038182,-273.16666666666674) translate(34.50617283950616 26.527777777777775)"/><use xlink:href="#af" transform="matrix(1,0,0,1,-903.3457210038182,-273.16666666666674) translate(84.62962962962962 26.527777777777775)"/><use xlink:href="#H" transform="matrix(1,0,0,1,-903.3457210038182,-273.16666666666674) translate(0 53.19444444444444)"/><use xlink:href="#ae" transform="matrix(1,0,0,1,-903.3457210038182,-273.16666666666674) translate(41.91358024691357 53.19444444444444)"/><use xlink:href="#ad" transform="matrix(1,0,0,1,-903.3457210038182,-273.16666666666674) translate(92.03703703703702 53.19444444444444)"/></g><path d="M-737.67-325.65l-9.08.3-8.88.92-7.9 1.37-6.86 1.67-5.87 1.9-5.02 1.98-4.28 2.05-3.68 2.08-3.17 2.1-2.75 2.1-2.4 2.1-2.07 2.12-1.84 2.13-1.6 2.14-1.4 2.17-1.24 2.23-1 2.17" stroke="#3a414a" stroke-linejoin="round" fill="none"/><path d="M-737.17-325.7v.5l-.5.02-.03-.95.56-.02z" stroke="#3a414a" stroke-width=".05" fill="#3a414a"/><path d="M-809.57-279.75l-1.8-14.9 9.1 1.8z" stroke="#3a414a" fill="#3a414a"/><path d="M-1240 559.5v-699M-1240 559.5v.5M-1240-139.5v-.5" stroke="#000" stroke-opacity="0" fill="none"/><g><path d="M-1234 773.56a6 6 0 0 1-6-6V681.5a6 6 0 0 1 6-6h120.57a6 6 0 0 1 6 6v86.06a6 6 0 0 1-6 6z" stroke="#000" stroke-opacity="0" fill-opacity="0"/></g><defs><path d="M160 0c-6-11-7-31-12-42-11 26-28 46-63 46-53 0-69-39-70-98-1-60 21-100 75-100 34 0 52 20 62 45 3-14 7-29 13-41h33c-28 48-32 137-6 190h-32zM94-170c-40-2-46 34-46 75 0 39 4 76 44 74 69-3 71-145 2-149" id="ag"/><use transform="matrix(0.07407407407407408,0,0,0.07407407407407408,0,0)" xlink:href="#ag" id="a"/><path fill="#3a414a" d="M114-163C36-179 61-72 57 0H25l-1-190h30c1 12-1 29 2 39 6-27 23-49 58-41v29" id="ah"/><path fill="#3a414a" d="M100-194c63 0 86 42 84 106H49c0 40 14 67 53 68 26 1 43-12 49-29l28 8c-11 28-37 45-77 45C44 4 14-33 15-96c1-61 26-98 85-98zm52 81c6-60-76-77-97-28-3 7-6 17-6 28h103" id="ai"/><path fill="#3a414a" d="M135-143c-3-34-86-38-87 0 15 53 115 12 119 90S17 21 10-45l28-5c4 36 97 45 98 0-10-56-113-15-118-90-4-57 82-63 122-42 12 7 21 19 24 35" id="aj"/><path fill="#3a414a" d="M108 0H70L1-190h34L89-25l56-165h34" id="ak"/><g id="b"><use transform="matrix(0.06172839506172839,0,0,0.06172839506172839,0,0)" xlink:href="#ah"/><use transform="matrix(0.06172839506172839,0,0,0.06172839506172839,7.345679012345679,0)" xlink:href="#ai"/><use transform="matrix(0.06172839506172839,0,0,0.06172839506172839,19.691358024691358,0)" xlink:href="#aj"/><use transform="matrix(0.06172839506172839,0,0,0.06172839506172839,30.80246913580247,0)" xlink:href="#ai"/><use transform="matrix(0.06172839506172839,0,0,0.06172839506172839,43.148148148148145,0)" xlink:href="#ah"/><use transform="matrix(0.06172839506172839,0,0,0.06172839506172839,50.49382716049382,0)" xlink:href="#ak"/><use transform="matrix(0.06172839506172839,0,0,0.06172839506172839,61.60493827160494,0)" xlink:href="#ai"/></g><path fill="#3a414a" d="M127-220V0H93v-220H8v-28h204v28h-85" id="al"/><path fill="#3a414a" d="M205 0l-28-72H64L36 0H1l101-248h38L239 0h-34zm-38-99l-47-123c-12 45-31 82-46 123h93" id="am"/><path fill="#3a414a" d="M140-251c81 0 123 46 123 126C263-46 219 4 140 4 59 4 17-45 17-125s42-126 123-126zm0 227c63 0 89-41 89-101s-29-99-89-99c-61 0-89 39-89 99S79-25 140-24" id="an"/><g id="c"><use transform="matrix(0.06172839506172839,0,0,0.06172839506172839,0,0)" xlink:href="#al"/><use transform="matrix(0.06172839506172839,0,0,0.06172839506172839,11.851851851851851,0)" xlink:href="#am"/><use transform="matrix(0.06172839506172839,0,0,0.06172839506172839,26.666666666666664,0)" xlink:href="#an"/></g><g id="d"><use transform="matrix(0.06172839506172839,0,0,0.06172839506172839,0,0)" xlink:href="#ah"/><use transform="matrix(0.06172839506172839,0,0,0.06172839506172839,7.345679012345679,0)" xlink:href="#ai"/><use transform="matrix(0.06172839506172839,0,0,0.06172839506172839,19.691358024691358,0)" xlink:href="#aj"/><use transform="matrix(0.06172839506172839,0,0,0.06172839506172839,30.80246913580247,0)" xlink:href="#ai"/><use transform="matrix(0.06172839506172839,0,0,0.06172839506172839,43.148148148148145,0)" xlink:href="#ah"/><use transform="matrix(0.06172839506172839,0,0,0.06172839506172839,50.49382716049382,0)" xlink:href="#ak"/><use transform="matrix(0.06172839506172839,0,0,0.06172839506172839,61.60493827160494,0)" xlink:href="#ai"/></g><path fill="#3a414a" d="M185-189c-5-48-123-54-124 2 14 75 158 14 163 119 3 78-121 87-175 55-17-10-28-26-33-46l33-7c5 56 141 63 141-1 0-78-155-14-162-118-5-82 145-84 179-34 5 7 8 16 11 25" id="ao"/><path fill="#3a414a" d="M84 4C-5 8 30-112 23-190h32v120c0 31 7 50 39 49 72-2 45-101 50-169h31l1 190h-30c-1-10 1-25-2-33-11 22-28 36-60 37" id="ap"/><path fill="#3a414a" d="M115-194c53 0 69 39 70 98 0 66-23 100-70 100C84 3 66-7 56-30L54 0H23l1-261h32v101c10-23 28-34 59-34zm-8 174c40 0 45-34 45-75 0-40-5-75-45-74-42 0-51 32-51 76 0 43 10 73 51 73" id="aq"/><path fill="#3a414a" d="M117-194c89-4 53 116 60 194h-32v-121c0-31-8-49-39-48C34-167 62-67 57 0H25l-1-190h30c1 10-1 24 2 32 11-22 29-35 61-36" id="ar"/><path fill="#3a414a" d="M59-47c-2 24 18 29 38 22v24C64 9 27 4 27-40v-127H5v-23h24l9-43h21v43h35v23H59v120" id="as"/><g id="e"><use transform="matrix(0.06172839506172839,0,0,0.06172839506172839,0,0)" xlink:href="#ao"/><use transform="matrix(0.06172839506172839,0,0,0.06172839506172839,14.814814814814813,0)" xlink:href="#ap"/><use transform="matrix(0.06172839506172839,0,0,0.06172839506172839,27.160493827160494,0)" xlink:href="#aq"/><use transform="matrix(0.06172839506172839,0,0,0.06172839506172839,39.50617283950617,0)" xlink:href="#ar"/><use transform="matrix(0.06172839506172839,0,0,0.06172839506172839,51.85185185185185,0)" xlink:href="#ai"/><use transform="matrix(0.06172839506172839,0,0,0.06172839506172839,64.19753086419753,0)" xlink:href="#as"/></g><use transform="matrix(0.07407407407407408,0,0,0.07407407407407408,0,0)" xlink:href="#ag" id="f"/><path d="M137-140c33 8 54 28 56 69 4 73-87 92-137 58l1 88H25v-256c0-55 26-75 80-80 80-8 92 105 32 121zm-32-96c-36-1-48 21-48 57v143c33 25 110 23 106-35-2-35-22-53-59-53v-25c28-5 42-19 42-50 0-24-16-37-41-37" id="at"/><use transform="matrix(0.07407407407407408,0,0,0.07407407407407408,0,0)" xlink:href="#at" id="g"/><g id="i"><use transform="matrix(0.06172839506172839,0,0,0.06172839506172839,0,0)" xlink:href="#ah"/><use transform="matrix(0.06172839506172839,0,0,0.06172839506172839,7.345679012345679,0)" xlink:href="#ai"/><use transform="matrix(0.06172839506172839,0,0,0.06172839506172839,19.691358024691358,0)" xlink:href="#aj"/><use transform="matrix(0.06172839506172839,0,0,0.06172839506172839,30.80246913580247,0)" xlink:href="#ai"/><use transform="matrix(0.06172839506172839,0,0,0.06172839506172839,43.148148148148145,0)" xlink:href="#ah"/><use transform="matrix(0.06172839506172839,0,0,0.06172839506172839,50.49382716049382,0)" xlink:href="#ak"/><use transform="matrix(0.06172839506172839,0,0,0.06172839506172839,61.60493827160494,0)" xlink:href="#ai"/></g><use transform="matrix(0.07407407407407408,0,0,0.07407407407407408,0,0)" xlink:href="#at" id="j"/><path fill="#3a414a" d="M8 0l10-54h51L59 0H8" id="au"/><use transform="matrix(0.07407407407407404,0,0,0.07407407407407404,0,0)" xlink:href="#au" id="k"/><use transform="matrix(0.07407407407407404,0,0,0.07407407407407404,0,0)" xlink:href="#au" id="l"/><use transform="matrix(0.07407407407407404,0,0,0.07407407407407404,0,0)" xlink:href="#au" id="m"/><path fill="#1c1e21" d="M39-49c0 47 74 27 91 3l15 18C117 11 5 23 6-49c1-34 26-48 56-53-18-6-32-17-33-40-3-64 113-67 133-21l-23 14c-12-28-78-30-78 9 0 25 29 28 58 28l-5 25c-37 0-75 1-75 38" id="av"/><use transform="matrix(0.0717037037037037,0,0,0.0717037037037037,0,0)" xlink:href="#av" id="n"/><use transform="matrix(0.0717037037037037,0,0,0.0717037037037037,0,0)" xlink:href="#av" id="o"/><path fill="#3a414a" d="M160-131c35 5 61 23 61 61C221 17 115-2 30 0v-248c76 3 177-17 177 60 0 33-19 50-47 57zm-97-11c50-1 110 9 110-42 0-47-63-36-110-37v79zm0 115c55-2 124 14 124-45 0-56-70-42-124-44v89" id="aw"/><path fill="#3a414a" d="M24-231v-30h32v30H24zM24 0v-190h32V0H24" id="ax"/><path fill="#3a414a" d="M100-194c62-1 85 37 85 99 1 63-27 99-86 99S16-35 15-95c0-66 28-99 85-99zM99-20c44 1 53-31 53-75 0-43-8-75-51-75s-53 32-53 75 10 74 51 75" id="ay"/><g id="p"><use transform="matrix(0.06172839506172839,0,0,0.06172839506172839,0,0)" xlink:href="#aw"/><use transform="matrix(0.06172839506172839,0,0,0.06172839506172839,14.814814814814813,0)" xlink:href="#ax"/><use transform="matrix(0.06172839506172839,0,0,0.06172839506172839,19.691358024691354,0)" xlink:href="#as"/><use transform="matrix(0.06172839506172839,0,0,0.06172839506172839,25.864197530864192,0)" xlink:href="#as"/><use transform="matrix(0.06172839506172839,0,0,0.06172839506172839,32.03703703703703,0)" xlink:href="#ai"/><use transform="matrix(0.06172839506172839,0,0,0.06172839506172839,44.38271604938271,0)" xlink:href="#ar"/><use transform="matrix(0.06172839506172839,0,0,0.06172839506172839,56.728395061728385,0)" xlink:href="#aj"/><use transform="matrix(0.06172839506172839,0,0,0.06172839506172839,67.83950617283949,0)" xlink:href="#ay"/><use transform="matrix(0.06172839506172839,0,0,0.06172839506172839,80.18518518518518,0)" xlink:href="#ah"/></g><path fill="#3a414a" d="M96-169c-40 0-48 33-48 73s9 75 48 75c24 0 41-14 43-38l32 2c-6 37-31 61-74 61-59 0-76-41-82-99-10-93 101-131 147-64 4 7 5 14 7 22l-32 3c-4-21-16-35-41-35" id="az"/><path fill="#3a414a" d="M141-36C126-15 110 5 73 4 37 3 15-17 15-53c-1-64 63-63 125-63 3-35-9-54-41-54-24 1-41 7-42 31l-33-3c5-37 33-52 76-52 45 0 72 20 72 64v82c-1 20 7 32 28 27v20c-31 9-61-2-59-35zM48-53c0 20 12 33 32 33 41-3 63-29 60-74-43 2-92-5-92 41" id="aA"/><g id="q"><use transform="matrix(0.06172839506172839,0,0,0.06172839506172839,0,0)" xlink:href="#az"/><use transform="matrix(0.06172839506172839,0,0,0.06172839506172839,11.11111111111111,0)" xlink:href="#ay"/><use transform="matrix(0.06172839506172839,0,0,0.06172839506172839,23.45679012345679,0)" xlink:href="#ax"/><use transform="matrix(0.06172839506172839,0,0,0.06172839506172839,28.333333333333336,0)" xlink:href="#ar"/><use transform="matrix(0.06172839506172839,0,0,0.06172839506172839,40.67901234567901,0)" xlink:href="#aq"/><use transform="matrix(0.06172839506172839,0,0,0.06172839506172839,53.02469135802469,0)" xlink:href="#aA"/><use transform="matrix(0.06172839506172839,0,0,0.06172839506172839,65.37037037037037,0)" xlink:href="#aj"/><use transform="matrix(0.06172839506172839,0,0,0.06172839506172839,76.48148148148148,0)" xlink:href="#ai"/></g><path fill="#3a414a" d="M136-208V0H84v-208H4v-40h212v40h-80" id="aB"/><path fill="#3a414a" d="M199 0l-22-63H83L61 0H9l90-248h61L250 0h-51zm-33-102l-36-108c-10 38-24 72-36 108h72" id="aC"/><path fill="#3a414a" d="M140-251c80 0 125 45 125 126S219 4 139 4C58 4 15-44 15-125s44-126 125-126zm-1 214c52 0 73-35 73-88 0-50-21-86-72-86-52 0-73 35-73 86s22 88 72 88" id="aD"/><g id="r"><use transform="matrix(0.061728395061728385,0,0,0.061728395061728385,0,0)" xlink:href="#aB"/><use transform="matrix(0.061728395061728385,0,0,0.061728395061728385,11.85185185185185,0)" xlink:href="#aC"/><use transform="matrix(0.061728395061728385,0,0,0.061728395061728385,27.8395061728395,0)" xlink:href="#aD"/></g><g id="s"><use transform="matrix(0.06172839506172839,0,0,0.06172839506172839,0,0)" xlink:href="#ao"/><use transform="matrix(0.06172839506172839,0,0,0.06172839506172839,14.814814814814813,0)" xlink:href="#ap"/><use transform="matrix(0.06172839506172839,0,0,0.06172839506172839,27.160493827160494,0)" xlink:href="#aq"/><use transform="matrix(0.06172839506172839,0,0,0.06172839506172839,39.50617283950617,0)" xlink:href="#ar"/><use transform="matrix(0.06172839506172839,0,0,0.06172839506172839,51.85185185185185,0)" xlink:href="#ai"/><use transform="matrix(0.06172839506172839,0,0,0.06172839506172839,64.19753086419753,0)" xlink:href="#as"/><use transform="matrix(0.06172839506172839,0,0,0.06172839506172839,70.37037037037037,0)" xlink:href="#aj"/></g><g id="t"><use transform="matrix(0.06172839506172839,0,0,0.06172839506172839,0,0)" xlink:href="#ao"/><use transform="matrix(0.06172839506172839,0,0,0.06172839506172839,14.814814814814813,0)" xlink:href="#ap"/><use transform="matrix(0.06172839506172839,0,0,0.06172839506172839,27.160493827160494,0)" xlink:href="#aq"/><use transform="matrix(0.06172839506172839,0,0,0.06172839506172839,39.50617283950617,0)" xlink:href="#ar"/><use transform="matrix(0.06172839506172839,0,0,0.06172839506172839,51.85185185185185,0)" xlink:href="#ai"/><use transform="matrix(0.06172839506172839,0,0,0.06172839506172839,64.19753086419753,0)" xlink:href="#as"/></g><path fill="#3a414a" d="M115-194c55 1 70 41 70 98S169 2 115 4C84 4 66-9 55-30l1 105H24l-1-265h31l2 30c10-21 28-34 59-34zm-8 174c40 0 45-34 45-75s-6-73-45-74c-42 0-51 32-51 76 0 43 10 73 51 73" id="aE"/><path fill="#3a414a" d="M24 0v-261h32V0H24" id="aF"/><g id="u"><use transform="matrix(0.06172839506172839,0,0,0.06172839506172839,0,0)" xlink:href="#aE"/><use transform="matrix(0.06172839506172839,0,0,0.06172839506172839,12.345679012345679,0)" xlink:href="#ay"/><use transform="matrix(0.06172839506172839,0,0,0.06172839506172839,24.691358024691358,0)" xlink:href="#ay"/><use transform="matrix(0.06172839506172839,0,0,0.06172839506172839,37.03703703703704,0)" xlink:href="#aF"/><use transform="matrix(0.06172839506172839,0,0,0.06172839506172839,41.91358024691358,0)" xlink:href="#aj"/></g><use transform="matrix(0.07407407407407404,0,0,0.07407407407407404,0,0)" xlink:href="#au" id="v"/><use transform="matrix(0.07407407407407404,0,0,0.07407407407407404,0,0)" xlink:href="#au" id="w"/><use transform="matrix(0.07407407407407404,0,0,0.07407407407407404,0,0)" xlink:href="#au" id="x"/><path d="M164 0c-6-12-8-30-13-42-11 26-28 46-63 46-55 0-74-37-74-98s22-100 79-100c36 1 53 21 65 45 2-14 7-30 13-41h47c-34 48-36 136-6 190h-48zM99-160c-31 2-32 31-33 65-2 37 10 79 45 61 37-20 38-117-12-126" id="aG"/><path d="M-4 44V30h207v14H-4" id="aH"/><path d="M110-194c64 0 96 36 96 99 0 64-35 99-97 99-61 0-95-36-95-99 0-62 34-99 96-99zm-1 164c35 0 45-28 45-65 0-40-10-65-43-65-34 0-45 26-45 65 0 36 10 65 43 65" id="aI"/><path d="M85 4C-2 5 27-109 22-190h50c7 57-23 150 33 157 60-5 35-97 40-157h50l1 190h-47c-2-12 1-28-3-38-12 25-28 42-61 42" id="aJ"/><path d="M115-3C79 11 28 4 28-45v-112H4v-33h27l15-45h31v45h36v33H77v99c-1 23 16 31 38 25v30" id="aK"/><path d="M35-132v-50h50v50H35zM35 0v-49h50V0H35" id="aL"/><g id="y"><use transform="matrix(0.06172839506172839,0,0,0.06172839506172839,0,0)" xlink:href="#aG"/><use transform="matrix(0.06172839506172839,0,0,0.06172839506172839,13.641975308641975,0)" xlink:href="#aH"/><use transform="matrix(0.06172839506172839,0,0,0.06172839506172839,25.98765432098765,0)" xlink:href="#aI"/><use transform="matrix(0.06172839506172839,0,0,0.06172839506172839,39.50617283950617,0)" xlink:href="#aJ"/><use transform="matrix(0.06172839506172839,0,0,0.06172839506172839,53.02469135802469,0)" xlink:href="#aK"/><use transform="matrix(0.06172839506172839,0,0,0.06172839506172839,60.37037037037037,0)" xlink:href="#aL"/></g><path d="M127-220V0H93v-220H8v-28h204v28h-85" id="aM"/><path d="M100-194c62-1 85 37 85 99 1 63-27 99-86 99S16-35 15-95c0-66 28-99 85-99zM99-20c44 1 53-31 53-75 0-43-8-75-51-75s-53 32-53 75 10 74 51 75" id="aN"/><path d="M59-47c-2 24 18 29 38 22v24C64 9 27 4 27-40v-127H5v-23h24l9-43h21v43h35v23H59v120" id="aO"/><path d="M141-36C126-15 110 5 73 4 37 3 15-17 15-53c-1-64 63-63 125-63 3-35-9-54-41-54-24 1-41 7-42 31l-33-3c5-37 33-52 76-52 45 0 72 20 72 64v82c-1 20 7 32 28 27v20c-31 9-61-2-59-35zM48-53c0 20 12 33 32 33 41-3 63-29 60-74-43 2-92-5-92 41" id="aP"/><path d="M24 0v-261h32V0H24" id="aQ"/><g id="z"><use transform="matrix(0.06172839506172839,0,0,0.06172839506172839,0,0)" xlink:href="#aM"/><use transform="matrix(0.06172839506172839,0,0,0.06172839506172839,11.049382716049381,0)" xlink:href="#aN"/><use transform="matrix(0.06172839506172839,0,0,0.06172839506172839,23.39506172839506,0)" xlink:href="#aO"/><use transform="matrix(0.06172839506172839,0,0,0.06172839506172839,29.5679012345679,0)" xlink:href="#aP"/><use transform="matrix(0.06172839506172839,0,0,0.06172839506172839,41.913580246913575,0)" xlink:href="#aQ"/></g><path d="M135-143c-3-34-86-38-87 0 15 53 115 12 119 90S17 21 10-45l28-5c4 36 97 45 98 0-10-56-113-15-118-90-4-57 82-63 122-42 12 7 21 19 24 35" id="aR"/><path d="M143 0L79-87 56-68V0H24v-261h32v163l83-92h37l-77 82L181 0h-38" id="aS"/><path d="M100-194c63 0 86 42 84 106H49c0 40 14 67 53 68 26 1 43-12 49-29l28 8c-11 28-37 45-77 45C44 4 14-33 15-96c1-61 26-98 85-98zm52 81c6-60-76-77-97-28-3 7-6 17-6 28h103" id="aT"/><g id="A"><use transform="matrix(0.06172839506172839,0,0,0.06172839506172839,0,0)" xlink:href="#aR"/><use transform="matrix(0.06172839506172839,0,0,0.06172839506172839,11.11111111111111,0)" xlink:href="#aO"/><use transform="matrix(0.06172839506172839,0,0,0.06172839506172839,17.28395061728395,0)" xlink:href="#aP"/><use transform="matrix(0.06172839506172839,0,0,0.06172839506172839,29.629629629629626,0)" xlink:href="#aS"/><use transform="matrix(0.06172839506172839,0,0,0.06172839506172839,40.74074074074073,0)" xlink:href="#aT"/></g><path d="M24-231v-30h32v30H24zM24 0v-190h32V0H24" id="aU"/><path d="M117-194c89-4 53 116 60 194h-32v-121c0-31-8-49-39-48C34-167 62-67 57 0H25l-1-190h30c1 10-1 24 2 32 11-22 29-35 61-36" id="aV"/><g id="B"><use transform="matrix(0.06172839506172839,0,0,0.06172839506172839,0,0)" xlink:href="#aU"/><use transform="matrix(0.06172839506172839,0,0,0.06172839506172839,4.876543209876543,0)" xlink:href="#aV"/></g><path d="M106-169C34-169 62-67 57 0H25v-261h32l-1 103c12-21 28-36 61-36 89 0 53 116 60 194h-32v-121c2-32-8-49-39-48" id="aW"/><g id="C"><use transform="matrix(0.06172839506172839,0,0,0.06172839506172839,0,0)" xlink:href="#aO"/><use transform="matrix(0.06172839506172839,0,0,0.06172839506172839,6.172839506172839,0)" xlink:href="#aW"/><use transform="matrix(0.06172839506172839,0,0,0.06172839506172839,18.51851851851852,0)" xlink:href="#aT"/></g><path d="M84 4C-5 8 30-112 23-190h32v120c0 31 7 50 39 49 72-2 45-101 50-169h31l1 190h-30c-1-10 1-25-2-33-11 22-28 36-60 37" id="aX"/><path d="M115-194c53 0 69 39 70 98 0 66-23 100-70 100C84 3 66-7 56-30L54 0H23l1-261h32v101c10-23 28-34 59-34zm-8 174c40 0 45-34 45-75 0-40-5-75-45-74-42 0-51 32-51 76 0 43 10 73 51 73" id="aY"/><g id="D"><use transform="matrix(0.06172839506172839,0,0,0.06172839506172839,0,0)" xlink:href="#aR"/><use transform="matrix(0.06172839506172839,0,0,0.06172839506172839,11.11111111111111,0)" xlink:href="#aX"/><use transform="matrix(0.06172839506172839,0,0,0.06172839506172839,23.45679012345679,0)" xlink:href="#aY"/><use transform="matrix(0.06172839506172839,0,0,0.06172839506172839,35.80246913580247,0)" xlink:href="#aV"/><use transform="matrix(0.06172839506172839,0,0,0.06172839506172839,48.148148148148145,0)" xlink:href="#aT"/><use transform="matrix(0.06172839506172839,0,0,0.06172839506172839,60.49382716049382,0)" xlink:href="#aO"/></g><path fill="#3a414a" d="M27 0v-27h64v-190l-56 39v-29l58-41h29v221h61V0H27" id="aZ"/><use transform="matrix(0.061728395061728385,0,0,0.061728395061728385,0,0)" xlink:href="#aZ" id="E"/><path fill="#3a414a" d="M106-169C34-169 62-67 57 0H25v-261h32l-1 103c12-21 28-36 61-36 89 0 53 116 60 194h-32v-121c2-32-8-49-39-48" id="ba"/><g id="F"><use transform="matrix(0.061728395061728385,0,0,0.061728395061728385,0,0)" xlink:href="#aA"/><use transform="matrix(0.061728395061728385,0,0,0.061728395061728385,12.345679012345677,0)" xlink:href="#aF"/><use transform="matrix(0.061728395061728385,0,0,0.061728395061728385,17.22222222222222,0)" xlink:href="#aE"/><use transform="matrix(0.061728395061728385,0,0,0.061728395061728385,29.5679012345679,0)" xlink:href="#ba"/><use transform="matrix(0.061728395061728385,0,0,0.061728395061728385,41.913580246913575,0)" xlink:href="#aA"/></g><path fill="#3a414a" d="M143 0L79-87 56-68V0H24v-261h32v163l83-92h37l-77 82L181 0h-38" id="bb"/><g id="G"><use transform="matrix(0.061728395061728385,0,0,0.061728395061728385,0,0)" xlink:href="#as"/><use transform="matrix(0.061728395061728385,0,0,0.061728395061728385,6.1728395061728385,0)" xlink:href="#ay"/><use transform="matrix(0.061728395061728385,0,0,0.061728395061728385,18.518518518518515,0)" xlink:href="#bb"/><use transform="matrix(0.061728395061728385,0,0,0.061728395061728385,29.629629629629626,0)" xlink:href="#ai"/><use transform="matrix(0.061728395061728385,0,0,0.061728395061728385,41.9753086419753,0)" xlink:href="#ar"/></g><g id="H"><use transform="matrix(0.061728395061728385,0,0,0.061728395061728385,0,0)" xlink:href="#ax"/><use transform="matrix(0.061728395061728385,0,0,0.061728395061728385,4.876543209876543,0)" xlink:href="#ar"/><use transform="matrix(0.061728395061728385,0,0,0.061728395061728385,17.22222222222222,0)" xlink:href="#as"/><use transform="matrix(0.061728395061728385,0,0,0.061728395061728385,23.39506172839506,0)" xlink:href="#ay"/></g><g id="I"><use transform="matrix(0.061728395061728385,0,0,0.061728395061728385,0,0)" xlink:href="#ai"/><use transform="matrix(0.061728395061728385,0,0,0.061728395061728385,12.345679012345677,0)" xlink:href="#aA"/><use transform="matrix(0.061728395061728385,0,0,0.061728395061728385,24.691358024691354,0)" xlink:href="#az"/><use transform="matrix(0.061728395061728385,0,0,0.061728395061728385,35.80246913580246,0)" xlink:href="#ba"/></g><path fill="#3a414a" d="M47-170H22l-4-78h33" id="bc"/><g id="J"><use transform="matrix(0.061728395061728385,0,0,0.061728395061728385,0,0)" xlink:href="#aj"/><use transform="matrix(0.061728395061728385,0,0,0.061728395061728385,11.111111111111109,0)" xlink:href="#ap"/><use transform="matrix(0.061728395061728385,0,0,0.061728395061728385,23.456790123456784,0)" xlink:href="#aq"/><use transform="matrix(0.061728395061728385,0,0,0.061728395061728385,35.80246913580246,0)" xlink:href="#ar"/><use transform="matrix(0.061728395061728385,0,0,0.061728395061728385,48.14814814814814,0)" xlink:href="#ai"/><use transform="matrix(0.061728395061728385,0,0,0.061728395061728385,60.493827160493815,0)" xlink:href="#as"/><use transform="matrix(0.061728395061728385,0,0,0.061728395061728385,66.66666666666666,0)" xlink:href="#bc"/><use transform="matrix(0.061728395061728385,0,0,0.061728395061728385,70.86419753086419,0)" xlink:href="#aj"/></g><g id="K"><use transform="matrix(0.061728395061728385,0,0,0.061728395061728385,0,0)" xlink:href="#aG"/><use transform="matrix(0.061728395061728385,0,0,0.061728395061728385,13.641975308641973,0)" xlink:href="#aH"/><use transform="matrix(0.061728395061728385,0,0,0.061728395061728385,25.98765432098765,0)" xlink:href="#aI"/><use transform="matrix(0.061728395061728385,0,0,0.061728395061728385,39.50617283950616,0)" xlink:href="#aJ"/><use transform="matrix(0.061728395061728385,0,0,0.061728395061728385,53.02469135802468,0)" xlink:href="#aK"/></g><path fill="#3a414a" d="M24 0v-248h195v40H76v63h132v40H76v65h150V0H24" id="bd"/><path fill="#3a414a" d="M220-157c-53 9-28 100-34 157h-49v-107c1-27-5-49-29-50C55-147 81-57 75 0H25l-1-190h47c2 12-1 28 3 38 10-53 101-56 108 0 13-22 24-43 59-42 82 1 51 116 57 194h-49v-107c-1-25-5-48-29-50" id="be"/><path fill="#3a414a" d="M25-224v-37h50v37H25zM25 0v-190h50V0H25" id="bf"/><path fill="#3a414a" d="M137-138c1-29-70-34-71-4 15 46 118 7 119 86 1 83-164 76-172 9l43-7c4 19 20 25 44 25 33 8 57-30 24-41C81-84 22-81 20-136c-2-80 154-74 161-7" id="bg"/><path fill="#3a414a" d="M110-194c64 0 96 36 96 99 0 64-35 99-97 99-61 0-95-36-95-99 0-62 34-99 96-99zm-1 164c35 0 45-28 45-65 0-40-10-65-43-65-34 0-45 26-45 65 0 36 10 65 43 65" id="bh"/><path fill="#3a414a" d="M135-194c87-1 58 113 63 194h-50c-7-57 23-157-34-157-59 0-34 97-39 157H25l-1-190h47c2 12-1 28 3 38 12-26 28-41 61-42" id="bi"/><g id="L"><use transform="matrix(0.061728395061728385,0,0,0.061728395061728385,0,0)" xlink:href="#bd"/><use transform="matrix(0.061728395061728385,0,0,0.061728395061728385,14.814814814814813,0)" xlink:href="#be"/><use transform="matrix(0.061728395061728385,0,0,0.061728395061728385,34.5679012345679,0)" xlink:href="#bf"/><use transform="matrix(0.061728395061728385,0,0,0.061728395061728385,40.74074074074073,0)" xlink:href="#bg"/><use transform="matrix(0.061728395061728385,0,0,0.061728395061728385,53.08641975308641,0)" xlink:href="#bg"/><use transform="matrix(0.061728395061728385,0,0,0.061728395061728385,65.43209876543209,0)" xlink:href="#bf"/><use transform="matrix(0.061728395061728385,0,0,0.061728395061728385,71.60493827160492,0)" xlink:href="#bh"/><use transform="matrix(0.061728395061728385,0,0,0.061728395061728385,85.12345679012344,0)" xlink:href="#bi"/><use transform="matrix(0.061728395061728385,0,0,0.061728395061728385,98.64197530864196,0)" xlink:href="#bg"/></g><path d="M27 0v-27h64v-190l-56 39v-29l58-41h29v221h61V0H27" id="bj"/><use transform="matrix(0.07407407407407408,0,0,0.07407407407407408,0,0)" xlink:href="#bj" id="N"/><use transform="matrix(0.0717037037037037,0,0,0.0717037037037037,0,0)" xlink:href="#av" id="O"/><path fill="#3a414a" d="M210-169c-67 3-38 105-44 169h-31v-121c0-29-5-50-35-48C34-165 62-65 56 0H25l-1-190h30c1 10-1 24 2 32 10-44 99-50 107 0 11-21 27-35 58-36 85-2 47 119 55 194h-31v-121c0-29-5-49-35-48" id="bk"/><g id="P"><use transform="matrix(0.06172839506172839,0,0,0.06172839506172839,0,0)" xlink:href="#aj"/><use transform="matrix(0.06172839506172839,0,0,0.06172839506172839,11.11111111111111,0)" xlink:href="#ap"/><use transform="matrix(0.06172839506172839,0,0,0.06172839506172839,23.45679012345679,0)" xlink:href="#bk"/></g><path fill="#3a414a" d="M87 75C49 33 22-17 22-94c0-76 28-126 65-167h31c-38 41-64 92-64 168S80 34 118 75H87" id="bl"/><g id="Q"><use transform="matrix(0.06172839506172839,0,0,0.06172839506172839,0,0)" xlink:href="#bl"/><use transform="matrix(0.06172839506172839,0,0,0.06172839506172839,7.345679012345679,0)" xlink:href="#aA"/><use transform="matrix(0.06172839506172839,0,0,0.06172839506172839,19.691358024691358,0)" xlink:href="#aF"/><use transform="matrix(0.06172839506172839,0,0,0.06172839506172839,24.5679012345679,0)" xlink:href="#aE"/><use transform="matrix(0.06172839506172839,0,0,0.06172839506172839,36.913580246913575,0)" xlink:href="#ba"/><use transform="matrix(0.06172839506172839,0,0,0.06172839506172839,49.25925925925925,0)" xlink:href="#aA"/></g><path fill="#3a414a" d="M33-261c38 41 65 92 65 168S71 34 33 75H2C39 34 66-17 66-93S39-220 2-261h31" id="bm"/><g id="R"><use transform="matrix(0.06172839506172839,0,0,0.06172839506172839,0,0)" xlink:href="#aE"/><use transform="matrix(0.06172839506172839,0,0,0.06172839506172839,12.345679012345679,0)" xlink:href="#ah"/><use transform="matrix(0.06172839506172839,0,0,0.06172839506172839,19.691358024691358,0)" xlink:href="#ax"/><use transform="matrix(0.06172839506172839,0,0,0.06172839506172839,24.5679012345679,0)" xlink:href="#az"/><use transform="matrix(0.06172839506172839,0,0,0.06172839506172839,35.67901234567901,0)" xlink:href="#ai"/><use transform="matrix(0.06172839506172839,0,0,0.06172839506172839,48.02469135802469,0)" xlink:href="#aj"/><use transform="matrix(0.06172839506172839,0,0,0.06172839506172839,59.1358024691358,0)" xlink:href="#bm"/></g><path fill="#3a414a" d="M18-100v-36l175-74v27L42-118l151 64v27" id="bn"/><use transform="matrix(0.06172839506172839,0,0,0.06172839506172839,0,0)" xlink:href="#bn" id="S"/><use transform="matrix(0.06172839506172839,0,0,0.06172839506172839,0,0)" xlink:href="#aZ" id="T"/><use transform="matrix(0.07407407407407408,0,0,0.07407407407407408,0,0)" xlink:href="#at" id="U"/><g id="V"><use transform="matrix(0.061728395061728385,0,0,0.061728395061728385,0,0)" xlink:href="#al"/><use transform="matrix(0.061728395061728385,0,0,0.061728395061728385,11.85185185185185,0)" xlink:href="#am"/><use transform="matrix(0.061728395061728385,0,0,0.061728395061728385,26.666666666666664,0)" xlink:href="#an"/></g><use transform="matrix(0.07407407407407408,0,0,0.07407407407407408,0,0)" xlink:href="#ag" id="W"/><path fill="#3a414a" d="M18-27v-27l151-64-151-65v-27l175 74v36" id="bo"/><path fill="#3a414a" d="M18-150v-26h174v26H18zm0 90v-26h174v26H18" id="bp"/><g id="X"><use transform="matrix(0.06172839506172839,0,0,0.06172839506172839,0,0)" xlink:href="#bo"/><use transform="matrix(0.06172839506172839,0,0,0.06172839506172839,12.962962962962962,0)" xlink:href="#bp"/></g><path fill="#3a414a" d="M133-34C117-15 103 5 69 4 32 3 11-16 11-54c-1-60 55-63 116-61 1-26-3-47-28-47-18 1-26 9-28 27l-52-2c7-38 36-58 82-57s74 22 75 68l1 82c-1 14 12 18 25 15v27c-30 8-71 5-69-32zm-48 3c29 0 43-24 42-57-32 0-66-3-65 30 0 17 8 27 23 27" id="bq"/><path fill="#3a414a" d="M25 0v-261h50V0H25" id="br"/><path fill="#3a414a" d="M135-194c53 0 70 44 70 98 0 56-19 98-73 100-31 1-45-17-59-34 3 33 2 69 2 105H25l-1-265h48c2 10 0 23 3 31 11-24 29-35 60-35zM114-30c33 0 39-31 40-66 0-38-9-64-40-64-56 0-55 130 0 130" id="bs"/><path fill="#3a414a" d="M114-157C55-157 80-60 75 0H25v-261h50l-1 109c12-26 28-41 61-42 86-1 58 113 63 194h-50c-7-57 23-157-34-157" id="bt"/><g id="Y"><use transform="matrix(0.061728395061728385,0,0,0.061728395061728385,0,0)" xlink:href="#bq"/><use transform="matrix(0.061728395061728385,0,0,0.061728395061728385,12.345679012345677,0)" xlink:href="#br"/><use transform="matrix(0.061728395061728385,0,0,0.061728395061728385,18.518518518518515,0)" xlink:href="#bs"/><use transform="matrix(0.061728395061728385,0,0,0.061728395061728385,32.03703703703703,0)" xlink:href="#bt"/><use transform="matrix(0.061728395061728385,0,0,0.061728395061728385,45.55555555555554,0)" xlink:href="#bq"/></g><path fill="#3a414a" d="M190 0L58-211 59 0H30v-248h39L202-35l-2-213h31V0h-41" id="bu"/><g id="Z"><use transform="matrix(0.061728395061728385,0,0,0.061728395061728385,0,0)" xlink:href="#bu"/><use transform="matrix(0.061728395061728385,0,0,0.061728395061728385,15.987654320987652,0)" xlink:href="#ay"/></g><g id="aa"><use transform="matrix(0.061728395061728385,0,0,0.061728395061728385,0,0)" xlink:href="#aA"/><use transform="matrix(0.061728395061728385,0,0,0.061728395061728385,12.345679012345677,0)" xlink:href="#aF"/><use transform="matrix(0.061728395061728385,0,0,0.061728395061728385,17.22222222222222,0)" xlink:href="#aE"/><use transform="matrix(0.061728395061728385,0,0,0.061728395061728385,29.5679012345679,0)" xlink:href="#ba"/><use transform="matrix(0.061728395061728385,0,0,0.061728395061728385,41.913580246913575,0)" xlink:href="#aA"/></g><g id="ab"><use transform="matrix(0.061728395061728385,0,0,0.061728395061728385,0,0)" xlink:href="#ai"/><use transform="matrix(0.061728395061728385,0,0,0.061728395061728385,12.345679012345677,0)" xlink:href="#bk"/><use transform="matrix(0.061728395061728385,0,0,0.061728395061728385,30.802469135802465,0)" xlink:href="#ax"/><use transform="matrix(0.061728395061728385,0,0,0.061728395061728385,35.679012345679006,0)" xlink:href="#aj"/><use transform="matrix(0.061728395061728385,0,0,0.061728395061728385,46.79012345679011,0)" xlink:href="#aj"/><use transform="matrix(0.061728395061728385,0,0,0.061728395061728385,57.90123456790122,0)" xlink:href="#ax"/><use transform="matrix(0.061728395061728385,0,0,0.061728395061728385,62.777777777777764,0)" xlink:href="#ay"/><use transform="matrix(0.061728395061728385,0,0,0.061728395061728385,75.12345679012344,0)" xlink:href="#ar"/><use transform="matrix(0.061728395061728385,0,0,0.061728395061728385,87.46913580246911,0)" xlink:href="#aj"/></g><g id="ac"><use transform="matrix(0.061728395061728385,0,0,0.061728395061728385,0,0)" xlink:href="#ax"/><use transform="matrix(0.061728395061728385,0,0,0.061728395061728385,4.876543209876543,0)" xlink:href="#ar"/><use transform="matrix(0.061728395061728385,0,0,0.061728395061728385,17.22222222222222,0)" xlink:href="#as"/><use transform="matrix(0.061728395061728385,0,0,0.061728395061728385,23.39506172839506,0)" xlink:href="#ay"/></g><g id="ad"><use transform="matrix(0.061728395061728385,0,0,0.061728395061728385,0,0)" xlink:href="#ah"/><use transform="matrix(0.061728395061728385,0,0,0.061728395061728385,7.345679012345678,0)" xlink:href="#ai"/><use transform="matrix(0.061728395061728385,0,0,0.061728395061728385,19.691358024691354,0)" xlink:href="#aj"/><use transform="matrix(0.061728395061728385,0,0,0.061728395061728385,30.80246913580246,0)" xlink:href="#ai"/><use transform="matrix(0.061728395061728385,0,0,0.061728395061728385,43.14814814814814,0)" xlink:href="#ah"/><use transform="matrix(0.061728395061728385,0,0,0.061728395061728385,50.493827160493815,0)" xlink:href="#ak"/><use transform="matrix(0.061728395061728385,0,0,0.061728395061728385,61.60493827160492,0)" xlink:href="#ai"/><use transform="matrix(0.061728395061728385,0,0,0.061728395061728385,73.9506172839506,0)" xlink:href="#aj"/></g><g id="ae"><use transform="matrix(0.061728395061728385,0,0,0.061728395061728385,0,0)" xlink:href="#al"/><use transform="matrix(0.061728395061728385,0,0,0.061728395061728385,11.85185185185185,0)" xlink:href="#am"/><use transform="matrix(0.061728395061728385,0,0,0.061728395061728385,26.666666666666664,0)" xlink:href="#an"/></g><g id="af"><use transform="matrix(0.061728395061728385,0,0,0.061728395061728385,0,0)" xlink:href="#ai"/><use transform="matrix(0.061728395061728385,0,0,0.061728395061728385,12.345679012345677,0)" xlink:href="#bk"/><use transform="matrix(0.061728395061728385,0,0,0.061728395061728385,30.802469135802465,0)" xlink:href="#ax"/><use transform="matrix(0.061728395061728385,0,0,0.061728395061728385,35.679012345679006,0)" xlink:href="#aj"/><use transform="matrix(0.061728395061728385,0,0,0.061728395061728385,46.79012345679011,0)" xlink:href="#aj"/><use transform="matrix(0.061728395061728385,0,0,0.061728395061728385,57.90123456790122,0)" xlink:href="#ax"/><use transform="matrix(0.061728395061728385,0,0,0.061728395061728385,62.777777777777764,0)" xlink:href="#ay"/><use transform="matrix(0.061728395061728385,0,0,0.061728395061728385,75.12345679012344,0)" xlink:href="#ar"/><use transform="matrix(0.061728395061728385,0,0,0.061728395061728385,87.46913580246911,0)" xlink:href="#aj"/></g></defs></g></svg>