<svg xmlns="http://www.w3.org/2000/svg" xmlns:xlink="http://www.w3.org/1999/xlink" xmlns:lucid="lucid" width="662" height="779.56"><g transform="translate(-979 461)" lucid:page-tab-id="0_0"><path d="M1220-374a6 6 0 0 1 6-6h54c33.14 0 60 26.86 60 60s-26.86 60-60 60h-54a6 6 0 0 1-6-6z" stroke="#282c33" stroke-width="2" fill="#fff"/><use xlink:href="#a" transform="matrix(1,0,0,1,1225,-375) translate(14.561728395061728 45.395833333333336)"/><use xlink:href="#b" transform="matrix(1,0,0,1,1225,-375) translate(77.03086419753086 45.395833333333336)"/><use xlink:href="#c" transform="matrix(1,0,0,1,1225,-375) translate(17.02469135802469 73.84027777777777)"/><path d="M1220-374a6 6 0 0 0-6-6h-54c-33.14 0-60 26.86-60 60s26.86 60 60 60h54a6 6 0 0 0 6-6z" stroke="#282c33" stroke-width="2" fill="#fff"/><use xlink:href="#d" transform="matrix(1,0,0,1,1105,-375) translate(34.02969135802469 45.27777777777778)"/><use xlink:href="#c" transform="matrix(1,0,0,1,1105,-375) translate(18.52969135802469 71.94444444444446)"/><path d="M1420-374a6 6 0 0 1 6-6h148a6 6 0 0 1 6 6v108a6 6 0 0 1-6 6h-148a6 6 0 0 1-6-6z" stroke="#282c33" stroke-width="2" fill="#fff"/><use xlink:href="#e" transform="matrix(1,0,0,1,1432,-368) translate(32.81481481481482 35.77777777777778)"/><use xlink:href="#f" transform="matrix(1,0,0,1,1432,-368) translate(60.2962962962963 66)"/><path d="M1220-214a6 6 0 0 1 6-6h54c33.14 0 60 26.86 60 60s-26.86 60-60 60h-54a6 6 0 0 1-6-6z" stroke="#282c33" stroke-width="2" fill="#fff"/><use xlink:href="#a" transform="matrix(1,0,0,1,1225,-215) translate(14.598765432098766 45.395833333333336)"/><use xlink:href="#g" transform="matrix(1,0,0,1,1225,-215) translate(77.0679012345679 45.395833333333336)"/><use xlink:href="#c" transform="matrix(1,0,0,1,1225,-215) translate(17.02469135802469 73.84027777777777)"/><path d="M1220-214a6 6 0 0 0-6-6h-54c-33.14 0-60 26.86-60 60s26.86 60 60 60h54a6 6 0 0 0 6-6z" stroke="#282c33" stroke-width="2" fill="#fff"/><use xlink:href="#d" transform="matrix(1,0,0,1,1105,-215) translate(34.02969135802469 45.27777777777778)"/><use xlink:href="#c" transform="matrix(1,0,0,1,1105,-215) translate(18.52969135802469 71.94444444444446)"/><path d="M1420-214a6 6 0 0 1 6-6h148a6 6 0 0 1 6 6v108a6 6 0 0 1-6 6h-148a6 6 0 0 1-6-6z" stroke="#282c33" stroke-width="2" fill="#fff"/><use xlink:href="#e" transform="matrix(1,0,0,1,1432,-208) translate(32.81481481481482 35.77777777777778)"/><use xlink:href="#h" transform="matrix(1,0,0,1,1432,-208) translate(60.33333333333333 66)"/><path d="M1346 18.07a6 6 0 0 1-6-6V-74a6 6 0 0 1 6-6h40.57a6 6 0 0 1 6 6v86.07a6 6 0 0 1-6 6z" stroke="#000" stroke-opacity="0" fill="#fff" fill-opacity="0"/><use xlink:href="#i" transform="matrix(6.123233995736766e-17,-1,1,6.123233995736766e-17,1345,13.064708775692907) translate(25.98148148148149 26.708333333333325)"/><use xlink:href="#j" transform="matrix(6.123233995736766e-17,-1,1,6.123233995736766e-17,1345,13.064708775692907) translate(40.7962962962963 26.708333333333325)"/><use xlink:href="#k" transform="matrix(6.123233995736766e-17,-1,1,6.123233995736766e-17,1345,13.064708775692907) translate(55.61111111111111 26.708333333333325)"/><path d="M1220 44.06a6 6 0 0 1 6-6h54c33.14 0 60 26.87 60 60 0 33.14-26.86 60-60 60h-54a6 6 0 0 1-6-6z" stroke="#282c33" stroke-width="2" fill="#fff"/><use xlink:href="#a" transform="matrix(1,0,0,1,1225,43.06470877569291) translate(13.746913580246911 45.395833333333336)"/><use xlink:href="#l" transform="matrix(1,0,0,1,1225,43.06470877569291) translate(76.21604938271605 45.395833333333336)"/><use xlink:href="#c" transform="matrix(1,0,0,1,1225,43.06470877569291) translate(17.02469135802469 73.84027777777777)"/><path d="M1220 44.06a6 6 0 0 0-6-6h-54c-33.14 0-60 26.87-60 60 0 33.14 26.86 60 60 60h54a6 6 0 0 0 6-6z" stroke="#282c33" stroke-width="2" fill="#fff"/><use xlink:href="#d" transform="matrix(1,0,0,1,1105,43.06470877569291) translate(34.02969135802469 45.27777777777778)"/><use xlink:href="#c" transform="matrix(1,0,0,1,1105,43.06470877569291) translate(18.52969135802469 71.94444444444446)"/><path d="M1420 44.06a6 6 0 0 1 6-6h148a6 6 0 0 1 6 6v108a6 6 0 0 1-6 6h-148a6 6 0 0 1-6-6z" stroke="#282c33" stroke-width="2" fill="#fff"/><use xlink:href="#e" transform="matrix(1,0,0,1,1432,50.06470877569291) translate(32.81481481481482 35.77777777777778)"/><use xlink:href="#m" transform="matrix(1,0,0,1,1432,50.06470877569291) translate(59.48148148148148 66)"/><path d="M1380-434a6 6 0 0 1 6-6h228a6 6 0 0 1 6 6v48a6 6 0 0 1-6 6h-228a6 6 0 0 1-6-6z" stroke="#000" stroke-opacity="0" stroke-width="2" fill="#fff" fill-opacity="0"/><use xlink:href="#n" transform="matrix(1,0,0,1,1385,-435) translate(74.25925925925927 30.27777777777778)"/><path d="M1100-434a6 6 0 0 1 6-6h228a6 6 0 0 1 6 6v48a6 6 0 0 1-6 6h-228a6 6 0 0 1-6-6z" stroke="#000" stroke-opacity="0" stroke-width="2" fill="#fff" fill-opacity="0"/><g><use xlink:href="#o" transform="matrix(1,0,0,1,1105,-435) translate(50.21604938271605 30.27777777777778)"/><use xlink:href="#p" transform="matrix(1,0,0,1,1105,-435) translate(126.75925925925925 30.27777777777778)"/></g><g><path d="M1346 298.07a6 6 0 0 1-6-6V206a6 6 0 0 1 6-6h40.57a6 6 0 0 1 6 6v86.07a6 6 0 0 1-6 6z" stroke="#000" stroke-opacity="0" fill="#fff" fill-opacity="0"/></g><g><use xlink:href="#q" transform="matrix(6.123233995736766e-17,-1,1,6.123233995736766e-17,1345,293.0647087756929) translate(25.98148148148149 26.708333333333325)"/><use xlink:href="#r" transform="matrix(6.123233995736766e-17,-1,1,6.123233995736766e-17,1345,293.0647087756929) translate(40.7962962962963 26.708333333333325)"/><use xlink:href="#s" transform="matrix(6.123233995736766e-17,-1,1,6.123233995736766e-17,1345,293.0647087756929) translate(55.61111111111111 26.708333333333325)"/></g><path d="M1050.3 199.6l46.38-58.8" stroke="#3a414a" fill="none"/><path d="M1050.7 199.9l-.1.1h-1.2l.54-.7z" stroke="#3a414a" stroke-width=".05" fill="#3a414a"/><path d="M1105.83 129.2l-5.2 14.07-7.28-5.74z" stroke="#3a414a" fill="#3a414a"/><path d="M1250.3 200.4l20.14-28.03" stroke="#3a414a" fill="none"/><path d="M1250.68 200.67l-.1.14h-1.16l.5-.68z" stroke="#3a414a" stroke-width=".05" fill="#3a414a"/><path d="M1279.06 160.38l-4.57 14.3-7.53-5.42z" stroke="#3a414a" fill="#3a414a"/><path d="M1000 206a6 6 0 0 1 6-6h88a6 6 0 0 1 6 6v28.97a6 6 0 0 1-6 6h-88a6 6 0 0 1-6-6z" stroke="#000" stroke-opacity="0" stroke-width="2" fill="#fff" fill-opacity="0"/><g><use xlink:href="#t" transform="matrix(1,0,0,1,1005,205) translate(21.999999999999996 23.270833333333336)"/></g><path d="M1200 206.8a6 6 0 0 1 6-6h88a6 6 0 0 1 6 6v28.98a6 6 0 0 1-6 6h-88a6 6 0 0 1-6-6z" stroke="#000" stroke-opacity="0" stroke-width="2" fill="#fff" fill-opacity="0"/><g><use xlink:href="#u" transform="matrix(1,0,0,1,1205,205.81026021574803) translate(19.55555555555555 23.270833333333336)"/></g><defs><path fill="#3a414a" d="M85-194c31 0 48 13 60 33l-1-100h32l1 261h-30c-2-10 0-23-3-31C134-8 116 4 85 4 32 4 16-35 15-94c0-66 23-100 70-100zm9 24c-40 0-46 34-46 75 0 40 6 74 45 74 42 0 51-32 51-76 0-42-9-74-50-73" id="v"/><path fill="#3a414a" d="M127-220V0H93v-220H8v-28h204v28h-85" id="w"/><path fill="#3a414a" d="M205 0l-28-72H64L36 0H1l101-248h38L239 0h-34zm-38-99l-47-123c-12 45-31 82-46 123h93" id="x"/><path fill="#3a414a" d="M140-251c81 0 123 46 123 126C263-46 219 4 140 4 59 4 17-45 17-125s42-126 123-126zm0 227c63 0 89-41 89-101s-29-99-89-99c-61 0-89 39-89 99S79-25 140-24" id="y"/><g id="a"><use transform="matrix(0.06172839506172839,0,0,0.06172839506172839,0,0)" xlink:href="#v"/><use transform="matrix(0.06172839506172839,0,0,0.06172839506172839,12.345679012345679,0)" xlink:href="#w"/><use transform="matrix(0.06172839506172839,0,0,0.06172839506172839,24.19753086419753,0)" xlink:href="#x"/><use transform="matrix(0.06172839506172839,0,0,0.06172839506172839,39.01234567901234,0)" xlink:href="#y"/></g><path d="M160 0c-6-11-7-31-12-42-11 26-28 46-63 46-53 0-69-39-70-98-1-60 21-100 75-100 34 0 52 20 62 45 3-14 7-29 13-41h33c-28 48-32 137-6 190h-32zM94-170c-40-2-46 34-46 75 0 39 4 76 44 74 69-3 71-145 2-149" id="z"/><use transform="matrix(0.07407407407407408,0,0,0.07407407407407408,0,0)" xlink:href="#z" id="b"/><path fill="#3a414a" d="M114-163C36-179 61-72 57 0H25l-1-190h30c1 12-1 29 2 39 6-27 23-49 58-41v29" id="A"/><path fill="#3a414a" d="M100-194c63 0 86 42 84 106H49c0 40 14 67 53 68 26 1 43-12 49-29l28 8c-11 28-37 45-77 45C44 4 14-33 15-96c1-61 26-98 85-98zm52 81c6-60-76-77-97-28-3 7-6 17-6 28h103" id="B"/><path fill="#3a414a" d="M135-143c-3-34-86-38-87 0 15 53 115 12 119 90S17 21 10-45l28-5c4 36 97 45 98 0-10-56-113-15-118-90-4-57 82-63 122-42 12 7 21 19 24 35" id="C"/><path fill="#3a414a" d="M108 0H70L1-190h34L89-25l56-165h34" id="D"/><g id="c"><use transform="matrix(0.06172839506172839,0,0,0.06172839506172839,0,0)" xlink:href="#A"/><use transform="matrix(0.06172839506172839,0,0,0.06172839506172839,7.345679012345679,0)" xlink:href="#B"/><use transform="matrix(0.06172839506172839,0,0,0.06172839506172839,19.691358024691358,0)" xlink:href="#C"/><use transform="matrix(0.06172839506172839,0,0,0.06172839506172839,30.80246913580247,0)" xlink:href="#B"/><use transform="matrix(0.06172839506172839,0,0,0.06172839506172839,43.148148148148145,0)" xlink:href="#A"/><use transform="matrix(0.06172839506172839,0,0,0.06172839506172839,50.49382716049382,0)" xlink:href="#D"/><use transform="matrix(0.06172839506172839,0,0,0.06172839506172839,61.60493827160494,0)" xlink:href="#B"/></g><g id="d"><use transform="matrix(0.06172839506172839,0,0,0.06172839506172839,0,0)" xlink:href="#w"/><use transform="matrix(0.06172839506172839,0,0,0.06172839506172839,11.851851851851851,0)" xlink:href="#x"/><use transform="matrix(0.06172839506172839,0,0,0.06172839506172839,26.666666666666664,0)" xlink:href="#y"/></g><path fill="#3a414a" d="M185-189c-5-48-123-54-124 2 14 75 158 14 163 119 3 78-121 87-175 55-17-10-28-26-33-46l33-7c5 56 141 63 141-1 0-78-155-14-162-118-5-82 145-84 179-34 5 7 8 16 11 25" id="E"/><path fill="#3a414a" d="M84 4C-5 8 30-112 23-190h32v120c0 31 7 50 39 49 72-2 45-101 50-169h31l1 190h-30c-1-10 1-25-2-33-11 22-28 36-60 37" id="F"/><path fill="#3a414a" d="M115-194c53 0 69 39 70 98 0 66-23 100-70 100C84 3 66-7 56-30L54 0H23l1-261h32v101c10-23 28-34 59-34zm-8 174c40 0 45-34 45-75 0-40-5-75-45-74-42 0-51 32-51 76 0 43 10 73 51 73" id="G"/><path fill="#3a414a" d="M117-194c89-4 53 116 60 194h-32v-121c0-31-8-49-39-48C34-167 62-67 57 0H25l-1-190h30c1 10-1 24 2 32 11-22 29-35 61-36" id="H"/><path fill="#3a414a" d="M59-47c-2 24 18 29 38 22v24C64 9 27 4 27-40v-127H5v-23h24l9-43h21v43h35v23H59v120" id="I"/><g id="e"><use transform="matrix(0.06172839506172839,0,0,0.06172839506172839,0,0)" xlink:href="#E"/><use transform="matrix(0.06172839506172839,0,0,0.06172839506172839,14.814814814814813,0)" xlink:href="#F"/><use transform="matrix(0.06172839506172839,0,0,0.06172839506172839,27.160493827160494,0)" xlink:href="#G"/><use transform="matrix(0.06172839506172839,0,0,0.06172839506172839,39.50617283950617,0)" xlink:href="#H"/><use transform="matrix(0.06172839506172839,0,0,0.06172839506172839,51.85185185185185,0)" xlink:href="#B"/><use transform="matrix(0.06172839506172839,0,0,0.06172839506172839,64.19753086419753,0)" xlink:href="#I"/></g><use transform="matrix(0.07407407407407408,0,0,0.07407407407407408,0,0)" xlink:href="#z" id="f"/><path d="M137-140c33 8 54 28 56 69 4 73-87 92-137 58l1 88H25v-256c0-55 26-75 80-80 80-8 92 105 32 121zm-32-96c-36-1-48 21-48 57v143c33 25 110 23 106-35-2-35-22-53-59-53v-25c28-5 42-19 42-50 0-24-16-37-41-37" id="J"/><use transform="matrix(0.07407407407407408,0,0,0.07407407407407408,0,0)" xlink:href="#J" id="g"/><use transform="matrix(0.07407407407407408,0,0,0.07407407407407408,0,0)" xlink:href="#J" id="h"/><path fill="#3a414a" d="M8 0l10-54h51L59 0H8" id="K"/><use transform="matrix(0.07407407407407404,0,0,0.07407407407407404,0,0)" xlink:href="#K" id="i"/><use transform="matrix(0.07407407407407404,0,0,0.07407407407407404,0,0)" xlink:href="#K" id="j"/><use transform="matrix(0.07407407407407404,0,0,0.07407407407407404,0,0)" xlink:href="#K" id="k"/><path d="M122-197c96-6 73 108 76 197h-33c-8-63 27-173-43-172H65V0H33v-197h89" id="L"/><use transform="matrix(0.07407407407407408,0,0,0.07407407407407408,0,0)" xlink:href="#L" id="l"/><use transform="matrix(0.07407407407407408,0,0,0.07407407407407408,0,0)" xlink:href="#L" id="m"/><g id="n"><use transform="matrix(0.06172839506172839,0,0,0.06172839506172839,0,0)" xlink:href="#E"/><use transform="matrix(0.06172839506172839,0,0,0.06172839506172839,14.814814814814813,0)" xlink:href="#F"/><use transform="matrix(0.06172839506172839,0,0,0.06172839506172839,27.160493827160494,0)" xlink:href="#G"/><use transform="matrix(0.06172839506172839,0,0,0.06172839506172839,39.50617283950617,0)" xlink:href="#H"/><use transform="matrix(0.06172839506172839,0,0,0.06172839506172839,51.85185185185185,0)" xlink:href="#B"/><use transform="matrix(0.06172839506172839,0,0,0.06172839506172839,64.19753086419753,0)" xlink:href="#I"/><use transform="matrix(0.06172839506172839,0,0,0.06172839506172839,70.37037037037037,0)" xlink:href="#C"/></g><g id="o"><use transform="matrix(0.06172839506172839,0,0,0.06172839506172839,0,0)" xlink:href="#E"/><use transform="matrix(0.06172839506172839,0,0,0.06172839506172839,14.814814814814813,0)" xlink:href="#F"/><use transform="matrix(0.06172839506172839,0,0,0.06172839506172839,27.160493827160494,0)" xlink:href="#G"/><use transform="matrix(0.06172839506172839,0,0,0.06172839506172839,39.50617283950617,0)" xlink:href="#H"/><use transform="matrix(0.06172839506172839,0,0,0.06172839506172839,51.85185185185185,0)" xlink:href="#B"/><use transform="matrix(0.06172839506172839,0,0,0.06172839506172839,64.19753086419753,0)" xlink:href="#I"/></g><path fill="#3a414a" d="M115-194c55 1 70 41 70 98S169 2 115 4C84 4 66-9 55-30l1 105H24l-1-265h31l2 30c10-21 28-34 59-34zm-8 174c40 0 45-34 45-75s-6-73-45-74c-42 0-51 32-51 76 0 43 10 73 51 73" id="M"/><path fill="#3a414a" d="M100-194c62-1 85 37 85 99 1 63-27 99-86 99S16-35 15-95c0-66 28-99 85-99zM99-20c44 1 53-31 53-75 0-43-8-75-51-75s-53 32-53 75 10 74 51 75" id="N"/><path fill="#3a414a" d="M24 0v-261h32V0H24" id="O"/><g id="p"><use transform="matrix(0.06172839506172839,0,0,0.06172839506172839,0,0)" xlink:href="#M"/><use transform="matrix(0.06172839506172839,0,0,0.06172839506172839,12.345679012345679,0)" xlink:href="#N"/><use transform="matrix(0.06172839506172839,0,0,0.06172839506172839,24.691358024691358,0)" xlink:href="#N"/><use transform="matrix(0.06172839506172839,0,0,0.06172839506172839,37.03703703703704,0)" xlink:href="#O"/><use transform="matrix(0.06172839506172839,0,0,0.06172839506172839,41.91358024691358,0)" xlink:href="#C"/></g><use transform="matrix(0.07407407407407404,0,0,0.07407407407407404,0,0)" xlink:href="#K" id="q"/><use transform="matrix(0.07407407407407404,0,0,0.07407407407407404,0,0)" xlink:href="#K" id="r"/><use transform="matrix(0.07407407407407404,0,0,0.07407407407407404,0,0)" xlink:href="#K" id="s"/><path fill="#1c1e21" d="M117 0C83 9 54 0 54-40v-127c-19-1-36 2-49 6v-24c35-10 90-3 134-5v23H86v120c-3 22 10 31 31 24V0" id="P"/><path fill="#1c1e21" d="M-5 72V49h209v23H-5" id="Q"/><path fill="#1c1e21" d="M24-231v-30h32v30H24zM24 0v-190h32V0H24" id="R"/><path fill="#1c1e21" d="M117-194c89-4 53 116 60 194h-32v-121c0-31-8-49-39-48C34-167 62-67 57 0H25l-1-190h30c1 10-1 24 2 32 11-22 29-35 61-36" id="S"/><g id="t"><use transform="matrix(0.07407407407407408,0,0,0.07407407407407408,0,0)" xlink:href="#P"/><use transform="matrix(0.07407407407407408,0,0,0.07407407407407408,10.518518518518519,0)" xlink:href="#Q"/><use transform="matrix(0.07407407407407408,0,0,0.07407407407407408,25.333333333333336,0)" xlink:href="#R"/><use transform="matrix(0.07407407407407408,0,0,0.07407407407407408,31.18518518518519,0)" xlink:href="#S"/></g><path fill="#1c1e21" d="M160 0c-6-11-7-31-12-42-11 26-28 46-63 46-53 0-69-39-70-98-1-60 21-100 75-100 34 0 52 20 62 45 3-14 7-29 13-41h33c-28 48-32 137-6 190h-32zM94-170c-40-2-46 34-46 75 0 39 4 76 44 74 69-3 71-145 2-149" id="T"/><g id="u"><use transform="matrix(0.07407407407407408,0,0,0.07407407407407408,0,0)" xlink:href="#T"/><use transform="matrix(0.07407407407407408,0,0,0.07407407407407408,15.40740740740741,0)" xlink:href="#Q"/><use transform="matrix(0.07407407407407408,0,0,0.07407407407407408,30.222222222222232,0)" xlink:href="#R"/><use transform="matrix(0.07407407407407408,0,0,0.07407407407407408,36.07407407407408,0)" xlink:href="#S"/></g></defs></g></svg>